<svg width="130" height="162" viewBox="0 0 130 162" fill="none" xmlns="http://www.w3.org/2000/svg">
<title></title>
<g clip-path="url(#clip0_100_2)">
<path d="M20.8368 4.71L20.7718 45.335L17.5218 48H7.25182L5.23682 46.31V3.085L7.83682 1.85H19.6668L20.8368 4.71ZM16.1568 5.425C16.0702 5.425 16.0052 5.40333 15.9618 5.36H10.6968C10.0035 5.36 9.65682 5.49 9.65682 5.75V36.885L16.1568 5.425ZM15.7668 43.515C16.0268 43.515 16.2435 43.4283 16.4168 43.255C16.6335 43.0817 16.7418 42.9083 16.7418 42.735V8.48L10.0468 43.385C10.2202 43.4717 10.3718 43.515 10.5018 43.515H15.7668Z" fill="black"/>
<path d="M29.8718 44.49L37.2168 44.23L38.4518 7.18L30.3268 7.765L29.6768 4.125L43.3918 1.785L42.4818 44.035L48.5918 43.84L48.3318 48H30.1968L29.8718 44.49Z" fill="black"/>
<path d="M67.2468 43.905L73.6818 41.5L72.9668 48H57.3668L56.3918 42.475L68.4168 21.415V6.01L62.5018 6.595L61.3318 7.57L61.0068 17.255H57.0418V4.97L61.3318 1.85H73.4868V23.235L60.8768 43.84L67.2468 43.905Z" fill="black"/>
<path d="M96.5618 21.415L98.9018 24.99V44.62L95.8468 48H83.1068V35.13H86.1618L86.7468 42.93C86.7468 43.19 87.0935 43.32 87.7868 43.32L93.3768 44.1C93.4202 44.1433 93.5285 44.165 93.7018 44.165C94.1352 44.165 94.3518 43.9483 94.3518 43.515L93.6368 23.95L86.4218 23.82V20.245L94.0918 18.23L94.5468 5.815L83.0418 6.27V3.735L86.0318 1.85H99.0968V17.515L98.7068 19.075L96.5618 21.415Z" fill="black"/>
<path d="M118.987 48L119.442 35H108.262L107.352 32.27L117.167 1.85H123.862V48H118.987ZM118.727 30.71L120.027 5.23H119.702L112.357 31.425L118.727 30.71Z" fill="black"/>
<path d="M9.07182 70.605L9.65682 75.09L19.7318 73.79L21.4868 102H4.71682V89.26H8.09682L9.52682 96.735L15.2468 98.425C15.5068 98.425 15.7235 98.3167 15.8968 98.1C16.1135 97.84 16.2218 97.58 16.2218 97.32L15.2468 79.25C15.2468 78.99 14.9868 78.86 14.4668 78.86H7.44682L4.71682 74.31V57.865L7.44682 55.85H19.5368L18.5618 59.815L9.07182 61.115V70.605Z" fill="black"/>
<path d="M47.5518 78.47L46.2518 102H30.6518L32.1468 55.85L46.9018 56.5V62.025L37.7368 60.205L36.1768 61.7V76.065H42.0918L47.5518 78.47ZM42.0918 80.745L36.1768 79.38V98.1L42.0918 96.8V80.745Z" fill="black"/>
<path d="M61.1368 102L67.2468 78.6L58.2118 78.275V74.245L68.0268 74.18L70.4318 60.66L56.0018 61.18L56.6518 55.59L76.4768 56.175L72.3818 74.18H74.6568V78.6H71.4068L65.7518 103.235L61.1368 102Z" fill="black"/>
<path d="M83.7568 102L82.2618 97.84L83.7568 82.955L87.3968 79.315L84.2118 76.585L84.0818 58.255L89.2168 55.85L99.1618 56.695L98.0568 77.625L94.8068 79.185L99.0318 81.655L98.4468 98.555L96.6268 102H83.7568ZM88.5668 76L93.7018 77.56L94.8068 59.88L88.8268 59.945L88.5668 76ZM94.2868 98.295L94.8718 83.02L89.1518 81.07L87.2668 98.295H94.2868Z" fill="black"/>
<path d="M109.172 81.005V55.85H125.422L123.472 102H109.952L109.237 96.8L117.687 98.49L119.247 96.735V83.215H115.282L109.172 81.005ZM113.332 77.885L119.897 79.25L120.547 60.4L113.332 59.75V77.885Z" fill="black"/>
<path d="M16.4432 130.39H10.4632L10.2032 124.15L16.4432 124.41V130.39ZM10.2032 150.02L16.4432 149.76L16.1832 156H10.2032V150.02Z" fill="black"/>
<path d="M36.2032 150.02L42.4432 149.76L42.1832 156H36.2032V150.02Z" fill="black"/>
<path d="M71.6394 156H67.8694L66.1794 137.93H62.8644L59.8744 156H56.8194L59.7444 109.85H71.6394V156ZM67.5444 112.32C67.5444 112.06 67.4144 111.93 67.1544 111.93H64.3594C64.0994 111.93 63.9694 112.06 63.9694 112.32V134.55C63.9694 134.767 64.0994 134.875 64.3594 134.875H67.1544C67.4144 134.875 67.5444 134.745 67.5444 134.485V112.32Z" fill="black"/>
<path d="M92.4394 109.85C94.0861 109.85 95.4727 110.175 96.5994 110.825C97.7261 111.432 98.2894 112.168 98.2894 113.035V131.365C98.2894 131.842 98.1161 132.448 97.7694 133.185C97.4661 133.878 96.8161 134.55 95.8194 135.2C94.8227 135.807 93.4144 136.11 91.5944 136.11H88.1494V156H84.3794V112.515L82.9494 111.735V109.85H92.4394ZM89.0594 131.755C89.0594 131.885 89.1244 132.015 89.2544 132.145C89.4277 132.232 89.6227 132.275 89.8394 132.275L92.6344 131.625C92.8944 131.625 93.0244 131.495 93.0244 131.235L93.6744 114.855C93.6311 114.292 93.3927 113.815 92.9594 113.425C92.5261 112.992 91.8544 112.775 90.9444 112.775H89.8394C89.3194 112.775 89.0594 112.927 89.0594 113.23V131.755Z" fill="black"/>
<path d="M107.524 157.3V109.85H113.374L116.754 134.42H117.144L120.199 108.55H126.504V156H122.214L123.644 113.035H123.384L117.729 144.235H115.779L111.164 116.35H110.904V157.3H107.524Z" fill="black"/>
</g>
</svg>
