<svg width="130" height="162" viewBox="0 0 130 162" fill="none" xmlns="http://www.w3.org/2000/svg">
<desc>{"colon":0.5,"dot":0.5}</desc>
<g clip-path="url(#clip0_100_2)">
<path d="M5.10682 48.14L5.30182 7.06L8.81182 4.915L17.3268 4.85L20.8368 7.06L20.9018 48.335L18.3668 51H8.55182L5.10682 48.14ZM15.3118 46.58C15.9618 46.58 16.2868 46.3633 16.2868 45.93V9.855C16.2868 9.63833 16.1785 9.44333 15.9618 9.27C15.7452 9.05333 15.4852 8.945 15.1818 8.945H11.1518C10.3285 8.945 9.91682 9.27 9.91682 9.92V45.865C9.91682 46.4283 10.1985 46.71 10.7618 46.71L15.3118 46.58ZM10.7618 25.13L15.3118 24.22L14.9218 30.135H11.3468L10.7618 25.13Z" fill="black"/>
<path d="M30.3918 46.645H37.1518L37.6068 9.53H32.4068L31.4318 7.515V4.785H42.4818V46.645H48.6568V51H30.3918V46.645Z" fill="black"/>
<path d="M58.2768 31.435L66.3368 22.79L67.2468 8.75H61.7868L60.8118 14.405H57.6918V4.85H69.1968L71.7968 7.905V24.35L64.1268 32.345L62.6968 46.58H73.1618V51H58.2768V31.435Z" fill="black"/>
<path d="M83.4968 40.6H86.3568L87.8518 46.515H93.5068L93.0518 29.81L92.2068 28.77H85.4468V24.22H92.2068L93.0518 23.31L93.5068 8.88H86.8768L85.9018 14.665H82.7818V4.85H93.8318L98.2518 8.425V22.335C98.2518 23.245 97.8618 24.025 97.0818 24.675C96.3452 25.325 95.4135 25.8233 94.2868 26.17C95.4568 26.43 96.4318 26.885 97.2118 27.535C98.0352 28.1417 98.4468 28.9217 98.4468 29.875V47.23L94.8718 51H83.4968V40.6Z" fill="black"/>
<path d="M118.727 41.185H109.237L108.002 37.285L116.322 4.85L123.472 4.785L123.602 36.44L127.372 37.48V41.185H123.602L123.667 51H118.792L118.727 41.185ZM118.532 36.44L120.092 7.84H119.637L112.942 36.44H118.532Z" fill="black"/>
<path d="M6.08182 94.47H9.07182L10.3718 100.775L16.0268 99.8L15.2468 83.225L6.86182 82.445V58.85H20.8368V63.27H10.8918L12.0618 78.415H16.3518L20.3818 81.86V101.945L16.9368 105H6.08182V94.47Z" fill="black"/>
<path d="M31.2368 101.945L31.1718 62.555L34.6818 58.85H45.9268V69.38H42.9368L41.5068 63.27H35.5918L36.0468 78.545L42.8718 78.61L46.9018 82.055V101.945L43.5218 105H34.8118L31.2368 101.945ZM42.2868 99.865V84.135L41.7668 83.68H35.7218V99.67L36.2418 100.19L41.7668 100.515L42.2868 99.865Z" fill="black"/>
<path d="M68.0918 63.205H61.5268L60.4868 69.25H57.3018V58.85H72.8368V61.775L64.5168 105H59.3818L68.0918 63.205Z" fill="black"/>
<path d="M83.1718 101.555L83.1068 85.045C83.1068 83.9617 83.4968 83.0517 84.2768 82.315C85.1001 81.5783 86.0751 81.015 87.2018 80.625C86.2052 80.1917 85.3602 79.6283 84.6668 78.935C84.0168 78.1983 83.6918 77.4183 83.6918 76.595V62.425L87.2668 58.85H95.3918L98.5118 62.425V76.53C98.5118 77.31 98.2085 78.0683 97.6018 78.805C96.9952 79.4983 96.2585 80.105 95.3918 80.625C96.4318 80.9717 97.3202 81.5133 98.0568 82.25C98.7935 82.9433 99.1618 83.81 99.1618 84.85L99.0968 101.555L95.6518 105H87.0718L83.1718 101.555ZM92.7918 77.7L94.0918 76.66L93.7668 63.79L92.9868 63.01H89.0868L88.3068 63.79L87.9818 76.66L89.4118 77.7H92.7918ZM93.5068 100.19L94.2868 99.54L94.4818 85.11L92.9868 83.745H89.0218L87.5918 85.11L87.7868 99.41L88.6968 100.19H93.5068Z" fill="black"/>
<path d="M110.147 94.47H113.137L114.567 100.775L119.962 100.06L120.352 85.175L113.202 85.24L109.172 81.795V61.905L112.552 58.85H121.262L124.837 61.905L124.902 101.295L121.392 105H110.147V94.47ZM120.352 80.69V63.79L119.832 63.27L114.307 63.335L113.787 63.985V80.235L114.307 80.69H120.352Z" fill="black"/>
<path d="M10.2032 127.15L16.4432 127.41V133.39H10.4632L10.2032 127.15ZM10.2032 153.02L16.4432 152.76L16.1832 159H10.2032V153.02Z" fill="black"/>
<path d="M36.2032 153.02L42.4432 152.76L42.1832 159H36.2032V153.02Z" fill="black"/>
<path d="M59.7957 112.85H71.6907V159H67.9207L66.2307 140.93H62.9157L59.9257 159H56.8707L59.7957 112.85ZM67.2057 137.875C67.4657 137.875 67.5957 137.745 67.5957 137.485V115.32C67.5957 115.06 67.4657 114.93 67.2057 114.93H64.4107C64.1507 114.93 64.0207 115.06 64.0207 115.32V137.55C64.0207 137.767 64.1507 137.875 64.4107 137.875H67.2057Z" fill="black"/>
<path d="M84.4337 115.515L83.0037 114.735V112.85H92.4937C94.1404 112.85 95.5271 113.175 96.6537 113.825C97.7804 114.432 98.3437 115.168 98.3437 116.035V134.365C98.3437 134.842 98.1704 135.448 97.8237 136.185C97.5204 136.878 96.8704 137.55 95.8737 138.2C94.8771 138.807 93.4687 139.11 91.6487 139.11H88.2037V159H84.4337V115.515ZM92.6887 134.625C92.9487 134.538 93.0787 134.408 93.0787 134.235L93.7287 117.855C93.6854 117.292 93.4471 116.815 93.0137 116.425C92.5804 115.992 91.9087 115.775 90.9987 115.775H89.8937C89.3737 115.775 89.1137 115.927 89.1137 116.23V134.755C89.1137 134.885 89.1787 135.015 89.3087 135.145C89.4821 135.232 89.6771 135.275 89.8937 135.275L92.6887 134.625Z" fill="black"/>
<path d="M107.515 112.85H113.365L116.745 137.42H117.135L120.19 111.55H126.495V159H122.205L123.635 116.035H123.375L117.72 147.235H115.77L111.155 119.35H110.895V160.3H107.515V112.85Z" fill="black"/>
</g>
</svg>
