<svg width="140" height="162" viewBox="0 0 140 162" fill="none" xmlns="http://www.w3.org/2000/svg">
<g clip-path="url(#clip0_100_2)">
<path d="M6.10789 42.62C6.06789 39.06 6.03789 35.4 6.01789 31.64C5.99789 27.88 5.99789 24.12 6.01789 20.36C6.03789 16.6 6.06789 12.94 6.10789 9.38C6.12789 7.08 6.69789 5.28 7.81789 3.98C8.95789 2.66 10.5879 1.89 12.7079 1.67V5.12C11.0279 5.54 10.1579 6.76 10.0979 8.78C10.0579 11.84 10.0179 14.89 9.97789 17.93C9.95789 20.95 9.94789 23.93 9.94789 26.87C9.94789 29.81 9.95789 32.65 9.97789 35.39C10.0179 38.13 10.0579 40.74 10.0979 43.22C10.1579 45.24 11.0279 46.46 12.7079 46.88V50.33C10.5879 50.11 8.95789 49.35 7.81789 48.05C6.69789 46.73 6.12789 44.92 6.10789 42.62ZM15.3179 50.33V46.88C16.9979 46.46 17.8779 45.24 17.9579 43.22C18.0179 39.04 18.0579 34.93 18.0779 30.89C18.1179 26.83 18.1179 22.93 18.0779 19.19C18.0579 15.45 18.0179 11.98 17.9579 8.78C17.8979 6.76 17.0179 5.54 15.3179 5.12V1.67C17.4179 1.89 19.0279 2.66 20.1479 3.98C21.2679 5.28 21.8479 7.08 21.8879 9.38C21.9279 12.06 21.9579 14.8 21.9779 17.6C22.0179 20.4 22.0379 23.21 22.0379 26.03C22.0379 28.85 22.0179 31.66 21.9779 34.46C21.9579 37.24 21.9279 39.96 21.8879 42.62C21.8479 44.9 21.2679 46.7 20.1479 48.02C19.0279 49.34 17.4179 50.11 15.3179 50.33Z" fill="black"/>
<path d="M40.8234 50V6.38H38.7834L38.6034 4.76L41.6034 2H44.8134V50H40.8234Z" fill="black"/>
<path d="M62.608 50C62.588 49.32 62.568 48.67 62.548 48.05C62.548 47.43 62.548 46.84 62.548 46.28C62.548 45.7 62.548 45.13 62.548 44.57C62.548 44.01 62.548 43.45 62.548 42.89C62.548 42.31 62.548 41.71 62.548 41.09C62.588 38.31 62.878 36.03 63.418 34.25C63.978 32.45 64.728 30.97 65.668 29.81C66.608 28.65 67.668 27.65 68.848 26.81L71.458 24.77C72.698 23.71 73.498 22.62 73.858 21.5C74.218 20.36 74.428 19.16 74.488 17.9C74.568 16.4 74.608 14.9 74.608 13.4C74.608 11.88 74.568 10.37 74.488 8.87C74.428 7.75 74.178 6.88 73.738 6.26C73.318 5.64 72.628 5.25 71.668 5.09V1.64C74.068 1.8 75.778 2.5 76.798 3.74C77.818 4.96 78.378 6.85 78.478 9.41C78.498 10.01 78.518 10.69 78.538 11.45C78.558 12.19 78.568 12.96 78.568 13.76C78.568 14.54 78.568 15.29 78.568 16.01C78.568 16.73 78.548 17.35 78.508 17.87C78.428 19.71 78.158 21.27 77.698 22.55C77.258 23.81 76.628 24.92 75.808 25.88C74.988 26.82 73.968 27.76 72.748 28.7L69.988 30.71C69.188 31.39 68.538 32.26 68.038 33.32C67.538 34.38 67.168 35.57 66.928 36.89C66.708 38.21 66.598 39.61 66.598 41.09V50H62.608ZM62.578 18.65C62.558 17.55 62.528 16.46 62.488 15.38C62.468 14.28 62.458 13.23 62.458 12.23C62.458 11.23 62.468 10.31 62.488 9.47C62.568 6.91 63.118 5.01 64.138 3.77C65.178 2.53 66.818 1.82 69.058 1.64V5.09C68.178 5.27 67.528 5.67 67.108 6.29C66.708 6.89 66.488 7.75 66.448 8.87C66.428 10.49 66.418 12.12 66.418 13.76C66.418 15.38 66.448 17.01 66.508 18.65H62.578ZM69.208 50V46.4H78.418V50H69.208Z" fill="black"/>
<path d="M89.4158 42.5C89.3958 41.58 89.3758 40.67 89.3558 39.77C89.3558 38.87 89.3558 37.91 89.3558 36.89C89.3758 35.87 89.3958 34.71 89.4158 33.41H93.3758V42.92C93.3758 45.22 94.3058 46.55 96.1658 46.91V50.33C93.8458 50.15 92.1558 49.44 91.0958 48.2C90.0558 46.96 89.4958 45.06 89.4158 42.5ZM89.4158 5.6V2H105.736V5.6H89.4158ZM98.7758 46.91C100.556 46.55 101.446 45.22 101.446 42.92C101.526 40.92 101.566 38.88 101.566 36.8C101.566 34.72 101.526 32.7 101.446 30.74C101.386 29.22 101.016 28.08 100.336 27.32C99.6558 26.54 98.4558 26.15 96.7358 26.15L93.5258 26.18L93.3758 22.79L100.396 7.31H104.716L97.7558 22.64H98.1458C100.646 22.64 102.456 23.31 103.576 24.65C104.716 25.97 105.336 27.99 105.436 30.71C105.476 31.99 105.506 33.19 105.526 34.31C105.546 35.43 105.556 36.48 105.556 37.46C105.556 38.42 105.546 39.32 105.526 40.16C105.506 41 105.476 41.78 105.436 42.5C105.336 45.1 104.766 47.02 103.726 48.26C102.686 49.48 101.036 50.18 98.7758 50.36V46.91Z" fill="black"/>
<path d="M115.642 35.3V32.06L120.262 13.79H123.802L119.572 31.73H123.442V35.3H115.642ZM126.082 50V2H129.832V50H126.082ZM132.442 35.3V31.73H135.262V35.3H132.442Z" fill="black"/>
<path d="M5.90141 96.5C5.86141 94.9 5.84141 93.36 5.84141 91.88C5.84141 90.4 5.87141 88.91 5.93141 87.41H9.89141C9.85141 88.43 9.82141 89.49 9.80141 90.59C9.80141 91.69 9.80141 92.78 9.80141 93.86C9.82141 94.92 9.85141 95.94 9.89141 96.92C9.95141 98.1 10.2014 99.02 10.6414 99.68C11.0814 100.34 11.7814 100.75 12.7414 100.91V104.33C10.4014 104.15 8.69141 103.45 7.61141 102.23C6.55141 100.99 5.98141 99.08 5.90141 96.5ZM6.44141 82.31V56H10.4014V82.31H6.44141ZM13.0114 78.5V75.65C13.3914 75.39 13.8314 75.2 14.3314 75.08C14.8314 74.94 15.3614 74.87 15.9214 74.87C17.9414 74.87 19.4314 75.48 20.3914 76.7C21.3714 77.92 21.9114 79.73 22.0114 82.13C22.0714 83.89 22.1014 85.58 22.1014 87.2C22.1214 88.8 22.1114 90.36 22.0714 91.88C22.0514 93.4 22.0114 94.94 21.9514 96.5C21.7714 99.08 21.1814 100.99 20.1814 102.23C19.2014 103.47 17.5914 104.18 15.3514 104.36V100.88C16.2314 100.68 16.8714 100.26 17.2714 99.62C17.6714 98.98 17.9014 98.08 17.9614 96.92C18.1014 94.38 18.1714 91.94 18.1714 89.6C18.1914 87.26 18.1414 84.79 18.0214 82.19C17.9814 80.83 17.6714 79.84 17.0914 79.22C16.5114 78.6 15.6114 78.29 14.3914 78.29C14.1314 78.29 13.8914 78.31 13.6714 78.35C13.4514 78.37 13.2314 78.42 13.0114 78.5ZM13.0114 59.6V56H21.7114V59.6H13.0114Z" fill="black"/>
<path d="M34.2837 96.56C34.2637 93.34 34.2337 90.24 34.1937 87.26C34.1737 84.28 34.1637 81.42 34.1637 78.68C34.1637 75.94 34.1737 73.3 34.1937 70.76C34.2137 68.22 34.2437 65.8 34.2837 63.5C34.3437 61 34.9137 59.13 35.9937 57.89C37.0937 56.63 38.6737 55.9 40.7337 55.7V59.15C39.9137 59.35 39.3037 59.76 38.9037 60.38C38.5237 60.98 38.3137 61.82 38.2737 62.9C38.2337 66.26 38.2037 69.73 38.1837 73.31C38.1637 76.89 38.1637 80.64 38.1837 84.56C38.2037 88.48 38.2337 92.68 38.2737 97.16C38.2737 98.26 38.4737 99.12 38.8737 99.74C39.2937 100.36 39.9137 100.76 40.7337 100.94V104.39C38.4937 104.21 36.8637 103.5 35.8437 102.26C34.8437 101.02 34.3237 99.12 34.2837 96.56ZM40.7037 78.98V76.16C41.1637 75.86 41.6737 75.63 42.2337 75.47C42.8137 75.31 43.4237 75.23 44.0637 75.23C46.2637 75.23 47.8137 75.8 48.7137 76.94C49.6137 78.06 50.0937 79.91 50.1537 82.49C50.2137 84.19 50.2437 85.81 50.2437 87.35C50.2637 88.89 50.2637 90.41 50.2437 91.91C50.2437 93.41 50.2137 94.96 50.1537 96.56C50.0537 99.14 49.4737 101.05 48.4137 102.29C47.3737 103.53 45.6937 104.23 43.3737 104.39V100.94C44.3137 100.78 45.0037 100.39 45.4437 99.77C45.9037 99.15 46.1437 98.28 46.1637 97.16C46.2037 95.84 46.2237 94.56 46.2237 93.32C46.2437 92.08 46.2537 90.87 46.2537 89.69C46.2537 88.51 46.2437 87.34 46.2237 86.18C46.2237 85 46.2137 83.79 46.1937 82.55C46.1737 81.19 45.8637 80.2 45.2637 79.58C44.6837 78.96 43.7837 78.65 42.5637 78.65C42.2237 78.65 41.8937 78.68 41.5737 78.74C41.2737 78.78 40.9837 78.86 40.7037 78.98ZM45.9237 71.51C45.9637 70.55 45.9837 69.62 45.9837 68.72C46.0037 67.82 46.0037 66.89 45.9837 65.93C45.9837 64.97 45.9637 63.96 45.9237 62.9C45.8837 61.8 45.6637 60.95 45.2637 60.35C44.8637 59.73 44.2237 59.33 43.3437 59.15V55.7C45.4637 55.9 47.0637 56.64 48.1437 57.92C49.2237 59.2 49.8137 61.06 49.9137 63.5C49.9337 64.14 49.9437 64.96 49.9437 65.96C49.9437 66.96 49.9337 67.97 49.9137 68.99C49.9137 69.99 49.9037 70.83 49.8837 71.51H45.9237Z" fill="black"/>
<path d="M62.0484 59.6V56H78.1584V59.6H62.0484ZM64.1784 104L73.5984 61.79H77.6184L68.2584 104H64.1784Z" fill="black"/>
<path d="M90.133 96.5C90.093 95.6 90.063 94.63 90.043 93.59C90.023 92.55 90.023 91.39 90.043 90.11C90.083 88.81 90.123 87.33 90.163 85.67C90.283 83.97 90.623 82.65 91.183 81.71C91.743 80.75 92.613 80.03 93.793 79.55V78.68C92.813 78.28 92.033 77.67 91.453 76.85C90.873 76.01 90.513 74.87 90.373 73.43C90.313 72.19 90.263 70.99 90.223 69.83C90.183 68.65 90.163 67.54 90.163 66.5C90.183 65.44 90.213 64.43 90.253 63.47C90.353 60.91 90.903 59.02 91.903 57.8C92.923 56.56 94.513 55.85 96.673 55.67V59.12C95.813 59.3 95.173 59.72 94.753 60.38C94.353 61.02 94.133 61.91 94.093 63.05C94.073 63.91 94.053 64.75 94.033 65.57C94.033 66.39 94.033 67.2 94.033 68C94.033 68.78 94.033 69.58 94.033 70.4C94.053 71.22 94.073 72.06 94.093 72.92C94.133 74.14 94.353 75.09 94.753 75.77C95.173 76.45 95.813 76.89 96.673 77.09V81.2C95.813 81.4 95.173 81.83 94.753 82.49C94.353 83.15 94.133 84.09 94.093 85.31C94.053 87.35 94.033 89.29 94.033 91.13C94.033 92.97 94.053 94.9 94.093 96.92C94.133 98.08 94.353 98.99 94.753 99.65C95.173 100.29 95.813 100.7 96.673 100.88V104.33C94.473 104.15 92.853 103.45 91.813 102.23C90.793 100.99 90.233 99.08 90.133 96.5ZM99.283 104.33V100.91C100.183 100.71 100.833 100.29 101.233 99.65C101.653 99.01 101.863 98.1 101.863 96.92C101.903 95.56 101.923 94.25 101.923 92.99C101.943 91.73 101.943 90.48 101.923 89.24C101.923 87.98 101.903 86.67 101.863 85.31C101.783 82.95 100.923 81.58 99.283 81.2V77.09C100.983 76.71 101.843 75.32 101.863 72.92C101.883 71.18 101.903 69.54 101.923 68C101.943 66.44 101.923 64.79 101.863 63.05C101.823 61.89 101.603 60.99 101.203 60.35C100.803 59.71 100.163 59.29 99.283 59.09V55.67C101.443 55.85 103.023 56.56 104.023 57.8C105.023 59.02 105.593 60.91 105.733 63.47C105.793 64.43 105.813 65.44 105.793 66.5C105.793 67.54 105.773 68.65 105.733 69.83C105.713 70.99 105.663 72.19 105.583 73.43C105.423 74.87 105.053 76.01 104.473 76.85C103.913 77.67 103.153 78.26 102.193 78.62V79.52C103.293 80.04 104.123 80.78 104.683 81.74C105.263 82.7 105.633 84.01 105.793 85.67C105.893 88.15 105.943 90.24 105.943 91.94C105.943 93.62 105.903 95.14 105.823 96.5C105.723 99.08 105.163 100.99 104.143 102.23C103.123 103.45 101.503 104.15 99.283 104.33Z" fill="black"/>
<path d="M117.803 77.78C117.783 76.68 117.763 75.48 117.743 74.18C117.743 72.86 117.743 71.53 117.743 70.19C117.743 68.85 117.743 67.6 117.743 66.44C117.763 65.26 117.783 64.29 117.803 63.53C117.883 60.93 118.453 59.02 119.513 57.8C120.593 56.56 122.293 55.86 124.613 55.7V59.12C122.733 59.46 121.793 60.73 121.793 62.93C121.793 63.59 121.783 64.59 121.763 65.93C121.763 67.27 121.753 68.72 121.733 70.28C121.733 71.82 121.733 73.28 121.733 74.66C121.733 76.04 121.743 77.12 121.763 77.9C121.803 79.24 122.133 80.23 122.753 80.87C123.393 81.49 124.313 81.8 125.513 81.8C125.833 81.8 126.133 81.78 126.413 81.74C126.713 81.68 127.003 81.6 127.283 81.5V84.44C126.863 84.68 126.393 84.88 125.873 85.04C125.353 85.18 124.803 85.25 124.223 85.25C122.943 85.25 121.823 85 120.863 84.5C119.903 83.98 119.153 83.17 118.613 82.07C118.093 80.97 117.823 79.54 117.803 77.78ZM118.253 96.56C118.253 95.92 118.243 95.1 118.223 94.1C118.223 93.1 118.223 92.1 118.223 91.1C118.243 90.08 118.263 89.23 118.283 88.55H122.243C122.223 89.97 122.203 91.39 122.183 92.81C122.183 94.21 122.203 95.66 122.243 97.16C122.283 98.22 122.483 99.06 122.843 99.68C123.203 100.28 123.793 100.68 124.613 100.88V104.39C122.393 104.19 120.783 103.47 119.783 102.23C118.803 100.99 118.293 99.1 118.253 96.56ZM127.223 104.39V100.94C128.063 100.78 128.673 100.39 129.053 99.77C129.453 99.15 129.663 98.28 129.683 97.16C129.743 94.34 129.783 91.53 129.803 88.73C129.823 85.93 129.833 83.12 129.833 80.3C129.833 77.48 129.813 74.63 129.773 71.75C129.753 68.85 129.723 65.91 129.683 62.93C129.663 61.83 129.453 60.98 129.053 60.38C128.653 59.76 128.043 59.35 127.223 59.15V55.7C129.463 55.88 131.083 56.59 132.083 57.83C133.083 59.05 133.603 60.95 133.643 63.53C133.723 67.25 133.763 70.97 133.763 74.69C133.783 78.41 133.783 82.1 133.763 85.76C133.743 89.4 133.703 93 133.643 96.56C133.603 99.16 133.073 101.08 132.053 102.32C131.033 103.54 129.423 104.23 127.223 104.39Z" fill="black"/>
<path d="M10.6377 140V134.63H17.3577V140H10.6377ZM10.6377 158V152.63H17.3577V158H10.6377Z" fill="black"/>
<path d="M38.6377 158V152.63H45.3577V158H38.6377Z" fill="black"/>
<path d="M61.0661 158L66.1961 110H73.9361L74.3261 113.6H69.1961L67.9061 130.49L66.8861 140.48H71.6561L70.6961 144.08H66.5861L65.1461 158H61.0661ZM74.8961 158L72.1961 130.43L71.0861 115.43H74.4461L78.9461 158H74.8961Z" fill="black"/>
<path d="M91.0433 158V110H95.0033V158H91.0433ZM97.6433 139.22V135.65H98.4533C99.8133 135.65 100.803 135.33 101.423 134.69C102.043 134.05 102.383 133.03 102.443 131.63C102.503 130.05 102.543 128.49 102.563 126.95C102.583 125.39 102.583 123.84 102.563 122.3C102.543 120.74 102.503 119.17 102.443 117.59C102.383 116.21 102.043 115.2 101.423 114.56C100.823 113.92 99.8533 113.6 98.5133 113.6H97.6433V110H98.5133C101.233 110 103.203 110.6 104.423 111.8C105.643 113 106.303 114.99 106.403 117.77C106.503 120.43 106.553 122.82 106.553 124.94C106.553 127.06 106.503 129.24 106.403 131.48C106.303 134.24 105.633 136.22 104.393 137.42C103.173 138.62 101.193 139.22 98.4533 139.22H97.6433Z" fill="black"/>
<path d="M122.347 157.79L120.847 143.69L118.297 113.6H112.627V110H121.627L123.427 127.88L125.437 154.19H126.487L128.497 127.61L130.297 110H139.387V113.6H133.687L131.137 143.78L129.637 157.79H122.347ZM112.627 158V115.67H116.257L116.617 144.14V158H112.627ZM135.397 158V144.35L135.757 115.67H139.387V158H135.397Z" fill="black"/>
</g>
</svg>
