<svg width="230" height="144" viewBox="0 0 230 144" fill="none" xmlns="http://www.w3.org/2000/svg">
<g clip-path="url(#clip0_100_2)">
<path d="M41.3431 34.66C41.3431 36.5 41.0831 38.18 40.5631 39.7C40.0431 41.18 39.1031 42.46 37.7431 43.54C36.3831 44.58 34.5031 45.4 32.1031 46C29.7431 46.6 26.7231 46.9 23.0431 46.9C19.3631 46.9 16.3231 46.6 13.9231 46C11.5631 45.4 9.70313 44.58 8.34313 43.54C6.98313 42.46 6.02313 41.18 5.46313 39.7C4.94313 38.18 4.68313 36.5 4.68313 34.66V14.2C4.68313 12.36 4.94313 10.7 5.46313 9.22C6.02313 7.7 6.98313 6.4 8.34313 5.32C9.70313 4.24 11.5631 3.4 13.9231 2.8C16.3231 2.2 19.3631 1.9 23.0431 1.9C26.7231 1.9 29.7431 2.2 32.1031 2.8C34.5031 3.4 36.3831 4.24 37.7431 5.32C39.1031 6.4 40.0431 7.7 40.5631 9.22C41.0831 10.7 41.3431 12.36 41.3431 14.2V34.66ZM18.2431 32.5C18.2431 33.3 18.5231 33.98 19.0831 34.54C19.6831 35.06 21.0031 35.32 23.0431 35.32C25.0831 35.32 26.3831 35.06 26.9431 34.54C27.5431 33.98 27.8431 33.3 27.8431 32.5V16.36C27.8431 15.6 27.5431 14.96 26.9431 14.44C26.3831 13.88 25.0831 13.6 23.0431 13.6C21.0031 13.6 19.6831 13.88 19.0831 14.44C18.5231 14.96 18.2431 15.6 18.2431 16.36V32.5Z" fill="black"/>
<path d="M82.5424 46H56.0224C55.2624 46 54.7024 45.84 54.3424 45.52C54.0224 45.16 53.8624 44.6 53.8624 43.84V36.58C53.8624 35.82 54.0224 35.28 54.3424 34.96C54.7024 34.6 55.2624 34.42 56.0224 34.42H62.7424V14.38H57.2224C56.4624 14.38 55.9024 14.22 55.5424 13.9C55.2224 13.54 55.0624 12.98 55.0624 12.22V4.96C55.0624 4.2 55.2224 3.66 55.5424 3.34C55.9024 2.98 56.4624 2.8 57.2224 2.8H74.6224C75.3824 2.8 75.9224 2.98 76.2424 3.34C76.6024 3.66 76.7824 4.2 76.7824 4.96V34.42H82.5424C83.3024 34.42 83.8424 34.6 84.1624 34.96C84.5224 35.28 84.7024 35.82 84.7024 36.58V43.84C84.7024 44.6 84.5224 45.16 84.1624 45.52C83.8424 45.84 83.3024 46 82.5424 46Z" fill="black"/>
<path d="M128.96 46H100.4C99.6398 46 99.0798 45.84 98.7198 45.52C98.3998 45.16 98.2398 44.6 98.2398 43.84V33.52C98.2398 31.2 98.4598 29.3 98.8998 27.82C99.3798 26.3 100.04 25.06 100.88 24.1C101.72 23.14 102.72 22.38 103.88 21.82C105.04 21.26 106.3 20.78 107.66 20.38L115.7 17.86C116.34 17.7 116.76 17.46 116.96 17.14C117.2 16.82 117.32 16.34 117.32 15.7C117.32 15.1 117.2 14.7 116.96 14.5C116.72 14.26 116.3 14.14 115.7 14.14H102.68C101.92 14.14 101.36 13.98 101 13.66C100.68 13.3 100.52 12.74 100.52 11.98V4.96C100.52 4.2 100.68 3.66 101 3.34C101.36 2.98 101.92 2.8 102.68 2.8H120.38C123.78 2.8 126.38 3.66 128.18 5.38C130.02 7.06 130.94 9.52 130.94 12.76V18.4C130.94 21.4 130.1 23.7 128.42 25.3C126.74 26.9 124.46 28.14 121.58 29.02L113.42 31.6C112.82 31.76 112.4 31.94 112.16 32.14C111.96 32.34 111.86 32.76 111.86 33.4V34.66H128.96C129.72 34.66 130.26 34.84 130.58 35.2C130.94 35.52 131.12 36.06 131.12 36.82V43.84C131.12 44.6 130.94 45.16 130.58 45.52C130.26 45.84 129.72 46 128.96 46Z" fill="black"/>
<path d="M146.998 34.66H162.058C163.018 34.66 163.638 34.48 163.918 34.12C164.198 33.76 164.338 33.34 164.338 32.86V31.24C164.338 30.76 164.198 30.36 163.918 30.04C163.638 29.68 163.018 29.5 162.058 29.5H151.858C151.098 29.5 150.538 29.34 150.178 29.02C149.858 28.66 149.698 28.1 149.698 27.34V20.92C149.698 20.16 149.858 19.62 150.178 19.3C150.538 18.94 151.098 18.76 151.858 18.76H158.158C159.118 18.76 159.738 18.58 160.018 18.22C160.298 17.86 160.438 17.44 160.438 16.96V16.06C160.438 15.58 160.298 15.16 160.018 14.8C159.738 14.44 159.118 14.26 158.158 14.26H146.998C146.238 14.26 145.678 14.1 145.318 13.78C144.998 13.42 144.838 12.86 144.838 12.1V4.96C144.838 4.2 144.998 3.66 145.318 3.34C145.678 2.98 146.238 2.8 146.998 2.8H163.738C167.058 2.8 169.518 3.58 171.118 5.14C172.758 6.66 173.578 8.74 173.578 11.38V14.86C173.578 16.38 173.318 17.7 172.798 18.82C172.278 19.94 171.358 20.78 170.038 21.34C172.878 21.66 174.838 22.54 175.918 23.98C177.038 25.38 177.598 27.4 177.598 30.04V36.04C177.598 39.12 176.618 41.56 174.658 43.36C172.698 45.12 169.798 46 165.958 46H146.998C146.238 46 145.678 45.84 145.318 45.52C144.998 45.16 144.838 44.6 144.838 43.84V36.82C144.838 36.06 144.998 35.52 145.318 35.2C145.678 34.84 146.238 34.66 146.998 34.66Z" fill="black"/>
<path d="M210.57 35.98H200.43C196.55 35.98 193.75 35.18 192.03 33.58C190.35 31.94 189.51 29.42 189.51 26.02V4.96C189.51 4.2 189.67 3.66 189.99 3.34C190.35 2.98 190.91 2.8 191.67 2.8H200.97C201.73 2.8 202.27 2.98 202.59 3.34C202.95 3.66 203.13 4.2 203.13 4.96V21.4C203.13 22.04 203.29 22.54 203.61 22.9C203.97 23.26 204.43 23.44 204.99 23.44H210.57V4.96C210.57 4.2 210.73 3.66 211.05 3.34C211.41 2.98 211.97 2.8 212.73 2.8H221.97C222.73 2.8 223.27 2.98 223.59 3.34C223.95 3.66 224.13 4.2 224.13 4.96V43.84C224.13 44.6 223.95 45.16 223.59 45.52C223.27 45.84 222.73 46 221.97 46H212.73C211.97 46 211.41 45.84 211.05 45.52C210.73 45.16 210.57 44.6 210.57 43.84V35.98Z" fill="black"/>
<path d="M28.1162 94H9.03617C8.27617 94 7.71617 93.84 7.35617 93.52C7.03617 93.16 6.87617 92.6 6.87617 91.84V84.82C6.87617 84.06 7.03617 83.52 7.35617 83.2C7.71617 82.84 8.27617 82.66 9.03617 82.66H24.5162C24.9962 82.66 25.3762 82.56 25.6562 82.36C25.9762 82.12 26.1362 81.76 26.1362 81.28V78.94C26.1362 78.46 25.9762 78.12 25.6562 77.92C25.3762 77.68 24.9962 77.56 24.5162 77.56H9.63617C8.87617 77.56 8.31617 77.4 7.95617 77.08C7.63617 76.72 7.47617 76.16 7.47617 75.4V52.96C7.47617 52.2 7.63617 51.66 7.95617 51.34C8.31617 50.98 8.87617 50.8 9.63617 50.8H35.4962C36.2562 50.8 36.7962 50.98 37.1162 51.34C37.4762 51.66 37.6562 52.2 37.6562 52.96V60.1C37.6562 60.86 37.4762 61.42 37.1162 61.78C36.7962 62.1 36.2562 62.26 35.4962 62.26H21.0962V66.16H29.3162C32.5562 66.16 35.1162 66.96 36.9962 68.56C38.8762 70.16 39.8162 72.54 39.8162 75.7V84.04C39.8162 87.08 38.7562 89.5 36.6362 91.3C34.5562 93.1 31.7162 94 28.1162 94Z" fill="black"/>
<path d="M69.6792 94.9C65.9992 94.9 62.9792 94.6 60.6192 94C58.2992 93.44 56.4792 92.64 55.1592 91.6C53.8392 90.52 52.9192 89.24 52.3992 87.76C51.9192 86.28 51.6792 84.62 51.6792 82.78V63.1C51.6792 59.46 52.7192 56.5 54.7992 54.22C56.9192 51.94 60.7992 50.8 66.4392 50.8H80.2392C80.9992 50.8 81.5392 50.98 81.8592 51.34C82.2192 51.66 82.3992 52.2 82.3992 52.96V60.04C82.3992 60.8 82.2192 61.36 81.8592 61.72C81.5392 62.04 80.9992 62.2 80.2392 62.2H69.0192C67.5392 62.2 66.5392 62.44 66.0192 62.92C65.4992 63.36 65.2392 64.32 65.2392 65.8V67.12C66.1992 66.84 67.2992 66.62 68.5392 66.46C69.8192 66.3 71.2592 66.22 72.8592 66.22C78.2592 66.22 81.9592 67.14 83.9592 68.98C85.9592 70.78 86.9592 73.46 86.9592 77.02V82.78C86.9592 84.62 86.6992 86.28 86.1792 87.76C85.6992 89.24 84.7992 90.52 83.4792 91.6C82.1992 92.64 80.4392 93.44 78.1992 94C75.9592 94.6 73.1192 94.9 69.6792 94.9ZM65.2392 78.28V81.82C65.2392 82.46 65.4792 83 65.9592 83.44C66.4392 83.84 67.5392 84.04 69.2592 84.04C71.0592 84.04 72.1992 83.84 72.6792 83.44C73.1592 83 73.3992 82.46 73.3992 81.82V78.28C73.3992 77.68 73.1592 77.18 72.6792 76.78C72.1992 76.34 71.0592 76.12 69.2592 76.12C67.5392 76.12 66.4392 76.34 65.9592 76.78C65.4792 77.18 65.2392 77.68 65.2392 78.28Z" fill="black"/>
<path d="M128.531 50.8C129.291 50.8 129.831 50.98 130.151 51.34C130.511 51.66 130.691 52.2 130.691 52.96V68.14C130.691 70.02 130.491 71.62 130.091 72.94C129.731 74.26 129.171 75.36 128.411 76.24C127.651 77.12 126.671 77.86 125.471 78.46C124.311 79.02 122.931 79.54 121.331 80.02L116.891 81.34V91.84C116.891 92.6 116.711 93.16 116.351 93.52C116.031 93.84 115.491 94 114.731 94H105.011C104.251 94 103.691 93.84 103.331 93.52C103.011 93.16 102.851 92.6 102.851 91.84V80.98C102.851 79.1 103.031 77.5 103.391 76.18C103.791 74.86 104.371 73.76 105.131 72.88C105.891 72 106.851 71.28 108.011 70.72C109.211 70.12 110.611 69.58 112.211 69.1L117.071 67.78V62.38H100.631C99.8714 62.38 99.3114 62.22 98.9514 61.9C98.6314 61.54 98.4714 60.98 98.4714 60.22V52.96C98.4714 52.2 98.6314 51.66 98.9514 51.34C99.3114 50.98 99.8714 50.8 100.631 50.8H128.531Z" fill="black"/>
<path d="M179.512 78.64V84.46C179.512 86.02 179.212 87.44 178.612 88.72C178.052 90 177.072 91.1 175.672 92.02C174.272 92.94 172.372 93.64 169.972 94.12C167.612 94.64 164.632 94.9 161.032 94.9C157.432 94.9 154.432 94.64 152.032 94.12C149.632 93.64 147.732 92.94 146.332 92.02C144.932 91.1 143.932 90 143.332 88.72C142.772 87.44 142.492 86.02 142.492 84.46V78.64C142.492 75.84 143.092 73.68 144.292 72.16C145.532 70.64 147.052 69.7 148.852 69.34C147.532 68.78 146.612 67.94 146.092 66.82C145.572 65.7 145.312 64.38 145.312 62.86V59.38C145.312 57.9 145.572 56.58 146.092 55.42C146.612 54.26 147.472 53.28 148.672 52.48C149.872 51.64 151.492 51 153.532 50.56C155.572 50.12 158.092 49.9 161.092 49.9C164.092 49.9 166.592 50.12 168.592 50.56C170.632 51 172.232 51.64 173.392 52.48C174.592 53.28 175.432 54.26 175.912 55.42C176.432 56.58 176.692 57.9 176.692 59.38V62.86C176.692 64.38 176.432 65.7 175.912 66.82C175.392 67.94 174.472 68.78 173.152 69.34C174.952 69.7 176.452 70.64 177.652 72.16C178.892 73.68 179.512 75.84 179.512 78.64ZM157.252 65.2C157.252 65.84 157.452 66.38 157.852 66.82C158.292 67.22 159.352 67.42 161.032 67.42C162.752 67.42 163.792 67.22 164.152 66.82C164.552 66.38 164.752 65.84 164.752 65.2V62.56C164.752 61.96 164.552 61.46 164.152 61.06C163.792 60.62 162.752 60.4 161.032 60.4C159.352 60.4 158.292 60.62 157.852 61.06C157.452 61.46 157.252 61.96 157.252 62.56V65.2ZM155.752 82.18C155.752 82.82 156.092 83.36 156.772 83.8C157.452 84.2 158.872 84.4 161.032 84.4C163.192 84.4 164.592 84.2 165.232 83.8C165.912 83.36 166.252 82.82 166.252 82.18V79C166.252 78.4 165.912 77.9 165.232 77.5C164.592 77.06 163.192 76.84 161.032 76.84C158.872 76.84 157.452 77.06 156.772 77.5C156.092 77.9 155.752 78.4 155.752 79V82.18Z" fill="black"/>
<path d="M209.539 94H195.739C194.979 94 194.419 93.84 194.059 93.52C193.739 93.16 193.579 92.6 193.579 91.84V84.76C193.579 84 193.739 83.46 194.059 83.14C194.419 82.78 194.979 82.6 195.739 82.6H206.959C208.439 82.6 209.439 82.38 209.959 81.94C210.479 81.46 210.739 80.48 210.739 79V77.68C209.779 77.96 208.659 78.18 207.379 78.34C206.139 78.5 204.719 78.58 203.119 78.58C197.719 78.58 194.019 77.68 192.019 75.88C190.019 74.04 189.019 71.34 189.019 67.78V62.02C189.019 60.18 189.259 58.52 189.739 57.04C190.259 55.56 191.159 54.3 192.439 53.26C193.759 52.18 195.539 51.36 197.779 50.8C200.019 50.2 202.859 49.9 206.299 49.9C209.979 49.9 212.979 50.2 215.299 50.8C217.659 51.36 219.499 52.18 220.819 53.26C222.139 54.3 223.039 55.56 223.519 57.04C224.039 58.52 224.299 60.18 224.299 62.02V81.7C224.299 85.34 223.239 88.3 221.119 90.58C219.039 92.86 215.179 94 209.539 94ZM210.739 66.52V62.98C210.739 62.34 210.499 61.82 210.019 61.42C209.539 60.98 208.439 60.76 206.719 60.76C204.919 60.76 203.779 60.98 203.299 61.42C202.819 61.82 202.579 62.34 202.579 62.98V66.52C202.579 67.12 202.819 67.64 203.299 68.08C203.779 68.48 204.919 68.68 206.719 68.68C208.439 68.68 209.539 68.48 210.019 68.08C210.499 67.64 210.739 67.12 210.739 66.52Z" fill="black"/>
<path d="M29.0663 142H16.9463C16.1863 142 15.6263 141.84 15.2663 141.52C14.9463 141.16 14.7863 140.6 14.7863 139.84V127.66C14.7863 126.9 14.9463 126.36 15.2663 126.04C15.6263 125.68 16.1863 125.5 16.9463 125.5H29.0663C29.8263 125.5 30.3663 125.68 30.6863 126.04C31.0463 126.36 31.2263 126.9 31.2263 127.66V139.84C31.2263 140.6 31.0463 141.16 30.6863 141.52C30.3663 141.84 29.8263 142 29.0663 142ZM29.0663 120.7H16.9463C16.1863 120.7 15.6263 120.54 15.2663 120.22C14.9463 119.86 14.7863 119.3 14.7863 118.54V106.36C14.7863 105.6 14.9463 105.06 15.2663 104.74C15.6263 104.38 16.1863 104.2 16.9463 104.2H29.0663C29.8263 104.2 30.3663 104.38 30.6863 104.74C31.0463 105.06 31.2263 105.6 31.2263 106.36V118.54C31.2263 119.3 31.0463 119.86 30.6863 120.22C30.3663 120.54 29.8263 120.7 29.0663 120.7Z" fill="black"/>
<path d="M75.0663 142H62.9463C62.1863 142 61.6263 141.84 61.2663 141.52C60.9463 141.16 60.7863 140.6 60.7863 139.84V127.66C60.7863 126.9 60.9463 126.36 61.2663 126.04C61.6263 125.68 62.1863 125.5 62.9463 125.5H75.0663C75.8263 125.5 76.3663 125.68 76.6863 126.04C77.0463 126.36 77.2263 126.9 77.2263 127.66V139.84C77.2263 140.6 77.0463 141.16 76.6863 141.52C76.3663 141.84 75.8263 142 75.0663 142Z" fill="black"/>
<path d="M112.886 111.4L110.066 120.52H119.486L116.666 111.4C116.506 111.04 116.326 110.78 116.126 110.62C115.966 110.46 115.766 110.38 115.526 110.38H114.026C113.786 110.38 113.566 110.46 113.366 110.62C113.206 110.78 113.046 111.04 112.886 111.4ZM109.466 139.84C109.466 140.6 109.286 141.16 108.926 141.52C108.606 141.84 108.066 142 107.306 142H98.4859C97.7259 142 97.1659 141.84 96.8059 141.52C96.4859 141.16 96.3259 140.6 96.3259 139.84V124C96.3259 122.8 96.5059 121.42 96.8659 119.86C97.2659 118.3 97.8659 116.48 98.6659 114.4L103.886 100.78C104.126 100.1 104.486 99.6 104.966 99.28C105.486 98.96 106.146 98.8 106.946 98.8H123.086C123.846 98.8 124.466 98.96 124.946 99.28C125.466 99.6 125.846 100.1 126.086 100.78L131.306 114.4C132.106 116.48 132.686 118.3 133.046 119.86C133.446 121.42 133.646 122.8 133.646 124V139.84C133.646 140.6 133.466 141.16 133.106 141.52C132.786 141.84 132.246 142 131.486 142H122.426C121.626 142 121.026 141.84 120.626 141.52C120.266 141.16 120.086 140.6 120.086 139.84V131.44H109.466V139.84Z" fill="black"/>
<path d="M156.151 142H146.851C146.091 142 145.531 141.84 145.171 141.52C144.851 141.16 144.691 140.6 144.691 139.84V100.96C144.691 100.2 144.851 99.66 145.171 99.34C145.531 98.98 146.091 98.8 146.851 98.8H165.211C170.651 98.8 174.371 99.88 176.371 102.04C178.371 104.2 179.371 107.02 179.371 110.5V118.18C179.371 121.66 178.371 124.48 176.371 126.64C174.371 128.8 170.651 129.88 165.211 129.88H158.311V139.84C158.311 140.6 158.131 141.16 157.771 141.52C157.451 141.84 156.911 142 156.151 142ZM158.191 110.02V119.08H163.591C164.751 119.08 165.511 118.78 165.871 118.18C166.231 117.58 166.411 116.9 166.411 116.14V112.96C166.411 112.2 166.231 111.52 165.871 110.92C165.511 110.32 164.751 110.02 163.591 110.02H158.191Z" fill="black"/>
<path d="M196.781 142H187.841C187.081 142 186.521 141.84 186.161 141.52C185.841 141.16 185.681 140.6 185.681 139.84V100.96C185.681 100.2 185.841 99.66 186.161 99.34C186.521 98.98 187.081 98.8 187.841 98.8H197.501C198.141 98.8 198.661 98.94 199.061 99.22C199.501 99.5 199.901 99.96 200.261 100.6L205.661 110.38C205.861 110.74 206.021 111 206.141 111.16C206.301 111.32 206.501 111.4 206.741 111.4H207.281C207.521 111.4 207.701 111.32 207.821 111.16C207.981 111 208.161 110.74 208.361 110.38L213.701 100.6C214.061 99.96 214.441 99.5 214.841 99.22C215.281 98.94 215.821 98.8 216.461 98.8H226.181C226.941 98.8 227.481 98.98 227.801 99.34C228.161 99.66 228.341 100.2 228.341 100.96V139.84C228.341 140.6 228.161 141.16 227.801 141.52C227.481 141.84 226.941 142 226.181 142H216.941C216.181 142 215.621 141.84 215.261 141.52C214.941 141.16 214.781 140.6 214.781 139.84V118.72L211.241 125.26C210.881 125.94 210.441 126.44 209.921 126.76C209.441 127.04 208.821 127.18 208.061 127.18H205.661C204.901 127.18 204.261 127.04 203.741 126.76C203.261 126.44 202.841 125.94 202.481 125.26L198.941 118.72V139.84C198.941 140.6 198.761 141.16 198.401 141.52C198.081 141.84 197.541 142 196.781 142Z" fill="black"/>
</g>
</svg>
