<svg width="200" height="150" viewBox="0 0 200 150" fill="none" xmlns="http://www.w3.org/2000/svg">
<desc>{"colon":0.6,"dot":0.6}</desc>
<g clip-path="url(#clip0_100_2)">
<path d="M24.3789 28.905L24.5089 26.825C24.6822 25.3083 24.5739 23.1417 24.1839 20.325C24.1405 18.8083 23.9672 17.66 23.6639 16.88C23.3605 16.0567 22.7322 14.9083 21.7789 13.435C20.9989 12.7417 20.6089 12.2867 20.6089 12.07C20.1322 11.5933 19.5689 11.94 18.9189 13.11C18.7455 13.76 17.9005 15.6233 16.3839 18.7C16.5139 19.0467 16.3839 19.415 15.9939 19.805C15.9072 19.935 15.8639 20.195 15.8639 20.585C15.9939 20.845 16.0372 21.2133 15.9939 21.69C15.8639 22.1233 15.7339 23.9433 15.6039 27.15C15.6039 28.97 15.7555 30.27 16.0589 31.05C16.0589 32.5233 16.1455 33.6933 16.3189 34.56C16.2755 35.7733 16.3622 36.7267 16.5789 37.42C17.1855 38.85 17.8355 39.565 18.5289 39.565C19.2222 39.565 19.9805 39.0017 20.8039 37.875C21.6705 36.7483 22.3422 35.3617 22.8189 33.715C22.7755 33.3683 22.8405 33.195 23.0139 33.195C23.0139 32.8917 23.1222 32.3933 23.3389 31.7C23.5989 30.9633 23.7289 30.465 23.7289 30.205L24.3789 28.905ZM9.23387 15.19L9.42887 13.825C9.42887 13.5217 9.64553 13.11 10.0789 12.59C10.3389 11.8967 10.4472 11.4417 10.4039 11.225C10.4039 11.0083 10.6205 10.445 11.0539 9.535C11.5305 8.58167 11.9639 7.93167 12.3539 7.585C12.7439 7.195 13.1122 6.74 13.4589 6.22C13.4589 6.00333 13.5889 5.765 13.8489 5.505C14.1522 5.245 14.4555 5.09333 14.7589 5.05C15.7555 4.70333 16.5139 4.61667 17.0339 4.79C18.3772 5.31 19.1789 5.41833 19.4389 5.115C19.5255 4.985 19.9589 4.855 20.7389 4.725C21.5622 4.55166 22.1255 4.48666 22.4289 4.53C22.7755 4.53 23.1439 4.68167 23.5339 4.985C25.0505 5.72166 26.5455 7.15167 28.0189 9.275C29.5355 11.3983 30.5972 13.63 31.2039 15.97C32.1572 18.9167 32.4822 21.82 32.1789 24.68C31.8755 27.93 31.1822 31.2017 30.0989 34.495C29.0155 37.7883 28.3439 39.6733 28.0839 40.15C27.8672 40.6267 27.6722 40.995 27.4989 41.255C27.3689 41.4717 27.2822 41.7317 27.2389 42.035C27.1955 42.295 26.8705 42.7717 26.2639 43.465C25.6572 44.1583 25.2022 44.5483 24.8989 44.635C23.6855 45.5883 22.6022 46.0867 21.6489 46.13C21.4322 46.1733 21.0639 46.1733 20.5439 46.13C20.0672 46.13 19.6339 46.13 19.2439 46.13C18.8539 46.13 18.5505 46.1733 18.3339 46.26C17.5539 46.1733 16.9255 46.13 16.4489 46.13C16.0155 46.1733 15.3872 46 14.5639 45.61C13.2639 44.7867 12.2239 43.7683 11.4439 42.555C11.2705 41.8183 11.0322 41.2983 10.7289 40.995L10.0789 39.565C9.6022 39.2617 9.32053 38.33 9.23387 36.77C7.89053 32.87 7.56553 26.6733 8.25887 18.18C8.25887 17.6167 8.41053 17.335 8.71387 17.335C8.84387 17.1183 8.8872 16.8583 8.84387 16.555C8.84387 16.2517 8.97387 15.7967 9.23387 15.19Z" fill="black"/>
<path d="M63.6512 46.39L62.3512 46.26C61.4412 46.0867 60.8995 45.675 60.7262 45.025C60.7262 44.8517 60.5528 44.6783 60.2062 44.505C59.9462 44.505 59.6212 44.2883 59.2312 43.855C58.8412 43.3783 58.6245 42.5333 58.5812 41.32C58.5812 40.0633 58.5812 38.785 58.5812 37.485C58.5812 36.185 58.6028 35.47 58.6462 35.34C58.7762 35.34 58.7762 35.08 58.6462 34.56C58.4728 32.87 58.4512 31.7217 58.5812 31.115C58.7112 30.465 58.7978 28.32 58.8412 24.68C58.8845 21.04 58.7328 19.1333 58.3862 18.96C58.3428 18.8733 58.1912 18.8733 57.9312 18.96C57.6712 19.0033 57.4762 19.09 57.3462 19.22C56.9995 19.9133 56.7828 20.26 56.6962 20.26C56.5228 20.4333 56.3062 20.6067 56.0462 20.78C55.2662 21.69 54.0528 21.95 52.4062 21.56C51.2362 21.3867 50.4778 21.1483 50.1312 20.845C49.8278 20.5417 49.6328 20.1083 49.5462 19.545C49.4595 18.9383 49.6978 18.44 50.2612 18.05C51.3878 17.27 52.1895 16.4033 52.6662 15.45L53.5762 14.41L54.2912 13.89C54.2912 13.8033 54.4212 13.6517 54.6812 13.435C54.9412 13.2183 55.2012 13.0017 55.4612 12.785C55.7645 12.525 55.9162 12.2867 55.9162 12.07L56.5662 11.03C56.9995 10.5967 57.2162 10.2067 57.2162 9.86C57.2595 9.86 57.4112 9.73 57.6712 9.47C57.9312 9.21 58.1695 9.015 58.3862 8.885C58.6895 8.27833 59.2962 7.47666 60.2062 6.48C60.7695 5.65666 61.0512 5.245 61.0512 5.245C61.0945 5.20167 61.1812 5.13666 61.3112 5.05C61.4845 4.96333 61.7012 4.87667 61.9612 4.79C62.2212 4.66 62.4812 4.50833 62.7412 4.335C63.0445 4.16166 63.2828 4.075 63.4562 4.075C63.6728 4.03166 64.1495 4.05333 64.8862 4.14C65.6228 4.22666 65.9912 4.31333 65.9912 4.4C65.9912 4.48667 66.0562 4.63833 66.1862 4.855C66.3162 5.02833 66.4678 5.115 66.6412 5.115C66.8145 5.115 67.0095 5.26667 67.2262 5.57C67.3995 5.57 67.7895 5.72166 68.3962 6.025C68.7428 6.45833 68.9378 6.78333 68.9812 7C68.7212 7.13 68.5912 7.39 68.5912 7.78L68.0062 13.11C67.4428 15.5367 67.0312 21.235 66.7712 30.205C66.5978 31.505 66.5112 32.545 66.5112 33.325C66.5112 34.0617 66.4245 35.2317 66.2512 36.835C66.0778 38.4383 65.9912 40.02 65.9912 41.58C65.9912 43.14 65.9478 44.18 65.8612 44.7C65.5578 45.9567 64.8212 46.52 63.6512 46.39Z" fill="black"/>
<path d="M94.3445 46L93.5645 45.87C93.3478 45.87 93.0445 45.7183 92.6545 45.415C92.2645 45.0683 92.0262 44.9817 91.9395 45.155C91.8962 45.285 91.6795 45.1983 91.2895 44.895C90.2928 44.1583 89.4478 43.1617 88.7545 41.905C88.1045 40.6483 88.0395 39.5867 88.5595 38.72C88.7762 38.1567 89.2312 37.42 89.9245 36.51C90.6178 35.5567 91.0728 34.885 91.2895 34.495C91.5062 34.105 91.8962 33.585 92.4595 32.935C93.0228 32.2417 93.3912 31.6783 93.5645 31.245C93.7378 30.5517 94.3228 29.88 95.3195 29.23C95.5795 28.71 95.7962 28.32 95.9695 28.06C96.1428 27.7567 96.3162 27.4317 96.4895 27.085C97.0095 26.0883 97.3345 25.5033 97.4645 25.33C97.6378 25.1133 97.7895 24.8967 97.9195 24.68C98.1362 24.3767 98.5262 24.0083 99.0895 23.575C99.2195 23.1417 99.4145 22.665 99.6745 22.145C99.9778 21.5817 100.173 21.2133 100.259 21.04C101.819 19.1333 102.946 17.0317 103.639 14.735C103.813 13.7817 103.704 13.0233 103.314 12.46C102.924 11.8967 102.209 11.8317 101.169 12.265C98.1795 13.6517 95.5795 16.3167 93.3695 20.26C92.8928 20.4767 92.4595 20.39 92.0695 20C91.7228 19.87 91.2895 19.545 90.7695 19.025C90.2062 18.6783 89.8378 18.245 89.6645 17.725C89.4912 17.205 89.4045 16.3167 89.4045 15.06C89.4045 13.76 89.5778 12.785 89.9245 12.135C90.2712 11.485 90.5528 11.095 90.7695 10.965C91.0295 10.705 91.1595 10.315 91.1595 9.795C91.4195 9.275 91.6795 8.97167 91.9395 8.885C92.1128 8.40833 92.1562 8.105 92.0695 7.975L92.4595 7.455L93.2395 6.025C93.7595 5.245 94.4095 4.76833 95.1895 4.595C95.3628 4.42166 95.5145 4.29167 95.6445 4.205C95.7745 4.075 95.9262 3.92333 96.0995 3.75C96.2728 3.75 96.5328 3.66333 96.8795 3.49C97.2262 3.49 97.7895 3.425 98.5695 3.295C98.7428 3.12167 99.1545 3.05667 99.8045 3.1C100.454 3.1 100.996 3.23 101.429 3.49C102.209 3.57667 102.708 3.64167 102.924 3.685C103.184 3.72833 103.358 3.75 103.444 3.75C103.531 3.75 103.769 3.98833 104.159 4.465L104.809 4.985C104.896 4.985 105.416 5.505 106.369 6.545C107.366 7.54166 107.929 8.235 108.059 8.625C108.233 8.97166 108.406 9.21 108.579 9.34C108.796 9.47 109.186 9.925 109.749 10.705C110.313 11.485 110.681 12.07 110.854 12.46C111.374 13.4567 111.548 14.9083 111.374 16.815C111.244 18.7217 110.703 20.5417 109.749 22.275C108.796 24.0083 106.889 26.8683 104.029 30.855C102.946 32.3717 100.758 34.9283 97.4645 38.525C103.921 38.525 107.214 38.5683 107.344 38.655C107.474 38.7417 108.189 39.3267 109.489 40.41C109.706 40.67 110.074 41.32 110.594 42.36C111.114 43.3567 111.396 44.0717 111.439 44.505C111.656 45.0683 111.808 45.35 111.894 45.35C112.024 45.5233 112.068 45.805 112.024 46.195C111.981 46.6283 111.786 46.845 111.439 46.845C111.136 46.4983 110.378 46.26 109.164 46.13C107.994 46.0433 106.196 46 103.769 46C101.343 46 99.6095 46.0433 98.5695 46.13C95.7528 46.13 94.3445 46.0867 94.3445 46Z" fill="black"/>
<path d="M138.707 46.715C138.317 46.8883 137.667 46.975 136.757 46.975C135.847 46.975 134.785 46.8667 133.572 46.65C131.145 46.13 129.564 45.285 128.827 44.115C127.874 42.555 127.397 40.8867 127.397 39.11C127.224 37.55 128.025 36.77 129.802 36.77C130.192 36.77 130.647 36.9 131.167 37.16C131.73 37.42 132.12 37.6583 132.337 37.875C132.597 38.005 133.139 38.1133 133.962 38.2C136.519 38.5467 138.924 37.81 141.177 35.99C142.65 34.9067 143.517 34.0183 143.777 33.325C144.08 32.5883 144.232 31.7217 144.232 30.725C144.232 29.7283 143.799 29.1433 142.932 28.97C142.065 28.7533 141.134 28.7967 140.137 29.1C139.184 29.36 138.187 29.555 137.147 29.685C136.107 30.075 135.219 29.8583 134.482 29.035C133.789 28.2117 133.594 26.695 133.897 24.485C134.07 23.575 134.374 22.9033 134.807 22.47C136.064 22.0367 137.299 21.7333 138.512 21.56C138.859 21.5167 139.4 21.1483 140.137 20.455C140.917 19.7617 141.784 18.7217 142.737 17.335C143.734 15.905 144.08 14.67 143.777 13.63C143.474 12.59 142.715 12.2 141.502 12.46C140.635 12.5467 140.007 12.655 139.617 12.785C139.27 12.8717 138.425 13.2183 137.082 13.825C135.175 14.3883 133.81 14.67 132.987 14.67C132.207 14.67 131.622 14.41 131.232 13.89C130.149 11.9833 129.52 10.5967 129.347 9.73C129.217 8.86333 129.304 8.06167 129.607 7.325C129.65 6.89167 129.78 6.56667 129.997 6.35C130.257 6.13333 130.734 6.04667 131.427 6.09C131.86 5.87333 132.424 5.87333 133.117 6.09C134.244 6.30667 135.002 6.30667 135.392 6.09L136.562 5.7C137.429 5.65666 138.014 5.48333 138.317 5.18C138.664 4.83333 139.595 4.70333 141.112 4.79L142.152 4.4C142.759 4.31333 143.257 4.37833 143.647 4.595C145.077 5.115 146.182 5.54833 146.962 5.895C146.919 6.025 147.287 6.19833 148.067 6.415C148.847 7.065 149.302 7.845 149.432 8.755C150.125 10.4883 150.624 11.9833 150.927 13.24C151.274 14.4967 151.274 15.5367 150.927 16.36C150.58 17.1833 150.125 17.8983 149.562 18.505C149.042 19.0683 148.587 19.5667 148.197 20C147.59 20.6933 146.702 21.5167 145.532 22.47C146.702 22.8167 147.482 23.3583 147.872 24.095C148.002 24.1383 148.24 24.3767 148.587 24.81C148.934 25.2433 149.172 25.6333 149.302 25.98C149.909 26.8467 150.255 27.7133 150.342 28.58C150.602 29.4467 150.775 30.7033 150.862 32.35C150.992 33.9967 150.667 35.665 149.887 37.355L149.172 39.5C148.869 40.5833 148.479 41.4067 148.002 41.97C147.569 42.5333 146.659 43.1833 145.272 43.92C143.885 44.6133 143.04 44.9817 142.737 45.025C141.74 45.7183 140.397 46.2817 138.707 46.715Z" fill="black"/>
<path d="M183.771 11.16V10.705C183.555 11.0083 183.273 11.3767 182.926 11.81C182.84 12.07 182.558 12.5467 182.081 13.24C179.741 16.62 178.463 18.6133 178.246 19.22L177.336 20.845C174.996 24.1383 173.696 26.11 173.436 26.76C173.306 26.9333 173.155 27.1067 172.981 27.28C172.808 27.41 172.678 27.54 172.591 27.67C172.505 27.7567 172.505 27.8217 172.591 27.865C172.721 27.865 172.895 27.8433 173.111 27.8C173.328 27.7133 173.653 27.67 174.086 27.67L177.466 27.02C178.81 27.02 179.828 26.7817 180.521 26.305C180.825 26.2183 181.15 25.4167 181.496 23.9C181.496 22.99 181.583 22.3617 181.756 22.015L182.146 18.7C182.406 18.44 182.536 18.2233 182.536 18.05V17.725C182.71 15.8183 182.818 14.67 182.861 14.28L183.771 11.16ZM179.676 35.665L179.806 33.65C179.936 32.8267 179.936 32.415 179.806 32.415C179.07 32.415 177.726 32.8483 175.776 33.715C173.826 34.5817 172.721 35.0583 172.461 35.145C172.201 35.2317 172.006 35.2967 171.876 35.34C171.486 35.5567 171.183 35.665 170.966 35.665C170.62 35.8817 170.165 35.9683 169.601 35.925C169.038 35.8383 168.648 35.7083 168.431 35.535C168.258 35.3183 168.063 35.1667 167.846 35.08C167.673 34.95 167.5 34.885 167.326 34.885C167.196 34.8417 167.11 34.8417 167.066 34.885C167.023 34.9283 166.85 34.82 166.546 34.56C166.243 34.3 166.005 34.0833 165.831 33.91C165.658 33.6933 165.376 33.4983 164.986 33.325L164.401 32.675C164.401 32.5017 164.25 32.285 163.946 32.025C163.773 31.505 163.686 31.0933 163.686 30.79C163.643 30.4433 163.99 29.23 164.726 27.15C165.16 26.7167 165.441 26.2183 165.571 25.655C165.745 25.5683 165.875 25.395 165.961 25.135C166.178 25.135 166.481 24.7883 166.871 24.095C167.435 23.0117 167.738 22.4483 167.781 22.405L168.561 21.495C168.561 21.3217 168.735 20.975 169.081 20.455C169.471 19.935 169.753 19.6317 169.926 19.545C169.753 19.545 169.905 19.1767 170.381 18.44C170.901 17.66 171.226 17.205 171.356 17.075C171.486 16.9017 171.681 16.555 171.941 16.035C172.115 15.8183 172.245 15.6017 172.331 15.385C172.461 15.125 172.721 14.8 173.111 14.41C173.285 14.2367 173.696 13.565 174.346 12.395L176.166 10.055C176.426 9.405 176.903 8.73333 177.596 8.04C177.683 7.82333 178.16 7.23833 179.026 6.285C179.936 5.33167 180.63 4.74667 181.106 4.53C181.453 4.27 181.626 4.075 181.626 3.945C181.67 3.90167 181.93 3.88 182.406 3.88C182.926 3.88 183.295 3.92333 183.511 4.01C183.771 4.05333 184.443 4.55166 185.526 5.505C185.656 5.41833 185.96 5.375 186.436 5.375C187.736 5.375 188.82 5.80833 189.686 6.675L191.181 7.715C191.398 7.80167 191.355 8.27833 191.051 9.145C190.055 11.745 189.166 15.6233 188.386 20.78C188.126 22.9467 187.996 24.095 187.996 24.225C188.04 24.2683 188.408 24.29 189.101 24.29L192.221 24.095C192.871 24.095 193.326 24.1383 193.586 24.225C193.846 24.3117 194.193 24.5067 194.626 24.81C195.103 25.1133 195.45 25.4383 195.666 25.785C195.666 25.9583 195.818 26.1317 196.121 26.305C196.121 26.565 196.208 26.7817 196.381 26.955L196.901 27.215C196.901 27.3017 197.14 27.6917 197.616 28.385C198.613 29.1217 198.57 29.5767 197.486 29.75C196.706 29.4033 195.688 29.3383 194.431 29.555C194.171 29.555 193.608 29.685 192.741 29.945C189.448 30.3783 187.606 30.725 187.216 30.985C187.173 30.985 187.065 31.375 186.891 32.155C186.891 32.9783 186.826 33.4767 186.696 33.65C186.61 34.82 186.545 36.705 186.501 39.305C186.501 41.8617 186.523 43.335 186.566 43.725C186.653 43.8117 186.696 44.245 186.696 45.025C186.826 45.285 186.891 45.61 186.891 46C186.978 46.1733 186.913 46.455 186.696 46.845C186.61 47.105 186.393 47.1917 186.046 47.105C185.266 47.105 184.703 47.0617 184.356 46.975C183.23 46.975 182.536 46.8233 182.276 46.52C182.103 46.52 181.67 46.3467 180.976 46C180.976 45.8267 180.803 45.6317 180.456 45.415C180.11 45.155 179.893 45.0683 179.806 45.155L179.286 45.025C179.113 44.505 179.026 43.855 179.026 43.075C179.243 39.695 179.416 37.94 179.546 37.81V36.835C179.633 36.6183 179.676 36.2283 179.676 35.665Z" fill="black"/>
<path d="M9.26104 88.98L11.666 88.265C11.9694 88.265 12.2727 88.1133 12.576 87.81C13.0527 87.5067 13.5294 87.3767 14.006 87.42L16.866 85.99L17.776 85.665C19.206 84.9283 20.0077 84.5383 20.181 84.495C20.701 84.105 21.091 83.8883 21.351 83.845C21.5677 83.8017 21.9144 83.6067 22.391 83.26C22.8244 82.8267 23.2794 82.5233 23.756 82.35C23.9294 82.1767 24.3194 81.8733 24.926 81.44C26.3127 80.0533 26.7244 78.9267 26.161 78.06C25.9444 77.7567 25.576 77.5183 25.056 77.345C23.756 77.2583 22.6294 77.215 21.676 77.215C20.7227 77.215 19.271 77.4317 17.321 77.865L13.291 78.385C12.901 78.6883 12.2944 78.385 11.471 77.475C11.211 77.475 10.561 77.085 9.52104 76.305C9.17437 75.8717 8.87104 75.5467 8.61104 75.33C8.00437 74.9833 7.5927 74.55 7.37604 74.03C7.3327 73.77 7.48437 72.7083 7.83104 70.845C8.22104 68.9817 8.45937 67.92 8.54604 67.66C8.6327 67.4 8.6977 67.0967 8.74104 66.75L9.39104 64.995C10.6044 62.3083 11.211 60.6617 11.211 60.055L10.951 59.275C10.431 58.495 10.171 57.7583 10.171 57.065C10.171 56.3283 10.2144 55.9167 10.301 55.83C10.3877 55.7433 10.6694 55.7433 11.146 55.83C11.2327 55.7867 11.5144 55.6133 11.991 55.31C12.381 54.4433 12.8794 54.2483 13.486 54.725C13.6594 54.985 13.8977 55.18 14.201 55.31C14.5477 55.3967 14.8944 55.3317 15.241 55.115C15.5877 54.8983 16.0644 54.985 16.671 55.375C16.8877 55.3317 17.3427 55.3317 18.036 55.375C18.2527 55.505 18.491 55.4833 18.751 55.31C19.0544 55.0067 19.596 54.8333 20.376 54.79C21.1994 54.7467 21.806 54.66 22.196 54.53C22.586 54.3567 23.1927 54.335 24.016 54.465C24.536 54.2917 25.056 54.205 25.576 54.205C25.6627 54.2917 25.9444 54.2483 26.421 54.075H26.486C27.656 53.9883 28.631 54.1833 29.411 54.66C29.7144 54.7467 29.9527 54.92 30.126 55.18C30.2994 55.57 30.711 55.9167 31.361 56.22C31.2744 56.4367 31.4694 56.8917 31.946 57.585C32.4227 58.235 32.726 58.9283 32.856 59.665C32.986 60.3583 32.921 60.8133 32.661 61.03C32.4444 61.2467 32.1627 61.4417 31.816 61.615C31.4694 61.745 30.9494 61.745 30.256 61.615C29.5627 61.485 28.6744 61.42 27.591 61.42C25.9877 61.55 23.8644 61.81 21.221 62.2C20.2244 62.46 18.9894 62.655 17.516 62.785C17.4727 62.8283 17.3644 63.175 17.191 63.825C17.061 64.475 16.9527 64.865 16.866 64.995C16.5194 66.9883 16.1944 68.3967 15.891 69.22C15.5877 70 15.436 70.455 15.436 70.585C18.166 70.195 19.596 70.0217 19.726 70.065H22.261C24.2977 70.1517 25.7494 70.52 26.616 71.17L27.331 71.69C28.1977 72.21 28.9127 72.7733 29.476 73.38L33.181 78.125C33.831 79.165 34.221 79.945 34.351 80.465C34.8277 81.0717 35.001 81.765 34.871 82.545C34.6977 82.545 34.5677 82.61 34.481 82.74C34.4377 82.8267 34.3944 82.9133 34.351 83C34.1777 83.2167 34.0694 83.4117 34.026 83.585L32.271 85.73L31.296 86.77C31.2527 86.9867 30.1477 87.8317 27.981 89.305C25.8577 90.7783 24.2977 91.7317 23.301 92.165C20.2244 93.595 18.036 94.5483 16.736 95.025C15.4794 95.4583 13.876 95.7833 11.926 96C11.5794 96.26 10.886 96.2817 9.84604 96.065C8.80604 95.8917 7.7227 95.1333 6.59604 93.79C6.07604 93.2267 5.7727 92.88 5.68604 92.75C5.6427 92.5767 5.75104 92.3167 6.01104 91.97C5.8377 91.1033 5.6427 90.4967 5.42604 90.15C5.5127 89.9767 5.68604 89.7817 5.94604 89.565C6.33604 89.3917 6.89937 89.24 7.63604 89.11C8.1127 89.24 8.65437 89.1967 9.26104 88.98Z" fill="black"/>
<path d="M65.2089 79.1C65.2089 78.7533 65.2522 78.45 65.3389 78.19C65.2522 77.3667 64.9272 76.695 64.3639 76.175C63.8439 75.6117 63.2372 75.525 62.5439 75.915C61.2872 76.6083 60.0306 77.4967 58.7739 78.58C57.5606 79.6633 56.6072 80.6383 55.9139 81.505C55.6539 82.1983 55.4806 82.8917 55.3939 83.585C55.3506 84.235 55.3072 84.7333 55.2639 85.08C55.1772 85.7733 55.1339 86.1417 55.1339 86.185V87.55C55.0039 89.63 55.0256 90.8217 55.1989 91.125C55.3722 91.4283 55.6539 91.6017 56.0439 91.645C56.4339 91.645 56.7372 91.5583 56.9539 91.385C58.0372 90.3883 59.1856 89.0883 60.3989 87.485C61.0489 86.9217 62.4139 84.82 64.4939 81.18L65.2089 79.1ZM49.4789 73.38C49.5222 73.0767 49.8039 72.0367 50.3239 70.26C50.8872 68.44 51.2122 67.3567 51.2989 67.01C51.4289 66.62 51.5589 66.295 51.6889 66.035C51.8622 65.775 51.9706 65.5583 52.0139 65.385C52.4906 64.8217 52.8156 64.1717 52.9889 63.435C53.0756 63.435 53.2489 63.0883 53.5089 62.395C53.7689 61.7017 53.9206 61.3117 53.9639 61.225C54.2239 60.965 54.4622 60.51 54.6789 59.86C54.8522 59.5567 55.4589 58.82 56.4989 57.65C57.5389 56.4367 58.1456 55.8083 58.3189 55.765L59.0339 55.245C60.2906 54.8117 60.9839 54.5517 61.1139 54.465C61.2872 54.335 61.4172 54.2483 61.5039 54.205C61.5906 54.1617 62.1539 54.14 63.1939 54.14C64.2772 54.14 64.8189 54.1833 64.8189 54.27C64.8189 54.53 65.1872 54.7683 65.9239 54.985C66.7906 55.635 67.2889 56.025 67.4189 56.155C67.9822 56.7617 68.0039 57.4767 67.4839 58.3C67.0072 58.7767 66.6822 59.0583 66.5089 59.145C64.9489 59.925 62.9772 62.72 60.5939 67.53L60.3989 68.245C60.3989 68.375 60.3122 68.635 60.1389 69.025C59.9656 69.3717 59.6406 70.1083 59.1639 71.235C58.6872 72.3617 58.3189 73.185 58.0589 73.705L58.1889 73.77C59.3156 72.99 60.3556 72.1883 61.3089 71.365C62.3056 70.5417 63.2589 70.0433 64.1689 69.87C65.1222 69.6967 66.4222 70.1733 68.0689 71.3C69.7156 72.3833 71.3406 73.9867 72.9439 76.11C73.5506 76.7167 73.8539 77.865 73.8539 79.555C73.9839 80.9417 73.7456 82.22 73.1389 83.39C72.8789 83.7367 72.7489 84.04 72.7489 84.3C72.7922 84.56 72.0989 85.6 70.6689 87.42C69.2389 89.24 67.7872 90.9733 66.3139 92.62C64.0606 94.31 62.0672 95.2633 60.3339 95.48C59.6406 95.5233 59.1856 95.6967 58.9689 96C58.7522 96.3467 58.6439 96.65 58.6439 96.91C58.4272 97.3 57.7122 97.5817 56.4989 97.755C56.2389 97.6683 55.8489 97.495 55.3289 97.235C54.8522 97.0183 54.4622 96.8667 54.1589 96.78C53.8556 96.6933 53.5522 96.5633 53.2489 96.39C52.9889 96.2167 52.7289 96.13 52.4689 96.13C52.3389 96.13 51.8406 96 50.9739 95.74C50.7139 95.7833 50.1506 95.4367 49.2839 94.7C48.4606 93.9633 47.9189 93.3567 47.6589 92.88C46.7489 91.45 46.3589 89.11 46.4889 85.86C46.6622 82.61 47.0956 80.01 47.7889 78.06C47.9189 77.8 47.9839 77.4533 47.9839 77.02C48.0272 76.5867 48.1572 76.2617 48.3739 76.045C48.3739 75.7417 48.5472 75.2867 48.8939 74.68C49.2406 74.0733 49.4356 73.64 49.4789 73.38Z" fill="black"/>
<path d="M91.3045 87.225C91.3478 86.3583 91.5211 85.3183 91.8245 84.105C92.1711 82.8483 92.4528 82.025 92.6695 81.635C92.9295 81.2017 93.0595 80.8117 93.0595 80.465C93.0595 80.1183 93.2328 79.5767 93.5795 78.84C93.9695 78.06 94.1861 77.6267 94.2295 77.54C94.3161 77.4533 94.4028 77.1717 94.4895 76.695C94.6628 76.5217 94.8578 75.9367 95.0745 74.94C95.1178 74.94 95.3778 74.5933 95.8545 73.9C95.9411 73.2933 96.0278 72.925 96.1145 72.795C96.2445 72.665 96.3095 72.5567 96.3095 72.47C96.3528 72.34 96.5045 71.9067 96.7645 71.17C97.0678 70.39 97.2411 69.9783 97.2845 69.935C97.3278 69.8917 97.3928 69.7833 97.4795 69.61C97.8261 68.9167 98.0428 68.44 98.1295 68.18C98.3461 67.3133 98.6278 66.5333 98.9745 65.84C99.3211 65.1467 99.4945 64.5833 99.4945 64.15C99.6678 63.4567 99.6895 63.045 99.5595 62.915C99.4728 62.7417 98.6061 62.7633 96.9595 62.98C95.3561 63.1967 93.6878 63.11 91.9545 62.72C91.3478 62.6333 90.9145 62.4167 90.6545 62.07C90.2645 61.3767 89.8961 60.965 89.5495 60.835C88.8995 60.575 88.2061 59.795 87.4695 58.495C87.0795 57.6283 86.9278 56.8917 87.0145 56.285C87.0578 55.635 87.4045 54.92 88.0545 54.14C88.6178 54.14 88.9861 54.205 89.1595 54.335C89.9395 54.4217 91.0661 54.4867 92.5395 54.53C93.7961 54.53 94.6195 54.5083 95.0095 54.465C95.3995 54.3783 95.6811 54.335 95.8545 54.335H96.6995C97.1761 54.075 97.6528 53.9017 98.1295 53.815C98.6061 53.7283 98.9745 53.5767 99.2345 53.36C99.5378 53.1433 99.8411 53.0783 100.144 53.165C100.448 53.2083 101.379 53.295 102.939 53.425C103.286 53.2517 103.633 53.2083 103.979 53.295C104.239 53.2517 105.388 53.3167 107.424 53.49C107.641 53.5333 107.923 53.7283 108.269 54.075C108.659 54.4217 108.941 54.8983 109.114 55.505C109.288 56.1117 109.353 56.5017 109.309 56.675C109.266 56.805 109.266 56.9133 109.309 57C109.439 57.2167 109.829 57.4117 110.479 57.585C110.913 58.2783 111.519 58.885 112.299 59.405C112.343 59.4483 112.408 59.535 112.494 59.665C112.581 59.795 112.668 59.925 112.754 60.055C112.884 60.185 112.971 60.315 113.014 60.445C113.664 60.965 113.404 61.3333 112.234 61.55C111.411 61.68 110.111 63.1533 108.334 65.97C106.774 68.8733 105.063 72.2317 103.199 76.045C102.289 77.6917 101.249 80.4 100.079 84.17C98.9528 87.8967 98.4978 91.2333 98.7145 94.18C98.5845 94.7433 98.3678 95.2633 98.0645 95.74C97.8045 96.1733 97.5228 96.2817 97.2195 96.065C96.8295 95.6317 96.2878 95.5233 95.5945 95.74C94.9445 95.9133 94.4461 95.9783 94.0995 95.935C93.7961 95.8917 93.1678 95.3933 92.2145 94.44C91.3045 93.4867 91.0011 91.0817 91.3045 87.225Z" fill="black"/>
<path d="M145.652 59.405L145.327 58.365C144.417 57.845 143.355 57.52 142.142 57.39C141.925 57.3033 141.557 57.4117 141.037 57.715C140.56 57.975 140.278 58.2783 140.192 58.625C138.935 61.0517 138.697 63.0017 139.477 64.475L139.737 65.385C139.823 65.4717 140.062 65.84 140.452 66.49C141.492 68.05 142.272 68.8733 142.792 68.96C143.875 67.8767 144.785 65.7533 145.522 62.59C145.608 62.07 145.652 61.0083 145.652 59.405ZM141.362 90.605C141.448 90.5183 141.513 90.41 141.557 90.28C141.6 90.15 141.73 90.0417 141.947 89.955C142.25 89.9117 142.51 89.6083 142.727 89.045C142.943 88.4383 143.008 87.94 142.922 87.55C142.878 87.16 142.9 86.835 142.987 86.575V86.25C142.9 86.25 142.77 86.1417 142.597 85.925C142.467 85.665 142.293 85.4483 142.077 85.275C142.207 84.625 142.228 84.1917 142.142 83.975C141.925 83.1517 141.817 82.7183 141.817 82.675C141.687 82.6317 141.578 82.545 141.492 82.415C141.448 82.285 141.362 82.22 141.232 82.22C141.102 82.22 140.928 81.9167 140.712 81.31C140.755 81.0933 140.712 80.725 140.582 80.205C140.495 79.6417 140.365 79.36 140.192 79.36L139.867 78.905L139.217 78.32C139.173 78.2767 139.022 78.3633 138.762 78.58C138.025 79.2733 137.202 80.6167 136.292 82.61C136.118 82.7833 136.097 82.87 136.227 82.87C136.27 83 136.053 83.7367 135.577 85.08C135.143 86.4233 134.927 87.2467 134.927 87.55C133.887 89.1967 133.822 90.4967 134.732 91.45C135.035 92.0567 135.295 92.4467 135.512 92.62C135.728 92.75 135.88 92.8583 135.967 92.945C136.097 92.9883 136.313 93.0317 136.617 93.075C136.963 93.1183 137.202 93.14 137.332 93.14C137.635 93.2267 138.242 93.27 139.152 93.27V93.14L139.087 93.01C139.217 92.9667 139.607 92.62 140.257 91.97C140.907 91.32 141.232 90.93 141.232 90.8C141.318 90.7567 141.362 90.6917 141.362 90.605ZM129.987 61.485L130.117 60.315C130.203 58.9283 130.983 57.585 132.457 56.285C132.89 56.0683 133.172 55.7 133.302 55.18C133.432 55.0933 133.692 54.8767 134.082 54.53C134.472 54.1833 134.775 53.945 134.992 53.815C135.815 53.3383 136.768 53.0567 137.852 52.97C138.155 52.84 138.675 52.7967 139.412 52.84C140.148 52.8833 140.668 52.97 140.972 53.1H142.467L143.962 53.165L144.742 53.49C147.732 54.14 149.703 55.2883 150.657 56.935C151.61 58.2783 152 60.315 151.827 63.045C151.697 63.2617 151.567 63.5 151.437 63.76C150.397 66.9233 149.097 69.3717 147.537 71.105L146.562 72.275L147.342 72.99C147.602 73.12 147.775 73.38 147.862 73.77C147.948 74.16 147.97 74.4633 147.927 74.68C148.447 75.1133 149.053 75.915 149.747 77.085C150.44 78.255 150.873 78.905 151.047 79.035C151.133 79.3817 151.328 79.7067 151.632 80.01C152.282 81.4833 152.672 82.5233 152.802 83.13C152.975 83.7367 153.105 84.6033 153.192 85.73C153.278 86.8133 153.213 87.8533 152.997 88.85C152.78 89.8467 152.585 90.3667 152.412 90.41C152.282 90.7133 152.195 90.995 152.152 91.255C152.152 91.515 151.805 92.1217 151.112 93.075C150.245 94.3317 149.487 95.0683 148.837 95.285C148.707 95.3283 148.533 95.4583 148.317 95.675C148.187 95.675 148.122 95.7833 148.122 96C147.688 96.3467 145.933 97.0833 142.857 98.21C139.52 98.21 137.765 98.1883 137.592 98.145C136.595 97.885 135.902 97.7767 135.512 97.82C135.122 97.9067 134.277 97.495 132.977 96.585C132.37 96.2817 131.893 95.9567 131.547 95.61C131.157 95.4367 130.658 95.0467 130.052 94.44C129.575 94.2233 129.077 93.7467 128.557 93.01C128.08 92.23 127.842 91.58 127.842 91.06C127.668 90.6267 127.495 90.3017 127.322 90.085C126.932 89.1317 126.737 88.1783 126.737 87.225C126.78 86.2283 126.91 85.6 127.127 85.34C127.343 85.0367 127.473 84.82 127.517 84.69C127.603 84.5167 127.668 84.3867 127.712 84.3C127.885 84.0833 127.972 83.9317 127.972 83.845L129.792 80.27C129.878 80.27 130.03 80.205 130.247 80.075C130.507 79.945 130.702 79.8583 130.832 79.815C132.002 78.645 132.63 78.06 132.717 78.06C132.587 77.8 132.76 77.475 133.237 77.085C133.757 76.6517 134.06 76.435 134.147 76.435C134.277 76.3917 134.385 76.3267 134.472 76.24C134.818 76.0667 135.165 75.98 135.512 75.98C135.685 76.0667 135.772 76.0233 135.772 75.85C135.772 75.6767 135.923 75.5033 136.227 75.33C136.27 75.2 136.27 75.005 136.227 74.745C136.227 74.4417 136.183 74.29 136.097 74.29C135.923 74.29 135.837 73.7917 135.837 72.795C135.013 71.4083 134.472 70.7367 134.212 70.78C134.082 70.8233 133.887 70.7367 133.627 70.52C133.41 70.3033 133.28 70.13 133.237 70C133.41 69.6533 133.41 69.4367 133.237 69.35C133.063 69.1767 132.977 69.0033 132.977 68.83C132.977 68.7867 132.717 68.4183 132.197 67.725C132.24 67.6383 132.023 67.335 131.547 66.815C131.07 66.295 130.788 66.035 130.702 66.035L130.572 65.645C130.572 65.1683 130.528 64.865 130.442 64.735C130.052 64.5617 129.943 64.3883 130.117 64.215C130.117 63.9117 130.03 63.695 129.857 63.565C129.683 63.3917 129.597 63.1317 129.597 62.785L129.987 61.485Z" fill="black"/>
<path d="M184.553 64.54L184.488 63.695C184.488 62.785 184.293 61.8317 183.903 60.835C183.513 59.8383 183.166 59.3183 182.863 59.275C181.953 59.0583 181.433 59.1233 181.303 59.47C179.699 61.55 178.638 63.1533 178.118 64.28L177.143 66.165C176.926 66.815 176.579 67.6383 176.103 68.635C175.626 69.5883 175.279 70.3683 175.063 70.975C174.803 72.535 174.694 73.3583 174.738 73.445C174.781 73.7483 174.781 74.0517 174.738 74.355C174.781 75.005 175.128 75.5467 175.778 75.98C176.428 76.63 177.099 76.6733 177.793 76.11C178.963 75.2867 180.284 73.965 181.758 72.145C182.971 70.845 183.816 69.3283 184.293 67.595C184.639 65.645 184.726 64.6267 184.553 64.54ZM181.108 83.585L182.668 77.735L182.538 77.67C182.364 77.8433 182.148 78.06 181.888 78.32C181.108 79.0133 180.479 79.5983 180.003 80.075C179.309 81.2017 178.291 82.0467 176.948 82.61C176.081 82.87 174.954 82.61 173.568 81.83C171.444 80.7467 169.451 79.2517 167.588 77.345C166.938 76.7383 166.483 75.5467 166.223 73.77C165.919 72.47 165.919 71.4083 166.223 70.585C166.526 69.7183 166.678 69.1983 166.678 69.025C166.504 68.2883 168.238 65.0817 171.878 59.405C173.958 57.325 175.474 56.025 176.428 55.505C178.768 54.205 180.783 53.5983 182.473 53.685C183.383 53.685 184.271 53.685 185.138 53.685C185.398 53.5983 185.614 53.6417 185.788 53.815L186.633 53.945C186.893 53.815 187.499 54.075 188.453 54.725C189.406 55.3317 190.056 55.8517 190.403 56.285C191.573 57.8017 192.244 60.1633 192.418 63.37C192.808 66.62 192.764 69.3717 192.288 71.625V73.055C192.288 73.1417 192.201 73.3583 192.028 73.705C192.071 74.095 191.963 74.6367 191.703 75.33C191.443 75.98 191.334 76.4567 191.378 76.76L190.858 80.53C190.294 82.6967 190.013 83.8233 190.013 83.91L189.558 85.275C189.168 86.055 188.929 86.77 188.843 87.42C188.713 87.5067 188.648 87.7883 188.648 88.265C188.561 88.4383 188.474 88.72 188.388 89.11C188.344 89.5 188.236 89.825 188.063 90.085C187.889 90.345 187.759 90.7133 187.673 91.19C187.586 91.6233 187.153 92.5333 186.373 93.92C185.593 95.2633 185.116 96 184.943 96.13L184.228 96.78L182.668 97.495C181.021 97.8417 179.006 97.8417 176.623 97.495C176.233 97.2783 176.081 96.8667 176.168 96.26C176.254 95.5667 176.601 94.7433 177.208 93.79C177.858 92.8367 178.378 91.905 178.768 90.995C179.158 90.085 179.418 89.435 179.548 89.045C179.721 88.6117 180.003 87.745 180.393 86.445C180.826 85.145 181.043 84.4733 181.043 84.43L181.108 83.585Z" fill="black"/>
<path d="M23.4765 119.22L23.9315 123.12C23.9315 124.117 23.6282 125.092 23.0215 126.045C23.2382 126.262 23.3465 126.5 23.3465 126.76C23.3465 127.107 23.0648 127.518 22.5015 127.995L21.8515 128.645C21.4615 129.165 20.6382 129.403 19.3815 129.36H19.3165C18.7965 129.187 18.4282 129.057 18.2115 128.97C17.7348 128.71 17.3665 127.973 17.1065 126.76C16.8032 126.067 16.6515 125.677 16.6515 125.59L16.0665 124.42C15.9798 123.25 15.7632 122.492 15.4165 122.145C15.4165 121.235 15.8498 120.39 16.7165 119.61C17.5398 118.873 18.8182 118.505 20.5515 118.505C21.3315 118.245 21.9165 118.115 22.3065 118.115C23.0865 118.332 23.4765 118.7 23.4765 119.22ZM22.3065 148.21C22.0032 148.21 20.9848 147.993 19.2515 147.56C18.4282 147.56 17.7565 147.43 17.2365 147.17C16.7598 146.953 16.5215 146.758 16.5215 146.585C15.7848 145.848 15.4165 145.025 15.4165 144.115C15.7632 143.075 15.9798 142.338 16.0665 141.905L16.6515 140.8C16.6515 140.497 16.7815 140.063 17.0415 139.5C17.3015 138.893 17.4532 138.525 17.4965 138.395C17.5398 138.265 17.5832 138.157 17.6265 138.07C17.6698 137.94 17.7348 137.832 17.8215 137.745C18.0815 137.442 18.2982 137.268 18.4715 137.225C18.9482 137.095 19.2298 136.987 19.3165 136.9L20.1615 136.835C20.9415 136.835 21.5048 137.095 21.8515 137.615L22.5015 138.33C23.0648 138.763 23.3465 139.067 23.3465 139.24L23.1515 140.8C23.6715 141.147 23.9315 141.818 23.9315 142.815C23.9315 143.812 23.7798 145.285 23.4765 147.235C23.4765 147.755 23.0865 148.08 22.3065 148.21Z" fill="black"/>
<path d="M59.2787 136.9H59.3437C60.167 136.77 60.9903 137.008 61.8137 137.615L62.4637 138.33C62.507 138.503 62.7887 138.763 63.3087 139.11C63.352 139.24 63.287 139.803 63.1137 140.8C63.417 141.017 63.677 141.602 63.8937 142.555C63.937 143.465 63.7853 144.982 63.4387 147.105C63.5253 147.322 63.4603 147.538 63.2437 147.755C62.767 148.232 61.857 148.253 60.5137 147.82C60.5137 147.863 60.4703 147.863 60.3837 147.82C60.3403 147.82 60.167 147.777 59.8637 147.69C59.6037 147.647 59.387 147.603 59.2137 147.56C59.0837 147.56 58.5637 147.452 57.6537 147.235C56.8737 146.932 56.4837 146.715 56.4837 146.585C56.007 146.108 55.7687 145.718 55.7687 145.415C55.5087 144.895 55.4653 144.288 55.6387 143.595C55.812 142.902 55.942 142.338 56.0287 141.905L56.6137 140.8C56.6137 140.497 56.852 139.847 57.3287 138.85C57.4153 138.287 57.5237 137.94 57.6537 137.81C58.347 137.377 58.8887 137.073 59.2787 136.9Z" fill="black"/>
<path d="M97.1791 128.45C97.2658 128.363 97.7641 128.277 98.6741 128.19C99.6274 128.06 100.732 127.67 101.989 127.02C102.032 127.02 102.011 126.5 101.924 125.46C101.794 123.64 101.686 122.34 101.599 121.56C101.512 120.52 101.426 119.783 101.339 119.35C101.339 118.527 101.014 116.815 100.364 114.215L97.5041 123.9C96.8974 126.587 96.6591 128.233 96.7891 128.84L97.1791 128.45ZM88.4041 130.335L88.7941 127.475C88.7941 126.912 88.8808 126.348 89.0541 125.785C89.0541 125.048 89.4224 123.943 90.1591 122.47C90.1591 122.383 90.3541 121.82 90.7441 120.78C90.7441 120.693 91.1558 119.415 91.9791 116.945L92.7591 115.06C92.7591 114.887 92.8674 114.562 93.0841 114.085C93.3008 113.565 93.4524 113.067 93.5391 112.59C93.6691 112.07 93.8208 111.572 93.9941 111.095C94.6008 109.925 95.1424 108.928 95.6191 108.105C96.5291 106.372 98.2191 105.592 100.689 105.765L102.769 105.96C104.069 106.307 105.066 106.675 105.759 107.065C106.756 107.455 107.427 107.888 107.774 108.365C108.121 108.798 108.272 109.535 108.229 110.575C108.272 111.095 108.402 113.348 108.619 117.335C108.836 121.322 108.944 123.337 108.944 123.38L109.269 126.175C109.269 126.435 109.746 129.555 110.699 135.535L112.129 140.085C112.996 142.512 113.451 143.79 113.494 143.92C113.581 144.007 113.776 144.462 114.079 145.285C114.556 146.715 114.144 147.668 112.844 148.145C111.674 148.318 110.807 148.21 110.244 147.82C110.027 147.82 109.529 147.625 108.749 147.235C108.662 147.018 108.402 146.802 107.969 146.585C107.579 146.412 107.319 146.26 107.189 146.13C106.712 146 106.279 145.328 105.889 144.115C105.759 144.028 105.521 143.682 105.174 143.075C104.871 142.468 104.784 141.97 104.914 141.58C104.611 141.19 104.459 140.388 104.459 139.175C104.069 138.525 103.874 137.507 103.874 136.12C103.874 134.733 103.657 133.65 103.224 132.87C101.014 133.867 98.6524 134.408 96.1391 134.495C95.6624 134.495 95.4241 134.582 95.4241 134.755C95.4241 135.145 95.2941 135.838 95.0341 136.835L93.9291 143.985C94.3624 147.192 93.9724 148.882 92.7591 149.055C92.4124 149.055 91.8274 149.142 91.0041 149.315C90.2241 149.488 89.5741 149.337 89.0541 148.86C88.0574 148.297 87.3424 147.712 86.9091 147.105C86.5191 146.542 86.3458 145.892 86.3891 145.155C86.4324 144.548 86.5408 143.248 86.7141 141.255C86.8008 141.168 86.8224 140.692 86.7791 139.825C86.7791 138.915 86.8441 138.222 86.9741 137.745L88.0141 133.715C88.1441 133.628 88.3174 132.978 88.5341 131.765C88.4908 131.678 88.4691 131.462 88.4691 131.115L88.4041 130.335Z" fill="black"/>
<path d="M144.881 110.965C143.754 110.315 141.566 109.99 138.316 109.99L138.706 114.02C139.053 116.36 139.356 120.737 139.616 127.15C140.006 127.063 140.266 126.955 140.396 126.825C140.743 126.565 141.111 126.435 141.501 126.435C142.064 126.305 142.606 125.915 143.126 125.265C144.426 124.182 145.423 123.272 146.116 122.535L148.261 120.065C148.391 120.022 148.608 119.545 148.911 118.635C149.214 117.682 149.409 116.902 149.496 116.295C149.496 115.038 149.366 114.323 149.106 114.15C149.106 114.063 148.846 113.522 148.326 112.525C148.153 112.395 147.633 112.07 146.766 111.55L144.881 110.965ZM131.426 103.49L135.066 102.97L139.746 102.645L142.216 102.97C142.389 103.143 142.801 103.252 143.451 103.295C144.708 103.252 146.398 103.967 148.521 105.44C149.041 105.613 149.474 105.917 149.821 106.35L152.291 109.34C152.378 109.427 152.508 109.665 152.681 110.055C152.854 110.402 153.093 110.813 153.396 111.29C153.309 111.29 153.374 111.463 153.591 111.81C154.154 112.763 154.414 113.327 154.371 113.5C154.588 113.673 154.804 114.237 155.021 115.19C155.238 116.143 155.303 116.793 155.216 117.14C155.259 117.183 155.216 117.682 155.086 118.635C154.783 120.715 154.241 122.253 153.461 123.25L152.616 124.81L151.186 126.89L150.341 127.67C148.781 129.403 146.874 130.747 144.621 131.7C144.534 131.743 144.404 131.787 144.231 131.83L142.671 132.35L140.136 133C140.136 134.257 140.288 137.16 140.591 141.71C140.764 143.27 140.894 144.137 140.981 144.31C140.981 145.74 140.894 146.693 140.721 147.17C140.548 147.69 140.266 148.058 139.876 148.275C139.486 148.535 138.814 148.687 137.861 148.73C137.601 148.817 137.146 148.73 136.496 148.47C135.846 148.253 135.326 147.907 134.936 147.43L134.546 145.35C134.633 145.263 134.503 144.852 134.156 144.115C133.853 143.768 133.614 143.162 133.441 142.295L132.986 136.12L132.921 134.04C130.408 134.213 128.891 133.52 128.371 131.96C127.938 131.137 127.851 130.595 128.111 130.335L128.436 129.49C128.956 128.667 129.953 128.255 131.426 128.255H132.791C132.704 128.168 132.661 127.865 132.661 127.345L132.401 124.615V123.445L132.336 122.6C132.379 122.21 132.358 121.777 132.271 121.3V120.91L132.141 119.285V118.05L132.076 117.4C132.076 114.323 131.903 112.373 131.556 111.55C130.126 112.373 129.173 112.828 128.696 112.915C128.219 112.958 127.418 112.633 126.291 111.94C125.814 111.55 125.554 111.117 125.511 110.64C124.731 109.557 124.471 108.668 124.731 107.975C124.818 107.628 125.164 107.087 125.771 106.35C125.814 106.177 126.334 105.787 127.331 105.18C128.111 104.4 129.476 103.837 131.426 103.49Z" fill="black"/>
<path d="M177.439 116.49C177.482 117.227 177.656 118.938 177.959 121.625C178.436 126.392 178.717 129.295 178.804 130.335L179.454 133.39L179.974 136.445C180.927 134.538 181.382 133.433 181.339 133.13C181.339 132.827 181.707 131.7 182.444 129.75C183.484 127.887 184.156 126.24 184.459 124.81C184.502 124.55 184.741 123.922 185.174 122.925C185.044 122.795 185.152 122.383 185.499 121.69C185.846 120.953 186.106 120.173 186.279 119.35C186.496 118.527 186.604 118.093 186.604 118.05C186.647 118.007 186.691 117.963 186.734 117.92C186.864 117.79 187.037 117.4 187.254 116.75C187.384 116.143 187.449 115.667 187.449 115.32V113.305C187.449 113.175 187.557 112.72 187.774 111.94L187.709 110.445C187.709 109.405 188.207 108.062 189.204 106.415L190.504 105.31C190.504 104.92 190.829 104.682 191.479 104.595C192.172 104.508 192.779 104.552 193.299 104.725C193.819 104.898 194.166 104.985 194.339 104.985C194.512 105.158 195.141 105.375 196.224 105.635C196.744 105.808 197.069 106.133 197.199 106.61C197.372 107.087 197.459 107.737 197.459 108.56L197.004 113.63C197.004 113.933 196.874 116.035 196.614 119.935L196.679 122.015C196.636 122.102 196.614 122.838 196.614 124.225V127.605C196.614 128.255 196.614 128.667 196.614 128.84L196.809 131.31C196.636 131.31 196.896 133.238 197.589 137.095C197.589 137.702 197.806 139.023 198.239 141.06C198.716 143.053 198.846 144.722 198.629 146.065C198.629 146.758 198.001 147.387 196.744 147.95C195.791 147.777 195.206 147.495 194.989 147.105C194.599 146.888 194.361 146.715 194.274 146.585L193.754 145.935C193.061 145.372 192.497 144.7 192.064 143.92C191.761 143.617 191.544 143.183 191.414 142.62C190.981 142.013 190.721 141.255 190.634 140.345C190.547 139.435 190.374 138.807 190.114 138.46C189.897 138.07 189.724 137.702 189.594 137.355C189.117 136.878 188.814 136.033 188.684 134.82C188.554 133.563 188.424 132.48 188.294 131.57C188.294 131.05 188.316 130.66 188.359 130.4C188.229 130.053 188.142 129.793 188.099 129.62C188.099 129.447 188.077 129.252 188.034 129.035L187.774 130.27C187.644 130.487 187.362 131.332 186.929 132.805L185.564 137.03L184.394 141.125C184.177 141.255 183.917 141.775 183.614 142.685C183.224 143.682 182.986 144.223 182.899 144.31C182.856 144.397 182.791 144.527 182.704 144.7C182.357 145.393 181.967 145.957 181.534 146.39C180.364 147.473 179.151 147.777 177.894 147.3C176.681 146.867 175.792 146 175.229 144.7C174.926 143.963 174.687 143.487 174.514 143.27C174.471 142.923 174.232 142.317 173.799 141.45C173.496 140.627 173.257 139.587 173.084 138.33C172.867 137.94 172.716 137.268 172.629 136.315C172.412 135.925 172.261 135.362 172.174 134.625C172.087 133.888 171.957 133.173 171.784 132.48C171.567 131.743 171.416 130.855 171.329 129.815C171.242 129.035 170.917 127.605 170.354 125.525C170.224 125.395 170.051 124.962 169.834 124.225C169.747 124.918 169.704 125.308 169.704 125.395C169.704 125.438 169.531 126.5 169.184 128.58C169.271 128.667 169.249 129.317 169.119 130.53C168.859 131.353 168.707 132.22 168.664 133.13C168.317 135.47 168.166 137.225 168.209 138.395C168.339 138.785 168.339 139.262 168.209 139.825C168.122 140.345 168.036 140.887 167.949 141.45C167.906 141.97 167.819 142.447 167.689 142.88V143.335C167.559 144.678 167.537 145.437 167.624 145.61C167.624 146.087 167.429 146.672 167.039 147.365C166.692 148.058 166.129 148.318 165.349 148.145C163.962 147.798 163.161 147.538 162.944 147.365C162.467 146.585 162.229 145.892 162.229 145.285V142.165L162.359 140.995C162.316 140.865 162.337 140.367 162.424 139.5C162.381 139.457 162.359 139.11 162.359 138.46C162.359 137.767 162.294 137.247 162.164 136.9V136.25C162.077 134.777 162.056 133.932 162.099 133.715C162.186 133.455 162.186 132.913 162.099 132.09C162.272 132.09 162.381 131.765 162.424 131.115C162.467 130.422 162.532 129.685 162.619 128.905L163.074 128.71C162.987 128.667 162.966 128.06 163.009 126.89C163.052 126.587 163.161 125.807 163.334 124.55C163.507 123.293 163.572 122.448 163.529 122.015C163.529 121.538 163.767 120.802 164.244 119.805C165.154 117.075 165.631 115.342 165.674 114.605C165.761 113.868 165.891 113.218 166.064 112.655C166.237 111.225 166.649 110.033 167.299 109.08C167.602 108.127 168.166 107.563 168.989 107.39L169.769 106.805H169.834C170.657 106.198 172.131 106.112 174.254 106.545C176.074 107.368 177.071 108.387 177.244 109.6C177.071 110.207 177.136 112.308 177.439 115.905V116.49Z" fill="black"/>
</g>
</svg>
