<svg width="200" height="150" viewBox="0 0 200 150" fill="none" xmlns="http://www.w3.org/2000/svg">
<desc>{"colon":0.15,"dot":0.15}</desc>
<g clip-path="url(#clip0_100_2)">
<path d="M22.8718 49H16.7158C13.9798 49 11.7758 48.088 10.1038 46.264C8.43182 44.364 7.59582 41.818 7.59582 38.626V13.09C7.59582 9.898 8.43182 7.428 10.1038 5.68C11.7758 3.856 13.9798 2.944 16.7158 2.944H22.8718C25.7598 2.944 28.0018 3.856 29.5978 5.68C31.2698 7.428 32.1058 9.898 32.1058 13.09V38.626C32.1058 41.818 31.2698 44.364 29.5978 46.264C28.0018 48.088 25.7598 49 22.8718 49ZM28.6858 13.318C28.6858 8.91 26.7478 6.706 22.8718 6.706H16.7158C12.9918 6.706 11.1298 8.91 11.1298 13.318V38.512C11.1298 42.996 12.9918 45.238 16.7158 45.238H22.8718C26.7478 45.238 28.6858 42.996 28.6858 38.512V13.318Z" fill="black"/>
<path d="M63.4432 49H62.6452C61.9612 49 61.6192 48.506 61.6192 47.518V7.504L55.3492 12.064C55.1212 12.14 54.8552 12.254 54.5512 12.406C54.2472 12.482 53.9812 12.52 53.7532 12.52C53.6012 12.52 53.4872 12.444 53.4112 12.292C53.4112 12.064 53.4112 11.646 53.4112 11.038V10.582C53.4112 9.518 53.7152 8.796 54.3232 8.416L61.6192 3.286C61.9232 3.058 62.3032 2.944 62.7592 2.944H63.4432C63.6712 2.944 63.8992 3.096 64.1272 3.4C64.3552 3.628 64.4692 3.97 64.4692 4.426V47.518C64.4692 47.974 64.3552 48.354 64.1272 48.658C63.8992 48.886 63.6712 49 63.4432 49Z" fill="black"/>
<path d="M110.422 49H89.9021C89.0661 49 88.6481 48.506 88.6481 47.518V41.704C88.6481 37.828 89.9781 34.788 92.6381 32.584L105.064 22.324C107.116 20.652 108.142 18.486 108.142 15.826V12.976C108.142 8.796 106.242 6.706 102.442 6.706H97.1981C93.5501 6.706 91.7261 8.796 91.7261 12.976V16.168C91.7261 17.308 91.2701 17.878 90.3581 17.878H89.4461C88.6861 17.878 88.3061 17.308 88.3061 16.168V12.976C88.3061 9.632 89.1041 7.124 90.7001 5.452C92.3721 3.78 94.5381 2.944 97.1981 2.944H102.442C105.178 2.944 107.344 3.78 108.94 5.452C110.612 7.124 111.448 9.632 111.448 12.976V15.94C111.448 19.816 110.042 22.932 107.23 25.288L94.6901 35.662C92.8661 37.258 91.9541 39.196 91.9541 41.476V45.238H110.422C111.258 45.238 111.676 45.732 111.676 46.72V47.518C111.676 48.506 111.258 49 110.422 49Z" fill="black"/>
<path d="M142.572 49H137.214C134.478 49 132.274 48.164 130.602 46.492C129.006 44.82 128.208 42.312 128.208 38.968V35.548C128.208 34.484 128.588 33.952 129.348 33.952H130.374C131.21 33.952 131.628 34.484 131.628 35.548V38.968C131.628 43.148 133.49 45.238 137.214 45.238H142.572C146.296 45.238 148.158 43.148 148.158 38.968V34.066C148.158 29.81 146.296 27.682 142.572 27.682H138.696C137.86 27.682 137.442 27.188 137.442 26.2V25.402C137.442 24.49 137.86 24.034 138.696 24.034H142.572C146.296 24.034 148.158 21.868 148.158 17.536V12.976C148.158 8.796 146.296 6.706 142.572 6.706H137.214C133.49 6.706 131.628 8.796 131.628 12.976V15.598C131.628 16.662 131.21 17.194 130.374 17.194H129.348C128.588 17.194 128.208 16.662 128.208 15.598V12.976C128.208 9.632 129.006 7.124 130.602 5.452C132.274 3.78 134.478 2.944 137.214 2.944H142.572C145.308 2.944 147.474 3.78 149.07 5.452C150.742 7.124 151.578 9.632 151.578 12.976V17.536C151.578 20.804 150.362 23.54 147.93 25.744C150.362 27.948 151.578 30.684 151.578 33.952V38.968C151.578 42.312 150.742 44.82 149.07 46.492C147.474 48.164 145.308 49 142.572 49Z" fill="black"/>
<path d="M193.026 39.652H189.036V47.518C189.036 48.506 188.618 49 187.782 49H186.87C186.034 49 185.616 48.506 185.616 47.518V39.652H167.262C166.35 39.652 165.894 39.158 165.894 38.17V37.372V37.258L166.008 36.688C166.16 36.536 166.236 36.384 166.236 36.232C166.236 36.08 166.312 35.928 166.464 35.776L184.02 4.084C184.476 3.324 185.122 2.944 185.958 2.944H187.782C188.618 2.944 189.036 3.438 189.036 4.426V36.004H193.026C194.014 36.004 194.508 36.46 194.508 37.372V38.17C194.508 39.158 194.014 39.652 193.026 39.652ZM185.616 8.302L170.226 36.004H185.616V8.302Z" fill="black"/>
<path d="M22.4978 99H17.7098C14.8978 99 12.6938 98.088 11.0978 96.264C9.50176 94.364 8.70376 91.818 8.70376 88.626V86.004C8.70376 84.94 9.08376 84.408 9.84376 84.408H10.7558C11.6678 84.408 12.1238 84.94 12.1238 86.004V88.512C12.1238 92.996 13.9858 95.238 17.7098 95.238H22.4978C26.2978 95.238 28.1978 92.996 28.1978 88.512V79.962C28.1978 75.63 26.2978 73.464 22.4978 73.464H16.5698C15.5058 73.464 14.7078 73.578 14.1758 73.806C13.7198 74.034 13.3398 74.414 13.0358 74.946C12.8838 75.25 12.7318 75.516 12.5798 75.744C12.4278 75.972 12.2758 76.238 12.1238 76.542C11.8958 76.922 11.5158 77.112 10.9838 77.112H9.84376C9.08376 77.112 8.70376 76.618 8.70376 75.63V54.426C8.70376 53.438 9.08376 52.944 9.84376 52.944H29.5658C30.4778 52.944 30.9338 53.438 30.9338 54.426V55.11C30.9338 56.174 30.4778 56.706 29.5658 56.706H12.1238V71.184C13.1118 70.576 13.9098 70.196 14.5178 70.044C15.2018 69.816 15.8858 69.702 16.5698 69.702H22.4978C25.2338 69.702 27.4378 70.576 29.1098 72.324C30.7818 73.996 31.6178 76.542 31.6178 79.962V88.626C31.6178 91.818 30.7818 94.364 29.1098 96.264C27.4378 98.088 25.2338 99 22.4978 99Z" fill="black"/>
<path d="M62.6781 99H57.0921C54.3561 99 52.1521 98.088 50.4801 96.264C48.8841 94.364 48.0861 91.818 48.0861 88.626V63.09C48.0861 59.898 48.8841 57.428 50.4801 55.68C52.1521 53.856 54.3561 52.944 57.0921 52.944H68.6061C69.5941 52.944 70.0881 53.438 70.0881 54.426V55.11C70.0881 56.174 69.5941 56.706 68.6061 56.706H57.0921C53.3681 56.706 51.5061 58.91 51.5061 63.318V71.184H62.6781C65.5661 71.184 67.8081 72.096 69.4041 73.92C71.0761 75.744 71.9121 78.252 71.9121 81.444V88.626C71.9121 91.818 71.0761 94.364 69.4041 96.264C67.8081 98.088 65.5661 99 62.6781 99ZM68.4921 81.558C68.4921 77.15 66.5541 74.946 62.6781 74.946H51.5061V88.512C51.5061 92.996 53.3681 95.238 57.0921 95.238H62.6781C66.5541 95.238 68.4921 92.996 68.4921 88.512V81.558Z" fill="black"/>
<path d="M110.679 56.25L97.2266 97.632C96.9986 98.24 96.7326 98.62 96.4286 98.772C96.2006 98.924 95.9346 99 95.6306 99H94.9466C94.4146 99 94.0726 98.886 93.9206 98.658C93.8446 98.43 93.8066 98.012 93.8066 97.404V96.72L107.031 56.706H90.3866C89.5506 56.706 89.1326 56.174 89.1326 55.11V54.426C89.1326 53.438 89.5506 52.944 90.3866 52.944H109.539C110.527 52.944 111.021 53.438 111.021 54.426V54.996C111.021 55.604 110.907 56.022 110.679 56.25Z" fill="black"/>
<path d="M143.142 99H136.53C133.794 99 131.59 98.164 129.918 96.492C128.246 94.82 127.41 92.312 127.41 88.968V83.952C127.41 80.836 128.588 78.1 130.944 75.744C129.652 74.604 128.74 73.388 128.208 72.096C127.676 70.728 127.41 69.208 127.41 67.536V62.976C127.41 59.632 128.246 57.124 129.918 55.452C131.59 53.78 133.794 52.944 136.53 52.944H143.142C145.878 52.944 148.082 53.78 149.754 55.452C151.426 57.124 152.262 59.632 152.262 62.976V67.536C152.262 69.284 151.996 70.804 151.464 72.096C150.932 73.388 150.02 74.604 148.728 75.744C151.084 78.1 152.262 80.836 152.262 83.952V88.968C152.262 92.312 151.426 94.82 149.754 96.492C148.082 98.164 145.878 99 143.142 99ZM148.842 62.976C148.842 58.796 146.942 56.706 143.142 56.706H136.53C132.806 56.706 130.944 58.796 130.944 62.976V67.536C130.944 71.868 132.806 74.034 136.53 74.034H143.142C146.942 74.034 148.842 71.868 148.842 67.536V62.976ZM148.842 84.066C148.842 79.81 146.942 77.682 143.142 77.682H136.53C132.806 77.682 130.944 79.81 130.944 84.066V88.968C130.944 93.148 132.806 95.238 136.53 95.238H143.142C146.942 95.238 148.842 93.148 148.842 88.968V84.066Z" fill="black"/>
<path d="M182.84 99H171.326C171.022 99 170.718 98.886 170.414 98.658C170.186 98.43 170.072 98.05 170.072 97.518V96.72C170.072 96.264 170.186 95.922 170.414 95.694C170.718 95.39 171.022 95.238 171.326 95.238H182.84C186.64 95.238 188.54 92.996 188.54 88.512V80.76H177.14C174.404 80.76 172.2 79.848 170.528 78.024C168.932 76.2 168.134 73.692 168.134 70.5V63.09C168.134 59.898 168.932 57.428 170.528 55.68C172.2 53.856 174.404 52.944 177.14 52.944H182.84C185.576 52.944 187.78 53.856 189.452 55.68C191.2 57.428 192.074 59.898 192.074 63.09V88.626C192.074 91.818 191.2 94.364 189.452 96.264C187.78 98.088 185.576 99 182.84 99ZM188.54 63.318C188.54 58.91 186.64 56.706 182.84 56.706H177.14C173.416 56.706 171.554 58.91 171.554 63.318V70.386C171.554 74.794 173.416 76.998 177.14 76.998H188.54V63.318Z" fill="black"/>
<path d="M18.954 119.588C18.802 119.512 18.688 119.398 18.612 119.246C18.46 119.018 18.384 118.562 18.384 117.878V111.494C18.384 110.81 18.498 110.354 18.726 110.126C18.802 109.898 18.802 109.784 18.726 109.784H21.006C21.082 109.784 21.082 109.822 21.006 109.898C20.93 109.898 20.93 109.974 21.006 110.126C21.31 110.43 21.462 110.886 21.462 111.494V117.878C21.462 118.486 21.31 118.904 21.006 119.132L20.778 119.588H18.954ZM20.778 138.74L21.348 139.196C21.424 139.272 21.462 139.69 21.462 140.45V147.404C21.462 147.784 21.348 148.202 21.12 148.658C20.968 148.886 20.93 149 21.006 149H18.84C18.84 148.924 18.688 148.696 18.384 148.316C18.384 148.316 18.384 148.012 18.384 147.404V140.45C18.384 139.842 18.46 139.348 18.612 138.968C18.764 138.816 18.802 138.74 18.726 138.74H20.778Z" fill="black"/>
<path d="M60.1153 149H57.8353C57.7593 149 57.6833 148.924 57.6073 148.772C57.5313 148.62 57.4933 148.202 57.4933 147.518V139.88C57.4933 139.196 57.5313 138.778 57.6073 138.626C57.6833 138.474 57.7593 138.398 57.8353 138.398H60.1153C60.1913 138.398 60.2673 138.474 60.3433 138.626C60.4953 138.93 60.5713 139.348 60.5713 139.88V147.518C60.5713 147.898 60.5333 148.164 60.4573 148.316C60.4573 148.468 60.4193 148.62 60.3433 148.772C60.2673 148.924 60.1913 149 60.1153 149Z" fill="black"/>
<path d="M114.118 149H113.092C112.636 149 112.294 148.848 112.066 148.544C111.838 148.24 111.648 147.86 111.496 147.404L108.076 136.688H91.6602L88.0122 147.632C87.6322 148.544 87.1002 149 86.4162 149H85.6182C85.0862 149 84.6682 148.772 84.3642 148.316C84.1362 147.86 84.0982 147.404 84.2502 146.948L97.4742 104.54L97.8162 103.856C97.8922 103.78 97.9302 103.742 97.9302 103.742C97.9302 103.666 97.9682 103.59 98.0442 103.514C98.3482 103.134 98.6902 102.944 99.0702 102.944H100.552C101.312 102.944 101.882 103.4 102.262 104.312L115.486 146.948C115.638 147.404 115.562 147.86 115.258 148.316C115.03 148.772 114.65 149 114.118 149ZM99.7542 109.1C98.5382 113.736 97.3222 118.068 96.1062 122.096C94.9662 126.124 93.9782 129.506 93.1422 132.242H106.594L99.7542 109.1Z" fill="black"/>
<path d="M143.378 132.128H131.864V147.404C131.864 147.784 131.75 148.164 131.522 148.544C131.294 148.848 130.914 149 130.382 149H129.47C128.482 149 127.988 148.468 127.988 147.404V104.654C127.988 103.514 128.482 102.944 129.47 102.944H143.378C146.266 102.944 148.508 103.894 150.104 105.794C151.7 107.618 152.498 110.164 152.498 113.432V121.64C152.498 124.832 151.7 127.378 150.104 129.278C148.508 131.178 146.266 132.128 143.378 132.128ZM148.85 113.432C148.85 109.176 147.026 107.048 143.378 107.048H131.864V127.91H143.378C145.126 127.91 146.456 127.416 147.368 126.428C148.356 125.364 148.85 123.73 148.85 121.526V113.432Z" fill="black"/>
<path d="M195.649 149H194.737C193.749 149 193.255 148.468 193.255 147.404V112.52L182.197 138.398C181.817 139.082 181.209 139.424 180.373 139.424H179.347C178.511 139.424 177.941 139.082 177.637 138.398L166.579 112.292V147.404C166.579 147.784 166.465 148.164 166.237 148.544C166.009 148.848 165.629 149 165.097 149H164.185C163.121 149 162.589 148.468 162.589 147.404V104.654C162.589 103.514 163.121 102.944 164.185 102.944H165.895C166.579 102.944 167.035 103.248 167.263 103.856L179.917 133.496L192.343 103.856C192.571 103.248 193.065 102.944 193.825 102.944H195.649C196.181 102.944 196.561 103.134 196.789 103.514C197.017 103.894 197.131 104.274 197.131 104.654V147.404C197.131 147.784 197.017 148.164 196.789 148.544C196.561 148.848 196.181 149 195.649 149Z" fill="black"/>
</g>
</svg>
