<svg width="160" height="150" viewBox="0 0 160 150" fill="none" xmlns="http://www.w3.org/2000/svg">
<g clip-path="url(#clip0_100_2)">
<path d="M10.9096 1.964C12.2629 1.57733 13.9643 1.384 16.0136 1.384C19.4549 1.384 22.0649 1.964 23.8436 3.124C25.6223 4.284 26.9176 6.43 27.7296 9.562C28.5416 12.694 28.9476 17.334 28.9476 23.482C28.9476 31.95 28.0196 37.808 26.1636 41.056C24.3463 44.304 20.9629 45.928 16.0136 45.928C11.1029 45.928 7.71959 44.304 5.86359 41.056C4.00759 37.808 3.07959 32.2787 3.07959 24.468C3.07959 16.6573 3.62093 11.1473 4.70359 7.938C5.78626 4.72866 7.85493 2.73733 10.9096 1.964ZM11.7216 14.492C11.5669 15.6907 11.4703 16.9087 11.4316 18.146C11.3929 19.3447 11.3736 21.452 11.3736 24.468C11.3736 27.484 11.4509 29.9973 11.6056 32.008C11.7989 34.0187 12.0309 35.3527 12.3016 36.01C12.6109 36.6673 13.0169 36.996 13.5196 36.996C14.7956 36.996 15.7623 36.9767 16.4196 36.938C17.1156 36.8607 17.7729 36.648 18.3916 36.3C19.0489 35.9133 19.4936 35.488 19.7256 35.024C19.9963 34.56 20.2283 33.748 20.4216 32.588C20.6923 30.964 20.8276 28.1027 20.8276 24.004C20.8276 19.9053 20.7309 16.8507 20.5376 14.84C20.3829 12.8293 20.1509 11.4953 19.8416 10.838C19.5323 10.142 19.1069 9.794 18.5656 9.794C17.3283 9.794 16.3423 9.83266 15.6076 9.91C14.9116 9.98733 14.2543 10.2387 13.6356 10.664C13.0556 11.0507 12.6303 11.476 12.3596 11.94C12.1276 12.404 11.9149 13.2547 11.7216 14.492Z" fill="black"/>
<path d="M58.8496 45H39.1876L38.2596 44.072V37.808H44.8716V10.838L39.7096 11.882L37.6796 4.98L51.3096 1.384L52.2376 2.312L53.1656 19.944L53.2236 37.808H57.9216L58.8496 38.736V45Z" fill="black"/>
<path d="M82.1283 12.868L82.1863 10.548C82.1863 9.81333 82.109 9.36866 81.9543 9.214C81.7997 9.05933 81.6063 8.924 81.3743 8.808C80.9877 8.61467 80.3883 8.518 79.5763 8.518C78.803 8.518 78.1843 8.53733 77.7203 8.576C77.2563 8.576 76.8697 8.59533 76.5603 8.634C76.2897 8.634 75.9997 8.67267 75.6903 8.75C75.4197 8.78867 75.2263 8.82733 75.1103 8.866C74.5303 9.05933 74.0857 9.19466 73.7763 9.272H70.9343L69.3103 3.414C71.3983 2.06067 74.5883 1.384 78.8803 1.384C81.5483 1.384 83.6557 1.57733 85.2023 1.964C86.749 2.312 87.909 3.008 88.6823 4.052C89.4557 5.096 89.939 6.256 90.1323 7.532C90.3643 8.76933 90.4803 10.0067 90.4803 11.244C90.4803 12.4427 90.4803 13.332 90.4803 13.912C90.519 14.492 90.519 14.8787 90.4803 15.072C90.4803 15.2267 90.4417 15.6327 90.3643 16.29C90.287 16.9087 90.171 17.4307 90.0163 17.856C89.9003 18.2427 89.6877 18.8613 89.3783 19.712C89.1077 20.524 88.7597 21.2973 88.3343 22.032C87.9477 22.7667 87.445 23.6947 86.8263 24.816C86.2077 25.9373 85.4923 27.0973 84.6803 28.296C82.2443 32.0467 80.137 35.082 78.3583 37.402H90.5383L91.4663 38.33V45H68.4983V37.808C74.3757 29.4173 78.107 23.83 79.6923 21.046C81.3163 18.2233 82.1283 15.4973 82.1283 12.868Z" fill="black"/>
<path d="M111.699 8.518C108.722 8.518 106.382 8.76933 104.681 9.272H101.839L100.215 3.414C102.303 2.06067 105.493 1.384 109.785 1.384C115.121 1.384 118.678 2.38933 120.457 4.4C121.385 5.444 122.023 6.68133 122.371 8.112C122.719 9.54266 122.893 11.3793 122.893 13.622C122.893 17.1407 122.081 19.9633 120.457 22.09C122.854 24.062 124.053 27.6 124.053 32.704C124.053 34.7533 123.84 36.532 123.415 38.04C123.028 39.5093 122.313 40.8627 121.269 42.1C119.181 44.652 115.16 45.928 109.205 45.928C107.426 45.928 104.739 45.7347 101.143 45.348V38.156C104.855 38.388 107.794 38.504 109.959 38.504C112.124 38.504 113.516 38.156 114.135 37.46C114.792 36.7253 115.121 35.1207 115.121 32.646V29.862C115.121 28.8953 115.063 28.3347 114.947 28.18C114.831 28.0253 114.676 27.832 114.483 27.6C114.328 27.3293 114.135 27.1747 113.903 27.136C113.671 27.0973 113.362 27.02 112.975 26.904C112.434 26.788 111.428 26.73 109.959 26.73H105.783V19.306C108.374 19.306 110.133 19.19 111.061 18.958C112.028 18.726 112.646 18.3973 112.917 17.972C113.613 17.044 113.961 15.5747 113.961 13.564C113.961 10.2 113.207 8.518 111.699 8.518Z" fill="black"/>
<path d="M156.55 27.136H153.186V45H145.762L144.834 44.072V27.136H131.9L130.972 26.208L131.03 1.384H137.352L138.28 2.312L139.208 19.944H144.834L144.892 1.384H151.33L152.258 2.312L153.186 19.944H155.622L156.55 20.872V27.136Z" fill="black"/>
<path d="M5.7229 51.384H24.5729L25.5009 52.312V58.576H12.7989L13.7849 68.668C14.1716 68.7067 14.8096 68.7647 15.6989 68.842C16.6269 68.8807 17.3036 68.9193 17.7289 68.958C18.1542 68.9967 18.7149 69.074 19.4109 69.19C20.1069 69.2673 20.6482 69.364 21.0349 69.48C22.0402 69.712 22.7942 70.0407 23.2969 70.466C25.6942 72.438 26.8929 76.2467 26.8929 81.892C26.8929 91.2493 21.6342 95.928 11.1169 95.928C10.3436 95.928 9.51223 95.8507 8.6229 95.696C7.77223 95.58 6.84423 95.464 5.8389 95.348V88.156C9.5509 88.388 11.4456 88.504 11.5229 88.504C14.3069 88.504 16.0662 88.0593 16.8009 87.17C17.5742 86.242 17.9609 84.7727 17.9609 82.762C17.9609 80.7127 17.9222 79.3787 17.8449 78.76C17.7676 78.1027 17.5162 77.5227 17.0909 77.02C16.6656 76.4787 16.0662 76.15 15.2929 76.034C14.5196 75.918 13.3789 75.86 11.8709 75.86H6.6509L5.7229 74.932V51.384Z" fill="black"/>
<path d="M36.7167 80.5C36.7167 77.4453 37.0841 73.9847 37.8187 70.118C38.5534 66.2127 39.2881 63.0227 40.0227 60.548C40.7574 58.0347 41.8014 54.6707 43.1547 50.456L50.1727 52.196L51.1007 53.124L49.9407 55.85C48.3554 58.982 47.3501 62.288 46.9247 65.768L48.3167 65.188C51.3714 65.188 53.6914 65.594 55.2767 66.406C56.9007 67.218 58.0801 68.726 58.8147 70.93C59.5494 73.0953 59.9167 76.2853 59.9167 80.5C59.9167 86.3 59.0854 90.3213 57.4227 92.564C55.7601 94.8067 52.7247 95.928 48.3167 95.928C43.9087 95.928 40.8734 94.8067 39.2107 92.564C37.5481 90.3213 36.7167 86.3 36.7167 80.5ZM44.6047 80.5C44.6047 86.996 45.2234 90.244 46.4607 90.244C48.1621 90.244 49.4187 89.9733 50.2307 89.432C50.6561 89.1227 50.9461 88.562 51.1007 87.75C51.4101 86.126 51.5647 83.7093 51.5647 80.5C51.5647 74.004 50.9461 70.756 49.7087 70.756C47.3887 70.756 45.9581 71.2973 45.4167 72.38C44.8754 73.4627 44.6047 76.1693 44.6047 80.5Z" fill="black"/>
<path d="M70.5673 51.384H91.2733L92.1433 52.312V58.518L88.1993 69.944L77.4113 95H70.0453L69.1173 94.072L84.3133 58.576H71.4953L70.5673 57.648V51.384Z" fill="black"/>
<path d="M124.258 82.124C124.258 86.3387 123.253 89.7027 121.242 92.216C119.231 94.6907 116.138 95.928 111.962 95.928C103.803 95.928 99.7242 91.3267 99.7242 82.124C99.7242 80.3067 100.207 78.47 101.174 76.614C102.141 74.7193 103.436 73.1147 105.06 71.8C103.861 70.524 102.875 69.0547 102.102 67.392C101.367 65.6907 101 64.028 101 62.404C101 58.924 101.889 56.0433 103.668 53.762C105.485 51.4807 108.173 50.34 111.73 50.34C119.231 50.34 122.982 54.3613 122.982 62.404C122.982 65.768 121.609 68.9 118.864 71.8C120.488 73.076 121.783 74.6613 122.75 76.556C123.755 78.4507 124.258 80.3067 124.258 82.124ZM108.772 61.534C108.772 64.1633 109.835 66.3673 111.962 68.146C114.166 66.3673 115.268 64.1633 115.268 61.534C115.268 59.8327 114.939 58.4987 114.282 57.532C113.663 56.5653 112.89 56.082 111.962 56.082C111.073 56.082 110.319 56.5653 109.7 57.532C109.081 58.4987 108.772 59.8327 108.772 61.534ZM111.962 75.918C110.493 77.1553 109.41 78.296 108.714 79.34C108.057 80.3453 107.728 81.6407 107.728 83.226C107.728 84.8113 108.076 86.242 108.772 87.518C109.507 88.794 110.57 89.432 111.962 89.432C113.393 89.432 114.456 88.794 115.152 87.518C115.887 86.242 116.254 84.8113 116.254 83.226C116.254 81.6407 115.906 80.3453 115.21 79.34C114.514 78.296 113.431 77.1553 111.962 75.918Z" fill="black"/>
<path d="M155.423 66.116C155.423 69.2867 155.094 72.4187 154.437 75.512C153.78 78.5667 153.122 80.964 152.465 82.704C151.808 84.4053 150.841 86.648 149.565 89.432C148.289 92.216 147.458 94.072 147.071 95L146.143 95.928L140.807 94.072L139.879 93.144C139.918 93.0667 140.343 92.2547 141.155 90.708C141.967 89.1227 142.586 87.9047 143.011 87.054C144.326 84.2313 145.06 82.1627 145.215 80.848L143.823 81.428C140.768 81.428 138.429 81.022 136.805 80.21C135.22 79.398 134.06 77.9093 133.325 75.744C132.59 73.54 132.223 70.3307 132.223 66.116C132.223 60.2773 133.054 56.198 134.717 53.878C136.418 51.5193 139.454 50.34 143.823 50.34C148.192 50.34 151.208 51.5193 152.871 53.878C154.572 56.198 155.423 60.2773 155.423 66.116ZM147.419 66.116C147.419 60.0453 146.82 57.01 145.621 57.01C143.417 57.01 142.044 57.5127 141.503 58.518C140.962 59.5233 140.691 62.056 140.691 66.116C140.691 71.9547 141.29 74.874 142.489 74.874C144.732 74.874 146.104 74.3907 146.607 73.424C147.148 72.4573 147.419 70.0213 147.419 66.116Z" fill="black"/>
<path d="M15.9796 145.928C13.1956 145.928 11.8036 144.536 11.8036 141.752C11.8036 138.968 13.1956 137.576 15.9796 137.576C18.7636 137.576 20.1556 138.968 20.1556 141.752C20.1556 144.536 18.7636 145.928 15.9796 145.928ZM15.9796 123.656C13.1956 123.656 11.8036 122.264 11.8036 119.48C11.8036 116.696 13.1956 115.304 15.9796 115.304C18.7636 115.304 20.1556 116.696 20.1556 119.48C20.1556 122.264 18.7636 123.656 15.9796 123.656Z" fill="black"/>
<path d="M48.0039 145.928C45.2199 145.928 43.8279 144.536 43.8279 141.752C43.8279 138.968 45.2199 137.576 48.0039 137.576C50.7879 137.576 52.1799 138.968 52.1799 141.752C52.1799 144.536 50.7879 145.928 48.0039 145.928Z" fill="black"/>
<path d="M81.6512 100.398C84.3192 100.398 85.7692 100.997 86.0012 102.196L89.9452 120.002L93.9472 143.724C94.0245 144.111 94.0632 144.478 94.0632 144.826C94.0632 145.135 93.9665 145.387 93.7732 145.58C93.5799 145.812 92.9225 145.928 91.8012 145.928C88.3599 145.928 86.5232 145.193 86.2912 143.724L84.2612 131.776H76.1412L74.3432 143.782C74.2272 144.594 74.0725 145.135 73.8792 145.406C73.7245 145.677 73.4925 145.831 73.1832 145.87C72.8739 145.909 72.3712 145.928 71.6752 145.928H70.0512C68.6979 145.928 67.8472 145.851 67.4992 145.696C66.6485 145.387 66.1652 145.039 66.0492 144.652C66.0105 144.459 65.9912 144.285 65.9912 144.13C65.9912 143.975 66.3972 141.423 67.2092 136.474C68.0212 131.525 69.0072 125.628 70.1672 118.784C71.3659 111.94 72.1392 107.455 72.4872 105.328C72.8739 103.201 73.0865 102.003 73.1252 101.732C73.2799 100.843 76.1219 100.398 81.6512 100.398ZM79.9112 107.996L77.2432 124.758H82.9852L79.9112 107.996Z" fill="black"/>
<path d="M100.79 143.724V101.384C104.695 100.765 108.136 100.456 111.114 100.456C116.372 100.456 120.026 101.558 122.076 103.762C124.164 105.966 125.208 109.427 125.208 114.144C125.208 119.712 123.816 123.521 121.032 125.57C119.214 126.885 117.436 127.697 115.696 128.006C113.453 128.354 110.901 128.528 108.04 128.528V143.666C108.04 144.401 108.001 144.884 107.924 145.116C107.808 145.657 107.073 145.928 105.72 145.928C102.433 145.928 100.79 145.193 100.79 143.724ZM108.214 120.466C108.368 120.505 108.484 120.543 108.562 120.582C108.678 120.582 109.122 120.582 109.896 120.582C110.708 120.582 111.442 120.563 112.1 120.524C112.757 120.485 113.453 120.369 114.188 120.176C114.961 119.944 115.502 119.596 115.812 119.132C116.508 117.972 116.856 116.367 116.856 114.318C116.856 112.269 116.546 110.606 115.928 109.33C115.309 108.015 114.652 107.358 113.956 107.358C111.172 107.358 109.49 107.416 108.91 107.532C108.33 107.648 108.04 108.035 108.04 108.692V119.712C108.04 120.137 108.098 120.389 108.214 120.466Z" fill="black"/>
<path d="M150.592 143.782V117.45L146.822 124.468H140.964L137.426 117.566V143.724C137.426 144.42 137.407 144.884 137.368 145.116C137.214 145.657 136.46 145.928 135.106 145.928C131.24 145.928 129.306 145.213 129.306 143.782V102.66C129.306 101.191 130.64 100.456 133.308 100.456C135.976 100.456 137.581 101.171 138.122 102.602L143.98 117.566L150.128 102.544C150.438 101.693 150.805 101.133 151.23 100.862C151.694 100.591 152.487 100.456 153.608 100.456C156.392 100.456 157.804 101.21 157.842 102.718L158.77 120.002V143.376C158.77 144.536 158.654 145.251 158.422 145.522C158.229 145.793 157.533 145.928 156.334 145.928C155.174 145.928 154.227 145.889 153.492 145.812C152.758 145.735 152.081 145.522 151.462 145.174C150.882 144.865 150.592 144.401 150.592 143.782Z" fill="black"/>
</g>
</svg>
