<svg width="160" height="144" viewBox="0 0 160 144" fill="none" xmlns="http://www.w3.org/2000/svg">
<g clip-path="url(#clip0_100_2)">
<path d="M8.51172 30.5605C8.51172 28.4512 8.63477 26.3418 8.88086 24.2324C9.12695 22.0879 9.37305 19.9961 9.61914 17.957C9.61914 17.6758 9.68945 17.4648 9.83008 17.3242C9.9707 17.1836 10.1113 17.0254 10.252 16.8496C10.252 16.8145 10.2871 16.7441 10.3574 16.6387C10.4277 16.5332 10.4629 16.4629 10.4629 16.4277C10.9902 15.1621 11.8516 14.1074 13.0469 13.2637C14.2422 12.3848 15.5254 11.9453 16.8965 11.9453C17.6699 11.9453 18.3203 12.0508 18.8477 12.2617C19.375 12.4375 19.832 12.7187 20.2188 13.1055C20.6055 13.457 20.957 13.8965 21.2734 14.4238C21.5898 14.916 21.9414 15.4785 22.3281 16.1113C22.6094 16.7441 22.8379 17.4648 23.0137 18.2734C23.1895 19.082 23.3125 19.9082 23.3828 20.752C23.4883 21.5957 23.5586 22.4395 23.5938 23.2832C23.6289 24.0918 23.6465 24.8477 23.6465 25.5508C23.5762 26.7109 23.4355 27.9414 23.2246 29.2422C23.0488 30.5078 22.75 31.7559 22.3281 32.9863C21.9062 34.1816 21.3262 35.2891 20.5879 36.3086C19.8848 37.3281 18.9707 38.1719 17.8457 38.8398C17.3887 39.1211 16.8789 39.3848 16.3164 39.6309C15.7891 39.877 15.2617 40 14.7344 40C13.5039 40 12.4844 39.7012 11.6758 39.1035C10.9023 38.4707 10.2695 37.6797 9.77734 36.7305C9.32031 35.7812 8.98633 34.7617 8.77539 33.6719C8.59961 32.5469 8.51172 31.5098 8.51172 30.5605ZM12.4668 32.6699C12.502 32.916 12.5547 33.2324 12.625 33.6191C12.7305 34.0059 12.8535 34.3926 12.9941 34.7793C13.1699 35.166 13.3809 35.5 13.627 35.7812C13.873 36.0625 14.1895 36.2031 14.5762 36.2031C14.8574 36.2031 15.1211 36.1328 15.3672 35.9922C15.6484 35.8516 15.877 35.7109 16.0527 35.5703C16.9668 34.8672 17.6875 34.0234 18.2148 33.0391C18.7773 32.0547 19.1992 31.0176 19.4805 29.9277C19.7617 28.8027 19.9375 27.6777 20.0078 26.5527C20.0781 25.3926 20.1133 24.2852 20.1133 23.2305C20.1133 23.0898 20.1133 22.8613 20.1133 22.5449C20.1133 22.2285 20.0957 21.9121 20.0605 21.5957C20.0605 21.2441 20.0605 20.9102 20.0605 20.5938C20.0605 20.2773 20.0605 20.0664 20.0605 19.9609C20.0254 19.5742 19.9375 19.0645 19.7969 18.4316C19.6562 17.7637 19.4629 17.1309 19.2168 16.5332C18.9707 15.9004 18.6367 15.3555 18.2148 14.8984C17.8281 14.4414 17.3535 14.2129 16.791 14.2129C16.4746 14.2129 16.1055 14.3184 15.6836 14.5293C15.2617 14.7051 14.8574 14.9336 14.4707 15.2148C14.1191 15.4961 13.8027 15.8301 13.5215 16.2168C13.2754 16.5684 13.1523 16.9199 13.1523 17.2715C13.1523 17.5527 13.2227 17.7812 13.3633 17.957C13.5391 18.1328 13.627 18.3965 13.627 18.748V19.3281C13.5918 19.4336 13.5215 19.75 13.416 20.2773C13.3457 20.7695 13.2578 21.2969 13.1523 21.8594C13.0469 22.4219 12.9414 22.9668 12.8359 23.4941C12.7656 23.9863 12.7129 24.2852 12.6777 24.3906C12.5371 25.2695 12.4492 26.166 12.4141 27.0801C12.4141 27.9941 12.4141 28.873 12.4141 29.7168C12.4141 29.8223 12.4141 30.0156 12.4141 30.2969C12.4141 30.5781 12.4141 30.877 12.4141 31.1934C12.4492 31.5098 12.4668 31.8086 12.4668 32.0898C12.4668 32.3711 12.4668 32.5645 12.4668 32.6699Z" fill="black"/>
<path d="M45.7061 37.9961C45.6357 37.1875 45.583 36.4316 45.5479 35.7285C45.5479 35.0254 45.5303 34.3398 45.4951 33.6719C45.4951 32.9688 45.4951 32.2832 45.4951 31.6152C45.4951 30.9121 45.4951 30.1562 45.4951 29.3477C45.4951 26.6055 45.6357 23.8984 45.917 21.2266C46.2334 18.5195 46.4619 15.7949 46.6025 13.0527C46.6025 12.7363 46.585 12.332 46.5498 11.8398C46.5498 11.3125 46.6025 10.8203 46.708 10.3633C46.8135 9.87109 47.0068 9.48438 47.2881 9.20312C47.5693 8.88672 48.0088 8.74609 48.6064 8.78125C49.1689 8.85156 49.6084 9.08008 49.9248 9.4668C50.2412 9.85352 50.4873 10.3105 50.6631 10.8379C50.3115 14.3887 49.9775 17.9395 49.6611 21.4902C49.3799 25.0059 49.2393 28.5742 49.2393 32.1953C49.2393 33.0391 49.2744 33.8828 49.3447 34.7266C49.4502 35.5703 49.5029 36.4141 49.5029 37.2578C49.5029 37.5391 49.4854 37.8379 49.4502 38.1543C49.415 38.4707 49.3447 38.7695 49.2393 39.0508C49.1338 39.332 48.958 39.5781 48.7119 39.7891C48.501 39.9648 48.2197 40.0527 47.8682 40.0527C47.2354 40.0527 46.7607 39.8418 46.4443 39.4199C46.1279 38.998 45.8818 38.5234 45.7061 37.9961Z" fill="black"/>
<path d="M71.7471 37.9961C71.7471 37.7148 71.7646 37.5039 71.7998 37.3633C71.8701 37.2227 72.0107 36.9941 72.2217 36.6777C73.1709 35.2012 74.1201 33.7246 75.0693 32.248C76.0537 30.7363 76.9326 29.207 77.7061 27.6602C78.5146 26.0781 79.165 24.4609 79.6572 22.8086C80.1494 21.1562 80.3955 19.4336 80.3955 17.6406C79.3408 17.6406 78.4092 17.957 77.6006 18.5898C76.792 19.2227 76.0186 19.9258 75.2803 20.6992C74.542 21.4727 73.8213 22.1758 73.1182 22.8086C72.415 23.4414 71.6592 23.7578 70.8506 23.7578C70.6045 23.7578 70.3408 23.7402 70.0596 23.7051C69.7783 23.6348 69.5146 23.5469 69.2686 23.4414C69.0225 23.3008 68.8115 23.125 68.6357 22.9141C68.46 22.668 68.3721 22.3867 68.3721 22.0703V21.9648C68.583 21.5078 68.8818 21.0684 69.2686 20.6465C69.6553 20.1895 70.0771 19.7676 70.5342 19.3809C70.9912 18.959 71.4482 18.5723 71.9053 18.2207C72.3623 17.8691 72.7666 17.5527 73.1182 17.2715C73.6104 16.8496 74.1729 16.4102 74.8057 15.9531C75.4385 15.4961 76.0889 15.0742 76.7568 14.6875C77.46 14.2656 78.1807 13.9316 78.9189 13.6855C79.6572 13.4043 80.3955 13.2637 81.1338 13.2637C82.3994 13.2637 83.2783 13.668 83.7705 14.4766C84.2627 15.25 84.5088 16.252 84.5088 17.4824C84.5088 19.8027 84.1045 22.0879 83.2959 24.3379C82.5225 26.5527 81.5732 28.6621 80.4482 30.666V30.877L79.0771 33.3027H79.5518C81.0283 32.459 82.6104 31.7559 84.2979 31.1934C86.0205 30.5957 87.708 30.1035 89.3604 29.7168H89.5713C90.2041 29.7168 90.7314 29.8223 91.1533 30.0332C91.5752 30.2441 91.7861 30.7363 91.7861 31.5098C91.7861 32.0371 91.6455 32.4941 91.3643 32.8809C91.083 32.9512 90.7139 33.0566 90.2568 33.1973C89.835 33.3379 89.4658 33.373 89.1494 33.3027L83.9814 35.1484L75.5439 39.5781C74.9814 39.8594 74.4189 40 73.8564 40C73.3643 40 72.8896 39.8066 72.4326 39.4199C71.9756 38.998 71.7471 38.5234 71.7471 37.9961Z" fill="black"/>
<path d="M110.022 37.9961C110.022 37.6797 110.04 37.4336 110.075 37.2578C110.146 37.0469 110.356 36.8535 110.708 36.6777C110.743 36.6426 110.831 36.625 110.972 36.625C111.112 36.5898 111.253 36.5547 111.394 36.5195C111.569 36.4844 111.71 36.4668 111.815 36.4668C111.956 36.4316 112.044 36.4141 112.079 36.4141C112.29 36.3789 112.519 36.291 112.765 36.1504C113.046 35.9746 113.31 35.7988 113.556 35.623C113.837 35.4121 114.083 35.2188 114.294 35.043C114.505 34.8672 114.663 34.7441 114.769 34.6738C115.788 33.7949 116.474 32.8281 116.825 31.7734C117.212 30.7188 117.405 29.541 117.405 28.2402C117.405 28.0645 117.405 27.8184 117.405 27.502C117.405 27.1855 117.388 26.8691 117.353 26.5527C117.353 26.2012 117.3 25.9023 117.194 25.6562C117.089 25.375 116.931 25.1816 116.72 25.0762C116.649 25.041 116.474 25.0234 116.192 25.0234C115.946 25.0234 115.788 25.0234 115.718 25.0234C114.909 25.0234 114.136 25.1992 113.397 25.5508C112.694 25.8672 111.991 26.2363 111.288 26.6582C110.62 27.0449 109.917 27.4141 109.179 27.7656C108.476 28.082 107.702 28.2402 106.858 28.2402C106.296 28.2402 105.856 28.0645 105.54 27.7129C105.224 27.3262 105.065 26.8691 105.065 26.3418C105.065 25.7793 105.399 25.0234 106.067 24.0742C106.735 23.125 107.491 22.123 108.335 21.0684C109.179 20.0137 110.005 18.9766 110.813 17.957C111.622 16.9023 112.185 16.0059 112.501 15.2676H112.079C111.271 15.2676 110.532 15.4434 109.864 15.7949C109.196 16.1113 108.563 16.4629 107.966 16.8496C107.368 17.2363 106.771 17.6055 106.173 17.957C105.61 18.2734 105.013 18.4316 104.38 18.4316C103.923 18.4316 103.448 18.3262 102.956 18.1152C102.464 17.8691 102.218 17.4473 102.218 16.8496C102.218 16.3574 102.481 15.8652 103.009 15.373C103.536 14.8457 104.222 14.3711 105.065 13.9492C105.909 13.4922 106.841 13.0703 107.86 12.6836C108.915 12.2969 109.935 11.9629 110.919 11.6816C111.938 11.4004 112.87 11.1895 113.714 11.0488C114.558 10.873 115.208 10.7852 115.665 10.7852C116.966 10.7852 117.616 11.4707 117.616 12.8418V13.5273C117.019 15.1094 116.298 16.5332 115.454 17.7988C114.61 19.0293 113.767 20.3477 112.923 21.7539H113.45C113.942 21.7539 114.382 21.7188 114.769 21.6484C115.19 21.5781 115.647 21.543 116.14 21.543C117.546 21.543 118.653 22 119.462 22.9141C120.271 23.793 120.851 24.8828 121.202 26.1836C121.202 26.3594 121.202 26.7285 121.202 27.291C121.237 27.8184 121.255 28.1523 121.255 28.293C121.255 30.6484 120.763 32.6699 119.778 34.3574C118.794 36.0098 117.335 37.5039 115.401 38.8398C114.417 39.6133 113.345 40 112.185 40C111.622 40 111.112 39.8066 110.655 39.4199C110.233 38.998 110.022 38.5234 110.022 37.9961Z" fill="black"/>
<path d="M144.527 27.0801H144.316C143.578 27.0801 142.84 27.1504 142.102 27.291C141.398 27.4316 140.678 27.5898 139.939 27.7656C139.236 27.9414 138.516 28.0996 137.777 28.2402C137.074 28.3809 136.354 28.4512 135.615 28.4512H135.404C135.018 28.1699 134.631 27.8184 134.244 27.3965C133.893 26.9746 133.752 26.5 133.822 25.9727C133.857 25.7617 134.033 25.5332 134.35 25.2871C134.666 25.0059 134.877 24.7773 134.982 24.6016C135.018 24.5312 135.123 24.3555 135.299 24.0742C135.475 23.7578 135.65 23.4238 135.826 23.0723C136.037 22.7207 136.23 22.4043 136.406 22.123C136.582 21.8066 136.705 21.6133 136.775 21.543C136.775 21.4023 136.846 21.332 136.986 21.332L141.891 12.8418C141.891 12.8066 141.908 12.7715 141.943 12.7363C142.014 12.7012 142.066 12.666 142.102 12.6309C142.207 12.4902 142.383 12.2617 142.629 11.9453C142.875 11.6289 143.139 11.2949 143.42 10.9434C143.701 10.5918 143.965 10.2578 144.211 9.94141C144.457 9.625 144.633 9.39648 144.738 9.25586C144.914 9.00977 145.107 8.86914 145.318 8.83398C145.529 8.79883 145.775 8.78125 146.057 8.78125C146.303 8.78125 146.566 8.81641 146.848 8.88672C147.129 8.95703 147.393 9.0625 147.639 9.20312C147.885 9.34375 148.096 9.53711 148.271 9.7832C148.447 10.0293 148.535 10.3105 148.535 10.627V21.8066C149.168 21.8066 149.73 21.6484 150.223 21.332C150.75 20.9805 151.348 20.8047 152.016 20.8047C153.246 20.8047 153.861 21.4551 153.861 22.7559C153.861 23.0371 153.809 23.3184 153.703 23.5996C153.633 23.8809 153.457 24.0742 153.176 24.1797L148.535 25.9727V26.1309C148.535 28.0996 148.711 30.0508 149.062 31.9844C149.449 33.918 149.643 35.834 149.643 37.7324C149.643 38.2949 149.502 38.8223 149.221 39.3145C148.939 39.7715 148.5 40 147.902 40C147.691 40 147.48 40 147.27 40C147.094 39.9648 146.918 39.8945 146.742 39.7891C146.566 39.6484 146.338 39.4375 146.057 39.1562C145.775 38.875 145.635 38.6992 145.635 38.6289V38.207L144.527 27.0801ZM140.045 24.1797C140.186 24.1797 140.414 24.1445 140.73 24.0742C141.082 24.0039 141.451 23.9336 141.838 23.8633C142.225 23.793 142.576 23.7402 142.893 23.7051C143.244 23.6348 143.508 23.582 143.684 23.5469C143.719 23.5117 143.807 23.4766 143.947 23.4414C144.123 23.3711 144.246 23.3184 144.316 23.2832C144.352 23.2832 144.387 23.248 144.422 23.1777C144.492 23.1074 144.527 23.0547 144.527 23.0195V16.4277L144.316 16.1113L140.045 23.7578V24.1797Z" fill="black"/>
<path d="M10.8057 86.1543C10.8057 85.8027 10.876 85.4863 11.0166 85.2051C11.1924 84.9238 11.3857 84.6777 11.5967 84.4668C11.8428 84.2207 12.0889 83.9922 12.335 83.7812C12.6162 83.5703 12.8623 83.3594 13.0732 83.1484C13.2139 82.9727 13.4424 82.6914 13.7588 82.3047C14.0752 81.918 14.3916 81.5312 14.708 81.1445C15.0596 80.7227 15.376 80.3359 15.6572 79.9844C15.9385 79.6328 16.1143 79.4043 16.1846 79.2988C16.4658 78.9121 16.7998 78.4375 17.1865 77.875C17.5732 77.3125 17.8369 76.7676 17.9775 76.2402C17.9424 76.2402 17.8721 76.2402 17.7666 76.2402C17.6611 76.2051 17.5908 76.1875 17.5557 76.1875C16.9229 76.1875 16.2373 76.3984 15.499 76.8203C14.7959 77.2422 14.1982 77.6289 13.7061 77.9805H13.4951C13.0381 78.2969 12.6162 78.6133 12.2295 78.9297C11.8779 79.2109 11.5088 79.4922 11.1221 79.7734C10.7354 80.0547 10.4189 80.2832 10.1729 80.459C9.78613 80.7402 9.46973 80.916 9.22363 80.9863C8.97754 81.0566 8.53809 81.0918 7.90527 81.0918C7.4834 81.0918 7.14941 80.9863 6.90332 80.7754C6.65723 80.5645 6.46387 80.3008 6.32324 79.9844C6.18262 79.668 6.07715 79.334 6.00684 78.9824C5.97168 78.5957 5.9541 78.2441 5.9541 77.9277C5.9541 77.2598 6.00684 76.5918 6.1123 75.9238C6.21777 75.2559 6.23535 74.6055 6.16504 73.9727L7.4834 65.7461C7.72949 65.2891 7.87012 64.8496 7.90527 64.4277C7.97559 64.0059 8.0459 63.6367 8.11621 63.3203C8.22168 62.9688 8.39746 62.7051 8.64355 62.5293C8.9248 62.3184 9.39941 62.2129 10.0674 62.2129C10.5947 62.2129 10.9814 62.3184 11.2275 62.5293C11.5088 62.7402 11.8252 63.0566 12.1768 63.4785H12.4932C13.1611 63.4785 13.8115 63.3906 14.4443 63.2148C15.1123 63.0391 15.7627 62.9863 16.3955 63.0566L23.5146 61.7383C23.5498 61.7031 23.6553 61.6855 23.8311 61.6855C24.042 61.6855 24.1826 61.6855 24.2529 61.6855C24.8506 61.6855 25.3252 61.8438 25.6768 62.1602C26.0635 62.4766 26.2568 62.9688 26.2568 63.6367C26.2568 64.5508 25.7998 65.0957 24.8857 65.2715L18.4521 66.5898H17.9775C16.8525 66.7656 15.7803 66.9238 14.7607 67.0645C13.7764 67.2051 12.7744 67.4336 11.7549 67.75C11.6846 67.7852 11.5967 67.8203 11.4912 67.8555C11.3857 67.8906 11.333 67.9258 11.333 67.9609L10.1729 74.6582V75.502C11.4385 74.6934 12.7217 74.0254 14.0225 73.498C15.3232 72.9355 16.7471 72.5664 18.2939 72.3906C18.7158 72.3906 19.1553 72.4434 19.6123 72.5488C20.1045 72.6191 20.5615 72.7598 20.9834 72.9707C21.4053 73.1816 21.7568 73.4629 22.0381 73.8145C22.3193 74.1309 22.46 74.5527 22.46 75.0801C22.46 75.7832 22.3369 76.4688 22.0908 77.1367C21.8799 77.8047 21.5811 78.4727 21.1943 79.1406C20.8428 79.7734 20.4385 80.3887 19.9814 80.9863C19.5244 81.584 19.085 82.1465 18.6631 82.6738C18.4873 82.8496 18.2061 83.166 17.8193 83.623C17.4326 84.0449 17.0107 84.502 16.5537 84.9941C16.0967 85.4863 15.6572 85.9609 15.2354 86.418C14.8486 86.875 14.5674 87.1914 14.3916 87.3672C14.2158 87.4727 13.9346 87.6133 13.5479 87.7891C13.1963 87.9297 12.8975 88 12.6514 88C12.1592 88 11.7197 87.8066 11.333 87.4199C10.9814 87.0332 10.8057 86.6113 10.8057 86.1543Z" fill="black"/>
<path d="M43.043 91.0586C43.043 90.3203 43.1484 89.5996 43.3594 88.8965C43.6055 88.2285 43.7285 87.543 43.7285 86.8398C43.7285 86.5938 43.6582 86.3828 43.5176 86.207C43.377 85.9961 43.2012 85.8027 42.9902 85.627C42.7793 85.416 42.5684 85.2227 42.3574 85.0469C42.1816 84.8359 42.041 84.625 41.9355 84.4141C41.4434 83.6055 41.0918 82.7617 40.8809 81.8828C40.7051 80.9688 40.6172 80.0547 40.6172 79.1406V78.8242C41.2852 75.4141 41.8477 72.6367 42.3047 70.4922C42.7969 68.3477 43.1836 66.6602 43.4648 65.4297C43.7812 64.1641 44.0273 63.25 44.2031 62.6875C44.3789 62.125 44.502 61.7207 44.5723 61.4746C44.7129 61.123 44.8711 60.7539 45.0469 60.3672C45.2227 59.9453 45.416 59.5762 45.627 59.2598C45.8379 58.9434 46.1016 58.6797 46.418 58.4688C46.7344 58.2578 47.1387 58.1523 47.6309 58.1523C48.0879 58.1523 48.4746 58.3457 48.791 58.7324C49.1074 59.1191 49.2656 59.5586 49.2656 60.0508C49.4414 59.6992 49.459 59.7344 49.3184 60.1562C49.1777 60.5781 48.9492 61.2812 48.6328 62.2656C48.3516 63.25 48 64.4453 47.5781 65.8516C47.1562 67.2227 46.752 68.6816 46.3652 70.2285C45.9785 71.7402 45.627 73.2871 45.3105 74.8691C44.9941 76.416 44.8008 77.8574 44.7305 79.1934C44.7305 79.3691 44.7305 79.7207 44.7305 80.248C44.7656 80.7754 44.7832 81.127 44.7832 81.3027C44.8535 81.5137 44.9238 81.7598 44.9941 82.041C45.0996 82.3223 45.2578 82.5332 45.4688 82.6738C45.5391 82.5332 45.6621 82.3047 45.8379 81.9883C46.0488 81.6367 46.2598 81.2676 46.4707 80.8809C46.6816 80.4941 46.875 80.1426 47.0508 79.8262C47.2617 79.4746 47.4199 79.2109 47.5254 79.0352C47.7715 78.6133 48.1406 78.1035 48.6328 77.5059C49.125 76.9082 49.6523 76.3457 50.2148 75.8184C50.8125 75.2559 51.4277 74.7812 52.0605 74.3945C52.6934 73.9727 53.2734 73.7617 53.8008 73.7617C54.2227 73.7617 54.5742 73.8672 54.8555 74.0781C55.1367 74.2539 55.3477 74.5 55.4883 74.8164C55.6641 75.1328 55.7871 75.4844 55.8574 75.8711C55.9277 76.2578 55.9629 76.627 55.9629 76.9785C55.9629 78.1387 55.752 79.2812 55.3301 80.4062C54.9434 81.5312 54.3809 82.5684 53.6426 83.5176C52.9395 84.4668 52.0957 85.293 51.1113 85.9961C50.1621 86.6992 49.1074 87.209 47.9473 87.5254C47.8418 87.9121 47.6484 88.3691 47.3672 88.8965C47.1211 89.459 46.998 89.9336 46.998 90.3203C46.998 90.6367 47.0332 90.9355 47.1035 91.2168C47.209 91.5332 47.2617 91.8496 47.2617 92.166C47.2617 92.7637 47.0684 93.2559 46.6816 93.6426C46.2949 94.0293 45.8027 94.2227 45.2051 94.2227C44.748 94.2227 44.3789 94.1172 44.0977 93.9062C43.8164 93.6953 43.5879 93.4316 43.4121 93.1152C43.2715 92.7988 43.166 92.4473 43.0957 92.0605C43.0605 91.709 43.043 91.375 43.043 91.0586ZM50.5312 81.0391C50.0039 81.707 49.7051 82.1992 49.6348 82.5156C49.5996 82.832 49.6699 83.0254 49.8457 83.0957C50.0215 83.1309 50.2676 83.0781 50.584 82.9375C50.9004 82.7969 51.1816 82.6211 51.4277 82.4102C52.0254 81.8828 52.377 81.3379 52.4824 80.7754C52.623 80.2129 52.6055 79.791 52.4297 79.5098C52.2891 79.2285 52.043 79.1758 51.6914 79.3516C51.3398 79.5273 50.9531 80.0898 50.5312 81.0391Z" fill="black"/>
<path d="M80.9492 85.5742C80.9492 84.2734 80.9844 82.9727 81.0547 81.6719C81.1602 80.3711 81.1953 79.0527 81.1602 77.7168L83.375 62.2129V61.5801C83.375 61.5098 83.375 61.3867 83.375 61.2109C83.4102 61 83.3398 60.877 83.1641 60.8418C81.7578 61.2988 80.1934 61.791 78.4707 62.3184C76.748 62.8105 75.1133 63.0566 73.5664 63.0566H72.459C72.0723 62.8457 71.7207 62.582 71.4043 62.2656C71.123 61.9492 70.9473 61.5449 70.877 61.0527C70.8066 60.5254 70.9648 60.1211 71.3516 59.8398C71.7383 59.5586 72.1953 59.3652 72.7227 59.2598C73.25 59.1191 73.7773 59.0312 74.3047 58.9961C74.832 58.9609 75.2363 58.9082 75.5176 58.8379C76.4668 58.6621 77.3457 58.4863 78.1543 58.3105C78.998 58.0996 79.8066 57.8887 80.5801 57.6777C81.3887 57.4316 82.1973 57.168 83.0059 56.8867C83.8145 56.6055 84.6758 56.2891 85.5898 55.9375H85.9062C86.5039 55.9375 87.0488 56.1309 87.541 56.5176C88.0332 56.9043 88.2793 57.4141 88.2793 58.0469V58.627L85.5898 73.2871C85.5547 73.4277 85.5195 73.7441 85.4844 74.2363C85.4492 74.7285 85.3965 75.2734 85.3262 75.8711C85.291 76.4688 85.2559 77.0488 85.2207 77.6113C85.1855 78.1738 85.168 78.5957 85.168 78.877C85.168 79.1582 85.1504 79.668 85.1152 80.4062C85.1152 81.1445 85.1152 81.9355 85.1152 82.7793C85.1152 83.5879 85.1152 84.3613 85.1152 85.0996C85.1504 85.8379 85.168 86.3477 85.168 86.6289C84.8867 87.2266 84.6055 87.6133 84.3242 87.7891C84.0781 87.9297 83.6387 88 83.0059 88C82.3027 88 81.7754 87.7539 81.4238 87.2617C81.1074 86.7344 80.9492 86.1719 80.9492 85.5742Z" fill="black"/>
<path d="M108.361 82.4629C108.361 80.9863 108.537 79.6504 108.889 78.4551C109.275 77.2598 109.715 75.9941 110.207 74.6582V73.9727C109.68 73.5508 109.135 73.1113 108.572 72.6543C108.045 72.1621 107.518 71.6348 106.99 71.0723C106.463 70.5098 105.971 69.9473 105.514 69.3848C105.092 68.7871 104.74 68.1719 104.459 67.5391C104.389 67.4688 104.336 67.2754 104.301 66.959C104.266 66.6426 104.23 66.4492 104.195 66.3789V66.2734C104.195 65.2891 104.477 64.3223 105.039 63.373C105.602 62.3887 106.322 61.5098 107.201 60.7363C108.08 59.9629 109.012 59.3477 109.996 58.8906C111.016 58.3984 111.982 58.1523 112.896 58.1523C113.811 58.293 114.637 58.5918 115.375 59.0488C116.113 59.4707 116.693 60.0156 117.115 60.6836C117.537 61.3164 117.783 62.0371 117.854 62.8457C117.924 63.6191 117.748 64.4277 117.326 65.2715C117.256 65.5176 117.098 65.957 116.852 66.5898C116.641 67.2227 116.395 67.9082 116.113 68.6465C115.867 69.3496 115.621 70.0176 115.375 70.6504C115.129 71.2832 114.953 71.7227 114.848 71.9688C114.742 72.2852 114.672 72.4258 114.637 72.3906C114.637 72.3555 114.637 72.4785 114.637 72.7598V73.0762C115.164 73.7441 115.709 74.4121 116.271 75.0801C116.834 75.7129 117.344 76.3809 117.801 77.084C118.258 77.752 118.627 78.4727 118.908 79.2461C119.225 79.9844 119.383 80.793 119.383 81.6719C119.383 82.4805 119.189 83.2715 118.803 84.0449C118.451 84.7832 117.977 85.4512 117.379 86.0488C116.781 86.6113 116.096 87.0859 115.322 87.4727C114.549 87.8242 113.775 88 113.002 88C112.193 88 111.49 87.8418 110.893 87.5254C110.33 87.209 109.855 86.8047 109.469 86.3125C109.082 85.7852 108.801 85.1875 108.625 84.5195C108.449 83.8516 108.361 83.166 108.361 82.4629ZM111.578 82.252C111.578 82.8496 111.613 83.4121 111.684 83.9395C111.789 84.4316 112.193 84.6777 112.896 84.6777C113.248 84.6777 113.617 84.5723 114.004 84.3613C114.391 84.1152 114.725 83.8164 115.006 83.4648C115.322 83.1133 115.551 82.7266 115.691 82.3047C115.867 81.8828 115.902 81.4785 115.797 81.0918C115.727 80.8457 115.568 80.5117 115.322 80.0898C115.111 79.668 114.865 79.2461 114.584 78.8242C114.338 78.3672 114.074 77.9629 113.793 77.6113C113.512 77.2246 113.283 76.9785 113.107 76.873C112.861 77.0488 112.633 77.3828 112.422 77.875C112.246 78.332 112.088 78.8418 111.947 79.4043C111.842 79.9668 111.754 80.5117 111.684 81.0391C111.613 81.5664 111.578 81.9707 111.578 82.252ZM107.939 65.8516C107.939 66.1328 108.115 66.5195 108.467 67.0117C108.818 67.5039 109.223 68.0137 109.68 68.541C110.137 69.0332 110.576 69.4727 110.998 69.8594C111.42 70.2109 111.719 70.3867 111.895 70.3867H112C112.598 69.3672 113.143 68.1367 113.635 66.6953C114.162 65.2188 114.426 63.8652 114.426 62.6348V62.2129C114.355 62.1777 114.18 62.125 113.898 62.0547C113.617 61.9844 113.424 61.9492 113.318 61.9492C112.686 61.9492 112.158 61.9844 111.736 62.0547C111.314 62.125 110.945 62.248 110.629 62.4238C110.312 62.5996 109.996 62.8457 109.68 63.1621C109.398 63.4785 109.047 63.9004 108.625 64.4277C108.484 64.6035 108.326 64.8145 108.15 65.0605C108.01 65.3066 107.939 65.5703 107.939 65.8516Z" fill="black"/>
<path d="M144.844 85.7324C144.844 85.6973 144.861 85.5566 144.896 85.3105C144.932 85.0293 144.967 84.748 145.002 84.4668C145.072 84.1504 145.125 83.8691 145.16 83.623C145.23 83.377 145.266 83.2188 145.266 83.1484C145.266 83.1133 145.266 82.9551 145.266 82.6738C145.301 82.3926 145.336 82.0762 145.371 81.7246C145.406 81.3379 145.424 80.9688 145.424 80.6172C145.459 80.2305 145.477 79.9316 145.477 79.7207C145.652 76.9434 145.846 74.166 146.057 71.3887C146.303 68.5762 146.426 65.7637 146.426 62.9512V61.9492C145.898 62.3711 145.424 62.8809 145.002 63.4785C144.58 64.041 144.141 64.6035 143.684 65.166C143.227 65.7285 142.717 66.2207 142.154 66.6426C141.592 67.0293 140.924 67.2578 140.15 67.3281C139.412 67.3984 138.779 67.3105 138.252 67.0645C137.76 66.7832 137.338 66.4141 136.986 65.957C136.67 65.5 136.441 64.9727 136.301 64.375C136.16 63.7773 136.09 63.1621 136.09 62.5293C136.055 61.6152 136.195 60.6309 136.512 59.5762C136.828 58.5215 137.268 57.4844 137.83 56.4648C138.428 55.4453 139.113 54.5137 139.887 53.6699C140.66 52.8262 141.486 52.1758 142.365 51.7188C143.279 51.2266 144.229 50.9805 145.213 50.9805C146.197 50.9453 147.182 51.2617 148.166 51.9297C148.482 52.2109 148.693 52.5801 148.799 53.0371C148.904 53.4941 148.992 53.8633 149.062 54.1445C149.449 54.2852 149.871 54.5312 150.328 54.8828C150.82 55.2344 151.066 55.6562 151.066 56.1484C151.066 58.75 150.926 61.3516 150.645 63.9531C150.363 66.5195 150.135 69.1211 149.959 71.7578C149.783 74.2539 149.643 76.7324 149.537 79.1934C149.467 81.6543 149.309 84.1328 149.062 86.6289C148.816 87.1211 148.553 87.4727 148.271 87.6836C147.99 87.8945 147.551 88 146.953 88C146.355 88 145.828 87.7715 145.371 87.3145C144.949 86.8223 144.773 86.2949 144.844 85.7324ZM145.16 53.9336C144.422 53.9336 143.719 54.3203 143.051 55.0938C142.418 55.832 141.855 56.7109 141.363 57.7305C140.906 58.7148 140.537 59.7168 140.256 60.7363C139.975 61.7559 139.834 62.5293 139.834 63.0566H140.15L141.521 61.7383L145.793 55.7266V55.4629C145.793 55.2871 145.723 54.9883 145.582 54.5664C145.477 54.1445 145.336 53.9336 145.16 53.9336Z" fill="black"/>
<path d="M13.6006 127.879C13.6006 127.387 13.7412 126.912 14.0225 126.455C14.3389 125.963 14.7432 125.717 15.2354 125.717C15.5518 125.717 15.8857 125.787 16.2373 125.928C16.624 126.068 16.9756 126.262 17.292 126.508C17.6084 126.754 17.8545 127.053 18.0303 127.404C18.2061 127.721 18.2764 128.072 18.2412 128.459C18.1709 128.951 17.9072 129.338 17.4502 129.619C16.9932 129.9 16.5713 130.041 16.1846 130.041C15.5518 130.041 14.9541 129.865 14.3916 129.514C13.8643 129.127 13.6006 128.582 13.6006 127.879ZM13.8115 117.121C13.7412 116.418 14.0225 115.908 14.6553 115.592C15.2881 115.275 15.8857 115.117 16.4482 115.117C16.5889 115.117 16.7471 115.205 16.9229 115.381C17.1338 115.521 17.3271 115.715 17.5029 115.961C17.7139 116.172 17.8896 116.4 18.0303 116.646C18.1709 116.857 18.2412 117.016 18.2412 117.121C18.3818 117.613 18.2236 118.035 17.7666 118.387C17.3096 118.703 16.8701 118.861 16.4482 118.861C15.9561 118.861 15.4111 118.721 14.8135 118.439C14.2158 118.158 13.8818 117.719 13.8115 117.121Z" fill="black"/>
<path d="M45.7588 133.996C45.7588 133.504 45.9346 133.047 46.2861 132.625C46.6729 132.203 47.1123 131.992 47.6045 131.992C48.2021 131.992 48.6768 132.15 49.0283 132.467C49.415 132.783 49.7842 133.135 50.1357 133.521V133.68C50.1357 134.277 49.9248 134.822 49.5029 135.314C49.1162 135.771 48.5889 136 47.9209 136C47.4639 136 46.9893 135.789 46.4971 135.367C46.0049 134.945 45.7588 134.488 45.7588 133.996Z" fill="black"/>
<path d="M67.8975 132.678C67.8975 130.568 68.0381 128.477 68.3193 126.402C68.6006 124.328 68.8467 122.254 69.0576 120.18C69.0576 120.074 69.0752 119.846 69.1104 119.494C69.1455 119.107 69.1807 118.703 69.2158 118.281C69.2861 117.859 69.3389 117.473 69.374 117.121C69.4443 116.734 69.4795 116.488 69.4795 116.383V116.172L71.6943 99.7188C71.624 99.0156 71.7295 98.4004 72.0107 97.873C72.3271 97.3105 72.8896 97.0293 73.6982 97.0293C74.5771 96.9238 75.2979 97.0469 75.8604 97.3984C76.458 97.7148 76.9502 98.1367 77.3369 98.6641C77.7236 99.1914 78.04 99.7715 78.2861 100.404C78.5322 101.037 78.7959 101.617 79.0771 102.145C79.2529 102.637 79.4639 103.217 79.71 103.885C79.9912 104.553 80.3076 105.396 80.6592 106.416C81.0459 107.436 81.4854 108.684 81.9775 110.16C82.5049 111.637 83.1025 113.43 83.7705 115.539L83.9814 115.75C84.2275 115.609 84.6846 115.381 85.3525 115.064C86.0557 114.748 86.7764 114.414 87.5146 114.062C88.2881 113.711 89.0088 113.377 89.6768 113.061C90.3447 112.744 90.8193 112.533 91.1006 112.428C91.1357 112.357 91.2236 112.305 91.3643 112.27C91.54 112.199 91.6631 112.146 91.7334 112.111H91.8389C92.1904 112.111 92.4541 112.252 92.6299 112.533C92.8057 112.779 92.8936 113.025 92.8936 113.271C92.8936 113.658 92.8057 113.992 92.6299 114.273C92.4541 114.555 92.2432 114.818 91.9971 115.064C91.7861 115.275 91.54 115.486 91.2588 115.697C91.0127 115.908 90.8193 116.137 90.6787 116.383L85.458 119.02C85.3174 119.195 85.2471 119.336 85.2471 119.441C85.2471 119.723 85.3877 120.162 85.6689 120.76C85.9854 121.357 86.2314 121.832 86.4072 122.184C86.5127 122.395 86.6885 122.781 86.9346 123.344C87.1807 123.906 87.4443 124.486 87.7256 125.084C88.0068 125.682 88.2705 126.262 88.5166 126.824C88.7979 127.352 88.9912 127.721 89.0967 127.932V128.09C89.0967 129.355 88.4639 129.988 87.1982 129.988C86.8115 129.988 86.4072 129.953 85.9854 129.883C85.5635 129.777 85.2471 129.514 85.0361 129.092L81.5029 121.551H81.0283C79.6924 122.57 78.2686 123.572 76.7568 124.557C75.2451 125.541 73.6982 126.385 72.1162 127.088C71.8701 128.354 71.7119 129.637 71.6416 130.938C71.6064 132.238 71.624 133.539 71.6943 134.84C71.4131 135.227 71.1318 135.525 70.8506 135.736C70.5693 135.912 70.1826 136 69.6904 136C69.1982 136 68.8291 135.895 68.583 135.684C68.3369 135.438 68.1611 135.156 68.0557 134.84C67.9502 134.488 67.8975 134.119 67.8975 133.732C67.8975 133.346 67.8975 132.994 67.8975 132.678ZM72.5908 122.447C73.6455 122.025 74.665 121.463 75.6494 120.76C76.6689 120.057 77.6357 119.406 78.5498 118.809C78.6553 118.738 78.7783 118.668 78.9189 118.598C79.0947 118.527 79.2529 118.439 79.3936 118.334C79.5342 118.229 79.71 118.105 79.9209 117.965V117.543L75.0693 103.727L74.8584 103.516C74.7529 103.727 74.6123 104.324 74.4365 105.309C74.2959 106.293 74.1201 107.576 73.9092 109.158C73.7334 110.705 73.5225 112.498 73.2764 114.537C73.0654 116.576 72.8369 118.756 72.5908 121.076V122.447Z" fill="black"/>
<path d="M105.566 125.506C105.602 124.803 105.584 124.1 105.514 123.396C105.479 122.693 105.426 121.99 105.355 121.287C105.32 121.111 105.268 120.83 105.197 120.443C105.162 120.057 105.145 119.828 105.145 119.758C105.145 119.723 105.109 119.652 105.039 119.547C104.969 119.406 104.934 119.318 104.934 119.283L105.039 119.178C105.145 119.072 105.18 119.02 105.145 119.02V108.842H104.934C104.512 109.334 104.02 109.861 103.457 110.424C102.895 110.986 102.227 111.268 101.453 111.268C100.891 111.268 100.346 111.074 99.8184 110.688C99.3262 110.301 99.0801 109.791 99.0801 109.158V109.053C99.0801 109.018 99.0977 108.965 99.1328 108.895C99.168 108.824 99.2031 108.754 99.2383 108.684C99.2734 108.578 99.3086 108.49 99.3438 108.42L105.25 103.252V100.352C105.25 100 105.461 99.7363 105.883 99.5605C106.305 99.3496 106.656 99.2441 106.938 99.2441C107.395 99.2441 107.816 99.3672 108.203 99.6133C108.59 99.8242 108.977 99.9297 109.363 99.9297C109.715 99.9297 110.031 99.8242 110.312 99.6133C110.594 99.4023 110.875 99.209 111.156 99.0332C112.492 98.2246 113.775 97.6094 115.006 97.1875C116.271 96.7656 117.678 96.5547 119.225 96.5547C119.893 96.5547 120.684 96.625 121.598 96.7656C122.547 96.8711 123.443 97.082 124.287 97.3984C125.166 97.7148 125.904 98.1543 126.502 98.7168C127.1 99.2793 127.398 100 127.398 100.879C127.398 102.461 127.082 103.973 126.449 105.414C125.816 106.855 124.938 108.139 123.812 109.264C122.336 110.67 120.947 111.936 119.646 113.061C118.381 114.15 116.957 115.258 115.375 116.383C115.34 116.418 115.305 116.471 115.27 116.541C115.234 116.576 115.199 116.611 115.164 116.646L110.049 120.18C109.873 120.32 109.785 120.584 109.785 120.971C109.785 121.322 109.785 121.551 109.785 121.656C109.785 122.676 109.838 123.695 109.943 124.715C110.084 125.699 110.225 126.701 110.365 127.721C110.506 128.74 110.629 129.76 110.734 130.779C110.875 131.799 110.945 132.818 110.945 133.838C110.945 134.4 110.805 134.91 110.523 135.367C110.277 135.789 109.82 136 109.152 136C108.66 136 108.133 135.807 107.57 135.42C107.043 134.998 106.744 134.523 106.674 133.996L105.566 125.506ZM109.785 115.328L119.383 107.998C119.805 107.682 120.227 107.277 120.648 106.785C121.105 106.258 121.51 105.713 121.861 105.15C122.248 104.553 122.564 103.938 122.811 103.305C123.057 102.672 123.18 102.074 123.18 101.512C123.18 101.16 123.021 100.896 122.705 100.721C122.424 100.51 122.09 100.369 121.703 100.299C121.316 100.193 120.912 100.141 120.49 100.141C120.104 100.141 119.787 100.141 119.541 100.141C117.959 100.141 116.5 100.51 115.164 101.248C113.863 101.951 112.615 102.707 111.42 103.516C111.35 103.586 111.209 103.691 110.998 103.832C110.787 103.938 110.576 104.078 110.365 104.254C110.154 104.395 109.961 104.535 109.785 104.676C109.645 104.816 109.574 104.939 109.574 105.045V115.064L109.785 115.328Z" fill="black"/>
<path d="M130.368 134.418C130.298 130.516 130.192 126.631 130.052 122.764C129.946 118.861 129.894 114.959 129.894 111.057C129.894 110.775 129.894 110.283 129.894 109.58C129.894 108.842 129.894 108.068 129.894 107.26C129.929 106.451 129.946 105.695 129.946 104.992C129.946 104.289 129.946 103.797 129.946 103.516C130.087 102.953 130.298 102.514 130.579 102.197C130.86 101.846 131.3 101.67 131.897 101.67C132.495 101.67 133.022 101.863 133.479 102.25C133.937 102.602 134.306 103.023 134.587 103.516L142.181 118.176C142.216 118.246 142.339 118.457 142.55 118.809C142.761 119.16 142.919 119.406 143.024 119.547C143.06 119.582 143.112 119.617 143.183 119.652C143.253 119.688 143.288 119.723 143.288 119.758L143.499 119.283L147.981 103.516C148.298 103.023 148.526 102.479 148.667 101.881C148.843 101.248 149.019 100.633 149.194 100.035C149.405 99.4375 149.651 98.875 149.933 98.3477C150.249 97.8203 150.706 97.3809 151.304 97.0293H151.726C152.675 97.0293 153.378 97.3105 153.835 97.873C154.292 98.4004 154.608 99.0684 154.784 99.877C154.96 100.65 155.03 101.477 154.995 102.355C154.995 103.199 155.013 103.938 155.048 104.57C155.048 104.816 155.065 105.291 155.101 105.994C155.171 106.697 155.241 107.523 155.312 108.473C155.382 109.422 155.452 110.441 155.522 111.531C155.593 112.586 155.646 113.588 155.681 114.537C155.751 115.486 155.804 116.312 155.839 117.016C155.909 117.719 155.944 118.176 155.944 118.387V118.598C155.979 118.914 156.05 119.441 156.155 120.18C156.261 120.918 156.366 121.709 156.472 122.553C156.612 123.361 156.735 124.135 156.841 124.873C156.946 125.611 157.034 126.121 157.104 126.402C157.14 126.578 157.192 126.842 157.263 127.193C157.368 127.545 157.474 127.932 157.579 128.354C157.72 128.74 157.843 129.109 157.948 129.461C158.054 129.812 158.142 130.059 158.212 130.199C158.071 131.008 157.86 131.641 157.579 132.098C157.333 132.52 156.771 132.73 155.892 132.73C155.786 132.73 155.628 132.73 155.417 132.73C155.206 132.695 155.083 132.678 155.048 132.678C154.942 132.607 154.731 132.432 154.415 132.15C154.134 131.869 153.976 131.676 153.94 131.57L153.097 128.67L151.515 116.646V116.172C151.479 115.539 151.462 114.871 151.462 114.168C151.462 113.43 151.444 112.691 151.409 111.953C151.409 111.215 151.374 110.477 151.304 109.738C151.233 109 151.093 108.314 150.882 107.682L150.618 107.998L146.821 123.291C146.786 123.678 146.751 124.1 146.716 124.557C146.681 124.979 146.593 125.4 146.452 125.822C146.312 126.209 146.101 126.543 145.819 126.824C145.538 127.105 145.134 127.264 144.606 127.299C144.396 127.334 144.167 127.299 143.921 127.193C143.675 127.088 143.429 126.947 143.183 126.771C142.937 126.596 142.708 126.402 142.497 126.191C142.321 125.945 142.216 125.717 142.181 125.506L135.483 114.854L134.376 112.639V117.174C134.376 119.318 134.411 121.428 134.481 123.502C134.587 125.541 134.64 127.633 134.64 129.777C134.64 129.953 134.64 130.27 134.64 130.727C134.64 131.148 134.622 131.605 134.587 132.098C134.587 132.59 134.587 133.064 134.587 133.521C134.587 133.943 134.587 134.242 134.587 134.418C134.446 134.84 134.235 135.209 133.954 135.525C133.708 135.842 133.339 136 132.847 136C132.179 136 131.651 135.895 131.265 135.684C130.913 135.438 130.614 135.016 130.368 134.418Z" fill="black"/>
</g>
</svg>
