<svg width="210" height="144" viewBox="0 0 210 144" fill="none" xmlns="http://www.w3.org/2000/svg">
<desc>{"colon":0.5,"dot":0.5}</desc>
<g clip-path="url(#clip0_100_2)">
<path d="M36.9488 37.568C36.9488 41.856 34.3248 44 29.0768 44H13.0448C7.92475 44 5.36475 41.856 5.36475 37.568V8.864C5.36475 4.832 7.92475 2.816 13.0448 2.816H29.0768C34.3248 2.816 36.9488 4.832 36.9488 8.864V37.568ZM17.0768 40.448H24.1808C24.8848 40.448 25.5888 40.352 26.2928 40.16C26.9968 39.968 27.6368 39.648 28.2128 39.2C28.8528 38.752 29.3328 38.144 29.6528 37.376C30.0368 36.544 30.2288 35.488 30.2288 34.208V16.736C30.2288 16.096 30.0048 15.776 29.5568 15.776C28.9808 15.776 27.9568 16.512 26.4848 17.984L14.5807 33.92C12.7888 35.648 11.8928 37.056 11.8928 38.144C11.8928 39.68 13.6208 40.448 17.0768 40.448ZM27.5408 13.28C29.0128 11.936 29.7488 10.688 29.7488 9.536C29.7488 8.448 29.1408 7.68 27.9248 7.232C26.7728 6.784 25.6848 6.56 24.6608 6.56H17.9408C15.9568 6.56 14.4528 7.072 13.4288 8.096C12.4688 9.12 11.9888 10.784 11.9888 13.088V29.792C11.9888 30.368 12.1488 30.656 12.4688 30.656C12.8528 30.656 13.8128 29.984 15.3488 28.64L27.5408 13.28Z" fill="black"/>
<path d="M62.1488 39.68V11.648C62.1488 9.92 61.7328 8.768 60.9008 8.192C60.0688 7.552 59.1408 7.136 58.1168 6.944C57.0928 6.688 56.1328 6.464 55.2368 6.272C54.4048 6.08 53.9888 5.568 53.9888 4.736C53.9888 3.52 55.2048 2.912 57.6368 2.912H61.7648C66.7568 2.912 69.2528 5.184 69.2528 9.728V40.064C69.2528 43.264 68.0688 44.864 65.7008 44.864C63.3328 44.864 62.1488 43.136 62.1488 39.68Z" fill="black"/>
<path d="M112.693 24.416H101.557C97.9088 24.416 96.0848 26.72 96.0848 31.328V35.264C96.0848 38.72 97.8448 40.448 101.365 40.448H117.109C119.669 40.448 120.949 41.024 120.949 42.176C120.949 43.392 119.669 44 117.109 44H97.1407C91.9568 44 89.3648 41.952 89.3648 37.856V27.488C89.3648 23.008 92.1168 20.768 97.6208 20.768H109.045C112.501 20.768 114.229 18.528 114.229 14.048V11.648C114.229 8.256 112.437 6.56 108.853 6.56H93.1088C90.6128 6.56 89.3648 5.984 89.3648 4.832C89.3648 3.488 90.5808 2.816 93.0128 2.816H113.077C118.325 2.816 120.949 5.024 120.949 9.44V17.696C120.949 22.176 118.197 24.416 112.693 24.416Z" fill="black"/>
<path d="M150.181 40.448C154.213 40.448 156.229 38.88 156.229 35.744V29.216C156.229 26.016 154.277 24.416 150.373 24.416H134.341C132.293 24.416 131.269 23.744 131.269 22.4C131.269 21.312 132.293 20.768 134.341 20.768H150.373C154.277 20.768 156.229 19.136 156.229 15.872V11.36C156.229 8.16 154.213 6.56 150.181 6.56H134.341C132.293 6.56 131.269 5.984 131.269 4.832C131.269 3.488 132.197 2.816 134.053 2.816H154.981C160.229 2.816 162.853 5.024 162.853 9.44V37.568C162.853 41.856 160.229 44 154.981 44H134.053C132.197 44 131.269 43.392 131.269 42.176C131.269 41.024 132.293 40.448 134.341 40.448H150.181Z" fill="black"/>
<path d="M193.525 26.048H181.525C176.085 26.048 173.365 23.872 173.365 19.52V6.176C173.365 3.232 174.453 1.76 176.629 1.76C178.869 1.76 179.989 3.36 179.989 6.56V17.696C179.989 20.832 181.877 22.4 185.653 22.4H193.045C196.501 22.4 198.229 20.832 198.229 17.696V6.752C198.229 3.424 199.349 1.76 201.589 1.76C203.893 1.76 205.045 3.264 205.045 6.272L204.949 40.736C204.949 43.552 203.829 44.96 201.589 44.96C199.285 44.96 198.133 43.264 198.133 39.872L198.229 31.04C198.229 27.712 196.661 26.048 193.525 26.048Z" fill="black"/>
<path d="M13.6208 72.512C8.11675 72.512 5.36475 70.368 5.36475 66.08V57.44C5.36475 53.024 7.95675 50.816 13.1407 50.816H33.2048C35.7008 50.816 36.9488 51.488 36.9488 52.832C36.9488 53.984 35.7008 54.56 33.2048 54.56H17.5568C13.9088 54.56 12.0848 56.32 12.0848 59.84V62.816C12.0848 66.848 13.8448 68.864 17.3648 68.864H28.6927C34.1968 68.864 36.9488 71.008 36.9488 75.296V85.568C36.9488 89.856 34.3248 92 29.0768 92H9.10875C6.61275 92 5.36475 91.328 5.36475 89.984C5.36475 88.96 6.67675 88.448 9.30075 88.448H25.0448C28.5008 88.448 30.2288 86.656 30.2288 83.072V78.944C30.2288 74.656 28.4368 72.512 24.8528 72.512H13.6208Z" fill="black"/>
<path d="M47.3648 85.184V57.824C47.3648 53.152 49.8928 50.816 54.9488 50.816H74.1488C76.5808 50.816 77.7968 51.424 77.7968 52.64C77.7968 53.92 76.5488 54.56 74.0528 54.56H59.5568C55.8448 54.56 53.9888 56.704 53.9888 60.992V63.392C53.9888 66.976 55.7488 68.768 59.2688 68.768H70.5008C75.9408 68.768 78.6608 70.848 78.6608 75.008V85.376C78.6608 89.792 76.0048 92 70.6927 92H55.0448C49.9248 92 47.3648 89.728 47.3648 85.184ZM66.0848 72.416H59.8448C55.9408 72.416 53.9888 74.656 53.9888 79.136V83.36C53.9888 86.752 55.8768 88.448 59.6528 88.448H66.2768C70.1168 88.448 72.0368 86.304 72.0368 82.016V77.792C72.0368 74.208 70.0528 72.416 66.0848 72.416Z" fill="black"/>
<path d="M120.181 56.768V58.4C120.181 59.936 119.733 61.472 118.837 63.008C117.941 64.48 116.757 66.08 115.285 67.808L108.277 75.584C107.637 76.416 107.157 77.312 106.837 78.272C106.581 79.232 106.453 80.256 106.453 81.344V88.352C106.453 91.488 105.301 93.056 102.997 93.056C100.565 93.056 99.3488 91.744 99.3488 89.12V80.672C99.3488 77.6 100.629 74.688 103.189 71.936L110.485 64.064C111.189 63.232 111.733 62.336 112.117 61.376C112.565 60.416 112.789 59.392 112.789 58.304V57.344C112.789 55.488 111.829 54.56 109.909 54.56H91.7648C89.2688 54.56 88.0208 53.92 88.0208 52.64C88.0208 51.424 89.2368 50.816 91.6688 50.816H112.789C117.717 50.816 120.181 52.8 120.181 56.768Z" fill="black"/>
<path d="M150.181 72.512H143.653C139.813 72.512 137.893 74.72 137.893 79.136V83.36C137.893 86.752 139.781 88.448 143.557 88.448H150.373C154.149 88.448 156.037 86.304 156.037 82.016V77.792C156.037 74.272 154.085 72.512 150.181 72.512ZM150.181 54.56H143.653C139.813 54.56 137.893 56.672 137.893 60.896V63.392C137.893 67.04 139.781 68.864 143.557 68.864H150.373C154.149 68.864 156.037 66.624 156.037 62.144V59.552C156.037 56.224 154.085 54.56 150.181 54.56ZM162.565 85.472C162.565 89.824 160.197 92 155.461 92H138.469C133.733 92 131.365 89.824 131.365 85.472V57.536C131.365 53.056 133.765 50.816 138.565 50.816H155.365C160.165 50.816 162.565 53.056 162.565 57.536V85.472Z" fill="black"/>
<path d="M205.045 57.728V85.088C205.045 89.696 202.389 92 197.077 92H176.725C174.229 92 172.981 91.392 172.981 90.176C172.981 89.024 174.261 88.448 176.821 88.448H192.469C196.053 88.448 197.845 86.208 197.845 81.728V78.464C197.845 75.008 196.117 73.28 192.661 73.28H181.237C175.733 73.28 172.981 71.168 172.981 66.944V57.536C172.981 53.056 175.637 50.816 180.949 50.816H197.077C202.389 50.816 205.045 53.12 205.045 57.728ZM185.845 69.728H192.277C195.989 69.728 197.845 67.552 197.845 63.2V59.84C197.845 56.384 196.021 54.656 192.373 54.656H185.749C182.037 54.656 180.181 56.672 180.181 60.704V64.16C180.181 67.872 182.069 69.728 185.845 69.728Z" fill="black"/>
<path d="M20.7919 117.92C18.3599 117.92 17.1439 116.832 17.1439 114.656C17.1439 112.288 18.3599 111.104 20.7919 111.104C23.2239 111.104 24.4399 112.288 24.4399 114.656C24.4399 116.832 23.2239 117.92 20.7919 117.92ZM20.7919 140.192C18.3599 140.192 17.1439 139.104 17.1439 136.928C17.1439 134.496 18.3599 133.28 20.7919 133.28C23.2239 133.28 24.4399 134.496 24.4399 136.928C24.4399 139.104 23.2239 140.192 20.7919 140.192Z" fill="black"/>
<path d="M62.6959 137.984C60.2639 137.984 59.0479 136.928 59.0479 134.816C59.0479 132.384 60.2639 131.168 62.6959 131.168C65.1279 131.168 66.3439 132.384 66.3439 134.816C66.3439 136.928 65.1279 137.984 62.6959 137.984Z" fill="black"/>
<path d="M108.181 102.56H101.653C97.8128 102.56 95.8928 104.576 95.8928 108.608V112.256C95.8928 116.096 97.7808 118.016 101.557 118.016H108.373C112.149 118.016 114.037 115.648 114.037 110.912V107.36C114.037 104.16 112.085 102.56 108.181 102.56ZM114.037 134.816V126.368C114.037 123.232 112.085 121.664 108.181 121.664H101.653C97.8128 121.664 95.8928 123.232 95.8928 126.368V134.912C95.8928 138.24 94.7728 139.904 92.5328 139.904C90.2928 139.904 89.1728 138.4 89.1728 135.392V105.728C89.1728 101.12 91.5088 98.816 96.1808 98.816H112.789C118.101 98.816 120.757 101.12 120.757 105.728V135.296C120.757 138.368 119.637 139.904 117.397 139.904C115.157 139.904 114.037 138.208 114.037 134.816Z" fill="black"/>
<path d="M138.926 125.504V135.296C138.926 138.688 137.806 140.384 135.566 140.384C133.262 140.384 132.11 138.816 132.11 135.68L132.206 105.824C132.206 101.152 134.798 98.816 139.982 98.816H156.494C161.358 98.816 163.79 100.96 163.79 105.248V114.176C163.79 118.72 161.294 120.992 156.302 120.992H144.302C140.718 120.992 138.926 122.496 138.926 125.504ZM151.214 102.56H144.686C140.846 102.56 138.926 104.672 138.926 108.896V111.68C138.926 115.392 140.814 117.248 144.59 117.248H151.31C155.15 117.248 157.07 115.008 157.07 110.528V107.744C157.07 104.288 155.118 102.56 151.214 102.56Z" fill="black"/>
<path d="M188.9 126.08C186.724 126.08 185.636 124.384 185.636 120.992C185.636 118.944 185.156 116.704 184.196 114.272C183.3 111.776 182.02 109.184 180.356 106.496C179.78 105.664 179.236 105.056 178.724 104.672C178.212 104.288 177.828 104.064 177.572 104C176.996 104 176.708 104.544 176.708 105.632V135.296C176.708 138.368 175.556 139.904 173.252 139.904C171.012 139.904 169.892 138.368 169.892 135.296V105.536C169.892 100.864 171.748 98.528 175.46 98.528H177.284C179.716 98.528 181.956 100.064 184.004 103.136L188.804 111.2L193.7 103.136C194.596 101.728 195.556 100.608 196.58 99.776C197.668 98.944 198.916 98.528 200.324 98.528H202.34C205.988 98.528 207.812 100.864 207.812 105.536V135.296C207.812 138.368 206.692 139.904 204.452 139.904C202.212 139.904 201.092 138.368 201.092 135.296V105.632C200.836 104.544 200.484 104 200.036 104C199.332 104 198.436 104.832 197.348 106.496C195.62 109.184 194.34 111.776 193.508 114.272C192.676 116.704 192.26 118.944 192.26 120.992C192.26 124.384 191.14 126.08 188.9 126.08Z" fill="black"/>
</g>
</svg>
