<svg width="210" height="138" viewBox="0 0 210 138" fill="none" xmlns="http://www.w3.org/2000/svg">
<!-- TODO: fix font -->
<desc>{"colon":0.5,"dot":0.5}</desc>
<g clip-path="url(#clip0_100_2)">
<path d="M9.24219 32.0537C8.23958 28.9092 7.73828 25.571 7.73828 22.0391C7.73828 18.5072 8.25098 15.1689 9.27637 12.0244C10.3018 8.8571 11.8171 6.30501 13.8223 4.36816C15.8275 2.40853 18.2087 1.42871 20.9658 1.42871C23.7458 1.42871 26.1383 2.40853 28.1436 4.36816C30.1715 6.30501 31.6982 8.8457 32.7236 11.9902C33.749 15.1348 34.2617 18.4844 34.2617 22.0391C34.2617 25.571 33.7376 28.9092 32.6895 32.0537C31.6641 35.1755 30.1488 37.7048 28.1436 39.6416C26.1383 41.5785 23.7458 42.5469 20.9658 42.5469C18.1631 42.5469 15.7591 41.5785 13.7539 39.6416C11.7715 37.7048 10.2676 35.1755 9.24219 32.0537ZM12.1475 13.4258C11.3955 16.1374 11.0195 19.0199 11.0195 22.0732C11.0195 25.1266 11.3955 27.9977 12.1475 30.6865C12.9222 33.3525 14.0501 35.5173 15.5312 37.1807C17.0352 38.8213 18.8467 39.6416 20.9658 39.6416C23.1077 39.6416 24.9307 38.8213 26.4346 37.1807C27.9385 35.5173 29.0664 33.3525 29.8184 30.6865C30.5931 27.9977 30.9805 25.1266 30.9805 22.0732C30.9805 19.0199 30.5931 16.1488 29.8184 13.46C29.0436 10.7484 27.8929 8.56087 26.3662 6.89746C24.8623 5.21126 23.0622 4.36816 20.9658 4.36816C18.8467 4.36816 17.0352 5.19987 15.5312 6.86328C14.0273 8.52669 12.8994 10.7142 12.1475 13.4258Z" fill="black"/>
<path d="M64.8457 1.90723C65.028 1.81608 65.2559 1.77051 65.5293 1.77051C65.9167 1.77051 66.2471 1.90723 66.5205 2.18066C66.7939 2.43132 66.9307 2.83008 66.9307 3.37695V39.1973H78.5518C78.9619 39.1973 79.2809 39.3454 79.5088 39.6416C79.7594 39.915 79.8848 40.234 79.8848 40.5986C79.8848 40.986 79.7594 41.3164 79.5088 41.5898C79.2809 41.8633 78.9505 42 78.5176 42H51.1738C50.6725 42 50.2852 41.8633 50.0117 41.5898C49.7383 41.2936 49.6016 40.9518 49.6016 40.5645C49.6016 40.1999 49.7269 39.8809 49.9775 39.6074C50.2282 39.334 50.5814 39.1973 51.0371 39.1973H63.6494V5.46191L52.1992 10.6572C52.0169 10.7484 51.8232 10.7939 51.6182 10.7939C51.2308 10.7939 50.9004 10.6344 50.627 10.3154C50.3535 9.99642 50.2168 9.64323 50.2168 9.25586C50.2168 8.6862 50.4902 8.28743 51.0371 8.05957L64.8457 1.90723Z" fill="black"/>
<path d="M93.3447 11.9219C93.0029 11.4206 92.832 10.7598 92.832 9.93945C92.832 7 93.8802 4.84668 95.9766 3.47949C98.0729 2.1123 100.99 1.42871 104.727 1.42871C108.213 1.42871 110.981 2.21484 113.032 3.78711C115.083 5.33659 116.108 7.66081 116.108 10.7598C116.108 12.5599 115.653 14.3372 114.741 16.0918C113.83 17.8464 112.702 19.487 111.357 21.0137C110.036 22.5176 108.247 24.4089 105.991 26.6875C104.191 28.4876 102.733 29.9915 101.616 31.1992C100.522 32.4069 99.4857 33.6943 98.5059 35.0615C97.5488 36.4287 96.8311 37.8073 96.3525 39.1973H113.306L113.716 32.9766C113.739 32.5208 113.932 32.1562 114.297 31.8828C114.661 31.5866 115.06 31.4385 115.493 31.4385C115.926 31.4385 116.279 31.5866 116.553 31.8828C116.849 32.179 116.997 32.612 116.997 33.1816V40.291C116.997 40.8151 116.826 41.2367 116.484 41.5557C116.143 41.8519 115.698 42 115.151 42H93.3447C93.3219 41.9089 93.2764 41.7493 93.208 41.5215C93.1396 41.2708 93.1055 41.0088 93.1055 40.7354C93.1055 39.0719 93.5726 37.3743 94.5068 35.6426C95.4639 33.9108 96.626 32.2702 97.9932 30.7207C99.3604 29.1484 101.183 27.2116 103.462 24.9102C105.558 22.791 107.222 21.0365 108.452 19.6465C109.683 18.2337 110.719 16.7868 111.562 15.3057C112.406 13.8018 112.827 12.3662 112.827 10.999C112.827 8.56087 112.109 6.85189 110.674 5.87207C109.238 4.86947 107.085 4.36816 104.214 4.36816C101.616 4.36816 99.2578 4.89225 97.1387 5.94043C97.0931 6.21387 97.0475 6.64681 97.002 7.23926C96.8197 8.65202 96.6602 9.71159 96.5234 10.418C96.4095 11.1016 96.2158 11.6484 95.9424 12.0586C95.6917 12.4688 95.3385 12.6738 94.8828 12.6738C94.222 12.6738 93.7093 12.4232 93.3447 11.9219Z" fill="black"/>
<path d="M152.64 23.4062C151.09 21.9251 149.005 21.1846 146.385 21.1846C146.089 21.1846 145.314 21.2415 144.061 21.3555C143.559 21.4238 143.206 21.458 143.001 21.458C142.591 21.458 142.272 21.3555 142.044 21.1504C141.816 20.9225 141.702 20.6035 141.702 20.1934C141.702 19.9655 141.782 19.7262 141.941 19.4756C142.124 19.2249 142.397 18.9971 142.762 18.792L145.052 17.3906C146.897 16.2969 148.322 15.3968 149.324 14.6904C150.327 13.984 151.136 13.1865 151.751 12.2979C152.389 11.4092 152.708 10.3838 152.708 9.22168C152.708 7.85449 152.207 6.70378 151.204 5.76953C150.201 4.8125 148.72 4.33398 146.761 4.33398C145.348 4.33398 144.22 4.43652 143.377 4.6416C142.534 4.84668 141.896 5.09733 141.463 5.39355C141.053 5.66699 140.643 6.03158 140.232 6.4873C139.845 6.89746 139.48 7.20508 139.139 7.41016C138.82 7.59245 138.341 7.68359 137.703 7.68359C137.27 7.68359 136.928 7.56966 136.678 7.3418C136.427 7.11393 136.302 6.85189 136.302 6.55566C136.302 5.53027 136.894 4.63021 138.079 3.85547C139.287 3.08073 140.722 2.48828 142.386 2.07812C144.072 1.64518 145.553 1.42871 146.829 1.42871C148.561 1.42871 150.122 1.73633 151.512 2.35156C152.902 2.9668 153.995 3.86686 154.793 5.05176C155.59 6.21387 155.989 7.60384 155.989 9.22168C155.989 10.8851 155.477 12.3662 154.451 13.665C153.426 14.9639 152.309 16.0007 151.102 16.7754C149.894 17.5273 148.584 18.2451 147.171 18.9287C149.518 18.9287 151.523 19.3844 153.187 20.2959C154.85 21.2074 156.115 22.472 156.98 24.0898C157.846 25.7077 158.279 27.5762 158.279 29.6953C158.279 32.1562 157.664 34.3665 156.434 36.3262C155.203 38.2858 153.528 39.8239 151.409 40.9404C149.313 42.0342 146.977 42.5811 144.402 42.5811C142.876 42.5811 141.36 42.376 139.856 41.9658C138.375 41.5329 137.156 40.986 136.199 40.3252C135.265 39.6644 134.798 38.9922 134.798 38.3086C134.798 38.0807 134.923 37.8415 135.174 37.5908C135.424 37.3174 135.732 37.1807 136.097 37.1807C136.644 37.1807 137.099 37.2604 137.464 37.4199C137.828 37.5566 138.261 37.7845 138.763 38.1035C139.515 38.6048 140.289 38.9922 141.087 39.2656C141.884 39.5163 143.024 39.6416 144.505 39.6416C146.624 39.6416 148.47 39.2087 150.042 38.3428C151.637 37.4541 152.856 36.2464 153.699 34.7197C154.565 33.1702 154.998 31.4271 154.998 29.4902C154.998 26.9154 154.212 24.8874 152.64 23.4062Z" fill="black"/>
<path d="M201.236 41.6582C201.077 41.8861 200.872 42 200.621 42H182.164C181.913 42 181.708 41.8861 181.549 41.6582C181.389 41.4303 181.31 41.1569 181.31 40.8379C181.31 40.5417 181.378 40.291 181.515 40.0859C181.674 39.8809 181.879 39.7783 182.13 39.7783H191.974V29.3193H176.183C175.864 29.3193 175.567 29.1712 175.294 28.875C175.021 28.556 174.884 28.2028 174.884 27.8154C174.884 27.4736 174.998 27.1546 175.226 26.8584L192.691 2.1123C192.76 2.02116 192.908 1.93001 193.136 1.83887C193.386 1.74772 193.648 1.70215 193.922 1.70215C194.309 1.70215 194.628 1.85026 194.879 2.14648C195.13 2.41992 195.255 2.88704 195.255 3.54785V26.6533H202.159C202.547 26.6533 202.843 26.7786 203.048 27.0293C203.253 27.2799 203.355 27.599 203.355 27.9863C203.355 28.3509 203.242 28.6699 203.014 28.9434C202.809 29.194 202.501 29.3193 202.091 29.3193H195.255V39.7783H200.655C200.906 39.7783 201.1 39.8809 201.236 40.0859C201.396 40.291 201.476 40.5417 201.476 40.8379C201.476 41.1569 201.396 41.4303 201.236 41.6582ZM191.974 26.6533V7.1709L178.814 26.6533H191.974Z" fill="black"/>
<path d="M32.8604 68.4492C33.863 70.2038 34.3643 72.209 34.3643 74.4648C34.3643 77.2676 33.7035 79.7399 32.3818 81.8818C31.083 84.0238 29.3057 85.6758 27.0498 86.8379C24.8167 88 22.333 88.5811 19.5986 88.5811C18.0492 88.5811 16.5794 88.376 15.1895 87.9658C13.7995 87.5329 12.5462 86.929 11.4297 86.1543C10.8145 85.7214 10.5068 85.2201 10.5068 84.6504C10.5068 84.2858 10.6436 83.9668 10.917 83.6934C11.1904 83.4199 11.5094 83.2832 11.874 83.2832C12.1702 83.2832 12.4437 83.3743 12.6943 83.5566C13.7653 84.3314 14.9388 84.901 16.2148 85.2656C17.4909 85.6074 18.7669 85.7783 20.043 85.7783C21.7975 85.7783 23.5293 85.3682 25.2383 84.5479C26.9473 83.7048 28.3486 82.4743 29.4424 80.8564C30.5361 79.2158 31.083 77.2562 31.083 74.9775C31.083 72.8356 30.707 71.0583 29.9551 69.6455C29.2031 68.2327 28.2233 67.196 27.0156 66.5352C25.8079 65.8743 24.4749 65.5439 23.0166 65.5439C21.262 65.5439 19.5758 65.9883 17.958 66.877C16.363 67.7656 15.2122 68.9163 14.5059 70.3291C14.4147 70.5798 14.2552 70.7734 14.0273 70.9102C13.8223 71.0241 13.583 71.0811 13.3096 71.0811C12.9678 71.0811 12.6715 70.9785 12.4209 70.7734C12.1702 70.5684 12.0449 70.2835 12.0449 69.9189L12.7285 50.0264C12.7285 49.1377 13.1273 48.5794 13.9248 48.3516C14.7223 48.1009 15.873 47.9756 17.377 47.9756H28.4512C28.7702 46.7451 29.0322 45.9362 29.2373 45.5488C29.4652 45.1387 29.7842 44.9336 30.1943 44.9336C30.6273 44.9336 30.9919 45.0361 31.2881 45.2412C31.5843 45.4235 31.7324 45.6969 31.7324 46.0615C31.7324 47.4287 31.4932 48.5566 31.0146 49.4453C30.5589 50.334 29.9209 50.7783 29.1006 50.7783H16.4541C16.2718 50.7783 16.1807 50.8695 16.1807 51.0518L14.9844 66.0566C16.2604 64.9857 17.6048 64.1882 19.0176 63.6641C20.4531 63.14 21.8773 62.8779 23.29 62.8779C25.2725 62.8779 27.1068 63.3678 28.793 64.3477C30.502 65.3047 31.8577 66.6719 32.8604 68.4492Z" fill="black"/>
<path d="M58.8643 63.9717C60.7555 63.1058 62.681 62.6729 64.6406 62.6729C67.1699 62.6729 69.3574 63.2311 71.2031 64.3477C73.0488 65.4414 74.4616 66.9795 75.4414 68.9619C76.4212 70.9443 76.9111 73.223 76.9111 75.7979C76.9111 78.3727 76.3643 80.6286 75.2705 82.5654C74.1995 84.4795 72.6842 85.9606 70.7246 87.0088C68.765 88.057 66.5091 88.5811 63.957 88.5811C59.5365 88.5811 56.1982 87.2367 53.9424 84.5479C51.7093 81.8363 50.5928 78.1335 50.5928 73.4395C50.5928 67.515 51.8232 62.3424 54.2842 57.9219C56.7679 53.5013 60.1175 49.3883 64.333 45.583C64.652 45.3096 64.971 45.1729 65.29 45.1729C65.7002 45.1729 66.0648 45.3438 66.3838 45.6855C66.7028 46.0046 66.8623 46.3577 66.8623 46.7451C66.8623 47.0413 66.7256 47.3148 66.4521 47.5654C63.4215 50.0947 60.7555 53.1025 58.4541 56.5889C56.1527 60.0752 54.7171 63.8122 54.1475 67.7998C55.4007 66.1136 56.973 64.8376 58.8643 63.9717ZM55.1729 70.5684C54.307 72.0951 53.874 73.7585 53.874 75.5586C53.874 77.4499 54.2272 79.1702 54.9336 80.7197C55.64 82.2464 56.7451 83.4769 58.249 84.4111C59.7529 85.3226 61.6556 85.7783 63.957 85.7783C65.9622 85.7783 67.694 85.334 69.1523 84.4453C70.6335 83.5566 71.75 82.3604 72.502 80.8564C73.2539 79.3525 73.6299 77.7005 73.6299 75.9004C73.6299 74.0319 73.3109 72.3115 72.6729 70.7393C72.0576 69.167 71.0778 67.9023 69.7334 66.9453C68.4118 65.9655 66.7484 65.4756 64.7432 65.4756C62.5557 65.4756 60.6302 65.9427 58.9668 66.877C57.3262 67.7884 56.0615 69.0189 55.1729 70.5684Z" fill="black"/>
<path d="M106.06 87.7607C105.763 88.0798 105.399 88.2393 104.966 88.2393C104.51 88.2393 104.111 88.0798 103.77 87.7607C103.428 87.4189 103.257 86.9632 103.257 86.3936C103.257 81.8135 103.713 77.4727 104.624 73.3711C105.535 69.2695 106.698 65.487 108.11 62.0234C109.546 58.5371 111.289 54.8343 113.34 50.915H96.4551V56.6914C96.4551 57.2611 96.2842 57.7054 95.9424 58.0244C95.6234 58.3434 95.236 58.5029 94.7803 58.5029C94.3473 58.5029 93.9714 58.3434 93.6523 58.0244C93.3333 57.7054 93.1738 57.2611 93.1738 56.6914V49.8213C93.1738 49.2516 93.3447 48.8073 93.6865 48.4883C94.0511 48.1465 94.5182 47.9756 95.0879 47.9756H115.527C115.938 47.9756 116.279 48.1921 116.553 48.625C116.849 49.0352 116.997 49.5023 116.997 50.0264C116.997 50.4137 116.917 50.7555 116.758 51.0518C114.479 55.4268 112.633 59.3005 111.221 62.6729C109.831 66.0225 108.703 69.6683 107.837 73.6104C106.971 77.5524 106.538 81.8249 106.538 86.4277C106.538 86.9974 106.379 87.4417 106.06 87.7607Z" fill="black"/>
<path d="M136.883 61.374C136.108 60.1891 135.721 58.8447 135.721 57.3408C135.721 55.2673 136.211 53.4899 137.19 52.0088C138.17 50.5049 139.515 49.3656 141.224 48.5908C142.933 47.8161 144.858 47.4287 147 47.4287C150.646 47.4287 153.551 48.2148 155.716 49.7871C157.881 51.3366 158.963 53.6722 158.963 56.7939C158.963 58.4346 158.553 59.9157 157.732 61.2373C156.935 62.5361 156.012 63.6185 154.964 64.4844C153.938 65.3503 152.514 66.4098 150.691 67.6631C152.879 68.9163 154.599 69.9759 155.853 70.8418C157.129 71.7077 158.257 72.8128 159.236 74.1572C160.239 75.5016 160.74 77.0625 160.74 78.8398C160.74 82.2122 159.544 84.6846 157.151 86.2568C154.782 87.8063 151.648 88.5811 147.752 88.5811C144.015 88.5811 140.905 87.7949 138.421 86.2227C135.937 84.6504 134.695 82.1211 134.695 78.6348C134.695 76.9486 135.197 75.4105 136.199 74.0205C137.225 72.6305 138.375 71.4798 139.651 70.5684C140.95 69.6341 142.534 68.6201 144.402 67.5264L143.787 67.1504C142.101 66.125 140.722 65.2021 139.651 64.3818C138.58 63.5615 137.658 62.5589 136.883 61.374ZM154.793 60.6221C155.477 59.5511 155.818 58.3662 155.818 57.0674C155.818 54.7204 155.055 53.0228 153.528 51.9746C152.024 50.9036 149.939 50.3682 147.273 50.3682C145.792 50.3682 144.414 50.596 143.138 51.0518C141.862 51.5075 140.825 52.2367 140.027 53.2393C139.253 54.2419 138.865 55.5065 138.865 57.0332C138.865 58.4004 139.196 59.5853 139.856 60.5879C140.517 61.5677 141.36 62.4108 142.386 63.1172C143.411 63.8236 144.904 64.7236 146.863 65.8174L147.752 66.2959C149.484 65.2933 150.919 64.3704 152.059 63.5273C153.198 62.6615 154.109 61.693 154.793 60.6221ZM139.48 74.6016C138.478 75.7865 137.977 77.0397 137.977 78.3613C137.977 81.0501 138.934 82.9414 140.848 84.0352C142.785 85.1061 145.154 85.6416 147.957 85.6416C154.292 85.6416 157.459 83.3971 157.459 78.9082C157.459 77.4727 157.037 76.1966 156.194 75.0801C155.351 73.9635 154.349 73.0293 153.187 72.2773C152.047 71.5026 150.589 70.6481 148.812 69.7139L147.205 68.8594C145.542 69.7936 144.083 70.6823 142.83 71.5254C141.6 72.3685 140.483 73.3939 139.48 74.6016Z" fill="black"/>
<path d="M194.4 72.0381C192.509 72.904 190.584 73.3369 188.624 73.3369C186.095 73.3369 183.907 72.79 182.062 71.6963C180.216 70.5798 178.803 69.0303 177.823 67.0479C176.843 65.0654 176.354 62.7868 176.354 60.2119C176.354 57.637 176.889 55.3926 177.96 53.4785C179.054 51.5417 180.58 50.0492 182.54 49.001C184.5 47.9528 186.756 47.4287 189.308 47.4287C193.728 47.4287 197.055 48.7845 199.288 51.4961C201.544 54.1849 202.672 57.8763 202.672 62.5703C202.672 66.6491 202.045 70.3291 200.792 73.6104C199.562 76.8688 197.955 79.7513 195.973 82.2578C194.013 84.7643 191.643 87.2708 188.863 89.7773C188.567 90.0508 188.248 90.1875 187.906 90.1875C187.496 90.1875 187.132 90.0166 186.812 89.6748C186.493 89.3558 186.334 89.0026 186.334 88.6152C186.334 88.319 186.471 88.0456 186.744 87.7949C193.99 81.7565 198.115 75.2282 199.117 68.21C197.864 69.8962 196.292 71.1722 194.4 72.0381ZM198.058 65.4756C198.946 63.9261 199.391 62.2513 199.391 60.4512C199.391 58.5599 199.037 56.8509 198.331 55.3242C197.625 53.7747 196.52 52.5443 195.016 51.6328C193.512 50.6986 191.609 50.2314 189.308 50.2314C187.302 50.2314 185.559 50.6758 184.078 51.5645C182.62 52.4531 181.515 53.6494 180.763 55.1533C180.011 56.6572 179.635 58.3092 179.635 60.1094C179.635 61.9779 179.942 63.6982 180.558 65.2705C181.196 66.8428 182.175 68.1188 183.497 69.0986C184.841 70.0557 186.516 70.5342 188.521 70.5342C190.709 70.5342 192.623 70.0785 194.264 69.167C195.927 68.2327 197.192 67.0023 198.058 65.4756Z" fill="black"/>
<path d="M24.3838 107.34C25.0902 108.023 25.4434 108.878 25.4434 109.903C25.4434 110.929 25.0902 111.783 24.3838 112.467C23.7002 113.15 22.8457 113.492 21.8203 113.492C20.7721 113.492 19.9062 113.162 19.2227 112.501C18.5618 111.817 18.2314 110.951 18.2314 109.903C18.2314 108.855 18.5732 107.989 19.2568 107.306C19.9404 106.622 20.7949 106.28 21.8203 106.28C22.8457 106.28 23.7002 106.633 24.3838 107.34ZM24.3838 128.395C25.0902 129.078 25.4434 129.933 25.4434 130.958C25.4434 131.983 25.0902 132.838 24.3838 133.521C23.7002 134.205 22.8457 134.547 21.8203 134.547C20.7721 134.547 19.9062 134.216 19.2227 133.556C18.5618 132.872 18.2314 132.006 18.2314 130.958C18.2314 129.91 18.5732 129.044 19.2568 128.36C19.9404 127.677 20.7949 127.335 21.8203 127.335C22.8457 127.335 23.7002 127.688 24.3838 128.395Z" fill="black"/>
<path d="M65.5635 128.395C66.2699 129.078 66.623 129.933 66.623 130.958C66.623 131.983 66.2699 132.838 65.5635 133.521C64.8799 134.205 64.0254 134.547 63 134.547C61.9518 134.547 61.0859 134.216 60.4023 133.556C59.7188 132.872 59.377 132.006 59.377 130.958C59.377 129.91 59.7188 129.044 60.4023 128.36C61.1087 127.677 61.9746 127.335 63 127.335C64.0254 127.335 64.8799 127.688 65.5635 128.395Z" fill="black"/>
<path d="M100.044 133.59C99.7477 133.863 99.3262 134 98.7793 134H86.8848C86.3379 134 85.9163 133.863 85.6201 133.59C85.3239 133.294 85.1758 132.94 85.1758 132.53C85.1758 132.143 85.3239 131.801 85.6201 131.505C85.9163 131.209 86.3265 131.061 86.8506 131.061H89.7559L102.915 96.915H95.498C94.9512 96.915 94.5296 96.7783 94.2334 96.5049C93.9372 96.2087 93.7891 95.8555 93.7891 95.4453C93.7891 95.0579 93.9372 94.7161 94.2334 94.4199C94.5296 94.1237 94.9398 93.9756 95.4639 93.9756H105.82C107.142 93.9756 108.065 94.7161 108.589 96.1973L120.962 131.061H123.662C124.186 131.061 124.585 131.209 124.858 131.505C125.155 131.778 125.303 132.109 125.303 132.496C125.303 132.906 125.143 133.259 124.824 133.556C124.528 133.852 124.118 134 123.594 134H111.084C110.537 134 110.104 133.852 109.785 133.556C109.489 133.259 109.341 132.906 109.341 132.496C109.341 132.109 109.489 131.778 109.785 131.505C110.081 131.209 110.492 131.061 111.016 131.061H117.373L113.716 120.602H97.207L93.3789 131.061H98.8135C99.3376 131.061 99.7477 131.209 100.044 131.505C100.363 131.801 100.522 132.143 100.522 132.53C100.522 132.94 100.363 133.294 100.044 133.59ZM105.889 97.3594L98.335 117.765H112.69L105.889 97.3594Z" fill="black"/>
<path d="M132.234 93.9756H143.992C147.843 93.9756 151.022 94.2035 153.528 94.6592C156.058 95.0921 158.154 96.1175 159.817 97.7354C161.481 99.3304 162.312 101.769 162.312 105.05C162.312 108.331 161.526 110.769 159.954 112.364C158.382 113.937 156.399 114.939 154.007 115.372C151.637 115.782 148.595 115.987 144.881 115.987H140.916V131.061H152.161C152.685 131.061 153.095 131.209 153.392 131.505C153.688 131.801 153.836 132.143 153.836 132.53C153.836 132.94 153.688 133.294 153.392 133.59C153.095 133.863 152.674 134 152.127 134H131.756C131.209 134 130.776 133.863 130.457 133.59C130.161 133.294 130.013 132.94 130.013 132.53C130.013 132.143 130.161 131.801 130.457 131.505C130.776 131.209 131.198 131.061 131.722 131.061H137.635V96.915H132.2C131.676 96.915 131.266 96.7783 130.97 96.5049C130.674 96.2087 130.525 95.8669 130.525 95.4795C130.525 95.0693 130.674 94.7161 130.97 94.4199C131.289 94.1237 131.71 93.9756 132.234 93.9756ZM140.916 113.253H146.111C148.891 113.253 151.159 113.105 152.913 112.809C154.69 112.49 156.149 111.749 157.288 110.587C158.45 109.402 159.031 107.602 159.031 105.187C159.031 102.634 158.336 100.755 156.946 99.5469C155.579 98.3392 153.938 97.5986 152.024 97.3252C150.11 97.0518 147.661 96.915 144.676 96.915H140.916V113.253Z" fill="black"/>
<path d="M209.029 133.556C208.733 133.852 208.323 134 207.799 134H195.733C195.187 134 194.754 133.852 194.435 133.556C194.138 133.259 193.99 132.906 193.99 132.496C193.99 132.109 194.138 131.778 194.435 131.505C194.731 131.209 195.141 131.061 195.665 131.061H200.211V100.436L191.427 120.67C191.199 121.194 190.88 121.604 190.47 121.9C190.06 122.174 189.627 122.311 189.171 122.311C188.738 122.311 188.339 122.197 187.975 121.969C187.61 121.718 187.325 121.342 187.12 120.841L177.994 100.572V131.061H182.096C182.643 131.061 183.064 131.209 183.36 131.505C183.657 131.778 183.805 132.109 183.805 132.496C183.805 132.906 183.645 133.259 183.326 133.556C183.03 133.852 182.608 134 182.062 134H170.201C169.654 134 169.233 133.863 168.937 133.59C168.64 133.294 168.492 132.94 168.492 132.53C168.492 132.143 168.64 131.801 168.937 131.505C169.233 131.209 169.643 131.061 170.167 131.061H174.713V96.915H170.646C170.121 96.915 169.711 96.7783 169.415 96.5049C169.119 96.2087 168.971 95.8669 168.971 95.4795C168.971 95.0693 169.119 94.7161 169.415 94.4199C169.734 94.1237 170.156 93.9756 170.68 93.9756H177.447C178.131 93.9756 178.655 94.3743 179.02 95.1719L189.308 117.833L199.22 95.001C199.334 94.7048 199.527 94.4655 199.801 94.2832C200.074 94.0781 200.393 93.9756 200.758 93.9756H207.32C207.867 93.9756 208.289 94.1237 208.585 94.4199C208.904 94.7161 209.063 95.0693 209.063 95.4795C209.063 95.8669 208.904 96.2087 208.585 96.5049C208.289 96.7783 207.879 96.915 207.354 96.915H203.492V131.061H207.867C208.391 131.061 208.79 131.209 209.063 131.505C209.36 131.778 209.508 132.109 209.508 132.496C209.508 132.906 209.348 133.259 209.029 133.556Z" fill="black"/>
</g>
</svg>
