<svg width="210" height="138" viewBox="0 0 210 138" fill="none" xmlns="http://www.w3.org/2000/svg">
<desc>{"colon":0.5,"dot":0.5}</desc>
<g clip-path="url(#clip0_111_2)">
<path d="M10.082 31.7642C9.15104 28.8442 8.68555 25.7445 8.68555 22.4648C8.68555 19.1852 9.16162 16.0854 10.1138 13.1655C11.0659 10.2244 12.473 7.85465 14.335 6.05615C16.1969 4.23649 18.408 3.32666 20.9683 3.32666C23.5496 3.32666 25.7713 4.23649 27.6333 6.05615C29.5164 7.85465 30.9341 10.2139 31.8862 13.1338C32.8384 16.0537 33.3145 19.1641 33.3145 22.4648C33.3145 25.7445 32.8278 28.8442 31.8545 31.7642C30.9023 34.6629 29.4953 37.0116 27.6333 38.8101C25.7713 40.6086 23.5496 41.5078 20.9683 41.5078C18.3657 41.5078 16.1335 40.6086 14.2715 38.8101C12.4307 37.0116 11.0342 34.6629 10.082 31.7642ZM12.7798 14.4668C12.0815 16.9847 11.7324 19.6613 11.7324 22.4966C11.7324 25.3319 12.0815 27.9979 12.7798 30.4946C13.4992 32.9702 14.5465 34.9803 15.9219 36.5249C17.3184 38.0483 19.0005 38.8101 20.9683 38.8101C22.9572 38.8101 24.6499 38.0483 26.0464 36.5249C27.4429 34.9803 28.4902 32.9702 29.1885 30.4946C29.9079 27.9979 30.2676 25.3319 30.2676 22.4966C30.2676 19.6613 29.9079 16.9953 29.1885 14.4985C28.4691 11.9806 27.4006 9.94938 25.9829 8.40479C24.5864 6.83903 22.9149 6.05615 20.9683 6.05615C19.0005 6.05615 17.3184 6.82845 15.9219 8.37305C14.5254 9.91764 13.478 11.9489 12.7798 14.4668Z" fill="black"/>
<path d="M152.237 23.7344C150.798 22.359 148.862 21.6714 146.429 21.6714C146.154 21.6714 145.434 21.7243 144.271 21.8301C143.805 21.8936 143.477 21.9253 143.287 21.9253C142.906 21.9253 142.61 21.8301 142.398 21.6396C142.186 21.4281 142.081 21.1318 142.081 20.751C142.081 20.5394 142.155 20.3172 142.303 20.0845C142.472 19.8517 142.726 19.6401 143.064 19.4497L145.191 18.1484C146.905 17.1328 148.227 16.297 149.158 15.6411C150.089 14.9852 150.84 14.2446 151.412 13.4194C152.004 12.5942 152.3 11.6421 152.3 10.563C152.3 9.29346 151.835 8.22493 150.904 7.35742C149.973 6.46875 148.597 6.02441 146.778 6.02441C145.466 6.02441 144.419 6.11963 143.636 6.31006C142.853 6.50049 142.26 6.73324 141.858 7.0083C141.478 7.26221 141.097 7.60075 140.716 8.02393C140.356 8.40479 140.018 8.69043 139.7 8.88086C139.404 9.05013 138.96 9.13477 138.367 9.13477C137.965 9.13477 137.648 9.02897 137.415 8.81738C137.182 8.60579 137.066 8.36247 137.066 8.0874C137.066 7.13525 137.616 6.29948 138.716 5.58008C139.838 4.86068 141.171 4.31055 142.715 3.92969C144.281 3.52767 145.656 3.32666 146.841 3.32666C148.449 3.32666 149.899 3.6123 151.189 4.18359C152.48 4.75488 153.496 5.59066 154.236 6.69092C154.977 7.77002 155.347 9.06071 155.347 10.563C155.347 12.1076 154.871 13.4829 153.919 14.689C152.967 15.895 151.93 16.8577 150.809 17.5771C149.687 18.2754 148.471 18.9419 147.159 19.5767C149.338 19.5767 151.2 19.9998 152.745 20.8462C154.289 21.6925 155.464 22.8669 156.268 24.3691C157.072 25.8714 157.474 27.6064 157.474 29.5742C157.474 31.8594 156.902 33.9118 155.76 35.7314C154.617 37.5511 153.062 38.9793 151.094 40.0161C149.148 41.0317 146.979 41.5396 144.588 41.5396C143.17 41.5396 141.763 41.3491 140.367 40.9683C138.991 40.5662 137.859 40.0584 136.971 39.4448C136.103 38.8312 135.669 38.207 135.669 37.5723C135.669 37.3607 135.786 37.1385 136.019 36.9058C136.251 36.6519 136.537 36.5249 136.875 36.5249C137.383 36.5249 137.806 36.599 138.145 36.7471C138.484 36.874 138.886 37.0856 139.351 37.3818C140.049 37.8473 140.769 38.207 141.509 38.4609C142.25 38.6937 143.308 38.8101 144.683 38.8101C146.651 38.8101 148.365 38.408 149.825 37.604C151.306 36.7788 152.438 35.6574 153.221 34.2397C154.025 32.8009 154.427 31.1823 154.427 29.3838C154.427 26.9928 153.697 25.1097 152.237 23.7344Z" fill="black"/>
<path d="M200.362 40.6826C200.214 40.8942 200.024 41 199.791 41H182.652C182.42 41 182.229 40.8942 182.081 40.6826C181.933 40.471 181.859 40.2171 181.859 39.9209C181.859 39.6458 181.922 39.4131 182.049 39.2227C182.197 39.0322 182.388 38.937 182.621 38.937H191.761V29.2251H177.098C176.802 29.2251 176.527 29.0876 176.273 28.8125C176.019 28.5163 175.892 28.1883 175.892 27.8286C175.892 27.5112 175.998 27.215 176.209 26.9399L192.428 3.96143C192.491 3.87679 192.629 3.79215 192.84 3.70752C193.073 3.62288 193.316 3.58057 193.57 3.58057C193.93 3.58057 194.226 3.7181 194.459 3.99316C194.692 4.24707 194.808 4.68083 194.808 5.29443V26.7495H201.219C201.579 26.7495 201.854 26.8659 202.044 27.0986C202.235 27.3314 202.33 27.6276 202.33 27.9873C202.33 28.3258 202.224 28.6221 202.013 28.876C201.822 29.1087 201.537 29.2251 201.156 29.2251H194.808V38.937H199.823C200.056 38.937 200.235 39.0322 200.362 39.2227C200.51 39.4131 200.584 39.6458 200.584 39.9209C200.584 40.2171 200.51 40.471 200.362 40.6826ZM191.761 26.7495V8.65869L179.542 26.7495H191.761Z" fill="black"/>
<path d="M64.7139 3.771C64.8831 3.68636 65.0947 3.64404 65.3486 3.64404C65.7083 3.64404 66.0151 3.771 66.269 4.0249C66.5229 4.25765 66.6499 4.62793 66.6499 5.13574V38.3975H77.4409C77.8218 38.3975 78.118 38.535 78.3296 38.8101C78.5623 39.064 78.6787 39.3602 78.6787 39.6987C78.6787 40.0584 78.5623 40.3652 78.3296 40.6191C78.118 40.873 77.8112 41 77.4092 41H52.0186C51.5531 41 51.1934 40.873 50.9395 40.6191C50.6855 40.3441 50.5586 40.0267 50.5586 39.667C50.5586 39.3285 50.675 39.0322 50.9077 38.7783C51.1405 38.5244 51.4684 38.3975 51.8916 38.3975H63.603V7.07178L52.9707 11.896C52.8014 11.9806 52.6216 12.0229 52.4312 12.0229C52.0715 12.0229 51.7646 11.8748 51.5107 11.5786C51.2568 11.2824 51.1299 10.9544 51.1299 10.5947C51.1299 10.0658 51.3838 9.69548 51.8916 9.48389L64.7139 3.771Z" fill="black"/>
<path d="M94.1772 13.0703C93.8599 12.6048 93.7012 11.9912 93.7012 11.2295C93.7012 8.5 94.6745 6.50049 96.6211 5.23096C98.5677 3.96143 101.276 3.32666 104.746 3.32666C107.983 3.32666 110.554 4.05664 112.458 5.5166C114.363 6.9554 115.315 9.11361 115.315 11.9912C115.315 13.6628 114.892 15.3132 114.045 16.9424C113.199 18.5716 112.152 20.0951 110.903 21.5127C109.676 22.9092 108.015 24.6654 105.92 26.7812C104.249 28.4528 102.895 29.8493 101.858 30.9707C100.842 32.0921 99.8796 33.2876 98.9697 34.5571C98.0811 35.8267 97.4146 37.1068 96.9702 38.3975H112.712L113.093 32.6211C113.114 32.1979 113.294 31.8594 113.633 31.6055C113.971 31.3304 114.342 31.1929 114.744 31.1929C115.146 31.1929 115.474 31.3304 115.728 31.6055C116.003 31.8805 116.14 32.2826 116.14 32.8115V39.4131C116.14 39.8997 115.981 40.2912 115.664 40.5874C115.347 40.8625 114.934 41 114.426 41H94.1772C94.1561 40.9154 94.1138 40.7673 94.0503 40.5557C93.9868 40.3229 93.9551 40.0796 93.9551 39.8257C93.9551 38.2811 94.3888 36.7048 95.2563 35.0967C96.145 33.4886 97.2241 31.9652 98.4937 30.5264C99.7632 29.0664 101.456 27.2679 103.572 25.1309C105.518 23.1631 107.063 21.5339 108.206 20.2432C109.348 18.9313 110.311 17.5877 111.094 16.2124C111.877 14.8159 112.268 13.4829 112.268 12.2134C112.268 9.94938 111.602 8.36247 110.269 7.45264C108.936 6.52165 106.936 6.05615 104.27 6.05615C101.858 6.05615 99.668 6.54281 97.7002 7.51611C97.6579 7.77002 97.6156 8.17204 97.5732 8.72217C97.404 10.034 97.2559 11.0179 97.1289 11.6738C97.0231 12.3086 96.8433 12.8164 96.5894 13.1973C96.3566 13.5781 96.0286 13.7686 95.6055 13.7686C94.9919 13.7686 94.5158 13.5358 94.1772 13.0703Z" fill="black"/>
<path d="M32.0132 68.8457C32.9442 70.4749 33.4097 72.3369 33.4097 74.4316C33.4097 77.0342 32.7961 79.3299 31.5688 81.3188C30.3628 83.3078 28.7124 84.8418 26.6177 85.9209C24.5441 87 22.2378 87.5396 19.6987 87.5396C18.2599 87.5396 16.8952 87.3491 15.6045 86.9683C14.3138 86.5662 13.1501 86.0055 12.1133 85.2861C11.542 84.8841 11.2563 84.4186 11.2563 83.8896C11.2563 83.5511 11.3833 83.2549 11.6372 83.001C11.8911 82.7471 12.1873 82.6201 12.5259 82.6201C12.8009 82.6201 13.0549 82.7048 13.2876 82.874C14.2821 83.5934 15.3717 84.1224 16.5566 84.4609C17.7415 84.7783 18.9264 84.937 20.1113 84.937C21.7406 84.937 23.3486 84.5562 24.9355 83.7944C26.5225 83.0116 27.8237 81.869 28.8394 80.3667C29.855 78.8433 30.3628 77.0236 30.3628 74.9077C30.3628 72.9188 30.0137 71.2684 29.3154 69.9565C28.6172 68.6447 27.7074 67.682 26.5859 67.0684C25.4645 66.4548 24.2267 66.1479 22.8726 66.1479C21.2433 66.1479 19.6776 66.5605 18.1753 67.3857C16.6942 68.2109 15.6257 69.2795 14.9697 70.5913C14.8851 70.8241 14.737 71.0039 14.5254 71.1309C14.335 71.2367 14.1128 71.2896 13.8589 71.2896C13.5415 71.2896 13.2664 71.1943 13.0337 71.0039C12.8009 70.8135 12.6846 70.549 12.6846 70.2104L13.3193 51.7388C13.3193 50.9136 13.6896 50.3952 14.4302 50.1836C15.1707 49.9508 16.2393 49.8345 17.6357 49.8345H27.9189C28.2152 48.6919 28.4585 47.9408 28.6489 47.5811C28.8605 47.2002 29.1567 47.0098 29.5376 47.0098C29.9396 47.0098 30.2782 47.105 30.5532 47.2954C30.8283 47.4647 30.9658 47.7186 30.9658 48.0571C30.9658 49.3267 30.7437 50.374 30.2993 51.1992C29.8761 52.0244 29.2837 52.437 28.522 52.437H16.7788C16.6095 52.437 16.5249 52.5216 16.5249 52.6909L15.4141 66.624C16.599 65.6296 17.8473 64.889 19.1592 64.4023C20.4922 63.9157 21.8146 63.6724 23.1265 63.6724C24.9673 63.6724 26.6706 64.1273 28.2363 65.0371C29.8232 65.9258 31.0822 67.1953 32.0132 68.8457Z" fill="black"/>
<path d="M137.605 62.2759C136.886 61.1756 136.526 59.9272 136.526 58.5308C136.526 56.6053 136.981 54.9549 137.891 53.5796C138.801 52.1831 140.049 51.1252 141.636 50.4058C143.223 49.6864 145.011 49.3267 147 49.3267C150.385 49.3267 153.083 50.0566 155.093 51.5166C157.103 52.9554 158.108 55.1242 158.108 58.0229C158.108 59.5464 157.728 60.9217 156.966 62.1489C156.225 63.355 155.368 64.36 154.395 65.1641C153.443 65.9681 152.12 66.952 150.428 68.1157C152.459 69.2795 154.056 70.2633 155.22 71.0674C156.405 71.8714 157.452 72.8976 158.362 74.146C159.293 75.3944 159.759 76.8438 159.759 78.4941C159.759 81.6257 158.648 83.9214 156.426 85.3813C154.226 86.8201 151.316 87.5396 147.698 87.5396C144.228 87.5396 141.34 86.8096 139.034 85.3496C136.727 83.8896 135.574 81.541 135.574 78.3037C135.574 76.738 136.04 75.3097 136.971 74.019C137.923 72.7284 138.991 71.6598 140.176 70.8135C141.382 69.946 142.853 69.0044 144.588 67.9888L144.017 67.6396C142.451 66.6875 141.171 65.8306 140.176 65.0688C139.182 64.3071 138.325 63.3761 137.605 62.2759ZM154.236 61.5776C154.871 60.5832 155.188 59.4829 155.188 58.2769C155.188 56.0975 154.48 54.5212 153.062 53.5479C151.666 52.5534 149.729 52.0562 147.254 52.0562C145.879 52.0562 144.598 52.2677 143.414 52.6909C142.229 53.1141 141.266 53.7912 140.525 54.7222C139.806 55.6532 139.446 56.8275 139.446 58.2451C139.446 59.5146 139.753 60.6149 140.367 61.5459C140.98 62.4557 141.763 63.2386 142.715 63.8945C143.667 64.5505 145.053 65.3862 146.873 66.4019L147.698 66.8462C149.306 65.9152 150.639 65.0583 151.697 64.2754C152.755 63.4714 153.602 62.5721 154.236 61.5776ZM140.018 74.5586C139.087 75.6589 138.621 76.8226 138.621 78.0498C138.621 80.5465 139.51 82.3027 141.287 83.3184C143.086 84.3128 145.286 84.8101 147.889 84.8101C153.771 84.8101 156.712 82.7259 156.712 78.5576C156.712 77.2246 156.32 76.0397 155.538 75.0029C154.755 73.9661 153.824 73.0986 152.745 72.4004C151.687 71.681 150.333 70.8875 148.682 70.02L147.19 69.2266C145.646 70.0941 144.292 70.9193 143.128 71.7021C141.985 72.485 140.949 73.4372 140.018 74.5586Z" fill="black"/>
<path d="M194.015 72.1782C192.258 72.9823 190.471 73.3843 188.651 73.3843C186.302 73.3843 184.271 72.8765 182.557 71.8608C180.843 70.8241 179.531 69.3853 178.622 67.5444C177.712 65.7036 177.257 63.5877 177.257 61.1968C177.257 58.8058 177.754 56.7217 178.749 54.9443C179.764 53.1458 181.182 51.7599 183.001 50.7866C184.821 49.8133 186.916 49.3267 189.286 49.3267C193.39 49.3267 196.48 50.5856 198.553 53.1035C200.648 55.6003 201.695 59.028 201.695 63.3867C201.695 67.1742 201.113 70.5913 199.95 73.6382C198.807 76.6639 197.315 79.3405 195.475 81.668C193.655 83.9954 191.454 86.3229 188.873 88.6504C188.598 88.9043 188.302 89.0312 187.984 89.0312C187.604 89.0312 187.265 88.8726 186.969 88.5552C186.673 88.259 186.524 87.931 186.524 87.5713C186.524 87.2962 186.651 87.0423 186.905 86.8096C193.634 81.2025 197.464 75.1405 198.395 68.6235C197.231 70.1893 195.771 71.3742 194.015 72.1782ZM197.411 66.0845C198.236 64.6457 198.648 63.0905 198.648 61.4189C198.648 59.6628 198.32 58.0758 197.665 56.6582C197.009 55.2194 195.982 54.0768 194.586 53.2305C193.189 52.363 191.423 51.9292 189.286 51.9292C187.424 51.9292 185.805 52.3418 184.43 53.167C183.076 53.9922 182.049 55.103 181.351 56.4995C180.653 57.896 180.304 59.43 180.304 61.1016C180.304 62.8366 180.589 64.4341 181.161 65.894C181.753 67.354 182.663 68.5389 183.89 69.4487C185.139 70.3374 186.694 70.7817 188.556 70.7817C190.587 70.7817 192.364 70.3586 193.888 69.5122C195.432 68.6447 196.607 67.5021 197.411 66.0845Z" fill="black"/>
<path d="M59.1597 64.688C60.9159 63.884 62.7038 63.4819 64.5234 63.4819C66.8721 63.4819 68.9033 64.0003 70.6172 65.0371C72.3311 66.0527 73.6429 67.481 74.5527 69.3218C75.4626 71.1626 75.9175 73.2785 75.9175 75.6694C75.9175 78.0604 75.4097 80.1551 74.394 81.9536C73.3996 83.731 71.9925 85.1063 70.1729 86.0796C68.3532 87.0529 66.2585 87.5396 63.8887 87.5396C59.7839 87.5396 56.6841 86.2912 54.5894 83.7944C52.5158 81.2765 51.479 77.8382 51.479 73.4795C51.479 67.9782 52.6216 63.1751 54.9067 59.0703C57.2131 54.9655 60.3234 51.1463 64.2378 47.6128C64.534 47.3589 64.8302 47.2319 65.1265 47.2319C65.5073 47.2319 65.8459 47.3906 66.1421 47.708C66.4383 48.0042 66.5864 48.3322 66.5864 48.6919C66.5864 48.967 66.4595 49.2209 66.2056 49.4536C63.3914 51.8022 60.9159 54.5952 58.7788 57.8325C56.6418 61.0698 55.3088 64.5399 54.7798 68.2427C55.9435 66.6769 57.4035 65.492 59.1597 64.688ZM55.7319 70.8135C54.9279 72.2311 54.5259 73.7757 54.5259 75.4473C54.5259 77.2035 54.8538 78.8009 55.5098 80.2397C56.1657 81.6574 57.1919 82.8 58.5884 83.6675C59.9849 84.5138 61.7516 84.937 63.8887 84.937C65.7507 84.937 67.3587 84.5244 68.7129 83.6992C70.0882 82.874 71.125 81.7632 71.8232 80.3667C72.5215 78.9702 72.8706 77.4362 72.8706 75.7646C72.8706 74.0296 72.5744 72.4321 71.9819 70.9722C71.4106 69.5122 70.5008 68.3379 69.2524 67.4492C68.0252 66.5394 66.4806 66.0845 64.6187 66.0845C62.5874 66.0845 60.7995 66.5182 59.2549 67.3857C57.7314 68.2321 56.5571 69.3747 55.7319 70.8135Z" fill="black"/>
<path d="M105.984 86.7778C105.709 87.0741 105.37 87.2222 104.968 87.2222C104.545 87.2222 104.175 87.0741 103.857 86.7778C103.54 86.4604 103.381 86.0373 103.381 85.5083C103.381 81.2554 103.805 77.2246 104.651 73.416C105.497 69.6074 106.576 66.0951 107.888 62.8789C109.221 59.6416 110.84 56.2033 112.744 52.564H97.0654V57.9277C97.0654 58.4567 96.9067 58.8693 96.5894 59.1655C96.2931 59.4618 95.9334 59.6099 95.5103 59.6099C95.1082 59.6099 94.7591 59.4618 94.4629 59.1655C94.1667 58.8693 94.0186 58.4567 94.0186 57.9277V51.5483C94.0186 51.0194 94.1772 50.6068 94.4946 50.3105C94.8332 49.9932 95.2669 49.8345 95.7959 49.8345H114.775C115.156 49.8345 115.474 50.0355 115.728 50.4375C116.003 50.8184 116.14 51.2521 116.14 51.7388C116.14 52.0985 116.066 52.4159 115.918 52.6909C113.802 56.7534 112.088 60.3504 110.776 63.4819C109.486 66.5923 108.438 69.9777 107.634 73.6382C106.83 77.2987 106.428 81.266 106.428 85.54C106.428 86.069 106.28 86.4816 105.984 86.7778Z" fill="black"/>
<path d="M24.1421 108.244C24.798 108.879 25.126 109.672 25.126 110.625C25.126 111.577 24.798 112.37 24.1421 113.005C23.5073 113.64 22.7139 113.957 21.7617 113.957C20.7884 113.957 19.9844 113.65 19.3496 113.037C18.736 112.402 18.4292 111.598 18.4292 110.625C18.4292 109.651 18.7466 108.847 19.3813 108.212C20.0161 107.578 20.8096 107.26 21.7617 107.26C22.7139 107.26 23.5073 107.588 24.1421 108.244ZM24.1421 127.795C24.798 128.43 25.126 129.223 25.126 130.175C25.126 131.127 24.798 131.921 24.1421 132.556C23.5073 133.19 22.7139 133.508 21.7617 133.508C20.7884 133.508 19.9844 133.201 19.3496 132.587C18.736 131.953 18.4292 131.149 18.4292 130.175C18.4292 129.202 18.7466 128.398 19.3813 127.763C20.0161 127.128 20.8096 126.811 21.7617 126.811C22.7139 126.811 23.5073 127.139 24.1421 127.795Z" fill="black"/>
<path d="M133.289 95.8345H144.207C147.783 95.8345 150.735 96.0461 153.062 96.4692C155.411 96.8713 157.357 97.8234 158.902 99.3257C160.446 100.807 161.219 103.071 161.219 106.118C161.219 109.165 160.489 111.429 159.029 112.91C157.569 114.37 155.728 115.301 153.506 115.703C151.306 116.083 148.481 116.274 145.032 116.274H141.351V130.271H151.792C152.279 130.271 152.66 130.408 152.935 130.683C153.21 130.958 153.348 131.276 153.348 131.635C153.348 132.016 153.21 132.344 152.935 132.619C152.66 132.873 152.269 133 151.761 133H132.845C132.337 133 131.935 132.873 131.639 132.619C131.364 132.344 131.226 132.016 131.226 131.635C131.226 131.276 131.364 130.958 131.639 130.683C131.935 130.408 132.326 130.271 132.813 130.271H138.304V98.564H133.257C132.771 98.564 132.39 98.437 132.115 98.1831C131.84 97.908 131.702 97.5907 131.702 97.231C131.702 96.8501 131.84 96.5221 132.115 96.2471C132.411 95.972 132.802 95.8345 133.289 95.8345ZM141.351 113.735H146.175C148.756 113.735 150.861 113.597 152.491 113.322C154.141 113.026 155.495 112.338 156.553 111.259C157.632 110.159 158.172 108.487 158.172 106.245C158.172 103.875 157.527 102.129 156.236 101.008C154.966 99.8864 153.443 99.1987 151.666 98.9448C149.888 98.6909 147.614 98.564 144.842 98.564H141.351V113.735Z" fill="black"/>
<path d="M207.599 132.587C207.324 132.862 206.943 133 206.456 133H195.252C194.745 133 194.343 132.862 194.046 132.587C193.771 132.312 193.634 131.984 193.634 131.604C193.634 131.244 193.771 130.937 194.046 130.683C194.321 130.408 194.702 130.271 195.189 130.271H199.41V101.833L191.253 120.622C191.042 121.109 190.746 121.49 190.365 121.765C189.984 122.019 189.582 122.146 189.159 122.146C188.757 122.146 188.386 122.04 188.048 121.828C187.709 121.595 187.445 121.246 187.254 120.781L178.78 101.96V130.271H182.589C183.097 130.271 183.488 130.408 183.763 130.683C184.038 130.937 184.176 131.244 184.176 131.604C184.176 131.984 184.028 132.312 183.731 132.587C183.456 132.862 183.065 133 182.557 133H171.544C171.036 133 170.645 132.873 170.37 132.619C170.095 132.344 169.957 132.016 169.957 131.635C169.957 131.276 170.095 130.958 170.37 130.683C170.645 130.408 171.026 130.271 171.512 130.271H175.733V98.564H171.957C171.47 98.564 171.089 98.437 170.814 98.1831C170.539 97.908 170.401 97.5907 170.401 97.231C170.401 96.8501 170.539 96.5221 170.814 96.2471C171.11 95.972 171.502 95.8345 171.988 95.8345H178.272C178.907 95.8345 179.394 96.2048 179.732 96.9453L189.286 117.988L198.49 96.7866C198.596 96.5116 198.775 96.2894 199.029 96.1201C199.283 95.9297 199.579 95.8345 199.918 95.8345H206.012C206.52 95.8345 206.911 95.972 207.186 96.2471C207.482 96.5221 207.63 96.8501 207.63 97.231C207.63 97.5907 207.482 97.908 207.186 98.1831C206.911 98.437 206.53 98.564 206.043 98.564H202.457V130.271H206.52C207.006 130.271 207.376 130.408 207.63 130.683C207.905 130.937 208.043 131.244 208.043 131.604C208.043 131.984 207.895 132.312 207.599 132.587Z" fill="black"/>
<path d="M65.3804 127.795C66.0363 128.43 66.3643 129.223 66.3643 130.175C66.3643 131.127 66.0363 131.921 65.3804 132.556C64.7456 133.19 63.9521 133.508 63 133.508C62.0267 133.508 61.2227 133.201 60.5879 132.587C59.9531 131.953 59.6357 131.149 59.6357 130.175C59.6357 129.202 59.9531 128.398 60.5879 127.763C61.2438 127.128 62.0479 126.811 63 126.811C63.9521 126.811 64.7456 127.139 65.3804 127.795Z" fill="black"/>
<path d="M100.398 132.619C100.123 132.873 99.7314 133 99.2236 133H88.1787C87.6709 133 87.2795 132.873 87.0044 132.619C86.7293 132.344 86.5918 132.016 86.5918 131.635C86.5918 131.276 86.7293 130.958 87.0044 130.683C87.2795 130.408 87.6603 130.271 88.147 130.271H90.8447L103.064 98.564H96.1768C95.6689 98.564 95.2775 98.437 95.0024 98.1831C94.7274 97.908 94.5898 97.5801 94.5898 97.1992C94.5898 96.8395 94.7274 96.5221 95.0024 96.2471C95.2775 95.972 95.6584 95.8345 96.145 95.8345H105.762C106.989 95.8345 107.846 96.5221 108.333 97.8975L119.822 130.271H122.329C122.816 130.271 123.186 130.408 123.44 130.683C123.715 130.937 123.853 131.244 123.853 131.604C123.853 131.984 123.704 132.312 123.408 132.587C123.133 132.862 122.752 133 122.266 133H110.649C110.142 133 109.74 132.862 109.443 132.587C109.168 132.312 109.031 131.984 109.031 131.604C109.031 131.244 109.168 130.937 109.443 130.683C109.718 130.408 110.099 130.271 110.586 130.271H116.489L113.093 120.559H97.7637L94.209 130.271H99.2554C99.742 130.271 100.123 130.408 100.398 130.683C100.694 130.958 100.842 131.276 100.842 131.635C100.842 132.016 100.694 132.344 100.398 132.619ZM105.825 98.9766L98.811 117.924H112.141L105.825 98.9766Z" fill="black"/>
</g>
</svg>
