<svg width="160" height="138" viewBox="0 0 160 138" fill="none" xmlns="http://www.w3.org/2000/svg">
<g clip-path="url(#clip0_100_2)">
<path d="M3.13234 19.7C3.13234 16.62 3.49234 13.98 4.21234 11.78C4.93234 9.58 5.89234 7.78 7.09234 6.38C8.33234 4.98 9.73234 3.96 11.2923 3.32C12.8923 2.64 14.5723 2.3 16.3323 2.3C20.3723 2.3 23.3923 3.76 25.3923 6.68C27.4323 9.6 28.4523 13.68 28.4523 18.92C28.4523 21.4 28.1123 23.64 27.4323 25.64C26.7923 27.64 25.8923 29.36 24.7323 30.8C23.6123 32.24 22.2523 33.36 20.6523 34.16C19.0923 34.92 17.4123 35.3 15.6123 35.3C13.8123 35.3 12.1523 34.9 10.6323 34.1C9.11234 33.26 7.79234 32.14 6.67234 30.74C5.59234 29.34 4.73234 27.7 4.09234 25.82C3.45234 23.9 3.13234 21.86 3.13234 19.7ZM15.4923 30.08C16.8123 30.08 18.0323 29.84 19.1523 29.36C20.2723 28.88 21.2323 28.16 22.0323 27.2C22.8723 26.24 23.5123 25.06 23.9523 23.66C24.4323 22.22 24.6723 20.56 24.6723 18.68C24.6723 15.24 23.9523 12.58 22.5123 10.7C21.1123 8.78 19.2123 7.82 16.8123 7.82C15.4923 7.82 14.2323 8.04 13.0323 8.48C11.8723 8.92 10.8523 9.6 9.97234 10.52C9.09234 11.44 8.39234 12.6 7.87234 14C7.35234 15.36 7.09234 16.96 7.09234 18.8C7.09234 20.24 7.31234 21.64 7.75234 23C8.19234 24.32 8.77234 25.52 9.49234 26.6C10.2523 27.64 11.1323 28.48 12.1323 29.12C13.1723 29.76 14.2923 30.08 15.4923 30.08Z" fill="black"/>
<path d="M48.2175 35.12C47.1775 35.12 46.4975 34.58 46.1775 33.5C45.8975 32.42 45.7575 31.04 45.7575 29.36C45.7575 28 45.7975 26.4 45.8775 24.56C45.9975 22.72 46.1175 20.8 46.2375 18.8C46.3975 16.8 46.5375 14.8 46.6575 12.8C46.7775 10.76 46.8575 8.88 46.8975 7.16C46.6975 6.72 46.4775 6.32 46.2375 5.96C46.0375 5.56 45.9375 4.96 45.9375 4.16C45.9375 3.8 45.9975 3.44 46.1175 3.08C46.2775 2.72 46.4775 2.38 46.7175 2.06C46.9575 1.74 47.1975 1.48 47.4375 1.28C47.7175 1.08 47.9775 0.979998 48.2175 0.979998C48.3375 0.979998 48.5375 1.04 48.8175 1.16C49.0975 1.24 49.3775 1.4 49.6575 1.64C49.9375 1.88 50.1775 2.2 50.3775 2.6C50.5775 2.96 50.6775 3.4 50.6775 3.92C50.6375 5.68 50.5575 7.56 50.4375 9.56C50.3175 11.52 50.1975 13.58 50.0775 15.74C49.9575 17.86 49.8575 20.02 49.7775 22.22C49.6975 24.42 49.6575 26.6 49.6575 28.76C49.7375 29.36 49.7975 30 49.8375 30.68C49.9175 31.36 49.9575 31.98 49.9575 32.54C49.9575 33.26 49.7775 33.88 49.4175 34.4C49.0575 34.88 48.6575 35.12 48.2175 35.12Z" fill="black"/>
<path d="M72.4843 33.14C72.4843 32.3 72.5843 31.6 72.7843 31.04C73.0243 30.48 73.3043 29.96 73.6243 29.48C73.9843 29 74.3243 28.56 74.6443 28.16C75.0043 27.72 75.3043 27.24 75.5443 26.72C76.0643 25.6 76.7043 24.24 77.4643 22.64C78.2243 21.04 78.9643 19.44 79.6843 17.84C80.4043 16.2 81.0243 14.64 81.5443 13.16C82.0643 11.68 82.3243 10.48 82.3243 9.56C82.3243 8.44 81.9043 7.66 81.0643 7.22C80.2243 6.74 79.3443 6.5 78.4243 6.5C77.2243 6.5 76.3043 6.74 75.6643 7.22C75.0643 7.66 74.5843 8.16 74.2243 8.72C73.9043 9.28 73.6243 9.8 73.3843 10.28C73.1443 10.72 72.7643 10.94 72.2443 10.94C71.9243 10.94 71.6643 10.82 71.4643 10.58C71.2643 10.3 71.1043 9.98 70.9843 9.62C70.9043 9.26 70.8443 8.92 70.8043 8.6C70.7643 8.24 70.7443 8 70.7443 7.88C70.7843 6.6 71.0843 5.52 71.6443 4.64C72.2043 3.76 72.8843 3.06 73.6843 2.54C74.5243 2.02 75.3843 1.66 76.2643 1.46C77.1843 1.22 77.9843 1.1 78.6643 1.1C79.5443 1.1 80.4243 1.28 81.3043 1.64C82.1843 1.96 82.9843 2.44 83.7043 3.08C84.4243 3.72 85.0043 4.5 85.4443 5.42C85.8843 6.34 86.1043 7.38 86.1043 8.54C86.1043 10.3 85.8243 12.14 85.2643 14.06C84.7043 15.94 84.0043 17.82 83.1643 19.7C82.3643 21.54 81.5043 23.34 80.5843 25.1C79.7043 26.82 78.9243 28.4 78.2443 29.84C78.5243 29.96 79.0043 30 79.6843 29.96C80.4043 29.92 81.1643 29.84 81.9643 29.72C82.8043 29.6 83.6043 29.46 84.3643 29.3C85.1643 29.14 85.7643 29 86.1643 28.88C86.2043 28.88 86.3243 28.86 86.5243 28.82C86.7243 28.74 86.8643 28.66 86.9443 28.58C87.1843 28.62 87.4243 28.78 87.6643 29.06C87.9043 29.3 88.1243 29.62 88.3243 30.02C88.5243 30.38 88.6843 30.76 88.8043 31.16C88.9243 31.52 88.9843 31.84 88.9843 32.12C88.9843 32.8 88.8243 33.34 88.5043 33.74C88.1843 34.1 87.8443 34.38 87.4843 34.58C87.1243 34.74 86.7843 34.84 86.4643 34.88C86.1843 34.92 86.0443 34.94 86.0443 34.94C85.7243 34.94 85.3443 34.92 84.9043 34.88C84.5043 34.8 84.1243 34.76 83.7643 34.76C82.2443 34.76 80.6443 34.84 78.9643 35C77.3243 35.2 75.7443 35.3 74.2243 35.3C73.8643 35.3 73.4843 35.1 73.0843 34.7C72.6843 34.3 72.4843 33.78 72.4843 33.14Z" fill="black"/>
<path d="M101.25 32.66C101.25 32.38 101.27 32.02 101.31 31.58C101.39 31.14 101.49 30.74 101.61 30.38C101.73 29.98 101.87 29.64 102.03 29.36C102.23 29.08 102.45 28.94 102.69 28.94C103.29 28.94 103.71 28.98 103.95 29.06C104.19 29.14 104.41 29.24 104.61 29.36C104.85 29.48 105.17 29.58 105.57 29.66C105.97 29.74 106.63 29.78 107.55 29.78C108.31 29.78 109.23 29.74 110.31 29.66C111.43 29.58 112.49 29.36 113.49 29C114.49 28.6 115.35 28.02 116.07 27.26C116.79 26.46 117.15 25.38 117.15 24.02C117.15 23.1 116.65 22.28 115.65 21.56C114.69 20.84 113.59 20.48 112.35 20.48C111.63 20.48 110.97 20.66 110.37 21.02C109.81 21.38 109.19 21.56 108.51 21.56C107.03 21.56 106.29 20.74 106.29 19.1C106.29 18.42 106.47 17.82 106.83 17.3C107.23 16.74 107.69 16.26 108.21 15.86C108.77 15.46 109.37 15.14 110.01 14.9C110.65 14.62 111.25 14.38 111.81 14.18C112.41 13.74 113.03 13.24 113.67 12.68C114.35 12.08 114.97 11.44 115.53 10.76C116.09 10.08 116.55 9.38 116.91 8.66C117.31 7.9 117.53 7.16 117.57 6.44C117.29 6.44 116.87 6.44 116.31 6.44C115.79 6.4 115.37 6.38 115.05 6.38C114.01 6.38 112.87 6.6 111.63 7.04C110.43 7.48 109.45 7.98 108.69 8.54C108.53 8.62 108.39 8.7 108.27 8.78C108.15 8.86 107.99 8.9 107.79 8.9C107.43 8.9 107.03 8.72 106.59 8.36C106.15 7.96 105.93 7.48 105.93 6.92C105.93 5.84 106.33 4.94 107.13 4.22C107.93 3.46 108.87 2.86 109.95 2.42C111.07 1.94 112.19 1.6 113.31 1.4C114.43 1.2 115.31 1.1 115.95 1.1C117.83 1.1 119.23 1.56 120.15 2.48C121.07 3.36 121.53 4.82 121.53 6.86C121.53 7.78 121.15 9.08 120.39 10.76C119.63 12.4 118.49 14.1 116.97 15.86C117.49 16.14 117.99 16.56 118.47 17.12C118.95 17.64 119.37 18.24 119.73 18.92C120.13 19.56 120.43 20.26 120.63 21.02C120.87 21.74 120.99 22.44 120.99 23.12C120.99 25.88 120.57 28.08 119.73 29.72C118.93 31.32 117.75 32.52 116.19 33.32C114.67 34.12 112.79 34.64 110.55 34.88C108.31 35.08 105.77 35.18 102.93 35.18C102.25 35.18 101.79 34.9 101.55 34.34C101.35 33.78 101.25 33.22 101.25 32.66Z" fill="black"/>
<path d="M141.149 24.32C138.869 24.2 137.149 23.32 135.989 21.68C134.829 20.04 134.249 17.86 134.249 15.14V14.78L134.549 8.3C134.589 7.66 134.749 7.08 135.029 6.56C135.349 6.04 135.829 5.78 136.469 5.78C137.109 5.78 137.549 6.2 137.789 7.04C138.029 7.88 138.149 8.88 138.149 10.04L137.969 14.6C137.969 15.68 138.149 16.54 138.509 17.18C138.869 17.78 139.369 18.24 140.009 18.56C140.689 18.84 141.489 19.02 142.409 19.1C143.369 19.18 144.449 19.22 145.649 19.22H147.749C147.789 18.7 147.829 18.06 147.869 17.3C147.909 16.5 147.949 15.5 147.989 14.3C148.029 13.1 148.049 11.68 148.049 10.04C148.089 8.36 148.109 6.38 148.109 4.1C148.149 3.06 148.349 2.3 148.709 1.82C149.069 1.34 149.529 1.1 150.089 1.1C150.329 1.1 150.549 1.2 150.749 1.4C150.989 1.6 151.189 1.86 151.349 2.18C151.509 2.46 151.629 2.78 151.709 3.14C151.829 3.46 151.889 3.76 151.889 4.04C151.889 4.08 151.889 4.22 151.889 4.46C151.889 4.66 151.869 5.28 151.829 6.32C151.789 7.32 151.749 8.92 151.709 11.12C151.669 13.28 151.629 16.34 151.589 20.3C151.669 20.5 151.749 20.76 151.829 21.08C151.949 21.4 152.009 21.78 152.009 22.22C152.009 22.46 151.929 22.74 151.769 23.06C151.649 23.34 151.529 23.58 151.409 23.78C151.329 24.26 151.269 24.74 151.229 25.22C151.229 25.66 151.229 25.98 151.229 26.18C151.229 27.38 151.269 28.42 151.349 29.3C151.429 30.14 151.469 31.12 151.469 32.24C151.469 33.36 151.209 34.26 150.689 34.94C150.169 35.58 149.509 35.9 148.709 35.9C148.389 35.9 148.069 35.64 147.749 35.12C147.429 34.64 147.269 34.06 147.269 33.38V24.5L141.149 24.32Z" fill="black"/>
<path d="M5.47328 77.28C5.47328 76.6 5.69328 75.96 6.13328 75.36C6.57328 74.72 7.05328 74.4 7.57328 74.4C7.93328 74.4 8.23328 74.5 8.47328 74.7C8.75328 74.86 9.05328 75.06 9.37328 75.3C9.73328 75.5 10.1333 75.7 10.5733 75.9C11.0533 76.06 11.6533 76.14 12.3733 76.14C13.5333 76.14 14.6333 76.08 15.6733 75.96C16.7133 75.8 17.6133 75.54 18.3733 75.18C19.1333 74.78 19.7333 74.24 20.1733 73.56C20.6133 72.88 20.8333 72.02 20.8333 70.98C20.8333 70.7 20.7133 70.26 20.4733 69.66C20.2733 69.02 19.9333 68.4 19.4533 67.8C19.0133 67.16 18.4333 66.6 17.7133 66.12C16.9933 65.64 16.1333 65.4 15.1333 65.4C14.1733 65.4 13.2933 65.6 12.4933 66C11.7333 66.4 11.0733 66.76 10.5133 67.08C9.83328 67.08 9.15328 66.96 8.47328 66.72C7.83328 66.48 7.51328 65.86 7.51328 64.86C7.51328 64.54 7.53328 64.3 7.57328 64.14C7.73328 63.06 7.83328 61.66 7.87328 59.94C7.91328 58.18 7.97328 56.44 8.05328 54.72C8.17328 52.96 8.35328 51.4 8.59328 50.04C8.87328 48.64 9.33328 47.78 9.97328 47.46C10.8133 47.38 11.6533 47.34 12.4933 47.34C13.3733 47.3 14.2333 47.28 15.0733 47.28C16.6733 47.28 18.2733 47.22 19.8733 47.1C21.4733 46.94 23.0733 46.86 24.6733 46.86C25.4733 46.86 26.0133 47.24 26.2933 48C26.6133 48.72 26.7733 49.48 26.7733 50.28C26.7733 51.16 26.5733 51.86 26.1733 52.38C25.8133 52.86 25.3733 53.1 24.8533 53.1C24.3333 53.1 23.8733 52.98 23.4733 52.74C23.1133 52.46 22.7133 52.32 22.2733 52.32C21.8733 52.28 21.3533 52.24 20.7133 52.2C20.0733 52.16 19.3733 52.14 18.6133 52.14C17.8533 52.1 17.0733 52.08 16.2733 52.08C15.5133 52.04 14.8133 52.02 14.1733 52.02C13.6933 52.02 13.2733 52.04 12.9133 52.08C12.5533 52.08 12.2733 52.08 12.0733 52.08L11.8333 59.82C12.3933 59.82 12.9333 59.74 13.4533 59.58C14.0133 59.42 14.6133 59.34 15.2533 59.34C17.0133 59.34 18.4733 59.64 19.6333 60.24C20.8333 60.84 21.7933 61.66 22.5133 62.7C23.2333 63.7 23.7333 64.9 24.0133 66.3C24.3333 67.66 24.4933 69.1 24.4933 70.62C24.4933 72.5 24.1933 74.14 23.5933 75.54C23.0333 76.94 22.2533 78.1 21.2533 79.02C20.2533 79.94 19.0533 80.62 17.6533 81.06C16.2933 81.5 14.8133 81.72 13.2133 81.72C12.5733 81.72 11.8133 81.66 10.9333 81.54C10.0533 81.46 9.19328 81.26 8.35328 80.94C7.55328 80.62 6.87328 80.18 6.31328 79.62C5.75328 79.02 5.47328 78.24 5.47328 77.28Z" fill="black"/>
<path d="M45.653 75.48C45.573 75.2 45.533 74.9 45.533 74.58C45.533 74.22 45.533 73.9 45.533 73.62C45.573 72.18 45.773 70.78 46.133 69.42C46.533 68.02 47.093 66.8 47.813 65.76C48.573 64.72 49.473 63.88 50.513 63.24C51.593 62.6 52.833 62.28 54.233 62.28C56.113 62.28 57.513 62.86 58.433 64.02C59.353 65.18 59.813 66.54 59.813 68.1C59.813 69.94 59.473 71.66 58.793 73.26C58.113 74.82 57.193 76.2 56.033 77.4C54.913 78.56 53.613 79.48 52.133 80.16C50.693 80.8 49.213 81.12 47.693 81.12C45.733 81.12 44.033 80.88 42.593 80.4C41.193 79.92 40.033 79.14 39.113 78.06C38.233 76.94 37.573 75.48 37.133 73.68C36.733 71.88 36.533 69.66 36.533 67.02C36.533 66.14 36.673 65.04 36.953 63.72C37.273 62.4 37.673 61 38.153 59.52C38.673 58.04 39.233 56.56 39.833 55.08C40.433 53.6 41.033 52.26 41.633 51.06C42.273 49.86 42.873 48.9 43.433 48.18C43.993 47.42 44.473 47.04 44.873 47.04C45.633 47.04 46.113 47.32 46.313 47.88C46.553 48.44 46.673 49.1 46.673 49.86C46.673 51.06 46.353 52.4 45.713 53.88C45.073 55.32 44.353 56.8 43.553 58.32C42.793 59.84 42.093 61.36 41.453 62.88C40.813 64.36 40.493 65.72 40.493 66.96C40.493 68.04 40.553 69.06 40.673 70.02C40.793 70.94 41.033 71.78 41.393 72.54C41.753 73.3 42.273 73.94 42.953 74.46C43.633 74.98 44.533 75.32 45.653 75.48ZM49.493 75.24C50.333 75.16 51.153 74.94 51.953 74.58C52.753 74.22 53.453 73.76 54.053 73.2C54.693 72.6 55.193 71.94 55.553 71.22C55.953 70.46 56.153 69.66 56.153 68.82C56.153 68.38 55.933 68.06 55.493 67.86C55.053 67.66 54.613 67.56 54.173 67.56C53.213 67.56 52.413 67.84 51.773 68.4C51.173 68.92 50.693 69.58 50.333 70.38C50.013 71.14 49.793 71.96 49.673 72.84C49.553 73.72 49.493 74.52 49.493 75.24Z" fill="black"/>
<path d="M75.3556 78.3C75.3556 78.22 75.3556 78.1 75.3556 77.94C75.3556 77.74 75.3956 77.42 75.4756 76.98C75.5156 76.82 75.7156 76.22 76.0756 75.18C76.4356 74.1 76.8956 72.78 77.4556 71.22C78.0556 69.62 78.6956 67.9 79.3756 66.06C80.0956 64.18 80.7956 62.36 81.4756 60.6C82.1556 58.8 82.7756 57.16 83.3356 55.68C83.9356 54.2 84.4156 53.06 84.7756 52.26L74.9956 52.5C74.6356 52.5 74.2156 52.48 73.7356 52.44C73.2556 52.36 72.7956 52.22 72.3556 52.02C71.9156 51.82 71.5356 51.52 71.2156 51.12C70.9356 50.68 70.7956 50.1 70.7956 49.38C70.7956 48.82 70.9556 48.28 71.2756 47.76C71.5956 47.24 72.0556 46.98 72.6556 46.98C73.0156 46.98 73.3556 46.98 73.6756 46.98C74.0356 46.98 74.4956 47 75.0556 47.04C75.6156 47.04 76.3556 47.04 77.2756 47.04C78.2356 47.04 79.4956 47.04 81.0556 47.04H86.8156C86.9356 46.96 87.0956 46.9 87.2956 46.86C87.4956 46.78 87.6556 46.74 87.7756 46.74C88.3356 46.74 88.7356 47.08 88.9756 47.76C89.2156 48.4 89.3356 49.06 89.3356 49.74C89.3356 50.1 89.2356 50.68 89.0356 51.48C88.8756 52.28 88.5356 53.42 88.0156 54.9C87.5356 56.38 86.8556 58.28 85.9756 60.6C85.0956 62.88 83.9556 65.7 82.5556 69.06C82.3556 69.46 82.1156 70 81.8356 70.68C81.5556 71.32 81.2556 72.02 80.9356 72.78C80.6556 73.54 80.3956 74.32 80.1556 75.12C79.9556 75.92 79.8156 76.64 79.7356 77.28C79.5756 78.32 79.3356 79.26 79.0156 80.1C78.6956 80.9 78.0156 81.3 76.9756 81.3C76.2956 81.3 75.8556 81 75.6556 80.4C75.4556 79.76 75.3556 79.06 75.3556 78.3Z" fill="black"/>
<path d="M103.619 75.12C103.619 74.16 103.699 73.1 103.859 71.94C104.059 70.74 104.339 69.56 104.699 68.4C105.059 67.2 105.519 66.08 106.079 65.04C106.639 64 107.319 63.14 108.119 62.46C107.439 61.58 106.839 60.6 106.319 59.52C105.839 58.44 105.599 57.26 105.599 55.98C105.599 54.18 105.979 52.7 106.739 51.54C107.539 50.34 108.499 49.4 109.619 48.72C110.779 48 111.999 47.5 113.279 47.22C114.599 46.9 115.799 46.74 116.879 46.74C117.639 46.74 118.299 46.96 118.859 47.4C119.459 47.84 119.959 48.42 120.359 49.14C120.799 49.82 121.119 50.58 121.319 51.42C121.559 52.26 121.679 53.08 121.679 53.88C121.679 54.92 121.479 55.76 121.079 56.4C120.719 57 120.199 57.46 119.519 57.78C119.239 58.14 118.879 58.58 118.439 59.1C118.039 59.62 117.599 60.14 117.119 60.66C116.679 61.18 116.219 61.7 115.739 62.22C115.259 62.7 114.819 63.08 114.419 63.36C114.779 64 115.119 64.8 115.439 65.76C115.799 66.72 116.099 67.72 116.339 68.76C116.619 69.76 116.839 70.76 116.999 71.76C117.199 72.72 117.299 73.52 117.299 74.16C117.299 76.56 116.719 78.42 115.559 79.74C114.399 81.06 112.719 81.72 110.519 81.72C109.639 81.72 108.779 81.64 107.939 81.48C107.099 81.32 106.359 81 105.719 80.52C105.079 80.04 104.559 79.38 104.159 78.54C103.799 77.66 103.619 76.52 103.619 75.12ZM111.659 59.28C112.139 59.28 112.659 59.02 113.219 58.5C113.819 57.98 114.419 57.38 115.019 56.7C115.619 56.02 116.199 55.32 116.759 54.6C117.359 53.88 117.879 53.3 118.319 52.86C118.199 52.58 117.879 52.42 117.359 52.38C116.879 52.3 116.419 52.26 115.979 52.26C115.459 52.26 114.839 52.34 114.119 52.5C113.399 52.62 112.699 52.84 112.019 53.16C111.379 53.44 110.819 53.82 110.339 54.3C109.859 54.78 109.619 55.34 109.619 55.98C109.619 56.1 109.699 56.34 109.859 56.7C110.059 57.06 110.259 57.44 110.459 57.84C110.699 58.2 110.919 58.54 111.119 58.86C111.359 59.14 111.539 59.28 111.659 59.28ZM107.399 73.56C107.399 74.52 107.599 75.16 107.999 75.48C108.439 75.8 109.139 75.96 110.099 75.96C110.859 75.96 111.579 75.88 112.259 75.72C112.979 75.52 113.339 75.16 113.339 74.64C113.339 74.36 113.259 73.78 113.099 72.9C112.939 72.02 112.739 71.1 112.499 70.14C112.259 69.18 111.999 68.34 111.719 67.62C111.439 66.86 111.159 66.48 110.879 66.48C110.479 66.48 110.079 66.78 109.679 67.38C109.279 67.98 108.899 68.68 108.539 69.48C108.219 70.28 107.939 71.08 107.699 71.88C107.499 72.64 107.399 73.2 107.399 73.56Z" fill="black"/>
<path d="M147.66 79.2C147.7 77.96 147.78 76.78 147.9 75.66C148.06 74.54 148.22 73.4 148.38 72.24C148.54 71.04 148.68 69.82 148.8 68.58C148.92 67.3 148.98 65.92 148.98 64.44C148.02 64.8 147.1 65.12 146.22 65.4C145.38 65.64 144.64 65.76 144 65.76C142.8 65.76 141.54 65.58 140.22 65.22C138.9 64.86 137.7 64.28 136.62 63.48C135.54 62.64 134.64 61.58 133.92 60.3C133.2 59.02 132.84 57.44 132.84 55.56C132.84 54.16 133.24 52.92 134.04 51.84C134.84 50.76 135.78 49.86 136.86 49.14C137.98 48.42 139.14 47.88 140.34 47.52C141.54 47.12 142.54 46.92 143.34 46.92C144.42 46.92 145.44 47.12 146.4 47.52C147.36 47.92 148.2 48.52 148.92 49.32C149.64 50.08 150.2 51.04 150.6 52.2C151 53.32 151.2 54.6 151.2 56.04C151.2 56.24 151.28 56.4 151.44 56.52C151.64 56.64 151.84 56.82 152.04 57.06C152.28 57.3 152.48 57.64 152.64 58.08C152.84 58.52 152.94 59.12 152.94 59.88C152.94 60.72 152.92 61.54 152.88 62.34C152.84 63.14 152.78 63.9 152.7 64.62C152.58 66.14 152.48 67.92 152.4 69.96C152.36 72 152.26 73.96 152.1 75.84C151.98 77.72 151.78 79.32 151.5 80.64C151.22 81.92 150.8 82.56 150.24 82.56C150.12 82.56 149.9 82.48 149.58 82.32C149.3 82.16 149.02 81.94 148.74 81.66C148.46 81.38 148.2 81.04 147.96 80.64C147.76 80.2 147.66 79.72 147.66 79.2ZM144.12 60.42C144.4 60.42 144.78 60.4 145.26 60.36C145.78 60.32 146.28 60.26 146.76 60.18C147.28 60.06 147.72 59.92 148.08 59.76C148.44 59.56 148.62 59.32 148.62 59.04V58.8C148.62 57.96 148.5 57.14 148.26 56.34C148.06 55.54 147.74 54.82 147.3 54.18C146.86 53.54 146.3 53.04 145.62 52.68C144.98 52.28 144.22 52.08 143.34 52.08C142.74 52.08 142.06 52.16 141.3 52.32C140.54 52.48 139.82 52.74 139.14 53.1C138.46 53.46 137.88 53.92 137.4 54.48C136.96 55 136.74 55.62 136.74 56.34C136.74 56.98 137 57.56 137.52 58.08C138.04 58.56 138.68 58.98 139.44 59.34C140.2 59.7 141 59.98 141.84 60.18C142.68 60.34 143.44 60.42 144.12 60.42Z" fill="black"/>
<path d="M16.4795 109.96C15.4795 109.96 14.7195 109.68 14.1995 109.12C13.6795 108.56 13.4195 107.46 13.4195 105.82C13.4195 105.34 13.5395 104.88 13.7795 104.44C14.0195 104 14.3195 103.62 14.6795 103.3C15.0395 102.94 15.4195 102.66 15.8195 102.46C16.2595 102.26 16.6395 102.16 16.9595 102.16C17.1595 102.16 17.4795 102.52 17.9195 103.24C18.3595 103.92 18.5795 104.88 18.5795 106.12C18.5795 107.4 18.3595 108.36 17.9195 109C17.5195 109.64 17.0395 109.96 16.4795 109.96ZM13.2395 123.82C13.2395 122.78 13.4395 121.9 13.8395 121.18C14.2795 120.42 14.9595 120.04 15.8795 120.04C16.1995 120.04 16.4995 120.16 16.7795 120.4C17.0995 120.64 17.3795 120.96 17.6195 121.36C17.8595 121.72 18.0395 122.12 18.1595 122.56C18.3195 123 18.3995 123.42 18.3995 123.82C18.3995 124.74 18.1195 125.58 17.5595 126.34C16.9995 127.1 16.3995 127.48 15.7595 127.48C14.8395 127.48 14.1795 127.18 13.7795 126.58C13.4195 125.98 13.2395 125.06 13.2395 123.82Z" fill="black"/>
<path d="M45.2395 123.82C45.2395 122.78 45.4395 121.9 45.8395 121.18C46.2795 120.42 46.9595 120.04 47.8795 120.04C48.1995 120.04 48.4995 120.16 48.7795 120.4C49.0995 120.64 49.3795 120.96 49.6195 121.36C49.8595 121.72 50.0395 122.12 50.1595 122.56C50.3195 123 50.3995 123.42 50.3995 123.82C50.3995 124.74 50.1195 125.58 49.5595 126.34C48.9995 127.1 48.3995 127.48 47.7595 127.48C46.8395 127.48 46.1795 127.18 45.7795 126.58C45.4195 125.98 45.2395 125.06 45.2395 123.82Z" fill="black"/>
<path d="M66.023 125.14C66.023 124.46 66.103 123.82 66.263 123.22C66.463 122.58 66.703 122 66.983 121.48C67.303 120.6 67.643 119.6 68.003 118.48C68.363 117.36 68.803 116.08 69.323 114.64C69.283 114.52 69.263 114.38 69.263 114.22C69.263 114.06 69.263 113.94 69.263 113.86C69.263 113.06 69.363 112.4 69.563 111.88C69.763 111.32 70.183 110.84 70.823 110.44L76.043 98.2C76.283 97.72 76.543 97.18 76.823 96.58C77.103 95.98 77.403 95.44 77.723 94.96C78.043 94.44 78.383 94 78.743 93.64C79.103 93.28 79.483 93.1 79.883 93.1C81.003 93.1 82.023 93.74 82.943 95.02C83.863 96.26 84.703 97.84 85.463 99.76C86.263 101.68 86.983 103.8 87.623 106.12C88.263 108.44 88.843 110.66 89.363 112.78C89.923 114.86 90.423 116.7 90.863 118.3C91.343 119.9 91.803 120.96 92.243 121.48C92.523 121.84 92.763 122.14 92.963 122.38C93.163 122.58 93.323 122.8 93.443 123.04C93.563 123.24 93.643 123.5 93.683 123.82C93.763 124.1 93.803 124.48 93.803 124.96C93.803 125.6 93.703 126.1 93.503 126.46C93.303 126.78 93.063 127.02 92.783 127.18C92.543 127.38 92.263 127.5 91.943 127.54C91.663 127.58 91.423 127.6 91.223 127.6C90.823 127.6 90.443 127.38 90.083 126.94C89.723 126.46 89.383 125.9 89.063 125.26C88.783 124.62 88.523 123.94 88.283 123.22C88.083 122.5 87.923 121.88 87.803 121.36C87.483 120.24 87.203 119.32 86.963 118.6C86.763 117.88 86.543 117.32 86.303 116.92C86.103 116.52 85.843 116.24 85.523 116.08C85.243 115.92 84.843 115.84 84.323 115.84H74.243C73.963 115.84 73.723 115.86 73.523 115.9C73.363 115.94 73.203 116.06 73.043 116.26C72.923 116.42 72.803 116.66 72.683 116.98C72.563 117.3 72.403 117.74 72.203 118.3L70.343 123.64C70.263 124.44 70.123 125.08 69.923 125.56C69.723 126.04 69.483 126.42 69.203 126.7C68.963 126.94 68.723 127.1 68.483 127.18C68.243 127.3 68.083 127.36 68.003 127.36C67.363 127.36 66.863 127.22 66.503 126.94C66.183 126.62 66.023 126.02 66.023 125.14ZM75.083 110.26C76.243 110.3 77.283 110.34 78.203 110.38C79.123 110.38 80.103 110.38 81.143 110.38C81.623 110.38 82.123 110.38 82.643 110.38C83.163 110.38 83.723 110.36 84.323 110.32C84.043 109.52 83.683 108.6 83.243 107.56C82.843 106.48 82.383 105.4 81.863 104.32L79.643 99.58C79.443 99.7 79.143 100.18 78.743 101.02C78.343 101.86 77.903 102.84 77.423 103.96C76.983 105.08 76.543 106.22 76.103 107.38C75.663 108.54 75.323 109.5 75.083 110.26Z" fill="black"/>
<path d="M105.457 127.3C105.137 127.3 104.817 127.28 104.497 127.24C104.217 127.24 103.957 127.06 103.717 126.7C103.517 126.34 103.337 125.76 103.177 124.96C103.057 124.16 102.997 122.98 102.997 121.42V115.06C102.917 114.86 102.817 114.58 102.697 114.22C102.577 113.82 102.517 113.5 102.517 113.26C102.517 112.46 102.597 111.76 102.757 111.16C102.917 110.52 102.997 109.74 102.997 108.82C102.997 107.22 103.017 105.6 103.057 103.96C103.137 102.32 103.277 100.84 103.477 99.52C103.677 98.16 103.977 97.06 104.377 96.22C104.817 95.38 105.397 94.94 106.117 94.9C106.357 94.9 106.517 94.94 106.597 95.02C106.717 95.1 106.897 95.14 107.137 95.14L108.517 94.6C109.077 94.36 109.737 94.1 110.497 93.82C111.257 93.5 112.117 93.36 113.077 93.4C116.597 93.4 119.217 94.2 120.937 95.8C122.697 97.36 123.577 99.54 123.577 102.34C123.577 104.7 123.197 106.74 122.437 108.46C121.717 110.18 120.657 111.6 119.257 112.72C117.897 113.84 116.237 114.68 114.277 115.24C112.357 115.76 110.197 116.02 107.797 116.02C107.437 116.02 107.117 115.96 106.837 115.84C106.877 116.16 106.897 116.48 106.897 116.8C106.937 117.12 106.977 117.6 107.017 118.24C107.057 118.88 107.117 119.76 107.197 120.88C107.277 121.96 107.377 123.42 107.497 125.26C107.497 126.18 107.237 126.76 106.717 127C106.237 127.2 105.817 127.3 105.457 127.3ZM106.777 109.9C107.217 110.06 107.637 110.18 108.037 110.26C108.477 110.34 108.977 110.38 109.537 110.38C110.897 110.38 112.197 110.24 113.437 109.96C114.717 109.68 115.837 109.26 116.797 108.7C117.757 108.14 118.517 107.46 119.077 106.66C119.637 105.82 119.917 104.86 119.917 103.78C119.917 102.26 119.417 101 118.417 100C117.417 98.96 115.717 98.44 113.317 98.44C112.837 98.44 112.277 98.5 111.637 98.62C111.037 98.7 110.437 98.82 109.837 98.98C109.237 99.14 108.697 99.34 108.217 99.58C107.737 99.78 107.417 99.98 107.257 100.18C107.257 100.26 107.237 100.42 107.197 100.66C107.197 100.86 107.177 101.3 107.137 101.98C107.097 102.66 107.037 103.64 106.957 104.92C106.917 106.16 106.857 107.82 106.777 109.9Z" fill="black"/>
<path d="M130.322 123.76C130.322 123.16 130.342 122.56 130.382 121.96C130.462 121.36 130.502 120.82 130.502 120.34C130.582 115.62 130.642 111.58 130.682 108.22C130.722 104.82 130.822 102.04 130.982 99.88C131.142 97.68 131.422 96.06 131.822 95.02C132.222 93.98 132.842 93.46 133.682 93.46C134.242 93.46 134.682 93.78 135.002 94.42C135.322 95.02 135.482 95.66 135.482 96.34V96.64C135.642 98.32 136.662 101.26 138.542 105.46C138.782 106.06 139.102 106.84 139.502 107.8C139.942 108.76 140.362 109.74 140.762 110.74C141.202 111.7 141.602 112.58 141.962 113.38C142.362 114.18 142.662 114.7 142.862 114.94C143.102 114.94 143.382 114.8 143.702 114.52C144.022 114.2 144.462 113.56 145.022 112.6C145.302 112.12 145.782 111.28 146.462 110.08C147.182 108.84 147.962 107.44 148.802 105.88C149.642 104.28 150.502 102.64 151.382 100.96C152.262 99.28 153.042 97.74 153.722 96.34C153.842 95.66 154.102 95.06 154.502 94.54C154.942 93.98 155.362 93.7 155.762 93.7C156.482 93.7 157.022 93.98 157.382 94.54C157.782 95.1 157.982 95.86 157.982 96.82C157.982 98.74 157.922 100.58 157.802 102.34C157.722 104.06 157.642 105.88 157.562 107.8L157.082 125.32C157.042 126.12 156.802 126.68 156.362 127C155.962 127.36 155.662 127.54 155.462 127.54C155.422 127.54 155.262 127.5 154.982 127.42C154.702 127.34 154.382 127.18 154.022 126.94C153.702 126.7 153.402 126.38 153.122 125.98C152.842 125.58 152.702 125.06 152.702 124.42C152.702 123.54 152.862 122.7 153.182 121.9C153.502 121.1 153.662 120.36 153.662 119.68L153.902 104.8C153.582 105.28 153.282 105.82 153.002 106.42C152.722 107.02 152.402 107.64 152.042 108.28L151.022 110.14C150.302 111.46 149.582 112.82 148.862 114.22C148.142 115.58 147.422 116.82 146.702 117.94C145.982 119.06 145.262 119.98 144.542 120.7C143.862 121.42 143.202 121.78 142.562 121.78C142.202 121.78 141.742 121.4 141.182 120.64C140.622 119.88 140.062 119 139.502 118C138.982 116.96 138.482 115.94 138.002 114.94C137.522 113.9 137.182 113.12 136.982 112.6L134.522 106.48C134.442 107.28 134.382 108.26 134.342 109.42C134.342 110.54 134.322 111.74 134.282 113.02C134.242 114.3 134.222 115.62 134.222 116.98C134.222 118.34 134.222 119.64 134.222 120.88C134.382 121.8 134.482 122.38 134.522 122.62C134.562 122.82 134.582 122.94 134.582 122.98C134.582 124.26 134.442 125.28 134.162 126.04C133.922 126.76 133.482 127.12 132.842 127.12C131.802 127.12 131.122 126.8 130.802 126.16C130.482 125.48 130.322 124.68 130.322 123.76Z" fill="black"/>
</g>
</svg>
