<svg width="170" height="138" viewBox="0 0 170 138" fill="none" xmlns="http://www.w3.org/2000/svg">
<desc>{"colon":0.6,"dot":0.6}</desc>
<g clip-path="url(#clip0_100_2)">
<path d="M27.4165 9.222C30.0805 13.11 31.4125 17.736 31.4125 23.1C31.4125 28.464 30.0805 33.09 27.4165 36.978C24.7525 40.866 21.2785 42.81 16.9945 42.81C12.7105 42.81 9.23652 40.866 6.57252 36.978C3.90852 33.09 2.57652 28.464 2.57652 23.1C2.57652 17.736 3.90852 13.11 6.57252 9.222C9.23652 5.334 12.7105 3.39 16.9945 3.39C21.2785 3.39 24.7525 5.334 27.4165 9.222ZM24.5005 34.44C26.5165 31.2 27.5245 27.42 27.5245 23.1C27.5245 18.78 26.5165 15.018 24.5005 11.814C22.5205 8.574 20.0185 6.954 16.9945 6.954C13.9705 6.954 11.4505 8.574 9.43452 11.814C7.45452 15.018 6.46452 18.78 6.46452 23.1C6.46452 27.42 7.45452 31.2 9.43452 34.44C11.4505 37.644 13.9705 39.246 16.9945 39.246C20.0185 39.246 22.5205 37.644 24.5005 34.44Z" fill="black"/>
<path d="M56.1986 30.93C56.2346 33.486 56.2706 35.538 56.3066 37.086C56.3786 38.634 56.4146 39.678 56.4146 40.218C56.4146 40.758 56.2166 41.28 55.8206 41.784C55.4246 42.288 54.9206 42.54 54.3086 42.54C53.6966 42.54 53.1926 42.288 52.7966 41.784C52.4006 41.28 52.2026 40.758 52.2026 40.218C52.2026 39.678 52.2206 38.634 52.2566 37.086C52.4006 33.486 52.4726 28.806 52.4726 23.046V9.492L49.8806 12.732C49.4486 13.272 48.9446 13.92 48.3686 14.676C47.8286 15.396 47.4146 15.936 47.1266 16.296C46.8386 16.656 46.4966 17.07 46.1006 17.538C45.7406 18.006 45.4526 18.348 45.2366 18.564C45.0566 18.78 44.8406 18.996 44.5886 19.212C44.1206 19.572 43.6526 19.752 43.1846 19.752C42.7166 19.752 42.3206 19.572 41.9966 19.212C41.6726 18.852 41.5106 18.492 41.5106 18.132C41.5106 17.736 41.5466 17.43 41.6186 17.214C41.7266 16.962 41.9426 16.638 42.2666 16.242C42.5906 15.81 42.9146 15.414 43.2386 15.054C43.5626 14.694 44.0846 14.118 44.8046 13.326C45.5606 12.498 46.2986 11.652 47.0186 10.788C47.7746 9.924 48.5846 8.934 49.4486 7.818C50.3486 6.666 50.9966 5.856 51.3926 5.388C52.2926 4.236 53.1386 3.66 53.9306 3.66C54.7586 3.66 55.3706 3.912 55.7666 4.416C56.1986 4.92 56.4146 5.442 56.4146 5.982C56.4146 6.522 56.3966 7.584 56.3606 9.168C56.2166 12.876 56.1446 16.8 56.1446 20.94C56.1446 25.044 56.1626 28.374 56.1986 30.93Z" fill="black"/>
<path d="M84.626 38.544L94.886 38.274C95.678 38.274 96.326 38.472 96.83 38.868C97.334 39.264 97.586 39.732 97.586 40.272C97.586 41.604 96.686 42.27 94.886 42.27L84.626 42L75.392 42.27C73.592 42.27 72.692 41.442 72.692 39.786C72.692 38.454 73.196 37.158 74.204 35.898C75.212 34.602 76.04 33.594 76.688 32.874C77.336 32.154 78.416 30.984 79.928 29.364C81.44 27.708 82.484 26.574 83.06 25.962C83.636 25.314 84.266 24.63 84.95 23.91C85.634 23.154 86.12 22.614 86.408 22.29C86.696 21.93 87.146 21.372 87.758 20.616C88.406 19.86 88.892 19.23 89.216 18.726C89.54 18.186 89.9 17.574 90.296 16.89C91.052 15.594 91.43 14.388 91.43 13.272C91.43 11.472 90.782 9.978 89.486 8.79C88.19 7.566 86.714 6.954 85.058 6.954C83.438 6.954 82.106 7.26 81.062 7.872C80.054 8.448 79.316 9.096 78.848 9.816C77.66 11.724 76.598 12.678 75.662 12.678C75.158 12.678 74.726 12.516 74.366 12.192C74.042 11.832 73.88 11.4 73.88 10.896C73.88 9.492 74.924 7.89 77.012 6.09C79.1 4.29 81.728 3.39 84.896 3.39C88.064 3.39 90.584 4.38 92.456 6.36C94.364 8.34 95.318 10.518 95.318 12.894C95.318 15.27 94.616 17.52 93.212 19.644C92.096 21.264 90.8 22.866 89.324 24.45C87.884 26.034 86.822 27.222 86.138 28.014C85.49 28.77 84.374 29.976 82.79 31.632C81.206 33.288 79.946 34.656 79.01 35.736C78.074 36.816 77.444 37.752 77.12 38.544H84.626Z" fill="black"/>
<path d="M118.072 4.2L126.28 3.984C128.44 3.984 129.52 4.812 129.52 6.468C129.52 7.224 129.178 8.034 128.494 8.898C127.81 9.726 126.586 11.022 124.822 12.786C123.058 14.55 121.456 16.314 120.016 18.078C123.508 18.798 126.208 20.238 128.116 22.398C130.024 24.558 130.978 27.222 130.978 30.39C130.978 33.558 129.826 36.42 127.522 38.976C125.254 41.532 122.122 42.81 118.126 42.81C115.102 42.81 112.438 41.982 110.134 40.326C107.866 38.67 106.732 37.122 106.732 35.682C106.732 35.286 106.858 34.926 107.11 34.602C107.362 34.278 107.668 34.116 108.028 34.116C108.424 34.116 108.748 34.224 109 34.44C109.288 34.62 109.594 34.926 109.918 35.358C110.278 35.754 110.674 36.15 111.106 36.546C111.538 36.942 111.988 37.32 112.456 37.68C112.924 38.004 113.716 38.346 114.832 38.706C115.948 39.066 117.19 39.246 118.558 39.246C121.042 39.246 123.076 38.382 124.66 36.654C126.28 34.926 127.09 32.766 127.09 30.174C127.09 27.582 126.172 25.476 124.336 23.856C122.5 22.2 120.34 21.3 117.856 21.156C116.74 22.272 115.822 23.046 115.102 23.478C114.382 23.91 113.644 24.126 112.888 24.126C112.132 24.126 111.538 23.928 111.106 23.532C110.71 23.1 110.512 22.524 110.512 21.804C110.512 21.048 110.962 20.274 111.862 19.482C112.762 18.654 114.112 18.06 115.912 17.7C119.044 14.244 121.852 10.968 124.336 7.872L118.072 7.656L109.864 7.926C109.072 7.926 108.442 7.746 107.974 7.386C107.506 7.026 107.272 6.54 107.272 5.928C107.272 5.316 107.506 4.83 107.974 4.47C108.442 4.11 109.072 3.93 109.864 3.93C109.864 3.93 112.6 4.02 118.072 4.2Z" fill="black"/>
<path d="M160.719 29.688L160.989 39.84C160.989 40.668 160.791 41.334 160.395 41.838C160.035 42.306 159.531 42.54 158.883 42.54C158.235 42.54 157.713 42.306 157.317 41.838C156.957 41.334 156.777 40.668 156.777 39.84L156.993 29.58L152.997 29.526L141.171 29.742C140.415 29.742 139.821 29.544 139.389 29.148C138.957 28.716 138.741 28.266 138.741 27.798C138.741 27.33 138.759 26.97 138.795 26.718C138.867 26.43 139.011 26.088 139.227 25.692C139.479 25.296 139.713 24.918 139.929 24.558C140.181 24.198 140.595 23.658 141.171 22.938C141.747 22.182 142.305 21.48 142.845 20.832C143.421 20.148 145.167 17.952 148.083 14.244L154.401 6.198C155.697 4.506 156.957 3.66 158.181 3.66C160.053 3.66 160.989 4.74 160.989 6.9C160.989 7.116 160.971 8.034 160.935 9.654C160.791 13.434 160.719 18.87 160.719 25.962L163.797 25.8C164.589 25.8 165.237 25.98 165.741 26.34C166.245 26.7 166.497 27.186 166.497 27.798C166.497 28.41 166.245 28.896 165.741 29.256C165.237 29.616 164.733 29.796 164.229 29.796C163.761 29.796 162.591 29.76 160.719 29.688ZM143.601 26.07H157.047C157.119 23.442 157.155 20.22 157.155 16.404L157.047 8.844C155.463 10.68 153.123 13.578 150.027 17.538C146.967 21.498 144.825 24.342 143.601 26.07Z" fill="black"/>
<path d="M24.7977 53.926L17.1297 53.656C15.1857 53.656 13.6017 53.692 12.3777 53.764C11.1537 53.836 10.3257 53.872 9.89373 53.872C10.1097 55.708 10.2177 57.292 10.2177 58.624C10.2177 60.82 10.1097 62.89 9.89373 64.834L9.78573 65.806C12.3417 63.862 14.9877 62.89 17.7237 62.89C21.5397 62.89 24.4737 64.078 26.5257 66.454C28.6137 68.83 29.6577 71.836 29.6577 75.472C29.6577 79.072 28.4697 82.204 26.0937 84.868C23.7537 87.496 20.5857 88.81 16.5897 88.81C13.4217 88.81 10.6677 87.856 8.32773 85.948C5.98773 84.004 4.81773 82.186 4.81773 80.494C4.81773 79.954 4.96173 79.522 5.24973 79.198C5.57373 78.838 5.96973 78.658 6.43773 78.658C6.90573 78.658 7.26573 78.784 7.51773 79.036C7.80573 79.252 8.11173 79.648 8.43573 80.224C8.75973 80.764 9.02973 81.16 9.24573 81.412C11.4057 83.968 13.8537 85.246 16.5897 85.246C19.3257 85.246 21.5397 84.238 23.2317 82.222C24.9237 80.206 25.7697 77.92 25.7697 75.364C25.7697 72.808 25.0137 70.684 23.5017 68.992C22.0257 67.3 20.0277 66.454 17.5077 66.454C15.0597 66.454 12.5397 67.444 9.94773 69.424C9.08373 70.108 8.41773 70.45 7.94973 70.45C6.54573 70.45 5.84373 69.694 5.84373 68.182C5.84373 67.786 5.95173 66.58 6.16773 64.564C6.41973 62.512 6.54573 60.766 6.54573 59.326C6.54573 57.886 6.43773 56.5 6.22173 55.168C6.04173 53.836 5.95173 52.936 5.95173 52.468C5.95173 50.776 6.94173 49.93 8.92173 49.93L17.1297 50.2L24.7977 49.93C25.5897 49.93 26.2197 50.11 26.6877 50.47C27.1557 50.83 27.3897 51.316 27.3897 51.928C27.3897 52.54 27.1557 53.026 26.6877 53.386C26.2197 53.746 25.5897 53.926 24.7977 53.926Z" fill="black"/>
<path d="M52.373 63.538C55.901 63.538 58.673 64.762 60.689 67.21C62.705 69.658 63.713 72.574 63.713 75.958C63.713 79.342 62.633 82.33 60.473 84.922C58.349 87.514 55.325 88.81 51.401 88.81C47.477 88.81 44.381 87.388 42.113 84.544C39.881 81.664 38.765 78.028 38.765 73.636C38.765 66.976 40.601 61.324 44.273 56.68C47.981 52 52.661 49.66 58.313 49.66C60.617 49.66 61.769 50.29 61.769 51.55C61.769 52.882 60.779 53.548 58.799 53.548C54.659 53.548 51.131 55.024 48.215 57.976C45.299 60.928 43.571 64.438 43.031 68.506C43.931 67.174 45.209 66.022 46.865 65.05C48.521 64.042 50.357 63.538 52.373 63.538ZM51.617 85.354C53.993 85.354 55.955 84.472 57.503 82.708C59.051 80.944 59.825 78.766 59.825 76.174C59.825 73.582 59.087 71.404 57.611 69.64C56.135 67.876 54.137 66.994 51.617 66.994C49.133 66.994 47.081 67.966 45.461 69.91C43.841 71.854 43.031 74.05 43.031 76.498C43.031 78.946 43.859 81.034 45.515 82.762C47.207 84.49 49.241 85.354 51.617 85.354Z" fill="black"/>
<path d="M84.8857 50.2L93.6337 49.93C95.7937 49.93 96.8737 50.776 96.8737 52.468C96.8737 53.188 96.5497 54.25 95.9017 55.654C95.2897 57.022 94.2637 59.146 92.8237 62.026C91.3837 64.87 90.0157 67.768 88.7197 70.72C86.2717 76.372 84.5437 80.98 83.5357 84.544L82.9417 86.704C82.4737 87.928 81.7357 88.54 80.7277 88.54C80.1877 88.54 79.7377 88.342 79.3777 87.946C79.0537 87.514 78.8917 87.064 78.8917 86.596C78.8917 86.128 78.9097 85.714 78.9457 85.354C79.0177 84.958 79.1257 84.508 79.2697 84.004C79.4137 83.5 79.5397 83.032 79.6477 82.6C79.7917 82.132 80.0077 81.556 80.2957 80.872C80.5837 80.152 80.8357 79.522 81.0517 78.982C81.2677 78.442 81.5737 77.704 81.9697 76.768C82.3657 75.796 82.7077 74.986 82.9957 74.338C83.2837 73.69 83.6797 72.772 84.1837 71.584C84.6877 70.36 85.2817 68.956 85.9657 67.372C86.6857 65.752 87.7657 63.322 89.2057 60.082C90.6817 56.842 91.5997 54.772 91.9597 53.872L84.8857 53.656L76.1377 53.926C74.3377 53.926 73.4377 53.26 73.4377 51.928C73.4377 50.596 74.3377 49.93 76.1377 49.93L84.8857 50.2Z" fill="black"/>
<path d="M122.937 66.724C125.349 67.912 127.347 69.442 128.931 71.314C130.551 73.15 131.361 75.472 131.361 78.28C131.361 81.052 130.209 83.5 127.905 85.624C125.601 87.748 122.631 88.81 118.995 88.81C115.359 88.81 112.389 87.748 110.085 85.624C107.781 83.5 106.629 81.052 106.629 78.28C106.629 75.472 107.457 73.132 109.113 71.26C110.805 69.388 112.929 67.876 115.485 66.724C113.325 65.5 111.651 64.204 110.463 62.836C109.275 61.432 108.681 59.668 108.681 57.544C108.681 55.42 109.653 53.53 111.597 51.874C113.541 50.218 115.989 49.39 118.941 49.39C121.929 49.39 124.395 50.236 126.339 51.928C128.319 53.584 129.309 55.456 129.309 57.544C129.309 59.632 128.733 61.378 127.581 62.782C126.465 64.15 124.917 65.464 122.937 66.724ZM127.473 77.848C127.473 74.248 124.647 71.242 118.995 68.83C113.343 71.242 110.517 74.248 110.517 77.848C110.517 80.08 111.327 81.88 112.947 83.248C114.567 84.58 116.583 85.246 118.995 85.246C121.407 85.246 123.423 84.58 125.043 83.248C126.663 81.88 127.473 80.08 127.473 77.848ZM119.103 64.78C121.155 63.664 122.739 62.566 123.855 61.486C124.971 60.406 125.529 59.182 125.529 57.814C125.529 56.446 124.881 55.294 123.585 54.358C122.289 53.422 120.777 52.954 119.049 52.954C117.321 52.954 115.791 53.422 114.459 54.358C113.127 55.294 112.461 56.446 112.461 57.814C112.461 59.182 113.037 60.406 114.189 61.486C115.341 62.53 116.979 63.628 119.103 64.78Z" fill="black"/>
<path d="M151.564 74.662C148.036 74.662 145.264 73.384 143.248 70.828C141.232 68.272 140.224 65.32 140.224 61.972C140.224 58.624 141.34 55.69 143.572 53.17C145.84 50.65 148.882 49.39 152.698 49.39C156.514 49.39 159.538 50.83 161.77 53.71C164.038 56.554 165.172 60.172 165.172 64.564C165.172 71.44 163.336 77.164 159.664 81.736C156.028 86.272 151.348 88.54 145.624 88.54C143.32 88.54 142.168 87.91 142.168 86.65C142.168 85.318 143.158 84.652 145.138 84.652C149.35 84.652 152.896 83.23 155.776 80.386C158.656 77.542 160.366 73.978 160.906 69.694C160.006 71.026 158.728 72.196 157.072 73.204C155.416 74.176 153.58 74.662 151.564 74.662ZM152.482 52.846C150.106 52.846 148.108 53.728 146.488 55.492C144.904 57.256 144.112 59.434 144.112 62.026C144.112 64.618 144.85 66.796 146.326 68.56C147.802 70.324 149.782 71.206 152.266 71.206C154.786 71.206 156.856 70.234 158.476 68.29C160.096 66.346 160.906 64.15 160.906 61.702C160.906 59.254 160.096 57.166 158.476 55.438C156.856 53.71 154.858 52.846 152.482 52.846Z" fill="black"/>
<path d="M17.1732 106.46C17.9652 106.46 18.5592 106.748 18.9552 107.324C19.3512 107.864 19.5492 108.566 19.5492 109.43C19.5492 110.258 19.2792 111.032 18.7392 111.752C18.2352 112.436 17.6052 112.778 16.8492 112.778C16.0932 112.778 15.4992 112.49 15.0672 111.914C14.6712 111.338 14.4732 110.636 14.4732 109.808C14.4732 108.944 14.7252 108.17 15.2292 107.486C15.7692 106.802 16.4172 106.46 17.1732 106.46ZM17.1732 128.222C17.9652 128.222 18.5592 128.51 18.9552 129.086C19.3512 129.626 19.5492 130.328 19.5492 131.192C19.5492 132.02 19.2792 132.794 18.7392 133.514C18.2352 134.198 17.6052 134.54 16.8492 134.54C16.0932 134.54 15.4992 134.252 15.0672 133.676C14.6712 133.1 14.4732 132.398 14.4732 131.57C14.4732 130.706 14.7252 129.932 15.2292 129.248C15.7692 128.564 16.4172 128.222 17.1732 128.222Z" fill="black"/>
<path d="M51.1342 128.222C51.9262 128.222 52.5202 128.51 52.9162 129.086C53.3122 129.626 53.5102 130.328 53.5102 131.192C53.5102 132.02 53.2402 132.794 52.7002 133.514C52.1962 134.198 51.5662 134.54 50.8102 134.54C50.0542 134.54 49.4602 134.252 49.0282 133.676C48.6322 133.1 48.4342 132.398 48.4342 131.57C48.4342 130.706 48.6862 129.932 49.1902 129.248C49.7302 128.564 50.3782 128.222 51.1342 128.222Z" fill="black"/>
<path d="M95.2168 116.828L97.5928 116.774C98.3848 116.774 99.0328 116.972 99.5368 117.368C100.041 117.764 100.293 118.268 100.293 118.88C100.293 120.248 99.0328 120.932 96.5128 120.932C97.0888 122.696 97.5028 123.992 97.7548 124.82C98.0428 125.648 98.4208 126.692 98.8888 127.952C99.8248 130.544 100.293 132.092 100.293 132.596C100.293 133.1 100.131 133.55 99.8068 133.946C99.4828 134.342 99.0328 134.54 98.4568 134.54C97.4128 134.54 96.6208 133.91 96.0808 132.65C95.5768 131.282 94.9468 129.374 94.1908 126.926C93.4708 124.478 92.8408 122.408 92.3008 120.716C87.9808 120.608 84.9748 120.554 83.2828 120.554C81.5908 120.554 79.5748 120.608 77.2348 120.716C75.0028 128.204 73.8148 132.146 73.6708 132.542C73.1668 133.874 72.4648 134.54 71.5648 134.54C71.0248 134.54 70.5928 134.36 70.2688 134C69.9448 133.64 69.7828 133.208 69.7828 132.704C69.7828 132.164 69.9448 131.354 70.2688 130.274C70.5928 129.158 71.0788 127.628 71.7268 125.684C72.4108 123.74 72.9508 122.12 73.3468 120.824H72.3748C70.6468 120.824 69.7828 120.158 69.7828 118.826C69.7828 117.494 70.6468 116.828 72.3748 116.828C73.2028 116.828 73.9408 116.846 74.5888 116.882C74.6968 116.594 77.0548 109.7 81.6628 96.2C82.4188 94.04 83.4628 92.96 84.7948 92.96C85.6948 92.96 86.3788 93.23 86.8468 93.77C87.3508 94.274 87.7648 94.94 88.0888 95.768C88.4128 96.56 88.9528 98.108 89.7088 100.412C92.0848 107.648 93.9208 113.12 95.2168 116.828ZM78.4228 116.99C80.4388 117.098 82.5808 117.152 84.8488 117.152C87.1528 117.152 89.2408 117.098 91.1128 116.99C87.4048 105.074 85.3348 99.116 84.9028 99.116C84.3988 99.116 82.7248 103.58 79.8808 112.508L78.4228 116.99Z" fill="black"/>
<path d="M118.066 96.416C115.474 96.416 113.62 96.74 112.504 97.388C112.396 99.008 112.342 101.726 112.342 105.542C112.342 109.358 112.378 112.076 112.45 113.696C114.466 114.308 116.806 114.614 119.47 114.614C122.134 114.614 124.474 113.75 126.49 112.022C128.506 110.294 129.514 108.278 129.514 105.974C129.514 103.13 128.506 100.826 126.49 99.062C124.51 97.298 121.702 96.416 118.066 96.416ZM112.45 117.368L112.72 131.786C112.72 132.578 112.504 133.244 112.072 133.784C111.64 134.288 111.118 134.54 110.506 134.54C109.894 134.54 109.372 134.288 108.94 133.784C108.508 133.244 108.292 132.704 108.292 132.164C108.292 131.588 108.328 130.436 108.4 128.708C108.544 123.596 108.616 119.15 108.616 115.37C108.616 111.554 108.598 108.584 108.562 106.46C108.526 104.3 108.472 102.608 108.4 101.384C108.364 100.124 108.346 99.368 108.346 99.116C107.914 99.188 107.626 99.224 107.482 99.224C106.402 99.224 105.862 98.63 105.862 97.442C105.862 95.966 107.284 94.814 110.128 93.986C112.972 93.122 115.51 92.69 117.742 92.69C122.854 92.69 126.76 93.986 129.46 96.578C132.16 99.134 133.51 102.14 133.51 105.596C133.51 109.016 132.16 111.968 129.46 114.452C126.796 116.936 123.376 118.178 119.2 118.178C116.68 118.178 114.43 117.908 112.45 117.368Z" fill="black"/>
<path d="M136.651 113.912L136.381 95.984C136.381 95.048 136.579 94.364 136.975 93.932C137.407 93.464 138.019 93.23 138.811 93.23C139.603 93.23 140.269 93.86 140.809 95.12C143.725 101.708 145.561 105.83 146.317 107.486C147.109 109.106 148.297 111.626 149.881 115.046C151.465 118.43 152.527 120.662 153.067 121.742C156.595 114.938 159.835 107.918 162.787 100.682C163.939 97.874 164.767 95.93 165.271 94.85C165.775 93.77 166.513 93.23 167.485 93.23C168.961 93.23 169.699 94.148 169.699 95.984C169.699 96.272 169.663 97.262 169.591 98.954C169.555 100.61 169.519 102.806 169.483 105.542C169.447 108.278 169.429 111.068 169.429 113.912C169.429 116.756 169.447 119.546 169.483 122.282C169.519 124.982 169.555 127.178 169.591 128.87C169.663 130.526 169.699 131.624 169.699 132.164C169.699 132.704 169.483 133.244 169.051 133.784C168.619 134.288 168.097 134.54 167.485 134.54C166.873 134.54 166.351 134.288 165.919 133.784C165.487 133.244 165.271 132.704 165.271 132.164C165.271 131.624 165.289 130.508 165.325 128.816C165.541 122.696 165.649 117.728 165.649 113.912V103.436L155.227 126.332C154.723 127.448 154.021 128.006 153.121 128.006C152.257 128.006 151.573 127.394 151.069 126.17C146.713 116.45 143.203 108.8 140.539 103.22V113.912L140.809 131.786C140.809 132.578 140.593 133.244 140.161 133.784C139.729 134.288 139.207 134.54 138.595 134.54C137.983 134.54 137.461 134.288 137.029 133.784C136.597 133.244 136.381 132.578 136.381 131.786L136.651 113.912Z" fill="black"/>
</g>
</svg>
