<svg width="190" height="138" viewBox="0 0 190 138" fill="none" xmlns="http://www.w3.org/2000/svg">
<g clip-path="url(#clip0_100_2)">
<path d="M6.50391 29.7891V13.6562C6.50391 11.8698 6.75911 10.3568 7.26953 9.11719C7.76172 7.8776 8.39974 6.84766 9.18359 6.02734C9.96745 5.20703 10.8333 4.5599 11.7812 4.08594C12.7474 3.61198 13.6771 3.25651 14.5703 3.01953C15.4818 2.78255 16.293 2.63672 17.0039 2.58203C17.7148 2.52734 18.2435 2.5 18.5898 2.5H19.5195C19.8659 2.5 20.4036 2.52734 21.1328 2.58203C21.862 2.63672 22.6641 2.78255 23.5391 3.01953C24.4323 3.25651 25.3529 3.61198 26.3008 4.08594C27.194 4.54167 28.0508 5.1888 28.8711 6.02734C29.6367 6.84766 30.2656 7.88672 30.7578 9.14453C31.25 10.3841 31.4961 11.888 31.4961 13.6562V29.7891C31.4961 31.5938 31.25 33.1432 30.7578 34.4375C30.2656 35.7135 29.6276 36.7799 28.8438 37.6367C28.0781 38.4753 27.2305 39.1315 26.3008 39.6055C25.3346 40.0794 24.4232 40.4349 23.5664 40.6719C22.6732 40.9271 21.862 41.082 21.1328 41.1367C20.4036 41.1914 19.8659 41.2188 19.5195 41.2188H18.5898C18.2435 41.2188 17.7148 41.1914 17.0039 41.1367C16.2747 41.082 15.4544 40.9362 14.543 40.6992C13.6497 40.444 12.7292 40.0794 11.7812 39.6055C10.888 39.168 10.0221 38.5026 9.18359 37.6094C8.39974 36.7526 7.7526 35.6953 7.24219 34.4375C6.75 33.1615 6.50391 31.612 6.50391 29.7891ZM15.4727 12.7266V31.2109C15.5273 31.8672 15.7005 32.4323 15.9922 32.9062C16.2292 33.3255 16.5846 33.7174 17.0586 34.082C17.5508 34.4284 18.2253 34.6016 19.082 34.6016C19.9206 34.6016 20.5768 34.4284 21.0508 34.082C21.5247 33.7174 21.8802 33.3255 22.1172 32.9062C22.3724 32.4323 22.5456 31.8672 22.6367 31.2109V12.7266C22.5456 12.0703 22.3724 11.5052 22.1172 11.0312C21.8802 10.612 21.5247 10.2292 21.0508 9.88281C20.5768 9.51823 19.9206 9.33594 19.082 9.33594C18.2253 9.33594 17.5508 9.51823 17.0586 9.88281C16.5846 10.2292 16.2292 10.612 15.9922 11.0312C15.7005 11.5052 15.5273 12.0703 15.4727 12.7266Z" fill="black"/>
<path d="M56.0977 34.5469V14.6953C55.4961 15.2422 54.8398 15.6706 54.1289 15.9805C53.418 16.2904 52.5794 16.4453 51.6133 16.4453C50.556 16.4453 49.6628 16.0716 48.9336 15.3242C48.2044 14.5586 47.8398 13.6562 47.8398 12.6172C47.8398 11.5964 48.1406 10.849 48.7422 10.375C49.3438 9.88281 50.1003 9.39062 51.0117 8.89844C51.9049 8.3151 52.8164 7.60417 53.7461 6.76562C54.694 5.90885 55.5508 5.13411 56.3164 4.44141C57.082 3.73047 57.6289 3.30208 57.957 3.15625C58.3581 2.95573 58.7044 2.83724 58.9961 2.80078C59.2878 2.74609 59.707 2.71875 60.2539 2.71875C61.4753 2.71875 62.3776 3.01953 62.9609 3.62109C63.5625 4.22266 63.9544 5.01562 64.1367 6C64.319 6.96615 64.4102 8.02344 64.4102 9.17188V34.5469C64.4102 35.6953 64.319 36.7617 64.1367 37.7461C63.9544 38.7305 63.5716 39.5234 62.9883 40.125C62.4049 40.7083 61.4935 41 60.2539 41C59.0326 41 58.1211 40.7083 57.5195 40.125C56.9362 39.5234 56.5534 38.7305 56.3711 37.7461C56.1888 36.7617 56.0977 35.6953 56.0977 34.5469Z" fill="black"/>
<path d="M95.6016 2.5C97.6615 2.5 99.4661 2.78255 101.016 3.34766C102.583 3.89453 103.887 4.66016 104.926 5.64453C107.022 7.64974 108.07 10.3568 108.07 13.7656C108.07 15.8438 107.551 17.6576 106.512 19.207C105.491 20.7565 104.288 22.0417 102.902 23.0625C101.316 24.2109 99.5938 25.1224 97.7344 25.7969C96.4036 26.3255 95.1914 27.0547 94.0977 27.9844C93.0221 28.9141 92.4844 30.1354 92.4844 31.6484V33.3438H102C103.112 33.3438 104.151 33.4349 105.117 33.6172C106.102 33.7812 106.904 34.1276 107.523 34.6562C108.143 35.1849 108.453 36.0052 108.453 37.1172C108.453 38.2474 108.143 39.0951 107.523 39.6602C106.904 40.207 106.102 40.5716 105.117 40.7539C104.133 40.918 103.094 41 102 41H88.3828C86.7057 41 85.5208 40.5078 84.8281 39.5234C84.1354 38.5391 83.7891 37.4089 83.7891 36.1328V31.7578C83.7891 30.3542 84.026 29.0326 84.5 27.793C84.974 26.5534 85.6302 25.4323 86.4688 24.4297C88.1641 22.4062 90.4792 20.8203 93.4141 19.6719C94.8542 19.1068 96.0026 18.569 96.8594 18.0586C97.7344 17.5299 98.3997 17.0104 98.8555 16.5C99.3294 16.0078 99.6302 15.5065 99.7578 14.9961C99.9036 14.4857 99.9766 13.9661 99.9766 13.4375C99.9766 12.3073 99.7578 11.4505 99.3203 10.8672C98.8828 10.2839 98.3268 9.89193 97.6523 9.69141C96.9961 9.49089 96.3125 9.39062 95.6016 9.39062C93.9427 9.39062 92.8398 9.79167 92.293 10.5938C91.7643 11.3958 91.5 12.362 91.5 13.4922C91.5 14.8047 91.0534 15.7891 90.1602 16.4453C89.2852 17.1016 88.3646 17.4297 87.3984 17.4297C86.1589 17.4297 85.1562 17.0924 84.3906 16.418C83.625 15.7253 83.2422 14.8411 83.2422 13.7656C83.2422 13.2734 83.2969 12.6628 83.4062 11.9336C83.5156 11.1862 83.7253 10.3932 84.0352 9.55469C84.3451 8.71615 84.7826 7.8776 85.3477 7.03906C85.8945 6.23698 86.6328 5.48047 87.5625 4.76953C88.474 4.09505 89.5859 3.54818 90.8984 3.12891C92.2109 2.70964 93.7786 2.5 95.6016 2.5Z" fill="black"/>
<path d="M130.348 16.9922L133.793 10.7031V10.3203H126.684C125.736 10.3203 124.833 10.2292 123.977 10.0469C123.12 9.86458 122.418 9.5 121.871 8.95312C121.324 8.40625 121.051 7.58594 121.051 6.49219C121.051 5.41667 121.324 4.61458 121.871 4.08594C122.418 3.53906 123.12 3.17448 123.977 2.99219C124.852 2.8099 125.754 2.71875 126.684 2.71875H138.879C140.283 2.71875 141.395 3.13802 142.215 3.97656C143.053 4.79688 143.473 5.78125 143.473 6.92969C143.473 7.23958 143.445 7.54036 143.391 7.83203C143.354 8.1237 143.254 8.40625 143.09 8.67969L138.168 16.8828C139.007 17.2292 139.827 17.694 140.629 18.2773C141.449 18.8424 142.169 19.5625 142.789 20.4375C143.427 21.3125 143.928 22.3516 144.293 23.5547C144.658 24.7396 144.84 26.1068 144.84 27.6562C144.84 29.388 144.658 30.9375 144.293 32.3047C143.546 34.9479 142.306 36.9714 140.574 38.375C139.681 39.1042 138.779 39.6602 137.867 40.043C136.919 40.4622 135.926 40.763 134.887 40.9453C133.866 41.1276 132.863 41.2188 131.879 41.2188C131.186 41.2188 130.384 41.1458 129.473 41C127.704 40.6901 126.046 40.0794 124.496 39.168C123.712 38.7305 123.02 38.2018 122.418 37.582C121.816 36.9622 121.333 36.2695 120.969 35.5039C120.622 34.7383 120.449 33.8906 120.449 32.9609C120.449 32.013 120.723 31.2018 121.27 30.5273C121.816 29.8529 122.618 29.5156 123.676 29.5156C124.423 29.5156 125.116 29.7253 125.754 30.1445C126.41 30.5638 126.957 31.2109 127.395 32.0859C127.686 32.6146 128.215 33.1159 128.98 33.5898C129.764 34.0456 130.767 34.2734 131.988 34.2734C133.975 34.2734 135.352 33.7083 136.117 32.5781C136.901 31.4479 137.293 30.0807 137.293 28.4766C137.293 26.9089 136.801 25.569 135.816 24.457C134.832 23.3451 133.684 22.7891 132.371 22.7891C131.496 22.7891 130.785 22.5247 130.238 21.9961C129.691 21.4674 129.418 20.7474 129.418 19.8359C129.418 19.0521 129.728 18.1042 130.348 16.9922Z" fill="black"/>
<path d="M178.191 15.6797C179.868 15.6797 180.935 16.099 181.391 16.9375C181.846 17.776 182.074 18.888 182.074 20.2734V36.4609C182.074 37.8646 181.846 38.9766 181.391 39.7969C180.935 40.599 179.887 41 178.246 41C176.642 41 175.594 40.6172 175.102 39.8516C174.609 39.0677 174.363 38.0104 174.363 36.6797V31.8125H165.012C161.22 31.8125 159.324 30.7188 159.324 28.5312C159.324 28.3125 159.342 28.0938 159.379 27.875C159.434 27.6562 159.488 27.4375 159.543 27.2188L165.066 8.02344C165.34 7.0026 165.613 6.10026 165.887 5.31641C166.16 4.51432 166.579 3.88542 167.145 3.42969C167.71 2.95573 168.566 2.71875 169.715 2.71875C170.936 2.71875 171.793 3.02865 172.285 3.64844C172.796 4.25 173.051 5.03385 173.051 6C173.051 6.91146 172.951 7.65885 172.75 8.24219C172.568 8.82552 172.376 9.5 172.176 10.2656C172.176 10.2839 172.112 10.5117 171.984 10.9492C171.857 11.3867 171.72 11.8607 171.574 12.3711C171.41 12.918 171.201 13.6562 170.945 14.5859C170.708 15.5156 170.49 16.3268 170.289 17.0195C169.997 18.0039 169.697 19.0612 169.387 20.1914C169.077 21.3034 168.749 22.4792 168.402 23.7188L168.621 23.9375H174.363V20.2188C174.363 18.8333 174.591 17.7305 175.047 16.9102C175.503 16.0898 176.551 15.6797 178.191 15.6797Z" fill="black"/>
<path d="M16.0742 57.4688L15.5273 62.7188C16.2747 62.4453 17.0859 62.2539 17.9609 62.1445C18.8542 62.0169 19.6471 61.9531 20.3398 61.9531C20.9596 61.9531 21.6888 62.026 22.5273 62.1719C23.3294 62.3177 24.1406 62.5729 24.9609 62.9375C25.7812 63.2839 26.5833 63.7487 27.3672 64.332C28.1146 64.8789 28.8073 65.599 29.4453 66.4922C30.0469 67.3672 30.5299 68.3971 30.8945 69.582C31.2591 70.7669 31.4414 72.125 31.4414 73.6562C31.4414 75.388 31.2591 76.9375 30.8945 78.3047C30.1471 80.9479 28.9076 82.9714 27.1758 84.375C26.2826 85.1042 25.3802 85.6602 24.4688 86.043C23.5208 86.4622 22.5273 86.763 21.4883 86.9453C20.4674 87.1276 19.4648 87.2188 18.4805 87.2188C17.4049 87.2188 16.2747 87.0729 15.0898 86.7812C13.9049 86.4896 12.7747 86.0612 11.6992 85.4961C10.6419 84.9128 9.70312 84.1927 8.88281 83.3359C8.0625 82.4792 7.50651 81.4583 7.21484 80.2734C7.10547 79.8359 7.05078 79.3984 7.05078 78.9609C7.05078 78.013 7.32422 77.2018 7.87109 76.5273C8.41797 75.8529 9.22005 75.5156 10.2773 75.5156C11.0247 75.5156 11.7174 75.7253 12.3555 76.1445C13.0117 76.5638 13.5586 77.2109 13.9961 78.0859C14.2878 78.6146 14.8164 79.1159 15.582 79.5898C16.3659 80.0456 17.3685 80.2734 18.5898 80.2734C20.5768 80.2734 21.9531 79.7083 22.7188 78.5781C23.5026 77.4479 23.8945 76.0807 23.8945 74.4766C23.8945 72.7812 23.3477 71.4961 22.2539 70.6211C21.1602 69.7279 19.8841 69.2812 18.4258 69.2812C17.7148 69.2812 16.9583 69.4089 16.1562 69.6641C15.3542 69.901 14.5521 70.1471 13.75 70.4023C12.9479 70.6393 12.1732 70.7578 11.4258 70.7578C10.4961 70.7578 9.67578 70.5299 8.96484 70.0742C8.27214 69.6003 7.92578 68.7708 7.92578 67.5859L9.51172 52.5469C9.60286 51.599 9.88542 50.724 10.3594 49.9219C10.8516 49.1198 11.681 48.7188 12.8477 48.7188H23.7852C24.806 48.7188 25.7539 48.8099 26.6289 48.9922C27.5221 49.1562 28.2422 49.5117 28.7891 50.0586C29.3542 50.5872 29.6367 51.3984 29.6367 52.4922C29.6367 53.6042 29.3542 54.4336 28.7891 54.9805C28.2422 55.5273 27.5221 55.8919 26.6289 56.0742C25.7539 56.2383 24.806 56.3203 23.7852 56.3203H17.2227C16.8581 56.3203 16.5846 56.3841 16.4023 56.5117C16.2201 56.6211 16.1107 56.9401 16.0742 57.4688Z" fill="black"/>
<path d="M46.7734 75.7891V73.6016C46.7734 72.8359 46.7734 71.8333 46.7734 70.5938C46.7917 69.3542 46.8008 68.2604 46.8008 67.3125C46.8008 66.401 46.8008 65.4531 46.8008 64.4688C46.819 63.4661 46.8281 62.737 46.8281 62.2812C46.8281 61.224 46.9375 60.1484 47.1562 59.0547C47.612 56.849 48.4232 54.8711 49.5898 53.1211C50.1732 52.2461 50.8294 51.4805 51.5586 50.8242C52.2695 50.168 53.0352 49.6576 53.8555 49.293C54.694 48.9102 55.5781 48.7188 56.5078 48.7188C57.6927 48.7917 58.6315 49.1654 59.3242 49.8398C60.0352 50.4961 60.3906 51.2891 60.3906 52.2188C60.3906 53.513 59.7161 54.6797 58.3672 55.7188C57.638 56.3021 57.0091 56.849 56.4805 57.3594C55.9701 57.8516 55.5872 58.4076 55.332 59.0273C55.1862 59.4102 55.0677 59.8568 54.9766 60.3672C54.9036 60.8776 54.849 61.4701 54.8125 62.1445C54.776 62.819 54.7578 63.612 54.7578 64.5234C55.1224 63.776 55.7604 63.2656 56.6719 62.9922C57.5833 62.7005 58.4583 62.5547 59.2969 62.5547C59.5521 62.5547 59.8346 62.5729 60.1445 62.6094C60.4544 62.6276 60.7826 62.6549 61.1289 62.6914C61.8216 62.7826 62.5417 62.9648 63.2891 63.2383C64.0365 63.4935 64.7747 63.8672 65.5039 64.3594C66.2148 64.8333 66.862 65.4714 67.4453 66.2734C68.0104 67.0573 68.4661 68.0326 68.8125 69.1992C69.1771 70.3477 69.3594 71.7057 69.3594 73.2734V75.7891C69.3594 77.5938 69.1406 79.1432 68.7031 80.4375C68.2474 81.7135 67.6732 82.7799 66.9805 83.6367C66.2878 84.4753 65.513 85.1315 64.6562 85.6055C63.8177 86.0612 62.9792 86.4167 62.1406 86.6719C61.3203 86.9271 60.5547 87.082 59.8438 87.1367C59.151 87.1914 58.6224 87.2188 58.2578 87.2188C57.7656 87.2188 57.1458 87.1914 56.3984 87.1367C55.6328 87.082 54.8216 86.9362 53.9648 86.6992C53.1263 86.444 52.2786 86.0794 51.4219 85.6055C50.5651 85.1315 49.7904 84.4661 49.0977 83.6094C48.4049 82.7526 47.8398 81.6953 47.4023 80.4375C46.9831 79.1615 46.7734 77.612 46.7734 75.7891ZM54.7578 72.8359V76.8281C54.7943 77.4479 54.931 77.9857 55.168 78.4414C55.3685 78.8607 55.6875 79.2344 56.125 79.5625C56.5625 79.8906 57.1823 80.0547 57.9844 80.0547C58.7865 80.0547 59.3971 79.8906 59.8164 79.5625C60.2357 79.2344 60.5456 78.8607 60.7461 78.4414C60.9648 77.9857 61.1016 77.4479 61.1562 76.8281V72.8359C61.1016 72.2161 60.9648 71.6784 60.7461 71.2227C60.5456 70.8216 60.2266 70.457 59.7891 70.1289C59.3698 69.7826 58.7682 69.6094 57.9844 69.6094C57.1823 69.6094 56.5625 69.7826 56.125 70.1289C55.6875 70.457 55.3685 70.8216 55.168 71.2227C54.931 71.6784 54.7943 72.2161 54.7578 72.8359Z" fill="black"/>
<path d="M91.0625 67.0938L96.9141 56.6484V56.3203H88.3281C87.362 56.3203 86.4323 56.2292 85.5391 56.0469C84.6458 55.8646 83.9076 55.5 83.3242 54.9531C82.7591 54.4062 82.4766 53.5859 82.4766 52.4922C82.4766 51.3984 82.7591 50.5872 83.3242 50.0586C83.9076 49.5117 84.6458 49.1562 85.5391 48.9922C86.4505 48.8099 87.3802 48.7188 88.3281 48.7188H102.984C104.388 48.7188 105.5 49.138 106.32 49.9766C107.159 50.7969 107.578 51.7812 107.578 52.9297C107.578 53.2396 107.551 53.5404 107.496 53.832C107.441 54.1237 107.341 54.4062 107.195 54.6797L99.3203 69.0625C98.7552 70.0651 98.3268 70.9401 98.0352 71.6875C97.7435 72.4167 97.543 73.1458 97.4336 73.875C97.3424 74.6042 97.2969 75.4792 97.2969 76.5V80.6016C97.2969 81.8047 97.2148 82.8893 97.0508 83.8555C96.9049 84.8216 96.5221 85.5872 95.9023 86.1523C95.3008 86.7174 94.3073 87 92.9219 87C91.5729 87 90.5977 86.7174 89.9961 86.1523C89.3945 85.5872 89.0208 84.8216 88.875 83.8555C88.7292 82.8893 88.6562 81.8047 88.6562 80.6016V76.5C88.6562 74.8411 88.7109 73.556 88.8203 72.6445C88.9479 71.7148 89.1849 70.8672 89.5312 70.1016C89.8776 69.3177 90.388 68.3151 91.0625 67.0938Z" fill="black"/>
<path d="M133.164 48.5C133.365 48.5 133.611 48.5091 133.902 48.5273C134.194 48.5273 134.513 48.5365 134.859 48.5547C135.552 48.6094 136.299 48.737 137.102 48.9375C137.904 49.138 138.715 49.4479 139.535 49.8672C140.337 50.2865 141.066 50.8789 141.723 51.6445C142.379 52.4102 142.908 53.3763 143.309 54.543C143.728 55.6914 143.938 57.1042 143.938 58.7812V59.4922C143.938 61.4792 143.691 63.0195 143.199 64.1133C142.707 65.207 141.914 66.0729 140.82 66.7109C141.969 67.3854 142.862 68.2513 143.5 69.3086C144.156 70.3477 144.484 71.888 144.484 73.9297V76.9375C144.484 78.6146 144.266 80.0273 143.828 81.1758C143.391 82.3424 142.816 83.3086 142.105 84.0742C141.413 84.8398 140.638 85.4323 139.781 85.8516C139.362 86.0521 138.934 86.2344 138.496 86.3984C138.077 86.5625 137.658 86.6901 137.238 86.7812C136.4 86.9818 135.616 87.1003 134.887 87.1367C134.158 87.1914 133.583 87.2188 133.164 87.2188C132.964 87.2188 132.717 87.2096 132.426 87.1914C132.134 87.1914 131.806 87.1823 131.441 87.1641C130.712 87.1094 129.91 86.9818 129.035 86.7812C128.16 86.5807 127.285 86.2708 126.41 85.8516C125.553 85.4688 124.742 84.8763 123.977 84.0742C123.247 83.3086 122.655 82.3516 122.199 81.2031C121.743 80.0365 121.516 78.6146 121.516 76.9375V73.9297C121.516 71.888 121.835 70.3477 122.473 69.3086C123.129 68.2513 124.031 67.3854 125.18 66.7109C124.086 66.0729 123.293 65.207 122.801 64.1133C122.309 63.0195 122.062 61.4792 122.062 59.4922V58.7812C122.062 57.1042 122.281 55.6823 122.719 54.5156C123.138 53.3672 123.694 52.4102 124.387 51.6445C125.079 50.8789 125.845 50.2865 126.684 49.8672C127.103 49.6667 127.522 49.4844 127.941 49.3203C128.361 49.1562 128.771 49.0286 129.172 48.9375C129.992 48.737 130.758 48.6185 131.469 48.582C132.18 48.5273 132.745 48.5 133.164 48.5ZM129.719 58.7266V60.9688C129.737 61.4974 129.883 61.9987 130.156 62.4727C130.375 62.8555 130.712 63.2018 131.168 63.5117C131.624 63.8216 132.289 63.9766 133.164 63.9766C133.984 63.9766 134.613 63.8216 135.051 63.5117C135.507 63.2018 135.835 62.8555 136.035 62.4727C136.29 62.0352 136.427 61.5339 136.445 60.9688V58.7266C136.427 58.0885 136.29 57.5417 136.035 57.0859C135.835 56.6667 135.507 56.293 135.051 55.9648C134.613 55.6185 133.984 55.4453 133.164 55.4453C132.38 55.4453 131.742 55.6003 131.25 55.9102C130.776 56.2201 130.411 56.612 130.156 57.0859C129.883 57.5964 129.737 58.1432 129.719 58.7266ZM129.719 72.3984V77.5938C129.737 78.1224 129.883 78.6237 130.156 79.0977C130.375 79.4805 130.712 79.8268 131.168 80.1367C131.624 80.4466 132.289 80.6016 133.164 80.6016C133.984 80.6016 134.613 80.4466 135.051 80.1367C135.507 79.8268 135.835 79.4805 136.035 79.0977C136.29 78.6602 136.427 78.1589 136.445 77.5938V72.3984C136.427 71.7604 136.29 71.2135 136.035 70.7578C135.835 70.3385 135.507 69.9648 135.051 69.6367C134.613 69.2904 133.984 69.1172 133.164 69.1172C132.38 69.1172 131.742 69.2721 131.25 69.582C130.776 69.8919 130.411 70.2839 130.156 70.7578C129.883 71.2682 129.737 71.8151 129.719 72.3984Z" fill="black"/>
<path d="M181.227 59.9844V62.1719L181.199 68.4062C181.199 69.2995 181.19 70.2383 181.172 71.2227C181.172 72.207 181.172 72.9271 181.172 73.3828C181.172 74.987 180.935 76.6003 180.461 78.2227C179.987 79.8268 179.322 81.276 178.465 82.5703C177.626 83.8828 176.615 84.9492 175.43 85.7695C174.263 86.5898 172.987 87 171.602 87C170.38 86.9271 169.414 86.5625 168.703 85.9062C168.01 85.2318 167.664 84.4297 167.664 83.5C167.664 82.2057 168.339 81.0391 169.688 80C170.417 79.4531 171.055 78.9154 171.602 78.3867C172.167 77.8398 172.568 77.2656 172.805 76.6641C172.878 76.4635 172.941 76.2539 172.996 76.0352C173.069 75.8164 173.124 75.5794 173.16 75.3242C173.251 74.8138 173.306 74.2214 173.324 73.5469C173.342 72.8724 173.352 72.0703 173.352 71.1406C172.951 71.888 172.312 72.4076 171.438 72.6992C170.562 72.9727 169.669 73.1094 168.758 73.1094C168.503 73.1094 168.22 73.1003 167.91 73.082C167.618 73.0456 167.299 73.0091 166.953 72.9727C166.242 72.8815 165.513 72.7083 164.766 72.4531C164.018 72.1797 163.28 71.7969 162.551 71.3047C161.876 70.8672 161.229 70.2292 160.609 69.3906C160.044 68.5885 159.579 67.6315 159.215 66.5195C158.868 65.4076 158.695 64.0677 158.695 62.5V59.9844C158.695 58.125 158.923 56.5664 159.379 55.3086C159.816 54.0143 160.382 52.9479 161.074 52.1094C161.767 51.2708 162.542 50.6055 163.398 50.1133C164.31 49.6211 165.148 49.2565 165.914 49.0195C166.734 48.7643 167.491 48.6185 168.184 48.582C168.876 48.5273 169.414 48.5 169.797 48.5C170.289 48.5 170.918 48.5273 171.684 48.582C172.449 48.6367 173.26 48.7917 174.117 49.0469C174.974 49.2839 175.822 49.6393 176.66 50.1133C177.48 50.5872 178.237 51.2526 178.93 52.1094C179.604 52.9479 180.151 54.0143 180.57 55.3086C181.008 56.6029 181.227 58.1615 181.227 59.9844ZM173.352 62.9375V58.9453C173.315 58.3255 173.178 57.7878 172.941 57.332C172.741 56.931 172.422 56.5664 171.984 56.2383C171.547 55.8919 170.927 55.7188 170.125 55.7188C169.323 55.7188 168.703 55.8919 168.266 56.2383C167.828 56.5664 167.509 56.931 167.309 57.332C167.072 57.7878 166.935 58.3255 166.898 58.9453V62.9375C166.935 63.5573 167.072 64.0951 167.309 64.5508C167.509 64.9701 167.828 65.3438 168.266 65.6719C168.703 66 169.323 66.1641 170.125 66.1641C170.927 66.1641 171.547 66 171.984 65.6719C172.422 65.3438 172.741 64.9701 172.941 64.5508C173.178 64.0951 173.315 63.5573 173.352 62.9375Z" fill="black"/>
<path d="M23.5391 114.133C23.5391 115.682 23.1471 116.831 22.3633 117.578C21.5794 118.307 20.4766 118.672 19.0547 118.672C16.0286 118.672 14.5156 117.159 14.5156 114.133C14.5156 112.565 14.9076 111.426 15.6914 110.715C16.4753 110.004 17.5964 109.648 19.0547 109.648C20.5677 109.648 21.6888 110.004 22.418 110.715C23.1654 111.426 23.5391 112.565 23.5391 114.133ZM23.5938 128.461C23.5938 130.01 23.2018 131.159 22.418 131.906C21.6341 132.635 20.5312 133 19.1094 133C16.0833 133 14.5703 131.487 14.5703 128.461C14.5703 126.893 14.9622 125.754 15.7461 125.043C16.5299 124.332 17.651 123.977 19.1094 123.977C20.6224 123.977 21.7435 124.332 22.4727 125.043C23.2201 125.754 23.5938 126.893 23.5938 128.461Z" fill="black"/>
<path d="M61.5117 128.461C61.5117 130.01 61.1198 131.159 60.3359 131.906C59.5521 132.635 58.4492 133 57.0273 133C54.0013 133 52.4883 131.487 52.4883 128.461C52.4883 126.893 52.8802 125.754 53.6641 125.043C54.4479 124.332 55.569 123.977 57.0273 123.977C58.5404 123.977 59.6615 124.332 60.3906 125.043C61.138 125.754 61.5117 126.893 61.5117 128.461Z" fill="black"/>
<path d="M102.164 99.8594L107.852 119.164C107.87 119.784 107.888 120.413 107.906 121.051C107.943 121.689 107.97 122.327 107.988 122.965C108.043 124.241 108.07 125.49 108.07 126.711V127.531C108.07 128.57 107.997 129.5 107.852 130.32C107.724 131.141 107.396 131.797 106.867 132.289C106.339 132.763 105.482 133 104.297 133C103.112 133 102.246 132.763 101.699 132.289C101.152 131.797 100.806 131.141 100.66 130.32C100.533 129.5 100.469 128.57 100.469 127.531V123.703H89.5312V127.531C89.5312 128.57 89.4583 129.5 89.3125 130.32C89.1849 131.141 88.8477 131.797 88.3008 132.289C87.7721 132.763 86.9062 133 85.7031 133C84.5 133 83.6341 132.763 83.1055 132.289C82.5768 131.797 82.2487 131.141 82.1211 130.32C81.9935 129.5 81.9297 128.57 81.9297 127.531V126.711C81.9297 126.073 81.9388 125.289 81.957 124.359C81.9753 123.43 81.9935 122.491 82.0117 121.543C82.0482 120.595 82.0755 119.802 82.0938 119.164C82.5495 117.578 83.0143 115.983 83.4883 114.379C83.9622 112.757 84.4544 111.134 84.9648 109.512C85.4753 107.889 85.9674 106.276 86.4414 104.672C86.9154 103.068 87.3802 101.464 87.8359 99.8594C88.2552 98.3464 88.8477 97.1159 89.6133 96.168C90.3971 95.2018 91.737 94.7188 93.6328 94.7188H96.3672C98.3177 94.7188 99.6576 95.2018 100.387 96.168C101.116 97.1159 101.708 98.3464 102.164 99.8594ZM95.3281 101.828H94.7266L90.6797 116.484H99.375L95.3281 101.828Z" fill="black"/>
<path d="M133.902 117.906H130.402V126.766C130.402 127.932 130.329 128.99 130.184 129.938C130.038 130.885 129.664 131.633 129.062 132.18C128.479 132.727 127.522 133 126.191 133C124.897 133 123.958 132.727 123.375 132.18C122.792 131.615 122.427 130.867 122.281 129.938C122.154 128.99 122.09 127.932 122.09 126.766V100.953C122.09 99.7865 122.154 98.7383 122.281 97.8086C122.427 96.8607 122.792 96.1133 123.375 95.5664C123.958 95.0013 124.897 94.7188 126.191 94.7188H135.215C137.512 94.8281 139.535 95.3021 141.285 96.1406C142.051 96.5052 142.798 96.9609 143.527 97.5078C144.257 98.0365 144.904 98.7018 145.469 99.5039C146.052 100.288 146.508 101.227 146.836 102.32C147.182 103.414 147.355 104.672 147.355 106.094C147.355 108.044 147.046 109.758 146.426 111.234C145.824 112.693 144.949 113.914 143.801 114.898C141.467 116.904 138.168 117.906 133.902 117.906ZM130.402 101.172V111.398H134.121C135.033 111.344 135.853 111.125 136.582 110.742C137.311 110.359 137.904 109.794 138.359 109.047C138.815 108.281 139.043 107.297 139.043 106.094C139.043 104.964 138.815 104.061 138.359 103.387C137.922 102.694 137.375 102.165 136.719 101.801C136.081 101.473 135.306 101.263 134.395 101.172H130.402Z" fill="black"/>
<path d="M171.191 124.141H170.645C169.678 124.141 168.922 123.803 168.375 123.129C167.828 122.436 167.418 121.698 167.145 120.914L161.949 105.93H161.238V128.734C161.238 130.029 161.02 131.068 160.582 131.852C160.145 132.617 159.142 133 157.574 133C155.824 133 154.703 132.626 154.211 131.879C153.719 131.132 153.473 130.083 153.473 128.734V100.953C153.473 99.7865 153.536 98.7383 153.664 97.8086C153.81 96.8607 154.165 96.1133 154.73 95.5664C155.314 95.0013 156.262 94.7188 157.574 94.7188H161.293C162.241 94.7188 162.988 94.8008 163.535 94.9648C164.082 95.1289 164.62 95.6484 165.148 96.5234C165.477 97.0521 165.868 97.8724 166.324 98.9844C166.743 100.042 167.236 101.4 167.801 103.059C168.366 104.717 169.059 106.75 169.879 109.156L170.59 111.344H171.246L172.121 108.609C172.486 107.461 172.832 106.404 173.16 105.438C173.488 104.453 173.78 103.569 174.035 102.785C174.564 101.199 175.029 99.8958 175.43 98.875C175.831 97.8359 176.195 97.0339 176.523 96.4688C176.997 95.6302 177.499 95.1289 178.027 94.9648C178.574 94.8008 179.303 94.7188 180.215 94.7188H184.207C185.52 94.7188 186.458 95.0013 187.023 95.5664C187.607 96.1133 187.962 96.8607 188.09 97.8086C188.236 98.7383 188.309 99.7865 188.309 100.953V128.734C188.309 130.083 188.062 131.132 187.57 131.879C187.078 132.626 185.957 133 184.207 133C182.658 133 181.655 132.617 181.199 131.852C180.762 131.068 180.543 130.029 180.543 128.734V105.93H179.777L174.637 120.914C174.327 121.698 173.917 122.436 173.406 123.129C172.914 123.803 172.176 124.141 171.191 124.141Z" fill="black"/>
</g>
</svg>
