<svg width="170" height="138" viewBox="0 0 170 138" fill="none" xmlns="http://www.w3.org/2000/svg">
<desc>{"colon":0.5,"dot":0.5}</desc>
<g clip-path="url(#clip0_100_2)">
<path d="M5.19336 8.73242C5.15951 7.46289 5.40495 6.33724 5.92969 5.35547C6.47135 4.3737 7.25 3.54427 8.26562 2.86719C9.28125 2.1901 10.5254 1.68229 11.998 1.34375C13.4707 0.988281 15.1296 0.810547 16.9746 0.810547C18.8197 0.810547 20.4785 0.988281 21.9512 1.34375C23.4238 1.68229 24.668 2.1901 25.6836 2.86719C26.7161 3.54427 27.4948 4.3737 28.0195 5.35547C28.5612 6.33724 28.8151 7.46289 28.7812 8.73242L28.0449 37.0684C28.0111 38.1686 27.7318 39.1673 27.207 40.0645C26.6992 40.9447 25.9629 41.7064 24.998 42.3496C24.0501 42.9759 22.8991 43.4583 21.5449 43.7969C20.1908 44.1354 18.6673 44.3047 16.9746 44.3047C15.265 44.3047 13.7331 44.1354 12.3789 43.7969C11.0417 43.4583 9.89909 42.9759 8.95117 42.3496C8.00326 41.7064 7.26693 40.9447 6.74219 40.0645C6.23438 39.1673 5.96354 38.1686 5.92969 37.0684L5.19336 8.73242ZM12.8613 36.0781C12.8275 37.5 13.1322 38.5072 13.7754 39.0996C14.4186 39.6751 15.485 39.9629 16.9746 39.9629C18.4642 39.9629 19.5306 39.6751 20.1738 39.0996C20.834 38.5072 21.1471 37.5 21.1133 36.0781L20.3516 8.73242C20.3346 8.00456 20.25 7.42057 20.0977 6.98047C19.9453 6.52344 19.7253 6.1849 19.4375 5.96484C19.1667 5.72786 18.8197 5.57552 18.3965 5.50781C17.9902 5.42318 17.5163 5.38086 16.9746 5.38086C16.4329 5.38086 15.9505 5.42318 15.5273 5.50781C15.1211 5.57552 14.7741 5.72786 14.4863 5.96484C14.2155 6.1849 14.0039 6.52344 13.8516 6.98047C13.7161 7.42057 13.64 8.00456 13.623 8.73242L12.8613 36.0781Z" fill="black"/>
<path d="M48.5117 11.5508H48.3086L44.8047 14.9785C44.5339 15.2493 44.263 15.4609 43.9922 15.6133C43.7214 15.7487 43.4928 15.8164 43.3066 15.8164C43.2051 15.8164 43.0951 15.7995 42.9766 15.7656C42.8581 15.7318 42.748 15.6641 42.6465 15.5625C42.5618 15.444 42.4857 15.2832 42.418 15.0801C42.3672 14.877 42.3418 14.5977 42.3418 14.2422V9.875C42.3418 9.48568 42.3587 9.14714 42.3926 8.85938C42.4264 8.57161 42.4857 8.31771 42.5703 8.09766C42.6719 7.86068 42.7904 7.64909 42.9258 7.46289C43.0781 7.25977 43.2643 7.04818 43.4844 6.82812L48.2578 1.82617L48.2832 1.80078L48.3594 1.72461C48.6302 1.4707 49.0618 1.30143 49.6543 1.2168C50.2637 1.13216 51.127 1.08984 52.2441 1.08984C53.1413 1.08984 53.8945 1.1237 54.5039 1.19141C55.1302 1.24219 55.6296 1.34375 56.002 1.49609C56.3913 1.64844 56.6621 1.86003 56.8145 2.13086C56.9837 2.40169 57.0599 2.75716 57.043 3.19727L55.9258 42.2734C55.9089 42.6628 55.8327 42.9759 55.6973 43.2129C55.5788 43.4329 55.3672 43.6022 55.0625 43.7207C54.7747 43.8392 54.4023 43.9154 53.9453 43.9492C53.4883 43.9831 52.9212 44 52.2441 44C51.5671 44 51.0254 43.9831 50.6191 43.9492C50.2129 43.9154 49.8913 43.8392 49.6543 43.7207C49.4342 43.6022 49.2819 43.4329 49.1973 43.2129C49.1126 42.9759 49.0703 42.6628 49.0703 42.2734L48.5117 11.5508Z" fill="black"/>
<path d="M74.1074 41.5371C74.1074 40.9447 74.1667 40.4707 74.2852 40.1152C74.4206 39.7428 74.6322 39.3958 74.9199 39.0742L86.5996 23.3574C86.972 22.9004 87.2936 22.4857 87.5645 22.1133C87.8353 21.7409 88.0469 21.3516 88.1992 20.9453C88.3685 20.5391 88.487 20.099 88.5547 19.625C88.6224 19.151 88.6478 18.584 88.6309 17.9238L88.3516 8.73242C88.3346 8.00456 88.25 7.42057 88.0977 6.98047C87.9453 6.52344 87.7253 6.1849 87.4375 5.96484C87.1667 5.72786 86.8197 5.57552 86.3965 5.50781C85.9902 5.42318 85.5163 5.38086 84.9746 5.38086C84.4329 5.38086 83.9505 5.42318 83.5273 5.50781C83.1211 5.57552 82.7741 5.72786 82.4863 5.96484C82.2155 6.1849 82.0039 6.52344 81.8516 6.98047C81.7161 7.42057 81.64 8.00456 81.623 8.73242L81.3184 19.498C81.3014 20.0059 81.2253 20.4206 81.0898 20.7422C80.9544 21.0469 80.7344 21.2839 80.4297 21.4531C80.125 21.6055 79.7188 21.707 79.2109 21.7578C78.7031 21.8086 78.0768 21.834 77.332 21.834C76.5872 21.834 75.9694 21.8086 75.4785 21.7578C74.9876 21.707 74.5983 21.6055 74.3105 21.4531C74.0228 21.2839 73.8112 21.0469 73.6758 20.7422C73.5573 20.4206 73.4896 20.0059 73.4727 19.498L72.7109 8.93555C72.6771 7.66602 72.9225 6.5319 73.4473 5.5332C73.9889 4.51758 74.7845 3.66276 75.834 2.96875C76.8835 2.27474 78.1699 1.74154 79.6934 1.36914C81.2337 0.996745 82.9941 0.810547 84.9746 0.810547C86.9043 0.810547 88.6224 0.996745 90.1289 1.36914C91.6354 1.74154 92.9049 2.27474 93.9375 2.96875C94.9701 3.66276 95.7487 4.51758 96.2734 5.5332C96.8151 6.5319 97.069 7.66602 97.0352 8.93555L96.4766 19.752C96.4596 20.3275 96.3919 20.8691 96.2734 21.377C96.1719 21.8678 96.0026 22.3503 95.7656 22.8242C95.5456 23.2982 95.2578 23.7721 94.9023 24.2461C94.5469 24.7201 94.1237 25.2109 93.6328 25.7188L82.0293 39.0742V39.2773H94.2422C94.6823 39.2773 95.0208 39.3281 95.2578 39.4297C95.5117 39.5312 95.6979 39.6836 95.8164 39.8867C95.9349 40.0729 96.0026 40.3014 96.0195 40.5723C96.0534 40.8262 96.0703 41.1139 96.0703 41.4355C96.0703 41.9095 96.0534 42.3073 96.0195 42.6289C96.0026 42.9505 95.9349 43.2129 95.8164 43.416C95.6979 43.6191 95.5117 43.7715 95.2578 43.873C95.0208 43.9577 94.6823 44 94.2422 44H75.9355C75.5632 44 75.2585 43.9831 75.0215 43.9492C74.7845 43.8984 74.5983 43.8138 74.4629 43.6953C74.3275 43.5599 74.2344 43.3822 74.1836 43.1621C74.1328 42.9421 74.1074 42.6543 74.1074 42.2988V41.5371Z" fill="black"/>
<path d="M107.828 33.4629C107.811 32.9551 107.845 32.5488 107.93 32.2441C108.031 31.9225 108.217 31.6855 108.488 31.5332C108.759 31.3639 109.123 31.2539 109.58 31.2031C110.037 31.1523 110.63 31.127 111.357 31.127C112.035 31.127 112.602 31.1523 113.059 31.2031C113.533 31.2539 113.905 31.3639 114.176 31.5332C114.447 31.6855 114.633 31.9225 114.734 32.2441C114.853 32.5488 114.904 32.9551 114.887 33.4629L114.811 36.2051C114.777 37.5592 115.098 38.5156 115.775 39.0742C116.452 39.6328 117.519 39.9121 118.975 39.9121H119.025C120.464 39.9121 121.522 39.6328 122.199 39.0742C122.893 38.5156 123.223 37.5592 123.189 36.2051L123.037 30.3906C123.02 29.7305 122.927 29.1973 122.758 28.791C122.589 28.3678 122.335 28.0462 121.996 27.8262C121.674 27.5892 121.26 27.4284 120.752 27.3438C120.244 27.2591 119.652 27.2168 118.975 27.2168H117.553C117.113 27.2168 116.766 27.1745 116.512 27.0898C116.275 27.0052 116.097 26.8783 115.979 26.709C115.86 26.5228 115.784 26.2858 115.75 25.998C115.733 25.7103 115.725 25.3633 115.725 24.957C115.725 24.5508 115.733 24.2038 115.75 23.916C115.784 23.6283 115.86 23.3997 115.979 23.2305C116.097 23.0443 116.275 22.9173 116.512 22.8496C116.766 22.765 117.121 22.7227 117.578 22.7227H119.025C119.686 22.7227 120.244 22.6634 120.701 22.5449C121.175 22.4264 121.564 22.2233 121.869 21.9355C122.174 21.6478 122.385 21.2669 122.504 20.793C122.639 20.319 122.699 19.7266 122.682 19.0156L122.326 8.73242C122.292 8.07227 122.208 7.5306 122.072 7.10742C121.954 6.66732 121.759 6.32031 121.488 6.06641C121.234 5.79557 120.896 5.60938 120.473 5.50781C120.066 5.40625 119.567 5.35547 118.975 5.35547C118.399 5.35547 117.908 5.40625 117.502 5.50781C117.096 5.60938 116.757 5.79557 116.486 6.06641C116.215 6.32031 116.012 6.66732 115.877 7.10742C115.758 7.5306 115.691 8.07227 115.674 8.73242L115.344 17.4922C115.327 18.0169 115.251 18.4316 115.115 18.7363C114.98 19.041 114.76 19.278 114.455 19.4473C114.15 19.5996 113.744 19.7012 113.236 19.752C112.729 19.8027 112.102 19.8281 111.357 19.8281C110.613 19.8281 109.995 19.8027 109.504 19.752C109.013 19.7012 108.624 19.5996 108.336 19.4473C108.048 19.278 107.837 19.041 107.701 18.7363C107.583 18.4316 107.515 18.0169 107.498 17.4922L106.939 8.27539C106.923 7.3444 107.083 6.51497 107.422 5.78711C107.76 5.04232 108.226 4.39909 108.818 3.85742C109.428 3.29883 110.13 2.82487 110.926 2.43555C111.738 2.04622 112.593 1.73307 113.49 1.49609C114.387 1.25911 115.301 1.08984 116.232 0.988281C117.18 0.869792 118.094 0.810547 118.975 0.810547C119.855 0.810547 120.76 0.869792 121.691 0.988281C122.639 1.08984 123.562 1.25911 124.459 1.49609C125.356 1.73307 126.202 2.04622 126.998 2.43555C127.794 2.82487 128.479 3.29883 129.055 3.85742C129.647 4.39909 130.113 5.04232 130.451 5.78711C130.79 6.51497 130.951 7.3444 130.934 8.27539L130.578 17.6953C130.544 18.3893 130.451 19.0664 130.299 19.7266C130.163 20.3698 129.901 20.9876 129.512 21.5801C129.122 22.1725 128.581 22.7396 127.887 23.2812C127.21 23.806 126.312 24.3053 125.195 24.7793V24.9824C126.042 25.4733 126.786 25.9303 127.43 26.3535C128.073 26.7767 128.606 27.2422 129.029 27.75C129.452 28.2409 129.766 28.8079 129.969 29.4512C130.172 30.0944 130.265 30.8646 130.248 31.7617L130.07 36.9414C130.036 37.9401 129.833 38.888 129.461 39.7852C129.105 40.6654 128.496 41.444 127.633 42.1211C126.786 42.7812 125.652 43.3145 124.23 43.7207C122.826 44.11 121.074 44.3047 118.975 44.3047C116.893 44.3047 115.149 44.11 113.744 43.7207C112.356 43.3145 111.23 42.7812 110.367 42.1211C109.521 41.444 108.911 40.6654 108.539 39.7852C108.167 38.888 107.964 37.9401 107.93 36.9414L107.828 33.4629Z" fill="black"/>
<path d="M143.326 34.7324C143.072 34.7324 142.776 34.707 142.438 34.6562C142.116 34.5885 141.803 34.4954 141.498 34.377C141.21 34.2415 140.965 34.0723 140.762 33.8691C140.559 33.666 140.457 33.429 140.457 33.1582V32.3203C140.457 31.8125 140.533 31.3216 140.686 30.8477C140.855 30.3737 141.033 29.8743 141.219 29.3496L149.598 3.47656C149.767 2.95182 149.97 2.53711 150.207 2.23242C150.444 1.91081 150.749 1.66536 151.121 1.49609C151.51 1.32682 151.984 1.2168 152.543 1.16602C153.102 1.11523 153.804 1.08984 154.65 1.08984C156.648 1.08984 157.985 1.30143 158.662 1.72461C159.356 2.14779 159.525 2.79102 159.17 3.6543L148.658 29.7559H156.174L155.92 20.7168C155.903 20.2767 155.962 19.9212 156.098 19.6504C156.25 19.3796 156.495 19.168 156.834 19.0156C157.189 18.8633 157.638 18.7617 158.18 18.7109C158.738 18.6432 159.415 18.6094 160.211 18.6094C161.108 18.6094 161.811 18.6348 162.318 18.6855C162.843 18.7363 163.224 18.8379 163.461 18.9902C163.715 19.1257 163.867 19.3372 163.918 19.625C163.986 19.8958 164.011 20.2598 163.994 20.7168L163.385 42.2734C163.368 42.6628 163.292 42.9759 163.156 43.2129C163.038 43.4329 162.826 43.6022 162.521 43.7207C162.234 43.8392 161.861 43.9154 161.404 43.9492C160.947 43.9831 160.38 44 159.703 44C159.026 44 158.484 43.9831 158.078 43.9492C157.672 43.9154 157.35 43.8392 157.113 43.7207C156.893 43.6022 156.741 43.4329 156.656 43.2129C156.572 42.9759 156.529 42.6628 156.529 42.2734L156.301 34.7324H144.088H143.326Z" fill="black"/>
<path d="M5.92969 79.4121C5.91276 78.972 5.93815 78.6165 6.00586 78.3457C6.09049 78.0749 6.25977 77.8633 6.51367 77.7109C6.76758 77.5586 7.12305 77.457 7.58008 77.4062C8.05404 77.3385 8.6888 77.3047 9.48438 77.3047C10.3307 77.3047 11.0078 77.3385 11.5156 77.4062C12.0234 77.457 12.4043 77.5586 12.6582 77.7109C12.929 77.8633 13.1068 78.0749 13.1914 78.3457C13.276 78.6165 13.3099 78.972 13.293 79.4121L13.2168 82.0781C13.1829 83.5 13.4453 84.5072 14.0039 85.0996C14.5794 85.6751 15.5189 85.9629 16.8223 85.9629C18.1257 85.9629 19.0651 85.6751 19.6406 85.0996C20.2161 84.5072 20.487 83.5 20.4531 82.0781L20.0977 69.2305C20.0807 68.5195 19.9961 67.9355 19.8438 67.4785C19.7083 67.0046 19.4883 66.6322 19.1836 66.3613C18.8789 66.0736 18.4896 65.8789 18.0156 65.7773C17.5417 65.6589 16.9746 65.5996 16.3145 65.5996H11.2109C11.0247 65.6165 10.8132 65.625 10.5762 65.625C10.3392 65.625 10.0853 65.625 9.81445 65.625C9.01888 65.625 8.39258 65.6081 7.93555 65.5742C7.47852 65.5404 7.12305 65.4642 6.86914 65.3457C6.63216 65.2272 6.47135 65.0579 6.38672 64.8379C6.31901 64.6009 6.27669 64.2878 6.25977 63.8984L5.65039 49.1973C5.63346 48.7572 5.68424 48.4017 5.80273 48.1309C5.92122 47.86 6.13281 47.6484 6.4375 47.4961C6.75911 47.3438 7.19076 47.2422 7.73242 47.1914C8.27409 47.1237 8.9681 47.0898 9.81445 47.0898H9.83984H26.1152C26.5553 47.0898 26.8939 47.1322 27.1309 47.2168C27.3848 47.3014 27.571 47.4538 27.6895 47.6738C27.8079 47.877 27.8757 48.1647 27.8926 48.5371C27.9264 48.8926 27.9434 49.3496 27.9434 49.9082C27.9434 50.4668 27.9264 50.9323 27.8926 51.3047C27.8757 51.6602 27.8079 51.9479 27.6895 52.168C27.571 52.3711 27.3848 52.515 27.1309 52.5996C26.8939 52.6842 26.5553 52.7266 26.1152 52.7266H13.8262L13.4961 60.877H21.4941C22.1204 60.877 22.8483 60.9785 23.6777 61.1816C24.5072 61.3848 25.2858 61.7402 26.0137 62.248C26.7585 62.7389 27.3763 63.4076 27.8672 64.2539C28.375 65.0833 28.612 66.1328 28.5781 67.4023L27.6387 83.0684C27.6048 84.1686 27.334 85.1673 26.8262 86.0645C26.3184 86.9447 25.599 87.7064 24.668 88.3496C23.7539 88.9759 22.6283 89.4583 21.291 89.7969C19.9707 90.1354 18.4811 90.3047 16.8223 90.3047C15.1634 90.3047 13.6738 90.1354 12.3535 89.7969C11.0332 89.4583 9.90755 88.9759 8.97656 88.3496C8.04557 87.7064 7.32617 86.9447 6.81836 86.0645C6.32747 85.1673 6.0651 84.1686 6.03125 83.0684L5.92969 79.4121Z" fill="black"/>
<path d="M39.0918 55.0117C39.0579 53.7422 39.3118 52.6165 39.8535 51.6348C40.3952 50.653 41.1823 49.8236 42.2148 49.1465C43.2643 48.4694 44.5423 47.9616 46.0488 47.623C47.5553 47.2676 49.2565 47.0898 51.1523 47.0898H59.7598C60.2845 47.0898 60.6992 47.1237 61.0039 47.1914C61.3086 47.2591 61.5371 47.3945 61.6895 47.5977C61.8418 47.8008 61.9349 48.0885 61.9688 48.4609C62.0026 48.8333 62.0195 49.3327 62.0195 49.959C62.0195 50.9746 61.9095 51.6855 61.6895 52.0918C61.4863 52.498 61.0885 52.7012 60.4961 52.7012H51.127C50.5853 52.7012 50.1029 52.735 49.6797 52.8027C49.2734 52.8704 48.9264 53.0228 48.6387 53.2598C48.3678 53.4967 48.1562 53.8353 48.0039 54.2754C47.8516 54.7155 47.7669 55.3079 47.75 56.0527L47.5977 61.791C48.2917 61.5879 49.0618 61.4186 49.9082 61.2832C50.7715 61.1478 51.7194 61.0801 52.752 61.0801C53.3783 61.0801 54.0638 61.1224 54.8086 61.207C55.5534 61.2917 56.3066 61.4355 57.0684 61.6387C57.8301 61.8418 58.5579 62.1126 59.252 62.4512C59.9629 62.7728 60.5892 63.179 61.1309 63.6699C61.6895 64.1439 62.1211 64.7109 62.4258 65.3711C62.7474 66.0143 62.8997 66.7591 62.8828 67.6055L62.1973 83.0684C62.1634 84.1686 61.8841 85.1673 61.3594 86.0645C60.8516 86.9447 60.1152 87.7064 59.1504 88.3496C58.2025 88.9759 57.0514 89.4583 55.6973 89.7969C54.3431 90.1354 52.8197 90.3047 51.127 90.3047C49.4173 90.3047 47.8854 90.1354 46.5312 89.7969C45.194 89.4583 44.0514 88.9759 43.1035 88.3496C42.1556 87.7064 41.4193 86.9447 40.8945 86.0645C40.3867 85.1673 40.1159 84.1686 40.082 83.0684L39.0918 55.0117ZM47.0137 82.0781C46.9798 83.5 47.2845 84.5072 47.9277 85.0996C48.571 85.6751 49.6374 85.9629 51.127 85.9629C52.6165 85.9629 53.6829 85.6751 54.3262 85.0996C54.9863 84.5072 55.2995 83.5 55.2656 82.0781L54.9102 69.4336C54.8932 68.7227 54.8086 68.1302 54.6562 67.6562C54.5208 67.1823 54.3008 66.8099 53.9961 66.5391C53.6914 66.2513 53.3021 66.0482 52.8281 65.9297C52.3542 65.8112 51.7871 65.752 51.127 65.752C50.5007 65.752 49.8828 65.7943 49.2734 65.8789C48.681 65.9466 48.0885 66.099 47.4961 66.3359L47.0137 82.0781Z" fill="black"/>
<path d="M88.0977 52.2949L80.2773 52.3203L79.6172 57.7285C79.6172 58.0501 79.5749 58.304 79.4902 58.4902C79.4225 58.6764 79.2786 58.8203 79.0586 58.9219C78.8385 59.0234 78.5254 59.0911 78.1191 59.125C77.7298 59.1589 77.2051 59.1758 76.5449 59.1758C75.7832 59.1758 75.1654 59.1589 74.6914 59.125C74.2344 59.0911 73.8789 59.0234 73.625 58.9219C73.3711 58.8203 73.2018 58.6764 73.1172 58.4902C73.0326 58.304 72.9902 58.0501 72.9902 57.7285L72.6855 48.9434C72.6855 48.5879 72.7194 48.3001 72.7871 48.0801C72.8717 47.8431 73.041 47.6569 73.2949 47.5215C73.5658 47.3691 73.9551 47.2591 74.4629 47.1914C74.9876 47.1237 75.6816 47.0898 76.5449 47.0898H95.6895C96.1296 47.0898 96.4681 47.1237 96.7051 47.1914C96.959 47.2591 97.1367 47.3861 97.2383 47.5723C97.3568 47.7585 97.4245 48.0124 97.4414 48.334C97.4753 48.6556 97.5007 49.0703 97.5176 49.5781C97.5345 50.1198 97.526 50.543 97.4922 50.8477C97.4583 51.1523 97.4245 51.3724 97.3906 51.5078L84.2891 88.2734C84.1536 88.5951 84.0182 88.8659 83.8828 89.0859C83.7643 89.306 83.5951 89.4837 83.375 89.6191C83.1549 89.7546 82.8672 89.8561 82.5117 89.9238C82.1562 89.9746 81.6908 90 81.1152 90C80.4382 90 79.8796 89.9831 79.4395 89.9492C78.9993 89.9154 78.6523 89.8392 78.3984 89.7207C78.1445 89.5853 77.9837 89.4076 77.916 89.1875C77.8483 88.9674 77.8568 88.6628 77.9414 88.2734L88.0977 52.2949Z" fill="black"/>
<path d="M107.752 77.7617C107.718 76.8646 107.803 76.0944 108.006 75.4512C108.226 74.8079 108.548 74.2409 108.971 73.75C109.394 73.2422 109.927 72.7767 110.57 72.3535C111.214 71.9303 111.958 71.4733 112.805 70.9824V70.7793C111.688 70.3053 110.782 69.806 110.088 69.2812C109.394 68.7396 108.852 68.1725 108.463 67.5801C108.074 66.9876 107.803 66.3698 107.65 65.7266C107.515 65.0664 107.439 64.3893 107.422 63.6953L106.889 54.2754C106.872 53.3444 107.033 52.515 107.371 51.7871C107.71 51.0423 108.175 50.3991 108.768 49.8574C109.377 49.2988 110.079 48.8249 110.875 48.4355C111.671 48.0462 112.517 47.7331 113.414 47.4961C114.328 47.2591 115.259 47.0898 116.207 46.9883C117.155 46.8698 118.077 46.8105 118.975 46.8105C119.872 46.8105 120.794 46.8698 121.742 46.9883C122.707 47.0898 123.638 47.2591 124.535 47.4961C125.449 47.7331 126.304 48.0462 127.1 48.4355C127.912 48.8249 128.615 49.2988 129.207 49.8574C129.816 50.3991 130.29 51.0423 130.629 51.7871C130.967 52.515 131.128 53.3444 131.111 54.2754L130.578 63.6953C130.561 64.3893 130.477 65.0664 130.324 65.7266C130.189 66.3698 129.926 66.9876 129.537 67.5801C129.148 68.1725 128.606 68.7396 127.912 69.2812C127.218 69.806 126.312 70.3053 125.195 70.7793V70.9824C126.042 71.4733 126.786 71.9303 127.43 72.3535C128.073 72.7767 128.606 73.2422 129.029 73.75C129.452 74.2409 129.766 74.8079 129.969 75.4512C130.172 76.0944 130.265 76.8646 130.248 77.7617L130.07 82.9414C130.036 83.9401 129.833 84.888 129.461 85.7852C129.105 86.6654 128.496 87.444 127.633 88.1211C126.786 88.7812 125.652 89.3145 124.23 89.7207C122.826 90.11 121.074 90.3047 118.975 90.3047C116.893 90.3047 115.149 90.11 113.744 89.7207C112.356 89.3145 111.23 88.7812 110.367 88.1211C109.521 87.444 108.903 86.6654 108.514 85.7852C108.141 84.888 107.947 83.9401 107.93 82.9414L107.752 77.7617ZM119.025 68.748C120.329 68.748 121.277 68.4857 121.869 67.9609C122.462 67.4193 122.732 66.4375 122.682 65.0156L122.326 54.7324C122.292 54.0723 122.208 53.5306 122.072 53.1074C121.954 52.6673 121.759 52.3203 121.488 52.0664C121.234 51.7956 120.896 51.6094 120.473 51.5078C120.066 51.4062 119.567 51.3555 118.975 51.3555C118.399 51.3555 117.908 51.4062 117.502 51.5078C117.096 51.6094 116.757 51.7956 116.486 52.0664C116.232 52.3203 116.038 52.6673 115.902 53.1074C115.767 53.5306 115.691 54.0723 115.674 54.7324L115.318 65.0156C115.285 65.7266 115.335 66.319 115.471 66.793C115.606 67.2669 115.826 67.6562 116.131 67.9609C116.436 68.2487 116.825 68.4518 117.299 68.5703C117.79 68.6888 118.365 68.748 119.025 68.748ZM114.811 82.2051C114.777 83.5592 115.098 84.5156 115.775 85.0742C116.452 85.6328 117.519 85.9121 118.975 85.9121H119.025C120.464 85.9121 121.522 85.6328 122.199 85.0742C122.893 84.5156 123.223 83.5592 123.189 82.2051L123.037 76.3906C123.02 75.7305 122.927 75.1973 122.758 74.791C122.589 74.3678 122.335 74.0462 121.996 73.8262C121.674 73.5892 121.26 73.4284 120.752 73.3438C120.244 73.2591 119.652 73.2168 118.975 73.2168C118.298 73.2168 117.705 73.2591 117.197 73.3438C116.706 73.4284 116.292 73.5892 115.953 73.8262C115.632 74.0462 115.386 74.3678 115.217 74.791C115.064 75.1973 114.98 75.7305 114.963 76.3906L114.811 82.2051Z" fill="black"/>
<path d="M143.555 87.6133C143.555 87.1055 143.58 86.6992 143.631 86.3945C143.682 86.0898 143.758 85.8529 143.859 85.6836C143.978 85.5143 144.13 85.4043 144.316 85.3535C144.52 85.3027 144.773 85.2773 145.078 85.2773H152.416C153.229 85.2773 153.914 85.2012 154.473 85.0488C155.031 84.8965 155.48 84.651 155.818 84.3125C156.157 83.974 156.402 83.5339 156.555 82.9922C156.707 82.4505 156.783 81.7988 156.783 81.0371V75.2227C156.462 75.3242 156.132 75.4258 155.793 75.5273C155.454 75.612 155.082 75.6966 154.676 75.7812C154.27 75.849 153.804 75.9082 153.279 75.959C152.771 75.9928 152.188 76.0098 151.527 76.0098C150.901 76.0098 150.215 75.9674 149.471 75.8828C148.743 75.7982 148.007 75.6628 147.262 75.4766C146.534 75.2904 145.823 75.0365 145.129 74.7148C144.435 74.3932 143.809 73.9954 143.25 73.5215C142.708 73.0475 142.268 72.4889 141.93 71.8457C141.591 71.2025 141.413 70.4577 141.396 69.6113L140.762 54.2754C140.745 53.3444 140.906 52.515 141.244 51.7871C141.583 51.0423 142.048 50.3991 142.641 49.8574C143.25 49.2988 143.952 48.8249 144.748 48.4355C145.544 48.0462 146.39 47.7331 147.287 47.4961C148.201 47.2591 149.132 47.0898 150.08 46.9883C151.028 46.8698 151.951 46.8105 152.848 46.8105C153.745 46.8105 154.667 46.8698 155.615 46.9883C156.58 47.0898 157.52 47.2591 158.434 47.4961C159.348 47.7331 160.202 48.0462 160.998 48.4355C161.811 48.8249 162.513 49.2988 163.105 49.8574C163.715 50.3991 164.189 51.0423 164.527 51.7871C164.866 52.515 165.018 53.3444 164.984 54.2754L163.689 82.6367C163.656 83.6354 163.452 84.5833 163.08 85.4805C162.725 86.3607 162.115 87.1393 161.252 87.8164C160.389 88.4766 159.238 89.0098 157.799 89.416C156.36 89.8053 154.557 90 152.391 90H145.814C145.29 90 144.875 89.9915 144.57 89.9746C144.266 89.9577 144.037 89.8815 143.885 89.7461C143.732 89.5938 143.639 89.3568 143.605 89.0352C143.572 88.7135 143.555 88.2396 143.555 87.6133ZM152.898 71.541C153.525 71.541 154.151 71.4987 154.777 71.4141C155.421 71.3294 156.038 71.1686 156.631 70.9316L156.199 54.7324C156.182 54.0723 156.106 53.5306 155.971 53.1074C155.835 52.6673 155.632 52.3203 155.361 52.0664C155.107 51.7956 154.769 51.6094 154.346 51.5078C153.939 51.4062 153.44 51.3555 152.848 51.3555C152.272 51.3555 151.781 51.4062 151.375 51.5078C150.969 51.6094 150.63 51.7956 150.359 52.0664C150.105 52.3203 149.911 52.6673 149.775 53.1074C149.64 53.5306 149.564 54.0723 149.547 54.7324L149.191 67.8086C149.158 68.5195 149.208 69.112 149.344 69.5859C149.479 70.0599 149.699 70.4492 150.004 70.7539C150.309 71.0417 150.698 71.2448 151.172 71.3633C151.663 71.4818 152.238 71.541 152.898 71.541Z" fill="black"/>
<path d="M17 114.596C16.1198 114.596 15.4004 114.579 14.8418 114.545C14.3001 114.511 13.877 114.443 13.5723 114.342C13.2676 114.24 13.056 114.096 12.9375 113.91C12.819 113.724 12.7513 113.47 12.7344 113.148L12.5059 107.359C12.472 107.004 12.5059 106.708 12.6074 106.471C12.709 106.217 12.9206 106.022 13.2422 105.887C13.5638 105.751 14.0208 105.658 14.6133 105.607C15.2227 105.54 16.0182 105.506 17 105.506C17.9818 105.506 18.7689 105.54 19.3613 105.607C19.9538 105.658 20.4108 105.751 20.7324 105.887C21.054 106.022 21.2656 106.217 21.3672 106.471C21.4688 106.708 21.5111 107.004 21.4941 107.359L21.2656 113.148C21.2487 113.47 21.181 113.724 21.0625 113.91C20.944 114.096 20.7324 114.24 20.4277 114.342C20.123 114.443 19.6914 114.511 19.1328 114.545C18.5911 114.579 17.8802 114.596 17 114.596ZM12.9375 129.602C12.9036 129.246 12.929 128.95 13.0137 128.713C13.0983 128.459 13.2845 128.264 13.5723 128.129C13.86 127.993 14.2832 127.9 14.8418 127.85C15.4004 127.782 16.1367 127.748 17.0508 127.748C17.9648 127.748 18.6927 127.782 19.2344 127.85C19.793 127.9 20.2161 127.993 20.5039 128.129C20.8086 128.264 20.9948 128.459 21.0625 128.713C21.1471 128.95 21.181 129.246 21.1641 129.602L20.8848 134.553C20.8678 134.874 20.8086 135.128 20.707 135.314C20.6224 135.501 20.4447 135.645 20.1738 135.746C19.903 135.848 19.5221 135.915 19.0312 135.949C18.5404 135.983 17.8802 136 17.0508 136C16.2214 136 15.5612 135.983 15.0703 135.949C14.5794 135.915 14.1986 135.848 13.9277 135.746C13.6738 135.645 13.4961 135.501 13.3945 135.314C13.3099 135.128 13.2591 134.874 13.2422 134.553L12.9375 129.602Z" fill="black"/>
<path d="M46.8867 129.602C46.8529 129.246 46.8783 128.95 46.9629 128.713C47.0475 128.459 47.2337 128.264 47.5215 128.129C47.8092 127.993 48.2324 127.9 48.791 127.85C49.3496 127.782 50.0859 127.748 51 127.748C51.9141 127.748 52.6419 127.782 53.1836 127.85C53.7422 127.9 54.1654 127.993 54.4531 128.129C54.7578 128.264 54.944 128.459 55.0117 128.713C55.0964 128.95 55.1302 129.246 55.1133 129.602L54.834 134.553C54.8171 134.874 54.7578 135.128 54.6562 135.314C54.5716 135.501 54.3939 135.645 54.123 135.746C53.8522 135.848 53.4714 135.915 52.9805 135.949C52.4896 135.983 51.8294 136 51 136C50.1706 136 49.5104 135.983 49.0195 135.949C48.5286 135.915 48.1478 135.848 47.877 135.746C47.623 135.645 47.4453 135.501 47.3438 135.314C47.2591 135.128 47.2083 134.874 47.1914 134.553L46.8867 129.602Z" fill="black"/>
<path d="M78.6016 95.248C78.6693 94.7741 78.7793 94.3848 78.9316 94.0801C79.1009 93.7754 79.3971 93.5384 79.8203 93.3691C80.2604 93.1999 80.8867 93.0898 81.6992 93.0391C82.5117 92.9714 83.612 92.9375 85 92.9375C86.3711 92.9375 87.4629 92.9714 88.2754 93.0391C89.0879 93.0898 89.7057 93.1999 90.1289 93.3691C90.569 93.5384 90.8652 93.7754 91.0176 94.0801C91.1699 94.3848 91.2884 94.7741 91.373 95.248L98.1016 134.02C98.1693 134.477 98.1608 134.84 98.0762 135.111C98.0085 135.365 97.8392 135.56 97.5684 135.695C97.3145 135.831 96.959 135.915 96.502 135.949C96.0449 135.983 95.4863 136 94.8262 136C94.0137 136 93.362 135.983 92.8711 135.949C92.3971 135.915 92.0247 135.831 91.7539 135.695C91.4831 135.56 91.2799 135.365 91.1445 135.111C91.026 134.84 90.9329 134.477 90.8652 134.02L89.8242 127.951H80.1504L79.1094 134.02C79.0247 134.477 78.9232 134.84 78.8047 135.111C78.6862 135.365 78.4915 135.56 78.2207 135.695C77.9499 135.831 77.569 135.915 77.0781 135.949C76.6042 135.983 75.9609 136 75.1484 136C74.4883 136 73.9297 135.983 73.4727 135.949C73.0326 135.915 72.6771 135.831 72.4062 135.695C72.1354 135.56 71.9577 135.365 71.873 135.111C71.7884 134.84 71.7884 134.477 71.873 134.02L78.6016 95.248ZM88.9863 123.127L85.1016 100.605H84.873L80.9883 123.127H88.9863Z" fill="black"/>
<path d="M107.879 95.1973C107.862 94.7572 107.904 94.4017 108.006 94.1309C108.107 93.86 108.319 93.6484 108.641 93.4961C108.979 93.3438 109.453 93.2422 110.062 93.1914C110.672 93.1237 111.484 93.0898 112.5 93.0898H113.135H118.924C120.667 93.0898 122.284 93.2507 123.773 93.5723C125.28 93.877 126.583 94.3678 127.684 95.0449C128.784 95.7051 129.639 96.5599 130.248 97.6094C130.874 98.6419 131.162 99.8945 131.111 101.367L130.781 113.428C130.747 114.393 130.536 115.357 130.146 116.322C129.774 117.287 129.148 118.159 128.268 118.938C127.404 119.699 126.253 120.326 124.814 120.816C123.393 121.29 121.624 121.527 119.508 121.527H116.359L116.004 134.273C116.004 134.663 115.962 134.976 115.877 135.213C115.809 135.433 115.648 135.602 115.395 135.721C115.158 135.839 114.811 135.915 114.354 135.949C113.896 135.983 113.279 136 112.5 136C111.721 136 111.095 135.983 110.621 135.949C110.164 135.915 109.817 135.839 109.58 135.721C109.343 135.602 109.182 135.433 109.098 135.213C109.03 134.976 108.988 134.663 108.971 134.273L107.879 95.1973ZM118.391 117.389C119.203 117.389 119.88 117.329 120.422 117.211C120.964 117.076 121.387 116.864 121.691 116.576C122.013 116.288 122.233 115.908 122.352 115.434C122.487 114.943 122.546 114.342 122.529 113.631L122.174 100.555C122.157 99.8945 122.089 99.3698 121.971 98.9805C121.852 98.5742 121.641 98.2611 121.336 98.041C121.031 97.821 120.617 97.6771 120.092 97.6094C119.584 97.5247 118.924 97.4824 118.111 97.4824H117.045L116.486 117.389H118.391Z" fill="black"/>
<path d="M136.547 95.1973C136.53 94.7572 136.589 94.4017 136.725 94.1309C136.86 93.86 137.097 93.6484 137.436 93.4961C137.791 93.3438 138.265 93.2422 138.857 93.1914C139.467 93.1237 140.237 93.0898 141.168 93.0898C142.014 93.0898 142.725 93.1152 143.301 93.166C143.876 93.1999 144.342 93.2676 144.697 93.3691C145.07 93.4707 145.349 93.6146 145.535 93.8008C145.738 93.987 145.882 94.2155 145.967 94.4863L153.025 116.068H153.305L160.262 94.4863C160.329 94.2155 160.456 93.987 160.643 93.8008C160.829 93.6146 161.1 93.4707 161.455 93.3691C161.811 93.2676 162.259 93.1999 162.801 93.166C163.342 93.1152 164.011 93.0898 164.807 93.0898C165.805 93.0898 166.609 93.1237 167.219 93.1914C167.828 93.2422 168.302 93.3438 168.641 93.4961C168.979 93.6484 169.199 93.86 169.301 94.1309C169.419 94.4017 169.47 94.7572 169.453 95.1973L168.336 134.273C168.319 134.663 168.277 134.976 168.209 135.213C168.141 135.433 167.989 135.602 167.752 135.721C167.532 135.839 167.21 135.915 166.787 135.949C166.364 135.983 165.788 136 165.061 136C164.35 136 163.774 135.983 163.334 135.949C162.911 135.915 162.589 135.839 162.369 135.721C162.149 135.602 161.997 135.433 161.912 135.213C161.844 134.976 161.811 134.663 161.811 134.273L161.988 106.928H161.658L155.818 127.215C155.717 127.536 155.607 127.799 155.488 128.002C155.387 128.205 155.234 128.366 155.031 128.484C154.828 128.586 154.549 128.654 154.193 128.688C153.855 128.721 153.398 128.738 152.822 128.738C152.314 128.738 151.908 128.721 151.604 128.688C151.299 128.637 151.053 128.561 150.867 128.459C150.698 128.34 150.562 128.188 150.461 128.002C150.359 127.799 150.258 127.536 150.156 127.215L144.393 106.928H144.062L144.189 134.273C144.189 134.663 144.147 134.976 144.062 135.213C143.995 135.433 143.842 135.602 143.605 135.721C143.385 135.839 143.064 135.915 142.641 135.949C142.217 135.983 141.642 136 140.914 136C140.186 136 139.611 135.983 139.188 135.949C138.764 135.915 138.434 135.839 138.197 135.721C137.977 135.602 137.833 135.433 137.766 135.213C137.698 134.976 137.656 134.663 137.639 134.273L136.547 95.1973Z" fill="black"/>
</g>
</svg>
