<svg width="140" height="138" viewBox="0 0 140 138" fill="none" xmlns="http://www.w3.org/2000/svg">
<g clip-path="url(#clip0_100_2)">
<path d="M5.08391 44.52L9.20391 40.2H19.0839L22.9639 44.52H5.08391ZM3.88391 24.88L8.20391 29.04V38.84L3.88391 42.76V24.88ZM24.2439 42.76L19.9239 38.64V28.8L24.2439 24.88V42.76ZM5.04391 3.88H22.9239L18.9639 8.2H9.16391L5.04391 3.88ZM3.76391 23.48V5.6L8.08391 9.48V19.4L3.76391 23.48ZM24.1239 5.6V23.48L19.8039 19.6V9.72L24.1239 5.6Z" fill="black"/>
<path d="M52.2439 42.76L47.9239 38.64V28.8L52.2439 24.88V42.76ZM52.1239 5.6V23.48L47.8039 19.6V9.72L52.1239 5.6Z" fill="black"/>
<path d="M61.0839 44.52L65.2039 40.2H75.0839L78.9639 44.52H61.0839ZM59.8839 24.88L64.2039 29.04V38.84L59.8839 42.76V24.88ZM64.5239 26.32C63.5906 25.5733 62.6439 24.84 61.6839 24.12L64.5239 22H75.4439L78.2439 24.12L75.4439 26.32H64.5239ZM61.0439 3.88H78.9239L74.9639 8.2H65.1639L61.0439 3.88ZM80.1239 5.6V23.48L75.8039 19.6V9.72L80.1239 5.6Z" fill="black"/>
<path d="M89.2039 44.52L93.2439 40.2H103.164L107.044 44.52H89.2039ZM108.284 42.76L104.004 38.64V28.8L108.284 24.88V42.76ZM92.5639 26.32C91.6572 25.5733 90.7239 24.84 89.7639 24.12L92.5639 22H103.484L106.284 24.12L103.484 26.32H92.5639ZM89.0839 3.88H107.004L103.084 8.2H93.2039L89.0839 3.88ZM108.164 5.6V23.48L103.884 19.6V9.72L108.164 5.6Z" fill="black"/>
<path d="M136.244 42.76L131.924 38.64V28.8L136.244 24.88V42.76ZM120.524 26.32C119.591 25.5733 118.644 24.84 117.684 24.12L120.524 22H131.444L134.244 24.12L131.444 26.32H120.524ZM115.764 23.48V5.6L120.084 9.48V19.4L115.764 23.48ZM136.124 5.6V23.48L131.804 19.6V9.72L136.124 5.6Z" fill="black"/>
<path d="M5.08391 90.52L9.20391 86.2H19.0839L22.9639 90.52H5.08391ZM24.2439 88.76L19.9239 84.64V74.8L24.2439 70.88V88.76ZM8.52391 72.32C7.59057 71.5733 6.64391 70.84 5.68391 70.12L8.52391 68H19.4439L22.2439 70.12L19.4439 72.32H8.52391ZM5.04391 49.88H22.9239L18.9639 54.2H9.16391L5.04391 49.88ZM3.76391 69.48V51.6L8.08391 55.48V65.4L3.76391 69.48Z" fill="black"/>
<path d="M33.0839 90.52L37.2039 86.2H47.0839L50.9639 90.52H33.0839ZM31.8839 70.88L36.2039 75.04V84.84L31.8839 88.76V70.88ZM52.2439 88.76L47.9239 84.64V74.8L52.2439 70.88V88.76ZM36.5239 72.32C35.5906 71.5733 34.6439 70.84 33.6839 70.12L36.5239 68H47.4439L50.2439 70.12L47.4439 72.32H36.5239ZM33.0439 49.88H50.9239L46.9639 54.2H37.1639L33.0439 49.88ZM31.7639 69.48V51.6L36.0839 55.48V65.4L31.7639 69.48Z" fill="black"/>
<path d="M80.4039 88.76L76.1239 84.64V74.8L80.4039 70.88V88.76ZM61.2039 49.88H79.1239L75.2039 54.2H65.3239L61.2039 49.88ZM80.2839 51.6V69.48L76.0039 65.6V55.72L80.2839 51.6Z" fill="black"/>
<path d="M89.0839 90.52L93.2039 86.2H103.084L106.964 90.52H89.0839ZM87.8839 70.88L92.2039 75.04V84.84L87.8839 88.76V70.88ZM108.244 88.76L103.924 84.64V74.8L108.244 70.88V88.76ZM92.5239 72.32C91.5906 71.5733 90.6439 70.84 89.6839 70.12L92.5239 68H103.444L106.244 70.12L103.444 72.32H92.5239ZM89.0439 49.88H106.924L102.964 54.2H93.1639L89.0439 49.88ZM87.7639 69.48V51.6L92.0839 55.48V65.4L87.7639 69.48ZM108.124 51.6V69.48L103.804 65.6V55.72L108.124 51.6Z" fill="black"/>
<path d="M136.244 88.76L131.924 84.64V74.8L136.244 70.88V88.76ZM120.524 72.32C119.591 71.5733 118.644 70.84 117.684 70.12L120.524 68H131.444L134.244 70.12L131.444 72.32H120.524ZM117.044 49.88H134.924L130.964 54.2H121.164L117.044 49.88ZM115.764 69.48V51.6L120.084 55.48V65.4L115.764 69.48ZM136.124 51.6V69.48L131.804 65.6V55.72L136.124 51.6Z" fill="black"/>
<path d="M11.4839 116.48H16.5239V121.48H11.4839V116.48ZM11.4839 104.6H16.5239V109.72H11.4839V104.6Z" fill="black"/>
<path d="M40.0078 130.6H45.0478V135.72H40.0078V130.6Z" fill="black"/>
<path d="M59.8839 116.88L64.2039 121.04V130.84L59.8839 134.76V116.88ZM80.2439 134.76L75.9239 130.64V120.8L80.2439 116.88V134.76ZM64.5239 118.32C63.5906 117.573 62.6439 116.84 61.6839 116.12L64.5239 114H75.4439L78.2439 116.12L75.4439 118.32H64.5239ZM61.0439 95.88H78.9239L74.9639 100.2H65.1639L61.0439 95.88ZM59.7639 115.48V97.6L64.0839 101.48V111.4L59.7639 115.48ZM80.1239 97.6V115.48L75.8039 111.6V101.72L80.1239 97.6Z" fill="black"/>
<path d="M87.9239 116.88L92.2439 121.04V130.84L87.9239 134.76V116.88ZM92.5239 118.32C91.5906 117.547 90.6572 116.813 89.7239 116.12L92.5239 114H103.484L106.284 116.12L103.484 118.32H92.5239ZM89.0839 95.88H106.924L103.044 100.2H93.1639L89.0839 95.88ZM87.8039 115.48V97.6L92.1239 101.48V111.4L87.8039 115.48ZM108.204 97.6V115.48L103.884 111.6V101.72L108.204 97.6Z" fill="black"/>
<path d="M114.044 116.88L118.364 121.04V130.84L114.044 134.76V116.88ZM138.404 134.76L134.084 130.64V120.8L138.404 116.88V134.76ZM125.324 106.64L125.524 108.4L122.044 108.08L114.004 100.6L113.444 97.16L116.924 97.48L124.964 104.88L125.324 106.64ZM113.964 115.48V102.4L118.284 106.32V111.4L113.964 115.48ZM138.324 102.4V115.48L134.004 111.6V106.52L138.324 102.4ZM126.684 106.64L127.044 104.88L135.084 97.48L138.564 97.16L138.004 100.6L129.964 108.08L126.484 108.4L126.684 106.64Z" fill="black"/>
</g>
</svg>
