<svg width="120" height="138" viewBox="0 0 120 138" fill="none" xmlns="http://www.w3.org/2000/svg">
<g clip-path="url(#clip0_100_2)">
<path d="M4.368 39.344H1.344V12.128H4.368V9.152H7.344V6.224H16.752V9.152H19.68V12.128H22.656V39.344H19.68V42.32H16.752V45.344H7.344V42.32H4.368V39.344ZM7.824 38.864V41.792H16.224V38.864H19.2V12.656H16.224V9.68H7.824V12.656H4.896V38.864H7.824Z" fill="black"/>
<path d="M37.2 9.68H31.296V6.224H40.704V45.344H37.2V9.68Z" fill="black"/>
<path d="M49.344 32.912H52.368V29.936H55.344V26.96H61.248V23.984H64.224V21.056H67.2V12.656H64.224V9.68H55.824V12.656H52.896V21.536H49.344V12.128H52.368V9.152H55.344V6.224H64.752V9.152H67.68V12.128H70.656V21.536H67.68V24.512H64.752V27.488H61.776V30.464H55.824V33.44H52.896V41.792H70.656V45.344H49.344V32.912Z" fill="black"/>
<path d="M76.368 39.344H73.344V32.912H76.896V38.864H79.824V41.792H88.224V38.864H91.2V30.464H88.224V27.488H79.344V23.984H88.224V21.056H91.2V12.656H88.224V9.68H79.824V12.656H76.896V18.608H73.344V12.128H76.368V9.152H79.344V6.224H88.752V9.152H91.68V12.128H94.656V21.536H91.68V24.512H88.752V26.96H91.68V29.936H94.656V39.344H91.68V42.32H88.752V45.344H79.344V42.32H76.368V39.344Z" fill="black"/>
<path d="M96.096 35.888H99.072V32.912H102V26.96H104.832V21.056H107.76V15.104H110.688V9.152H113.616V6.224H116.976V35.888H119.904V39.344H116.976V45.344H113.616V39.344H96.096V35.888ZM113.616 35.888V15.632H111.216V21.536H108.288V27.488H105.36V33.44H102.432V35.888H113.616Z" fill="black"/>
<path d="M4.368 85.344H1.344V81.888H4.896V84.864H7.824V87.792H16.224V84.864H19.2V73.488H16.224V70.512H7.824V73.488H4.896V76.464H1.344V52.224H19.68V55.68H4.896V69.984H7.344V67.056H16.752V69.984H19.68V72.96H22.656V85.344H19.68V88.32H16.752V91.344H7.344V88.32H4.368V85.344Z" fill="black"/>
<path d="M28.368 85.344H25.344V58.128H28.368V55.152H31.344V52.224H40.752V55.152H43.68V58.128H46.656V64.608H43.2V58.656H40.224V55.68H31.824V58.656H28.896V69.984H31.344V67.056H40.752V69.984H43.68V72.96H46.656V85.344H43.68V88.32H40.752V91.344H31.344V88.32H28.368V85.344ZM31.824 84.864V87.792H40.224V84.864H43.2V73.488H40.224V70.512H31.824V73.488H28.896V84.864H31.824Z" fill="black"/>
<path d="M55.344 81.888H58.272V72.96H61.248V64.08H64.224V58.128H67.2V55.68H49.344V52.224H70.656V58.656H67.68V64.608H64.752V73.488H61.776V82.368H58.8V91.344H55.344V81.888Z" fill="black"/>
<path d="M76.368 85.344H73.344V75.936H76.368V72.96H79.344V70.512H76.368V67.536H73.344V58.128H76.368V55.152H79.344V52.224H88.752V55.152H91.68V58.128H94.656V67.536H91.68V70.512H88.752V72.96H91.68V75.936H94.656V85.344H91.68V88.32H88.752V91.344H79.344V88.32H76.368V85.344ZM88.224 69.984V67.056H91.2V58.656H88.224V55.68H79.824V58.656H76.896V67.056H79.824V69.984H88.224ZM79.824 84.864V87.792H88.224V84.864H91.2V76.464H88.224V73.488H79.824V76.464H76.896V84.864H79.824Z" fill="black"/>
<path d="M100.368 85.344H97.344V81.888H100.896V84.864H103.824V87.792H112.224V84.864H115.2V76.464H112.752V79.44H103.344V76.464H100.368V73.488H97.344V58.128H100.368V55.152H103.344V52.224H112.752V55.152H115.68V58.128H118.656V85.344H115.68V88.32H112.752V91.344H103.344V88.32H100.368V85.344ZM112.224 75.936V72.96H115.2V58.656H112.224V55.68H103.824V58.656H100.896V72.96H103.824V75.936H112.224Z" fill="black"/>
<path d="M8.736 110.08H15.216V116.512H8.736V110.08ZM8.736 127.888H15.216V134.32H8.736V127.888Z" fill="black"/>
<path d="M27.024 127.888H33.456V134.32H27.024V127.888Z" fill="black"/>
<path d="M49.344 127.888H52.368V115.984H55.344V107.104H58.272V98.224H61.776V107.104H64.752V115.984H67.68V127.888H70.656V137.344H67.2V128.368H52.896V137.344H49.344V127.888ZM64.224 124.912V116.512H61.248V107.632H58.8V116.512H55.824V124.912H64.224Z" fill="black"/>
<path d="M73.344 98.224H88.752V101.152H91.68V104.128H94.656V116.512H91.68V119.488H88.752V122.464H76.896V137.344H73.344V98.224ZM88.224 118.96V115.984H91.2V104.656H88.224V101.68H76.896V118.96H88.224Z" fill="black"/>
<path d="M97.344 98.224H100.896V104.128H103.824V113.056H106.8V124.912H109.248V113.056H112.224V104.128H115.2V98.224H118.656V137.344H115.2V113.536H112.752V125.44H109.776V134.32H106.272V125.44H103.344V113.536H100.896V137.344H97.344V98.224Z" fill="black"/>
</g>
</svg>
