<svg width="170" height="138" viewBox="0 0 170 138" fill="none" xmlns="http://www.w3.org/2000/svg">
<g clip-path="url(#clip0_100_2)">
<path d="M8.30469 39V14.3359H25.6953V39H8.30469ZM21.5391 18.3828L12.6797 18.4375V35.0625H21.5391V18.3828Z" fill="black"/>
<path d="M56.4688 39H52.3672V18.2734H42.9062V14.3906L56.4688 14.3359V39Z" fill="black"/>
<path d="M93.6953 34.8984V39L76.4141 38.9453V34.6797L89.3203 23.9062V18.4375H80.4609V23.3047H76.3047V14.3359H93.6953V26.6953L82.9219 34.8984H93.6953Z" fill="black"/>
<path d="M123.266 28.2812H114.789V25L121.078 18.4375H110.305V14.3359L127.586 14.3906V18.6562L121.352 25H127.695V39H110.305V31.7266H114.461V34.8984H123.266V28.2812Z" fill="black"/>
<path d="M155.516 34.8984V22.9219L148.57 34.8984H155.516ZM159.891 44.5781H155.516V39L143.211 38.9453V34.6797L155.516 14.3359H159.891V34.8984H163.227V39H159.891V44.5781Z" fill="black"/>
<path d="M21.2656 74.2812H8.30469V60.3906H25.6953V64.6016L13.1172 64.6562V69.9062H25.6953V85H8.30469V77.7266H12.4609V80.8984H21.2656V74.2812Z" fill="black"/>
<path d="M42.3047 60.3906H59.6953V64.6016L46.4609 64.6562V69.9062H59.6953V85H42.3047V60.3906ZM55.2656 74.2812H46.4609V80.8984H55.2656V74.2812Z" fill="black"/>
<path d="M93.6406 64.6562L85.2188 85L79.2031 84.9453L88.8281 64.6562H76.3594V60.3906H93.6406V64.6562Z" fill="black"/>
<path d="M114.734 71.0547H123.539V64.4375H114.734V71.0547ZM114.734 75.4844V80.7344L123.539 80.6797V75.4844H114.734ZM110.305 60.3359H127.695V85L110.305 84.9453V60.3359Z" fill="black"/>
<path d="M161.695 85L144.305 84.9453V80.7344L157.539 80.6797V75.4844H144.305V60.3359H161.695V85ZM148.734 71.0547H157.539V64.4375H148.734V71.0547Z" fill="black"/>
<path d="M14.9492 124.273H19.1055V131H14.9492V124.273ZM14.9492 106.336H19.1055V113.062H14.9492V106.336Z" fill="black"/>
<path d="M48.9492 124.273H53.1055V131H48.9492V124.273Z" fill="black"/>
<path d="M80.4883 103.547V113.062H89.293V103.547H80.4883ZM93.668 131H89.293V117H80.4883V131H76.332V99.6641H93.668V131Z" fill="black"/>
<path d="M127.148 117H115.062L115.117 131H110.906V99.6641H127.148V117ZM122.773 113.062V103.547H115.062V113.062H122.773Z" fill="black"/>
<path d="M155.242 131H150.758V103.547H142.062V131H137.906V99.6641H168.148V131H163.773V103.547H155.242V131Z" fill="black"/>
</g>
</svg>
