<svg width="200" height="132" viewBox="0 0 200 132" fill="none" xmlns="http://www.w3.org/2000/svg">
<g clip-path="url(#clip0_100_2)">
<path d="M25.4576 37.516C23.0456 39.604 21.2276 40.648 20.0036 40.648C18.7796 40.648 16.9616 39.604 14.5496 37.516C12.1376 35.428 10.6436 33.736 10.0676 32.44C9.67159 31.684 9.47359 29.326 9.47359 25.366V18.778C9.47359 14.998 9.70759 12.55 10.1756 11.434C10.6796 10.318 12.1376 8.716 14.5496 6.628C16.9616 4.54 18.7796 3.496 20.0036 3.496C21.2276 3.496 23.0276 4.54 25.4036 6.628C27.7796 8.716 29.2916 10.408 29.9396 11.704C30.3356 12.532 30.5336 14.89 30.5336 18.778V25.366C30.5336 29.146 30.2816 31.594 29.7776 32.71C29.3096 33.826 27.8696 35.428 25.4576 37.516ZM18.3836 32.818C19.0316 33.358 19.5716 33.628 20.0036 33.628C20.4356 33.628 20.9576 33.358 21.5696 32.818C22.2176 32.278 22.6676 31.792 22.9196 31.36C23.1716 30.892 23.2976 28.894 23.2976 25.366V18.778C23.2976 15.79 23.1896 13.936 22.9736 13.216C22.7936 12.496 22.3616 11.866 21.6776 11.326C21.0296 10.786 20.4716 10.516 20.0036 10.516C19.5716 10.516 19.0136 10.786 18.3296 11.326C17.6816 11.866 17.2496 12.424 17.0336 13C16.8176 13.54 16.7096 15.466 16.7096 18.778V25.366C16.7096 28.858 16.8356 30.838 17.0876 31.306C17.3396 31.774 17.7716 32.278 18.3836 32.818Z" fill="black"/>
<path d="M51.753 34.06H59.043V10.786C57.063 12.658 55.587 14.53 54.615 16.402L48.999 13.162C50.079 11.326 51.825 9.256 54.237 6.952C56.649 4.648 58.107 3.496 58.611 3.496C59.151 3.496 60.465 4.126 62.553 5.386C64.641 6.61 65.775 7.42 65.955 7.816V34.06H70.977V40H51.753V34.06Z" fill="black"/>
<path d="M100.004 3.496C101.192 3.496 102.92 4.522 105.188 6.574C107.492 8.59 109.076 10.282 109.94 11.65C110.336 12.298 110.534 13.774 110.534 16.078C110.534 18.346 110.3 19.858 109.832 20.614C109.364 21.334 107.384 22.792 103.892 24.988C100.4 27.148 98.2216 28.786 97.3576 29.902C97.0696 30.298 96.9256 31.036 96.9256 32.116V34.06H110.318V40H89.4736V32.656C89.4736 30.532 89.7256 28.966 90.2296 27.958C90.7336 26.95 91.8316 25.762 93.5236 24.394C95.2156 22.99 97.0696 21.64 99.0856 20.344C101.102 19.012 102.308 18.184 102.704 17.86C103.1 17.536 103.298 16.942 103.298 16.078C103.298 15.214 103.172 14.422 102.92 13.702C102.704 12.946 102.272 12.226 101.624 11.542C100.976 10.822 100.382 10.462 99.8416 10.462C99.3376 10.462 98.5096 11.146 97.3576 12.514C96.2056 13.846 95.4496 15.34 95.0896 16.996L89.2576 13.54C89.7616 11.236 91.1836 8.986 93.5236 6.79C95.8996 4.594 98.0596 3.496 100.004 3.496Z" fill="black"/>
<path d="M135.198 26.824C135.558 28.696 136.368 30.388 137.628 31.9C138.924 33.412 139.914 34.168 140.598 34.168C141.318 34.168 142.074 33.43 142.866 31.954C143.154 31.378 143.298 30.37 143.298 28.93C143.298 27.49 143.064 26.464 142.596 25.852C140.904 23.944 139.068 22.828 137.088 22.504V18.886C139.068 18.166 140.688 17.32 141.948 16.348C142.488 15.952 142.758 14.98 142.758 13.432C142.758 12.748 142.398 12.1 141.678 11.488C140.958 10.84 140.364 10.516 139.896 10.516C139.428 10.516 138.672 11.182 137.628 12.514C136.62 13.846 135.954 15.322 135.63 16.942L129.798 13.594C130.302 11.29 131.67 9.04 133.902 6.844C136.134 4.612 138.168 3.496 140.004 3.496C141.192 3.496 143.01 4.45 145.458 6.358C147.906 8.23 149.292 9.652 149.616 10.624C149.868 11.308 149.994 12.676 149.994 14.728C149.994 16.744 149.796 18.004 149.4 18.508C148.716 19.336 147.834 20.038 146.754 20.614C148.446 21.946 149.49 22.954 149.886 23.638C150.318 24.286 150.534 25.906 150.534 28.498C150.534 31.054 150.3 32.8 149.832 33.736C149.364 34.636 147.888 36.022 145.404 37.894C142.956 39.73 141.156 40.648 140.004 40.648C138.06 40.648 135.9 39.586 133.524 37.462C131.184 35.338 129.762 33.142 129.258 30.874L135.198 26.824Z" fill="black"/>
<path d="M188.872 40H181.96V32.332H175.102L168.946 28.768C169.702 25.564 170.836 21.928 172.348 17.86C173.896 13.756 175.336 10.336 176.668 7.6C178 4.864 178.864 3.496 179.26 3.496C179.836 3.496 181.51 4.324 184.282 5.98C187.054 7.6 188.584 8.68 188.872 9.22V26.392H191.032V32.332H188.872V40ZM181.96 26.392V11.056C180.268 14.98 178.486 20.092 176.614 26.392H181.96Z" fill="black"/>
<path d="M29.7776 48.144V54.084H18.0596L17.7896 59.376C22.3256 60.996 26.2856 63.408 29.6696 66.612C30.2456 67.152 30.5336 68.88 30.5336 71.796C30.5336 74.676 30.2096 76.62 29.5616 77.628C28.9496 78.636 27.4736 80.058 25.1336 81.894C22.8296 83.73 21.1196 84.648 20.0036 84.648C18.0596 84.648 15.8996 83.604 13.5236 81.516C11.1836 79.392 9.76159 77.196 9.25759 74.928L15.4676 70.608C15.8276 72.48 16.6016 74.208 17.7896 75.792C19.0136 77.376 19.9316 78.168 20.5436 78.168C21.2996 78.168 22.0736 77.43 22.8656 75.954C23.1536 75.378 23.2976 74.334 23.2976 72.822C23.2976 71.274 23.0816 70.284 22.6496 69.852C21.4976 68.7 19.7696 67.548 17.4656 66.396C15.1976 65.208 12.8396 64.326 10.3916 63.75L11.3636 48.144H29.7776Z" fill="black"/>
<path d="M60.8676 56.352C62.5236 57.144 64.3236 58.368 66.2676 60.024C68.2116 61.644 69.3996 62.886 69.8316 63.75C70.2996 64.578 70.5336 66.684 70.5336 70.068C70.5336 73.452 70.2816 75.684 69.7776 76.764C69.3096 77.844 67.8696 79.428 65.4576 81.516C63.0456 83.604 61.2276 84.648 60.0036 84.648C58.7796 84.648 56.9616 83.604 54.5496 81.516C52.1376 79.428 50.6436 77.736 50.0676 76.44C49.6716 75.648 49.4736 73.56 49.4736 70.176C49.4736 66.792 49.6896 64.092 50.1216 62.076C50.5536 60.024 51.3816 58.152 52.6056 56.46C53.8296 54.768 55.2336 53.31 56.8176 52.086C58.4016 50.826 60.6516 49.296 63.5676 47.496L69.2376 51.492C65.8896 52.716 63.0996 54.336 60.8676 56.352ZM60.0036 77.628C60.4356 77.628 60.9576 77.322 61.5696 76.71C62.2176 76.098 62.6676 75.522 62.9196 74.982C63.1716 74.406 63.2976 72.876 63.2976 70.392C63.2976 67.908 62.8836 66.144 62.0556 65.1C61.2636 64.02 59.6796 63.066 57.3036 62.238L57.0336 63.318C56.8176 64.686 56.7096 66.864 56.7096 69.852C56.7096 72.84 56.8536 74.604 57.1416 75.144C57.4296 75.648 57.8616 76.188 58.4376 76.764C59.0496 77.34 59.5716 77.628 60.0036 77.628Z" fill="black"/>
<path d="M89.4736 53.814V48.144H109.508C110.192 50.556 110.534 52.446 110.534 53.814L97.0336 84.648C96.5656 84.648 95.6116 84.324 94.1716 83.676C92.7676 83.028 91.7776 82.452 91.2016 81.948L103.46 53.814H89.4736Z" fill="black"/>
<path d="M145.188 82.002C142.884 83.766 141.156 84.648 140.004 84.648C138.852 84.648 137.124 83.766 134.82 82.002C132.516 80.202 130.932 78.708 130.068 77.52C129.672 76.8 129.474 75.162 129.474 72.606C129.474 70.014 129.672 68.376 130.068 67.692C130.68 66.828 131.742 65.982 133.254 65.154C132.102 64.506 131.22 63.804 130.608 63.048C130.212 62.436 130.014 61.032 130.014 58.836C130.014 56.604 130.122 55.2 130.338 54.624C130.806 53.508 132.21 52.05 134.55 50.25C136.926 48.414 138.708 47.496 139.896 47.496C141.12 47.496 142.938 48.45 145.35 50.358C147.798 52.23 149.238 53.652 149.67 54.624C149.886 55.164 149.994 56.55 149.994 58.782C149.994 61.014 149.796 62.436 149.4 63.048C148.788 63.804 147.906 64.506 146.754 65.154C148.266 65.982 149.328 66.828 149.94 67.692C150.336 68.376 150.534 70.014 150.534 72.606C150.534 75.162 150.336 76.8 149.94 77.52C149.076 78.708 147.492 80.202 145.188 82.002ZM138.114 77.628C138.87 78.348 139.5 78.708 140.004 78.708C140.508 78.708 141.12 78.348 141.84 77.628C142.596 76.908 143.01 76.332 143.082 75.9C143.226 74.748 143.298 73.668 143.298 72.66C143.298 71.616 143.226 70.68 143.082 69.852C143.01 69.456 142.596 68.934 141.84 68.286C141.12 67.638 140.508 67.314 140.004 67.314C139.5 67.314 138.87 67.638 138.114 68.286C137.394 68.934 136.998 69.456 136.926 69.852C136.782 70.68 136.71 71.616 136.71 72.66C136.71 73.668 136.782 74.748 136.926 75.9C136.998 76.332 137.394 76.908 138.114 77.628ZM138.438 61.968C139.05 62.58 139.572 62.886 140.004 62.886C140.436 62.886 140.958 62.58 141.57 61.968C142.182 61.32 142.524 60.708 142.596 60.132C142.704 58.728 142.758 57.954 142.758 57.81C142.758 57.63 142.704 57 142.596 55.92C142.524 55.38 142.182 54.84 141.57 54.3C140.958 53.724 140.436 53.436 140.004 53.436C139.572 53.436 139.05 53.724 138.438 54.3C137.826 54.84 137.484 55.38 137.412 55.92C137.304 57 137.25 57.63 137.25 57.81C137.25 57.954 137.304 58.728 137.412 60.132C137.484 60.708 137.826 61.32 138.438 61.968Z" fill="black"/>
<path d="M180.112 74.172C178.564 73.992 176.728 73.002 174.604 71.202C172.516 69.366 171.13 67.89 170.446 66.774C169.798 65.622 169.474 63.804 169.474 61.32C169.474 58.836 169.762 56.946 170.338 55.65C170.878 54.354 172.318 52.68 174.658 50.628C177.034 48.54 178.816 47.496 180.004 47.496C181.228 47.496 183.046 48.54 185.458 50.628C187.87 52.68 189.364 54.354 189.94 55.65C190.336 56.442 190.534 58.404 190.534 61.536C190.534 64.632 190.354 67.116 189.994 68.988C189.634 70.824 189.148 72.426 188.536 73.794C187.924 75.126 186.97 76.44 185.674 77.736C184.414 78.996 183.136 80.112 181.84 81.084C180.544 82.02 178.762 83.208 176.494 84.648L170.77 80.706C174.73 79.194 177.844 77.016 180.112 74.172ZM179.95 54.516C179.554 54.516 179.05 54.84 178.438 55.488C177.862 56.1 177.43 56.676 177.142 57.216C176.854 57.756 176.71 59.088 176.71 61.212C176.71 63.336 177.142 64.956 178.006 66.072C178.87 67.188 180.49 67.98 182.866 68.448C183.154 67.872 183.298 65.964 183.298 62.724C183.298 59.448 183.154 57.63 182.866 57.27C182.506 56.658 182.038 56.046 181.462 55.434C180.886 54.822 180.382 54.516 179.95 54.516Z" fill="black"/>
<path d="M20.7235 103.376C21.1195 103.376 22.0195 103.97 23.4235 105.158C24.8275 106.346 25.5295 107.156 25.5295 107.588C25.5295 107.984 24.8275 108.794 23.4235 110.018C22.0195 111.242 21.1195 111.854 20.7235 111.854C20.3275 111.854 19.4275 111.242 18.0235 110.018C16.6195 108.794 15.9175 107.984 15.9175 107.588C15.9175 107.156 16.6195 106.346 18.0235 105.158C19.4635 103.97 20.3635 103.376 20.7235 103.376ZM20.1295 120.17C20.5255 120.17 21.4255 120.764 22.8295 121.952C24.2335 123.14 24.9355 123.95 24.9355 124.382C24.9355 124.778 24.2335 125.588 22.8295 126.812C21.4255 128.036 20.5255 128.648 20.1295 128.648C19.7335 128.648 18.8335 128.036 17.4295 126.812C16.0255 125.588 15.3235 124.778 15.3235 124.382C15.3235 123.95 16.0255 123.14 17.4295 121.952C18.8695 120.764 19.7695 120.17 20.1295 120.17Z" fill="black"/>
<path d="M59.9977 120.17C60.3937 120.17 61.2937 120.764 62.6977 121.952C64.1017 123.14 64.8037 123.95 64.8037 124.382C64.8037 124.778 64.1017 125.588 62.6977 126.812C61.2937 128.036 60.3937 128.648 59.9977 128.648C59.6017 128.648 58.7017 128.036 57.2977 126.812C55.8937 125.588 55.1917 124.778 55.1917 124.382C55.1917 123.95 55.8937 123.14 57.2977 121.952C58.7377 120.764 59.6377 120.17 59.9977 120.17Z" fill="black"/>
<path d="M94.1769 93.062C96.7329 90.722 98.6769 89.552 100.009 89.552C101.341 89.552 103.285 90.722 105.841 93.062C108.397 95.402 109.981 97.328 110.593 98.84C110.989 99.884 111.187 102.242 111.187 105.914V128H103.735V119.9H96.2829V128H88.8309V105.914C88.8309 102.242 89.0289 99.884 89.4249 98.84C90.0369 97.328 91.6209 95.402 94.1769 93.062ZM96.2829 105.914V113.42H103.735V105.914C103.735 102.962 103.591 101.162 103.303 100.514C103.015 99.83 102.511 99.128 101.791 98.408C101.107 97.652 100.513 97.274 100.009 97.274C99.5049 97.274 98.8929 97.652 98.1729 98.408C97.4889 99.128 97.0029 99.83 96.7149 100.514C96.4269 101.162 96.2829 102.962 96.2829 105.914Z" fill="black"/>
<path d="M139.898 109.694H140.978C141.662 109.694 142.454 109.37 143.354 108.722C144.29 108.038 144.884 107.3 145.136 106.508C145.388 105.716 145.514 104.654 145.514 103.322C145.514 101.99 145.388 100.892 145.136 100.028C144.884 99.128 144.29 98.354 143.354 97.706C142.454 97.058 141.572 96.734 140.708 96.734C139.88 96.734 138.746 97.202 137.306 98.138C137.414 99.326 137.468 100.532 137.468 101.756V128H130.016V104.888C130.016 101.864 129.8 99.74 129.368 98.516C128.972 97.256 128.108 95.798 126.776 94.142L133.256 89.552C134.192 90.2 135.02 91.262 135.74 92.738C138.692 90.614 140.798 89.552 142.058 89.552C143.318 89.552 145.064 90.56 147.296 92.576C149.528 94.592 151.04 96.284 151.832 97.652C152.228 98.156 152.426 99.902 152.426 102.89C152.426 105.878 152.228 107.768 151.832 108.56C151.04 109.928 149.528 111.62 147.296 113.636C145.064 115.652 143.318 116.66 142.058 116.66H139.898V109.694Z" fill="black"/>
<path d="M176.912 128V100.514C176.912 99.902 176.786 99.398 176.534 99.002C176.318 98.57 175.94 98.084 175.4 97.544C174.86 97.004 174.428 96.734 174.104 96.734C173.384 96.734 172.43 97.454 171.242 98.894C171.35 99.794 171.404 100.748 171.404 101.756V128H163.952V104.888C163.952 101.828 163.736 99.686 163.304 98.462C162.908 97.238 162.044 95.78 160.712 94.088L167.192 89.552C168.344 90.38 169.172 91.37 169.676 92.522C172.268 90.542 174.104 89.552 175.184 89.552C176.264 89.552 178.298 90.938 181.286 93.71C184.274 90.938 186.38 89.552 187.604 89.552C188.504 89.552 190.034 90.506 192.194 92.414C194.39 94.286 195.758 95.618 196.298 96.41C196.838 97.166 197.108 98.174 197.108 99.434V128H189.656V100.514C189.656 99.83 189.53 99.308 189.278 98.948C189.026 98.552 188.594 98.084 187.982 97.544C187.406 97.004 186.884 96.734 186.416 96.734C185.984 96.734 185.282 97.328 184.31 98.516C184.346 98.696 184.364 99.002 184.364 99.434V128H176.912Z" fill="black"/>
</g>
</svg>
