<svg width="220" height="144" viewBox="0 0 220 144" fill="none" xmlns="http://www.w3.org/2000/svg">
<g clip-path="url(#clip0_100_2)">
<path d="M34.0505 41.4733C31.8299 45.0036 27.7872 46.7687 21.9224 46.7687C18.9046 46.7687 16.3708 46.2847 14.321 45.3167C9.25339 42.8114 6.71958 36.4911 6.71958 26.3559C6.71958 20.2064 7.68756 15.3665 9.6235 11.8363C11.8441 7.85053 15.9438 5.85765 21.9224 5.85765C27.7872 5.85765 31.8299 7.67972 34.0505 11.3238C36.3281 14.911 37.4669 19.9502 37.4669 26.4413C37.4669 32.8754 36.3281 37.8861 34.0505 41.4733ZM16.2854 26.3559C16.2854 37.4591 18.1644 43.0107 21.9224 43.0107C25.8513 43.0107 27.8157 37.4591 27.8157 26.3559C27.8157 20.4342 27.4171 16.1922 26.6199 13.6299C25.8228 11.0107 24.2854 9.70107 22.0078 9.70107C19.7303 9.70107 18.1929 11.0107 17.3957 13.6299C16.6555 16.1922 16.2854 20.4342 16.2854 26.3559Z" fill="black"/>
<path d="M79.5025 42.242V46H54.3068V42.242H62.4207V14.3986L54.136 14.5694V10.9822C56.2997 10.8683 58.7196 10.4128 61.3957 9.61566C64.1288 8.81851 66.3779 7.85053 68.1431 6.71174H71.9011V42.242H79.5025Z" fill="black"/>
<path d="M103.858 19.7794L95.6591 18.4982C96.1715 10.1281 100.641 5.94306 109.068 5.94306C113.567 5.94306 117.097 6.85409 119.659 8.67616C122.221 10.4413 123.503 12.9181 123.503 16.1068C123.503 18.2135 123.047 20.1779 122.136 22C121.225 23.8221 119.488 25.8719 116.926 28.1495L105.396 38.6548H123.503V46H95.3174V39.9359L108.3 28.1495C110.577 26.0996 112.086 24.2206 112.826 22.5125C113.567 20.7473 113.937 18.6121 113.937 16.1068C113.937 11.8932 112.314 9.78648 109.068 9.78648C107.36 9.78648 106.079 10.5836 105.225 12.1779C104.428 13.7722 103.972 16.306 103.858 19.7794Z" fill="black"/>
<path d="M164.769 22.9395C162.947 24.7046 160.556 25.8719 157.595 26.4413C164.542 27.5231 168.015 30.7972 168.015 36.2633C168.015 39.2811 166.677 41.7865 164.001 43.7794C161.382 45.7722 157.737 46.7687 153.068 46.7687C148.456 46.7687 145.011 45.9146 142.734 44.2064C140.513 42.4982 139.261 39.7082 138.976 35.8363L147.261 34.8114C147.488 40.2206 149.367 42.9253 152.898 42.9253C156.656 42.9253 158.535 40.6762 158.535 36.1779C158.535 34.5267 158.307 33.1886 157.851 32.1637C156.94 29.8861 154.72 28.7473 151.189 28.7473H147.517V24.3915H151.275C153.951 24.3915 155.744 23.7367 156.656 22.427C157.567 21.1174 158.022 18.9822 158.022 16.0214C158.022 11.8648 156.371 9.78648 153.068 9.78648C149.823 9.78648 148.115 12.7473 147.944 18.669L139.659 17.5587C139.944 13.4591 141.14 10.4982 143.246 8.67616C145.41 6.85409 148.741 5.94306 153.239 5.94306C157.794 5.94306 161.296 6.88256 163.744 8.76157C166.25 10.5836 167.503 12.9751 167.503 15.9359C167.503 18.8399 166.591 21.1744 164.769 22.9395Z" fill="black"/>
<path d="M212.954 38.8256H209.282V46H199.801V38.8256H181.268V32.9324L195.104 6.71174H209.282V31.4804H212.954V38.8256ZM199.801 31.4804V10.5552L188.869 31.4804H199.801Z" fill="black"/>
<path d="M8.34236 82.0427L16.7125 81.274C16.9972 87.7651 18.7338 91.0107 21.9224 91.0107C25.3957 91.0107 27.1324 88.306 27.1324 82.8968C27.1324 77.032 23.3459 74.0996 15.773 74.0996H10.2214L11.5025 54.7117H34.136V62.0569H14.8335L14.2356 70.3416H20.1288C25.652 70.3416 29.837 71.5089 32.684 73.8434C35.531 76.1779 36.9545 79.0819 36.9545 82.5552C36.9545 86.0285 35.6448 88.9324 33.0256 91.2669C30.4064 93.6014 26.7053 94.7687 21.9224 94.7687C13.3246 94.7687 8.79788 90.5267 8.34236 82.0427Z" fill="black"/>
<path d="M60.2854 71.879C63.0755 71.0819 65.6377 70.6833 67.9723 70.6833C76.6271 70.6833 80.9545 74.4698 80.9545 82.0427C80.9545 90.5267 76.0292 94.7687 66.1787 94.7687C55.9865 94.7687 50.8904 88.1922 50.8904 75.0391C50.8904 68.7758 52.0292 63.7082 54.3068 59.8363C56.5844 55.9075 60.5701 53.9431 66.2641 53.9431C75.0328 53.9431 79.6164 57.9288 80.015 65.9004L71.8157 66.669C71.6449 60.6904 69.7943 57.7011 66.2641 57.7011C63.9865 57.7011 62.4491 58.8114 61.652 61.032C60.8548 63.2527 60.3993 66.8683 60.2854 71.879ZM60.2854 75.4662C60.3424 81.3879 60.7979 85.4591 61.652 87.6797C62.5061 89.9004 64.015 91.0107 66.1787 91.0107C69.8228 91.0107 71.6449 88.0214 71.6449 82.0427C71.6449 77.032 69.4812 74.5267 65.1537 74.5267C63.6733 74.5267 62.0505 74.8399 60.2854 75.4662Z" fill="black"/>
<path d="M116.072 62.0569H95.4029V54.7117H123.588V60.6904L107.446 94H98.99L116.072 62.0569Z" fill="black"/>
<path d="M168.698 64.79C168.698 69.1744 166.563 72.306 162.293 74.1851C166.905 76.121 169.211 79.3381 169.211 83.8363C169.211 87.0249 167.844 89.6441 165.111 91.694C162.378 93.7438 158.677 94.7687 154.008 94.7687C149.396 94.7687 145.723 93.7438 142.99 91.694C140.257 89.6441 138.89 87.0249 138.89 83.8363C138.89 79.1103 141.51 75.9502 146.748 74.3559C141.851 72.4199 139.403 69.2313 139.403 64.79C139.403 61.6584 140.656 59.0676 143.161 57.0178C145.723 54.968 149.339 53.9431 154.008 53.9431C158.734 53.9431 162.349 54.968 164.855 57.0178C167.417 59.0676 168.698 61.6584 168.698 64.79ZM149.054 64.79C149.054 67.0107 149.396 68.7473 150.079 70C150.819 71.2527 152.186 71.9644 154.179 72.1352L155.545 72.3915L156.314 72.4769C158.136 71.452 159.047 68.7473 159.047 64.363C159.047 59.9217 157.367 57.7011 154.008 57.7011C150.705 57.7011 149.054 60.0641 149.054 64.79ZM148.542 83.8363C148.542 85.9431 148.997 87.6797 149.908 89.0463C150.876 90.3559 152.243 91.0107 154.008 91.0107C155.773 91.0107 157.14 90.3559 158.107 89.0463C159.075 87.7367 159.559 86.0285 159.559 83.9217C159.559 81.8149 159.047 80.0214 158.022 78.5409C156.997 77.0605 155.716 76.1779 154.179 75.8932L152.812 75.8078L152.129 75.637C149.737 76.3203 148.542 79.0534 148.542 83.8363Z" fill="black"/>
<path d="M186.819 57.7011C189.609 55.1957 193.481 53.9431 198.435 53.9431C203.446 53.9431 207.147 55.5658 209.538 58.8114C211.93 62.0569 213.125 66.4982 213.125 72.1352C213.125 80.0498 211.958 85.8007 209.623 89.3879C207.289 92.9751 203.218 94.7687 197.41 94.7687C188.47 94.7687 183.83 90.8683 183.488 83.0676L191.773 82.1281C191.944 88.0498 193.823 91.0107 197.41 91.0107C199.801 91.0107 201.367 89.9858 202.107 87.9359C202.905 85.8861 203.36 82.3274 203.474 77.2598C201.253 78.1708 198.777 78.6263 196.043 78.6263C187.161 78.6263 182.72 74.726 182.72 66.9253C182.72 63.2242 184.086 60.1495 186.819 57.7011ZM193.908 60.1779C192.94 61.8292 192.456 63.9075 192.456 66.4128C192.456 68.8612 192.94 70.8826 193.908 72.4769C194.933 74.0712 196.357 74.8683 198.179 74.8683C200.058 74.8683 201.823 74.5267 203.474 73.8434C203.474 68.2633 203.132 64.1922 202.449 61.6299C201.766 59.0107 200.428 57.7011 198.435 57.7011C196.442 57.7011 194.933 58.5267 193.908 60.1779Z" fill="black"/>
<path d="M25.5325 120.477C24.5645 121.445 23.3688 121.929 21.9453 121.929C20.5787 121.929 19.4115 121.445 18.4435 120.477C17.4755 119.452 16.9915 118.228 16.9915 116.804C16.9915 115.381 17.4755 114.185 18.4435 113.217C19.4115 112.249 20.5787 111.765 21.9453 111.765C23.3688 111.765 24.5645 112.278 25.5325 113.302C26.5004 114.27 26.9844 115.466 26.9844 116.89C26.9844 118.256 26.5004 119.452 25.5325 120.477ZM25.5325 140.975C24.5645 141.943 23.3688 142.427 21.9453 142.427C20.5787 142.427 19.4115 141.943 18.4435 140.975C17.4755 139.95 16.9915 138.754 16.9915 137.388C16.9915 135.964 17.4755 134.769 18.4435 133.801C19.4115 132.833 20.5787 132.349 21.9453 132.349C23.3688 132.349 24.5645 132.833 25.5325 133.801C26.5004 134.769 26.9844 135.964 26.9844 137.388C26.9844 138.754 26.5004 139.95 25.5325 140.975Z" fill="black"/>
<path d="M69.5325 140.975C68.5645 141.943 67.3688 142.427 65.9453 142.427C64.5787 142.427 63.4115 141.943 62.4435 140.975C61.4755 139.95 60.9915 138.754 60.9915 137.388C60.9915 135.964 61.4755 134.769 62.4435 133.801C63.4115 132.833 64.5787 132.349 65.9453 132.349C67.3688 132.349 68.5645 132.833 69.5325 133.801C70.5004 134.769 70.9844 135.964 70.9844 137.388C70.9844 138.754 70.5004 139.95 69.5325 140.975Z" fill="black"/>
<path d="M115.146 131.153H101.053L97.8078 142H92.427L104.384 102.712H115.573L127.701 142H118.391L115.146 131.153ZM113.779 126.541L108.142 107.495L102.42 126.541H113.779Z" fill="black"/>
<path d="M142.176 102.712H157.549C162.161 102.712 165.464 103.936 167.457 106.384C169.45 108.776 170.446 111.879 170.446 115.694C170.446 119.452 169.45 122.555 167.457 125.004C165.464 127.395 162.161 128.591 157.549 128.591H151.827V142H142.176V102.712ZM151.827 125.089H155.756C159.172 125.089 160.88 121.957 160.88 115.694C160.88 109.374 159.172 106.214 155.756 106.214H151.827V125.089Z" fill="black"/>
<path d="M209.04 142L208.442 110.484L200.328 142H191.958L183.759 109.288L183.246 142H177.353L178.463 102.712H190.677L197.509 130.726L204.598 102.712H217.581L218.691 142H209.04Z" fill="black"/>
</g>
</svg>
