<svg width="220" height="144" viewBox="0 0 220 144" fill="none" xmlns="http://www.w3.org/2000/svg">
<g clip-path="url(#clip0_100_2)">
<path d="M20.2164 36.265C18.7497 36.265 17.4297 35.9717 16.2564 35.385C15.1014 34.8167 14.0747 34.01 13.1764 32.965C12.2964 31.9017 11.5539 30.6642 10.9489 29.2525C10.3439 27.8225 9.8947 26.2733 9.60137 24.605C9.30803 22.9183 9.16137 21.1492 9.16137 19.2975C9.16137 16.6392 9.44553 14.1825 10.0139 11.9275C10.5822 9.65417 11.4255 7.665 12.5439 5.96C13.6805 4.255 15.0647 2.92583 16.6964 1.9725C18.3464 1.01917 20.253 0.542499 22.4164 0.542499C24.268 0.542499 25.8997 0.927499 27.3114 1.6975C28.7414 2.4675 29.933 3.55833 30.8864 4.97C31.858 6.36333 32.5822 8.0225 33.0589 9.9475C33.5539 11.8725 33.8014 13.9992 33.8014 16.3275C33.8014 18.3075 33.6364 20.2692 33.3064 22.2125C32.9764 24.1375 32.463 25.9525 31.7664 27.6575C31.088 29.3442 30.208 30.8383 29.1264 32.14C28.063 33.4233 26.7889 34.4317 25.3039 35.165C23.8372 35.8983 22.1414 36.265 20.2164 36.265ZM20.5464 29.6375C21.5914 29.6375 22.5264 29.39 23.3514 28.895C24.1764 28.4 24.9005 27.7308 25.5239 26.8875C26.1655 26.0442 26.6972 25.0725 27.1189 23.9725C27.5589 22.8725 27.8797 21.7175 28.0814 20.5075C28.3014 19.2792 28.4114 18.06 28.4114 16.85C28.4114 15.585 28.3014 14.3475 28.0814 13.1375C27.8797 11.9092 27.5405 10.8092 27.0639 9.8375C26.5872 8.8475 25.973 8.06833 25.2214 7.5C24.488 6.91333 23.5897 6.62 22.5264 6.62C21.2247 6.62 20.088 6.95916 19.1164 7.6375C18.1447 8.2975 17.338 9.19583 16.6964 10.3325C16.0547 11.4692 15.5689 12.7617 15.2389 14.21C14.9089 15.64 14.7439 17.125 14.7439 18.665C14.7439 19.71 14.8264 20.7642 14.9914 21.8275C15.1747 22.8725 15.4314 23.8625 15.7614 24.7975C16.0914 25.7325 16.4947 26.5667 16.9714 27.3C17.448 28.015 17.9797 28.5833 18.5664 29.005C19.1714 29.4267 19.8314 29.6375 20.5464 29.6375Z" fill="black"/>
<path d="M66.755 36.8425C65.6916 36.8425 64.8666 36.5125 64.28 35.8525C63.6933 35.2108 63.4 34.3033 63.4 33.13C63.4 32.3967 63.4275 31.48 63.4825 30.38C63.5375 29.28 63.6108 28.07 63.7025 26.75C63.7941 25.43 63.895 24.0642 64.005 22.6525C64.115 21.2225 64.225 19.8108 64.335 18.4175C64.445 17.0058 64.5458 15.6767 64.6375 14.43C64.7291 13.165 64.8025 12.0467 64.8575 11.075C64.9125 10.1033 64.94 9.32417 64.94 8.7375C64.94 8.09583 64.885 7.64666 64.775 7.39C64.665 7.13333 64.3991 6.96833 63.9775 6.895C63.5925 6.84 63.1341 6.895 62.6025 7.06C62.0891 7.20667 61.5941 7.3625 61.1175 7.5275C60.6408 7.67416 60.2558 7.72917 59.9625 7.6925C59.5958 7.5275 59.33 7.335 59.165 7.115C59.0183 6.87666 58.945 6.5925 58.945 6.2625C58.945 5.7125 59.2475 5.12583 59.8525 4.5025C60.4758 3.87917 61.255 3.2925 62.19 2.7425C63.1433 2.1925 64.1058 1.74333 65.0775 1.395C66.0491 1.02833 66.8741 0.844997 67.5525 0.844997C68.4508 0.844997 69.1658 1.10166 69.6975 1.615C70.2475 2.12833 70.66 2.81583 70.935 3.6775C71.21 4.53917 71.3933 5.50167 71.485 6.565C71.595 7.62833 71.65 8.71 71.65 9.81C71.65 10.525 71.6316 11.3683 71.595 12.34C71.5583 13.2933 71.5125 14.3292 71.4575 15.4475C71.4025 16.5475 71.3291 17.6933 71.2375 18.885C71.1641 20.0767 71.0816 21.2867 70.99 22.515C70.8983 23.7433 70.8066 24.9442 70.715 26.1175C70.6233 27.2908 70.5316 28.4183 70.44 29.5C70.3666 30.5633 70.2841 31.5442 70.1925 32.4425C69.9541 33.9275 69.5691 35.0275 69.0375 35.7425C68.5058 36.4758 67.745 36.8425 66.755 36.8425Z" fill="black"/>
<path d="M103.906 36.1275C102.751 36.0175 101.715 35.8342 100.798 35.5775C99.9001 35.3208 99.1851 34.9267 98.6535 34.395C98.1401 33.8633 97.8835 33.1208 97.8835 32.1675C97.8835 31.3058 98.0301 30.4992 98.3235 29.7475C98.6351 28.9958 99.2768 28.235 100.248 27.465C100.982 26.7683 101.944 25.9158 103.136 24.9075C104.328 23.8992 105.611 22.8083 106.986 21.635C108.379 20.4433 109.699 19.2608 110.946 18.0875C111.826 17.2808 112.596 16.465 113.256 15.64C113.916 14.815 114.438 13.9992 114.823 13.1925C115.208 12.3858 115.401 11.6342 115.401 10.9375C115.401 9.19583 114.933 7.98583 113.998 7.3075C113.082 6.62917 111.808 6.29 110.176 6.29C108.691 6.29 107.417 6.52833 106.353 7.005C105.29 7.46333 104.41 8.01333 103.713 8.655C103.237 9.11333 102.788 9.60833 102.366 10.14C101.944 10.6717 101.541 11.13 101.156 11.515C100.771 11.8817 100.368 12.065 99.946 12.065C99.4143 12.065 98.9376 11.8908 98.516 11.5425C98.0943 11.1942 97.8835 10.69 97.8835 10.03C97.8835 9.05833 98.1768 8.05 98.7635 7.005C99.3501 5.96 100.193 4.98833 101.293 4.09C102.393 3.19166 103.713 2.4675 105.253 1.9175C106.793 1.34916 108.508 1.065 110.396 1.065C112.009 1.065 113.503 1.23 114.878 1.56C116.253 1.87167 117.445 2.37583 118.453 3.0725C119.48 3.76917 120.268 4.68583 120.818 5.8225C121.387 6.94083 121.671 8.31583 121.671 9.9475C121.671 11.1025 121.469 12.2025 121.066 13.2475C120.663 14.2925 120.094 15.3008 119.361 16.2725C118.628 17.2442 117.766 18.2342 116.776 19.2425C116.134 19.8842 115.41 20.59 114.603 21.36C113.797 22.1117 112.972 22.8725 112.128 23.6425C111.285 24.4125 110.478 25.1275 109.708 25.7875C108.938 26.4475 108.278 27.0067 107.728 27.465C107.233 27.8683 106.867 28.2442 106.628 28.5925C106.39 28.9408 106.271 29.2983 106.271 29.665C106.271 29.9217 106.436 30.105 106.766 30.215C107.114 30.325 107.536 30.3983 108.031 30.435C108.526 30.4717 109.021 30.49 109.516 30.49C110.341 30.49 111.358 30.4167 112.568 30.27C113.778 30.105 114.988 29.9492 116.198 29.8025C117.408 29.6375 118.398 29.555 119.168 29.555C119.92 29.555 120.525 29.72 120.983 30.05C121.46 30.38 121.698 30.8567 121.698 31.48C121.698 32.305 121.469 32.9925 121.011 33.5425C120.571 34.0925 119.902 34.5417 119.003 34.89C118.123 35.2383 117.023 35.5042 115.703 35.6875C114.383 35.8708 112.843 36.0175 111.083 36.1275C110.002 36.1642 108.819 36.1917 107.536 36.21C106.271 36.2467 105.061 36.2192 103.906 36.1275Z" fill="black"/>
<path d="M152.295 37.365C150.681 37.365 149.141 37.2275 147.675 36.9525C146.208 36.6958 144.888 36.3383 143.715 35.88C142.541 35.4217 141.615 34.8992 140.937 34.3125C140.259 33.7075 139.92 33.0842 139.92 32.4425C139.92 31.9475 140.002 31.535 140.167 31.205C140.332 30.875 140.543 30.6275 140.8 30.4625C141.056 30.2792 141.322 30.1508 141.597 30.0775C141.89 29.9858 142.156 29.94 142.395 29.94C143 29.94 143.797 30.1325 144.787 30.5175C145.777 30.9025 146.923 31.2875 148.225 31.6725C149.526 32.0575 150.956 32.25 152.515 32.25C153.743 32.25 154.87 32.14 155.897 31.92C156.924 31.7 157.822 31.3792 158.592 30.9575C159.362 30.5175 159.958 29.995 160.38 29.39C160.801 28.7667 161.012 28.07 161.012 27.3C161.012 26.2 160.746 25.3108 160.215 24.6325C159.701 23.9542 158.986 23.4225 158.07 23.0375C157.171 22.6525 156.145 22.3408 154.99 22.1025C153.945 21.8825 153.037 21.6075 152.267 21.2775C151.497 20.9475 150.901 20.535 150.48 20.04C150.076 19.545 149.875 18.9767 149.875 18.335C149.875 17.3817 150.223 16.6758 150.92 16.2175C151.616 15.7408 152.57 15.3283 153.78 14.98C154.88 14.6867 155.842 14.3292 156.667 13.9075C157.492 13.4675 158.134 12.9267 158.592 12.285C159.069 11.625 159.307 10.8275 159.307 9.8925C159.307 8.81083 158.995 7.98583 158.372 7.4175C157.749 6.84917 156.887 6.455 155.787 6.235C154.687 6.015 153.431 5.905 152.02 5.905C150.59 5.905 149.27 6.015 148.06 6.235C146.868 6.43667 145.832 6.6475 144.952 6.8675C144.09 7.0875 143.421 7.1975 142.945 7.1975C142.156 7.1975 141.533 6.98667 141.075 6.565C140.635 6.14333 140.415 5.63 140.415 5.025C140.415 4.38333 140.772 3.80583 141.487 3.2925C142.22 2.76083 143.174 2.32083 144.347 1.9725C145.539 1.62417 146.859 1.35833 148.307 1.175C149.755 0.973332 151.213 0.872498 152.68 0.872498C155.595 0.872498 157.996 1.21166 159.885 1.89C161.791 2.55 163.212 3.49416 164.147 4.7225C165.082 5.9325 165.55 7.35333 165.55 8.985C165.55 10.1217 165.311 11.1575 164.835 12.0925C164.358 13.0092 163.698 13.7975 162.855 14.4575C162.03 15.1175 161.058 15.6492 159.94 16.0525C159.17 16.4008 158.601 16.7125 158.235 16.9875C157.868 17.2625 157.685 17.6108 157.685 18.0325C157.685 18.5092 157.969 18.885 158.537 19.16C159.105 19.4167 159.765 19.6642 160.517 19.9025C161.635 20.1958 162.726 20.6358 163.79 21.2225C164.853 21.7908 165.724 22.5975 166.402 23.6425C167.099 24.6692 167.447 26.0258 167.447 27.7125C167.447 29.2158 167.126 30.5633 166.485 31.755C165.861 32.9467 164.917 33.9642 163.652 34.8075C162.387 35.6325 160.81 36.265 158.922 36.705C157.034 37.145 154.825 37.365 152.295 37.365Z" fill="black"/>
<path d="M201.999 36.3475C201.284 36.3475 200.679 36.155 200.184 35.77C199.707 35.4033 199.469 34.7433 199.469 33.79C199.469 33.4967 199.469 33.13 199.469 32.69C199.487 32.25 199.497 31.7917 199.497 31.315C199.515 30.8383 199.524 30.3708 199.524 29.9125C199.524 29.4542 199.524 29.0325 199.524 28.6475C199.469 27.8042 199.267 27.1992 198.919 26.8325C198.571 26.4658 197.746 26.2733 196.444 26.255C195.069 26.2183 193.712 26.1633 192.374 26.09C191.054 26.0167 189.908 25.87 188.937 25.65C188.075 25.4483 187.387 25.0633 186.874 24.495C186.361 23.9083 185.994 23.1842 185.774 22.3225C185.554 21.4425 185.444 20.4708 185.444 19.4075C185.444 18.6008 185.527 17.6658 185.692 16.6025C185.875 15.5392 186.095 14.4483 186.352 13.33C186.608 12.1933 186.883 11.1117 187.177 10.085C187.47 9.04 187.745 8.14166 188.002 7.39C188.313 6.38167 188.634 5.52 188.964 4.805C189.312 4.07167 189.697 3.5125 190.119 3.1275C190.559 2.7425 191.091 2.55 191.714 2.55C192.081 2.55 192.392 2.62333 192.649 2.77C192.906 2.89833 193.098 3.1 193.227 3.375C193.373 3.65 193.447 4.0075 193.447 4.4475C193.447 4.96083 193.364 5.61166 193.199 6.4C193.034 7.18833 192.832 8.05917 192.594 9.0125C192.374 9.9475 192.145 10.9192 191.907 11.9275C191.687 12.9358 191.494 13.9258 191.329 14.8975C191.164 15.8692 191.082 16.7858 191.082 17.6475C191.082 18.3992 191.137 19.0042 191.247 19.4625C191.357 19.9208 191.54 20.2692 191.797 20.5075C192.072 20.7458 192.438 20.9383 192.897 21.085C193.465 21.25 194.207 21.36 195.124 21.415C196.041 21.4517 196.921 21.47 197.764 21.47C198.717 21.47 199.359 21.3325 199.689 21.0575C200.019 20.7642 200.184 20.2417 200.184 19.49C200.184 19.1967 200.193 18.72 200.212 18.06C200.248 17.3817 200.285 16.5842 200.322 15.6675C200.358 14.7508 200.395 13.7883 200.432 12.78C200.487 11.7533 200.532 10.7542 200.569 9.7825C200.624 8.7925 200.67 7.90333 200.707 7.115C200.743 6.32667 200.771 5.7125 200.789 5.2725C200.881 4.24583 201.11 3.3475 201.477 2.5775C201.843 1.78917 202.393 1.395 203.127 1.395C203.622 1.395 204.034 1.51417 204.364 1.7525C204.694 1.9725 204.951 2.37583 205.134 2.9625C205.336 3.54917 205.473 4.3925 205.547 5.4925C205.583 5.91416 205.611 6.455 205.629 7.115C205.647 7.775 205.657 8.50833 205.657 9.315C205.657 10.1217 205.657 10.9925 205.657 11.9275C205.657 12.8442 205.647 13.7883 205.629 14.76C205.629 15.7133 205.62 16.6758 205.602 17.6475C205.602 18.6008 205.602 19.5175 205.602 20.3975C205.602 20.8375 205.702 21.1492 205.904 21.3325C206.124 21.4975 206.445 21.58 206.867 21.58C207.398 21.58 207.93 21.5525 208.462 21.4975C209.012 21.4425 209.516 21.4425 209.974 21.4975C210.469 21.5892 210.863 21.7542 211.157 21.9925C211.468 22.2125 211.624 22.625 211.624 23.23C211.624 24.0733 211.404 24.6508 210.964 24.9625C210.542 25.2558 209.983 25.4483 209.287 25.54C208.865 25.595 208.379 25.6683 207.829 25.76C207.297 25.8333 206.821 25.9158 206.399 26.0075C205.904 26.1175 205.565 26.3558 205.382 26.7225C205.217 27.0892 205.097 27.7033 205.024 28.565C204.987 29.0967 204.942 29.6925 204.887 30.3525C204.85 31.0125 204.804 31.6633 204.749 32.305C204.712 32.9283 204.657 33.4417 204.584 33.845C204.419 34.6883 204.126 35.3117 203.704 35.715C203.301 36.1367 202.732 36.3475 201.999 36.3475Z" fill="black"/>
<path d="M15.5068 83.3575C14.6451 83.3575 13.8659 83.3208 13.1693 83.2475C12.4726 83.1925 11.8676 83.1008 11.3543 82.9725C10.6576 82.7525 10.1168 82.4592 9.73178 82.0925C9.34678 81.7075 9.15428 81.1942 9.15428 80.5525C9.15428 79.7092 9.44761 79.0858 10.0343 78.6825C10.6209 78.2608 11.4643 78.05 12.5643 78.05C13.0226 78.05 13.6184 78.0592 14.3518 78.0775C15.1034 78.0958 15.8551 78.105 16.6068 78.105C18.0734 78.105 19.4576 77.995 20.7593 77.775C22.0793 77.555 23.2434 77.1975 24.2518 76.7025C25.2784 76.2075 26.0759 75.5567 26.6443 74.75C27.2309 73.925 27.5243 72.9167 27.5243 71.725C27.5243 70.0933 27.0018 68.9383 25.9568 68.26C24.9301 67.5817 23.4818 67.2425 21.6118 67.2425C20.2184 67.2425 18.9993 67.3617 17.9543 67.6C16.9276 67.8383 15.7634 67.9575 14.4618 67.9575C12.7018 67.9575 11.4184 67.545 10.6118 66.72C9.82344 65.8767 9.42928 64.6483 9.42928 63.035C9.42928 62.0633 9.51178 61.055 9.67678 60.01C9.86011 58.965 10.0893 57.9383 10.3643 56.93C10.6393 55.9217 10.9326 55.0325 11.2443 54.2625C11.6843 53.1442 12.2251 52.2642 12.8668 51.6225C13.5084 50.9808 14.3243 50.5225 15.3143 50.2475C16.3226 49.9725 17.5601 49.835 19.0268 49.835C20.1084 49.835 21.0434 49.8442 21.8318 49.8625C22.6384 49.8808 23.4909 49.8992 24.3893 49.9175C25.3059 49.9358 26.4426 49.945 27.7993 49.945C28.6793 49.945 29.4768 50 30.1918 50.11C30.9251 50.22 31.5118 50.4492 31.9518 50.7975C32.3918 51.1275 32.6118 51.6225 32.6118 52.2825C32.6118 52.9058 32.3734 53.3825 31.8968 53.7125C31.4384 54.0242 30.8151 54.235 30.0268 54.345C29.2568 54.4367 28.4226 54.4825 27.5243 54.4825C26.4426 54.4825 25.2418 54.455 23.9218 54.4C22.6018 54.345 21.3368 54.3175 20.1268 54.3175C18.9901 54.3175 18.1193 54.4733 17.5143 54.785C16.9093 55.0783 16.4693 55.6558 16.1943 56.5175C16.0659 56.9758 15.9284 57.5075 15.7818 58.1125C15.6351 58.6992 15.4976 59.3133 15.3693 59.955C15.2593 60.5783 15.2043 61.1833 15.2043 61.77C15.2043 62.3383 15.2776 62.7508 15.4243 63.0075C15.5709 63.2642 15.7909 63.4292 16.0843 63.5025C16.3959 63.5758 16.7901 63.6125 17.2668 63.6125C17.7434 63.6125 18.3393 63.5667 19.0543 63.475C19.7693 63.365 20.5301 63.2642 21.3368 63.1725C22.1618 63.0808 22.9501 63.035 23.7018 63.035C25.8284 63.035 27.6434 63.3558 29.1468 63.9975C30.6684 64.6208 31.8326 65.5833 32.6393 66.885C33.4643 68.1683 33.8768 69.8 33.8768 71.78C33.8768 73.925 33.4001 75.74 32.4468 77.225C31.5118 78.6917 30.2101 79.8833 28.5418 80.8C26.8734 81.6983 24.9209 82.3492 22.6843 82.7525C20.4659 83.1558 18.0734 83.3575 15.5068 83.3575Z" fill="black"/>
<path d="M65.9669 83.77C63.7119 83.77 61.7686 83.4583 60.1369 82.835C58.5236 82.2117 57.1944 81.2675 56.1494 80.0025C55.1044 78.7375 54.3252 77.1517 53.8119 75.245C53.3169 73.32 53.0694 71.065 53.0694 68.48C53.0694 66.2983 53.3077 64.1808 53.7844 62.1275C54.2611 60.0742 54.8752 58.2042 55.6269 56.5175C56.3786 54.8125 57.1669 53.41 57.9919 52.31C58.6519 51.43 59.3486 50.7608 60.0819 50.3025C60.8336 49.8258 61.6036 49.5875 62.3919 49.5875C63.1252 49.5875 63.6844 49.7617 64.0694 50.11C64.4727 50.44 64.6744 50.9717 64.6744 51.705C64.6744 52.2367 64.5369 52.75 64.2619 53.245C63.9869 53.74 63.6661 54.2533 63.2994 54.785C62.8961 55.3533 62.4744 56.05 62.0344 56.875C61.6127 57.7 61.2186 58.5708 60.8519 59.4875C60.5036 60.3858 60.2194 61.2475 59.9994 62.0725C59.7794 62.8975 59.6694 63.6033 59.6694 64.19C59.6694 64.3733 59.6969 64.52 59.7519 64.63C59.8069 64.74 59.8894 64.795 59.9994 64.795C60.1644 64.795 60.4669 64.6392 60.9069 64.3275C61.3469 63.9975 61.9702 63.6308 62.7769 63.2275C63.7119 62.7692 64.7202 62.43 65.8019 62.21C66.8836 61.99 67.9652 61.88 69.0469 61.88C70.9719 61.88 72.6769 62.2925 74.1619 63.1175C75.6652 63.9425 76.8386 65.0883 77.6819 66.555C78.5252 68.0033 78.9469 69.6625 78.9469 71.5325C78.9469 73.3475 78.6352 75.0067 78.0119 76.51C77.3886 78.0133 76.4994 79.3058 75.3444 80.3875C74.2077 81.4692 72.8419 82.3033 71.2469 82.89C69.6702 83.4767 67.9102 83.77 65.9669 83.77ZM65.7194 79.3975C67.3144 79.3975 68.6619 79.0675 69.7619 78.4075C70.8802 77.7292 71.7236 76.8492 72.2919 75.7675C72.8786 74.6675 73.1719 73.485 73.1719 72.22C73.1719 70.8633 72.8602 69.745 72.2369 68.865C71.6319 67.985 70.8252 67.3342 69.8169 66.9125C68.8086 66.4725 67.7177 66.2525 66.5444 66.2525C65.4077 66.2525 64.2894 66.4542 63.1894 66.8575C62.1077 67.2425 61.2002 67.8658 60.4669 68.7275C59.7519 69.5892 59.3944 70.7075 59.3944 72.0825C59.3944 73.1458 59.5227 74.1267 59.7794 75.025C60.0544 75.9233 60.4577 76.7025 60.9894 77.3625C61.5394 78.0042 62.1994 78.5083 62.9694 78.875C63.7577 79.2233 64.6744 79.3975 65.7194 79.3975Z" fill="black"/>
<path d="M105.773 83.99C105.278 83.99 104.801 83.8983 104.343 83.715C103.903 83.55 103.536 83.275 103.243 82.89C102.968 82.4867 102.831 81.9367 102.831 81.24C102.831 79.3883 102.977 77.665 103.271 76.07C103.582 74.4567 103.995 72.9717 104.508 71.615C105.021 70.24 105.608 68.975 106.268 67.82C106.928 66.665 107.616 65.62 108.331 64.685C109.229 63.4383 110.118 62.32 110.998 61.33C111.878 60.34 112.676 59.4508 113.391 58.6625C114.106 57.8742 114.674 57.1592 115.096 56.5175C115.517 55.8758 115.728 55.28 115.728 54.73C115.728 53.96 115.371 53.4558 114.656 53.2175C113.959 52.9608 112.978 52.8325 111.713 52.8325C110.191 52.8325 108.651 52.9058 107.093 53.0525C105.553 53.1808 104.169 53.3183 102.941 53.465C101.712 53.5933 100.786 53.6575 100.163 53.6575C99.4482 53.6575 98.889 53.5658 98.4857 53.3825C98.1007 53.1808 97.9082 52.7133 97.9082 51.98C97.9082 51.3383 98.2748 50.77 99.0082 50.275C99.7415 49.7617 100.722 49.34 101.951 49.01C102.849 48.8267 103.912 48.6708 105.141 48.5425C106.369 48.4142 107.625 48.3133 108.908 48.24C110.191 48.1667 111.374 48.13 112.456 48.13C113.904 48.13 115.224 48.2033 116.416 48.35C117.607 48.4967 118.625 48.7717 119.468 49.175C120.33 49.56 120.99 50.1192 121.448 50.8525C121.906 51.5858 122.136 52.53 122.136 53.685C122.136 54.6383 121.861 55.6283 121.311 56.655C120.779 57.6633 120.073 58.7267 119.193 59.845C118.331 60.945 117.406 62.1 116.416 63.31C115.426 64.52 114.481 65.7942 113.583 67.1325C112.428 68.8008 111.411 70.7533 110.531 72.99C109.651 75.2267 109.128 77.7842 108.963 80.6625C108.853 81.3958 108.679 82.01 108.441 82.505C108.202 83 107.863 83.3667 107.423 83.605C107.001 83.8617 106.451 83.99 105.773 83.99Z" fill="black"/>
<path d="M153.845 83.6875C151.737 83.6875 149.775 83.5133 147.96 83.165C146.163 82.8167 144.587 82.2667 143.23 81.515C141.892 80.745 140.847 79.7458 140.095 78.5175C139.343 77.2892 138.968 75.795 138.968 74.035C138.968 72.8983 139.188 71.8075 139.628 70.7625C140.068 69.6992 140.636 68.7825 141.333 68.0125C142.048 67.2242 142.79 66.6833 143.56 66.39C144.128 66.17 144.532 65.9775 144.77 65.8125C145.008 65.6475 145.128 65.4917 145.128 65.345C145.128 65.1983 145.008 65.0517 144.77 64.905C144.55 64.74 144.275 64.5842 143.945 64.4375C142.79 63.8508 141.892 63.0442 141.25 62.0175C140.608 60.9725 140.288 59.8817 140.288 58.745C140.288 57.1683 140.682 55.7933 141.47 54.62C142.277 53.4283 143.349 52.4475 144.688 51.6775C146.044 50.8892 147.575 50.3025 149.28 49.9175C150.985 49.5142 152.736 49.3125 154.533 49.3125C156.256 49.3125 157.933 49.5233 159.565 49.945C161.197 50.3483 162.663 50.9533 163.965 51.76C165.267 52.5667 166.303 53.5567 167.073 54.73C167.843 55.885 168.228 57.2233 168.228 58.745C168.228 59.68 168.017 60.5692 167.595 61.4125C167.192 62.2558 166.669 62.9983 166.028 63.64C165.386 64.2817 164.698 64.7767 163.965 65.125C163.745 65.235 163.562 65.345 163.415 65.455C163.287 65.565 163.223 65.6933 163.223 65.84C163.223 65.9683 163.268 66.0875 163.36 66.1975C163.452 66.3075 163.672 66.445 164.02 66.61C165.065 67.05 165.927 67.6367 166.605 68.37C167.283 69.1033 167.788 69.965 168.118 70.955C168.448 71.9267 168.613 73.0175 168.613 74.2275C168.613 75.9692 168.209 77.445 167.403 78.655C166.614 79.8467 165.533 80.8183 164.158 81.57C162.783 82.3033 161.206 82.835 159.428 83.165C157.649 83.5133 155.788 83.6875 153.845 83.6875ZM154.065 79.2325C155.678 79.2325 157.108 79.0217 158.355 78.6C159.62 78.16 160.601 77.5275 161.298 76.7025C162.013 75.8775 162.37 74.8692 162.37 73.6775C162.37 72.1375 162.031 70.9092 161.353 69.9925C160.693 69.0758 159.767 68.4158 158.575 68.0125C157.383 67.6092 156.027 67.4075 154.505 67.4075C152.69 67.4075 151.086 67.6183 149.693 68.04C148.318 68.4433 147.236 69.1033 146.448 70.02C145.678 70.9367 145.293 72.1558 145.293 73.6775C145.293 74.9425 145.687 75.9875 146.475 76.8125C147.263 77.6192 148.318 78.2242 149.638 78.6275C150.976 79.0308 152.452 79.2325 154.065 79.2325ZM153.983 63.86C155.101 63.86 156.155 63.7225 157.145 63.4475C158.153 63.1725 159.033 62.8058 159.785 62.3475C160.537 61.8708 161.123 61.3117 161.545 60.67C161.985 60.0283 162.205 59.35 162.205 58.635C162.205 57.8283 162.003 57.095 161.6 56.435C161.215 55.775 160.665 55.2067 159.95 54.73C159.235 54.235 158.392 53.8592 157.42 53.6025C156.448 53.3275 155.385 53.19 154.23 53.19C152.598 53.19 151.159 53.4375 149.913 53.9325C148.666 54.4275 147.694 55.1058 146.998 55.9675C146.301 56.8108 145.953 57.7733 145.953 58.855C145.953 59.515 146.163 60.1475 146.585 60.7525C147.007 61.3392 147.593 61.8708 148.345 62.3475C149.115 62.8058 149.977 63.1725 150.93 63.4475C151.902 63.7225 152.919 63.86 153.983 63.86Z" fill="black"/>
<path d="M192.904 83.935C192.208 83.935 191.649 83.8433 191.227 83.66C190.824 83.4767 190.53 83.2292 190.347 82.9175C190.182 82.5875 190.099 82.2025 190.099 81.7625C190.099 81.1208 190.301 80.5983 190.704 80.195C191.108 79.7733 191.777 79.4158 192.712 79.1225C193.427 78.8108 194.243 78.3983 195.159 77.885C196.094 77.3533 197.048 76.7667 198.019 76.125C198.991 75.465 199.88 74.7683 200.687 74.035C201.512 73.2833 202.172 72.5317 202.667 71.78C203.18 71.0283 203.437 70.3133 203.437 69.635C203.437 69.305 203.4 69.0758 203.327 68.9475C203.272 68.8008 203.153 68.7275 202.969 68.7275C202.768 68.7275 202.419 68.8833 201.924 69.195C201.429 69.525 200.678 69.91 199.669 70.35C198.661 70.79 197.323 71.01 195.654 71.01C193.564 71.01 191.731 70.6433 190.154 69.91C188.578 69.1583 187.349 68.0492 186.469 66.5825C185.589 65.1158 185.149 63.3008 185.149 61.1375C185.149 59.3775 185.479 57.8192 186.139 56.4625C186.799 55.1058 187.716 53.96 188.889 53.025C190.063 52.09 191.419 51.3842 192.959 50.9075C194.499 50.4308 196.14 50.1925 197.882 50.1925C200.412 50.1925 202.658 50.5958 204.619 51.4025C206.581 52.2092 208.121 53.4833 209.239 55.225C210.358 56.9483 210.917 59.2125 210.917 62.0175C210.917 65.1158 210.422 67.8842 209.432 70.3225C208.46 72.7608 207.012 74.9517 205.087 76.895C203.162 78.82 200.779 80.5983 197.937 82.23C197.057 82.7433 196.186 83.1558 195.324 83.4675C194.481 83.7792 193.674 83.935 192.904 83.935ZM197.249 66.83C198.203 66.83 199.138 66.6833 200.054 66.39C200.989 66.0967 201.833 65.6658 202.584 65.0975C203.336 64.5292 203.932 63.8233 204.372 62.98C204.812 62.1367 205.032 61.165 205.032 60.065C205.032 58.8 204.711 57.7275 204.069 56.8475C203.428 55.9675 202.566 55.2983 201.484 54.84C200.421 54.3817 199.257 54.1525 197.992 54.1525C196.525 54.1525 195.242 54.4183 194.142 54.95C193.06 55.4817 192.217 56.2608 191.612 57.2875C191.025 58.2958 190.732 59.5333 190.732 61C190.732 62.1733 191.034 63.2 191.639 64.08C192.244 64.96 193.042 65.6383 194.032 66.115C195.022 66.5917 196.094 66.83 197.249 66.83Z" fill="black"/>
<path d="M21.1703 128.937C20.5469 128.937 19.9419 128.8 19.3553 128.525C18.7686 128.232 18.2919 127.837 17.9253 127.342C17.5586 126.847 17.3753 126.279 17.3753 125.637C17.3753 124.977 17.5403 124.4 17.8703 123.905C18.2186 123.392 18.6678 122.988 19.2178 122.695C19.7678 122.402 20.3453 122.255 20.9503 122.255C21.6286 122.255 22.2794 122.402 22.9028 122.695C23.5261 122.97 24.0394 123.364 24.4428 123.877C24.8461 124.391 25.0478 125.014 25.0478 125.747C25.0478 126.444 24.8461 127.031 24.4428 127.507C24.0578 127.984 23.5628 128.342 22.9578 128.58C22.3711 128.818 21.7753 128.937 21.1703 128.937ZM21.5553 112.905C20.9686 112.905 20.4094 112.795 19.8778 112.575C19.3644 112.337 18.9519 112.016 18.6403 111.612C18.3286 111.209 18.1728 110.742 18.1728 110.21C18.1728 109.66 18.3103 109.137 18.5853 108.642C18.8786 108.147 19.3186 107.744 19.9053 107.432C20.4919 107.121 21.2528 106.965 22.1878 106.965C22.7011 106.965 23.2144 107.084 23.7278 107.322C24.2594 107.542 24.6994 107.854 25.0478 108.257C25.4144 108.661 25.5978 109.137 25.5978 109.687C25.5978 110.366 25.4053 110.952 25.0203 111.447C24.6353 111.924 24.1311 112.291 23.5078 112.547C22.9028 112.786 22.2519 112.905 21.5553 112.905Z" fill="black"/>
<path d="M65.7435 131.743C64.6801 131.743 63.791 131.559 63.076 131.193C62.361 130.826 61.811 130.358 61.426 129.79C61.041 129.203 60.8485 128.589 60.8485 127.947C60.8485 127.067 61.1418 126.334 61.7285 125.747C62.3151 125.161 63.0393 124.712 63.901 124.4C64.7626 124.088 65.606 123.933 66.431 123.933C67.201 123.933 67.8793 124.079 68.466 124.372C69.0526 124.647 69.5201 125.06 69.8685 125.61C70.2168 126.142 70.391 126.783 70.391 127.535C70.391 128.342 70.1801 129.066 69.7585 129.707C69.3551 130.349 68.8051 130.844 68.1085 131.193C67.4118 131.559 66.6235 131.743 65.7435 131.743Z" fill="black"/>
<path d="M124.977 132.1C124.226 132.1 123.575 131.908 123.025 131.523C122.493 131.156 122.016 130.597 121.595 129.845C121.43 129.35 121.246 128.772 121.045 128.112C120.843 127.434 120.641 126.747 120.44 126.05C120.256 125.353 120.064 124.693 119.862 124.07C119.661 123.428 119.459 122.897 119.257 122.475C119.001 121.888 118.68 121.457 118.295 121.182C117.928 120.907 117.378 120.715 116.645 120.605C116.278 120.568 115.719 120.522 114.967 120.467C114.234 120.394 113.427 120.339 112.547 120.302C111.667 120.247 110.842 120.22 110.072 120.22C108.899 120.22 107.707 120.247 106.497 120.302C105.287 120.357 104.242 120.431 103.362 120.522C102.611 120.596 102.042 120.752 101.657 120.99C101.291 121.21 100.988 121.604 100.75 122.172C100.511 122.704 100.264 123.346 100.007 124.097C99.7505 124.849 99.4939 125.637 99.2372 126.462C98.9805 127.287 98.7239 128.094 98.4672 128.882C98.0822 129.762 97.6147 130.432 97.0647 130.89C96.533 131.33 95.7905 131.55 94.8372 131.55C94.1039 131.55 93.4897 131.431 92.9947 131.193C92.4997 130.954 92.133 130.56 91.8947 130.01C91.6564 129.46 91.5372 128.736 91.5372 127.837C91.5372 126.994 91.6564 125.986 91.8947 124.812C92.133 123.621 92.4539 122.337 92.8572 120.962C93.2789 119.587 93.7372 118.194 94.2322 116.782C94.7455 115.371 95.2589 114.014 95.7722 112.712C96.3039 111.392 96.808 110.21 97.2847 109.165C97.7614 108.102 98.1739 107.258 98.5222 106.635C99.1455 105.48 99.8514 104.371 100.64 103.307C101.446 102.244 102.336 101.3 103.307 100.475C104.297 99.6317 105.379 98.9717 106.552 98.495C107.726 98 109.018 97.7525 110.43 97.7525C112.703 97.7525 114.747 98.44 116.562 99.815C118.396 101.19 120.018 103.014 121.43 105.287C121.961 106.057 122.493 107.057 123.025 108.285C123.575 109.495 124.116 110.842 124.647 112.327C125.179 113.794 125.674 115.316 126.132 116.892C126.591 118.469 126.994 120.018 127.342 121.54C127.709 123.062 127.984 124.464 128.167 125.747C128.369 127.031 128.47 128.112 128.47 128.992C128.47 130.129 128.158 130.927 127.535 131.385C126.911 131.862 126.059 132.1 124.977 132.1ZM117.002 115.848C117.406 115.774 117.671 115.618 117.8 115.38C117.928 115.142 117.992 114.766 117.992 114.252C117.992 113.684 117.891 112.987 117.69 112.162C117.506 111.319 117.25 110.439 116.92 109.522C116.59 108.587 116.205 107.717 115.765 106.91C115.141 105.718 114.408 104.728 113.565 103.94C112.721 103.133 111.814 102.73 110.842 102.73C109.779 102.73 108.761 103.152 107.79 103.995C106.836 104.82 105.993 105.874 105.26 107.157C104.948 107.671 104.627 108.257 104.297 108.917C103.967 109.577 103.665 110.256 103.39 110.952C103.115 111.649 102.886 112.309 102.702 112.932C102.537 113.537 102.455 114.051 102.455 114.472C102.455 115.022 102.675 115.407 103.115 115.627C103.555 115.829 104.261 115.93 105.232 115.93C107.286 115.93 109.064 115.93 110.567 115.93C112.071 115.93 113.345 115.93 114.39 115.93C115.453 115.93 116.324 115.902 117.002 115.848Z" fill="black"/>
<path d="M145.408 131.578C144.784 131.578 144.207 131.422 143.675 131.11C143.162 130.798 142.694 130.294 142.273 129.597C141.869 128.901 141.512 127.984 141.2 126.847C141.072 126.279 140.944 125.555 140.815 124.675C140.687 123.777 140.559 122.805 140.43 121.76C140.32 120.697 140.21 119.606 140.1 118.487C140.009 117.351 139.926 116.242 139.853 115.16C139.779 114.078 139.715 113.07 139.66 112.135C139.624 111.182 139.605 110.375 139.605 109.715C139.605 106.745 139.99 104.407 140.76 102.702C141.549 100.997 142.832 99.7967 144.61 99.1C146.389 98.385 148.763 98.0275 151.733 98.0275C154.043 98.0275 156.252 98.2475 158.36 98.6875C160.487 99.1092 162.375 99.7692 164.025 100.667C165.675 101.566 166.968 102.721 167.903 104.132C168.856 105.544 169.333 107.231 169.333 109.192C169.333 110.696 169.003 112.016 168.343 113.152C167.701 114.271 166.784 115.215 165.593 115.985C164.419 116.737 163.026 117.332 161.413 117.772C159.799 118.194 158.039 118.478 156.133 118.625C154.886 118.698 153.667 118.717 152.475 118.68C151.302 118.625 150.156 118.597 149.038 118.597C148.543 118.597 148.222 118.79 148.075 119.175C147.947 119.542 147.883 120.055 147.883 120.715C147.883 121.082 147.892 121.522 147.91 122.035C147.929 122.548 147.956 123.098 147.993 123.685C148.029 124.272 148.057 124.858 148.075 125.445C148.112 126.013 148.139 126.545 148.158 127.04C148.176 127.535 148.185 127.947 148.185 128.277C148.185 129.377 147.956 130.202 147.498 130.752C147.058 131.303 146.361 131.578 145.408 131.578ZM149.368 114.692C150.651 114.692 151.934 114.637 153.218 114.527C154.501 114.417 155.72 114.234 156.875 113.977C158.03 113.702 159.057 113.345 159.955 112.905C160.854 112.447 161.559 111.887 162.073 111.227C162.586 110.549 162.843 109.752 162.843 108.835C162.843 107.808 162.595 106.937 162.1 106.222C161.605 105.489 160.964 104.884 160.175 104.407C159.387 103.912 158.534 103.527 157.618 103.252C156.719 102.977 155.849 102.785 155.005 102.675C154.162 102.565 153.456 102.51 152.888 102.51C151.769 102.51 150.825 102.602 150.055 102.785C149.285 102.95 148.671 103.225 148.213 103.61C147.754 103.977 147.424 104.444 147.223 105.012C147.021 105.562 146.92 106.222 146.92 106.992C146.92 108.092 146.939 109.064 146.975 109.907C147.03 110.751 147.113 111.484 147.223 112.107C147.333 112.712 147.479 113.207 147.663 113.592C147.846 113.959 148.075 114.234 148.35 114.417C148.625 114.601 148.964 114.692 149.368 114.692Z" fill="black"/>
<path d="M182.602 132.32C181.557 132.32 180.814 131.999 180.374 131.358C179.934 130.734 179.567 129.827 179.274 128.635C179.127 127.883 178.999 127.058 178.889 126.16C178.779 125.262 178.697 124.327 178.642 123.355C178.587 122.365 178.541 121.357 178.504 120.33C178.486 119.285 178.477 118.24 178.477 117.195C178.513 115.875 178.568 114.555 178.642 113.235C178.715 111.915 178.816 110.65 178.944 109.44C179.072 108.212 179.219 107.121 179.384 106.167C179.567 105.196 179.76 104.426 179.962 103.857C180.438 102.501 181.071 101.419 181.859 100.612C182.647 99.8058 183.555 99.2283 184.582 98.88C185.608 98.5133 186.681 98.33 187.799 98.33C189.082 98.33 190.192 98.6142 191.127 99.1825C192.08 99.7508 192.813 100.576 193.327 101.657C193.62 102.262 193.913 103.014 194.207 103.912C194.5 104.811 194.775 105.764 195.032 106.772C195.307 107.781 195.554 108.789 195.774 109.797C196.012 110.787 196.214 111.704 196.379 112.547C196.581 113.592 196.81 114.518 197.067 115.325C197.342 116.113 197.745 116.507 198.277 116.507C198.808 116.507 199.202 116.177 199.459 115.517C199.734 114.857 199.945 114.124 200.092 113.317C200.238 112.382 200.403 111.383 200.587 110.32C200.77 109.257 200.972 108.202 201.192 107.157C201.43 106.094 201.677 105.086 201.934 104.132C202.209 103.179 202.484 102.336 202.759 101.602C203.254 100.557 203.951 99.7508 204.849 99.1825C205.766 98.6142 206.939 98.33 208.369 98.33C209.432 98.33 210.404 98.5225 211.284 98.9075C212.164 99.2742 212.952 99.815 213.649 100.53C214.346 101.245 214.932 102.125 215.409 103.17C215.831 104.032 216.188 105.177 216.482 106.607C216.793 108.019 217.032 109.623 217.197 111.42C217.362 113.198 217.462 115.059 217.499 117.002C217.499 117.974 217.499 118.946 217.499 119.917C217.499 120.889 217.481 121.861 217.444 122.832C217.407 123.786 217.352 124.73 217.279 125.665C217.224 126.582 217.132 127.48 217.004 128.36C216.747 129.423 216.335 130.202 215.767 130.697C215.217 131.174 214.419 131.413 213.374 131.413C212.732 131.413 212.219 131.248 211.834 130.917C211.467 130.587 211.229 130.12 211.119 129.515C211.082 128.892 211.046 128.241 211.009 127.562C210.972 126.866 210.927 126.151 210.872 125.417C210.835 124.666 210.798 123.914 210.762 123.162C210.725 122.411 210.688 121.668 210.652 120.935C210.597 119.487 210.523 118.093 210.432 116.755C210.34 115.398 210.23 114.188 210.102 113.125C209.992 112.043 209.854 111.227 209.689 110.677C209.377 109.651 209.02 108.872 208.617 108.34C208.232 107.808 207.654 107.542 206.884 107.542C206.242 107.542 205.674 107.808 205.179 108.34C204.702 108.853 204.345 109.623 204.107 110.65C204.015 111.09 203.905 111.649 203.777 112.327C203.648 112.987 203.511 113.721 203.364 114.527C203.236 115.316 203.098 116.141 202.952 117.002C202.823 117.846 202.695 118.68 202.567 119.505C202.438 120.312 202.319 121.063 202.209 121.76C201.934 123.19 201.476 124.272 200.834 125.005C200.211 125.72 199.331 126.077 198.194 126.077C196.837 126.077 195.866 125.601 195.279 124.647C194.692 123.694 194.161 122.411 193.684 120.797C193.574 120.266 193.437 119.615 193.272 118.845C193.107 118.075 192.932 117.259 192.749 116.397C192.566 115.517 192.382 114.647 192.199 113.785C192.016 112.923 191.842 112.144 191.677 111.447C191.53 110.732 191.392 110.155 191.264 109.715C191.026 108.762 190.696 108.065 190.274 107.625C189.871 107.185 189.385 106.965 188.817 106.965C188.01 106.965 187.423 107.267 187.057 107.872C186.708 108.477 186.424 109.44 186.204 110.76C186.131 111.2 186.067 111.768 186.012 112.465C185.957 113.162 185.911 113.95 185.874 114.83C185.837 115.692 185.801 116.617 185.764 117.607C185.746 118.597 185.737 119.606 185.737 120.632C185.737 121.696 185.727 122.704 185.709 123.657C185.709 124.611 185.691 125.5 185.654 126.325C185.617 127.15 185.572 127.883 185.517 128.525C185.48 129.148 185.425 129.662 185.352 130.065C185.15 130.743 184.829 131.284 184.389 131.688C183.967 132.109 183.372 132.32 182.602 132.32Z" fill="black"/>
</g>
</svg>
