<svg width="234" height="144" viewBox="0 0 234 144" fill="none" xmlns="http://www.w3.org/2000/svg">
<path d="M15.2343 45L9.51426 38.95V9.8L15.2343 3.75H30.7443L36.4643 9.8V38.95L30.7443 45H15.2343ZM17.3793 40.27H28.5443L31.6793 37.08V11.67L28.5993 8.48H17.4343L14.2993 11.67V37.08L17.3793 40.27ZM20.2393 21.075H25.7393V27.675H20.2393V21.075Z" fill="black"/>
<path d="M73.1693 3.75V40.6H81.4193V45H59.8593V40.6H68.1093V9.085L59.1443 13.54L56.9993 9.25L68.1093 3.75H73.1693Z" fill="black"/>
<path d="M127.089 45H101.789V40.6L121.204 18.985V11.395L118.344 8.48H109.929L106.629 11.89V16.73H102.064V9.8L107.784 3.75H120.544L126.264 9.8V20.58L107.949 40.6H122.689V34.22H127.089V45Z" fill="black"/>
<path d="M155.874 26.685V22.285H164.564L167.204 19.59V11.395L164.344 8.48H155.929L152.629 11.89V16.73H148.064V9.8L153.784 3.75H166.544L172.264 9.8V21.185L169.459 24.1L173.309 28.115V38.95L167.589 45H153.729L148.009 38.95V32.02H152.574V36.86L155.929 40.27H165.444L168.249 37.355V29.71L165.279 26.685H155.874Z" fill="black"/>
<path d="M206.164 40.6H210.564V34.715H191.314V30.315L207.374 3.75H215.624V30.315H219.089V34.715H215.624V40.6H219.474V45H206.164V40.6ZM210.564 30.315V7.655L196.869 30.315H210.564Z" fill="black"/>
<path d="M30.3593 62.53V56.15H16.0593V68.085H30.3043L35.8593 73.915V86.95L30.1393 93H16.2793L10.5593 86.95V80.02H15.1243V84.86L18.4793 88.27H27.9943L30.7993 85.355V75.51L27.8293 72.485H11.6593V51.75H34.7593V62.53H30.3593Z" fill="black"/>
<path d="M56.6143 86.95V57.8L62.3343 51.75H75.0943L80.8143 57.8V64.73H76.2493V59.89L72.9493 56.48H64.5343L61.3993 59.67V69.185H76.3593L81.9143 75.015V86.95L76.1943 93H62.3343L56.6143 86.95ZM61.3993 73.585V85.08L64.5343 88.27H74.0493L76.8543 85.355V76.61L73.8843 73.585H61.3993Z" fill="black"/>
<path d="M105.859 88.6H109.984L122.469 56.15H106.464V62.53H102.064V51.75H127.694V56.15L115.209 88.6H119.719V93H105.859V88.6Z" fill="black"/>
<path d="M148.064 86.95V75.565L151.639 71.77L148.614 68.58V57.8L154.334 51.75H167.699L173.419 57.8V68.58L170.339 71.825L173.914 75.565V86.95L168.194 93H153.784L148.064 86.95ZM166.214 74.465H155.764L153.124 77.16V85.355L155.984 88.27H166.049L168.854 85.355V77.16L166.214 74.465ZM153.674 66.985L156.369 69.735H165.664L168.359 66.985V59.395L165.499 56.48H156.534L153.674 59.395V66.985Z" fill="black"/>
<path d="M194.614 80.02H199.179V84.86L202.479 88.27H211.444L214.579 85.08V75.565H200.169L194.614 69.735V57.8L200.334 51.75H213.644L219.364 57.8V86.95L213.644 93H200.334L194.614 86.95V80.02ZM214.579 71.165V59.67L211.444 56.48H202.479L199.674 59.395V68.14L202.644 71.165H214.579Z" fill="black"/>
<path d="M20.2446 134.4H25.7446V141H20.2446V134.4ZM20.2446 112.4H25.7446V119H20.2446V112.4Z" fill="black"/>
<path d="M66.2446 134.4H71.7446V141H66.2446V134.4Z" fill="black"/>
<path d="M107.651 99.75H122.336V104.15H119.806L129.486 136.6H132.236V141H120.576V136.6H124.426L121.896 128.13H108.091L105.561 136.6H109.411V141H97.7513V136.6H100.501L110.181 104.15H107.651V99.75ZM114.966 104.975L109.411 123.73H120.576L114.966 104.975Z" fill="black"/>
<path d="M148.239 99.75H170.239L175.959 105.8V118.45L170.239 124.5H157.149V136.6H161.549V141H148.239V136.6H152.089V104.15H148.239V99.75ZM157.149 104.48V119.77H168.039L171.229 116.525V107.725L168.094 104.48H157.149Z" fill="black"/>
<path d="M185.377 99.75H196.597L206.992 130.33L217.387 99.75H228.607V104.15H224.757V136.6H228.607V141H215.847V136.6H219.697V107.065L209.412 136.6H204.572L194.287 107.065V136.6H198.137V141H185.377V136.6H189.227V104.15H185.377V99.75Z" fill="black"/>
</svg>
