<svg width="200" height="144" viewBox="0 0 200 144" fill="none" xmlns="http://www.w3.org/2000/svg">
<desc>{"colon":0.3,"dot":0.3}</desc>
<g clip-path="url(#clip0_100_2)">
<path d="M22.772 1.712C23.6387 1.712 24.5574 1.90266 25.528 2.284C26.4987 2.66533 27.4347 3.15067 28.336 3.74H28.284C29.1854 4.39866 29.8787 5.26533 30.364 6.34C30.8494 7.38 31.092 8.59333 31.092 9.98V34.68C31.092 36.136 30.8494 37.384 30.364 38.424C29.8787 39.4293 29.1854 40.2787 28.284 40.972C27.3827 41.6307 26.464 42.1507 25.528 42.532C24.592 42.8787 23.6734 43.052 22.772 43.052H17.312C16.4107 43.052 15.4747 42.8787 14.504 42.532C13.568 42.1507 12.6494 41.6307 11.748 40.972C10.8467 40.2787 10.136 39.4293 9.61605 38.424C9.13071 37.384 8.88805 36.136 8.88805 34.68V9.98C8.88805 8.59333 9.13071 7.38 9.61605 6.34C10.136 5.26533 10.8467 4.39866 11.748 3.74H11.696C12.5974 3.15067 13.5334 2.66533 14.504 2.284C15.4747 1.90266 16.4107 1.712 17.312 1.712H22.772ZM21.42 37.8C22.7027 37.8 23.604 37.436 24.124 36.708C24.6787 35.98 24.956 35.1653 24.956 34.264V10.448C24.956 9.58133 24.6787 8.784 24.124 8.056C23.604 7.328 22.7027 6.964 21.42 6.964H18.56C17.2774 6.964 16.3587 7.328 15.804 8.056C15.284 8.784 15.024 9.58133 15.024 10.448V34.264C15.024 35.1653 15.284 35.98 15.804 36.708C16.3587 37.436 17.2774 37.8 18.56 37.8H21.42Z" fill="black"/>
<path d="M50.76 11.176C49.928 11.176 49.4947 10.604 49.46 9.46C49.4254 8.28133 49.8587 7.692 50.76 7.692C51.3147 7.692 51.9734 7.62267 52.736 7.484C53.4987 7.34533 54.348 7.15467 55.284 6.912C56.1507 6.6 56.9134 6.08 57.572 5.352C58.2307 4.58933 58.6987 3.70533 58.976 2.7C59.184 2.14533 59.5307 1.69467 60.016 1.348C60.5014 1.00133 61.1427 0.845331 61.94 0.879997C63.5694 0.949331 64.384 1.79867 64.384 3.428V41.388C64.384 43.0173 63.3614 43.832 61.316 43.832C59.2707 43.832 58.248 43.0173 58.248 41.388V11.176H50.76Z" fill="black"/>
<path d="M102.876 1.712C103.708 1.712 104.609 1.90266 105.58 2.284C106.585 2.66533 107.539 3.15067 108.44 3.74H108.388C109.289 4.39866 109.983 5.26533 110.468 6.34C110.953 7.38 111.196 8.59333 111.196 9.98V15.076C111.196 16.8787 110.503 18.5773 109.116 20.172C107.729 21.732 105.753 23.1187 103.188 24.332C100.553 25.5453 98.5427 26.8107 97.156 28.128C95.804 29.4453 95.128 30.78 95.128 32.132V37.8H109.948C111.265 37.8 111.941 38.6493 111.976 40.348C112.045 42.1507 111.369 43.052 109.948 43.052H92.268C90.9507 43.052 90.084 42.74 89.668 42.116C89.252 41.4573 89.044 40.712 89.044 39.88V31.664C89.044 29.48 89.72 27.5733 91.072 25.944C92.424 24.28 94.4 22.8587 97 21.68C99.5654 20.6053 101.541 19.4613 102.928 18.248C104.349 17.0347 105.06 15.8387 105.06 14.66V10.448C105.06 9.58133 104.783 8.784 104.228 8.056C103.708 7.328 102.807 6.964 101.524 6.964H98.664C97.3814 6.964 96.4627 7.328 95.908 8.056C95.388 8.784 95.128 9.58133 95.128 10.448V12.528C95.128 14.1573 94.1054 14.972 92.06 14.972C90.0494 14.972 89.044 14.1573 89.044 12.528V9.98C89.044 8.59333 89.2867 7.38 89.772 6.34C90.2574 5.26533 90.9334 4.39866 91.8 3.74H91.748C92.6494 3.15067 93.5854 2.66533 94.556 2.284C95.5614 1.90266 96.5147 1.712 97.416 1.712H102.876Z" fill="black"/>
<path d="M137.312 43.052C136.411 43.052 135.475 42.8787 134.504 42.532C133.568 42.1507 132.649 41.6307 131.748 40.972C130.847 40.2787 130.136 39.4293 129.616 38.424C129.131 37.384 128.888 36.136 128.888 34.68V31.144C128.888 29.5147 129.911 28.7 131.956 28.7C134.001 28.7 135.024 29.5147 135.024 31.144V34.264C135.024 35.1653 135.284 35.98 135.804 36.708C136.359 37.436 137.277 37.8 138.56 37.8H141.42C142.703 37.8 143.604 37.436 144.124 36.708C144.679 35.98 144.956 35.1653 144.956 34.264V27.972C144.956 27.1053 144.696 26.308 144.176 25.58C143.656 24.8173 142.737 24.436 141.42 24.436H137.728C136.411 24.436 135.752 23.5867 135.752 21.888C135.752 20.12 136.411 19.236 137.728 19.236H141.42C142.841 19.236 143.777 18.8893 144.228 18.196C144.713 17.468 144.956 16.6533 144.956 15.752V10.448C144.956 9.58133 144.679 8.784 144.124 8.056C143.604 7.328 142.703 6.964 141.42 6.964H138.56C137.277 6.964 136.359 7.328 135.804 8.056C135.284 8.784 135.024 9.58133 135.024 10.448V12.528C135.024 14.1573 134.001 14.972 131.956 14.972C129.911 14.972 128.888 14.1573 128.888 12.528V9.98C128.888 8.59333 129.131 7.38 129.616 6.34C130.136 5.26533 130.847 4.39866 131.748 3.74H131.696C132.597 3.15067 133.533 2.66533 134.504 2.284C135.475 1.90266 136.411 1.712 137.312 1.712H142.772C143.639 1.712 144.557 1.90266 145.528 2.284C146.499 2.66533 147.435 3.15067 148.336 3.74H148.284C149.185 4.39866 149.879 5.26533 150.364 6.34C150.849 7.38 151.092 8.59333 151.092 9.98V16.168C151.092 17.832 150.78 19.1667 150.156 20.172C149.948 20.4493 149.74 20.744 149.532 21.056C149.324 21.368 149.151 21.6107 149.012 21.784L149.74 23.032L150.26 23.604C150.815 24.4707 151.092 25.788 151.092 27.556V34.68C151.092 36.136 150.849 37.384 150.364 38.424C149.879 39.4293 149.185 40.2787 148.284 40.972C147.383 41.6307 146.464 42.1507 145.528 42.532C144.592 42.8787 143.673 43.052 142.772 43.052H137.312Z" fill="black"/>
<path d="M169.876 35.46C168.697 35.4253 167.831 35.1827 167.276 34.732C166.756 34.2467 166.496 33.588 166.496 32.756C166.496 32.5133 166.496 32.2533 166.496 31.976C166.531 31.6987 166.583 31.4733 166.652 31.3L174.14 4.26C174.556 2.45733 175.821 1.74666 177.936 2.128C178.907 2.336 179.6 2.71733 180.016 3.272C180.467 3.792 180.571 4.48533 180.328 5.352L180.38 5.3L173.464 30.26H182.46V3.948C182.46 2.284 183.465 1.452 185.476 1.452C187.556 1.452 188.596 2.284 188.596 3.948V30.26H190.936C192.323 30.26 192.999 31.1267 192.964 32.86C192.895 34.5933 192.219 35.46 190.936 35.46H188.596V41.388C188.596 43.0173 187.556 43.832 185.476 43.832C183.465 43.832 182.46 43.0173 182.46 41.388V35.46H169.876Z" fill="black"/>
<path d="M17 91.052C16.0987 91.052 15.1627 90.8787 14.192 90.532C13.256 90.1507 12.3374 89.6307 11.436 88.972C9.59871 87.62 8.68005 85.5227 8.68005 82.68V79.144C8.68005 77.5147 9.70271 76.7 11.748 76.7C13.7587 76.7 14.764 77.5147 14.764 79.144V82.264C14.764 83.1653 15.024 83.98 15.544 84.708C16.0987 85.436 17.0174 85.8 18.3 85.8H21.68C22.9627 85.8 23.864 85.436 24.384 84.708C24.9387 83.98 25.216 83.1653 25.216 82.264V74.1C25.216 73.2333 24.956 72.436 24.436 71.708C23.916 70.9453 22.9974 70.564 21.68 70.564H12.424C11.384 70.564 10.5694 70.3387 9.98005 69.888C9.42538 69.4373 9.14805 68.6573 9.14805 67.548V52.832C9.14805 52.5547 9.18271 52.26 9.25205 51.948C9.32138 51.636 9.42538 51.272 9.56405 50.856V50.96C9.98005 50.128 10.9334 49.712 12.424 49.712H29.064C30.3467 49.712 31.0227 50.5787 31.092 52.312C31.1614 54.08 30.4854 54.964 29.064 54.964H15.336V65.364H23.032C24.8347 65.364 26.672 66.04 28.544 67.392C30.416 68.64 31.352 70.7373 31.352 73.684V82.68C31.352 84.136 31.1094 85.384 30.624 86.424C30.1387 87.4293 29.4454 88.2787 28.544 88.972C27.6427 89.6307 26.7067 90.1507 25.736 90.532C24.8 90.8787 23.8987 91.052 23.032 91.052H17Z" fill="black"/>
<path d="M65.164 74.152C65.164 73.2853 64.8867 72.488 64.332 71.76C63.812 70.9973 62.9107 70.616 61.628 70.616H58.768C57.4854 70.616 56.5667 70.9973 56.012 71.76C55.492 72.488 55.232 73.2853 55.232 74.152V82.264C55.232 83.1653 55.492 83.98 56.012 84.708C56.5667 85.436 57.4854 85.8 58.768 85.8H61.628C62.9107 85.8 63.812 85.436 64.332 84.708C64.8867 83.98 65.164 83.1653 65.164 82.264V74.152ZM55.232 66.092C55.8907 65.884 56.4627 65.728 56.948 65.624C57.4334 65.4853 57.78 65.416 57.988 65.416H62.98C63.8814 65.416 64.8 65.6067 65.736 65.988C66.7067 66.3693 67.6427 66.872 68.544 67.496H68.492C69.3934 68.12 70.0867 68.9693 70.572 70.044C71.0574 71.1187 71.3 72.3493 71.3 73.736V82.68C71.3 84.136 71.0574 85.384 70.572 86.424C70.0867 87.4293 69.3934 88.2787 68.492 88.972C67.5907 89.6307 66.672 90.1507 65.736 90.532C64.8 90.8787 63.8814 91.052 62.98 91.052H57.52C55.7174 91.052 53.8454 90.376 51.904 89.024H51.956C50.0494 87.7067 49.096 85.592 49.096 82.68V57.98C49.096 56.5933 49.3387 55.3973 49.824 54.392C50.344 53.352 51.0547 52.4853 51.956 51.792H51.904C52.8054 51.168 53.7414 50.6653 54.712 50.284C55.6827 49.9027 56.6187 49.712 57.52 49.712H62.98C63.8467 49.712 64.7654 49.9027 65.736 50.284C66.7067 50.6653 67.6427 51.1507 68.544 51.74H68.492C69.3934 52.3987 70.0867 53.2653 70.572 54.34C71.0574 55.38 71.3 56.5933 71.3 57.98V60.528C71.3 62.1573 70.2774 62.972 68.232 62.972C66.1867 62.972 65.164 62.1573 65.164 60.528V58.448C65.164 57.5813 64.8867 56.784 64.332 56.056C63.812 55.328 62.9107 54.964 61.628 54.964H58.768C57.4854 54.964 56.5667 55.328 56.012 56.056C55.492 56.784 55.232 57.5813 55.232 58.448V66.092Z" fill="black"/>
<path d="M112.184 54.808C109.827 58.2053 107.903 61.4467 106.412 64.532C104.921 67.6173 103.864 70.4947 103.24 73.164C102.651 75.7293 102.148 78.416 101.732 81.224C101.351 83.9973 101.073 86.7187 100.9 89.388C100.831 90.324 100.484 91 99.86 91.416C99.2707 91.832 98.456 92.0053 97.416 91.936C95.1974 91.7973 94.1747 90.948 94.348 89.388C94.5214 86.8573 94.7987 84.3093 95.18 81.744C95.5614 79.144 96.0467 76.544 96.636 73.944C97.2947 71.448 98.3694 68.6053 99.86 65.416C101.385 62.192 103.344 58.708 105.736 54.964H88.992C87.744 54.964 87.0854 54.08 87.016 52.312C87.016 50.5787 87.6747 49.712 88.992 49.712H109.272C111.491 49.712 112.687 50.336 112.86 51.584C112.929 52.1387 112.912 52.7107 112.808 53.3C112.704 53.8893 112.496 54.392 112.184 54.808Z" fill="black"/>
<path d="M128.42 75.556C128.455 74.62 128.593 73.84 128.836 73.216C129.113 72.5573 129.495 72.0027 129.98 71.552L131.904 69.784L130.292 68.12C129.529 67.2533 129.148 65.936 129.148 64.168V57.98C129.183 56.628 129.443 55.432 129.928 54.392C130.413 53.3173 131.107 52.4333 132.008 51.74H131.956C132.857 51.1507 133.793 50.6653 134.764 50.284C135.735 49.9027 136.671 49.712 137.572 49.712H143.032C143.899 49.712 144.817 49.9027 145.788 50.284C146.759 50.6653 147.695 51.1507 148.596 51.74H148.544C149.445 52.3987 150.139 53.2653 150.624 54.34C151.109 55.38 151.352 56.5933 151.352 57.98V64.168C151.352 65.8667 150.971 67.184 150.208 68.12L148.648 69.836L150.572 71.604C151.612 72.436 152.132 73.7533 152.132 75.556V82.68C152.132 85.488 151.196 87.5853 149.324 88.972C148.423 89.6307 147.487 90.1507 146.516 90.532C145.58 90.8787 144.661 91.052 143.76 91.052H136.74C135.839 91.052 134.903 90.8787 133.932 90.532C132.996 90.1507 132.077 89.6307 131.176 88.972C129.339 87.62 128.42 85.5227 128.42 82.68V75.556ZM135.284 63.752C135.284 64.6533 135.544 65.468 136.064 66.196C136.584 66.8893 137.503 67.236 138.82 67.236H141.68C142.997 67.236 143.916 66.8893 144.436 66.196C144.956 65.468 145.216 64.6533 145.216 63.752V58.448C145.216 57.5813 144.939 56.784 144.384 56.056C143.864 55.328 142.963 54.964 141.68 54.964H138.82C137.537 54.964 136.619 55.328 136.064 56.056C135.544 56.784 135.284 57.5813 135.284 58.448V63.752ZM134.556 82.264C134.556 83.1653 134.816 83.98 135.336 84.708C135.856 85.436 136.757 85.8 138.04 85.8H142.46C143.743 85.8 144.644 85.436 145.164 84.708C145.684 83.98 145.944 83.1653 145.944 82.264V75.972C145.944 75.556 145.892 75.14 145.788 74.724C145.684 74.2733 145.493 73.892 145.216 73.58C144.973 73.2333 144.627 72.956 144.176 72.748C143.725 72.54 143.153 72.436 142.46 72.436H138.04C137.347 72.436 136.775 72.54 136.324 72.748C135.873 72.956 135.509 73.2333 135.232 73.58C134.989 73.892 134.816 74.2733 134.712 74.724C134.608 75.14 134.556 75.556 134.556 75.972V82.264Z" fill="black"/>
<path d="M191.3 82.68C191.3 84.136 191.057 85.384 190.572 86.424C190.087 87.4293 189.393 88.2613 188.492 88.92H188.544C187.643 89.544 186.707 90.064 185.736 90.48C184.8 90.8613 183.881 91.052 182.98 91.052H177.52C176.619 91.052 175.683 90.8787 174.712 90.532C173.776 90.1507 172.857 89.6307 171.956 88.972C171.055 88.2787 170.344 87.4293 169.824 86.424C169.339 85.384 169.096 84.136 169.096 82.68V80.236C169.096 78.5373 170.119 77.688 172.164 77.688C174.209 77.688 175.232 78.5373 175.232 80.236V82.264C175.232 83.1653 175.492 83.98 176.012 84.708C176.567 85.436 177.485 85.8 178.768 85.8H181.628C182.911 85.8 183.812 85.436 184.332 84.708C184.887 83.98 185.164 83.1653 185.164 82.264V74.672C183.847 75.088 182.928 75.296 182.408 75.296H177.52C176.619 75.296 175.683 75.1227 174.712 74.776C173.776 74.3947 172.857 73.892 171.956 73.268C171.055 72.5747 170.344 71.708 169.824 70.668C169.339 69.628 169.096 68.3973 169.096 66.976V57.98C169.096 56.5933 169.339 55.38 169.824 54.34C170.344 53.2653 171.055 52.3987 171.956 51.74H171.904C172.805 51.1507 173.741 50.6653 174.712 50.284C175.683 49.9027 176.619 49.712 177.52 49.712H182.98C184.783 49.712 186.637 50.3707 188.544 51.688H188.492C190.364 53.0053 191.3 55.1027 191.3 57.98V82.68ZM185.164 58.448C185.164 57.5813 184.887 56.784 184.332 56.056C183.812 55.328 182.911 54.964 181.628 54.964H178.768C177.485 54.964 176.567 55.328 176.012 56.056C175.492 56.784 175.232 57.5813 175.232 58.448V66.56C175.232 67.4267 175.492 68.224 176.012 68.952C176.567 69.68 177.485 70.044 178.768 70.044H181.628C182.911 70.044 183.812 69.68 184.332 68.952C184.887 68.224 185.164 67.4267 185.164 66.56V58.448Z" fill="black"/>
<path d="M24.2473 134.788C24.2473 136.001 23.8313 137.024 22.9993 137.856C22.1673 138.653 21.1793 139.052 20.0353 139.052C18.8567 139.052 17.8687 138.653 17.0713 137.856C16.274 137.024 15.8753 136.001 15.8753 134.788C15.8753 133.609 16.274 132.621 17.0713 131.824C17.8687 131.027 18.8567 130.628 20.0353 130.628C21.1793 130.628 22.1673 131.027 22.9993 131.824C23.8313 132.621 24.2473 133.609 24.2473 134.788ZM24.2473 111.908C24.2473 113.087 23.8313 114.092 22.9993 114.924C22.1673 115.721 21.1793 116.12 20.0353 116.12C18.8567 116.12 17.8687 115.721 17.0713 114.924C16.274 114.092 15.8753 113.087 15.8753 111.908C15.8753 110.729 16.274 109.741 17.0713 108.944C17.8687 108.112 18.8567 107.696 20.0353 107.696C21.1793 107.696 22.1673 108.112 22.9993 108.944C23.8313 109.741 24.2473 110.729 24.2473 111.908Z" fill="black"/>
<path d="M64.2073 134.736C64.2073 135.915 63.8087 136.92 63.0113 137.752C62.214 138.549 61.226 138.948 60.0473 138.948C58.8687 138.948 57.8807 138.549 57.0833 137.752C56.286 136.92 55.8873 135.915 55.8873 134.736C55.8873 133.592 56.286 132.621 57.0833 131.824C57.8807 130.992 58.8687 130.576 60.0473 130.576C61.226 130.576 62.214 130.992 63.0113 131.824C63.8087 132.621 64.2073 133.592 64.2073 134.736Z" fill="black"/>
<path d="M100.012 102.808L88.6238 137.752V137.7C88.4158 138.22 88.1211 138.653 87.7398 139C87.3931 139.312 86.9598 139.468 86.4398 139.468C86.1624 139.468 85.8851 139.433 85.6078 139.364C85.3651 139.329 85.1051 139.277 84.8278 139.208H84.8798C82.9038 138.584 82.1758 137.475 82.6958 135.88L94.5518 99.844C94.7251 99.2893 95.0198 98.8213 95.4358 98.44C95.8864 98.0587 96.4064 97.8333 96.9958 97.764C97.5851 97.66 98.1571 97.5907 98.7118 97.556C99.2664 97.4867 99.6998 97.452 100.012 97.452C100.324 97.452 100.757 97.4867 101.312 97.556C101.866 97.5907 102.438 97.6427 103.028 97.712C103.513 97.7813 103.981 98.0413 104.432 98.492C104.917 98.9427 105.281 99.3933 105.524 99.844C107.465 105.807 109.424 111.821 111.4 117.888C113.41 123.92 115.386 129.917 117.328 135.88C117.813 137.475 117.085 138.584 115.144 139.208C114.866 139.277 114.606 139.329 114.364 139.364C114.156 139.433 113.913 139.468 113.636 139.468C113.15 139.468 112.7 139.312 112.284 139C111.902 138.653 111.625 138.22 111.452 137.7V137.752L100.012 102.808ZM103.912 126.52C103.912 127.629 103.513 128.583 102.716 129.38C101.953 130.143 101.017 130.524 99.9078 130.524C98.7984 130.524 97.8624 130.143 97.0998 129.38C96.3371 128.583 95.9558 127.629 95.9558 126.52C95.9558 125.411 96.3371 124.475 97.0998 123.712C97.8624 122.915 98.7984 122.516 99.9078 122.516C101.017 122.516 101.953 122.915 102.716 123.712C103.513 124.475 103.912 125.411 103.912 126.52Z" fill="black"/>
<path d="M138.102 123.712C137.513 123.712 137.045 123.487 136.698 123.036C136.386 122.551 136.23 121.909 136.23 121.112C136.23 119.344 136.958 118.46 138.414 118.46H143.926C145.209 118.46 146.11 118.096 146.63 117.368C147.185 116.64 147.462 115.843 147.462 114.976V106.448C147.462 105.581 147.185 104.784 146.63 104.056C146.11 103.328 145.209 102.964 143.926 102.964H133.006V136.92C133.006 138.584 131.966 139.416 129.886 139.416C127.876 139.416 126.87 138.584 126.87 136.92V100.832C126.87 99.584 127.182 98.752 127.806 98.336C128.43 97.92 129.193 97.712 130.094 97.712H145.278C146.145 97.712 147.064 97.9027 148.034 98.284C149.005 98.6653 149.941 99.1507 150.842 99.74H150.79C151.692 100.399 152.385 101.265 152.87 102.34C153.356 103.38 153.598 104.593 153.598 105.98V115.392C153.598 118.2 152.662 120.297 150.79 121.684C149.889 122.343 148.97 122.845 148.034 123.192C147.098 123.539 146.18 123.712 145.278 123.712H138.102Z" fill="black"/>
<path d="M193.692 97.452C194.802 97.452 196.015 97.712 197.332 98.232C198.546 98.7173 199.152 99.636 199.152 100.988V136.816C199.152 138.48 198.13 139.312 196.084 139.312C194.039 139.312 193.016 138.48 193.016 136.816V110.088L191.508 109.932L189.428 116.692L183.188 137.492C182.807 138.705 181.871 139.295 180.38 139.26C179.722 139.225 179.15 139.052 178.664 138.74C178.179 138.428 177.85 137.977 177.676 137.388L173.932 125.272C173.17 122.88 172.407 120.453 171.644 117.992C170.882 115.496 170.05 112.74 169.148 109.724L167.64 109.932V136.816C167.64 138.48 166.618 139.312 164.572 139.312C162.527 139.312 161.504 138.48 161.504 136.816V100.988C161.504 99.6707 162.111 98.752 163.324 98.232C164.607 97.712 165.838 97.4693 167.016 97.504C167.536 97.504 168.074 97.5733 168.628 97.712C169.183 97.8507 169.703 98.0587 170.188 98.336C170.674 98.5787 171.107 98.908 171.488 99.324C171.87 99.7053 172.164 100.156 172.372 100.676L180.536 128.496C181.126 126.451 181.75 124.232 182.408 121.84C183.067 119.448 183.743 117.021 184.436 114.56C185.13 112.099 185.806 109.672 186.464 107.28C187.158 104.853 187.799 102.6 188.388 100.52C188.596 100.035 188.891 99.6013 189.272 99.22C189.654 98.8387 190.087 98.5267 190.572 98.284C191.058 98.0067 191.56 97.7987 192.08 97.66C192.635 97.5213 193.172 97.452 193.692 97.452Z" fill="black"/>
</g>
</svg>
