<svg width="160" height="144" viewBox="0 0 160 144" fill="none" xmlns="http://www.w3.org/2000/svg">
<g clip-path="url(#clip0_100_2)">
<path d="M11.8398 9.09766C12.3086 8.90234 12.7773 8.80469 13.2461 8.80469C13.8711 8.80469 14.3398 8.90234 14.6523 9.09766C14.9648 9.09766 15.2773 9.05859 15.5898 8.98047C15.9414 8.90234 16.3125 8.86328 16.7031 8.86328C18.2656 8.86328 19.6328 9.17578 20.8047 9.80078C21.9766 10.4258 22.9531 11.2266 23.7344 12.2031C24.5547 13.1797 25.1602 14.2734 25.5508 15.4844C25.9414 16.6953 26.1367 17.8867 26.1367 19.0586C26.1367 20.4258 25.9023 21.7148 25.4336 22.9258C24.9648 24.0977 24.3203 25.1328 23.5 26.0312C22.6797 26.9297 21.7031 27.6328 20.5703 28.1406C19.4375 28.6484 18.207 28.9023 16.8789 28.9023C15.3555 28.9023 13.8906 28.707 12.4844 28.3164C11.1172 27.8867 9.90625 27.2617 8.85156 26.4414C7.83594 25.6211 7.01562 24.6055 6.39062 23.3945C5.80469 22.1445 5.51172 20.6992 5.51172 19.0586C5.51172 16.2461 6.09766 14 7.26953 12.3203C8.44141 10.6406 9.96484 9.56641 11.8398 9.09766ZM13.7148 13.1992H13.3047C12.6016 13.1992 11.9961 13.3945 11.4883 13.7852C10.9805 14.1367 10.5508 14.6055 10.1992 15.1914C9.84766 15.7383 9.57422 16.3633 9.37891 17.0664C9.22266 17.7695 9.14453 18.4336 9.14453 19.0586C9.14453 20.0742 9.35938 20.9727 9.78906 21.7539C10.2188 22.4961 10.7852 23.1211 11.4883 23.6289C12.1914 24.1367 12.9922 24.5273 13.8906 24.8008C14.7891 25.0352 15.707 25.1523 16.6445 25.1523C17.2695 25.1523 17.9336 25.0352 18.6367 24.8008C19.3398 24.5273 19.9844 24.1367 20.5703 23.6289C21.1562 23.082 21.6445 22.4375 22.0352 21.6953C22.4258 20.9531 22.6211 20.0742 22.6211 19.0586C22.6211 18.1602 22.4648 17.3203 22.1523 16.5391C21.8398 15.7188 21.4102 15.0156 20.8633 14.4297C20.3164 13.8438 19.6719 13.375 18.9297 13.0234C18.2266 12.6719 17.4648 12.4961 16.6445 12.4961C16.0977 12.4961 15.5898 12.5547 15.1211 12.6719C14.6523 12.75 14.1836 12.9258 13.7148 13.1992Z" fill="black"/>
<path d="M45.3633 31.832C45.6367 29.9961 45.8906 27.7109 46.125 24.9766C46.3594 22.2422 46.4766 19.4883 46.4766 16.7148C46.4766 14.8008 46.3789 13.0234 46.1836 11.3828C46.0273 9.70312 45.7539 8.31641 45.3633 7.22266C45.2461 6.94922 45.168 6.69531 45.1289 6.46094C45.0898 6.1875 45.0703 5.95312 45.0703 5.75781C45.0703 5.17188 45.207 4.72266 45.4805 4.41016C45.7539 4.05859 46.1055 3.88281 46.5352 3.88281C47.2773 3.88281 47.8633 4.35156 48.293 5.28906C48.7617 6.1875 49.1133 7.37891 49.3477 8.86328C49.6211 10.3086 49.7969 11.9297 49.875 13.7266C49.9922 15.4844 50.0508 17.2031 50.0508 18.8828C50.0508 21.5 49.9141 24.0391 49.6406 26.5C49.3672 28.9219 49.1133 30.8945 48.8789 32.418C48.8008 32.9648 48.5664 33.375 48.1758 33.6484C47.8242 33.9219 47.4727 34.0586 47.1211 34.0586C46.6523 34.0586 46.2227 33.9023 45.832 33.5898C45.4805 33.2773 45.3047 32.8477 45.3047 32.3008C45.3047 32.1055 45.3242 31.9492 45.3633 31.832Z" fill="black"/>
<path d="M87.0312 33.9414C86.0547 33.8242 84.9805 33.6094 83.8086 33.2969C82.6758 32.9844 81.5234 32.6328 80.3516 32.2422C79.2188 31.8516 78.1055 31.4414 77.0117 31.0117C75.918 30.543 74.9219 30.1133 74.0234 29.7227C73.5547 29.4102 73.2227 29.0781 73.0273 28.7266C72.8711 28.375 72.793 27.9844 72.793 27.5547C72.7539 27.125 72.8125 26.7148 72.9688 26.3242C73.1641 25.8945 73.3594 25.5039 73.5547 25.1523L81.4062 12.1445C81.9922 11.168 82.2852 10.25 82.2852 9.39062C82.2852 8.72656 82.0703 8.19922 81.6406 7.80859C81.2109 7.41797 80.5469 7.22266 79.6484 7.22266C78.8281 7.22266 78.0469 7.30078 77.3047 7.45703C76.5625 7.57422 75.8789 7.73047 75.2539 7.92578C74.668 8.08203 74.1797 8.23828 73.7891 8.39453C73.3984 8.51172 73.1641 8.57031 73.0859 8.57031C72.5781 8.57031 72.1875 8.35547 71.9141 7.92578C71.6406 7.49609 71.5039 7.06641 71.5039 6.63672C71.5039 6.12891 71.7578 5.69922 72.2656 5.34766C72.8125 4.99609 73.4766 4.70312 74.2578 4.46875C75.0781 4.23438 75.957 4.07812 76.8945 4C77.832 3.88281 78.7109 3.82422 79.5312 3.82422C81.4062 3.82422 82.9688 4.29297 84.2188 5.23047C85.5078 6.16797 86.1523 7.55469 86.1523 9.39062C86.1133 9.9375 86.0352 10.4844 85.918 11.0312C85.8008 11.5781 85.625 12.0664 85.3906 12.4961L76.9531 26.9102C77.6562 27.3789 78.5156 27.8281 79.5312 28.2578C80.5469 28.6484 81.582 29.0195 82.6367 29.3711C83.6914 29.6836 84.668 29.957 85.5664 30.1914C86.4648 30.3867 87.1484 30.5039 87.6172 30.543C88.0859 30.6211 88.418 30.8555 88.6133 31.2461C88.8477 31.6367 88.9648 32.0469 88.9648 32.4766C88.9648 32.8672 88.8281 33.2188 88.5547 33.5312C88.2812 33.8438 87.9102 34 87.4414 34C87.2461 34 87.1094 33.9805 87.0312 33.9414Z" fill="black"/>
<path d="M109.305 14.1367C109.656 13.9414 110.105 13.6289 110.652 13.1992C111.199 12.7695 111.727 12.3008 112.234 11.793C112.742 11.2852 113.172 10.7773 113.523 10.2695C113.914 9.76172 114.109 9.29297 114.109 8.86328C114.109 8.23828 113.855 7.84766 113.348 7.69141C112.879 7.53516 112.312 7.45703 111.648 7.45703C110.984 7.45703 110.32 7.53516 109.656 7.69141C109.031 7.80859 108.465 7.94531 107.957 8.10156C107.449 8.21875 107.039 8.35547 106.727 8.51172C106.414 8.62891 106.238 8.6875 106.199 8.6875C105.77 8.6875 105.379 8.47266 105.027 8.04297C104.715 7.57422 104.559 7.125 104.559 6.69531C104.559 6.22656 104.773 5.83594 105.203 5.52344C105.633 5.17188 106.18 4.87891 106.844 4.64453C107.547 4.41016 108.289 4.23438 109.07 4.11719C109.891 4 110.672 3.94141 111.414 3.94141C113.133 3.94141 114.578 4.33203 115.75 5.11328C116.961 5.85547 117.566 6.89062 117.566 8.21875C117.566 8.88281 117.449 9.52734 117.215 10.1523C116.98 10.7773 116.668 11.3828 116.277 11.9688C115.926 12.5156 115.535 13.043 115.105 13.5508C114.715 14.0195 114.344 14.4102 113.992 14.7227C114.852 14.7617 115.672 14.9961 116.453 15.4258C117.273 15.8164 117.977 16.3633 118.562 17.0664C119.188 17.7305 119.676 18.5117 120.027 19.4102C120.379 20.3086 120.555 21.2461 120.555 22.2227C120.555 24.0586 120.184 25.7188 119.441 27.2031C118.699 28.6875 117.664 29.9766 116.336 31.0703C115.047 32.1641 113.504 33.0039 111.707 33.5898C109.949 34.1758 108.035 34.4688 105.965 34.4688C105.066 34.4688 104.402 34.3516 103.973 34.1172C103.582 33.9219 103.387 33.4336 103.387 32.6523C103.387 31.5586 104.031 31.0117 105.32 31.0117C106.531 31.0117 107.82 30.8555 109.188 30.543C110.594 30.2305 111.883 29.7227 113.055 29.0195C114.227 28.3164 115.203 27.3984 115.984 26.2656C116.766 25.0938 117.156 23.668 117.156 21.9883C117.156 20.8945 116.629 19.918 115.574 19.0586C114.559 18.1602 113.27 17.7109 111.707 17.7109C111.434 17.7109 111.16 17.7305 110.887 17.7695C110.652 17.8086 110.398 17.8281 110.125 17.8281C109.578 17.8281 109.148 17.6523 108.836 17.3008C108.562 16.9102 108.426 16.4609 108.426 15.9531C108.426 15.2109 108.719 14.6055 109.305 14.1367Z" fill="black"/>
<path d="M145.23 32.3008C145.387 31.3242 145.523 30.3086 145.641 29.2539C145.797 28.1602 145.934 26.9883 146.051 25.7383C144.293 25.7383 142.477 25.6992 140.602 25.6211C138.766 25.543 137.184 25.4648 135.855 25.3867C135.23 25.3477 134.781 25.1523 134.508 24.8008C134.234 24.4492 134.039 24 133.922 23.4531C133.844 22.9062 133.824 22.3008 133.863 21.6367C133.902 20.9336 133.922 20.2305 133.922 19.5273C133.922 17.3008 133.98 15.0938 134.098 12.9062C134.215 10.7188 134.41 8.51172 134.684 6.28516C134.684 5.58203 134.859 5.09375 135.211 4.82031C135.562 4.54687 135.953 4.41016 136.383 4.41016C136.852 4.41016 137.223 4.625 137.496 5.05469C137.809 5.44531 137.965 5.97266 137.965 6.63672C137.77 8.82422 137.613 10.9531 137.496 13.0234C137.379 15.0938 137.32 17.125 137.32 19.1172C137.32 19.625 137.32 20.1328 137.32 20.6406C137.32 21.1094 137.34 21.5977 137.379 22.1055C138.434 22.2227 139.43 22.3203 140.367 22.3984C141.305 22.4375 142.281 22.457 143.297 22.457C143.766 22.457 144.234 22.4375 144.703 22.3984C145.211 22.3594 145.699 22.3008 146.168 22.2227C146.207 21.6758 146.227 21.1289 146.227 20.582C146.227 20.0352 146.227 19.4883 146.227 18.9414C146.227 16.9102 146.148 14.8008 145.992 12.6133C145.836 10.4258 145.621 8.51172 145.348 6.87109C145.27 6.48047 145.23 6.1875 145.23 5.99219C145.23 5.32813 145.367 4.80078 145.641 4.41016C145.953 4.01953 146.324 3.82422 146.754 3.82422C147.379 3.82422 147.887 4.37109 148.277 5.46484C148.668 6.55859 148.961 7.98438 149.156 9.74219C149.391 11.4609 149.527 13.4141 149.566 15.6016C149.645 17.7891 149.684 19.957 149.684 22.1055C150.504 22.0664 151.266 21.9102 151.969 21.6367C152.672 21.3633 153.453 21.2266 154.312 21.2266C154.781 21.2266 155.172 21.3828 155.484 21.6953C155.797 22.0078 155.953 22.3789 155.953 22.8086C155.953 23.3555 155.719 23.8242 155.25 24.2148C154.781 24.5664 154.195 24.8398 153.492 25.0352C152.828 25.2305 152.125 25.3867 151.383 25.5039C150.641 25.582 149.996 25.6211 149.449 25.6211C149.41 26.793 149.352 27.9258 149.273 29.0195C149.195 30.0742 149.078 31.0117 148.922 31.832C148.766 32.6523 148.531 33.3164 148.219 33.8242C147.906 34.293 147.496 34.5273 146.988 34.5273C146.559 34.5273 146.148 34.3711 145.758 34.0586C145.367 33.7461 145.172 33.2773 145.172 32.6523C145.172 32.5742 145.172 32.5156 145.172 32.4766C145.211 32.4375 145.23 32.3789 145.23 32.3008Z" fill="black"/>
<path d="M12.3672 60.3789L12.25 64.0117C12.9922 63.7383 13.6953 63.5625 14.3594 63.4844C15.0625 63.3672 15.8047 63.3086 16.5859 63.3086C19.1641 63.3086 21.1562 63.9336 22.5625 65.1836C23.9688 66.4336 24.6719 68.3477 24.6719 70.9258C24.6719 72.0195 24.4766 73.1719 24.0859 74.3828C23.6953 75.5938 23.207 76.7656 22.6211 77.8984C22.0352 78.9922 21.4297 80.0078 20.8047 80.9453C20.1797 81.8828 19.6328 82.6055 19.1641 83.1133C18.8125 83.543 18.4414 83.8164 18.0508 83.9336C17.6602 84.0898 17.3086 84.1875 16.9961 84.2266C16.5664 84.2266 16.1953 84.0703 15.8828 83.7578C15.5703 83.4453 15.4141 83.0742 15.4141 82.6445C15.4141 82.2539 15.4922 81.9414 15.6484 81.707C15.8047 81.4727 16.0391 81.1797 16.3516 80.8281C16.6641 80.4766 17.0547 80.0078 17.5234 79.4219C18.0312 78.8359 18.6367 77.957 19.3398 76.7852C19.8867 75.8477 20.3555 74.8711 20.7461 73.8555C21.1758 72.8398 21.3906 71.8633 21.3906 70.9258C21.3906 69.2852 20.9023 68.1914 19.9258 67.6445C18.9883 67.0977 17.875 66.8242 16.5859 66.8242C16 66.8242 15.2969 66.9023 14.4766 67.0586C13.6953 67.1758 13.0703 67.293 12.6016 67.4102C12.4062 68.0742 12.1328 68.5625 11.7812 68.875C11.4688 69.1484 11.0977 69.2852 10.668 69.2852C10.1211 69.2852 9.63281 69.0508 9.20312 68.582C8.77344 68.0742 8.55859 67.4102 8.55859 66.5898C8.55859 66.2773 8.57812 65.8867 8.61719 65.418C8.65625 64.9102 8.67578 64.3633 8.67578 63.7773C8.71484 63.1914 8.75391 62.6055 8.79297 62.0195C8.83203 61.3945 8.85156 60.8086 8.85156 60.2617C8.85156 59.6367 9.02734 59.2266 9.37891 59.0312C9.76953 58.7969 10.1797 58.6797 10.6094 58.6797C11.0781 58.6797 11.4883 58.8555 11.8398 59.207C12.1914 59.5195 12.3672 59.9102 12.3672 60.3789ZM8.96875 57.0977C8.89062 57.0977 8.83203 57.1172 8.79297 57.1562C8.75391 57.1562 8.69531 57.1562 8.61719 57.1562C8.10938 57.1562 7.71875 57 7.44531 56.6875C7.21094 56.375 7.09375 56.0039 7.09375 55.5742C7.09375 55.2227 7.23047 54.8516 7.50391 54.4609C7.77734 54.0312 8.1875 53.7773 8.73438 53.6992C9.71094 53.582 10.6289 53.4648 11.4883 53.3477C12.3477 53.2305 13.168 53.1133 13.9492 52.9961C14.7305 52.8398 15.5117 52.6641 16.293 52.4688C17.1133 52.2734 17.9922 52.0195 18.9297 51.707C19.0859 51.668 19.3008 51.6484 19.5742 51.6484C20.082 51.6484 20.4727 51.8047 20.7461 52.1172C21.0586 52.3906 21.2148 52.7422 21.2148 53.1719C21.2148 53.875 20.7461 54.4805 19.8086 54.9883C18.8711 55.457 17.7383 55.8477 16.4102 56.1602C15.1211 56.4336 13.7734 56.6484 12.3672 56.8047C11 56.9609 9.86719 57.0586 8.96875 57.0977Z" fill="black"/>
<path d="M48.9375 78.4258C50.0312 78.4258 51.0273 78.1133 51.9258 77.4883C52.8242 76.8242 53.2734 75.9258 53.2734 74.793C53.2734 74.3242 53.1367 73.875 52.8633 73.4453C52.5898 72.9766 52.2383 72.5859 51.8086 72.2734C51.3789 71.9219 50.8906 71.6484 50.3438 71.4531C49.8359 71.2578 49.3281 71.1602 48.8203 71.1602C48.5078 71.1602 48.2148 71.2188 47.9414 71.3359C47.668 71.4141 47.4141 71.4531 47.1797 71.4531C46.6719 71.4531 46.3008 71.2383 46.0664 70.8086C45.832 70.3789 45.7148 69.9688 45.7148 69.5781C45.7148 68.875 46.0273 68.4258 46.6523 68.2305C47.2773 67.9961 47.9414 67.8789 48.6445 67.8789C49.582 67.8789 50.5195 68.0547 51.457 68.4062C52.4336 68.7578 53.293 69.2266 54.0352 69.8125C54.7773 70.3984 55.3828 71.1016 55.8516 71.9219C56.3203 72.7422 56.5547 73.6211 56.5547 74.5586C56.5547 75.6914 56.3398 76.707 55.9102 77.6055C55.5195 78.5039 54.9922 79.2852 54.3281 79.9492C53.6641 80.5742 52.8828 81.0625 51.9844 81.4141C51.125 81.7656 50.2266 81.9414 49.2891 81.9414C47.5703 81.9414 46.125 81.6875 44.9531 81.1797C43.8203 80.6328 42.9023 79.9102 42.1992 79.0117C41.4961 78.1133 40.9883 77.0586 40.6758 75.8477C40.4023 74.5977 40.2656 73.2695 40.2656 71.8633C40.2656 71.043 40.3438 69.9883 40.5 68.6992C40.6953 67.3711 40.9297 65.9844 41.2031 64.5391C41.4766 63.0547 41.8086 61.5703 42.1992 60.0859C42.5898 58.6016 43 57.2539 43.4297 56.043C43.8594 54.832 44.3086 53.8555 44.7773 53.1133C45.2461 52.3711 45.6953 52 46.125 52C46.5547 52 46.9648 52.1562 47.3555 52.4688C47.7461 52.7422 47.9414 53.1523 47.9414 53.6992C47.9414 53.9727 47.8828 54.2461 47.7656 54.5195C46.75 57.3711 45.793 60.2422 44.8945 63.1328C43.9961 65.9844 43.5469 68.8555 43.5469 71.7461C43.5469 73.7383 43.918 75.3594 44.6602 76.6094C45.4023 77.8203 46.8281 78.4258 48.9375 78.4258Z" fill="black"/>
<path d="M82.5781 80.3008C83.3203 76.0039 83.6914 71.6094 83.6914 67.1172C83.6914 63.7188 83.5156 60.3789 83.1641 57.0977C83.0859 56.7852 82.9492 56.4336 82.7539 56.043C82.5586 55.6523 82.0703 55.457 81.2891 55.457C80.7031 55.457 80.0781 55.457 79.4141 55.457C78.7891 55.457 78.2031 55.4961 77.6562 55.5742C77.1094 55.6133 76.6211 55.6914 76.1914 55.8086C75.8008 55.8867 75.5469 56.0039 75.4297 56.1602C75.1953 56.6289 75.0781 57.2734 75.0781 58.0938C75.0781 58.875 75.0586 59.6367 75.0195 60.3789C75.0195 61.1211 74.9023 61.7656 74.668 62.3125C74.4727 62.8594 74.0234 63.1328 73.3203 63.1328C72.8906 63.1328 72.5586 63.0938 72.3242 63.0156C72.0898 62.8984 71.9141 62.7227 71.7969 62.4883C71.7188 62.2148 71.6602 61.8633 71.6211 61.4336C71.6211 61.0039 71.6211 60.457 71.6211 59.793C71.6211 58.2305 71.6797 56.9609 71.7969 55.9844C71.9141 55.0078 72.2266 54.2461 72.7344 53.6992C73.2422 53.1523 74.0039 52.7617 75.0195 52.5273C76.0352 52.293 77.4609 52.0977 79.2969 51.9414H80.4102C80.7227 51.9414 81.0352 51.9219 81.3477 51.8828C81.6602 51.8438 81.9727 51.8242 82.2852 51.8242C82.9492 51.8242 83.4961 51.9414 83.9258 52.1758C84.3945 52.3711 84.7656 52.625 85.0391 52.9375C85.3125 53.2109 85.5078 53.543 85.625 53.9336C85.7812 54.2852 85.8984 54.5977 85.9766 54.8711C86.4062 56.3555 86.6797 58.1133 86.7969 60.1445C86.9531 62.1758 87.0312 64.3047 87.0312 66.5312C87.0312 69.2266 86.9141 71.8438 86.6797 74.3828C86.4844 76.9219 86.2109 79.0898 85.8594 80.8867C85.7422 81.5508 85.4688 81.9805 85.0391 82.1758C84.6484 82.4102 84.2578 82.5273 83.8672 82.5273C83.4766 82.4492 83.1445 82.2734 82.8711 82C82.6367 81.7656 82.5195 81.3945 82.5195 80.8867C82.5195 80.6523 82.5391 80.457 82.5781 80.3008Z" fill="black"/>
<path d="M112.176 78.543C112.957 78.543 113.699 78.4062 114.402 78.1328C115.145 77.8203 115.789 77.4102 116.336 76.9023C116.922 76.3945 117.391 75.8086 117.742 75.1445C118.094 74.4805 118.27 73.7773 118.27 73.0352C118.27 72.293 118.094 71.5508 117.742 70.8086C117.391 70.0273 116.922 69.3242 116.336 68.6992C115.789 68.0352 115.164 67.4492 114.461 66.9414C113.797 66.4336 113.113 66.043 112.41 65.7695C111.668 66.1602 110.926 66.6289 110.184 67.1758C109.441 67.7227 108.777 68.3281 108.191 68.9922C107.605 69.6172 107.117 70.2812 106.727 70.9844C106.375 71.6875 106.199 72.3711 106.199 73.0352C106.199 74.6758 106.785 76.0039 107.957 77.0195C109.129 78.0352 110.535 78.543 112.176 78.543ZM119.441 59.4414L114.988 63.3086C115.77 63.6602 116.551 64.168 117.332 64.832C118.113 65.457 118.816 66.1992 119.441 67.0586C120.105 67.8789 120.633 68.8164 121.023 69.8711C121.453 70.8867 121.668 71.9414 121.668 73.0352C121.668 74.4414 121.375 75.7109 120.789 76.8438C120.203 77.9375 119.461 78.875 118.562 79.6562C117.664 80.4375 116.648 81.043 115.516 81.4727C114.422 81.8633 113.348 82.0586 112.293 82.0586C109.363 82.0586 107.059 81.2383 105.379 79.5977C103.738 77.918 102.918 75.7305 102.918 73.0352C102.918 72.0977 103.074 71.1797 103.387 70.2812C103.738 69.3438 104.188 68.4844 104.734 67.7031C105.281 66.8828 105.926 66.1406 106.668 65.4766C107.449 64.8125 108.27 64.2461 109.129 63.7773C108.582 63.543 107.996 63.25 107.371 62.8984C106.746 62.5078 106.141 62.0586 105.555 61.5508C105.008 61.043 104.539 60.457 104.148 59.793C103.797 59.1289 103.621 58.3867 103.621 57.5664C103.621 56.4727 103.895 55.5742 104.441 54.8711C104.988 54.1289 105.672 53.543 106.492 53.1133C107.352 52.6836 108.289 52.3906 109.305 52.2344C110.32 52.0391 111.277 51.9414 112.176 51.9414C112.566 51.9414 113.016 51.9609 113.523 52C114.07 52.0391 114.559 52.1367 114.988 52.293C115.457 52.4492 115.848 52.6641 116.16 52.9375C116.473 53.1719 116.629 53.5039 116.629 53.9336C116.629 54.4805 116.414 54.832 115.984 54.9883C115.555 55.1055 115.066 55.1641 114.52 55.1641C114.129 55.1641 113.758 55.1641 113.406 55.1641C113.094 55.125 112.801 55.1055 112.527 55.1055C112.059 55.1055 111.512 55.1445 110.887 55.2227C110.301 55.3008 109.734 55.4375 109.188 55.6328C108.641 55.8281 108.172 56.082 107.781 56.3945C107.43 56.707 107.254 57.1172 107.254 57.625C107.254 58.0156 107.43 58.4062 107.781 58.7969C108.172 59.1875 108.621 59.5586 109.129 59.9102C109.637 60.2617 110.145 60.5742 110.652 60.8477C111.16 61.1211 111.551 61.3164 111.824 61.4336C112.371 61.043 112.957 60.5742 113.582 60.0273C114.246 59.4805 114.871 58.9727 115.457 58.5039C116.043 57.9961 116.57 57.5859 117.039 57.2734C117.547 56.9219 117.898 56.7461 118.094 56.7461C118.562 56.7461 118.973 56.9023 119.324 57.2148C119.676 57.5273 119.852 57.918 119.852 58.3867C119.852 58.8164 119.715 59.168 119.441 59.4414Z" fill="black"/>
<path d="M149.625 55.9258C149.82 55.5742 150.191 55.3984 150.738 55.3984C151.168 55.3984 151.578 55.5352 151.969 55.8086C152.359 56.082 152.555 56.4531 152.555 56.9219V57.2148C151.852 58.8945 151.188 60.7695 150.562 62.8398C149.977 64.8711 149.449 66.9414 148.98 69.0508C148.512 71.1602 148.121 73.2305 147.809 75.2617C147.535 77.2539 147.359 79.0117 147.281 80.5352C147.242 81.1602 147.066 81.6289 146.754 81.9414C146.48 82.2148 146.129 82.3516 145.699 82.3516C145.27 82.3516 144.84 82.1953 144.41 81.8828C144.02 81.5703 143.824 81.082 143.824 80.418C143.824 80.3398 143.824 80.2812 143.824 80.2422C143.863 80.2031 143.883 80.1445 143.883 80.0664C144.156 76.9023 144.527 74.1094 144.996 71.6875C145.504 69.2656 146.031 67.1758 146.578 65.418C145.992 65.6133 145.387 65.8086 144.762 66.0039C144.137 66.1992 143.551 66.2969 143.004 66.2969C140.465 66.2969 138.648 65.6523 137.555 64.3633C136.461 63.0352 135.914 61.3555 135.914 59.3242C135.914 57.918 136.168 56.7461 136.676 55.8086C137.223 54.832 137.906 54.0508 138.727 53.4648C139.547 52.8398 140.465 52.3906 141.48 52.1172C142.496 51.8438 143.492 51.707 144.469 51.707C144.938 51.707 145.426 51.7266 145.934 51.7656C146.441 51.8047 146.91 51.9023 147.34 52.0586C147.809 52.1758 148.18 52.3516 148.453 52.5859C148.727 52.8203 148.863 53.1328 148.863 53.5234C148.863 53.9922 148.727 54.4219 148.453 54.8125C148.18 55.2031 147.887 55.3984 147.574 55.3984C147.496 55.3984 147.301 55.3789 146.988 55.3398C146.715 55.3008 146.402 55.2617 146.051 55.2227C145.738 55.1445 145.406 55.0859 145.055 55.0469C144.703 55.0078 144.43 54.9883 144.234 54.9883C143.727 54.9883 143.18 55.0664 142.594 55.2227C142.047 55.3789 141.52 55.6328 141.012 55.9844C140.543 56.3359 140.133 56.8047 139.781 57.3906C139.469 57.9375 139.312 58.6211 139.312 59.4414C139.312 60.7305 139.625 61.6289 140.25 62.1367C140.914 62.6445 141.578 62.8984 142.242 62.8984C142.75 62.8984 143.277 62.8594 143.824 62.7812C144.371 62.6641 144.898 62.5273 145.406 62.3711C145.914 62.2148 146.363 62.0586 146.754 61.9023C147.184 61.707 147.516 61.5117 147.75 61.3164C147.867 61.082 148.004 60.75 148.16 60.3203C148.316 59.8516 148.473 59.3633 148.629 58.8555C148.824 58.3086 149 57.7812 149.156 57.2734C149.352 56.7266 149.508 56.2773 149.625 55.9258Z" fill="black"/>
<path d="M15.4727 112.48C14.3008 112.48 13.2852 112.07 12.4258 111.25C11.5664 110.391 11.1367 109.316 11.1367 108.027C11.1367 107.324 11.2539 106.68 11.4883 106.094C11.7617 105.469 12.0938 104.941 12.4844 104.512C12.9141 104.082 13.3633 103.75 13.832 103.516C14.3008 103.281 14.7695 103.164 15.2383 103.164C15.8633 103.164 16.4688 103.301 17.0547 103.574C17.6797 103.809 18.207 104.141 18.6367 104.57C19.1055 105 19.4766 105.508 19.75 106.094C20.0234 106.68 20.1602 107.324 20.1602 108.027C20.1602 108.73 20.0039 109.355 19.6914 109.902C19.418 110.449 19.0469 110.918 18.5781 111.309C18.1484 111.66 17.6602 111.953 17.1133 112.188C16.5664 112.383 16.0195 112.48 15.4727 112.48ZM15.8242 106.27H15.3555C15.043 106.387 14.7695 106.602 14.5352 106.914C14.3008 107.188 14.1836 107.559 14.1836 108.027C14.1836 109.121 14.6133 109.668 15.4727 109.668C15.9805 109.668 16.3711 109.512 16.6445 109.199C16.957 108.848 17.1523 108.457 17.2305 108.027C17.2305 107.598 17.1328 107.188 16.9375 106.797C16.7812 106.406 16.5078 106.211 16.1172 106.211C16.0391 106.211 15.9805 106.23 15.9414 106.27C15.9414 106.27 15.9023 106.27 15.8242 106.27ZM15.4727 128.77C14.3008 128.73 13.2852 128.281 12.4258 127.422C11.5664 126.562 11.1367 125.488 11.1367 124.199C11.1367 123.496 11.2539 122.852 11.4883 122.266C11.7617 121.641 12.0938 121.113 12.4844 120.684C12.9141 120.254 13.3633 119.922 13.832 119.688C14.3008 119.453 14.7695 119.336 15.2383 119.336C16.5273 119.336 17.6602 119.805 18.6367 120.742C19.6523 121.641 20.1602 122.793 20.1602 124.199C20.1602 124.902 20.0039 125.527 19.6914 126.074C19.418 126.621 19.0469 127.109 18.5781 127.539C18.1484 127.93 17.6602 128.242 17.1133 128.477C16.5664 128.672 16.0195 128.77 15.4727 128.77ZM15.8242 122.441H15.3555C15.043 122.559 14.7695 122.773 14.5352 123.086C14.3008 123.359 14.1836 123.73 14.1836 124.199C14.1836 125.293 14.6133 125.84 15.4727 125.84C15.9805 125.84 16.3711 125.684 16.6445 125.371C16.957 125.02 17.1523 124.629 17.2305 124.199C17.2305 123.77 17.1328 123.359 16.9375 122.969C16.7812 122.578 16.5078 122.383 16.1172 122.383C16.0391 122.383 15.9805 122.402 15.9414 122.441C15.9414 122.441 15.9023 122.441 15.8242 122.441Z" fill="black"/>
<path d="M45.8906 126.426C46.125 126.348 46.3203 126.309 46.4766 126.309C46.6328 126.309 46.7695 126.328 46.8867 126.367C47.0039 126.406 47.1016 126.426 47.1797 126.426C47.3359 126.426 47.4727 126.426 47.5898 126.426C47.7461 126.387 47.8828 126.367 48 126.367C48.8594 126.367 49.582 126.523 50.168 126.836C50.7539 127.109 51.2227 127.48 51.5742 127.949C51.9258 128.379 52.1797 128.887 52.3359 129.473C52.4922 130.02 52.5703 130.566 52.5703 131.113C52.5703 131.699 52.4531 132.266 52.2188 132.812C52.0234 133.398 51.7305 133.906 51.3398 134.336C50.9883 134.805 50.5391 135.176 49.9922 135.449C49.4453 135.762 48.8594 135.918 48.2344 135.918C47.5703 135.918 46.9062 135.801 46.2422 135.566C45.6172 135.332 45.0508 134.98 44.543 134.512C44.0742 134.082 43.6836 133.535 43.3711 132.871C43.0586 132.207 42.9023 131.465 42.9023 130.645C42.9023 129.668 43.1758 128.789 43.7227 128.008C44.3086 127.188 45.0312 126.66 45.8906 126.426ZM47.2969 129.473H46.8281C46.3594 129.941 46.125 130.488 46.125 131.113C46.125 131.66 46.3203 132.051 46.7109 132.285C47.1406 132.52 47.5703 132.637 48 132.637C48.5859 132.637 48.9961 132.48 49.2305 132.168C49.5039 131.895 49.6406 131.543 49.6406 131.113C49.6406 130.605 49.5039 130.195 49.2305 129.883C48.9961 129.531 48.5078 129.355 47.7656 129.355C47.5312 129.355 47.375 129.395 47.2969 129.473Z" fill="black"/>
<path d="M89.2578 128.301C89.1797 127.793 88.9453 126.719 88.5547 125.078C88.2031 123.398 87.7344 121.504 87.1484 119.395C86.6016 119.473 86.0547 119.512 85.5078 119.512C84.9609 119.512 84.3945 119.512 83.8086 119.512C83.0273 119.512 82.207 119.512 81.3477 119.512C80.4883 119.473 79.707 119.395 79.0039 119.277C78.3008 119.121 77.7148 118.906 77.2461 118.633C76.7773 118.32 76.543 117.891 76.543 117.344C76.543 116.914 76.7188 116.562 77.0703 116.289C77.4609 116.016 78.0078 115.879 78.7109 115.879C80.2734 116.113 81.8359 116.23 83.3984 116.23C83.8672 116.23 84.3359 116.23 84.8047 116.23C85.2734 116.23 85.7422 116.191 86.2109 116.113C85.7422 114.512 85.2539 112.949 84.7461 111.426C84.2383 109.863 83.7305 108.477 83.2227 107.266C82.7539 106.055 82.3047 105.078 81.875 104.336C81.4453 103.594 81.0547 103.223 80.7031 103.223C80.0391 103.223 79.3359 103.828 78.5938 105.039C77.8516 106.25 77.1094 107.773 76.3672 109.609C75.625 111.445 74.9219 113.457 74.2578 115.645C73.5938 117.793 72.9883 119.824 72.4414 121.738C71.9336 123.652 71.5234 125.293 71.2109 126.66C70.8984 127.988 70.7422 128.77 70.7422 129.004C70.6641 129.395 70.4688 129.688 70.1562 129.883C69.8828 130.078 69.5898 130.176 69.2773 130.176C68.8086 130.176 68.3789 130.02 67.9883 129.707C67.5977 129.395 67.4023 128.965 67.4023 128.418C68.4961 123.027 69.7461 118.223 71.1523 114.004C71.7383 112.207 72.3828 110.449 73.0859 108.73C73.7891 106.973 74.5508 105.43 75.3711 104.102C76.1914 102.734 77.0508 101.641 77.9492 100.82C78.8867 100 79.8438 99.5898 80.8203 99.5898C81.8359 99.5898 82.793 100.215 83.6914 101.465C84.6289 102.715 85.5078 104.316 86.3281 106.27C87.1484 108.184 87.8906 110.293 88.5547 112.598C89.2188 114.863 89.8047 117.031 90.3125 119.102C90.8203 121.133 91.2305 122.93 91.543 124.492C91.8555 126.016 92.0703 126.973 92.1875 127.363V127.715C92.1875 128.34 91.9922 128.848 91.6016 129.238C91.25 129.59 90.8594 129.766 90.4297 129.766C90.1172 129.766 89.8438 129.668 89.6094 129.473C89.4141 129.238 89.2969 128.848 89.2578 128.301Z" fill="black"/>
<path d="M110.594 115.293C112.078 115.02 113.367 114.727 114.461 114.414C115.594 114.102 116.531 113.73 117.273 113.301C118.016 112.832 118.562 112.285 118.914 111.66C119.305 110.996 119.5 110.176 119.5 109.199C119.5 108.379 119.188 107.637 118.562 106.973C117.938 106.309 117.117 105.742 116.102 105.273C115.086 104.805 113.914 104.453 112.586 104.219C111.258 103.984 109.871 103.867 108.426 103.867C108.074 103.867 107.723 103.867 107.371 103.867C107.02 103.867 106.648 103.887 106.258 103.926C106.492 105.215 106.648 106.68 106.727 108.32C106.844 109.961 106.902 111.66 106.902 113.418C106.902 114.902 106.863 116.406 106.785 117.93C106.746 119.453 106.688 120.898 106.609 122.266C106.531 123.594 106.414 124.824 106.258 125.957C106.141 127.051 106.023 127.949 105.906 128.652C105.789 129.199 105.555 129.609 105.203 129.883C104.891 130.156 104.52 130.293 104.09 130.293C103.66 130.293 103.25 130.156 102.859 129.883C102.508 129.609 102.332 129.199 102.332 128.652C102.332 128.457 102.352 128.301 102.391 128.184C102.508 127.207 102.625 126.133 102.742 124.961C102.898 123.75 103.016 122.48 103.094 121.152C103.172 119.824 103.23 118.477 103.27 117.109C103.348 115.703 103.387 114.316 103.387 112.949C103.387 110.723 103.309 108.672 103.152 106.797C102.996 104.883 102.703 103.418 102.273 102.402C102.039 101.895 101.922 101.426 101.922 100.996C101.922 100.449 102.059 100.02 102.332 99.707C102.605 99.3555 102.957 99.1797 103.387 99.1797C104.129 99.1797 104.773 99.6289 105.32 100.527C105.75 100.488 106.16 100.469 106.551 100.469C106.941 100.469 107.332 100.469 107.723 100.469C109.676 100.469 111.57 100.645 113.406 100.996C115.281 101.348 116.922 101.875 118.328 102.578C119.773 103.281 120.926 104.18 121.785 105.273C122.684 106.367 123.133 107.676 123.133 109.199C123.133 111.895 122.078 114.004 119.969 115.527C117.898 117.051 114.969 118.066 111.18 118.574C111.102 118.574 111.043 118.594 111.004 118.633C111.004 118.633 110.965 118.633 110.887 118.633C110.379 118.633 110.008 118.457 109.773 118.105C109.539 117.715 109.422 117.285 109.422 116.816C109.422 116.504 109.52 116.191 109.715 115.879C109.91 115.566 110.203 115.371 110.594 115.293Z" fill="black"/>
<path d="M144.996 115.996C144.449 116.66 143.824 116.992 143.121 116.992C142.418 116.992 141.715 116.504 141.012 115.527C140.309 114.551 139.625 113.457 138.961 112.246L136.676 108.027C136.559 107.793 136.5 107.559 136.5 107.324C136.5 106.816 136.676 106.367 137.027 105.977C137.418 105.586 137.828 105.391 138.258 105.391C138.648 105.391 139.078 105.762 139.547 106.504C140.016 107.207 140.465 108.008 140.895 108.906C141.363 109.766 141.812 110.566 142.242 111.309C142.672 112.012 143.062 112.363 143.414 112.363C143.648 112.363 143.863 112.207 144.059 111.895C145.699 109.551 147.008 107.695 147.984 106.328C149 104.922 149.781 103.848 150.328 103.105C150.914 102.324 151.305 101.797 151.5 101.523C151.734 101.211 151.91 100.996 152.027 100.879C152.145 100.41 152.359 100.059 152.672 99.8242C153.023 99.5508 153.375 99.4141 153.727 99.4141C154.078 99.4141 154.43 99.5508 154.781 99.8242C155.133 100.098 155.348 100.527 155.426 101.113C155.777 103.223 156.012 105.527 156.129 108.027C156.285 110.488 156.363 113.008 156.363 115.586C156.363 116.992 156.305 118.613 156.188 120.449C156.109 122.246 155.953 123.965 155.719 125.605C155.484 127.207 155.152 128.574 154.723 129.707C154.293 130.84 153.766 131.406 153.141 131.406C152.711 131.406 152.32 131.25 151.969 130.938C151.656 130.625 151.5 130.137 151.5 129.473C151.5 129.16 151.52 128.926 151.559 128.77C152.066 126.543 152.418 124.238 152.613 121.855C152.848 119.434 152.965 117.109 152.965 114.883C152.965 113.164 152.926 111.523 152.848 109.961C152.77 108.398 152.691 106.934 152.613 105.566L148.453 111.484C147.711 112.461 147.027 113.359 146.402 114.18C145.816 115 145.348 115.605 144.996 115.996ZM135.738 103.105C135.543 104.629 135.406 106.445 135.328 108.555C135.25 110.664 135.211 112.891 135.211 115.234C135.211 117.578 135.27 119.902 135.387 122.207C135.543 124.473 135.621 126.484 135.621 128.242C135.621 129.023 135.445 129.59 135.094 129.941C134.781 130.293 134.41 130.469 133.98 130.469C133.629 130.469 133.297 130.312 132.984 130C132.711 129.688 132.535 129.199 132.457 128.535C132.184 126.309 131.988 123.867 131.871 121.211C131.793 118.555 131.754 115.938 131.754 113.359C131.754 111.406 131.773 109.531 131.812 107.734C131.891 105.938 132.027 104.238 132.223 102.637C132.262 101.934 132.477 101.445 132.867 101.172C133.297 100.898 133.727 100.762 134.156 100.762C134.586 100.762 134.957 100.957 135.27 101.348C135.582 101.699 135.738 102.168 135.738 102.754V103.105Z" fill="black"/>
</g>
</svg>
