<svg width="210" height="144" viewBox="0 0 210 144" fill="none" xmlns="http://www.w3.org/2000/svg">
<g clip-path="url(#clip0_100_2)">
<path d="M35.0188 39.4C35.0188 40.9467 34.4588 42.28 33.3388 43.4C32.2721 44.4667 30.9654 45 29.4188 45H12.6188C11.0721 45 9.73875 44.4667 8.61875 43.4C7.55208 42.28 7.01875 40.9467 7.01875 39.4V11.4C7.01875 9.85333 7.55208 8.54666 8.61875 7.48C9.73875 6.36 11.0721 5.8 12.6188 5.8H29.4188C30.9654 5.8 32.2721 6.36 33.3388 7.48C34.4588 8.54666 35.0188 9.85333 35.0188 11.4V39.4ZM28.6188 39.4V11.4H13.4188V39.4H28.6188Z" fill="black"/>
<path d="M77.0188 45H49.0188V39.4H65.0188V12.6H64.2188L51.4188 25.4L47.4188 21.32L62.9388 5.8H71.4188V39.4H77.0188V45Z" fill="black"/>
<path d="M119.019 45H91.0188V36.6L112.619 20.76V11.4H97.4188V17H91.0188V11.4C91.0188 9.85333 91.5521 8.54666 92.6188 7.48C93.7388 6.36 95.0721 5.8 96.6188 5.8H113.419C114.965 5.8 116.272 6.36 117.339 7.48C118.459 8.54666 119.019 9.85333 119.019 11.4V23L97.8188 38.6V39.4H119.019V45Z" fill="black"/>
<path d="M161.019 39.4C161.019 40.9467 160.459 42.28 159.339 43.4C158.272 44.4667 156.965 45 155.419 45H138.619C137.072 45 135.739 44.4667 134.619 43.4C133.552 42.28 133.019 40.9467 133.019 39.4V33.8H139.419V39.4H154.619V28.2H144.219V23.56L155.419 12.2V11.4H133.019V5.8H161.019V13.88L152.299 22.6V23.4C152.299 23.3467 152.592 23.32 153.179 23.32C153.445 23.32 153.765 23.32 154.139 23.32C154.512 23.32 154.939 23.3467 155.419 23.4C156.965 23.4533 158.272 24.04 159.339 25.16C160.459 26.2267 161.019 27.5067 161.019 29V39.4Z" fill="black"/>
<path d="M203.819 5.8L180.619 28.68V33.8H196.619V20.2L203.019 13.8V45H196.619V39.4H175.019V28.52C175.019 27.88 175.019 27.3733 175.019 27C175.072 26.6267 175.152 26.3067 175.259 26.04C175.365 25.72 175.525 25.4533 175.739 25.24C175.952 24.9733 176.219 24.6533 176.539 24.28L194.859 5.8H203.819Z" fill="black"/>
<path d="M35.0188 87.4C35.0188 88.9467 34.4588 90.28 33.3388 91.4C32.2721 92.4667 30.9654 93 29.4188 93H12.6188C11.0721 93 9.73875 92.4667 8.61875 91.4C7.55208 90.28 7.01875 88.9467 7.01875 87.4V81.8H13.4188V87.4H28.6188V71.4H7.01875V53.8H35.0188V59.4H12.6188V65.8H29.4188C30.9654 65.8 32.2721 66.36 33.3388 67.48C34.4588 68.5467 35.0188 69.8533 35.0188 71.4V87.4Z" fill="black"/>
<path d="M77.8188 87.4C77.8188 88.9467 77.2588 90.28 76.1388 91.4C75.0721 92.4667 73.7654 93 72.2188 93H54.6188C53.0721 93 51.7388 92.4667 50.6188 91.4C49.5521 90.28 49.0188 88.9467 49.0188 87.4V59.4C49.0188 57.8533 49.5521 56.5467 50.6188 55.48C51.7388 54.36 53.0721 53.8 54.6188 53.8H77.0188V59.4H55.4188V69.8H72.2188C73.7654 69.8 75.0721 70.36 76.1388 71.48C77.2588 72.5467 77.8188 73.8533 77.8188 75.4V87.4ZM71.4188 87.4V75.4H55.4188V87.4H71.4188Z" fill="black"/>
<path d="M119.019 74.68L100.619 93H92.4588L112.619 72.76V59.4H97.4188V65H91.0188V53.8H119.019V74.68Z" fill="black"/>
<path d="M161.819 87.4C161.819 88.9467 161.259 90.28 160.139 91.4C159.072 92.4667 157.765 93 156.219 93H137.819C136.272 93 134.939 92.4667 133.819 91.4C132.752 90.28 132.219 88.9467 132.219 87.4V75.4C132.219 74.0667 132.645 72.9467 133.499 72.04C134.405 71.1333 135.579 70.68 137.019 70.68V59.4C137.019 57.8533 137.445 56.5467 138.299 55.48C139.152 54.36 140.325 53.8 141.819 53.8H152.219C153.712 53.8 154.885 54.36 155.739 55.48C156.592 56.5467 157.019 57.8533 157.019 59.4V70.68C158.459 70.68 159.605 71.1333 160.459 72.04C161.365 72.8933 161.819 74.0133 161.819 75.4V87.4ZM151.819 70.6V59.4H142.219V70.6H151.819ZM155.419 87.4V75.4H138.619V87.4H155.419Z" fill="black"/>
<path d="M173.019 59.4C173.019 57.8533 173.552 56.5467 174.619 55.48C175.739 54.36 177.072 53.8 178.619 53.8H196.219C197.765 53.8 199.072 54.36 200.139 55.48C201.259 56.5467 201.819 57.8533 201.819 59.4V87.4C201.819 88.9467 201.259 90.28 200.139 91.4C199.072 92.4667 197.765 93 196.219 93H173.819V87.4H195.419V77H178.619C177.072 77 175.739 76.4667 174.619 75.4C173.552 74.28 173.019 72.9467 173.019 71.4V59.4ZM179.419 59.4V71.4H195.419V59.4H179.419Z" fill="black"/>
<path d="M24.6613 141H17.4613V134.6H24.6613V141ZM24.6613 119.4H17.4613V113H24.6613V119.4Z" fill="black"/>
<path d="M66.6 141H59.4V134.6H66.6V141Z" fill="black"/>
<path d="M121.816 141H115.416V129.8H94.6156V141H88.2156V107.4C88.2156 105.853 88.749 104.547 89.8156 103.48C90.9356 102.36 92.269 101.8 93.8156 101.8H121.816V141ZM115.416 124.2V107.4H94.6156V129L99.4156 124.2H115.416Z" fill="black"/>
<path d="M164.402 124.2C164.402 125.693 163.842 127 162.722 128.12C161.602 129.24 160.295 129.8 158.802 129.8H137.202V141H130.802V113L136.402 107.4H130.802V101.8H158.802C160.295 101.8 161.602 102.36 162.722 103.48C163.842 104.6 164.402 105.907 164.402 107.4V124.2ZM158.002 124.2V107.4H137.202V129L142.002 124.2H158.002Z" fill="black"/>
<path d="M208.603 140.92H202.203V111.48L204.603 107.48H201.003L191.163 129.8H186.523L177.003 107.48H173.403L175.803 111.48V140.92H169.403V101.8H180.843L188.763 120.52H189.563L197.483 101.8H208.603V140.92Z" fill="black"/>
</g>
</svg>
