<svg width="210" height="144" viewBox="0 0 210 144" fill="none" xmlns="http://www.w3.org/2000/svg">
<desc>{"colon":0.5,"dot":0.5}</desc>
<g clip-path="url(#clip0_100_2)">
<path d="M32.5773 9.904C33.9853 12.08 35.1159 14.576 35.9693 17.392C36.8226 20.1653 37.2493 23.0027 37.2493 25.904C37.2493 29.36 36.6519 32.6453 35.4573 35.76C34.3053 38.8747 32.5559 41.4133 30.2093 43.376C27.9053 45.3387 25.0893 46.32 21.7613 46.32C18.6466 46.32 15.7879 45.5307 13.1853 43.952C10.5826 42.3307 8.61992 40.4533 7.29725 38.32C6.31592 36.7413 5.56925 34.9707 5.05725 33.008C4.54525 31.0027 4.28925 28.9973 4.28925 26.992C4.28925 23.4933 5.01458 20.08 6.46525 16.752C7.95858 13.424 10.0066 10.7573 12.6093 8.752C15.0839 6.91733 17.9213 6 21.1213 6C24.6626 6 28.4813 7.30133 32.5773 9.904ZM15.4253 14.32C15.0413 14.96 14.6573 15.536 14.2733 16.048C13.3346 17.456 12.6519 18.6507 12.2253 19.632C11.7986 20.5707 11.4146 22.0213 11.0733 23.984C10.9026 24.88 10.8173 25.9253 10.8173 27.12C10.8173 30.1493 11.4146 32.7733 12.6093 34.992C13.8466 37.168 15.5319 38.64 17.6653 39.408C18.6893 39.792 19.8413 39.984 21.1213 39.984C24.3213 39.984 26.7319 38.576 28.3533 35.76C30.0173 32.9013 30.8493 29.3813 30.8493 25.2C30.8493 21.3173 30.1239 18.1387 28.6733 15.664C27.2226 13.1467 24.9826 11.888 21.9533 11.888C20.7159 11.888 19.6493 12.08 18.7533 12.464C17.8999 12.848 16.7906 13.4667 15.4253 14.32Z" fill="black"/>
<path d="M68.1883 12.336C67.7616 20.6987 67.5483 27.3547 67.5483 32.304C67.5483 34.864 67.6123 37.296 67.7403 39.6C68.0816 39.856 68.7429 39.984 69.7243 39.984L71.1963 39.92C71.7936 39.8347 72.3483 39.792 72.8603 39.792C73.9696 39.792 74.8229 39.984 75.4203 40.368C76.0603 40.752 76.3803 41.4987 76.3803 42.608C76.3803 43.6747 76.0603 44.5067 75.4203 45.104C74.8229 45.7013 73.5643 46 71.6443 46C70.0229 46 68.0603 45.872 65.7563 45.616C65.2016 45.5733 64.6683 45.5307 64.1562 45.488C63.6443 45.4453 63.1749 45.424 62.7483 45.424C60.4016 45.4667 58.6523 45.552 57.5003 45.68C56.3483 45.808 55.0469 45.872 53.5963 45.872C52.2736 45.872 51.6123 44.8693 51.6123 42.864C51.6123 40.944 52.8496 39.984 55.3243 39.984C55.7083 39.984 56.3269 40.0267 57.1803 40.112C57.9056 40.24 58.6736 40.304 59.4843 40.304C59.9536 40.304 60.3376 40.2827 60.6363 40.24C60.6789 37.3813 60.8283 33.2213 61.0843 27.76C61.3403 21.36 61.4683 16.624 61.4683 13.552C61.2549 13.5947 60.5083 13.8933 59.2283 14.448C57.2656 15.4293 55.8149 15.92 54.8763 15.92C54.3643 15.92 53.8949 15.664 53.4683 15.152C53.0416 14.5973 52.8283 13.9573 52.8283 13.232C52.8283 12.5067 53.2763 11.8027 54.1723 11.12C55.0683 10.4373 56.5189 9.54133 58.5243 8.432C59.6336 7.87733 60.7003 7.25866 61.7243 6.576C61.9803 6.40533 62.3429 6.23467 62.8123 6.064C63.3243 5.89333 63.7083 5.808 63.9643 5.808C65.0736 5.808 66.0763 6.04266 66.9722 6.512C67.9109 6.93866 68.3803 7.51466 68.3803 8.24L68.1883 12.336Z" fill="black"/>
<path d="M100.38 39.344C101.831 39.4293 102.791 39.472 103.26 39.472C104.711 39.472 105.991 39.4507 107.1 39.408C108.252 39.3653 109.234 39.3227 110.044 39.28C112.135 39.152 114.012 39.088 115.676 39.088C117.298 39.088 118.492 39.5147 119.26 40.368C120.028 41.2213 120.412 42.352 120.412 43.76C120.412 44.4427 119.964 44.9973 119.068 45.424C118.172 45.808 117.255 46 116.316 46C115.506 46 113.82 45.9147 111.26 45.744C108.188 45.488 105.778 45.36 104.028 45.36C103.09 45.36 101.98 45.424 100.7 45.552C100.188 45.5947 99.5696 45.6373 98.8443 45.68C98.1189 45.7227 97.3083 45.744 96.4123 45.744C94.7056 45.744 93.4043 45.5093 92.5083 45.04C91.6123 44.5707 91.1643 43.7173 91.1643 42.48C91.1643 41.4133 91.5909 40.3253 92.4443 39.216C93.2976 38.1067 94.4923 36.784 96.0283 35.248L97.5642 33.712C98.2469 32.9867 99.5056 31.7493 101.34 30C104.37 27.2693 106.716 24.8587 108.38 22.768C110.087 20.6773 110.94 18.608 110.94 16.56C110.94 15.2373 110.3 14.1707 109.02 13.36C107.783 12.5067 106.354 12.08 104.732 12.08C102.258 12.08 100.466 12.6347 99.3563 13.744C98.2896 14.8107 97.7563 16.368 97.7563 18.416C97.7563 18.928 97.4576 19.3973 96.8603 19.824C96.3056 20.208 95.6016 20.4 94.7483 20.4C93.5536 20.4 92.7216 19.9733 92.2523 19.12C91.7829 18.2667 91.5483 17.2213 91.5483 15.984C91.5483 14.0213 92.1456 12.2933 93.3403 10.8C94.5349 9.264 96.1563 8.06933 98.2043 7.216C100.295 6.36266 102.599 5.936 105.116 5.936C106.908 5.936 108.764 6.384 110.684 7.28C112.647 8.13333 114.268 9.30666 115.548 10.8C116.871 12.2507 117.532 13.8507 117.532 15.6C117.532 18.2453 116.871 20.7627 115.548 23.152C114.226 25.5413 112.668 27.6747 110.876 29.552C109.127 31.3867 106.844 33.5627 104.028 36.08C102.663 37.232 101.447 38.32 100.38 39.344Z" fill="black"/>
<path d="M149.723 20.4C153.221 21.168 156.123 22.6827 158.427 24.944C160.731 27.2053 161.882 29.8293 161.882 32.816C161.882 34.608 161.456 36.3573 160.603 38.064C159.237 40.7947 157.189 42.8427 154.459 44.208C151.771 45.5733 148.656 46.256 145.115 46.256C142.896 46.256 140.912 45.8507 139.163 45.04C137.413 44.1867 135.685 43.056 133.979 41.648C133.339 41.0507 132.763 40.1973 132.251 39.088C131.781 37.9787 131.547 37.0613 131.547 36.336C131.547 35.3973 131.803 34.6507 132.315 34.096C132.869 33.4987 133.595 33.2 134.491 33.2C135.387 33.2 136.091 33.4133 136.603 33.84C137.115 34.2667 137.733 34.9493 138.459 35.888C139.141 36.784 139.76 37.5093 140.315 38.064C140.869 38.576 141.616 39.024 142.555 39.408C143.493 39.792 144.667 39.984 146.075 39.984C148.933 39.984 151.173 39.28 152.795 37.872C154.416 36.464 155.227 34.48 155.227 31.92C155.227 30.9387 154.693 29.9573 153.627 28.976C152.56 27.952 151.557 27.2267 150.619 26.8C150.064 26.5013 149.04 26.2027 147.547 25.904C145.541 25.392 144.027 24.9013 143.003 24.432C142.021 23.92 141.531 23.1307 141.531 22.064C141.531 21.3387 141.851 20.6347 142.491 19.952C143.131 19.2267 144.091 18.3307 145.371 17.264C146.651 16.1973 147.611 15.3227 148.251 14.64C148.891 13.9147 149.211 13.1893 149.211 12.464C148.4 12.2507 147.184 12.144 145.562 12.144C144.837 12.144 143.749 12.1867 142.299 12.272C141.019 12.3573 140.037 12.4 139.355 12.4C137.819 12.4 136.496 12.144 135.387 11.632C134.32 11.12 133.786 10.4587 133.786 9.648C133.786 8.752 133.872 8.048 134.043 7.536C134.213 6.98133 134.533 6.64 135.003 6.512C135.301 6.384 135.835 6.32 136.603 6.32C138.693 6.32 140.507 6.384 142.043 6.512C143.749 6.59733 145.051 6.64 145.947 6.64L151.259 6.576C155.611 6.576 157.787 7.62133 157.787 9.712C157.787 11.2907 156.976 13.0827 155.355 15.088C153.776 17.0507 151.899 18.8213 149.723 20.4Z" fill="black"/>
<path d="M184.885 7.6C184.885 9.69067 184.501 12.1227 183.733 14.896C183.008 17.6267 181.941 20.9973 180.533 25.008L179.061 29.424C179.787 29.552 180.533 29.616 181.301 29.616C182.624 29.616 184.608 29.488 187.253 29.232C189.899 28.976 191.797 28.848 192.949 28.848L192.885 21.808C192.8 16.944 192.757 13.36 192.757 11.056C192.757 8.02666 193.76 6.512 195.765 6.512C197.344 6.512 198.347 6.91733 198.773 7.728C199.243 8.53866 199.477 9.75466 199.477 11.376C199.477 13.04 199.349 15.6213 199.093 19.12C199.051 19.8027 198.987 20.9333 198.901 22.512C198.816 24.0907 198.773 25.456 198.773 26.608L198.837 28.656L200.117 28.592C201.141 28.5067 201.931 28.464 202.485 28.464C203.509 28.464 204.491 28.8053 205.429 29.488C206.368 30.128 206.837 30.896 206.837 31.792C206.837 32.8587 206.667 33.6907 206.325 34.288C206.027 34.8853 205.664 35.184 205.237 35.184C204.512 35.184 203.595 35.0987 202.485 34.928C202.229 34.928 201.845 34.9067 201.333 34.864C200.821 34.7787 200.331 34.736 199.861 34.736L198.773 34.8L198.837 43.44C198.837 44.336 198.539 45.0187 197.941 45.488C197.344 45.9573 196.661 46.192 195.893 46.192C194.955 46.192 194.123 45.8933 193.397 45.296C192.672 44.6987 192.309 43.952 192.309 43.056C192.309 40.1973 192.352 37.9573 192.437 36.336C192.48 35.952 192.501 35.4827 192.501 34.928C191.221 34.8853 189.003 35.0347 185.845 35.376C182.859 35.7173 180.597 35.888 179.061 35.888C177.099 35.888 175.435 35.6107 174.069 35.056C172.747 34.5013 172.085 33.6267 172.085 32.432C172.085 31.28 172.32 29.872 172.789 28.208C173.259 26.544 173.963 24.304 174.901 21.488C175.328 20.3787 175.648 19.4613 175.861 18.736C176.629 16.56 177.205 14.7253 177.589 13.232C177.973 11.696 178.4 9.84 178.869 7.664C179.04 6.98133 179.403 6.46933 179.957 6.128C180.512 5.78666 181.152 5.616 181.877 5.616C182.645 5.616 183.328 5.808 183.925 6.192C184.565 6.53333 184.885 7.00267 184.885 7.6Z" fill="black"/>
<path d="M16.3475 60.464C16.0488 61.6587 15.8568 63.2373 15.7715 65.2C15.6862 66.9067 15.5582 68.1867 15.3875 69.04C16.6248 68.528 17.7982 68.208 18.9075 68.08C20.0168 67.9093 21.4248 67.824 23.1315 67.824C25.7768 67.824 28.0808 68.4427 30.0435 69.68C32.0062 70.8747 33.4995 72.496 34.5235 74.544C35.5475 76.5493 36.0595 78.704 36.0595 81.008C36.0595 81.904 35.7608 83.12 35.1635 84.656C34.5662 86.1493 33.9475 87.3013 33.3075 88.112C31.8142 90.0747 30.0862 91.5893 28.1235 92.656C26.1608 93.68 24.0275 94.192 21.7235 94.192C19.9742 94.192 18.3742 93.9573 16.9235 93.488C15.5155 92.976 14.0008 92.2933 12.3795 91.44C10.7155 90.544 9.4995 89.6267 8.7315 88.688C8.00617 87.7067 7.6435 86.4907 7.6435 85.04C7.6435 84.272 7.9635 83.6533 8.6035 83.184C9.28617 82.672 9.92617 82.416 10.5235 82.416C10.9075 82.416 11.2488 82.5227 11.5475 82.736C11.8462 82.9493 12.3368 83.376 13.0195 84.016L14.6195 85.552C15.6435 86.4053 16.6462 87.0453 17.6275 87.472C18.6515 87.8987 19.8888 88.112 21.3395 88.112C22.6622 88.112 23.7288 87.9413 24.5395 87.6C26.1608 86.96 27.4195 86.128 28.3155 85.104C29.2542 84.08 29.7235 82.4373 29.7235 80.176C29.7235 78 28.9982 76.3147 27.5475 75.12C26.0968 73.8827 23.6435 73.264 20.1875 73.264C19.7182 73.264 19.0355 73.392 18.1395 73.648C17.2435 73.904 16.3688 74.1813 15.5155 74.48C13.4675 75.1627 12.2088 75.504 11.7395 75.504C11.1422 75.504 10.5448 75.248 9.9475 74.736C9.35017 74.224 9.0515 73.5413 9.0515 72.688C9.8195 67.5253 10.2035 63.2373 10.2035 59.824L10.1395 58.224C10.0542 57.456 10.0115 56.816 10.0115 56.304C10.0115 55.536 10.4168 54.96 11.2275 54.576C12.0808 54.1493 12.9555 53.936 13.8515 53.936C14.6195 53.936 16.2835 54.064 18.8435 54.32L21.9155 54.576C22.2995 54.6187 22.8755 54.64 23.6435 54.64L26.0115 54.576C26.4808 54.5333 27.1635 54.512 28.0595 54.512C29.3395 54.512 30.4062 54.704 31.2595 55.088C32.1128 55.472 32.5395 56.0907 32.5395 56.944C32.5395 58.2667 32.3262 59.2267 31.8995 59.824C31.4728 60.4213 30.9822 60.72 30.4275 60.72C29.9155 60.72 29.0622 60.6347 27.8675 60.464C26.2888 60.2933 24.4328 60.208 22.2995 60.208C20.8062 60.208 18.8222 60.2933 16.3475 60.464Z" fill="black"/>
<path d="M66.1585 60.08C64.7078 60.6347 63.4705 61.36 62.4465 62.256C61.4225 63.1093 60.5052 64.1547 59.6945 65.392L58.6705 66.992C57.9025 68.144 57.3265 69.0827 56.9425 69.808C56.5585 70.5333 56.3025 71.3013 56.1745 72.112C58.2652 69.9787 61.2518 68.912 65.1345 68.912C66.7985 68.912 68.5478 69.3813 70.3825 70.32C72.2598 71.2587 73.7745 72.3467 74.9265 73.584C75.6518 74.3947 76.2492 75.632 76.7185 77.296C77.2305 78.96 77.4865 80.7307 77.4865 82.608C77.4865 84.1013 77.0385 85.6373 76.1425 87.216C75.2465 88.752 74.1372 90.096 72.8145 91.248C71.5345 92.4 70.3398 93.1253 69.2305 93.424C67.5238 93.8507 66.0518 94.064 64.8145 94.064C61.9985 94.064 59.3958 93.296 57.0065 91.76C54.6172 90.224 52.7185 88.176 51.3105 85.616C49.9025 83.0133 49.1985 80.1973 49.1985 77.168C49.1985 72.9867 50.2012 68.9973 52.2065 65.2C54.2545 61.36 56.9425 58.2453 60.2705 55.856C60.8252 55.472 61.8065 55.0667 63.2145 54.64C64.6652 54.1707 65.9452 53.936 67.0545 53.936C69.1452 53.936 70.1905 54.768 70.1905 56.432C70.1905 57.4133 69.8278 58.1813 69.1025 58.736C68.4198 59.2907 67.4385 59.7387 66.1585 60.08ZM63.5985 88.176C64.5798 88.176 65.4118 88.1333 66.0945 88.048C66.7772 87.92 67.3958 87.6853 67.9505 87.344C68.8038 86.7467 69.5505 86.0427 70.1905 85.232C70.8732 84.3787 71.2145 83.568 71.2145 82.8C71.2145 79.856 70.4892 77.7867 69.0385 76.592C67.6305 75.3973 65.9665 74.7787 64.0465 74.736C63.0652 74.736 61.9345 75.0133 60.6545 75.568C59.4172 76.08 58.3505 76.7627 57.4545 77.616C56.6012 78.4693 56.1745 79.3013 56.1745 80.112C56.1745 81.9467 56.5585 83.4827 57.3265 84.72C58.1372 85.9147 59.1185 86.7893 60.2705 87.344C61.4225 87.8987 62.5318 88.176 63.5985 88.176Z" fill="black"/>
<path d="M119.397 56.624C118.842 59.2267 118.138 61.808 117.285 64.368C116.474 66.928 115.429 69.872 114.149 73.2C111.973 79.0453 110.437 83.76 109.541 87.344C108.816 89.776 108.133 91.5253 107.493 92.592C106.853 93.6587 106.106 94.192 105.253 94.192C104.57 94.192 103.653 93.7867 102.501 92.976C102.202 92.592 102.053 92.0587 102.053 91.376C102.053 90.8213 102.202 90.0107 102.501 88.944C102.8 87.8347 103.162 86.6187 103.589 85.296L104.357 82.992C104.912 81.1573 105.85 78.6827 107.173 75.568C108.154 73.1787 109.029 70.8747 109.797 68.656C110.608 66.4373 111.397 63.792 112.165 60.72C109.946 61.4027 107.749 61.744 105.573 61.744C104.506 61.744 102.885 61.5947 100.709 61.296C98.917 61.04 97.637 60.912 96.869 60.912C96.9117 61.552 97.2317 62.768 97.829 64.56C98.5543 66.3947 98.917 67.7813 98.917 68.72C98.917 69.2747 98.725 69.744 98.341 70.128C97.957 70.512 97.3383 70.704 96.485 70.704C95.3757 70.704 94.5223 70.3627 93.925 69.68C93.3703 68.9547 92.901 68.144 92.517 67.248C92.1757 66.3093 91.9197 65.6693 91.749 65.328C91.1517 63.9627 90.6823 62.5547 90.341 61.104C89.9997 59.6107 89.829 58.288 89.829 57.136C89.829 56.4533 89.9997 55.856 90.341 55.344C90.725 54.832 91.1517 54.576 91.621 54.576C92.261 54.6613 93.221 54.832 94.501 55.088C96.549 55.4293 98.2557 55.7067 99.621 55.92C101.029 56.0907 102.522 56.176 104.101 56.176C107.984 56.176 110.97 55.4933 113.061 54.128C113.36 53.9573 113.808 53.872 114.405 53.872C115.514 53.872 116.624 54.1493 117.733 54.704C118.842 55.216 119.397 55.856 119.397 56.624Z" fill="black"/>
<path d="M153.917 72.816C156.519 73.84 158.61 75.2053 160.189 76.912C161.767 78.6187 162.557 80.5813 162.557 82.8C162.557 83.44 162.407 84.2507 162.109 85.232C161.853 86.1707 161.49 86.9813 161.021 87.664C158.205 92.016 153.234 94.192 146.109 94.192C142.397 94.192 139.175 93.4453 136.445 91.952C133.714 90.416 132.349 88.1333 132.349 85.104C132.349 80.7947 135.314 77.104 141.245 74.032C135.698 71.984 132.925 68.9547 132.925 64.944C132.925 62.512 133.607 60.464 134.973 58.8C136.338 57.136 138.13 55.8987 140.349 55.088C142.61 54.2773 145.063 53.872 147.709 53.872C149.671 53.872 151.677 54.3413 153.725 55.28C155.773 56.176 157.181 57.3493 157.949 58.8C158.717 60.4213 159.101 61.936 159.101 63.344C159.101 65.1787 158.717 66.864 157.949 68.4C157.223 69.936 155.879 71.408 153.917 72.816ZM147.261 70.896C148.626 70 149.671 69.2747 150.397 68.72C151.165 68.1227 151.805 67.4187 152.317 66.608C152.871 65.7547 153.149 64.7733 153.149 63.664C153.149 62.384 152.637 61.3173 151.613 60.464C150.589 59.6107 149.351 59.184 147.901 59.184C144.786 59.184 142.61 59.7173 141.373 60.784C140.178 61.8507 139.581 63.1093 139.581 64.56C139.581 65.712 139.965 66.6933 140.733 67.504C141.501 68.272 142.354 68.8907 143.293 69.36C144.274 69.7867 145.597 70.2987 147.261 70.896ZM155.773 82.352C155.773 81.6267 155.303 80.8587 154.365 80.048C153.469 79.2373 152.402 78.5333 151.165 77.936C149.927 77.296 148.882 76.8693 148.029 76.656C146.578 77.2533 144.978 78.2133 143.229 79.536C141.479 80.816 140.413 81.7547 140.029 82.352C139.602 82.9493 139.303 83.4613 139.133 83.888C139.005 84.272 138.941 84.7413 138.941 85.296C138.941 85.936 139.325 86.5547 140.093 87.152C140.861 87.7067 141.778 88.1547 142.845 88.496C143.911 88.8373 144.829 89.008 145.597 89.008C148.626 89.008 151.079 88.4107 152.957 87.216C154.834 85.9787 155.773 84.3573 155.773 82.352Z" fill="black"/>
<path d="M185.69 87.728C187.141 87.2587 188.527 86.4053 189.85 85.168C191.215 83.9307 192.346 82.544 193.242 81.008C194.181 79.4293 194.735 77.9147 194.906 76.464C193.711 77.3173 192.495 77.9147 191.258 78.256C190.021 78.5973 188.591 78.768 186.97 78.768C184.794 78.768 183.002 78.4053 181.594 77.68C180.186 76.912 178.693 75.824 177.114 74.416C176.858 74.16 176.538 73.6053 176.154 72.752C175.77 71.856 175.429 70.768 175.13 69.488C174.831 68.1653 174.682 66.8213 174.682 65.456C174.682 64.2187 175.066 62.9173 175.834 61.552C176.602 60.1867 177.562 58.9707 178.714 57.904C179.909 56.7947 181.039 56.0053 182.106 55.536C183.087 55.1093 184.218 54.7467 185.498 54.448C186.821 54.1067 187.93 53.936 188.826 53.936C191.855 53.936 194.394 54.64 196.442 56.048C198.533 57.456 200.069 59.3333 201.05 61.68C202.031 64.0267 202.522 66.6293 202.522 69.488C202.522 74.3947 201.434 78.8747 199.258 82.928C197.082 86.9387 194.33 90.0533 191.002 92.272C190.447 92.656 189.487 93.0827 188.122 93.552C186.799 93.9787 185.583 94.192 184.474 94.192C183.621 94.192 182.874 93.808 182.234 93.04C181.594 92.272 181.274 91.3973 181.274 90.416C181.274 89.7333 181.509 89.264 181.978 89.008C182.447 88.7093 183.215 88.4107 184.282 88.112L185.69 87.728ZM188.826 59.376C188.143 59.376 187.333 59.5253 186.394 59.824C185.498 60.08 184.73 60.4 184.09 60.784C183.365 61.2107 182.661 61.872 181.978 62.768C181.338 63.6213 181.018 64.2827 181.018 64.752C181.018 70.3413 183.279 73.136 187.802 73.136C188.826 73.136 189.957 72.9227 191.194 72.496C192.474 72.0267 193.541 71.3867 194.394 70.576C195.247 69.7653 195.674 68.848 195.674 67.824C195.674 65.008 195.077 62.896 193.882 61.488C192.73 60.08 191.045 59.376 188.826 59.376Z" fill="black"/>
<path d="M21.1562 122.736C20.0896 122.736 19.1083 122.331 18.2123 121.52C17.3163 120.667 16.8683 119.643 16.8683 118.448C16.8683 118.064 16.9749 117.509 17.1883 116.784C17.4443 115.973 17.8709 115.376 18.4683 114.992C19.0656 114.565 19.7056 114.352 20.3883 114.352C21.5403 114.352 22.6069 114.821 23.5883 115.76C24.5696 116.699 25.0603 117.765 25.0603 118.96C25.0603 119.643 24.8896 120.261 24.5483 120.816C23.7376 122.096 22.6069 122.736 21.1562 122.736ZM20.7083 134.448C22.2016 134.448 23.2896 134.747 23.9723 135.344C24.6976 135.899 25.0603 136.688 25.0603 137.712C25.0603 138.821 24.6976 139.845 23.9723 140.784C23.2896 141.68 22.4149 142.128 21.3483 142.128C19.8549 142.128 18.7456 141.744 18.0203 140.976C17.3376 140.208 16.9963 139.269 16.9963 138.16C16.9963 137.221 17.3163 136.368 17.9563 135.6C18.5963 134.832 19.5136 134.448 20.7083 134.448Z" fill="black"/>
<path d="M67.413 138.48C67.413 139.547 66.9863 140.549 66.133 141.488C65.2797 142.384 64.341 142.832 63.317 142.832C62.1223 142.832 61.0343 142.512 60.053 141.872C59.0717 141.189 58.581 140.336 58.581 139.312C58.581 137.691 58.8797 136.496 59.477 135.728C60.117 134.96 61.0557 134.576 62.293 134.576C63.7437 134.576 64.9597 134.939 65.941 135.664C66.9223 136.347 67.413 137.285 67.413 138.48Z" fill="black"/>
<path d="M118.323 141.04C117.769 140.315 117.299 139.525 116.915 138.672C116.531 137.776 116.126 136.709 115.699 135.472C115.614 135.259 115.358 134.619 114.931 133.552C114.547 132.485 114.099 131.568 113.587 130.8C110.899 131.184 108.702 131.376 106.995 131.376C106.057 131.376 105.011 131.355 103.859 131.312C102.75 131.227 101.918 131.184 101.363 131.184C99.2299 131.013 97.5233 130.928 96.2433 130.928C95.7313 131.611 95.2833 132.336 94.8993 133.104C94.5579 133.872 94.1099 135.024 93.5553 136.56C92.7873 138.779 92.1259 140.357 91.5713 141.296C91.1873 141.936 90.4406 142.256 89.3313 142.256C88.3926 142.256 87.5179 142.064 86.7073 141.68C85.9393 141.253 85.5553 140.677 85.5553 139.952C85.8966 138.331 86.4299 136.624 87.1553 134.832C87.9233 132.997 89.0113 130.565 90.4193 127.536L92.9792 121.264C94.3873 117.68 95.6673 114.608 96.8193 112.048C98.0139 109.488 99.5713 106.459 101.491 102.96C101.747 102.448 102.174 102.021 102.771 101.68C103.369 101.296 104.03 101.104 104.755 101.104C105.566 101.104 106.142 101.168 106.483 101.296C106.867 101.381 107.166 101.552 107.379 101.808C107.593 102.021 107.913 102.491 108.339 103.216C109.79 105.477 111.027 107.803 112.051 110.192C113.118 112.581 114.462 115.888 116.083 120.112L117.427 123.504C118.622 126.576 119.646 129.157 120.499 131.248C121.395 133.296 122.377 135.173 123.443 136.88C124.126 137.989 124.467 138.757 124.467 139.184C124.467 140.208 124.147 140.997 123.507 141.552C122.91 142.064 122.121 142.32 121.139 142.32C119.902 142.32 118.963 141.893 118.323 141.04ZM111.731 125.552C111.049 124.101 110.067 121.584 108.787 118C107.465 114.16 106.142 111.109 104.819 108.848C104.009 110.896 102.814 113.541 101.235 116.784C100.169 118.789 98.9526 121.691 97.5873 125.488C100.318 125.829 103.262 126 106.419 126C108.681 126 110.451 125.851 111.731 125.552Z" fill="black"/>
<path d="M149.135 127.536C147.471 127.536 146.063 127.493 144.911 127.408C143.801 127.28 142.329 127.088 140.495 126.832L140.431 133.552C140.388 134.704 140.367 136.347 140.367 138.48C140.367 139.589 140.047 140.464 139.407 141.104C138.809 141.701 138.127 142 137.359 142C135.951 142 134.905 141.829 134.223 141.488C133.54 141.104 133.199 140.443 133.199 139.504C133.199 138.267 133.305 136.517 133.519 134.256C133.988 129.392 134.223 124.4 134.223 119.28C134.223 114.501 134.073 110 133.775 105.776C133.817 105.179 134.116 104.496 134.671 103.728C135.268 102.96 136.015 102.533 136.911 102.448C137.892 102.448 139.449 102.277 141.583 101.936C143.801 101.595 145.487 101.424 146.639 101.424C150.137 101.424 152.847 101.765 154.767 102.448C156.729 103.131 158.692 104.261 160.655 105.84C162.788 109.168 163.855 111.515 163.855 112.88C163.855 115.739 163.279 118.277 162.127 120.496C160.975 122.715 159.289 124.443 157.071 125.68C154.852 126.917 152.207 127.536 149.135 127.536ZM147.663 106.864C146.297 106.864 145.103 106.949 144.079 107.12C143.097 107.248 141.903 107.483 140.495 107.824C140.665 111.749 140.751 114.608 140.751 116.4C140.751 118.235 140.687 119.771 140.559 121.008C142.393 121.392 143.844 121.648 144.911 121.776C145.977 121.861 147.172 121.904 148.495 121.904C151.652 121.904 153.871 121.093 155.151 119.472C156.473 117.808 157.135 115.888 157.135 113.712C157.135 113.072 156.943 112.283 156.559 111.344C156.175 110.405 155.833 109.787 155.535 109.488C154.383 108.464 153.252 107.781 152.143 107.44C151.076 107.056 149.583 106.864 147.663 106.864Z" fill="black"/>
<path d="M205.38 101.552C205.977 101.552 206.702 101.957 207.556 102.768C208.452 103.536 208.9 104.197 208.9 104.752C208.9 107.355 208.814 110.917 208.644 115.44C208.601 116.549 208.558 117.893 208.516 119.472C208.473 121.008 208.452 122.8 208.452 124.848C208.452 131.333 208.836 136.112 209.604 139.184C209.561 140.208 209.156 140.955 208.388 141.424C207.62 141.851 206.852 142.064 206.084 142.064C204.377 142.064 203.246 141.467 202.692 140.272C202.18 139.077 201.924 137.371 201.924 135.152C201.924 126.917 202.009 119.344 202.18 112.432C197.273 117.893 193.454 122.48 190.724 126.192C190.724 126.192 190.34 126.448 189.572 126.96C188.846 127.6 188.249 127.92 187.78 127.92C186.67 127.92 185.753 127.643 185.028 127.088C184.302 126.533 183.598 125.723 182.916 124.656L179.844 120.304C177.71 117.317 176.153 115.056 175.172 113.52C175.172 117.445 175.364 122.779 175.748 129.52C176.046 133.403 176.196 136.325 176.196 138.288C176.196 139.312 175.94 140.187 175.428 140.912C174.916 141.595 174.105 141.936 172.996 141.936C171.886 141.936 170.969 141.723 170.244 141.296C169.561 140.869 169.198 140.229 169.156 139.376C169.198 138.651 169.22 137.456 169.22 135.792C169.22 132.464 169.113 128.411 168.9 123.632L168.772 120.176L168.644 115.696C168.601 114.373 168.558 112.837 168.516 111.088C168.473 109.296 168.452 107.355 168.452 105.264C168.452 102.704 169.838 101.424 172.612 101.424C173.465 101.424 174.318 101.637 175.172 102.064C176.068 102.491 176.729 103.109 177.156 103.92C177.497 105.413 178.756 107.888 180.932 111.344C183.108 114.8 185.241 118.043 187.332 121.072C189.209 118.683 190.745 116.891 191.94 115.696C193.988 113.605 195.673 111.664 196.996 109.872C198.361 108.08 199.833 105.925 201.412 103.408C201.796 102.896 202.35 102.469 203.076 102.128C203.801 101.744 204.569 101.552 205.38 101.552Z" fill="black"/>
</g>
</svg>
