<svg width="190" height="144" viewBox="0 0 190 144" fill="none" xmlns="http://www.w3.org/2000/svg">
<desc>{"colon":0.5,"dot":0.5}</desc>
<g clip-path="url(#clip0_100_2)">
<path d="M24.7251 47H13.2651C10.5851 44.32 8.64508 41.16 7.44508 37.52C6.28508 33.88 5.70508 30.24 5.70508 26.6C5.70508 17.28 8.22508 10.08 13.2651 5H24.7251C27.3651 7.68 29.2851 10.84 30.4851 14.48C31.6851 18.08 32.2851 21.68 32.2851 25.28C32.2851 34.72 29.7651 41.96 24.7251 47ZM21.6051 12.2H16.4451C14.6851 15.8 13.8051 20.38 13.8051 25.94C13.8051 31.5 14.6651 36.2 16.3851 40.04H21.6651C23.3851 35.64 24.2451 30.8 24.2451 25.52C24.2451 20.24 23.3651 15.8 21.6051 12.2Z" fill="black"/>
<path d="M53.8453 47V12.2H49.0453V5H62.2453V47H53.8453Z" fill="black"/>
<path d="M85.1844 41L97.1244 12.62L96.9444 12.2H86.4444V5H99.4044C102.884 6.48 104.624 8.84 104.624 12.08C104.624 13.84 104.184 15.84 103.304 18.08C103.064 18.76 102.864 19.32 102.704 19.76C102.544 20.2 102.284 20.84 101.924 21.68C101.564 22.48 101.304 23.08 101.144 23.48C100.464 25.04 99.8244 26.48 99.2244 27.8L93.8244 40.04H104.324V47H85.1844V41Z" fill="black"/>
<path d="M134.525 22.34V22.64C140.005 24.36 142.745 28.1 142.745 33.86C142.745 36.78 141.965 39.4 140.405 41.72C138.885 44.04 137.185 45.8 135.305 47H121.625V40.04H131.945C132.425 39.6 132.965 38.72 133.565 37.4C134.165 36.08 134.465 34.74 134.465 33.38C134.465 30.86 133.565 29 131.765 27.8H126.905V21.26L134.165 12.86L133.865 12.2H121.865V5H136.325C139.725 6.44 141.425 8.72 141.425 11.84C141.425 14.24 140.325 16.54 138.125 18.74L134.525 22.34Z" fill="black"/>
<path d="M175.665 5L166.005 30.8H174.885V19.88H182.685V47H174.885V38.3H163.785C160.305 36.5 158.565 33.72 158.565 29.96C158.565 28.24 159.525 24.98 161.445 20.18L167.445 5H175.665Z" fill="black"/>
<path d="M20.8192 67.94H25.3792C28.3792 69.98 29.8792 72.58 29.8792 75.74C29.8792 77.66 29.1992 79.8 27.8392 82.16C27.4392 82.88 26.7392 84 25.7392 85.52L19.5592 95H10.2592L22.4392 75.74L22.2592 75.2H8.39922V53H28.0792V60.2H16.3792V68.72C17.5792 68.2 19.0592 67.94 20.8192 67.94Z" fill="black"/>
<path d="M59.7166 75.92H54.1366C53.1766 77.92 52.6966 79.68 52.6966 81.2C52.6966 82.68 52.8766 84.06 53.2366 85.34C53.5966 86.62 53.9966 87.52 54.4366 88.04H59.6566C60.7366 86.16 61.2766 84.04 61.2766 81.68C61.2766 79.28 60.7566 77.36 59.7166 75.92ZM59.2966 68.96H62.4166C64.6966 70.12 66.4566 71.84 67.6966 74.12C68.9766 76.36 69.6166 78.66 69.6166 81.02C69.6166 86.66 67.3766 91.32 62.8966 95H51.3766C46.8166 91.76 44.5366 87.1 44.5366 81.02C44.5366 78.98 44.8366 76.78 45.4366 74.42C46.0766 72.06 46.7166 70.1 47.3566 68.54C48.0366 66.98 48.9566 65 50.1166 62.6L54.4366 53H62.7766L54.9766 70.34C56.4566 69.42 57.8966 68.96 59.2966 68.96Z" fill="black"/>
<path d="M84.9779 95L97.0379 60.2H84.4379V53H105.858V58.58L93.4379 95H84.9779Z" fill="black"/>
<path d="M138.601 95H127.561C125.401 94.08 123.581 92.56 122.101 90.44C120.621 88.32 119.881 85.9 119.881 83.18C119.881 78.78 121.581 75.46 124.981 73.22V72.98C122.261 70.66 120.901 67.76 120.901 64.28C120.901 61.64 121.641 59.32 123.121 57.32C124.641 55.28 126.441 53.84 128.521 53H137.581C139.661 53.84 141.421 55.24 142.861 57.2C144.341 59.16 145.081 61.46 145.081 64.1C145.081 67.58 143.701 70.5 140.941 72.86V73.1C144.381 75.38 146.101 78.66 146.101 82.94C146.101 85.62 145.341 88.08 143.821 90.32C142.341 92.52 140.601 94.08 138.601 95ZM130.321 77.12C128.921 78.28 128.221 79.98 128.221 82.22C128.221 83.46 128.441 84.64 128.881 85.76C129.361 86.88 129.881 87.64 130.441 88.04H135.541C136.101 87.64 136.601 86.88 137.041 85.76C137.521 84.64 137.761 83.46 137.761 82.22C137.761 79.98 137.061 78.28 135.661 77.12H130.321ZM130.681 60.2C130.121 60.6 129.621 61.26 129.181 62.18C128.741 63.06 128.521 64.04 128.521 65.12C128.521 67.12 129.221 68.78 130.621 70.1H135.361C136.761 68.78 137.461 67.12 137.461 65.12C137.461 64.04 137.241 63.06 136.801 62.18C136.361 61.26 135.861 60.6 135.301 60.2H130.681Z" fill="black"/>
<path d="M168.367 72.08H173.947C174.907 70.08 175.387 68.34 175.387 66.86C175.387 65.34 175.207 63.98 174.847 62.78C174.527 61.58 174.147 60.72 173.707 60.2H168.427C167.347 61.92 166.807 63.98 166.807 66.38C166.807 68.74 167.327 70.64 168.367 72.08ZM168.787 79.04H165.667C163.387 77.88 161.607 76.18 160.327 73.94C159.087 71.66 158.467 69.34 158.467 66.98C158.467 61.06 160.847 56.4 165.607 53H176.707C181.267 56.24 183.547 60.9 183.547 66.98C183.547 71.58 181.687 77.72 177.967 85.4L173.647 95H165.307L173.107 77.66C171.627 78.58 170.187 79.04 168.787 79.04Z" fill="black"/>
<path d="M14.691 134.12H23.331V143H14.691V134.12ZM14.691 116.36H23.331V125.24H14.691V116.36Z" fill="black"/>
<path d="M52.691 134.12H61.331V143H52.691V134.12Z" fill="black"/>
<path d="M101.053 143L99.793 136.34H90.313L89.053 143H80.893L88.993 101H101.413L109.093 143H101.053ZM94.933 108.8L92.593 122.78L91.273 129.92H98.773L97.393 122.78L95.053 108.8H94.933Z" fill="black"/>
<path d="M129.244 108.2V123.2H134.584C136.784 121.4 137.884 118.76 137.884 115.28C137.884 113.8 137.584 112.4 136.984 111.08C136.424 109.76 135.744 108.8 134.944 108.2H129.244ZM121.144 143V101H137.404C140.124 102.2 142.264 104.04 143.824 106.52C145.424 109 146.224 111.9 146.224 115.22C146.224 118.5 145.404 121.54 143.764 124.34C142.124 127.14 139.704 129.12 136.504 130.28H129.244V143H121.144Z" fill="black"/>
<path d="M171.133 123.8H170.893H171.133L174.313 110.66L176.893 101H184.393L187.093 143H179.233L178.093 120.08H177.793L173.473 137H168.553L164.233 120.08H163.933L162.793 143H154.933L157.633 101H165.133L167.713 110.66L170.893 123.8H171.133Z" fill="black"/>
</g>
</svg>
