<svg width="190" height="144" viewBox="0 0 190 144" fill="none" xmlns="http://www.w3.org/2000/svg">
<desc>{"colon":0.5,"dot":0.5}</desc>
<g clip-path="url(#clip0_100_2)">
<path d="M17.1601 47.124C12.6754 47.124 9.39977 46.0907 7.3331 44.024C5.26644 41.9573 4.2331 38.6817 4.2331 34.197V20.061C4.2331 15.5763 5.26644 12.311 7.3331 10.265C9.42044 8.219 12.6961 7.20633 17.1601 7.227H20.8801C25.3648 7.227 28.6301 8.26033 30.6761 10.327C32.7428 12.373 33.7761 15.6383 33.7761 20.123V34.197C33.7761 38.6817 32.7428 41.9573 30.6761 44.024C28.6301 46.0907 25.3648 47.124 20.8801 47.124H17.1601ZM17.1601 43.869H20.8801C23.2568 43.869 25.1478 43.559 26.5531 42.939C27.9584 42.319 28.9711 41.3063 29.5911 39.901C30.2111 38.475 30.5211 36.5737 30.5211 34.197V20.123C30.5211 17.7463 30.2111 15.8553 29.5911 14.45C28.9711 13.0447 27.9584 12.032 26.5531 11.412C25.1478 10.792 23.2568 10.482 20.8801 10.482H17.1601C14.7834 10.4613 12.8821 10.761 11.4561 11.381C10.0508 11.9803 9.0381 12.9827 8.4181 14.388C7.7981 15.7933 7.4881 17.6843 7.4881 20.061V34.197C7.4881 36.5737 7.7981 38.475 8.4181 39.901C9.0381 41.3063 10.0508 42.319 11.4561 42.939C12.8614 43.559 14.7628 43.869 17.1601 43.869ZM18.4621 29.609C17.2634 29.609 16.6641 28.9993 16.6641 27.78V26.602C16.6641 25.424 17.2634 24.835 18.4621 24.835H19.6091C20.7871 24.835 21.3761 25.424 21.3761 26.602V27.78C21.3761 28.9993 20.7871 29.609 19.6091 29.609H18.4621Z" fill="black"/>
<path d="M60.1777 47C59.0824 47 58.5347 46.4523 58.5347 45.357V10.916L60.0227 10.699L53.2957 17.271C52.9237 17.643 52.5517 17.8393 52.1797 17.86C51.8077 17.8807 51.4357 17.705 51.0637 17.333C50.3611 16.589 50.3714 15.8243 51.0947 15.039L58.4417 7.878C58.9377 7.32 59.6094 7.041 60.4567 7.041C61.3454 7.041 61.7897 7.58867 61.7897 8.684V45.357C61.7897 46.4523 61.2524 47 60.1777 47Z" fill="black"/>
<path d="M107.171 47H83.1461C82.0301 47 81.4721 46.4523 81.4721 45.357C81.4721 43.001 81.7925 40.9757 82.4331 39.281C83.0738 37.5863 84.0038 36.088 85.2231 34.786C86.4631 33.4633 87.9615 32.2233 89.7181 31.066C91.4955 29.9087 93.5001 28.6893 95.7321 27.408C97.7781 26.23 99.5038 25.1863 100.909 24.277C102.314 23.347 103.379 22.3757 104.102 21.363C104.846 20.3297 105.218 19.0587 105.218 17.55C105.218 14.8427 104.691 12.962 103.637 11.908C102.583 10.8333 100.692 10.296 97.9641 10.296H91.3301C88.9328 10.296 87.1865 10.7093 86.0911 11.536C85.0165 12.3627 84.3861 13.8093 84.2001 15.876C84.1381 16.4133 83.9728 16.8163 83.7041 17.085C83.4355 17.3537 83.0428 17.488 82.5261 17.488C81.9888 17.488 81.5755 17.3433 81.2861 17.054C80.9968 16.744 80.8728 16.3203 80.9141 15.783C81.1621 12.7863 82.1335 10.5853 83.8281 9.18C85.5228 7.754 88.0235 7.041 91.3301 7.041H97.9641C101.581 7.041 104.236 7.88833 105.931 9.583C107.626 11.2777 108.473 13.9333 108.473 17.55C108.473 19.6787 107.967 21.4767 106.954 22.944C105.962 24.3907 104.619 25.6823 102.924 26.819C101.25 27.935 99.3901 29.0717 97.3441 30.229C94.7195 31.7377 92.5185 33.1017 90.7411 34.321C88.9638 35.5197 87.5791 36.8423 86.5871 38.289C85.6158 39.715 85.0268 41.5337 84.8201 43.745H107.171C108.266 43.745 108.814 44.2823 108.814 45.357C108.814 46.4523 108.266 47 107.171 47Z" fill="black"/>
<path d="M129.007 46.938C125.494 46.938 122.838 46.194 121.04 44.706C119.242 43.1973 118.219 40.831 117.971 37.607C117.93 37.0697 118.054 36.6563 118.343 36.367C118.633 36.057 119.046 35.902 119.583 35.902C120.596 35.902 121.144 36.4393 121.226 37.514C121.433 39.808 122.115 41.4097 123.272 42.319C124.45 43.2283 126.362 43.683 129.007 43.683H136.075C139.031 43.683 141.077 43.1147 142.213 41.978C143.371 40.8207 143.949 38.7953 143.949 35.902C143.949 32.988 143.371 30.9627 142.213 29.826C141.077 28.6687 139.031 28.09 136.075 28.09H130.34C129.245 28.09 128.697 27.5527 128.697 26.478C128.697 25.3827 129.245 24.835 130.34 24.835H136.912C139.206 24.8143 140.787 24.2047 141.655 23.006C142.523 21.7867 142.957 19.968 142.957 17.55C142.957 14.8427 142.43 12.962 141.376 11.908C140.322 10.8333 138.431 10.296 135.703 10.296H129.689C127.292 10.296 125.546 10.7093 124.45 11.536C123.376 12.3627 122.745 13.8093 122.559 15.876C122.435 16.9507 121.877 17.488 120.885 17.488C120.348 17.488 119.935 17.3433 119.645 17.054C119.356 16.744 119.242 16.3203 119.304 15.783C119.532 12.7863 120.493 10.5853 122.187 9.18C123.882 7.754 126.383 7.041 129.689 7.041H135.703C139.32 7.041 141.976 7.88833 143.67 9.583C145.365 11.2777 146.212 13.9333 146.212 17.55C146.212 21.704 144.714 24.5457 141.717 26.075C143.619 26.881 145.003 28.1003 145.871 29.733C146.76 31.345 147.204 33.4013 147.204 35.902C147.204 39.7047 146.316 42.4947 144.538 44.272C142.761 46.0493 139.94 46.938 136.075 46.938H129.007Z" fill="black"/>
<path d="M179.403 47C178.308 47 177.76 46.4523 177.76 45.357L178.008 11.505L178.907 11.35L160.028 35.902L159.501 35.096L184.146 35.065C184.684 35.065 185.087 35.2097 185.355 35.499C185.645 35.7883 185.789 36.1913 185.789 36.708C185.789 37.7827 185.242 38.32 184.146 38.32H157.827C156.732 38.32 156.184 37.7827 156.184 36.708C156.184 36.1913 156.412 35.623 156.866 35.003L177.605 8.064C177.895 7.67133 178.194 7.40266 178.504 7.258C178.835 7.11333 179.238 7.041 179.713 7.041C180.747 7.041 181.263 7.58867 181.263 8.684L181.015 45.357C181.015 46.4523 180.478 47 179.403 47Z" fill="black"/>
<path d="M15.7232 95C12.2099 95 9.5542 94.2457 7.7562 92.737C5.9582 91.2283 4.9352 88.862 4.6872 85.638C4.64587 85.1007 4.76987 84.6873 5.0592 84.398C5.34854 84.088 5.76187 83.933 6.2992 83.933C7.31187 83.933 7.85954 84.4703 7.9422 85.545C8.14887 87.839 8.83087 89.451 9.9882 90.381C11.1662 91.2903 13.0779 91.745 15.7232 91.745H22.1712C25.1265 91.745 27.1725 91.1663 28.3092 90.009C29.4665 88.831 30.0452 86.785 30.0452 83.871V79.593C30.0452 76.679 29.4665 74.6433 28.3092 73.486C27.1519 72.3287 25.1059 71.75 22.1712 71.75H17.5832C13.7185 71.75 11.0422 72.4113 9.5542 73.734C9.22354 74.0233 8.89287 74.23 8.5622 74.354C8.23154 74.478 7.83887 74.4677 7.3842 74.323L7.0432 74.23C6.13387 73.982 5.6792 73.3827 5.6792 72.432V56.684C5.6792 55.5887 6.21654 55.041 7.2912 55.041H31.3472C32.4219 55.041 32.9592 55.5887 32.9592 56.684C32.9592 57.7587 32.4219 58.296 31.3472 58.296H8.9342V70.2C11.0009 69.0633 13.8839 68.495 17.5832 68.495H22.1712C26.0152 68.495 28.8259 69.3837 30.6032 71.161C32.4012 72.9383 33.3002 75.749 33.3002 79.593V83.871C33.3002 87.715 32.4012 90.536 30.6032 92.334C28.8259 94.1113 26.0152 95 22.1712 95H15.7232Z" fill="black"/>
<path d="M53.7859 94.938C49.9419 94.938 47.1209 94.0493 45.3229 92.272C43.5456 90.4947 42.6569 87.7047 42.6569 83.902V65.55C42.6569 61.9333 43.5043 59.2777 45.1989 57.583C46.8936 55.8883 49.5493 55.041 53.1659 55.041H60.8539C64.1606 55.041 66.6613 55.754 68.3559 57.18C70.0506 58.5853 71.0116 60.7863 71.2389 63.783C71.3009 64.3203 71.1873 64.744 70.8979 65.054C70.6293 65.3433 70.2263 65.488 69.6889 65.488C68.6556 65.488 68.0873 64.9507 67.9839 63.876C67.8186 61.8093 67.1883 60.3627 66.0929 59.536C65.0183 58.7093 63.2719 58.296 60.8539 58.296H53.1659C50.4586 58.296 48.5676 58.8333 47.4929 59.908C46.4389 60.962 45.9119 62.8427 45.9119 65.55V72.463C47.3173 69.859 49.9419 68.557 53.7859 68.557H60.2339C64.0779 68.557 66.8886 69.456 68.6659 71.254C70.4433 73.0313 71.3319 75.842 71.3319 79.686V83.84C71.3319 87.6633 70.4433 90.474 68.6659 92.272C66.8886 94.0493 64.0779 94.938 60.2339 94.938H53.7859ZM53.7859 91.683H60.2339C63.1479 91.683 65.1836 91.1043 66.3409 89.947C67.4983 88.769 68.0769 86.7333 68.0769 83.84V79.686C68.0769 76.7513 67.4983 74.7053 66.3409 73.548C65.1836 72.3907 63.1479 71.812 60.2339 71.812H53.7859C50.8306 71.812 48.7743 72.3907 47.6169 73.548C46.4803 74.6847 45.9119 76.71 45.9119 79.624V83.902C45.9119 86.7953 46.4803 88.8207 47.6169 89.978C48.7743 91.1147 50.8306 91.683 53.7859 91.683Z" fill="black"/>
<path d="M90.6108 95C89.5155 95 88.9782 94.4317 88.9988 93.295C89.0195 90.381 89.1642 87.8183 89.4328 85.607C89.7015 83.3957 90.1562 81.4427 90.7968 79.748C91.4375 78.0533 92.3365 76.5137 93.4938 75.129C94.6718 73.7443 96.1702 72.4217 97.9888 71.161C99.4768 70.107 100.676 68.991 101.585 67.813C102.494 66.635 103.166 65.2917 103.6 63.783C104.055 62.2537 104.323 60.4247 104.406 58.296H83.9768C82.8815 58.296 82.3338 57.7587 82.3338 56.684C82.3338 55.5887 82.8815 55.041 83.9768 55.041H106.049C107.124 55.041 107.661 55.5887 107.661 56.684C107.661 59.474 107.403 61.9023 106.886 63.969C106.39 66.0357 105.563 67.8647 104.406 69.456C103.269 71.0267 101.75 72.4733 99.8488 73.796C98.3815 74.8293 97.1622 75.8937 96.1908 76.989C95.2195 78.0843 94.4445 79.345 93.8658 80.771C93.3078 82.1763 92.9048 83.8917 92.6568 85.917C92.4295 87.9423 92.2952 90.4017 92.2538 93.295C92.2332 94.4317 91.6855 95 90.6108 95Z" fill="black"/>
<path d="M142.41 74.292C145.903 75.8627 147.649 79.0763 147.649 83.933C147.649 87.7563 146.761 90.5567 144.983 92.334C143.206 94.1113 140.395 95 136.551 95H129.483C125.639 95 122.818 94.1113 121.02 92.334C119.243 90.5567 118.354 87.7563 118.354 83.933C118.354 79.0143 120.173 75.7697 123.81 74.199C121.041 72.525 119.656 69.6213 119.656 65.488C119.656 61.892 120.504 59.257 122.198 57.583C123.893 55.8883 126.549 55.041 130.165 55.041H136.179C139.796 55.041 142.441 55.8883 144.115 57.583C145.81 59.257 146.657 61.892 146.657 65.488C146.657 69.7247 145.242 72.6593 142.41 74.292ZM130.165 58.296C127.458 58.296 125.567 58.8333 124.492 59.908C123.438 60.962 122.911 62.822 122.911 65.488C122.911 68.2573 123.438 70.1897 124.492 71.285C125.546 72.3597 127.365 72.897 129.948 72.897L137.109 72.866C138.721 72.866 139.982 72.5973 140.891 72.06C141.821 71.502 142.472 70.6857 142.844 69.611C143.216 68.5157 143.402 67.1413 143.402 65.488C143.402 62.822 142.875 60.962 141.821 59.908C140.767 58.8333 138.887 58.296 136.179 58.296H130.165ZM136.551 91.745C139.486 91.745 141.522 91.1767 142.658 90.04C143.816 88.8827 144.394 86.847 144.394 83.933C144.394 81.019 143.816 78.9937 142.658 77.857C141.522 76.7203 139.486 76.152 136.551 76.152H129.483C126.528 76.152 124.472 76.7203 123.314 77.857C122.178 78.9937 121.609 81.019 121.609 83.933C121.609 86.847 122.178 88.8827 123.314 90.04C124.472 91.1767 126.528 91.745 129.483 91.745H136.551Z" fill="black"/>
<path d="M174.234 55.103C178.078 55.103 180.889 55.9917 182.666 57.769C184.443 59.5463 185.332 62.3363 185.332 66.139V84.491C185.332 88.1077 184.485 90.7633 182.79 92.458C181.116 94.1527 178.471 95 174.854 95H167.166C163.859 95 161.359 94.287 159.664 92.861C157.969 91.435 156.998 89.234 156.75 86.258C156.709 85.7207 156.822 85.3073 157.091 85.018C157.38 84.708 157.783 84.553 158.3 84.553C159.333 84.553 159.902 85.0903 160.005 86.165C160.191 88.211 160.821 89.6577 161.896 90.505C162.991 91.3317 164.748 91.745 167.166 91.745H174.854C177.561 91.745 179.442 91.218 180.496 90.164C181.55 89.0893 182.077 87.1983 182.077 84.491V77.578C180.692 80.182 178.078 81.484 174.234 81.484H167.786C163.942 81.484 161.121 80.5953 159.323 78.818C157.546 77.02 156.657 74.199 156.657 70.355V66.201C156.657 62.357 157.546 59.5463 159.323 57.769C161.121 55.9917 163.942 55.103 167.786 55.103H174.234ZM174.234 58.358H167.786C164.872 58.358 162.826 58.9367 161.648 60.094C160.491 61.2513 159.912 63.287 159.912 66.201V70.355C159.912 73.269 160.491 75.315 161.648 76.493C162.826 77.6503 164.872 78.229 167.786 78.229H174.234C177.169 78.229 179.204 77.6607 180.341 76.524C181.498 75.3667 182.077 73.331 182.077 70.417V66.139C182.077 63.225 181.498 61.1997 180.341 60.063C179.204 58.9263 177.169 58.358 174.234 58.358Z" fill="black"/>
<path d="M18.4527 143C17.254 143 16.6547 142.39 16.6547 141.171V139.993C16.6547 138.815 17.254 138.226 18.4527 138.226H19.5997C20.7777 138.226 21.3667 138.815 21.3667 139.993V141.171C21.3667 142.39 20.7777 143 19.5997 143H18.4527ZM18.4527 122.54C17.254 122.54 16.6547 121.93 16.6547 120.711V119.533C16.6547 118.355 17.254 117.766 18.4527 117.766H19.5997C20.7777 117.766 21.3667 118.355 21.3667 119.533V120.711C21.3667 121.93 20.7777 122.54 19.5997 122.54H18.4527Z" fill="black"/>
<path d="M56.4527 143C55.254 143 54.6547 142.39 54.6547 141.171V139.993C54.6547 138.815 55.254 138.226 56.4527 138.226H57.5997C58.7777 138.226 59.3667 138.815 59.3667 139.993V141.171C59.3667 142.39 58.7777 143 57.5997 143H56.4527Z" fill="black"/>
<path d="M78.624 142.845C77.632 142.411 77.3323 141.688 77.725 140.675L93.101 104.312C93.4317 103.465 94.0413 103.041 94.93 103.041H95.116C95.9633 103.062 96.5627 103.485 96.914 104.312L112.29 140.675C112.703 141.688 112.414 142.411 111.422 142.845C110.409 143.258 109.707 142.969 109.314 141.977L105.191 132.212H84.886L80.763 141.977C80.3497 142.969 79.6367 143.258 78.624 142.845ZM86.219 128.957H103.827L95.023 108.187L86.219 128.957Z" fill="black"/>
<path d="M123.063 143C121.968 143 121.42 142.452 121.42 141.357V104.684C121.42 103.589 121.968 103.041 123.063 103.041H137.571C141.105 103.041 143.771 103.95 145.569 105.769C147.388 107.588 148.297 110.264 148.297 113.798V115.658C148.297 119.171 147.388 121.837 145.569 123.656C143.771 125.475 141.105 126.384 137.571 126.384H124.675V141.357C124.675 142.452 124.138 143 123.063 143ZM124.675 123.129H137.571C140.175 123.129 142.066 122.54 143.244 121.362C144.443 120.163 145.042 118.262 145.042 115.658V113.798C145.042 111.173 144.443 109.272 143.244 108.094C142.066 106.895 140.175 106.296 137.571 106.296H124.675V123.129Z" fill="black"/>
<path d="M154.13 143C153.035 143 152.487 142.452 152.487 141.357V104.684C152.487 103.589 153.035 103.041 154.13 103.041C154.916 103.041 155.536 103.403 155.99 104.126L171.428 127.717L170.684 127.81L186.122 104.126C186.556 103.403 187.207 103.041 188.075 103.041C189.047 103.041 189.532 103.589 189.532 104.684V141.357C189.532 142.452 188.995 143 187.92 143C186.825 143 186.277 142.452 186.277 141.357V107.939L187.238 108.249L172.916 130.073C172.462 130.776 171.811 131.127 170.963 131.127C170.219 131.127 169.62 130.776 169.165 130.073L154.843 108.249L155.742 108.59V141.357C155.742 142.452 155.205 143 154.13 143Z" fill="black"/>
</g>
</svg>
