<svg width="120" height="162" viewBox="0 0 120 162" fill="none" xmlns="http://www.w3.org/2000/svg">
<desc>{"colon":0.5,"dot":0.5}</desc>
<g clip-path="url(#clip0_100_2)">
<path d="M8.73094 14.4C9.72294 12.736 10.7149 11.904 11.7069 11.904C12.7309 11.904 13.4349 12.496 13.8189 13.68L13.7229 14.304V14.4C17.7869 17.024 19.8189 21.92 19.8189 29.088C19.8189 36.256 17.7229 41.024 13.5309 43.392L11.8989 43.68C8.60294 43.68 6.34694 41.776 5.13094 37.968C4.71494 36.272 4.50694 34.624 4.50694 33.024V32.4C4.50694 29.072 5.30694 24.48 6.90694 18.624C6.13894 18.624 5.64294 18.08 5.41894 16.992C5.41894 16.384 6.52294 15.52 8.73094 14.4ZM7.38694 32.112V33.312C7.38694 38.304 8.79494 40.8 11.6109 40.8H11.7069C14.3309 40.8 16.0429 37.664 16.8429 31.392L16.9869 28.512C16.7629 22.144 15.2749 18.336 12.5229 17.088L11.6109 16.992H10.8429C10.0749 17.76 9.16294 20.464 8.10694 25.104C7.62694 27.664 7.38694 30 7.38694 32.112Z" fill="black"/>
<path d="M34.0014 18.768C34.1934 17.968 34.7694 17.568 35.7294 17.568C36.6894 17.568 37.1694 19.616 37.1694 23.712L37.3134 26.304L36.8814 41.424C36.6574 42.416 36.1614 42.912 35.3934 42.912C34.4654 42.56 34.0014 42.064 34.0014 41.424L34.4814 26.592L34.0014 18.768Z" fill="black"/>
<path d="M60.351 16.08C62.815 16.08 64.255 17.824 64.671 21.312C64.671 24.544 62.143 30.8 57.087 40.08V40.368C58.399 40.368 61.199 39.216 65.487 36.912H65.583C66.223 36.912 66.719 37.376 67.071 38.304C67.071 39.936 62.671 41.936 53.871 44.304C53.359 44.304 52.927 43.84 52.575 42.912C53.823 40.064 56.255 35.264 59.871 28.512C61.087 25.248 61.695 23.04 61.695 21.888V20.4C61.695 19.76 61.359 19.264 60.687 18.912H60.063C58.815 18.912 57.615 20.416 56.463 23.424L56.607 24C56.607 24.608 56.159 25.104 55.263 25.488C54.079 25.264 53.487 24.672 53.487 23.712C53.487 21.888 54.879 19.648 57.663 16.992C58.463 16.384 59.359 16.08 60.351 16.08Z" fill="black"/>
<path d="M83.3586 16.32C85.3746 16.32 86.6226 17.616 87.1026 20.208C86.8786 21.776 86.5266 23.12 86.0466 24.24V24.432C88.0946 24.432 89.6466 25.872 90.7026 28.752L90.8466 30.528C90.5266 34.4 88.3826 38.56 84.4146 43.008C82.6226 44.224 81.3266 44.832 80.5266 44.832C77.9346 44.16 76.6386 43.264 76.6386 42.144C76.7666 41.696 77.1026 41.296 77.6466 40.944H78.5586C79.2946 41.52 79.8546 41.808 80.2386 41.808H80.3346C82.8306 41.808 85.3266 38.512 87.8226 31.92L88.0146 30.528V30.24C88.0146 28.256 87.3106 27.264 85.9026 27.264C84.3986 27.264 83.3106 27.952 82.6386 29.328C81.2306 30.928 80.1586 31.84 79.4226 32.064C79.0066 32.064 78.5106 31.616 77.9346 30.72C77.9346 29.44 79.3906 27.584 82.3026 25.152C83.5826 22.912 84.2226 21.216 84.2226 20.064C84.0306 19.488 83.7426 19.136 83.3586 19.008C81.9826 19.008 80.5426 20.816 79.0386 24.432L77.9346 24.72C77.0706 24.528 76.6386 24.128 76.6386 23.52C78.1746 18.72 80.4146 16.32 83.3586 16.32Z" fill="black"/>
<path d="M112.032 9.984C112.416 9.984 112.864 10.336 113.376 11.04V11.472C113.376 11.952 113.12 12.352 112.608 12.672C111.616 13.536 111.12 19.536 111.12 30.672V32.64H111.696C113.328 32.64 115.136 31.744 117.12 29.952H117.312C118.304 30.176 118.8 30.672 118.8 31.44C117.968 33.008 116.608 34.144 114.72 34.848C113.6 35.264 112.56 35.472 111.6 35.472H111.312L111.6 51.984C111.6 52.624 111.136 53.12 110.208 53.472C109.344 53.472 108.848 52.928 108.72 51.84L108.432 35.184C104.432 33.968 102.224 33.36 101.808 33.36H101.232C100.912 33.552 100.512 34.112 100.032 35.04L99.12 35.664C98.128 35.28 97.632 34.672 97.632 33.84C97.632 33.488 98.32 32.032 99.696 29.472C101.296 24.608 102.096 21.2 102.096 19.248V17.472C102.096 17.024 101.76 16.176 101.088 14.928C101.312 13.936 101.808 13.44 102.576 13.44C104.272 14.176 105.12 15.872 105.12 18.528C105.12 20.384 104.224 24.384 102.432 30.528L108.288 32.16V31.728C108.288 17.616 109.136 10.56 110.832 10.56C110.832 10.368 111.232 10.176 112.032 9.984Z" fill="black"/>
<path d="M13.5823 74.592H13.8703C15.9503 74.592 16.9903 75.136 16.9903 76.224C16.8943 76.672 16.5583 77.12 15.9823 77.568L13.6783 77.424H13.3903C11.8543 77.424 9.45431 77.872 6.19031 78.768L6.95831 84.48H7.24631C9.96631 82.496 12.1743 81.504 13.8703 81.504C16.8783 81.504 18.6703 83.504 19.2463 87.504V87.792C19.2463 91.184 16.9583 93.776 12.3823 95.568L9.98231 96C7.45431 95.712 6.19031 95.12 6.19031 94.224C6.57431 93.2 7.13431 92.688 7.87031 92.688L9.50231 93.168H10.7023C12.6543 93.168 14.4143 91.968 15.9823 89.568C16.2383 88.992 16.3663 88.496 16.3663 88.08V87.168C16.1423 85.248 15.2463 84.288 13.6783 84.288H13.5823C11.5983 84.288 9.23031 86 6.47831 89.424H6.19031C4.91031 89.424 4.27031 87.776 4.27031 84.48L3.07031 77.28C3.07031 76.288 4.36631 75.792 6.95831 75.792C9.96631 74.992 12.1743 74.592 13.5823 74.592Z" fill="black"/>
<path d="M34.047 73.44C34.943 73.76 35.391 74.256 35.391 74.928L33.423 78.144C32.559 80.896 32.127 83.792 32.127 86.832V88.608H32.511C34.399 86.208 36.367 85.008 38.415 85.008C41.487 85.488 43.023 86.992 43.023 89.52V89.808C43.023 93.008 41.183 95.76 37.503 98.064L35.247 98.352C31.823 98.352 29.823 95.056 29.247 88.464V86.544C29.247 81.36 30.335 77.296 32.511 74.352C33.119 73.744 33.631 73.44 34.047 73.44ZM33.327 93.84V94.032C33.807 95.024 34.495 95.52 35.391 95.52H35.727C37.743 95.52 39.231 93.664 40.191 89.952V89.52C40.191 88.496 39.599 87.936 38.415 87.84C36.079 87.84 34.383 89.84 33.327 93.84Z" fill="black"/>
<path d="M67.2377 66.96H67.5257C68.4217 67.28 68.8697 67.776 68.8697 68.448C68.7097 69.152 67.7657 70.624 66.0377 72.864C64.9177 74.848 63.3177 81.936 61.2377 94.128L60.0377 100.272L58.9817 101.04C57.9577 100.688 57.4457 100.224 57.4457 99.648C57.4457 98.208 58.9497 90.208 61.9577 75.648H61.8617C58.8217 76.928 56.5177 77.6 54.9497 77.664C51.8137 77.216 50.2457 76.304 50.2457 74.928C50.2457 74.096 51.0457 73.6 52.6457 73.44L54.4697 74.784H54.9497C58.0537 74.784 61.2537 73.184 64.5497 69.984C64.7417 69.184 65.6377 68.176 67.2377 66.96Z" fill="black"/>
<path d="M89.5986 70.464C90.4946 70.464 91.0226 71.12 91.1826 72.432C91.1826 74.224 89.0866 78.368 84.8946 84.864C84.8946 85.056 85.7906 85.904 87.5826 87.408C88.9906 89.104 89.6946 90.912 89.6946 92.832C89.6946 95.936 87.7586 98.368 83.8866 100.128H83.1186C80.8146 100.128 79.4066 98.496 78.8946 95.232V94.608C78.8946 92.848 79.6626 89.856 81.1986 85.632C78.2546 83.232 76.7826 80.928 76.7826 78.72V78.528C76.7826 75.456 78.7826 73.168 82.7826 71.664L84.3186 71.52C85.5346 71.52 86.5906 72.016 87.4866 73.008V73.44C87.4866 74.08 87.0226 74.576 86.0946 74.928C85.2306 74.544 84.5906 74.352 84.1746 74.352H83.8866C81.0706 75.056 79.6626 76.416 79.6626 78.432V78.864C79.6626 80.4 80.6706 81.792 82.6866 83.04C86.4946 77.312 88.3986 73.872 88.3986 72.72L88.0626 72.432V71.808C88.0626 71.008 88.5746 70.56 89.5986 70.464ZM83.6946 87.744H83.5986C82.3826 90.56 81.7746 92.896 81.7746 94.752V95.52C81.7746 96.352 82.1106 96.96 82.7826 97.344H83.1186C84.5266 97.344 85.7266 96.144 86.7186 93.744L86.8626 92.928V92.208C86.8626 90.768 85.8066 89.28 83.6946 87.744Z" fill="black"/>
<path d="M115.772 69.36C116.412 69.36 116.812 69.824 116.972 70.752V71.04C116.972 71.584 116.316 73.92 115.004 78.048C113.916 83.2 113.372 88.208 113.372 93.072C113.372 95.376 113.516 97.568 113.804 99.648C113.452 100.576 112.956 101.04 112.316 101.04C111.1 101.04 110.492 98.576 110.492 93.648V92.784C110.492 90.32 110.7 87.216 111.116 83.472C110.956 83.472 110.22 84.272 108.908 85.872C106.412 88.176 104.444 89.328 103.004 89.328C101.308 89.328 100.012 88.08 99.1163 85.584V84.528C99.1163 80.976 101.82 77.024 107.228 72.672C109.692 71.072 111.484 70.272 112.604 70.272L113.372 70.464H114.284C114.284 69.856 114.78 69.488 115.772 69.36ZM101.996 84.048V85.152C101.996 85.664 102.236 86.064 102.716 86.352H103.196C105.628 86.352 108.828 82.544 112.796 74.928C113.084 74.384 113.228 73.888 113.228 73.44V73.248H112.508C110.044 73.248 106.94 75.808 103.196 80.928C102.396 82.432 101.996 83.472 101.996 84.048Z" fill="black"/>
<path d="M12.4014 139.392C13.2334 139.392 13.7294 139.952 13.8894 141.072C13.8894 141.744 13.3934 142.24 12.4014 142.56C11.6334 142.56 11.1694 141.904 11.0094 140.592C11.4254 139.792 11.8894 139.392 12.4014 139.392ZM12.5454 144.768C13.5374 145.152 14.0334 145.76 14.0334 146.592C14.0334 147.264 13.5854 147.664 12.6894 147.792C11.8894 147.792 11.3294 147.248 11.0094 146.16C11.3614 145.232 11.8734 144.768 12.5454 144.768Z" fill="black"/>
<path d="M36.4406 147.168C37.1126 147.168 37.5126 147.712 37.6406 148.8C37.4486 149.92 36.8886 150.48 35.9606 150.48C35.3206 150.48 34.8726 149.92 34.6166 148.8C35.0006 147.712 35.6086 147.168 36.4406 147.168Z" fill="black"/>
<path d="M59.5757 121.488L60.7757 121.104C61.8637 121.104 62.4077 122.544 62.4077 125.424L63.8957 136.512L64.0877 136.704L69.6077 134.688C70.3437 134.688 70.7437 135.248 70.8077 136.368C70.8077 137.2 68.7757 138.208 64.7117 139.392L64.5197 139.488V139.68C64.5197 140.352 65.5757 143.856 67.6877 150.192V150.288C67.6877 150.896 67.1917 151.408 66.1997 151.824C65.2717 151.824 64.6637 150.72 64.3757 148.512C63.6397 146.912 62.7437 144.272 61.6877 140.592H61.4957C57.3037 141.456 55.2077 142.192 55.2077 142.8C52.9037 147.792 51.1597 150.288 49.9757 150.288C49.3037 150.288 48.9037 149.856 48.7757 148.992C48.7757 148.224 49.6237 146.72 51.3197 144.48L52.0877 142.8H50.8877L49.9757 142.992C48.7917 142.704 48.1997 142.096 48.1997 141.168C48.6797 140.048 49.3837 139.488 50.3117 139.488L51.5117 139.968C53.3037 139.968 54.1997 139.312 54.1997 138C55.8317 134.16 57.6237 128.656 59.5757 121.488ZM60.0077 130.224L57.1757 138.768C59.7997 138.256 61.1117 137.76 61.1117 137.28C60.6317 132.576 60.2637 130.224 60.0077 130.224Z" fill="black"/>
<path d="M82.8701 118.464H83.6381C88.8541 118.464 92.1981 120.352 93.6701 124.128L93.8141 125.664V126.144C93.8141 129.856 91.5581 133.296 87.0461 136.464C85.9581 136.784 85.4141 137.136 85.4141 137.52C86.6941 142.416 87.3341 146.416 87.3341 149.52V150.144C87.3341 151.424 86.8061 152.064 85.7501 152.064C84.9501 151.968 84.5501 151.568 84.5501 150.864V149.664C84.5501 145.984 83.8781 141.984 82.5341 137.664C79.9421 137.44 78.5021 136.736 78.2141 135.552V135.264C78.2141 134.688 78.6621 134.24 79.5581 133.92L81.6701 134.64V134.544C80.5821 129.808 80.0381 126.608 80.0381 124.944C80.0381 124.016 80.5821 123.552 81.6701 123.552C82.6621 123.552 83.1581 125.248 83.1581 128.64L84.5501 134.352C86.8541 133.584 88.6461 132.08 89.9261 129.84C90.5981 128.56 90.9341 127.424 90.9341 126.432V125.808C90.9341 123.184 88.6941 121.696 84.2141 121.344H82.2461C77.8621 121.824 75.6701 122.864 75.6701 124.464V124.752C75.6701 125.232 75.9261 125.984 76.4381 127.008C76.4381 127.712 75.8781 128.16 74.7581 128.352C73.4781 127.744 72.8381 126.496 72.8381 124.608C72.8381 121.088 76.1821 119.04 82.8701 118.464Z" fill="black"/>
<path d="M112.306 114.96H112.45C113.25 115.376 113.65 115.84 113.65 116.352L112.45 125.472C112.45 128.8 113.442 135.696 115.426 146.16L117.826 152.16C117.826 152.576 117.49 153.04 116.818 153.552H115.906C115.266 153.36 114.306 151.392 113.026 147.648C112.194 144.64 111.362 140 110.53 133.728H110.242C108.386 139.232 107.074 142.08 106.306 142.272L105.538 142.464C104.866 142.464 104.034 141.152 103.042 138.528H102.706C102.322 146.432 101.57 150.384 100.45 150.384H100.306C99.2823 150.384 98.7223 149.584 98.6263 147.984C99.4263 144.912 99.8263 141.712 99.8263 138.384L98.5303 125.664V124.752C98.5303 123.536 98.9623 122.928 99.8263 122.928C101.074 122.928 102.178 125.376 103.138 130.272C104.546 134.72 105.41 137.12 105.73 137.472C106.466 136.32 107.202 134.272 107.938 131.328C108.514 129.824 109.074 127.472 109.618 124.272L109.426 124.128L109.618 123.36V123.072C109.906 117.664 110.802 114.96 112.306 114.96Z" fill="black"/>
</g>
</svg>
