<svg width="170" height="162" viewBox="0 0 170 162" fill="none" xmlns="http://www.w3.org/2000/svg">
<g clip-path="url(#clip0_100_2)">
<path d="M18.899 8.512C20.867 8.512 22.475 9.136 23.723 10.384C25.019 11.632 25.667 13.24 25.667 15.208V45.304C25.667 47.224 25.019 48.832 23.723 50.128C22.475 51.376 20.867 52 18.899 52H15.083C13.115 52 11.483 51.376 10.187 50.128C8.939 48.832 8.315 47.224 8.315 45.304V15.208C8.315 13.24 8.939 11.632 10.187 10.384C11.435 9.088 13.067 8.464 15.083 8.512H18.899ZM15.011 44.944C15.011 45.184 15.131 45.304 15.371 45.304H18.755C18.995 45.304 19.115 45.184 19.115 44.944V15.568C19.115 15.328 18.995 15.208 18.755 15.208H15.515C15.275 15.208 15.155 15.328 15.155 15.568L15.011 44.944Z" fill="black"/>
<path d="M56.753 45.304V52H45.377V45.304H47.825V15.496H45.233L46.673 8.8H54.665V45.304H56.753Z" fill="black"/>
<path d="M93.1863 52H76.8423V33.352C76.8423 31.336 77.4423 29.728 78.6423 28.528C79.8903 27.28 81.4503 26.656 83.3223 26.656H85.9863C86.2263 26.656 86.3463 26.536 86.3463 26.296V15.856C86.3463 15.616 86.2263 15.496 85.9863 15.496H76.8423V8.8H86.4183C88.4343 8.8 90.0663 9.424 91.3143 10.672C92.5623 11.872 93.1863 13.48 93.1863 15.496V26.656C93.1863 28.672 92.5623 30.304 91.3143 31.552C90.0663 32.752 88.4343 33.352 86.4183 33.352H84.0423C83.8023 33.352 83.6823 33.472 83.6823 33.712V45.304H93.1863V52Z" fill="black"/>
<path d="M127.223 26.656V33.352H127.151V45.232C127.151 47.248 126.527 48.88 125.279 50.128C124.031 51.328 122.399 51.928 120.383 51.928H110.807V45.232H119.951C120.191 45.232 120.311 45.112 120.311 44.872V33.352H112.895V26.656H120.383V15.856C120.383 15.616 120.263 15.496 120.023 15.496H110.879V8.8H120.455C122.471 8.8 124.103 9.424 125.351 10.672C126.599 11.872 127.223 13.48 127.223 15.496V26.656Z" fill="black"/>
<path d="M164.064 45.304V52H152.976V45.304H155.136V40.192H148.8C146.4 40.192 144.576 39.472 143.328 38.032C142.128 36.544 141.72 34.624 142.104 32.272L145.92 8.8H152.616L149.088 33.496H155.136V8.8H161.976V33.496H164.064V40.192H161.976V45.304H164.064Z" fill="black"/>
<path d="M8.84234 106V99.304H17.9863C18.2263 99.304 18.3463 99.184 18.3463 98.944V84.76C18.3463 84.52 18.2263 84.4 17.9863 84.4H8.84234V62.8H25.1863V69.496H15.6823V77.704H18.4183C20.4343 77.704 22.0663 78.328 23.3143 79.576C24.5623 80.776 25.1863 82.384 25.1863 84.4V99.304C25.1863 101.32 24.5623 102.952 23.3143 104.2C22.0663 105.4 20.4343 106 18.4183 106H8.84234Z" fill="black"/>
<path d="M53.4432 105.928H48.9072C46.8912 105.928 45.2592 105.328 44.0112 104.128C42.7632 102.88 42.1392 101.248 42.1392 99.232V93.832V84.328C42.1392 84.04 42.1632 83.776 42.2112 83.536V69.496C42.2112 67.48 42.8352 65.872 44.0832 64.672C45.3312 63.424 46.9632 62.8 48.9792 62.8H53.0832C55.1472 62.8 56.7792 63.424 57.9792 64.672C59.2272 65.872 59.8512 67.48 59.8512 69.496V76.336L53.0112 75.616V69.856C53.0112 69.616 52.8912 69.496 52.6512 69.496H49.4112C49.1712 69.496 49.0512 69.616 49.0512 69.856V77.632H53.0832C55.1472 77.632 56.7792 78.256 57.9792 79.504C59.2272 80.704 59.8512 82.312 59.8512 84.328V99.232C59.8512 101.248 59.2512 102.88 58.0512 104.128C56.8512 105.328 55.3152 105.928 53.4432 105.928ZM53.0112 84.688C53.0112 84.448 52.8912 84.328 52.6512 84.328H49.3392C49.1472 84.328 49.0272 84.376 48.9792 84.472V98.872C48.9792 99.112 49.0992 99.232 49.3392 99.232H52.6512C52.8912 99.232 53.0112 99.112 53.0112 98.872V84.688Z" fill="black"/>
<path d="M95.0133 80.656V87.352H90.9813L87.5973 106H81.0453L84.2853 87.352H78.6693V80.656H85.4373L87.3813 69.496H76.4373V62.8H87.6693C90.0213 62.8 91.7493 63.64 92.8533 65.32C93.9573 67 94.2453 69.256 93.7173 72.088L92.2053 80.656H95.0133Z" fill="black"/>
<path d="M120.899 62.584C122.867 62.584 124.475 63.208 125.723 64.456C127.019 65.704 127.667 67.312 127.667 69.28V77.776C127.667 79.024 127.403 80.152 126.875 81.16C127.403 82.12 127.667 83.224 127.667 84.472V99.304C127.667 101.224 127.019 102.832 125.723 104.128C124.475 105.376 122.867 106 120.899 106H117.083C115.115 106 113.483 105.376 112.187 104.128C110.939 102.832 110.315 101.224 110.315 99.304V84.472C110.315 83.224 110.579 82.096 111.107 81.088C110.579 80.128 110.315 79.024 110.315 77.776V69.28C110.315 67.312 110.939 65.704 112.187 64.456C113.435 63.16 115.067 62.536 117.083 62.584H120.899ZM117.011 77.416C117.011 77.656 117.131 77.776 117.371 77.776H120.755C120.995 77.776 121.115 77.656 121.115 77.416V69.64C121.115 69.4 120.995 69.28 120.755 69.28H117.515C117.275 69.28 117.155 69.4 117.155 69.64L117.011 77.416ZM117.011 98.944C117.011 99.184 117.131 99.304 117.371 99.304H120.755C120.995 99.304 121.115 99.184 121.115 98.944V84.832C121.115 84.592 120.995 84.472 120.755 84.472H117.515C117.275 84.472 117.155 84.592 117.155 84.832L117.011 98.944Z" fill="black"/>
<path d="M144.139 92.392L150.979 93.112V98.872C150.979 99.112 151.099 99.232 151.339 99.232H154.579C154.819 99.232 154.939 99.112 154.939 98.872V91.096H150.907C148.843 91.096 147.187 90.496 145.939 89.296C144.739 88.048 144.139 86.416 144.139 84.4V69.496C144.139 67.48 144.739 65.872 145.939 64.672C147.139 63.424 148.675 62.8 150.547 62.8H155.083C157.099 62.8 158.731 63.424 159.979 64.672C161.227 65.872 161.851 67.48 161.851 69.496V74.896V84.4C161.851 84.688 161.827 84.952 161.779 85.192V99.232C161.779 101.248 161.155 102.88 159.907 104.128C158.659 105.328 157.027 105.928 155.011 105.928H150.907C148.843 105.928 147.187 105.328 145.939 104.128C144.739 102.88 144.139 101.248 144.139 99.232V92.392ZM151.339 69.496C151.099 69.496 150.979 69.616 150.979 69.856V84.04C150.979 84.28 151.099 84.4 151.339 84.4H154.651C154.843 84.4 154.963 84.352 155.011 84.256V69.856C155.011 69.616 154.891 69.496 154.651 69.496H151.339Z" fill="black"/>
<path d="M13.6588 126.376H20.3548V133.072H13.6588V126.376ZM13.6588 143.728H20.3548V150.424H13.6588V143.728Z" fill="black"/>
<path d="M47.6588 153.304H54.3548V160H47.6588V153.304Z" fill="black"/>
<path d="M81.3803 160H74.5403L78.4283 116.296H77.1323L77.8523 109.6H91.0283L95.4923 160H88.6523L87.8603 151.36H82.1723L81.3803 160ZM82.7483 144.664H87.2843L85.0523 119.608L82.7483 144.664Z" fill="black"/>
<path d="M109.208 116.296L109.928 109.6H121.304C123.32 109.6 124.952 110.224 126.2 111.472C127.448 112.672 128.072 114.28 128.072 116.296V138.832C128.072 140.848 127.304 142.48 125.768 143.728C124.28 144.928 122.528 145.528 120.512 145.528H117.128V160H110.288V116.296H109.208ZM120.872 116.296H117.128V138.832H120.872C121.112 138.832 121.232 138.712 121.232 138.472V116.656C121.232 116.416 121.112 116.296 120.872 116.296Z" fill="black"/>
<path d="M138.734 160V116.296H137.654L138.374 109.6H149.606L153.062 136.744L156.59 109.6H167.606V160H160.766V120.832L155.438 152.8H150.758L145.574 121.696V160H138.734Z" fill="black"/>
</g>
</svg>
