<svg width="170" height="168" viewBox="0 0 170 168" fill="none" xmlns="http://www.w3.org/2000/svg">
<g clip-path="url(#clip0_100_2)">
<path d="M17.0174 54.576C14.8094 54.576 12.9254 54.072 11.3654 53.064C9.82944 52.056 8.65344 50.688 7.83744 48.96C7.04544 47.208 6.64944 45.264 6.64944 43.128V11.952C6.64944 9.792 7.05744 7.848 7.87344 6.12C8.71344 4.392 9.91344 3.024 11.4734 2.016C13.0334 1.008 14.8814 0.503998 17.0174 0.503998C19.1774 0.503998 21.0254 1.02 22.5614 2.052C24.1214 3.06 25.3094 4.428 26.1254 6.156C26.9654 7.884 27.3854 9.816 27.3854 11.952V43.128C27.3854 45.264 26.9654 47.208 26.1254 48.96C25.2854 50.688 24.0854 52.056 22.5254 53.064C20.9894 54.072 19.1534 54.576 17.0174 54.576ZM17.0174 47.016C17.9294 47.016 18.5894 46.632 18.9974 45.864C19.4054 45.072 19.6094 44.16 19.6094 43.128V11.952C19.6094 10.896 19.4054 9.984 18.9974 9.216C18.5894 8.448 17.9294 8.064 17.0174 8.064C16.1054 8.064 15.4454 8.472 15.0374 9.288C14.6294 10.08 14.4254 10.968 14.4254 11.952V43.128C14.4254 44.16 14.6294 45.072 15.0374 45.864C15.4454 46.632 16.1054 47.016 17.0174 47.016Z" fill="black"/>
<path d="M48.9756 54V12.528H43.7916V7.56C45.6156 7.2 47.2476 6.468 48.6876 5.364C50.1276 4.26 51.2556 2.832 52.0716 1.08H56.7516V54H48.9756Z" fill="black"/>
<path d="M74.4419 54V46.296C76.0979 43.752 77.7059 41.076 79.2659 38.268C80.8259 35.46 82.2299 32.64 83.4779 29.808C84.7499 26.952 85.7579 24.192 86.5019 21.528C87.2459 18.864 87.6179 16.416 87.6179 14.184C87.6179 12.6 87.4619 11.124 87.1499 9.756C86.8379 8.388 86.1299 7.704 85.0259 7.704C83.9219 7.704 83.2139 8.388 82.9019 9.756C82.5899 11.1 82.4339 12.576 82.4339 14.184V17.856H74.6579V14.184C74.6579 12.072 74.8379 10.176 75.1979 8.496C75.5819 6.792 76.1819 5.352 76.9979 4.176C77.8139 2.976 78.8819 2.064 80.2019 1.44C81.5219 0.815998 83.1299 0.503998 85.0259 0.503998C86.9219 0.503998 88.5299 0.815998 89.8499 1.44C91.1699 2.064 92.2379 2.952 93.0539 4.104C93.8699 5.256 94.4579 6.648 94.8179 8.28C95.2019 9.888 95.3939 11.688 95.3939 13.68C95.3939 16.056 95.0339 18.624 94.3139 21.384C93.6179 24.12 92.6819 26.94 91.5059 29.844C90.3539 32.724 89.0579 35.568 87.6179 38.376C86.1779 41.16 84.7139 43.8 83.2259 46.296H95.5379V54H74.4419Z" fill="black"/>
<path d="M119.088 54.576C117.456 54.576 116.04 54.324 114.84 53.82C113.664 53.292 112.68 52.56 111.888 51.624C111.12 50.664 110.508 49.536 110.052 48.24C109.596 46.92 109.272 45.456 109.08 43.848C108.888 42.24 108.792 40.536 108.792 38.736H116.424C116.424 40.272 116.472 41.736 116.568 43.128C116.664 44.496 116.904 45.612 117.288 46.476C117.672 47.316 118.272 47.736 119.088 47.736C119.904 47.736 120.504 47.412 120.888 46.764C121.296 46.092 121.56 45.252 121.68 44.244C121.824 43.212 121.896 42.144 121.896 41.04C121.896 38.16 121.692 35.964 121.284 34.452C120.9 32.916 120.204 31.836 119.196 31.212C118.212 30.588 116.808 30.216 114.984 30.096V23.616C116.808 23.52 118.164 23.184 119.052 22.608C119.94 22.032 120.528 21.084 120.816 19.764C121.104 18.42 121.248 16.56 121.248 14.184C121.248 13.008 121.2 11.904 121.104 10.872C121.032 9.816 120.828 8.964 120.492 8.316C120.156 7.668 119.592 7.344 118.8 7.344C118.056 7.344 117.492 7.776 117.108 8.64C116.724 9.48 116.46 10.584 116.316 11.952C116.196 13.32 116.136 14.784 116.136 16.344H108.504C108.504 14.04 108.66 11.928 108.972 10.008C109.284 8.064 109.824 6.384 110.592 4.968C111.36 3.552 112.404 2.46 113.724 1.692C115.068 0.899998 116.76 0.503998 118.8 0.503998C120.432 0.503998 121.872 0.815998 123.12 1.44C124.392 2.04 125.448 2.88 126.288 3.96C127.152 5.04 127.8 6.288 128.232 7.704C128.664 9.12 128.88 10.632 128.88 12.24C128.88 14.64 128.712 16.812 128.376 18.756C128.04 20.676 127.536 22.308 126.864 23.652C126.216 24.972 125.376 25.968 124.344 26.64C126.048 27.936 127.332 29.796 128.196 32.22C129.084 34.644 129.528 37.392 129.528 40.464C129.528 42.888 129.132 45.18 128.34 47.34C127.572 49.476 126.42 51.216 124.884 52.56C123.348 53.904 121.416 54.576 119.088 54.576Z" fill="black"/>
<path d="M153.663 54V42.48H141.639V36.36L152.655 1.08H160.791V35.64H164.391V42.48H160.791V54H153.663ZM148.263 35.64H153.663V19.08V17.496H153.231L152.799 19.08L148.263 35.64Z" fill="black"/>
<path d="M17.0073 110.576C14.9433 110.576 13.2393 110.204 11.8953 109.46C10.5753 108.716 9.54331 107.648 8.79931 106.256C8.07931 104.84 7.57531 103.148 7.28731 101.18C6.99931 99.212 6.85531 97.016 6.85531 94.592H14.6313V96.68C14.6313 98.648 14.7513 100.328 14.9913 101.72C15.2313 103.112 15.9033 103.808 17.0073 103.808C17.7273 103.808 18.2553 103.472 18.5913 102.8C18.9273 102.104 19.1433 101.216 19.2393 100.136C19.3353 99.056 19.3833 97.928 19.3833 96.752V84.944C19.3833 83.816 19.2393 82.892 18.9513 82.172C18.6873 81.428 18.1353 81.056 17.2953 81.056C16.4793 81.056 15.8313 81.44 15.3513 82.208C14.8713 82.976 14.5713 83.888 14.4513 84.944H7.35931V57.08H26.1513V64.784H14.0553V76.16C14.5113 75.608 15.0993 75.116 15.8193 74.684C16.5633 74.228 17.5713 74 18.8433 74C20.6433 74 22.1553 74.444 23.3793 75.332C24.6273 76.196 25.5633 77.444 26.1873 79.076C26.8353 80.708 27.1593 82.664 27.1593 84.944V96.752C27.1593 98.624 27.0033 100.4 26.6913 102.08C26.4033 103.736 25.8873 105.2 25.1433 106.472C24.3993 107.744 23.3673 108.752 22.0473 109.496C20.7273 110.216 19.0473 110.576 17.0073 110.576Z" fill="black"/>
<path d="M51.0073 110.576C48.7753 110.576 46.9033 110.084 45.3913 109.1C43.8793 108.116 42.7393 106.76 41.9713 105.032C41.2273 103.304 40.8553 101.336 40.8553 99.128V69.392C40.8553 67.472 41.0353 65.732 41.3953 64.172C41.7793 62.588 42.3673 61.232 43.1593 60.104C43.9753 58.952 45.0313 58.064 46.3273 57.44C47.6233 56.816 49.1833 56.504 51.0073 56.504C52.8553 56.504 54.4153 56.804 55.6873 57.404C56.9833 57.98 58.0273 58.82 58.8193 59.924C59.6353 61.028 60.2233 62.348 60.5833 63.884C60.9673 65.42 61.1593 67.136 61.1593 69.032V71.624H53.3833C53.3833 69.92 53.3353 68.444 53.2393 67.196C53.1433 65.948 52.9273 64.988 52.5913 64.316C52.2553 63.62 51.7273 63.272 51.0073 63.272C50.2873 63.272 49.7593 63.56 49.4233 64.136C49.0873 64.712 48.8713 65.468 48.7753 66.404C48.6793 67.34 48.6313 68.336 48.6313 69.392V77.528C48.9673 77.072 49.4953 76.664 50.2153 76.304C50.9593 75.92 51.8473 75.728 52.8793 75.728C54.1513 75.728 55.2913 75.956 56.2993 76.412C57.3313 76.868 58.2073 77.54 58.9273 78.428C59.6473 79.292 60.1993 80.372 60.5833 81.668C60.9673 82.964 61.1593 84.464 61.1593 86.168V99.128C61.1593 101.36 60.7753 103.34 60.0073 105.068C59.2393 106.772 58.0993 108.116 56.5873 109.1C55.0753 110.084 53.2153 110.576 51.0073 110.576ZM51.0073 103.808C51.8473 103.808 52.4473 103.4 52.8073 102.584C53.1913 101.744 53.3833 100.88 53.3833 99.992V85.664C53.3833 84.8 53.2033 83.996 52.8433 83.252C52.4833 82.508 51.8833 82.136 51.0433 82.136C50.2273 82.136 49.6153 82.508 49.2073 83.252C48.8233 83.972 48.6313 84.8 48.6313 85.736V99.992C48.6313 100.88 48.7993 101.744 49.1353 102.584C49.4953 103.4 50.1193 103.808 51.0073 103.808Z" fill="black"/>
<path d="M78.9649 110L86.8849 64.784H75.2209V57.08H94.8049V64.856L87.0289 110H78.9649Z" fill="black"/>
<path d="M119.006 110.576C116.75 110.576 114.854 110.12 113.318 109.208C111.782 108.272 110.618 106.964 109.826 105.284C109.034 103.604 108.638 101.648 108.638 99.416V89.984C108.638 87.992 108.974 86.396 109.646 85.196C110.342 83.996 111.35 82.952 112.67 82.064C111.494 81.224 110.594 80.276 109.97 79.22C109.37 78.14 109.07 76.688 109.07 74.864V66.44C109.07 64.28 109.454 62.468 110.222 61.004C110.99 59.516 112.106 58.4 113.57 57.656C115.058 56.888 116.87 56.504 119.006 56.504C121.214 56.504 123.05 56.888 124.514 57.656C125.978 58.4 127.082 59.516 127.826 61.004C128.57 62.468 128.942 64.28 128.942 66.44V74.864C128.942 76.688 128.642 78.14 128.042 79.22C127.442 80.276 126.542 81.224 125.342 82.064C126.686 82.952 127.694 83.996 128.366 85.196C129.038 86.396 129.374 87.992 129.374 89.984V99.416C129.374 101.672 128.978 103.64 128.186 105.32C127.394 107 126.23 108.296 124.694 109.208C123.158 110.12 121.262 110.576 119.006 110.576ZM119.006 103.448C119.702 103.448 120.254 103.268 120.662 102.908C121.094 102.548 121.358 102.032 121.454 101.36C121.574 100.664 121.658 99.716 121.706 98.516C121.778 97.316 121.814 96.104 121.814 94.88C121.814 93.752 121.778 92.6 121.706 91.424C121.658 90.248 121.574 89.288 121.454 88.544C121.31 87.776 121.034 87.2 120.626 86.816C120.242 86.432 119.702 86.24 119.006 86.24C118.334 86.24 117.794 86.432 117.386 86.816C117.002 87.2 116.75 87.776 116.63 88.544C116.51 89.216 116.414 90.164 116.342 91.388C116.27 92.588 116.234 93.764 116.234 94.916C116.234 96.092 116.258 97.292 116.306 98.516C116.378 99.716 116.462 100.664 116.558 101.36C116.654 102.032 116.954 102.548 117.458 102.908C117.962 103.268 118.478 103.448 119.006 103.448ZM119.006 78.608C119.51 78.608 119.918 78.452 120.23 78.14C120.566 77.804 120.806 77.312 120.95 76.664C121.07 76.04 121.154 75.224 121.202 74.216C121.274 73.208 121.31 72.008 121.31 70.616C121.31 69.392 121.274 68.324 121.202 67.412C121.154 66.5 121.07 65.744 120.95 65.144C120.806 64.52 120.566 64.064 120.23 63.776C119.918 63.488 119.51 63.344 119.006 63.344C118.574 63.344 118.214 63.476 117.926 63.74C117.638 63.98 117.422 64.376 117.278 64.928C117.11 65.504 116.978 66.392 116.882 67.592C116.786 68.768 116.738 69.992 116.738 71.264C116.738 72.344 116.774 73.376 116.846 74.36C116.918 75.32 117.014 76.088 117.134 76.664C117.254 77.312 117.47 77.804 117.782 78.14C118.094 78.452 118.502 78.608 119.006 78.608Z" fill="black"/>
<path d="M153.007 56.504C155.263 56.504 157.135 56.996 158.623 57.98C160.135 58.964 161.263 60.32 162.007 62.048C162.775 63.752 163.159 65.72 163.159 67.952V97.688C163.159 99.608 162.967 101.36 162.583 102.944C162.223 104.504 161.635 105.86 160.819 107.012C160.027 108.14 158.983 109.016 157.687 109.64C156.391 110.264 154.831 110.576 153.007 110.576C151.183 110.576 149.623 110.288 148.327 109.712C147.031 109.112 145.975 108.26 145.159 107.156C144.367 106.052 143.779 104.732 143.395 103.196C143.035 101.66 142.855 99.944 142.855 98.048V95.456H150.631C150.631 97.136 150.679 98.612 150.775 99.884C150.871 101.132 151.087 102.104 151.423 102.8C151.759 103.472 152.287 103.808 153.007 103.808C153.727 103.808 154.255 103.52 154.591 102.944C154.927 102.368 155.143 101.612 155.239 100.676C155.335 99.74 155.383 98.744 155.383 97.688V89.552C155.047 90.008 154.519 90.428 153.799 90.812C153.079 91.172 152.191 91.352 151.135 91.352C149.863 91.352 148.711 91.124 147.679 90.668C146.671 90.212 145.807 89.552 145.087 88.688C144.367 87.8 143.815 86.708 143.431 85.412C143.047 84.092 142.855 82.592 142.855 80.912V67.952C142.855 65.72 143.239 63.74 144.007 62.012C144.775 60.284 145.915 58.94 147.427 57.98C148.939 56.996 150.799 56.504 153.007 56.504ZM153.007 63.272C152.191 63.272 151.591 63.68 151.207 64.496C150.823 65.312 150.631 66.176 150.631 67.088V81.416C150.631 82.28 150.811 83.084 151.171 83.828C151.555 84.572 152.155 84.944 152.971 84.944C153.811 84.944 154.423 84.584 154.807 83.864C155.191 83.12 155.383 82.28 155.383 81.344V67.088C155.383 66.176 155.215 65.312 154.879 64.496C154.543 63.68 153.919 63.272 153.007 63.272Z" fill="black"/>
<path d="M13.2287 134.608V126.616H20.7887V134.608H13.2287ZM13.2287 166V158.008H20.7887V166H13.2287Z" fill="black"/>
<path d="M47.2118 166V158.008H54.7718V166H47.2118Z" fill="black"/>
<path d="M72.2678 166L80.2598 113.08H89.7638L97.7558 166H90.1958L88.7558 155.2H81.2678L79.8278 166H72.2678ZM82.3478 146.992H87.6758L85.4438 129.208L85.2278 126.4H84.7958L84.5798 129.208L82.3478 146.992Z" fill="black"/>
<path d="M109.224 166V113.08H117C119.952 113.08 122.412 113.728 124.38 115.024C126.372 116.32 127.86 118.156 128.844 120.532C129.828 122.908 130.32 125.704 130.32 128.92C130.32 132.136 129.804 134.908 128.772 137.236C127.74 139.564 126.228 141.388 124.236 142.708C122.268 144.004 119.856 144.712 117 144.832V166H109.224ZM117 136.912C118.368 136.912 119.448 136.648 120.24 136.12C121.032 135.568 121.596 134.704 121.932 133.528C122.292 132.352 122.472 130.84 122.472 128.992C122.472 127.12 122.292 125.596 121.932 124.42C121.596 123.244 121.02 122.38 120.204 121.828C119.412 121.276 118.344 121 117 121V136.912Z" fill="black"/>
<path d="M138.443 166V113.08H148.307L152.555 140.512L152.915 143.32H153.059L153.419 140.512L157.667 113.08H167.531V166H160.331V130.504H159.899L159.611 132.736L155.003 166H150.971L146.363 132.736L146.075 130.504H145.643V166H138.443Z" fill="black"/>
</g>
</svg>
