<svg width="170" height="168" viewBox="0 0 170 168" fill="none" xmlns="http://www.w3.org/2000/svg">
<desc>{"colon":0.5,"dot":0.5}</desc>
<g clip-path="url(#clip0_100_2)">
<path d="M15.8643 49.832H18.1683C19.8003 49.832 21.1923 49.232 22.3443 48.032C23.4963 46.784 24.0723 45.296 24.0723 43.568V15.704C24.0723 13.784 23.4003 12.32 22.0563 11.312C20.7123 10.256 19.1523 9.728 17.3763 9.728C16.3683 9.728 15.4083 9.824 14.4963 10.016C13.6323 10.208 12.8643 10.544 12.1923 11.024C11.5203 11.504 10.9683 12.128 10.5363 12.896C10.1523 13.616 9.96031 14.552 9.96031 15.704V43.568C9.96031 45.296 10.5123 46.784 11.6163 48.032C12.7683 49.232 14.1843 49.832 15.8643 49.832ZM27.7443 15.704V43.784C27.7443 45.176 27.4803 46.472 26.9523 47.672C26.4723 48.872 25.8003 49.928 24.9363 50.84C24.0723 51.704 23.0643 52.4 21.9123 52.928C20.7603 53.408 19.5123 53.648 18.1683 53.648H15.7923C14.4483 53.648 13.2003 53.408 12.0483 52.928C10.8963 52.4 9.88831 51.704 9.02431 50.84C8.16031 49.928 7.48831 48.872 7.00831 47.672C6.52831 46.472 6.28831 45.176 6.28831 43.784V15.704C6.28831 14.312 6.52831 13.016 7.00831 11.816C7.53631 10.616 8.23231 9.584 9.09631 8.72C9.96031 7.808 10.9683 7.112 12.1203 6.632C13.2723 6.104 14.5203 5.84 15.8643 5.84H18.2403C19.5363 5.84 20.7603 6.104 21.9123 6.632C23.0643 7.112 24.0723 7.808 24.9363 8.72C25.8003 9.584 26.4723 10.616 26.9523 11.816C27.4803 13.016 27.7443 14.312 27.7443 15.704Z" fill="black"/>
<path d="M49.0574 8.144L52.8734 6.2V52.928H49.0574V8.144Z" fill="black"/>
<path d="M89.4114 26.648C90.2274 25.544 90.7794 24.416 91.0674 23.264C91.3554 22.112 91.5234 20.84 91.5714 19.448C91.5234 18.152 91.2834 16.928 90.8514 15.776C90.4674 14.576 89.9394 13.544 89.2674 12.68C88.5954 11.768 87.7794 11.048 86.8194 10.52C85.8594 9.992 84.7794 9.728 83.5794 9.728C83.3394 9.728 83.0514 9.776 82.7154 9.872C82.4274 9.92 81.9714 10.064 81.3474 10.304C80.7234 10.496 79.8834 10.808 78.8274 11.24C77.7714 11.624 76.4274 12.152 74.7954 12.824L73.1394 9.08L78.6114 6.848C79.3314 6.56 80.1714 6.32 81.1314 6.128C82.1394 5.936 83.0034 5.816 83.7234 5.768C85.4034 5.768 86.9634 6.128 88.4034 6.848C89.8434 7.568 91.0674 8.552 92.0754 9.8C93.1314 11 93.9474 12.416 94.5234 14.048C95.1474 15.632 95.4594 17.36 95.4594 19.232C95.4594 20.912 95.2914 22.448 94.9554 23.84C94.6674 25.232 93.9474 26.696 92.7954 28.232C91.4994 30.488 90.0594 32.84 88.4754 35.288C86.9394 37.736 85.4994 39.968 84.1554 41.984C82.5714 44.384 80.9874 46.712 79.4034 48.968H95.3154V53H75.2994V48.32L89.4114 26.648Z" fill="black"/>
<path d="M107.441 9.08L112.553 6.992C113.273 6.656 114.209 6.368 115.361 6.128C116.513 5.888 117.425 5.768 118.097 5.768C119.825 5.816 121.385 6.176 122.777 6.848C124.169 7.52 125.345 8.432 126.305 9.584C127.313 10.736 128.081 12.104 128.609 13.688C129.137 15.272 129.401 17 129.401 18.872C129.401 20.84 129.065 22.592 128.393 24.128C127.721 25.616 126.473 27.176 124.649 28.808C125.753 29.624 126.617 30.512 127.241 31.472C127.865 32.384 128.321 33.344 128.609 34.352C128.945 35.312 129.137 36.32 129.185 37.376C129.281 38.384 129.329 39.368 129.329 40.328C129.329 42.2 129.017 43.952 128.393 45.584C127.817 47.168 127.001 48.56 125.945 49.76C124.937 50.96 123.713 51.92 122.273 52.64C120.833 53.36 119.273 53.72 117.593 53.72C116.873 53.672 116.033 53.552 115.073 53.36C114.113 53.168 113.249 52.928 112.481 52.64L107.513 50.696L108.521 46.808L114.425 49.328C114.905 49.52 115.409 49.688 115.937 49.832C116.465 49.976 116.969 50.048 117.449 50.048C118.649 50.048 119.729 49.784 120.689 49.256C121.697 48.68 122.561 47.936 123.281 47.024C124.001 46.064 124.577 44.984 125.009 43.784C125.441 42.584 125.681 41.336 125.729 40.04C125.729 38.744 125.561 37.52 125.225 36.368C124.937 35.216 124.481 34.208 123.857 33.344C123.233 32.432 122.417 31.712 121.409 31.184C120.401 30.656 119.201 30.392 117.809 30.392H113.705V26.864H117.881C120.713 26.864 122.705 26.072 123.857 24.488C125.057 22.856 125.681 20.768 125.729 18.224C125.681 16.928 125.393 15.752 124.865 14.696C124.385 13.64 123.761 12.752 122.993 12.032C122.273 11.264 121.457 10.688 120.545 10.304C119.633 9.872 118.745 9.656 117.881 9.656C117.401 9.656 116.801 9.728 116.081 9.872C115.361 9.968 114.761 10.136 114.281 10.376L109.025 12.752L107.441 9.08Z" fill="black"/>
<path d="M159.387 53V38.96H141.171V34.712L152.043 6.2H156.003L145.347 35.072H159.387V26.864H163.203V53H159.387Z" fill="black"/>
<path d="M28.9599 94.96C28.9599 96.976 28.7199 98.872 28.2399 100.648C27.7599 102.376 27.0399 103.912 26.0799 105.256C25.1199 106.6 23.9199 107.656 22.4799 108.424C21.0399 109.192 19.3839 109.576 17.5119 109.576C16.5519 109.576 15.3999 109.432 14.0559 109.144C12.7599 108.856 11.5119 108.544 10.3119 108.208C9.11188 107.872 8.10388 107.56 7.28788 107.272C6.47188 106.936 6.06388 106.768 6.06388 106.768L7.35988 102.664C8.55988 103.192 9.75988 103.648 10.9599 104.032C11.9679 104.368 13.0479 104.68 14.1999 104.968C15.3519 105.208 16.4079 105.328 17.3679 105.328C18.7119 105.328 19.8399 105.064 20.7519 104.536C21.7119 103.96 22.5039 103.192 23.1279 102.232C23.7519 101.272 24.2079 100.168 24.4959 98.92C24.7839 97.672 24.9279 96.352 24.9279 94.96V92.872C24.9279 91.48 24.7839 90.16 24.4959 88.912C24.2079 87.664 23.7519 86.584 23.1279 85.672C22.5039 84.712 21.7119 83.968 20.7519 83.44C19.7919 82.864 18.6399 82.576 17.2959 82.576H6.20788V62.2H24.9279V65.944H10.4559V78.688H17.3679C19.2879 78.688 20.9679 79.048 22.4079 79.768C23.8479 80.488 25.0479 81.496 26.0079 82.792C26.9679 84.04 27.6879 85.528 28.1679 87.256C28.6959 88.984 28.9599 90.856 28.9599 92.872V94.96Z" fill="black"/>
<path d="M52.766 82.936H50.462C48.83 82.936 47.438 83.56 46.286 84.808C45.134 86.008 44.558 87.472 44.558 89.2V99.928C44.558 101.992 45.254 103.528 46.646 104.536C48.086 105.496 49.766 105.976 51.686 105.976C52.598 105.976 53.462 105.88 54.278 105.688C55.142 105.448 55.886 105.088 56.51 104.608C57.182 104.08 57.71 103.456 58.094 102.736C58.478 101.968 58.67 101.032 58.67 99.928V89.2C58.67 87.472 58.094 86.008 56.942 84.808C55.79 83.56 54.398 82.936 52.766 82.936ZM52.766 109.504H50.39C49.094 109.504 47.87 109.264 46.718 108.784C45.566 108.256 44.558 107.56 43.694 106.696C42.83 105.784 42.134 104.728 41.606 103.528C41.126 102.328 40.886 101.032 40.886 99.64V72.712C40.886 71.128 41.174 69.664 41.75 68.32C42.326 66.976 43.118 65.824 44.126 64.864C45.134 63.856 46.31 63.088 47.654 62.56C49.046 62.032 50.51 61.768 52.046 61.768C52.286 61.768 52.766 61.84 53.486 61.984C54.206 62.128 54.974 62.296 55.79 62.488C56.702 62.68 57.71 62.92 58.814 63.208L57.806 66.592C56.894 66.352 56.03 66.136 55.214 65.944C54.542 65.8 53.894 65.656 53.27 65.512C52.646 65.368 52.238 65.296 52.046 65.296C49.982 65.296 48.182 65.968 46.646 67.312C45.158 68.656 44.414 70.456 44.414 72.712V81.28C44.99 80.8 45.686 80.44 46.502 80.2C47.318 79.912 48.134 79.696 48.95 79.552C49.766 79.408 50.51 79.336 51.182 79.336C51.854 79.288 52.382 79.264 52.766 79.264C54.11 79.264 55.358 79.528 56.51 80.056C57.662 80.584 58.67 81.328 59.534 82.288C60.398 83.2 61.07 84.28 61.55 85.528C62.078 86.728 62.342 88.024 62.342 89.416V99.64C62.342 101.032 62.078 102.328 61.55 103.528C61.07 104.728 60.398 105.784 59.534 106.696C58.67 107.56 57.662 108.256 56.51 108.784C55.358 109.264 54.11 109.504 52.766 109.504Z" fill="black"/>
<path d="M74.4753 62.2H95.4993V66.88L82.1793 109H78.0753L91.5393 65.872H74.4753V62.2Z" fill="black"/>
<path d="M117.898 106.192H120.202C121.882 106.192 123.298 105.568 124.45 104.32C125.602 103.072 126.178 101.56 126.178 99.784V94.312C126.178 93.304 125.962 92.416 125.53 91.648C125.146 90.88 124.618 90.256 123.946 89.776C123.274 89.248 122.506 88.864 121.642 88.624C120.778 88.384 119.866 88.264 118.906 88.264C117.034 88.264 115.402 88.744 114.01 89.704C112.618 90.664 111.922 92.2 111.922 94.312V99.784C111.922 101.56 112.498 103.072 113.65 104.32C114.802 105.568 116.218 106.192 117.898 106.192ZM117.898 83.44H120.202C121.882 83.44 123.298 82.816 124.45 81.568C125.602 80.32 126.178 78.808 126.178 77.032V71.416C126.178 69.496 125.506 68.008 124.162 66.952C122.818 65.896 121.234 65.368 119.41 65.368C118.402 65.368 117.442 65.488 116.53 65.728C115.666 65.92 114.874 66.256 114.154 66.736C113.482 67.168 112.93 67.768 112.498 68.536C112.114 69.304 111.922 70.264 111.922 71.416V77.032C111.922 78.808 112.498 80.32 113.65 81.568C114.802 82.816 116.218 83.44 117.898 83.44ZM113.074 85.744C111.634 84.928 110.458 83.776 109.546 82.288C108.682 80.752 108.25 79.072 108.25 77.248V71.056C108.25 69.328 108.562 67.888 109.186 66.736C109.81 65.536 110.626 64.576 111.634 63.856C112.69 63.136 113.89 62.632 115.234 62.344C116.626 62.008 118.066 61.84 119.554 61.84C120.898 61.84 122.194 62.056 123.442 62.488C124.69 62.92 125.77 63.544 126.682 64.36C127.642 65.128 128.386 66.088 128.914 67.24C129.49 68.344 129.778 69.616 129.778 71.056V77.248C129.778 79.12 129.322 80.824 128.41 82.36C127.498 83.848 126.298 85 124.81 85.816C126.298 86.584 127.498 87.664 128.41 89.056C129.322 90.4 129.778 92.008 129.778 93.88V100C129.778 101.296 129.538 102.544 129.058 103.744C128.626 104.896 128.002 105.928 127.186 106.84C126.37 107.704 125.41 108.4 124.306 108.928C123.202 109.408 122.026 109.648 120.778 109.648H117.322C116.074 109.648 114.898 109.408 113.794 108.928C112.69 108.4 111.73 107.704 110.914 106.84C110.098 105.928 109.45 104.896 108.97 103.744C108.49 102.544 108.25 101.296 108.25 100V93.88C108.25 92.056 108.682 90.424 109.546 88.984C110.458 87.544 111.634 86.464 113.074 85.744Z" fill="black"/>
<path d="M151.496 87.472H153.8C155.432 87.472 156.824 86.872 157.976 85.672C159.128 84.424 159.704 82.936 159.704 81.208V71.344C159.704 69.424 159.032 67.96 157.688 66.952C156.344 65.896 154.784 65.368 153.008 65.368C152 65.368 151.04 65.464 150.128 65.656C149.264 65.848 148.496 66.184 147.824 66.664C147.152 67.144 146.6 67.768 146.168 68.536C145.784 69.256 145.592 70.192 145.592 71.344V81.208C145.592 82.936 146.144 84.424 147.248 85.672C148.4 86.872 149.816 87.472 151.496 87.472ZM151.496 61.768H153.872C155.168 61.768 156.392 62.032 157.544 62.56C158.696 63.04 159.704 63.736 160.568 64.648C161.432 65.512 162.104 66.544 162.584 67.744C163.112 68.944 163.376 70.24 163.376 71.632V98.848C163.376 100.432 163.064 101.896 162.44 103.24C161.864 104.584 161.072 105.76 160.064 106.768C159.056 107.728 157.88 108.472 156.536 109C155.192 109.528 153.752 109.792 152.216 109.792C151.976 109.792 151.304 109.672 150.2 109.432C149.144 109.192 147.992 108.928 146.744 108.64C145.304 108.304 143.72 107.92 141.992 107.488L143 104.104C144.584 104.536 146.024 104.896 147.32 105.184C148.424 105.472 149.456 105.736 150.416 105.976C151.424 106.168 152.024 106.264 152.216 106.264C154.28 106.264 156.056 105.592 157.544 104.248C159.08 102.904 159.848 101.104 159.848 98.848V89.128C159.368 89.56 158.744 89.92 157.976 90.208C157.208 90.448 156.416 90.64 155.6 90.784C154.784 90.928 153.992 91.024 153.224 91.072C152.504 91.12 151.928 91.144 151.496 91.144C150.152 91.144 148.904 90.88 147.752 90.352C146.6 89.824 145.592 89.104 144.728 88.192C143.864 87.232 143.168 86.152 142.64 84.952C142.16 83.704 141.92 82.384 141.92 80.992V71.632C141.92 70.24 142.16 68.944 142.64 67.744C143.168 66.544 143.864 65.512 144.728 64.648C145.592 63.736 146.6 63.04 147.752 62.56C148.904 62.032 150.152 61.768 151.496 61.768Z" fill="black"/>
<path d="M19.5062 141.888H14.5382V135.408H19.5062V141.888ZM19.4342 164.928H14.4662V158.592H19.4342V164.928Z" fill="black"/>
<path d="M48.5281 164.64V158.304H53.4961V164.64H48.5281Z" fill="black"/>
<path d="M91.4446 146.64L85.5406 119.28H84.6046L78.6286 146.64H91.4446ZM77.4766 150.888L74.3086 164.928H70.4206L81.9406 114.528H88.0606L99.5806 164.928H95.7646L92.5246 150.888H77.4766Z" fill="black"/>
<path d="M118.742 118.056C117.878 118.056 116.99 118.176 116.078 118.416C115.166 118.608 114.302 118.824 113.486 119.064C112.574 119.352 111.662 119.664 110.75 120V140.232H118.742C122.198 140.232 124.982 139.272 127.094 137.352C129.206 135.432 130.262 132.576 130.262 128.784C130.262 125.04 129.182 122.328 127.022 120.648C124.91 118.92 122.15 118.056 118.742 118.056ZM119.318 113.88C121.286 113.88 123.182 114.24 125.006 114.96C126.83 115.632 128.438 116.616 129.83 117.912C131.222 119.208 132.326 120.792 133.142 122.664C133.958 124.488 134.366 126.528 134.366 128.784C134.366 131.088 133.982 133.2 133.214 135.12C132.446 137.04 131.39 138.696 130.046 140.088C128.702 141.432 127.094 142.488 125.222 143.256C123.398 144.024 121.406 144.408 119.246 144.408H110.678V165H106.862V116.688C108.11 116.208 109.43 115.752 110.822 115.32C112.022 114.936 113.342 114.6 114.782 114.312C116.27 114.024 117.782 113.88 119.318 113.88Z" fill="black"/>
<path d="M153.49 145.92L162.994 114.6H169.258V165H165.37V123.096H164.434L156.01 150.168H149.746L141.394 123.096H140.53V165H136.714V114.6H142.978L152.338 145.92H153.49Z" fill="black"/>
</g>
</svg>
