<svg width="170" height="150" viewBox="0 0 170 150" fill="none" xmlns="http://www.w3.org/2000/svg">
<desc>{"colon":0.5,"dot":0.5}</desc>
<g clip-path="url(#clip0_100_2)">
<path d="M17.9523 48.064C9.07758 48.064 4.64025 41.3013 4.64025 27.776C4.64025 22.0587 5.66425 17.024 7.71225 12.672C8.73625 10.4107 10.1229 8.66133 11.8723 7.424C13.6643 6.144 15.6696 5.504 17.8883 5.504C21.1736 5.504 23.8829 7.68 26.0163 12.032C28.1496 16.384 29.2163 21.5253 29.2163 27.456C29.2163 33.4293 28.2349 38.3573 26.2723 42.24C24.3096 46.1227 21.5363 48.064 17.9523 48.064ZM12.1923 37.824C13.6856 40.7253 15.3923 42.176 17.3123 42.176C18.8483 42.176 20.1283 41.3867 21.1523 39.808C22.2189 38.272 22.9443 36.48 23.3283 34.432C23.7123 32.2133 23.9043 29.9093 23.9043 27.52C23.9043 23.6373 23.4776 19.968 22.6243 16.512C22.1976 14.5067 21.5363 12.928 20.6403 11.776C19.7869 10.624 18.7416 10.048 17.5043 10.048C15.8829 10.048 14.4536 11.0507 13.2163 13.056C11.0829 16.7253 10.0163 21.5467 10.0163 27.52C10.0163 31.488 10.7416 34.9227 12.1923 37.824Z" fill="black"/>
<path d="M59.855 8L59.407 25.216L59.599 44.992C59.599 47.0827 58.4683 48.128 56.207 48.128C55.695 48.128 55.2683 47.9147 54.927 47.488C54.5857 47.0613 54.415 46.4427 54.415 45.632L54.223 29.376C54.223 24 54.287 18.944 54.415 14.208C52.9643 15.488 51.5563 16.96 50.191 18.624C49.2523 19.776 48.3137 20.8853 47.375 21.952C46.8203 22.592 46.159 23.168 45.391 23.68C44.623 24.1493 43.919 24.384 43.279 24.384C42.639 24.384 42.1057 24.1493 41.679 23.68C41.2523 23.2107 41.039 22.6347 41.039 21.952C41.039 21.312 41.5297 20.3947 42.511 19.2C43.3643 18.176 47.0763 14.1867 53.647 7.232C54.6283 6.336 55.8657 5.888 57.359 5.888C58.0843 5.888 58.6817 6.10133 59.151 6.528C59.6203 6.95467 59.855 7.44533 59.855 8Z" fill="black"/>
<path d="M96.8473 47.36C95.3113 47.872 92.6233 48.128 88.7833 48.128L79.3753 48H78.0953C73.8713 48 71.7593 47.1893 71.7593 45.568C71.7593 44.3733 71.9726 43.2853 72.3993 42.304C72.8686 41.1947 73.2739 40.4267 73.6153 40C73.9139 39.5733 74.6819 38.72 75.9193 37.44L78.4153 34.752C79.0553 34.0267 80.5913 32.512 83.0233 30.208C85.7539 27.648 87.7379 25.408 88.9753 23.488C90.2126 21.5253 90.8313 19.4987 90.8313 17.408C90.8313 13.9947 89.4873 11.8187 86.7993 10.88C86.0313 10.624 85.2419 10.496 84.4313 10.496C82.5966 10.496 80.7619 11.2853 78.9273 12.864C78.2446 13.5467 77.4766 13.888 76.6233 13.888C76.2819 13.888 76.0473 13.8667 75.9193 13.824C74.8526 13.568 74.3193 12.8213 74.3193 11.584C74.3193 9.87733 75.4926 8.49067 77.8393 7.424C80.2713 6.22933 83.0019 5.632 86.0312 5.632C89.0606 5.632 91.4926 6.72 93.3273 8.896C95.2473 10.9867 96.2073 13.6533 96.2073 16.896C96.2073 21.4613 94.7993 25.3867 91.9833 28.672C90.7886 30.0373 89.4446 31.4667 87.9513 32.96C83.7273 37.0133 80.8473 40.128 79.3113 42.304C81.0179 42.432 83.1086 42.496 85.5833 42.496C89.0819 42.496 92.8793 42.3253 96.9753 41.984C97.6153 42.112 98.1273 42.4107 98.5113 42.88C98.9379 43.3067 99.1513 43.7973 99.1513 44.352C99.1513 45.76 98.3833 46.7627 96.8473 47.36Z" fill="black"/>
<path d="M122.192 12.16C121.168 11.136 119.974 10.624 118.608 10.624C116.091 10.624 113.744 11.712 111.568 13.888C110.971 14.3147 110.352 14.528 109.712 14.528C109.414 14.528 109.094 14.4853 108.752 14.4C107.771 14.0587 107.28 13.376 107.28 12.352C107.28 10.6027 108.39 9.06666 110.608 7.744C112.827 6.42133 115.451 5.76 118.48 5.76C121.51 5.76 124.027 6.57066 126.032 8.192C128.08 9.77066 129.104 11.84 129.104 14.4C129.104 17.1733 128.784 19.3707 128.144 20.992C127.547 22.6133 126.331 23.9573 124.496 25.024C129.019 26.7307 131.28 29.8027 131.28 34.24C131.28 37.952 130.15 41.1947 127.888 43.968C125.67 46.656 122.896 48 119.568 48C116.368 48 113.51 47.232 110.992 45.696C108.518 44.1173 107.28 42.3467 107.28 40.384C107.28 39.9147 107.515 39.4453 107.984 38.976C108.454 38.5067 109.051 38.272 109.776 38.272C110.246 38.272 110.736 38.4213 111.248 38.72C111.76 38.976 112.4 39.4027 113.168 40C114.406 40.896 115.494 41.5787 116.432 42.048C117.414 42.5173 118.48 42.752 119.632 42.752C123.899 42.752 126.032 40.0853 126.032 34.752C126.032 32.6613 125.286 30.9973 123.792 29.76C122.299 28.5227 120.23 27.8827 117.584 27.84L116.304 27.712C115.963 27.6693 115.579 27.456 115.152 27.072C114.768 26.688 114.576 26.176 114.576 25.536C114.576 24 115.43 23.168 117.136 23.04C118.8 22.912 120.315 22.144 121.68 20.736C123.046 19.2853 123.728 17.5147 123.728 15.424C123.728 14.2293 123.216 13.1413 122.192 12.16Z" fill="black"/>
<path d="M157 44.16V40.64L157.128 33.856C155.592 34.112 153.416 34.24 150.6 34.24C147.741 34.24 145.821 33.7707 144.84 32.832C143.816 31.8507 143.304 29.824 143.304 26.752C143.304 23.808 143.539 20.352 144.008 16.384C144.477 12.5867 144.989 9.83467 145.544 8.128C146.141 6.336 147.293 5.44 149 5.44C150.109 5.44 150.771 5.93067 150.984 6.912C150.984 6.99733 150.984 7.33866 150.984 7.936C151.027 8.49066 150.899 9.344 150.6 10.496C149.576 17.9627 149.064 23.3173 149.064 26.56C149.064 27.4987 149.085 28.1387 149.128 28.48C150.152 28.6507 151.133 28.736 152.072 28.736C153.395 28.736 155.101 28.608 157.192 28.352C157.277 27.584 157.32 25.9413 157.32 23.424C157.363 22.8267 157.384 21.9947 157.384 20.928C157.427 19.8187 157.597 19.072 157.896 18.688C158.195 18.304 158.899 18.112 160.008 18.112C161.16 18.112 161.907 18.304 162.248 18.688C162.632 19.072 162.824 19.6907 162.824 20.544L162.632 25.216C162.504 27.5627 162.44 34.2187 162.44 45.184C162.44 47.104 161.501 48.064 159.624 48.064H159.368C157.789 48.064 157 46.7627 157 44.16Z" fill="black"/>
<path d="M11.0208 61.2C11.0208 62.864 11.0848 65.936 11.2128 70.416C13.0048 69.776 14.7328 69.456 16.3968 69.456C17.9754 69.456 19.4901 69.712 20.9408 70.224C23.4154 71.0773 25.4208 72.6133 26.9568 74.832C28.5354 77.008 29.3248 79.8667 29.3248 83.408C29.3248 87.4613 28.1301 90.9173 25.7408 93.776C23.3941 96.592 20.6208 98 17.4208 98C14.3061 98 11.5541 97.296 9.16475 95.888C6.81808 94.4373 5.64475 92.8587 5.64475 91.152C5.64475 90.3413 5.73008 89.744 5.90075 89.36C6.11408 88.9333 6.47675 88.592 6.98875 88.336C7.45808 88.08 7.88475 87.952 8.26875 87.952C8.78075 87.952 9.35675 88.208 9.99675 88.72L13.0048 90.768C14.2848 91.664 15.7568 92.112 17.4208 92.112C19.0848 92.112 20.5567 91.28 21.8368 89.616C23.1168 87.8667 23.7568 86.0107 23.7568 84.048C23.7568 78.288 21.1754 75.408 16.0128 75.408C15.0314 75.408 13.7301 75.5147 12.1088 75.728L9.22875 76.112C8.88742 76.1547 8.29008 76.0053 7.43675 75.664C6.54075 74.8107 6.09275 72.1013 6.09275 67.536C6.09275 63.0987 6.19942 60.1333 6.41275 58.64C6.62608 57.2747 6.98875 56.4853 7.50075 56.272C8.39675 55.888 11.0634 55.696 15.5008 55.696C19.8954 55.696 23.4794 56.1227 26.2528 56.976C27.1061 57.4453 27.5328 58.192 27.5328 59.216C27.5328 60.112 27.2554 60.9013 26.7008 61.584C26.1461 62.224 25.5914 62.4373 25.0368 62.224C21.4954 61.456 17.9328 61.072 14.3488 61.072C13.5808 61.072 12.4714 61.1147 11.0208 61.2Z" fill="black"/>
<path d="M50.8268 67.984C48.5228 72.6773 47.2854 75.408 47.1148 76.176C48.7788 75.7067 50.4214 75.472 52.0428 75.472C54.3041 75.472 56.2241 75.984 57.8028 77.008C60.4481 78.7573 61.7708 81.5733 61.7708 85.456C61.7708 93.904 57.6321 98.1707 49.3548 98.256H49.1628C43.6588 98.256 40.7574 94.3947 40.4588 86.672C40.4588 78.608 43.5094 69.6693 49.6108 59.856C50.5921 58.32 51.4241 57.2533 52.1068 56.656C52.8321 56.0587 53.4721 55.76 54.0268 55.76C54.4108 55.76 54.9014 55.9307 55.4988 56.272C55.9681 56.6133 56.2028 57.0613 56.2028 57.616C56.2028 58.2133 55.8828 58.96 55.2428 59.856C54.6454 60.624 53.1734 63.3333 50.8268 67.984ZM51.6588 80.464C50.0374 80.464 48.8428 80.592 48.0748 80.848C47.4774 81.104 47.0081 81.4453 46.6667 81.872C46.3254 82.256 46.0054 82.8747 45.7068 83.728C45.4508 84.5387 45.3228 85.712 45.3228 87.248C45.3228 88.6987 45.7494 89.9787 46.6028 91.088C47.4561 92.1547 48.4588 92.688 49.6108 92.688C52.0428 92.688 53.8561 91.984 55.0508 90.576C56.3308 89.168 56.9708 87.6107 56.9708 85.904C56.9708 84.1973 56.4801 82.8533 55.4988 81.872C54.5601 80.9333 53.2801 80.464 51.6588 80.464Z" fill="black"/>
<path d="M97.1883 74.384C96.5483 74.768 95.4176 74.9813 93.7963 75.024L90.8523 75.088L90.3403 95.248C90.3403 96.144 90.0416 96.848 89.4443 97.36C88.8469 97.8293 88.1429 98.064 87.3323 98.064C86.1376 98.064 85.5403 96.464 85.5403 93.264C85.5403 86.608 85.7323 80.5067 86.1163 74.96L79.5883 75.344C79.0763 75.3867 78.6069 75.152 78.1803 74.64C77.7536 74.0853 77.5403 73.5307 77.5403 72.976C77.5403 71.4827 78.4363 70.736 80.2283 70.736L86.5003 70.672L87.1403 62.928C85.7749 62.4587 82.0629 61.7333 76.0043 60.752L71.9083 60.048C70.7989 59.8347 70.2443 59.0027 70.2443 57.552C70.2443 56.9973 70.4576 56.5067 70.8843 56.08C71.3536 55.6107 71.9509 55.376 72.6763 55.376C73.6149 55.376 76.8149 55.8453 82.2763 56.784C87.9509 57.68 91.0656 58.4053 91.6203 58.96C91.8763 59.1307 92.0043 59.92 92.0043 61.328C92.0043 62.1387 91.8549 63.8667 91.5563 66.512C91.3856 67.92 91.2363 69.264 91.1083 70.544L94.3083 70.352C94.3936 70.352 94.7989 70.352 95.5243 70.352C96.2496 70.3093 96.8896 70.4587 97.4443 70.8C97.9136 71.1413 98.1483 71.7173 98.1483 72.528C98.1483 73.3813 97.8283 74 97.1883 74.384Z" fill="black"/>
<path d="M127.044 57.744C129.092 59.28 130.116 61.3707 130.116 64.016C130.116 67.8987 128.026 71.248 123.844 74.064C126.276 76.6667 128.004 78.9067 129.028 80.784C130.138 82.8747 130.692 85.3067 130.692 88.08C130.692 90.896 129.647 93.2213 127.556 95.056C125.338 97.0187 122.5 98 119.044 98C115.588 98 112.922 97.1467 111.044 95.44C109.039 93.648 108.036 91.1947 108.036 88.08C108.036 83.0027 110.49 78.5227 115.396 74.64C113.647 73.744 112.068 72.2293 110.66 70.096C109.295 67.9627 108.612 65.7653 108.612 63.504C108.612 61.2 109.551 59.3013 111.428 57.808C113.434 56.2293 116.015 55.44 119.172 55.44C122.372 55.44 124.996 56.208 127.044 57.744ZM119.236 59.92C115.183 60.2613 113.156 61.7333 113.156 64.336C113.156 65.1467 113.391 65.936 113.86 66.704C114.33 67.472 114.863 68.0693 115.46 68.496L117.764 70.096L119.364 71.184L122.116 69.136C122.671 68.6667 123.226 68.112 123.78 67.472C124.378 66.832 124.74 66.2987 124.868 65.872C124.996 65.488 125.06 64.976 125.06 64.336V63.632C125.06 62.608 124.463 61.7547 123.268 61.072C122.116 60.304 120.9 59.92 119.62 59.92H119.236ZM114.372 82.128C113.306 83.8773 112.772 85.6053 112.772 87.312V87.888C112.815 89.5093 113.498 90.7893 114.82 91.728C116.186 92.624 117.935 93.072 120.068 93.072C121.903 93.072 123.268 92.56 124.164 91.536C125.06 90.512 125.487 89.1893 125.444 87.568C125.444 86.0747 124.954 84.5813 123.972 83.088C123.034 81.552 121.434 79.632 119.172 77.328C117.039 78.7787 115.439 80.3787 114.372 82.128Z" fill="black"/>
<path d="M162.434 59.408C162.775 60.176 162.946 61.9253 162.946 64.656L162.882 71.056V83.152L163.01 95.312C163.01 96.0373 162.69 96.656 162.05 97.168C161.453 97.68 160.813 97.936 160.13 97.936C159.618 97.936 159.17 97.68 158.786 97.168C158.445 96.6133 158.253 95.9947 158.21 95.312C157.911 89.4667 157.762 82.9813 157.762 75.856C156.695 77.3067 154.455 78.032 151.042 78.032C148.738 78.032 146.839 76.8373 145.346 74.448C143.853 72.0587 143.106 69.4773 143.106 66.704C143.106 63.0347 144.237 60.24 146.498 58.32C148.759 56.3573 151.661 55.376 155.202 55.376C158.701 55.376 161.111 56.72 162.434 59.408ZM152.706 72.848C155.351 72.1227 157.079 71.44 157.89 70.8V66.192L157.954 63.056C157.954 62.1173 157.869 61.4773 157.698 61.136C157.57 60.752 157.357 60.4747 157.058 60.304C156.759 60.0053 156.333 59.856 155.778 59.856C154.839 59.856 153.517 60.24 151.81 61.008C150.701 61.4773 149.762 62.2453 148.994 63.312C148.269 64.3787 147.906 65.7013 147.906 67.28C147.906 68.8587 148.311 70.2027 149.122 71.312C149.975 72.4213 150.893 72.976 151.874 72.976C152.002 72.976 152.279 72.9333 152.706 72.848Z" fill="black"/>
<path d="M19.0345 122.272C19.7598 122.955 20.1865 123.872 20.3145 125.024C20.3145 125.963 19.9518 126.837 19.2265 127.648C18.5438 128.416 17.7545 128.8 16.8585 128.8C15.8772 128.8 15.0452 128.544 14.3625 128.032C13.6798 127.477 13.3385 126.731 13.3385 125.792C13.3385 124.725 13.6585 123.701 14.2985 122.72C14.9812 121.696 15.7492 121.184 16.6025 121.184C17.5412 121.184 18.3518 121.547 19.0345 122.272ZM13.7225 144.416C13.7225 141.984 14.9812 140.768 17.4985 140.768C17.7972 140.768 18.2238 140.875 18.7785 141.088C19.1198 141.387 19.4612 141.899 19.8025 142.624C20.1438 143.307 20.3145 143.989 20.3145 144.672C20.3145 145.653 19.9518 146.421 19.2265 146.976C18.4585 147.616 17.6692 147.936 16.8585 147.936C16.0052 147.936 15.2585 147.616 14.6185 146.976C14.0212 146.336 13.7225 145.483 13.7225 144.416Z" fill="black"/>
<path d="M53.4363 141.408C54.1189 142.091 54.5243 143.008 54.6523 144.16C54.6523 145.099 54.2896 145.973 53.5642 146.784C52.8816 147.552 52.0923 147.936 51.1963 147.936C50.2149 147.936 49.3829 147.68 48.7003 147.168C48.0176 146.656 47.6763 145.909 47.6763 144.928C47.6763 143.861 48.0176 142.837 48.7003 141.856C49.3829 140.832 50.1509 140.32 51.0043 140.32C51.9429 140.32 52.7536 140.683 53.4363 141.408Z" fill="black"/>
<path d="M79.935 111.264C81.7697 107.637 83.775 105.824 85.951 105.824C87.0603 105.824 87.9563 106.293 88.639 107.232C89.407 108.299 90.3457 110.24 91.455 113.056C94.143 120.053 96.767 130.955 99.327 145.76C99.4123 146.229 99.327 146.741 99.071 147.296C98.815 147.808 98.1323 148.064 97.023 148.064C96.3403 148.064 95.7217 147.893 95.167 147.552C94.655 147.168 94.3137 146.571 94.143 145.76L93.183 140.832C92.159 135.413 91.4763 132.597 91.135 132.384C90.623 132.085 88.9163 131.765 86.015 131.424C82.943 131.083 81.0443 130.912 80.319 130.912C79.3803 130.912 78.8257 130.997 78.655 131.168C77.9297 131.851 76.8843 137.035 75.519 146.72C75.3483 147.531 74.5377 147.936 73.087 147.936C71.6363 147.936 70.911 147.317 70.911 146.08C70.911 143.051 72.0417 137.184 74.303 128.48C76.5217 119.947 78.399 114.208 79.935 111.264ZM88.511 119.136C87.359 114.997 86.4203 112.928 85.695 112.928C85.0977 112.928 83.9883 114.827 82.367 118.624C80.7883 122.336 79.999 124.661 79.999 125.6C79.999 125.813 80.0417 125.963 80.127 126.048C80.4683 126.389 81.8123 126.688 84.159 126.944C86.2923 127.2 87.9563 127.328 89.151 127.328C89.7057 127.328 90.0257 127.285 90.111 127.2C90.1963 127.029 90.239 126.688 90.239 126.176C90.239 125.579 89.663 123.232 88.511 119.136Z" fill="black"/>
<path d="M107.306 143.584C107.263 143.157 107.242 142.453 107.242 141.472C106.943 137.333 106.794 131.403 106.794 123.68C106.794 116.427 106.9 111.563 107.114 109.088C107.327 107.808 108.202 106.933 109.738 106.464C111.316 105.952 113.578 105.696 116.522 105.696C120.49 105.696 123.86 106.571 126.634 108.32C129.407 110.069 130.794 112.608 130.794 115.936C130.794 118.581 130.431 120.864 129.706 122.784C128.98 124.661 127.999 126.069 126.762 127.008C124.927 128.459 122.154 129.184 118.442 129.184C116.735 129.184 114.666 128.971 112.234 128.544V129.888C112.447 138.421 112.532 143.349 112.49 144.672C112.447 146.891 111.7 148 110.25 148C109.439 147.915 108.863 147.765 108.522 147.552C108.223 147.339 108.031 147.061 107.946 146.72C107.86 146.379 107.775 146.165 107.69 146.08C107.604 145.824 107.54 145.461 107.498 144.992C107.455 144.48 107.391 144.011 107.306 143.584ZM116.65 110.496C114.474 110.496 112.98 110.688 112.17 111.072C111.999 114.4 111.914 116.725 111.914 118.048C111.914 119.541 111.999 121.44 112.17 123.744L114.538 124.064C115.647 124.192 116.586 124.256 117.354 124.256C118.463 124.256 119.53 124.192 120.554 124.064C121.407 123.936 121.983 123.744 122.282 123.488C123.562 122.549 124.351 121.717 124.65 120.992C125.204 119.499 125.482 117.877 125.482 116.128C125.482 114.379 124.543 113.013 122.666 112.032C120.788 111.008 118.783 110.496 116.65 110.496Z" fill="black"/>
<path d="M163.665 108.192C164.305 106.315 165.35 105.376 166.801 105.376C167.782 105.376 168.443 106.123 168.785 107.616C168.998 115.381 169.105 122.976 169.105 130.4C169.105 138.165 169.062 142.901 168.977 144.608C168.891 145.931 168.614 146.848 168.145 147.36C167.675 147.829 166.822 148.064 165.585 148.064C164.475 148.064 163.921 147.381 163.921 146.016V131.552C163.921 130.059 163.878 127.648 163.793 124.32L163.665 119.648C162.171 122.165 160.251 124.213 157.905 125.792C155.558 127.371 152.891 128.16 149.905 128.16C146.918 128.16 144.443 126.944 142.481 124.512C142.395 127.925 142.353 130.997 142.353 133.728L142.417 144.992C142.417 145.973 142.075 146.741 141.393 147.296C140.753 147.808 139.942 148.064 138.961 148.064C137.809 148.064 137.233 147.36 137.233 145.952C137.275 143.392 137.297 137.312 137.297 127.712V109.536C137.297 108.768 137.531 108.064 138.001 107.424C138.513 106.741 139.089 106.4 139.729 106.4C140.454 106.4 141.073 106.592 141.585 106.976C142.139 107.36 142.438 107.893 142.481 108.576C142.651 113.141 143.398 116.619 144.721 119.008C146.043 121.397 147.686 122.592 149.649 122.592C151.441 122.592 153.041 122.293 154.449 121.696C155.857 121.056 156.987 120.331 157.841 119.52C158.737 118.667 159.569 117.515 160.337 116.064C161.446 114.059 162.555 111.435 163.665 108.192Z" fill="black"/>
</g>
</svg>
