<svg width="160" height="180" viewBox="0 0 160 180" fill="none" xmlns="http://www.w3.org/2000/svg">
<desc>{"colon":0.25,"dot":0.25}</desc>
<g clip-path="url(#clip0_100_2)">
<path d="M15.6064 51.6963C9.9554 51.6963 6.52441 46.5397 5.31348 36.2266C4.93001 32.957 4.73828 29.3646 4.73828 25.4492C4.73828 21.5339 4.97038 18.123 5.43457 15.2168C5.89876 12.2904 6.60514 9.82812 7.55371 7.83008C9.51139 3.69271 12.3773 1.62402 16.1514 1.62402C20.0264 1.62402 22.8519 3.61198 24.6279 7.58789C26.3031 11.3822 27.1608 17.235 27.2012 25.1465C27.2617 37.9219 25.1325 46.1562 20.8135 49.8496C19.3402 51.0807 17.6045 51.6963 15.6064 51.6963ZM15.5762 48.9717C21.4089 48.9717 24.3252 41.1006 24.3252 25.3584C24.3252 16.4984 23.3665 10.5143 21.4492 7.40625C20.1576 5.32747 18.3916 4.28809 16.1514 4.28809C10.4801 4.28809 7.64453 11.4124 7.64453 25.6611C7.64453 37.8714 9.16829 45.2279 12.2158 47.7305C13.2048 48.5579 14.3249 48.9717 15.5762 48.9717Z" fill="black"/>
<path d="M48.4541 50.8486C47.5257 50.8486 47.0817 50.1523 47.1221 48.7598C47.1826 47.3672 47.2331 45.6214 47.2734 43.5225C47.334 41.4235 47.3844 39.1833 47.4248 36.8018C47.4854 31.2516 47.5156 27.0133 47.5156 24.0869V12.25C47.5156 10.6354 47.5055 9.10156 47.4854 7.64844C47.4854 6.92188 47.4854 6.24577 47.4854 5.62012C47.3239 5.8623 47.1523 6.12467 46.9707 6.40723C46.1029 7.71908 45.5075 8.55664 45.1846 8.91992C44.8818 9.26302 44.4883 9.43457 44.0039 9.43457C43.5195 9.43457 43.1058 9.26302 42.7627 8.91992C42.4196 8.55664 42.248 8.13281 42.248 7.64844C42.248 7.14388 42.5205 6.64941 43.0654 6.16504C43.6305 5.68066 44.0947 5.27702 44.458 4.9541C44.8415 4.63118 45.1644 4.35872 45.4268 4.13672C46.0322 3.5918 46.5872 3.06706 47.0918 2.5625C47.5964 2.03776 48.1312 1.77539 48.6963 1.77539C49.887 1.77539 50.4622 2.42122 50.4219 3.71289C50.2201 9.36393 50.1191 14.0462 50.1191 17.7598V27.3564C50.1191 37.1247 50.1696 44.2793 50.2705 48.8203C50.2907 49.4863 50.109 49.9909 49.7256 50.334C49.3421 50.6771 48.9183 50.8486 48.4541 50.8486Z" fill="black"/>
<path d="M86.5088 14.9443C86.5088 8.1429 84.4603 4.74219 80.3633 4.74219C78.123 4.74219 76.458 5.72103 75.3682 7.67871C74.2985 9.63639 73.8444 12.5124 74.0059 16.3066C74.0059 17.1745 73.6426 17.7396 72.916 18.002C72.7142 18.0625 72.4518 18.0928 72.1289 18.0928C71.8262 18.0928 71.5033 17.9313 71.1602 17.6084C70.8372 17.2653 70.6657 16.7607 70.6455 16.0947C70.5042 11.4528 71.473 7.87044 73.5518 5.34766C75.3682 3.10742 77.7799 1.9873 80.7871 1.9873C85.3483 1.9873 88.1234 4.389 89.1123 9.19238C89.4352 10.7464 89.5967 12.3913 89.5967 14.127C89.5967 15.8424 89.3646 17.3965 88.9004 18.7891C88.4564 20.1615 87.861 21.5238 87.1143 22.876C86.3675 24.2282 85.5199 25.5703 84.5713 26.9023C83.6227 28.2344 82.6439 29.5664 81.6348 30.8984C80.6458 32.2103 79.6771 33.5322 78.7285 34.8643C77.7799 36.1963 76.9323 37.5384 76.1855 38.8906C74.5306 41.8776 73.7031 44.6527 73.7031 47.2158C73.7031 47.7406 73.7939 48.0534 73.9756 48.1543C74.1572 48.2552 74.6315 48.2956 75.3984 48.2754C76.1654 48.235 77.0938 48.1745 78.1836 48.0938C79.2734 48.013 80.3734 47.9323 81.4834 47.8516C84.1071 47.6901 85.9235 47.6497 86.9326 47.7305C88.527 47.8314 89.3242 48.3965 89.3242 49.4258C89.3242 49.8092 89.1829 50.1624 88.9004 50.4854C88.6178 50.7881 88.2041 50.9395 87.6592 50.9395L80.4541 50.8486C77.1038 50.8486 74.7627 50.9092 73.4307 51.0303C72.0986 51.1715 71.2207 51.1009 70.7969 50.8184C70.3932 50.5358 70.1914 50.0312 70.1914 49.3047C70.1914 45.349 71.6042 41.1309 74.4297 36.6504C75.6406 34.7331 76.9424 32.8763 78.335 31.0801C79.7477 29.2637 81.0596 27.4674 82.2705 25.6914C85.096 21.5742 86.5088 17.9919 86.5088 14.9443Z" fill="black"/>
<path d="M101.677 38.3457C101.677 36.61 102.302 35.7422 103.554 35.7422C103.957 35.7422 104.311 35.9238 104.613 36.2871C104.936 36.6302 105.067 37.0742 105.007 37.6191C104.946 38.1641 104.866 38.6383 104.765 39.042C104.684 39.4456 104.644 40.0713 104.644 40.9189C104.644 41.7464 104.785 42.695 105.067 43.7646C105.37 44.8343 105.824 45.7526 106.43 46.5195C107.721 48.1139 109.548 48.9111 111.909 48.9111C114.331 48.9111 116.168 48.013 117.419 46.2168C118.549 44.6426 119.114 42.6042 119.114 40.1016C119.114 37.9219 118.408 36.0247 116.995 34.4102C115.441 32.6543 113.483 31.8369 111.122 31.958C110.476 32.0589 109.992 31.958 109.669 31.6553C109.346 31.3525 109.185 30.9792 109.185 30.5352C109.185 30.071 109.386 29.6068 109.79 29.1426C110.214 28.6784 110.86 28.3656 111.728 28.2041C113.665 27.3564 115.259 25.7923 116.511 23.5117C117.762 21.2109 118.388 18.4661 118.388 15.2773C118.388 12.0684 117.812 9.50521 116.662 7.58789C115.532 5.67057 113.917 4.71191 111.818 4.71191C109.74 4.71191 108.115 5.51921 106.944 7.13379C105.774 8.72819 105.188 11.0794 105.188 14.1875C105.188 14.9141 105.098 15.4489 104.916 15.792C104.734 16.1351 104.391 16.3066 103.887 16.3066C103.402 16.3066 102.979 16.1452 102.615 15.8223C102.272 15.4792 102.101 14.9544 102.101 14.248C102.101 10.2721 103.069 7.16406 105.007 4.92383C106.783 2.86523 109.013 1.83594 111.697 1.83594C117.913 1.83594 121.021 6.38704 121.021 15.4893C121.021 20.3936 119.72 24.4098 117.116 27.5381C116.39 28.4059 115.522 29.1527 114.513 29.7783C116.208 30.0811 117.732 30.9388 119.084 32.3516C120.981 34.3294 121.93 36.8522 121.93 39.9199C121.93 43.3711 120.931 46.2067 118.933 48.4268C116.975 50.5863 114.493 51.666 111.485 51.666C108.619 51.666 106.248 50.5661 104.371 48.3662C102.393 46.0452 101.485 42.9775 101.646 39.1631C101.667 38.8805 101.677 38.6081 101.677 38.3457Z" fill="black"/>
<path d="M150.115 3.4707L149.903 25.752V31.8975L153.778 31.6855C154.444 31.6452 154.939 31.7865 155.262 32.1094C155.585 32.4121 155.746 32.735 155.746 33.0781C155.746 33.4212 155.595 33.734 155.292 34.0166C155.009 34.279 154.687 34.4102 154.323 34.4102C153.96 34.39 153.546 34.3799 153.082 34.3799C152.618 34.3799 152.113 34.39 151.568 34.4102C151.044 34.4102 150.549 34.4102 150.085 34.4102C150.024 34.4303 149.974 34.4404 149.934 34.4404L149.873 37.3164V38.376C149.873 40.4548 149.903 42.4629 149.964 44.4004C150.024 46.3379 150.065 47.8516 150.085 48.9414C150.125 50.0111 149.974 50.7174 149.631 51.0605C149.308 51.4036 148.955 51.5752 148.571 51.5752C148.188 51.5752 147.835 51.4238 147.512 51.1211C147.189 50.8184 147.027 50.3441 147.027 49.6982V48.7598L147.179 39.1934C147.179 37.6393 147.159 36.055 147.118 34.4404L144.363 34.3799L134.191 34.7129C132.839 34.7129 132.163 34.279 132.163 33.4111C132.163 33.0882 132.345 32.5433 132.708 31.7764C133.071 31.0094 133.757 29.6774 134.767 27.7803C135.776 25.863 136.946 23.6126 138.278 21.0293C141.447 14.8132 144.323 8.74837 146.906 2.83496C147.33 1.94694 147.966 1.50293 148.813 1.50293C149.681 1.50293 150.115 2.15885 150.115 3.4707ZM147.33 7.64844C146.321 9.92904 144.938 12.8958 143.183 16.5488C141.063 21.0091 139.651 23.986 138.944 25.4795C137.572 28.4463 136.613 30.626 136.068 32.0186C137.158 32.0589 138.258 32.0791 139.368 32.0791H141.941C142.264 32.0791 142.668 32.0791 143.152 32.0791C143.637 32.0589 144.141 32.0488 144.666 32.0488C145.756 32.0286 146.573 32.0085 147.118 31.9883C147.239 22.6035 147.3 17.7295 147.3 17.3662V15.7617L147.33 11.1602V7.64844Z" fill="black"/>
<path d="M17.332 87.9316C16.3431 87.9316 15.5055 88.0729 14.8193 88.3555C14.1331 88.6178 13.5579 88.9408 13.0938 89.3242C12.3268 89.9902 11.7819 90.6764 11.459 91.3828C10.8535 92.7148 10.127 93.3809 9.2793 93.3809C8.47201 93.3809 7.96745 93.0075 7.76562 92.2607C7.6849 92.0186 7.6748 91.6048 7.73535 91.0195C7.81608 90.4141 7.89681 89.6875 7.97754 88.8398C8.07845 87.9922 8.16927 87.084 8.25 86.1152C8.39128 84.0163 8.46191 81.4935 8.46191 78.5469C8.46191 72.8958 8.29036 67.9512 7.94727 63.7129C7.88672 62.7038 8.32064 62.0983 9.24902 61.8965C9.49121 61.8561 9.76367 61.8561 10.0664 61.8965C10.3893 61.9368 10.8737 61.9772 11.5195 62.0176C12.1654 62.0579 12.8919 62.0781 13.6992 62.0781C16.0807 62.1185 17.8063 62.1387 18.876 62.1387C21.2171 62.1387 22.8721 62.1084 23.8408 62.0479C24.8298 61.9873 25.5059 62.1084 25.8691 62.4111C26.2526 62.7139 26.4443 63.1175 26.4443 63.6221C26.4443 64.1266 26.2324 64.5404 25.8086 64.8633C25.4049 65.1862 24.8298 65.3073 24.083 65.2266C23.3564 65.1458 22.4079 65.0853 21.2373 65.0449C20.0869 64.9844 18.8659 64.944 17.5742 64.9238C16.2826 64.8835 14.9909 64.8633 13.6992 64.8633C12.7507 64.8431 11.8727 64.8229 11.0654 64.8027C11.0654 66.9421 11.0755 68.9098 11.0957 70.7061C11.0957 72.7445 11.0957 74.7425 11.0957 76.7002C11.0553 80.3734 10.9948 84.2686 10.9141 88.3857C12.0241 86.9326 13.6185 85.974 15.6973 85.5098C16.2826 85.3685 16.7367 85.2979 17.0596 85.2979C20.1071 85.2979 22.4684 86.3675 24.1436 88.5068C25.8187 90.6462 26.6562 93.946 26.6562 98.4062C26.6562 102.342 25.6875 105.551 23.75 108.033C21.8529 110.455 19.4512 111.666 16.5449 111.666C13.457 111.666 11.0251 110.657 9.24902 108.639C7.41243 106.54 6.55469 103.724 6.67578 100.192C6.69596 99.5667 6.86751 99.1126 7.19043 98.8301C7.53353 98.5273 7.91699 98.376 8.34082 98.376C8.76465 98.376 9.14811 98.5475 9.49121 98.8906C9.85449 99.2337 10.0059 99.6374 9.94531 100.102C9.88477 100.727 9.85449 101.403 9.85449 102.13C9.85449 102.856 10.016 103.684 10.3389 104.612C10.6618 105.521 11.1159 106.318 11.7012 107.004C12.9727 108.457 14.5872 109.184 16.5449 109.184C19.0072 109.184 20.8841 108.114 22.1758 105.975C23.306 104.077 23.8711 101.585 23.8711 98.4971C23.8711 95.6312 23.2959 93.1891 22.1455 91.1709C20.9144 89.0114 19.3099 87.9316 17.332 87.9316Z" fill="black"/>
<path d="M41.0371 99.3447C41.4206 102.11 42.3389 104.421 43.792 106.277C45.124 107.952 46.4964 108.79 47.9092 108.79C49.3421 108.79 50.5127 108.518 51.4209 107.973C52.3291 107.428 53.0859 106.701 53.6914 105.793C54.9225 103.936 55.5381 101.666 55.5381 98.9814C55.5381 94.5817 54.2767 91.6956 51.7539 90.3232C50.9466 89.8792 50.0485 89.6572 49.0596 89.6572C48.0706 89.6572 47.112 89.9196 46.1836 90.4443C45.2754 90.9489 44.4479 91.6452 43.7012 92.5332C42.0462 94.5111 41.1582 96.7816 41.0371 99.3447ZM40.25 94.0166C40.9967 91.958 42.1068 90.3031 43.5801 89.0518C45.2956 87.5986 46.9909 86.8721 48.666 86.8721C50.3613 86.8721 51.7741 87.1344 52.9043 87.6592C54.0345 88.1637 55.0033 88.9206 55.8105 89.9297C57.5059 92.0892 58.3535 95.1266 58.3535 99.042C58.3535 101.847 57.5866 104.542 56.0527 107.125C54.2363 110.152 51.764 111.666 48.6357 111.666C46.4157 111.666 44.3571 110.788 42.46 109.032C40.6234 107.276 39.3418 104.723 38.6152 101.373C37.8483 97.9421 37.4648 93.7845 37.4648 88.9004C37.4648 84.0163 37.6768 80.1009 38.1006 77.1543C38.5244 74.1875 39.2106 71.5638 40.1592 69.2832C42.2178 64.3587 45.3763 61.8158 49.6348 61.6543C54.1758 61.4525 57.0921 63.7835 58.3838 68.6475C58.8278 70.3226 59.0498 72.3307 59.0498 74.6719C59.0498 75.3581 58.8682 75.8727 58.5049 76.2158C58.1618 76.5387 57.7783 76.7002 57.3545 76.7002C56.9508 76.7002 56.5876 76.5589 56.2646 76.2764C55.9619 75.9736 55.8307 75.5094 55.8711 74.8838C56.1536 69.5153 54.9528 66.1751 52.2686 64.8633C51.4613 64.4798 50.4521 64.2881 49.2412 64.2881C48.0303 64.2881 46.8698 64.7624 45.7598 65.7109C44.6497 66.6595 43.7012 68.0521 42.9141 69.8887C41.36 73.4609 40.4215 78.7285 40.0986 85.6914C40.0179 87.5684 40.0381 89.748 40.1592 92.2305C40.1995 92.8561 40.2298 93.4515 40.25 94.0166Z" fill="black"/>
<path d="M71.8867 62.1387L79.0615 62.2598C81.7054 62.2598 84.4098 62.1488 87.1748 61.9268C88.7692 61.7451 89.5664 62.3607 89.5664 63.7734C89.5664 65.1458 88.7995 68.2943 87.2656 73.2188C85.752 78.123 84.6419 81.7458 83.9355 84.0869C83.2493 86.4079 82.5732 88.7591 81.9072 91.1406C81.2412 93.5221 80.6559 95.8229 80.1514 98.043C79.0212 102.947 78.4964 106.701 78.5771 109.305C78.5771 110.132 78.1937 110.687 77.4268 110.97C76.5186 111.313 75.903 111.202 75.5801 110.637C75.2572 110.051 75.1562 109.163 75.2773 107.973C75.4186 106.762 75.7012 105.127 76.125 103.068C76.5488 100.99 77.0433 98.8503 77.6084 96.6504C78.1937 94.4303 78.8092 92.2002 79.4551 89.96C80.1211 87.6995 80.7871 85.5098 81.4531 83.3906C82.1191 81.2513 82.765 79.223 83.3906 77.3057C84.0163 75.3883 84.5713 73.6628 85.0557 72.1289C86.085 68.7383 86.5996 66.7201 86.5996 66.0742C86.5996 65.4082 86.4987 65.0247 86.2969 64.9238C86.1152 64.8027 85.6712 64.7826 84.9648 64.8633C84.2786 64.9238 83.4613 64.9945 82.5127 65.0752C81.5843 65.1559 80.6357 65.2266 79.667 65.2871C77.7497 65.4082 76.2562 65.4688 75.1865 65.4688C73.471 65.4688 72.3509 65.4183 71.8262 65.3174C71.3014 65.2165 70.8978 64.9945 70.6152 64.6514C70.3529 64.3083 70.2217 63.945 70.2217 63.5615C70.2217 63.1781 70.3529 62.8451 70.6152 62.5625C70.8978 62.2799 71.3216 62.1387 71.8867 62.1387Z" fill="black"/>
<path d="M111.879 108.82C113.09 108.82 114.129 108.568 114.997 108.063C115.885 107.539 116.612 106.842 117.177 105.975C118.287 104.299 118.842 102.201 118.842 99.6777C118.842 97.4779 118.176 95.6009 116.844 94.0469C115.471 92.4323 113.685 91.625 111.485 91.625C109.427 91.625 107.742 92.4424 106.43 94.0771C105.219 95.611 104.613 97.498 104.613 99.7383C104.613 102.201 105.229 104.289 106.46 106.005C107.792 107.882 109.598 108.82 111.879 108.82ZM118.933 75.8223C118.933 72.0482 118.368 69.1823 117.237 67.2246C116.127 65.2467 114.321 64.2578 111.818 64.2578C109.336 64.2578 107.429 65.2367 106.097 67.1943C104.785 69.152 104.129 72.0785 104.129 75.9736C104.129 79.5661 104.815 82.5833 106.188 85.0254C107.62 87.5684 109.477 88.8398 111.758 88.8398C114.059 88.8398 115.855 87.5684 117.146 85.0254C118.337 82.6439 118.933 79.5762 118.933 75.8223ZM107.55 90.0508C104.825 88.7591 102.928 85.8327 101.858 81.2715C101.435 79.4551 101.223 77.7194 101.223 76.0645C101.223 71.2005 102.121 67.5576 103.917 65.1357C105.713 62.7139 108.337 61.5029 111.788 61.5029C115.259 61.5029 117.823 62.7139 119.478 65.1357C121.153 67.5576 121.99 71.2005 121.99 76.0645C121.99 78.7083 121.465 81.3926 120.416 84.1172C119.326 86.9831 117.762 89.0013 115.724 90.1719C119.639 91.5846 121.597 94.945 121.597 100.253C121.597 103.482 120.709 106.156 118.933 108.275C117.056 110.536 114.573 111.666 111.485 111.666C108.72 111.666 106.41 110.576 104.553 108.396C102.696 106.197 101.768 103.502 101.768 100.313C101.768 96.1357 103.18 93.0479 106.006 91.0498C106.51 90.6865 107.025 90.3535 107.55 90.0508Z" fill="black"/>
<path d="M151.871 78.6074C151.871 76.4076 151.7 74.4398 151.356 72.7041C151.013 70.9684 150.509 69.485 149.843 68.2539C148.45 65.6706 146.503 64.3789 144 64.3789C141.699 64.3789 139.832 65.7513 138.399 68.4961C137.067 71.0391 136.401 73.7435 136.401 76.6094C136.401 79.4753 136.543 81.8467 136.825 83.7236C137.108 85.6006 137.542 87.195 138.127 88.5068C139.338 91.2314 141.144 92.5938 143.546 92.5938C145.968 92.5938 147.946 91.3727 149.479 88.9307C151.074 86.3877 151.871 82.9466 151.871 78.6074ZM152.144 87.9014C150.408 92.8057 147.562 95.2578 143.606 95.2578C140.357 95.2578 137.844 93.7845 136.068 90.8379C134.292 87.8711 133.404 83.3805 133.404 77.3662C133.404 73.7536 134.201 70.4134 135.796 67.3457C137.713 63.5716 140.418 61.6846 143.909 61.6846C147.925 61.6846 150.751 63.3698 152.386 66.7402C154 70.0299 154.808 75.6104 154.808 83.4814C154.808 92.8864 154.091 99.7887 152.658 104.188C151.044 109.174 148.329 111.666 144.515 111.666C142.133 111.666 140.024 110.687 138.188 108.729C136.149 106.55 135.049 103.674 134.888 100.102C134.847 99.4154 134.979 98.9108 135.281 98.5879C135.604 98.265 135.937 98.1035 136.28 98.1035C136.623 98.1035 136.946 98.2549 137.249 98.5576C137.552 98.8402 137.733 99.5062 137.794 100.556C137.875 101.605 138.117 102.695 138.521 103.825C138.924 104.935 139.429 105.874 140.034 106.641C141.245 108.154 142.739 108.911 144.515 108.911C147.885 108.911 150.186 105.369 151.417 98.2852C151.901 95.4193 152.144 92.3717 152.144 89.1426V87.9014Z" fill="black"/>
<path d="M17.7559 149.718C18.0182 149.92 18.2301 150.182 18.3916 150.505C18.5531 150.828 18.6338 151.221 18.6338 151.686C18.6338 152.15 18.543 152.553 18.3613 152.896C18.1797 153.219 17.9476 153.482 17.665 153.684C17.1201 154.047 16.4743 154.229 15.7275 154.229C14.6579 154.229 13.891 153.744 13.4268 152.775C13.2855 152.452 13.2148 152.079 13.2148 151.655C13.2148 150.444 13.8001 149.637 14.9707 149.233C15.2936 149.132 15.6064 149.082 15.9092 149.082C16.2321 149.082 16.555 149.132 16.8779 149.233C17.2008 149.334 17.4935 149.496 17.7559 149.718ZM17.7559 167.216C18.0182 167.418 18.2301 167.68 18.3916 168.003C18.5531 168.326 18.6338 168.719 18.6338 169.184C18.6338 169.648 18.543 170.051 18.3613 170.395C18.1797 170.717 17.9476 170.98 17.665 171.182C17.1201 171.545 16.4743 171.727 15.7275 171.727C14.6579 171.727 13.891 171.242 13.4268 170.273C13.2855 169.951 13.2148 169.577 13.2148 169.153C13.2148 167.942 13.8001 167.135 14.9707 166.731C15.2936 166.631 15.6064 166.58 15.9092 166.58C16.2321 166.58 16.555 166.631 16.8779 166.731C17.2008 166.832 17.4935 166.994 17.7559 167.216Z" fill="black"/>
<path d="M49.7559 167.428C50.0182 167.63 50.2301 167.892 50.3916 168.215C50.5531 168.538 50.6338 168.931 50.6338 169.396C50.6338 169.86 50.543 170.263 50.3613 170.606C50.1797 170.929 49.9476 171.192 49.665 171.394C49.1201 171.757 48.4743 171.938 47.7275 171.938C46.6579 171.938 45.891 171.454 45.4268 170.485C45.2855 170.162 45.2148 169.789 45.2148 169.365C45.2148 168.154 45.8001 167.347 46.9707 166.943C47.2936 166.842 47.6064 166.792 47.9092 166.792C48.2321 166.792 48.555 166.842 48.8779 166.943C49.2008 167.044 49.4935 167.206 49.7559 167.428Z" fill="black"/>
<path d="M79.7881 121.927C80.2725 121.927 80.7165 122.129 81.1201 122.532C81.5238 122.936 81.8366 123.784 82.0586 125.075C82.3008 126.347 82.654 128.173 83.1182 130.555C83.6025 132.936 84.1374 135.479 84.7227 138.184C85.3079 140.888 85.9235 143.683 86.5693 146.569C87.2152 149.435 87.861 152.22 88.5068 154.925C90.0609 161.262 91.2718 165.894 92.1396 168.82C92.3415 169.567 92.2809 170.162 91.958 170.606C91.6553 171.05 91.3122 171.272 90.9287 171.272C90.5452 171.272 90.1921 171.161 89.8691 170.939C89.5664 170.717 89.2939 170.062 89.0518 168.972C88.8096 167.882 88.416 166.116 87.8711 163.674C87.3262 161.232 86.7409 158.608 86.1152 155.803C86.0951 155.682 86.0749 155.571 86.0547 155.47C84.6823 155.409 82.7448 155.379 80.2422 155.379C77.2956 155.379 75.0452 155.419 73.4912 155.5C73.471 155.621 73.4508 155.742 73.4307 155.863C72.1995 161.797 71.2913 166.388 70.7061 169.638C70.5042 170.667 69.9694 171.182 69.1016 171.182C68.1934 171.182 67.6383 170.738 67.4365 169.85C67.376 169.587 67.4365 169.174 67.6182 168.608C67.7998 168.043 68.0622 167.075 68.4053 165.702C68.7686 164.31 69.152 162.725 69.5557 160.949C69.9795 159.153 70.4235 157.195 70.8877 155.076C71.3519 152.957 71.8262 150.777 72.3105 148.537C72.7949 146.297 73.2793 144.047 73.7637 141.786C74.248 139.506 74.7122 137.306 75.1562 135.187C75.6003 133.067 76.014 131.079 76.3975 129.223C76.8011 127.366 77.124 125.893 77.3662 124.803C77.7497 122.885 78.557 121.927 79.7881 121.927ZM74.0664 152.685C75.6003 152.765 77.6689 152.806 80.2725 152.806C82.432 152.806 84.1576 152.775 85.4492 152.715C85.0254 150.878 84.6016 148.991 84.1777 147.054C83.5117 144.047 82.876 141.13 82.2705 138.305C81.2614 133.683 80.3936 129.626 79.667 126.135C79.2028 128.456 78.5368 131.614 77.6689 135.61C76.5387 140.938 75.681 144.995 75.0957 147.78C74.7526 149.455 74.4095 151.09 74.0664 152.685Z" fill="black"/>
<path d="M107.065 157.649C107.227 162.513 107.348 166.257 107.429 168.881C107.449 169.567 107.277 170.082 106.914 170.425C106.571 170.748 106.188 170.909 105.764 170.909C105.36 170.909 104.997 170.758 104.674 170.455C104.351 170.132 104.189 169.628 104.189 168.941V162.1L104.159 152.715V144.299C104.159 138.809 104.109 135.318 104.008 133.824C103.927 132.331 103.867 131.201 103.826 130.434C103.786 129.667 103.735 128.89 103.675 128.103C103.614 127.295 103.554 126.508 103.493 125.741C103.453 124.974 103.503 124.45 103.645 124.167C103.806 123.884 103.998 123.683 104.22 123.562C104.442 123.42 104.674 123.329 104.916 123.289C105.158 123.249 105.673 123.128 106.46 122.926C108.942 122.32 111.142 122.018 113.06 122.018C114.977 122.018 116.602 122.26 117.934 122.744C119.266 123.229 120.406 123.965 121.354 124.954C123.373 127.033 124.382 130 124.382 133.854C124.382 139.102 122.545 143.915 118.872 148.295C115.905 151.827 111.97 154.945 107.065 157.649ZM106.975 154.773C116.723 149.486 121.597 142.604 121.597 134.127C121.597 129.465 119.982 126.468 116.753 125.136C114.351 124.147 111.435 124.238 108.004 125.408C107.6 125.549 107.217 125.691 106.854 125.832C106.712 129.364 106.642 132.997 106.642 136.73V145.873C106.642 146.257 106.652 146.63 106.672 146.993C106.692 147.356 106.702 147.75 106.702 148.174C106.722 148.577 106.743 149.112 106.763 149.778C106.803 150.424 106.843 151.242 106.884 152.23C106.904 152.937 106.934 153.785 106.975 154.773Z" fill="black"/>
<path d="M158.834 133.037L158.864 143.966C158.864 151.595 159.026 159.98 159.349 169.123C159.369 169.769 159.197 170.243 158.834 170.546C158.491 170.849 158.097 171 157.653 171C157.209 171 156.806 170.828 156.442 170.485C156.079 170.142 155.897 169.648 155.897 169.002C156.2 159.92 156.352 152.352 156.352 146.297V130.615C156.352 129.445 156.341 128.345 156.321 127.315C155.877 129.031 155.302 131.261 154.596 134.006C152.981 140.04 151.851 144.218 151.205 146.539C150.559 148.84 149.913 151.11 149.268 153.351C147.936 157.972 146.694 162.029 145.544 165.521C145.423 165.924 145.181 166.227 144.817 166.429C144.474 166.631 144.141 166.731 143.818 166.731C143.193 166.731 142.769 166.328 142.547 165.521C142.446 165.198 142.204 164.421 141.82 163.189C141.457 161.938 140.993 160.404 140.428 158.588C139.883 156.751 139.267 154.703 138.581 152.442C137.915 150.162 137.219 147.831 136.492 145.449C135.786 143.068 135.09 140.706 134.403 138.365C133.717 136.024 133.091 133.865 132.526 131.887C132.062 130.252 131.669 128.839 131.346 127.648L131.406 135.156C131.406 144.299 131.497 151.857 131.679 157.831C131.881 163.805 131.992 167.276 132.012 168.245C132.032 169.214 131.981 169.809 131.86 170.031C131.759 170.253 131.618 170.435 131.437 170.576C130.649 171.242 129.872 171.222 129.105 170.516C128.742 170.173 128.581 169.567 128.621 168.699C128.682 167.831 128.732 166.752 128.772 165.46C128.813 164.148 128.843 162.766 128.863 161.312C128.944 157.882 128.984 154.703 128.984 151.776L128.621 124.228C128.621 123.319 128.833 122.684 129.257 122.32C129.681 121.937 130.175 121.745 130.74 121.745C131.81 121.745 132.547 122.391 132.95 123.683C132.991 123.804 133.091 124.167 133.253 124.772C133.435 125.358 133.667 126.135 133.949 127.104C134.232 128.052 134.555 129.162 134.918 130.434C135.301 131.685 135.705 133.037 136.129 134.49C136.553 135.943 136.997 137.467 137.461 139.062C139.076 144.612 141.306 152.21 144.151 161.857C145.645 157.599 148.4 147.942 152.416 132.886C153.203 129.899 153.99 126.851 154.777 123.743C155.141 122.351 155.978 121.654 157.29 121.654C157.815 121.654 158.229 121.917 158.531 122.441C158.854 122.946 158.995 123.683 158.955 124.651C158.874 126.004 158.834 128.799 158.834 133.037Z" fill="black"/>
</g>
</svg>
