<svg width="260" height="156" viewBox="0 0 260 156" fill="none" xmlns="http://www.w3.org/2000/svg">
<g clip-path="url(#clip0_100_2)">
<path d="M13 45.5V39H6.5V32.5H0V13H6.5V6.5H13V0H32.5V6.5H39V13H45.5V32.5H39V39H32.5V45.5H13ZM19.5 39H32.5V13H26V6.5H13V32.5H19.5V39Z" fill="black"/>
<path d="M58.5 45.5V39H71.5V13H65V6.5H71.5V0H84.5V39H97.5V45.5H58.5Z" fill="black"/>
<path d="M104 45.5V32.5H110.5V26H117V19.5H130V13H136.5V6.5H117V13H104V6.5H110.5V0H143V6.5H149.5V19.5H143V26H136.5V32.5H123.5V39H149.5V45.5H104Z" fill="black"/>
<path d="M162.5 45.5V39H156V32.5H169V39H188.5V26H169V19.5H175.5V13H182V6.5H162.5V0H201.5V6.5H195V13H188.5V19.5H195V26H201.5V39H195V45.5H162.5Z" fill="black"/>
<path d="M234 45.5V32.5H208V19.5H214.5V13H221V6.5H227.5V0H247V26H253.5V32.5H247V45.5H234ZM221 26H234V13H227.5V19.5H221V26Z" fill="black"/>
<path d="M6.5 97.5V91H0V84.5H13V91H32.5V71.5H0V52H39V58.5H13V65H39V71.5H45.5V91H39V97.5H6.5Z" fill="black"/>
<path d="M58.5 97.5V91H52V65H58.5V58.5H65V52H91V58.5H71.5V65H65V71.5H91V78H97.5V91H91V97.5H58.5ZM65 91H84.5V78H65V91Z" fill="black"/>
<path d="M117 97.5V78H123.5V71.5H130V65H136.5V58.5H117V65H104V52H149.5V65H143V71.5H136.5V78H130V97.5H117Z" fill="black"/>
<path d="M162.5 97.5V91H156V78H162.5V71.5H156V58.5H162.5V52H188.5V58.5H195V71.5H188.5V78H201.5V91H195V97.5H162.5ZM175.5 71.5H188.5V58.5H169V65H175.5V71.5ZM162.5 91H188.5V84.5H175.5V78H162.5V91Z" fill="black"/>
<path d="M214.5 97.5V91H234V84.5H240.5V78H214.5V71.5H208V58.5H214.5V52H247V58.5H253.5V84.5H247V91H240.5V97.5H214.5ZM221 71.5H240.5V58.5H221V71.5Z" fill="black"/>
<path d="M13 123.5V110.5H26V123.5H13ZM13 143V130H26V143H13Z" fill="black"/>
<path d="M65 149.5V136.5H78V149.5H65Z" fill="black"/>
<path d="M104 149.5V117H110.5V110.5H117V104H136.5V110.5H143V117H149.5V149.5H136.5V136.5H117V149.5H104ZM117 130H136.5V117H130V110.5H123.5V117H117V130Z" fill="black"/>
<path d="M156 149.5V104H195V110.5H201.5V130H195V136.5H169V149.5H156ZM169 130H188.5V110.5H169V130Z" fill="black"/>
<path d="M208 149.5V104H221V110.5H227.5V117H234V110.5H240.5V104H253.5V149.5H240.5V123.5H234V136.5H227.5V123.5H221V149.5H208Z" fill="black"/>
</g>
</svg>
