<svg width="360" height="162" viewBox="0 0 360 162" fill="none" xmlns="http://www.w3.org/2000/svg">
<desc>{"char":0.65,"colon":0.35,"dot":0.35}</desc>
<g clip-path="url(#clip0_100_2)">
<path d="M58.6868 20.76V21.36H52.1468C52.1468 21.4 52.1468 21.44 52.1468 21.48C52.1868 21.52 52.2068 21.58 52.2068 21.66H56.4068V21.96H54.8468C54.8868 22.12 54.9068 22.32 54.9068 22.56C54.9068 22.76 54.9068 22.96 54.9068 23.16H54.7268V24.06H52.0268V24.96H54.4868V25.86H55.1468V26.76H54.9668V27.66H52.8668V28.86H56.0468V30.06H52.9868L52.9268 30.66H54.1868C54.1868 30.82 54.1868 30.98 54.1868 31.14C54.1868 31.26 54.1668 31.4 54.1268 31.56H54.9068C54.8668 31.64 54.8468 31.74 54.8468 31.86C54.8468 31.98 54.8468 32.08 54.8468 32.16H56.0468V33.06H57.6068V33.24C57.5668 33.4 57.5468 33.56 57.5468 33.72C57.5468 33.88 57.5268 34.06 57.4868 34.26H57.3068L57.2468 34.86H53.8268C53.7868 35.06 53.7468 35.26 53.7068 35.46C53.7068 35.66 53.6668 35.86 53.5868 36.06H55.7468L55.5668 36.96H54.1268L53.7668 38.16H52.8068L52.4468 39.06H51.2468C51.1668 39.26 51.0668 39.46 50.9468 39.66C50.8668 39.86 50.7668 40.06 50.6468 40.26H49.0268C48.9068 40.46 48.7868 40.66 48.6668 40.86C48.5468 41.06 48.4268 41.26 48.3068 41.46H51.3668C51.2068 41.66 51.0468 41.86 50.8868 42.06C50.7668 42.26 50.6268 42.46 50.4668 42.66H51.0668L50.7668 42.96H51.9668L51.4268 43.56H49.3268L48.7268 44.16H47.7668C47.2468 44.6 46.7268 45 46.2068 45.36H42.1868L40.6868 46.26H45.9068C45.2268 46.62 44.5468 46.92 43.8668 47.16H45.6668C45.1468 47.32 44.6268 47.48 44.1068 47.64C43.5868 47.8 43.0468 47.94 42.4868 48.06H42.6068C42.3268 48.1 42.0268 48.14 41.7068 48.18C41.4268 48.26 41.1268 48.32 40.8068 48.36H46.9268C46.3668 48.44 45.7668 48.5 45.1268 48.54C44.5268 48.58 43.8868 48.6 43.2068 48.6C42.5668 48.6 41.9268 48.58 41.2868 48.54C40.6868 48.5 40.1068 48.44 39.5468 48.36H33.3668C33.0868 48.32 32.7868 48.26 32.4668 48.18C32.1868 48.14 31.8868 48.1 31.5668 48.06H31.5068C30.3068 47.82 29.2468 47.52 28.3268 47.16H26.5268C25.8068 46.92 25.1468 46.62 24.5468 46.26H19.3268C19.0468 46.1 18.7668 45.96 18.4868 45.84C18.2468 45.68 18.0068 45.52 17.7668 45.36H21.7868C21.2668 45 20.7468 44.6 20.2268 44.16H21.1868L20.5868 43.56H22.6268L22.0868 42.96H20.8868C20.7668 42.84 20.6868 42.74 20.6468 42.66H20.0468C19.7268 42.34 19.4268 41.94 19.1468 41.46H16.0268C15.9068 41.26 15.7868 41.06 15.6668 40.86C15.5468 40.66 15.4268 40.46 15.3068 40.26H16.9268C16.8468 40.06 16.7468 39.86 16.6268 39.66C16.5068 39.46 16.4068 39.26 16.3268 39.06H17.5868C17.4268 38.74 17.3068 38.44 17.2268 38.16H18.1268L17.7668 36.96H19.1468C19.1068 36.8 19.0668 36.66 19.0268 36.54C18.9868 36.38 18.9468 36.22 18.9068 36.06H19.5068C19.4668 35.86 19.4268 35.66 19.3868 35.46C19.3868 35.26 19.3468 35.06 19.2668 34.86H16.9268L16.8668 34.26H16.0268L15.9068 33.24V33.06H19.5068C19.4668 32.9 19.4468 32.76 19.4468 32.64C19.4468 32.48 19.4468 32.32 19.4468 32.16H16.9268L16.8668 31.56H17.1068C17.0668 31.4 17.0468 31.26 17.0468 31.14C17.0468 30.98 17.0468 30.82 17.0468 30.66H16.3868L16.3268 30.06H16.2668C16.2668 29.86 16.2468 29.66 16.2068 29.46C16.2068 29.26 16.2068 29.06 16.2068 28.86H15.9668C15.9668 28.66 15.9468 28.46 15.9068 28.26C15.9068 28.06 15.9068 27.86 15.9068 27.66H16.2668V26.76H17.2868V25.86H16.6268V24.96H16.4468V24.06H13.9868C14.0268 23.9 14.0468 23.76 14.0468 23.64C14.0468 23.48 14.0468 23.32 14.0468 23.16H17.5868V21.96H18.0668C18.1068 21.88 18.1268 21.78 18.1268 21.66H22.6268V21.36H18.9668L19.0268 20.76H17.6468L17.7068 20.52C17.7068 20.24 17.7268 20.02 17.7668 19.86H17.0468C17.0868 19.7 17.1068 19.56 17.1068 19.44C17.1068 19.28 17.1268 19.12 17.1668 18.96H17.3468C17.3868 18.88 17.4068 18.78 17.4068 18.66C17.4068 18.54 17.4268 18.44 17.4668 18.36H18.2468C18.2868 18.2 18.3268 18.06 18.3668 17.94C18.4068 17.78 18.4468 17.62 18.4868 17.46H14.8268C14.9068 17.3 14.9668 17.16 15.0068 17.04C15.0468 16.88 15.0868 16.72 15.1268 16.56H16.0268L16.3868 15.66H9.8468L10.3868 14.46H13.6268L13.7468 14.16H16.5668C16.7268 13.76 16.9468 13.36 17.2268 12.96H15.6068L15.7868 12.66H18.0068C18.1668 12.46 18.3068 12.26 18.4268 12.06C18.5868 11.82 18.7468 11.62 18.9068 11.46H20.7068C20.7868 11.38 20.8668 11.28 20.9468 11.16C21.0668 11.04 21.1668 10.94 21.2468 10.86H21.4268C21.5468 10.78 21.6468 10.68 21.7268 10.56C21.8468 10.44 21.9468 10.34 22.0268 10.26H21.7868L22.8668 9.36H22.9868L24.2468 8.46H24.3068L25.3868 7.86C25.4668 7.78 25.5468 7.72 25.6268 7.68C25.7468 7.64 25.8668 7.6 25.9868 7.56H24.7868C24.8668 7.48 24.9668 7.42 25.0868 7.38C25.2068 7.34 25.3068 7.3 25.3868 7.26H25.9868C26.2268 7.14 26.4668 7.04 26.7068 6.96C26.9868 6.84 27.2468 6.74 27.4868 6.66H27.9668C28.1268 6.58 28.2668 6.52 28.3868 6.48C28.5468 6.44 28.7068 6.4 28.8668 6.36H28.7468C28.9468 6.28 29.1268 6.22 29.2868 6.18C29.4868 6.14 29.6868 6.1 29.8868 6.06H30.0068C30.9268 5.86 31.8668 5.7 32.8268 5.58C33.8268 5.46 34.8668 5.4 35.9468 5.4C37.9868 5.4 39.9468 5.62 41.8268 6.06H41.7068C41.9068 6.1 42.1068 6.14 42.3068 6.18C42.5068 6.22 42.6868 6.28 42.8468 6.36H43.0268C43.1868 6.4 43.3268 6.44 43.4468 6.48C43.6068 6.52 43.7668 6.58 43.9268 6.66H43.5068C43.7868 6.74 44.0468 6.84 44.2868 6.96C44.5668 7.04 44.8268 7.14 45.0668 7.26H44.4668L45.1268 7.56H46.3268C46.4068 7.6 46.4868 7.64 46.5668 7.68C46.6868 7.72 46.8068 7.78 46.9268 7.86H46.8668L47.9468 8.46H47.8268C48.0668 8.62 48.2868 8.78 48.4868 8.94C48.7268 9.06 48.9468 9.2 49.1468 9.36H49.0268C49.2268 9.52 49.4068 9.68 49.5668 9.84C49.7268 9.96 49.8868 10.1 50.0468 10.26H50.2868C50.4068 10.34 50.5068 10.44 50.5868 10.56C50.7068 10.68 50.8068 10.78 50.8868 10.86H50.7068L51.2468 11.46H49.5068C49.6668 11.62 49.8068 11.82 49.9268 12.06C50.0868 12.26 50.2468 12.46 50.4068 12.66H48.1868L48.3668 12.96H50.0468C50.1668 13.12 50.2868 13.32 50.4068 13.56C50.5268 13.76 50.6468 13.96 50.7668 14.16H47.9468L48.1268 14.46H44.8868L45.4268 15.66H51.9068L52.2668 16.56H51.3068C51.3468 16.72 51.3868 16.88 51.4268 17.04C51.4668 17.16 51.5068 17.3 51.5468 17.46H51.0668L51.2468 18.36H54.0668C54.1468 18.6 54.1868 18.8 54.1868 18.96H54.6068C54.6468 19.12 54.6668 19.28 54.6668 19.44C54.7068 19.56 54.7268 19.7 54.7268 19.86H55.1468C55.1868 20.02 55.2068 20.24 55.2068 20.52C55.2068 20.64 55.2268 20.72 55.2668 20.76H58.6868ZM33.1868 16.98C32.5468 16.98 31.9668 17.14 31.4468 17.46H34.9268C34.4868 17.14 33.9068 16.98 33.1868 16.98ZM43.0868 21.36C43.0868 21.16 43.0668 21 43.0268 20.88V20.76H39.6068C39.6068 20.6 39.5868 20.46 39.5468 20.34C39.5468 20.18 39.5268 20.02 39.4868 19.86H39.0668C39.0268 19.7 38.9868 19.56 38.9468 19.44C38.9468 19.28 38.9068 19.12 38.8268 18.96H38.4068C38.3668 18.8 38.2668 18.6 38.1068 18.36H35.2868C35.2068 18.24 35.1268 18.12 35.0468 18C34.9668 17.88 34.8668 17.78 34.7468 17.7C34.5468 17.9 34.3868 18.12 34.2668 18.36H33.4268C33.3868 18.44 33.3468 18.54 33.3068 18.66C33.2668 18.74 33.2068 18.84 33.1268 18.96H32.9468C32.9068 19.12 32.8668 19.28 32.8268 19.44C32.7868 19.56 32.7468 19.7 32.7068 19.86H33.4268C33.3868 20.02 33.3468 20.18 33.3068 20.34C33.3068 20.46 33.3068 20.6 33.3068 20.76H34.6268V21.36H43.0868ZM40.8068 21.96C40.8068 21.84 40.7868 21.74 40.7468 21.66H33.7268V21.96H33.2468C33.2468 22.12 33.2268 22.32 33.1868 22.56C33.1868 22.76 33.1868 22.96 33.1868 23.16H29.6468V24.06H32.1068C32.1068 24.22 32.0868 24.38 32.0468 24.54C32.0468 24.66 32.0468 24.8 32.0468 24.96H32.2868V25.86H32.9468V26.76H31.9268V27.66H31.5668V28.86H31.8668V30.06H31.9868V30.66H32.7068V31.56H32.5268V32.16H35.0468C35.0868 32.28 35.1068 32.42 35.1068 32.58C35.1068 32.7 35.1068 32.82 35.1068 32.94V33.06H31.5068L31.6868 34.26H32.5268L32.7068 34.86H35.0468C35.2468 35.38 35.5068 35.78 35.8268 36.06H35.2268C35.7468 36.58 36.4468 36.84 37.3268 36.84C38.2468 36.84 38.9668 36.58 39.4868 36.06H37.3268C37.6068 35.78 37.8468 35.38 38.0468 34.86H41.4668L41.6468 34.26H41.8268L42.0068 33.06H40.3868V32.94C40.4268 32.82 40.4468 32.7 40.4468 32.58C40.4468 32.42 40.4468 32.28 40.4468 32.16H39.2468V31.56H38.5268V30.66H37.3268V30.06H40.3868V28.86H37.2068V27.66H39.3068V26.76H39.4868V25.86H38.8868V24.96H36.3668V24.06H39.0668V23.16H39.2468V21.96H40.8068Z" fill="black"/>
<path d="M131.801 19.26H125.561V19.86H126.101V20.46H123.821V21.66H120.761V22.26H122.321V22.86H122.441V23.46H121.121V24.66H121.061V25.56H122.021V26.76H119.681V27.66H121.301V28.56H122.201V29.76H117.521V30.36H115.301V31.56H123.041V31.86H117.641V33.06H123.761V33.66H116.741V34.56H121.601V35.76H121.541V36.96H122.081V37.56H122.981V38.46H123.821V39.36H123.101V40.26H121.421V41.16H121.361V42.36H121.301V42.66H120.821V43.86H121.061V44.16H121.541V44.46H122.321V45.66H123.221V46.38C123.221 46.58 123.201 46.74 123.161 46.86H123.281C123.201 47.22 122.981 47.52 122.621 47.76H121.001C120.801 47.92 120.521 48 120.161 48H108.401C108.041 48 107.761 47.92 107.561 47.76H109.121C108.841 47.56 108.621 47.26 108.461 46.86H108.281C108.281 46.78 108.261 46.7 108.221 46.62C108.221 46.54 108.221 46.46 108.221 46.38V45.66H107.321V44.46H106.541V44.16H106.061V43.86H105.821V42.66H106.301V42.36H106.361V41.16H106.421V40.26H108.101V39.36H108.821V38.46H107.981V37.56H107.081V36.96H106.541V35.76H106.601V34.56H101.741V33.66H108.761V33.06H102.641V31.86H108.041V31.56H100.301V30.36H102.521V29.76H107.201V28.56H106.301V27.66H104.681V26.76H107.021V25.56H106.061V24.66H106.121V23.46H107.441V22.86H107.321V22.68L107.081 22.86H106.481L105.701 23.46H104.501L102.941 24.66H103.061L101.921 25.56H101.381L99.8208 26.76H101.141L100.421 27.3C100.021 27.58 99.6208 27.68 99.2208 27.6C98.8208 27.48 98.4608 27.22 98.1408 26.82L98.0808 26.76H96.8208L95.8608 25.56H96.4008L95.6808 24.66H95.5608L94.6008 23.46H95.8008L95.3208 22.86H95.9208L95.4408 22.26H93.2208L92.7408 21.66H95.8608L94.9608 20.46H97.1808L96.8208 19.98C96.8208 19.94 96.8008 19.92 96.7608 19.92C96.7608 19.92 96.7608 19.9 96.7608 19.86H96.2208C96.1408 19.62 96.1008 19.42 96.1008 19.26H102.341C102.301 18.98 102.341 18.68 102.461 18.36H101.621C101.741 18.12 101.901 17.92 102.101 17.76H89.8608L90.0408 17.64L91.4208 16.56H94.0608L95.2008 15.66L95.9808 15.06H98.3208L99.5208 14.16H98.1408L98.5008 13.86H97.3008L98.5008 12.96H98.6808L99.8208 12.06H100.001L100.781 11.46H100.841L101.201 11.16H101.441L102.941 9.96H98.9808L100.481 8.76H106.421L106.781 8.46H91.3608L91.7808 8.16H106.721L107.501 7.56L108.941 6.42L109.001 6.36H113.501C113.861 6.12 114.261 6 114.701 6H126.041C126.481 6 126.821 6.12 127.061 6.36H122.621C123.021 6.68 123.221 7.1 123.221 7.62V8.16H108.281V8.46H123.701V8.76H117.821V9.96H121.781V11.16H121.601V11.46H121.541V12.06H121.361V12.96H121.181V13.86H122.381V14.16H123.761V15.06H121.361V15.66H121.421V16.56H118.781V17.76H130.961V18.36H131.801V19.26Z" fill="black"/>
<path d="M198.117 46.26V46.56H204.357C204.357 46.76 204.297 46.96 204.177 47.16H197.637C197.517 47.44 197.317 47.64 197.037 47.76H199.797C199.597 47.92 199.317 48 198.957 48H164.397C164.037 48 163.757 47.92 163.557 47.76H160.797C160.677 47.68 160.557 47.6 160.437 47.52C160.357 47.4 160.277 47.28 160.197 47.16H166.797C166.717 47 166.637 46.8 166.557 46.56H160.317V46.26H166.857V45.36H161.757V45.06H158.337V44.16H165.417V43.26H158.877V42.06H161.097V41.46H162.897V40.26H161.997V40.14C161.997 40.06 161.997 39.92 161.997 39.72C162.037 39.52 162.077 39.3 162.117 39.06H165.057C165.097 38.9 165.137 38.76 165.177 38.64C165.257 38.48 165.317 38.32 165.357 38.16H161.397C161.477 38.08 161.537 37.98 161.577 37.86C161.657 37.74 161.737 37.64 161.817 37.56H162.057C162.257 37.32 162.477 37.1 162.717 36.9L163.377 36.42C163.417 36.42 163.437 36.42 163.437 36.42C163.437 36.38 163.457 36.36 163.497 36.36H163.437C163.597 36.28 163.737 36.18 163.857 36.06C163.977 35.94 164.117 35.84 164.277 35.76H164.577C164.657 35.68 164.737 35.62 164.817 35.58C164.897 35.54 164.957 35.5 164.997 35.46H165.057C165.257 35.3 165.457 35.16 165.657 35.04C165.897 34.88 166.097 34.72 166.257 34.56H165.717C165.877 34.48 166.017 34.38 166.137 34.26C166.257 34.14 166.397 34.04 166.557 33.96H166.737L167.997 33.06H168.597C168.877 32.86 169.137 32.66 169.377 32.46C169.657 32.22 169.937 32.02 170.217 31.86H167.877C168.157 31.66 168.417 31.46 168.657 31.26C168.937 31.02 169.217 30.82 169.497 30.66H171.897C171.977 30.58 172.057 30.52 172.137 30.48C172.217 30.44 172.277 30.4 172.317 30.36H172.617C172.777 30.28 172.917 30.18 173.037 30.06C173.157 29.94 173.297 29.84 173.457 29.76H170.577C170.897 29.56 171.177 29.36 171.417 29.16C171.697 28.92 171.957 28.72 172.197 28.56H171.897L172.257 28.26H174.477C174.557 28.18 174.637 28.12 174.717 28.08C174.797 28.04 174.857 28 174.897 27.96H169.977L171.537 26.76H177.297L177.657 26.46H173.217L174.297 25.56H176.937L177.657 24.96H174.357C174.597 24.76 174.817 24.56 175.017 24.36C175.257 24.12 175.457 23.92 175.617 23.76H181.617C181.697 23.68 181.757 23.62 181.797 23.58C181.837 23.54 181.877 23.5 181.917 23.46H180.237C180.357 23.38 180.457 23.28 180.537 23.16C180.657 23.04 180.757 22.94 180.837 22.86H174.417C174.737 22.54 174.977 22.24 175.137 21.96H179.157L179.817 20.76H181.857C182.057 20.28 182.157 19.88 182.157 19.56H184.077V19.26H185.577C185.577 19.1 185.577 18.96 185.577 18.84C185.577 18.68 185.557 18.52 185.517 18.36H183.417L183.297 18.06H179.757L179.577 18.36H180.957C180.877 18.52 180.797 18.68 180.717 18.84C180.677 18.96 180.617 19.1 180.537 19.26H178.197L178.077 19.56H176.877C176.837 19.64 176.817 19.72 176.817 19.8C176.817 19.88 176.797 19.96 176.757 20.04C176.717 20.2 176.657 20.34 176.577 20.46C176.497 20.58 176.417 20.68 176.337 20.76H171.717C171.477 21.04 171.177 21.22 170.817 21.3C170.497 21.38 170.137 21.42 169.737 21.42H158.457C157.937 21.42 157.557 21.2 157.317 20.76H161.937C161.817 20.56 161.757 20.34 161.757 20.1V19.56H162.957V19.26H165.297C165.297 19.1 165.297 18.96 165.297 18.84C165.337 18.68 165.357 18.52 165.357 18.36H163.977C163.977 18.24 163.997 18.14 164.037 18.06H161.877C161.877 17.98 161.877 17.92 161.877 17.88C161.917 17.84 161.937 17.8 161.937 17.76H157.377C157.417 17.68 157.437 17.58 157.437 17.46C157.437 17.34 157.457 17.24 157.497 17.16H162.237L162.537 15.96H161.697C161.697 15.92 161.737 15.82 161.817 15.66H155.637C155.677 15.5 155.737 15.36 155.817 15.24C155.857 15.08 155.897 14.92 155.937 14.76H165.177C165.257 14.6 165.337 14.46 165.417 14.34C165.497 14.18 165.557 14.02 165.597 13.86H158.937C159.057 13.66 159.177 13.46 159.297 13.26C159.417 13.02 159.537 12.82 159.657 12.66H160.917C160.997 12.58 161.077 12.48 161.157 12.36C161.237 12.24 161.297 12.14 161.337 12.06H165.117C165.237 11.94 165.317 11.84 165.357 11.76H161.877C161.957 11.68 162.037 11.58 162.117 11.46C162.197 11.34 162.277 11.24 162.357 11.16H165.417L165.717 10.86H165.297C165.657 10.42 166.057 10.02 166.497 9.66H167.877L168.237 9.36H165.357L165.717 9.06H167.757C167.917 8.98 168.057 8.88 168.177 8.76C168.337 8.64 168.477 8.54 168.597 8.46H172.197L173.157 7.86H175.557C175.957 7.62 176.357 7.4 176.757 7.2C177.197 7 177.637 6.82 178.077 6.66H172.197C172.317 6.58 172.437 6.52 172.557 6.48C172.717 6.44 172.857 6.4 172.977 6.36H170.757C170.957 6.28 171.117 6.22 171.237 6.18C171.397 6.14 171.557 6.1 171.717 6.06H182.397C184.437 5.46 186.657 5.16 189.057 5.16C191.817 5.16 194.277 5.46 196.437 6.06H185.757C185.957 6.1 186.137 6.14 186.297 6.18C186.457 6.22 186.617 6.28 186.777 6.36H188.997C189.157 6.4 189.297 6.44 189.417 6.48C189.577 6.52 189.717 6.58 189.837 6.66H195.717C196.197 6.82 196.637 7 197.037 7.2C197.477 7.4 197.897 7.62 198.297 7.86H195.897C196.057 7.94 196.217 8.04 196.377 8.16C196.537 8.28 196.697 8.38 196.857 8.46H193.257L194.037 9.06H191.937L192.297 9.36H195.237L195.597 9.66H194.157C194.357 9.82 194.557 10.02 194.757 10.26C194.957 10.46 195.137 10.66 195.297 10.86H195.717C195.757 10.9 195.797 10.94 195.837 10.98C195.877 11.02 195.917 11.08 195.957 11.16H192.897C192.977 11.24 193.037 11.34 193.077 11.46C193.157 11.58 193.237 11.68 193.317 11.76H196.797L196.977 12.06H193.197C193.317 12.26 193.417 12.46 193.497 12.66H192.237L192.777 13.86H199.437C199.517 14.02 199.577 14.18 199.617 14.34C199.657 14.46 199.697 14.6 199.737 14.76H190.497C190.577 14.92 190.617 15.08 190.617 15.24C190.657 15.36 190.697 15.5 190.737 15.66H196.917C196.917 15.7 196.917 15.74 196.917 15.78C196.957 15.82 196.977 15.88 196.977 15.96H197.817C197.937 16.36 197.997 16.76 197.997 17.16H200.997L201.057 17.76H195.537C195.577 17.84 195.597 17.94 195.597 18.06H199.197V18.36H201.297V19.26H199.797C199.797 19.38 199.777 19.48 199.737 19.56H197.817C197.817 19.76 197.797 19.96 197.757 20.16C197.757 20.36 197.737 20.56 197.697 20.76H195.657C195.617 20.96 195.577 21.16 195.537 21.36C195.497 21.56 195.437 21.76 195.357 21.96H191.397C191.357 22.12 191.317 22.28 191.277 22.44C191.237 22.56 191.177 22.7 191.097 22.86H197.457L197.217 23.46H198.897L198.717 23.76H192.717C192.637 23.96 192.537 24.16 192.417 24.36C192.297 24.56 192.197 24.76 192.117 24.96H195.357C195.317 25.04 195.257 25.14 195.177 25.26C195.137 25.38 195.077 25.48 194.997 25.56H192.357L191.757 26.46H196.137L195.957 26.76H190.197L189.177 27.96H194.037C193.997 28 193.957 28.04 193.917 28.08C193.877 28.12 193.837 28.18 193.797 28.26H191.577L191.277 28.56H191.637L190.377 29.76H193.197C193.117 29.84 193.017 29.94 192.897 30.06C192.777 30.18 192.657 30.28 192.537 30.36H192.237L191.937 30.66H189.537L188.097 31.86H190.437C190.197 32.06 189.937 32.26 189.657 32.46C189.417 32.66 189.157 32.86 188.877 33.06H188.337L187.077 33.96H186.897C186.737 34.04 186.577 34.14 186.417 34.26C186.297 34.38 186.177 34.48 186.057 34.56H186.597C186.437 34.68 186.257 34.82 186.057 34.98C185.857 35.1 185.657 35.22 185.457 35.34L185.337 35.46H185.277L185.037 35.64H197.697C197.857 35.64 198.057 35.68 198.297 35.76H197.997C198.237 35.88 198.477 36.08 198.717 36.36H198.777C198.937 36.56 199.017 36.86 199.017 37.26V37.56H198.777V38.16H202.737V39.06H199.797V40.26H200.697V41.46H198.897V42.06H196.677V43.26H203.217V44.16H196.137V45.06H199.557V45.36H204.657V46.26H198.117ZM179.577 17.76H185.037C184.877 17.48 184.637 17.28 184.317 17.16H181.317C181.077 17.04 180.697 16.98 180.177 16.98C179.777 16.98 179.417 17.04 179.097 17.16H174.357C174.157 17.2 173.977 17.28 173.817 17.4C173.657 17.52 173.497 17.64 173.337 17.76H177.897C177.857 17.8 177.817 17.84 177.777 17.88C177.737 17.92 177.697 17.98 177.657 18.06H179.697C179.697 18.02 179.657 17.92 179.577 17.76Z" fill="black"/>
<path d="M277.65 36.36H286.95C286.91 36.44 286.89 36.54 286.89 36.66C286.89 36.78 286.87 36.88 286.83 36.96C286.83 37.08 286.81 37.18 286.77 37.26H281.25L281.07 37.86H270.75L270.57 38.46H277.95C277.91 38.54 277.87 38.64 277.83 38.76C277.83 38.88 277.79 38.98 277.71 39.06H271.17L271.05 39.36H274.53C274.49 39.52 274.43 39.68 274.35 39.84C274.27 39.96 274.19 40.1 274.11 40.26H269.91L269.73 40.56H270.93L270.75 40.86H259.95C259.79 41.06 259.65 41.26 259.53 41.46C259.41 41.66 259.27 41.86 259.11 42.06H262.71C262.55 42.3 262.39 42.5 262.23 42.66H254.61L253.71 43.56H270.57C270.33 43.76 270.09 43.96 269.85 44.16C269.61 44.36 269.35 44.56 269.07 44.76H263.55C263.35 44.92 263.13 45.08 262.89 45.24C262.65 45.36 262.41 45.5 262.17 45.66H252.93C252.77 45.78 252.57 45.9 252.33 46.02C252.13 46.1 251.93 46.18 251.73 46.26H255.57C255.33 46.38 255.09 46.5 254.85 46.62C254.61 46.7 254.37 46.78 254.13 46.86H261.57C260.69 47.22 259.73 47.52 258.69 47.76H253.59C253.07 47.88 252.53 47.98 251.97 48.06C251.41 48.18 250.85 48.28 250.29 48.36H248.43C247.79 48.44 247.13 48.5 246.45 48.54C245.77 48.58 245.09 48.6 244.41 48.6C243.65 48.6 242.91 48.58 242.19 48.54C241.51 48.5 240.85 48.44 240.21 48.36H242.01C241.41 48.28 240.83 48.18 240.27 48.06C239.75 47.98 239.23 47.88 238.71 47.76H243.81C242.81 47.52 241.85 47.22 240.93 46.86H233.55C233.31 46.78 233.07 46.7 232.83 46.62C232.59 46.5 232.37 46.38 232.17 46.26H228.39C228.19 46.18 228.01 46.08 227.85 45.96C227.65 45.84 227.45 45.74 227.25 45.66H236.49C236.21 45.5 235.95 45.36 235.71 45.24C235.51 45.08 235.29 44.92 235.05 44.76H240.57C240.09 44.44 239.61 44.04 239.13 43.56H222.27C221.91 43.24 221.61 42.94 221.37 42.66H228.99L228.45 42.06H224.85C224.69 41.86 224.55 41.66 224.43 41.46C224.27 41.26 224.13 41.06 224.01 40.86H234.87L234.69 40.56H233.49L233.31 40.26H237.51C237.43 40.1 237.35 39.96 237.27 39.84C237.19 39.68 237.11 39.52 237.03 39.36H233.61C233.53 39.2 233.49 39.1 233.49 39.06H240.03L239.79 38.46H232.47L232.29 37.86H242.61C242.53 37.62 242.49 37.42 242.49 37.26H248.07C248.03 37.18 248.01 37.08 248.01 36.96H267.45C268.49 36.96 269.35 36.76 270.03 36.36H260.79C260.87 36.28 260.93 36.22 260.97 36.18C261.05 36.14 261.13 36.1 261.21 36.06H257.13C257.21 36.1 257.29 36.14 257.37 36.18C257.45 36.22 257.51 36.28 257.55 36.36H242.85C243.21 36.52 243.65 36.66 244.17 36.78C244.69 36.9 245.37 36.96 246.21 36.96H226.71C226.71 36.88 226.71 36.78 226.71 36.66C226.71 36.54 226.69 36.44 226.65 36.36H241.35V36.06H230.85C230.85 35.5 231.15 35.1 231.75 34.86H238.53C238.61 34.82 238.75 34.8 238.95 34.8H251.01C251.29 34.8 251.49 34.82 251.61 34.86H261.03L261.15 34.56H256.59C256.63 34.44 256.65 34.32 256.65 34.2C256.65 34.04 256.65 33.9 256.65 33.78V33.36H255.63C255.55 32.84 255.37 32.44 255.09 32.16H255.03L254.73 31.86H250.77C250.13 31.38 249.11 31.14 247.71 31.14H240.21C239.69 31.14 239.31 30.98 239.07 30.66H243.81L243.63 30.36H242.91C242.75 30.16 242.67 29.88 242.67 29.52V29.16H242.55V27.96H243.27V27.06H241.35V26.16H244.59V25.26H245.19V24.06H241.53L241.71 23.46H243.87L243.99 23.16H246.03L246.21 22.86H244.35C244.47 22.74 244.57 22.62 244.65 22.5C244.77 22.38 244.89 22.3 245.01 22.26L245.55 21.96H244.71L246.87 20.76H246.51L247.59 20.16H247.47L248.55 19.56H248.31L250.53 18.36L251.07 18.06H250.77L251.43 17.7H235.65C235.29 17.7 235.01 17.62 234.81 17.46H236.85C236.57 17.34 236.37 17.14 236.25 16.86H233.97C233.89 16.7 233.81 16.5 233.73 16.26H234.81V15.96H235.11V15.66H233.91V14.76H234.69V13.56H234.99V12.96H234.75V12.06H234.27V11.76H235.11V10.86H232.89V9.66H235.29V9.36H232.71V8.16H233.01V7.62C233.01 7.3 233.05 7.08 233.13 6.96H235.23C235.59 6.32 236.09 6 236.73 6H267.45C268.17 6 268.67 6.32 268.95 6.96H266.79C266.91 7.12 266.97 7.34 266.97 7.62V8.16H266.67V9.36H269.25V9.66H266.85V10.86H269.07V11.76H268.23V12.06H268.71V12.96H268.95V13.56H268.65V14.76H267.87V15.66H269.01V15.96H268.65C268.65 16 268.63 16.04 268.59 16.08C268.59 16.12 268.59 16.18 268.59 16.26H267.51C267.47 16.42 267.37 16.62 267.21 16.86H269.55C269.51 16.98 269.43 17.1 269.31 17.22C269.23 17.3 269.15 17.38 269.07 17.46H267.03C266.95 17.5 266.87 17.56 266.79 17.64L266.13 18.06H266.43L266.01 18.36L264.21 19.56H264.45L263.55 20.16H263.67L262.77 20.76H263.19L261.39 21.96H262.23L261.69 22.32V22.5L263.01 22.86H264.87C265.03 22.9 265.17 22.94 265.29 22.98C265.45 23.02 265.61 23.08 265.77 23.16H263.79C263.91 23.2 264.03 23.24 264.15 23.28C264.31 23.32 264.45 23.38 264.57 23.46H262.41C262.89 23.62 263.35 23.82 263.79 24.06H267.45C268.09 24.38 268.73 24.78 269.37 25.26H268.83L269.91 26.16H266.67C266.79 26.32 266.91 26.48 267.03 26.64C267.19 26.76 267.35 26.9 267.51 27.06H269.43L270.09 27.96H269.37C269.65 28.36 269.87 28.76 270.03 29.16H270.15C270.35 29.6 270.51 30 270.63 30.36H271.35L271.47 30.66H266.67C266.75 30.82 266.81 31.02 266.85 31.26C266.89 31.46 266.93 31.66 266.97 31.86H270.87C270.91 31.94 270.93 32.04 270.93 32.16H271.05C271.09 32.32 271.11 32.52 271.11 32.76C271.15 32.96 271.17 33.16 271.17 33.36H272.19C272.23 33.52 272.25 33.72 272.25 33.96C272.25 34.16 272.25 34.36 272.25 34.56H276.81V34.86H265.35C265.35 35.06 265.33 35.26 265.29 35.46C265.29 35.66 265.29 35.86 265.29 36.06H277.71C277.67 36.14 277.65 36.24 277.65 36.36ZM246.63 36.06H248.79C249.15 35.7 249.41 35.3 249.57 34.86H244.89C245.21 34.9 245.47 35.02 245.67 35.22C245.87 35.38 246.07 35.56 246.27 35.76L246.63 36.06Z" fill="black"/>
<path d="M344.359 39.06H359.299V39.66C359.299 39.82 359.259 40.02 359.179 40.26H349.339C349.339 40.3 349.299 40.4 349.219 40.56H343.159C343.119 40.64 343.039 40.74 342.919 40.86H339.379C339.019 41.14 338.659 41.28 338.299 41.28H333.019V41.76H344.059V42.06H339.079V42.36H338.239V42.96H337.459V44.16H336.319V44.46H335.179V45.36H328.819V45.66H326.599V46.38C326.599 46.46 326.579 46.52 326.539 46.56H329.959L329.779 47.16H333.679C333.639 47.24 333.559 47.34 333.439 47.46H328.099C327.939 47.62 327.819 47.72 327.739 47.76H331.459C331.259 47.92 330.959 48 330.559 48H319.399C319.039 48 318.759 47.92 318.559 47.76H314.899C314.739 47.72 314.619 47.62 314.539 47.46H319.879L319.699 47.16H315.739L315.559 46.56H312.199V45.66H314.419V45.36H320.779V44.46H321.919V44.16H323.059V42.96H323.839V42.36H324.679V42.06H329.659V41.76H318.619V41.28H300.679C300.239 41.28 299.879 41.14 299.599 40.86H303.079C302.959 40.74 302.879 40.64 302.839 40.56H308.899L308.719 40.26H318.559C318.479 40.02 318.439 39.82 318.439 39.66V39.06H303.499V37.86H310.939V36.96H313.459V36.66H301.759V36.36H310.939V36.06H305.059V34.86H305.539V34.56H306.979V33.66H303.379V32.46H304.519V31.26H304.759V31.08C304.759 30.84 304.799 30.6 304.879 30.36H303.259C303.299 30.24 303.339 30.14 303.379 30.06C303.419 29.94 303.459 29.84 303.499 29.76C303.619 29.52 303.739 29.34 303.859 29.22L304.159 28.86H303.439L304.399 27.66H308.059L308.959 26.46H299.419L300.379 25.26H303.319L303.979 24.36H299.899L300.799 23.16H303.799L304.759 21.96H312.619L312.859 21.66H305.239L305.479 21.36H308.899L309.799 20.16H303.799L304.039 19.86H307.999L308.479 19.26H311.779L312.019 18.96H312.439L312.859 18.36H314.059L314.719 17.46H311.899L312.799 16.26H320.899L321.319 15.66H309.799L310.459 14.76H323.539L324.499 13.56H318.439L319.159 12.66H316.219L316.459 12.36H322.819L323.059 12.06H314.779L315.499 11.16H317.419L318.139 10.26H322.159L322.639 9.66H321.799L322.459 8.76H322.759L322.999 8.46H321.619L322.279 7.56H320.719L320.959 7.26H320.659L320.899 7.02C321.099 6.74 321.359 6.52 321.679 6.36H320.959C321.399 6.12 321.879 6 322.399 6H334.879C335.279 6 335.619 6.12 335.899 6.36H336.619C336.739 6.48 336.839 6.62 336.919 6.78C337.039 6.9 337.119 7.06 337.159 7.26H337.399C337.399 7.3 337.399 7.34 337.399 7.38C337.439 7.42 337.459 7.48 337.459 7.56H339.019V8.46H340.459V8.76H340.099V9.66H340.999V10.26H336.919V11.16H334.939V12.06H343.219V12.36H336.859V12.66H339.739V13.56H345.799V14.76H332.719V15.66H344.239V16.26H336.199V17.46H339.019V18.36H337.879V18.96H337.459V19.26H334.159V19.86H330.139V20.16H336.199V21.36H330.019V21.66H335.299V21.96H335.239V23.16H329.959V24.36H333.619V25.26H340.279V26.46H333.619V27.66H337.579V28.86H337.459V29.1H342.679C343.279 29.1 343.739 29.32 344.059 29.76H343.759C343.919 30 343.999 30.2 343.999 30.36H345.619V31.26H345.379V32.46H344.239V33.66H347.839V34.56H346.399V34.86H345.919V36.06H351.799V36.36H342.619V36.66H354.319V36.96H351.799V37.86H344.359V39.06ZM321.259 21.96H317.899L316.999 23.16H321.259V21.96ZM313.999 23.16L313.159 24.36H315.979V23.16H313.999ZM313.639 25.26L312.739 26.46H326.299V25.26H319.639V24.36H317.239L316.579 25.26H313.639ZM317.719 27.66L316.879 28.86H317.539L316.879 29.76H323.479V28.86H323.599V27.66H317.719Z" fill="black"/>
<path d="M58.1871 90.96H57.1071C57.1071 91 57.0871 91.04 57.0471 91.08C57.0471 91.12 57.0471 91.18 57.0471 91.26H57.1671L56.9871 91.86H54.5271C54.4871 92.06 54.4071 92.26 54.2871 92.46C54.2071 92.66 54.1271 92.86 54.0471 93.06H53.7471C53.6671 93.22 53.6271 93.32 53.6271 93.36H53.3871L53.2071 93.66H53.8671L53.6871 93.96H51.7071L51.5271 94.26H54.1671L53.9871 94.56H53.2671L53.0871 94.86H53.1471L52.7871 95.46C52.6271 95.66 52.4671 95.86 52.3071 96.06C52.1871 96.26 52.0471 96.46 51.8871 96.66H52.0071C51.8471 96.86 51.6671 97.06 51.4671 97.26C51.2671 97.46 51.0671 97.66 50.8671 97.86H50.6871C50.5271 98.02 50.3471 98.18 50.1471 98.34C49.9871 98.46 49.8071 98.6 49.6071 98.76H50.1471C50.0271 98.84 49.8871 98.94 49.7271 99.06C49.6071 99.18 49.4671 99.28 49.3071 99.36H49.6671L49.1871 99.66H45.2271C44.8671 99.86 44.4871 100.06 44.0871 100.26C43.7271 100.46 43.3271 100.66 42.8871 100.86H46.9071C46.6671 100.98 46.4071 101.1 46.1271 101.22C45.8871 101.3 45.6271 101.38 45.3471 101.46H41.6271C39.6271 102.14 37.4671 102.54 35.1471 102.66H35.2671C34.9871 102.7 34.6671 102.72 34.3071 102.72C33.9471 102.72 33.6071 102.72 33.2871 102.72C32.9271 102.72 32.5671 102.72 32.2071 102.72C31.8471 102.72 31.5071 102.7 31.1871 102.66H31.0071C28.5271 102.54 26.2671 102.14 24.2271 101.46H27.9471C27.6671 101.38 27.3871 101.3 27.1071 101.22C26.8271 101.1 26.5671 100.98 26.3271 100.86H22.3071C21.8671 100.66 21.4471 100.46 21.0471 100.26C20.6471 100.06 20.2671 99.86 19.9071 99.66H23.8671C23.8271 99.58 23.7471 99.52 23.6271 99.48C23.5471 99.44 23.4671 99.4 23.3871 99.36H23.0871L22.1871 98.76H21.6471C21.4871 98.6 21.3071 98.46 21.1071 98.34C20.9471 98.18 20.7871 98.02 20.6271 97.86H20.8071C20.3671 97.5 19.9671 97.1 19.6071 96.66H19.4871C19.1671 96.34 18.8671 95.94 18.5871 95.46C18.4271 95.3 18.3071 95.1 18.2271 94.86H18.1671L17.9871 94.56H18.7071L18.5271 94.26H15.8871C15.8871 94.22 15.8471 94.12 15.7671 93.96H17.8071L17.6271 93.66H17.0271L16.9071 93.36H17.1471L17.0271 93.06H17.3871C17.1871 92.62 17.0671 92.22 17.0271 91.86H19.4871L19.3071 91.26H19.2471C19.2071 91.18 19.1871 91.08 19.1871 90.96H22.3671V90.66H18.7071L18.5871 89.46H19.0071V89.16H16.6071C16.6071 88.92 16.6671 88.72 16.7871 88.56H16.9071C17.1871 88.16 17.5471 87.96 17.9871 87.96H30.1071C30.5471 87.96 30.9071 88.02 31.1871 88.14C31.5071 88.26 31.7471 88.4 31.9071 88.56H31.8471C32.0071 88.72 32.1071 88.84 32.1471 88.92C32.2271 88.96 32.2671 89 32.2671 89.04C32.3071 89.08 32.3471 89.12 32.3871 89.16H34.7871C34.8271 89.2 34.8671 89.24 34.9071 89.28C34.9471 89.32 34.9871 89.38 35.0271 89.46H34.6671C34.8671 89.74 35.0671 89.98 35.2671 90.18C35.5071 90.38 35.7671 90.54 36.0471 90.66H39.6471C39.7671 90.7 39.8871 90.74 40.0071 90.78C40.1271 90.82 40.2471 90.86 40.3671 90.9C40.4871 90.86 40.6071 90.82 40.7271 90.78C40.8471 90.74 40.9671 90.7 41.0871 90.66H40.5471C41.1071 90.42 41.5671 90.02 41.9271 89.46H38.8671L39.0471 89.16H39.2271C39.3071 89 39.3871 88.8 39.4671 88.56H39.9471C40.0671 88.24 40.1271 87.94 40.1271 87.66H39.5871V86.76H39.2871C39.2871 86.6 39.2671 86.46 39.2271 86.34C39.1871 86.18 39.1271 86.02 39.0471 85.86H38.9871C38.9071 85.66 38.8071 85.46 38.6871 85.26H38.4471C38.2471 84.94 37.9671 84.64 37.6071 84.36H38.0871C37.9671 84.2 37.8071 84.1 37.6071 84.06H37.7871C37.5071 83.94 37.2071 83.84 36.8871 83.76C36.6071 83.68 36.3071 83.64 35.9871 83.64C35.5471 83.64 35.1671 83.68 34.8471 83.76C34.5271 83.84 34.2471 83.94 34.0071 84.06H34.3071L33.7671 84.36H33.7071C33.4271 84.52 33.1871 84.68 32.9871 84.84C32.8271 85 32.6071 85.08 32.3271 85.08H20.3871C19.9071 85.08 19.5271 84.84 19.2471 84.36H19.3071L19.1871 84.06H18.9471C18.9071 83.98 18.8871 83.88 18.8871 83.76L18.9471 83.46H19.1871L19.2471 83.16H18.8871L18.9471 82.56H19.7871L19.8471 81.96H19.3671V81.66H19.1871L19.2471 81.06H18.9471L19.0071 80.46H19.3671L19.4871 79.56H20.0271L20.0871 79.26H19.6071L19.6671 78.96H19.4271L19.4871 78.36H19.7871L19.9071 77.16H16.5471L16.7871 74.76H22.2471L22.3071 74.16H21.7671V73.86H16.6071V73.56H20.1471L20.2071 72.96H19.7271L19.8471 72.06H19.0071L19.0671 71.76H17.2671L17.3271 70.86H19.6071L19.6671 70.26H19.9071L20.0271 69.36H19.8471L19.9071 68.76H20.5671V68.46H21.2871L21.3471 68.16H21.7671L21.9471 66.96H20.2671L20.3871 65.76H20.9271L21.0471 64.86H20.9871L21.2271 62.46H21.1071V62.16H21.2871V62.04C21.2871 61.88 21.3271 61.72 21.4071 61.56H21.9471C22.0271 61.44 22.0871 61.34 22.1271 61.26C22.1671 61.14 22.2071 61.04 22.2471 60.96H21.4071C21.8871 60.32 22.5471 60 23.3871 60H50.2071C50.9271 60 51.4271 60.32 51.7071 60.96H52.4871C52.6071 61.12 52.6671 61.32 52.6671 61.56H52.0671V62.16H51.8871V62.46H52.0671V64.86H52.1271V65.76H51.5871V66.96H53.2671V68.16H52.7871V68.46H52.0671V68.76H51.4071V69.36H51.6471V70.08C51.6471 70.16 51.6271 70.22 51.5871 70.26H51.3471C51.3471 70.46 51.2871 70.66 51.1671 70.86H48.8871C48.6071 71.42 48.1271 71.7 47.4471 71.7H29.9271V71.76H31.7871L31.7271 72.06H32.5671L32.4471 72.96H32.9271L32.8671 73.56H29.3271L29.2671 73.86H34.4871V74.16H38.2071C39.1271 74 40.3471 73.92 41.8671 73.92C42.3071 73.92 42.7471 73.94 43.1871 73.98C43.6271 74.02 44.0471 74.08 44.4471 74.16H40.7871C41.1871 74.2 41.5671 74.28 41.9271 74.4C42.2871 74.52 42.6471 74.64 43.0071 74.76H42.2871C43.1671 75.04 44.0471 75.44 44.9271 75.96C45.4871 76.32 46.0671 76.72 46.6671 77.16H50.0871C50.2871 77.32 50.5071 77.52 50.7471 77.76C50.9871 77.96 51.2071 78.16 51.4071 78.36H51.1671L51.7071 78.96H51.9471C51.9871 79 52.0271 79.04 52.0671 79.08C52.1071 79.12 52.1471 79.18 52.1871 79.26H52.6671C52.7071 79.3 52.7471 79.34 52.7871 79.38C52.8271 79.42 52.8671 79.48 52.9071 79.56H52.3071C52.4271 79.72 52.5471 79.88 52.6671 80.04C52.7871 80.16 52.8871 80.3 52.9671 80.46H52.6071C52.6871 80.54 52.7471 80.64 52.7871 80.76C52.8671 80.88 52.9471 80.98 53.0271 81.06H53.3271L53.6871 81.66H53.8671L54.0471 81.96H54.5271L54.7671 82.56H53.9271C54.0071 82.64 54.0671 82.74 54.1071 82.86C54.1471 82.98 54.1871 83.08 54.2271 83.16H54.5871C54.5871 83.2 54.6271 83.3 54.7071 83.46H54.4071L54.5871 84.06H54.4671C54.4671 84.18 54.4871 84.28 54.5271 84.36H54.0471L54.2271 85.26H54.5271L54.5871 85.86H54.7071C54.7071 86.02 54.7071 86.18 54.7071 86.34C54.7471 86.46 54.7671 86.6 54.7671 86.76H55.0671V87.66H55.6071V88.56H55.1271C55.0871 88.64 55.0671 88.74 55.0671 88.86C55.0671 88.98 55.0671 89.08 55.0671 89.16H54.8271V89.46H57.8871C57.8471 89.66 57.8071 89.86 57.7671 90.06C57.7671 90.26 57.7271 90.46 57.6471 90.66H58.2471C58.2471 90.7 58.2271 90.74 58.1871 90.78C58.1871 90.82 58.1871 90.88 58.1871 90.96ZM31.5471 74.76H29.5071L29.3871 75.96C29.7471 75.72 30.1071 75.5 30.4671 75.3C30.8271 75.1 31.1871 74.92 31.5471 74.76ZM39.0471 90.96H37.4271C37.5871 91 37.7271 91.02 37.8471 91.02C38.0071 91.02 38.1671 91.02 38.3271 91.02C38.4471 91.02 38.5671 91.02 38.6871 91.02C38.8071 91.02 38.9271 91 39.0471 90.96Z" fill="black"/>
<path d="M130.129 88.56H121.069C121.029 88.64 121.009 88.74 121.009 88.86C121.009 88.98 120.989 89.08 120.949 89.16H125.629C125.589 89.36 125.549 89.56 125.509 89.76C125.509 89.96 125.469 90.16 125.389 90.36H127.069L126.889 90.96H127.069C127.069 91 127.049 91.04 127.009 91.08C127.009 91.12 127.009 91.18 127.009 91.26H126.529C126.409 91.7 126.269 92.1 126.109 92.46H125.449L125.209 93.06H127.429C127.269 93.46 127.049 93.86 126.769 94.26H127.729L127.549 94.56H125.389L124.969 95.16H124.249L123.529 96.06H124.129C124.009 96.18 123.929 96.28 123.889 96.36H123.049L122.149 97.26H123.529C123.369 97.42 123.209 97.58 123.049 97.74C122.889 97.86 122.709 98 122.509 98.16H119.269L118.069 99.06H117.709C117.109 99.46 116.429 99.86 115.669 100.26H118.009C117.649 100.46 117.209 100.66 116.689 100.86C116.569 100.9 116.429 100.94 116.269 100.98C116.149 101.02 116.029 101.08 115.909 101.16H116.149C115.389 101.44 114.609 101.68 113.809 101.88C113.009 102.08 112.169 102.24 111.289 102.36H111.889C111.329 102.44 110.749 102.5 110.149 102.54C109.549 102.58 108.929 102.6 108.289 102.6C107.609 102.6 106.949 102.58 106.309 102.54C105.669 102.5 105.029 102.44 104.389 102.36H103.789C102.869 102.24 101.969 102.08 101.089 101.88C100.209 101.68 99.3685 101.44 98.5685 101.16H98.3285C98.2085 101.08 98.0685 101.02 97.9085 100.98C97.7885 100.94 97.6685 100.9 97.5485 100.86C97.0285 100.66 96.5885 100.46 96.2285 100.26H93.8885C93.2085 99.94 92.5085 99.54 91.7885 99.06H92.0885C91.8885 98.9 91.6885 98.76 91.4885 98.64C91.2885 98.48 91.0885 98.32 90.8885 98.16H94.1285L93.1085 97.26H91.7885L90.8885 96.36H91.7285C91.6885 96.28 91.6485 96.22 91.6085 96.18C91.5685 96.14 91.5285 96.1 91.4885 96.06H90.9485L90.2285 95.16H91.0085C90.9285 95.08 90.8485 94.98 90.7685 94.86C90.7285 94.74 90.6685 94.64 90.5885 94.56H92.7485L92.5685 94.26H91.6085C91.4885 94.06 91.3685 93.86 91.2485 93.66C91.1685 93.46 91.0885 93.26 91.0085 93.06H88.7885C88.7485 92.98 88.7085 92.88 88.6685 92.76C88.6285 92.64 88.5885 92.54 88.5485 92.46H89.1485C89.1085 92.26 89.0485 92.06 88.9685 91.86C88.8885 91.66 88.8085 91.46 88.7285 91.26H89.2085L89.0885 90.96H88.9085C88.8685 90.88 88.8485 90.78 88.8485 90.66C88.8485 90.54 88.8285 90.44 88.7885 90.36H85.6085C85.5685 90.16 85.5285 89.96 85.4885 89.76C85.4485 89.56 85.4085 89.36 85.3685 89.16H86.5085C86.4685 89.08 86.4485 88.98 86.4485 88.86C86.4485 88.74 86.4485 88.64 86.4485 88.56H89.4485V88.26H88.6685V87.36H84.6485V86.46H87.1085C87.1485 86.38 87.1685 86.28 87.1685 86.16H88.4885V85.86H88.5485C88.5485 85.7 88.5485 85.56 88.5485 85.44C88.5885 85.28 88.6285 85.12 88.6685 84.96H89.0885C89.0885 84.84 89.1085 84.74 89.1485 84.66H89.5085C89.5485 84.5 89.5885 84.36 89.6285 84.24C89.6685 84.08 89.7085 83.92 89.7485 83.76H88.6685L88.8485 83.16H90.4085C90.4885 83 90.5285 82.9 90.5285 82.86H89.3285C89.3685 82.78 89.4085 82.68 89.4485 82.56C89.4885 82.44 89.5285 82.34 89.5685 82.26H88.9685C89.0485 82.06 89.1285 81.86 89.2085 81.66C89.2885 81.46 89.3685 81.26 89.4485 81.06H86.0285C86.1085 80.9 86.1885 80.76 86.2685 80.64C86.3085 80.48 86.3685 80.32 86.4485 80.16H87.2285C87.3085 79.96 87.4085 79.76 87.5285 79.56H91.0685L91.2485 79.26H91.0085L91.5485 78.36H92.4485L92.9885 77.46H92.2685C92.4285 77.26 92.5685 77.06 92.6885 76.86C92.8085 76.62 92.9285 76.42 93.0485 76.26H92.7485C92.7885 76.18 92.8685 76.08 92.9885 75.96H92.8085L93.2285 75.36H93.0485C93.1685 75.16 93.2885 75 93.4085 74.88C93.5285 74.72 93.6285 74.58 93.7085 74.46H93.8285C93.9885 74.22 94.1085 74.06 94.1885 73.98L94.4885 73.56H93.2885L93.7685 72.96H96.2285L96.6485 72.36H97.0685L97.7885 71.46H96.4085L97.3085 70.26H97.4285L97.6085 69.96H97.4285L97.6085 69.66H97.7285L98.1485 69.06H97.4285L98.1485 68.16H97.3685L97.6085 67.86H98.6885L99.5885 66.66H104.809L105.289 66.06H104.029L104.509 65.46H104.089L104.569 64.86H103.129L104.089 63.66H103.549L104.449 62.46H103.009L103.489 61.86H103.549L104.029 61.26H103.969L104.029 61.2C104.109 61.08 104.229 60.94 104.389 60.78C104.549 60.62 104.729 60.48 104.929 60.36H104.869C105.069 60.28 105.289 60.2 105.529 60.12C105.769 60.04 106.029 60 106.309 60H118.369C118.729 60 119.029 60.12 119.269 60.36H119.329C119.609 60.64 119.749 60.94 119.749 61.26V61.32C119.749 61.6 119.729 61.78 119.689 61.86H119.569C119.569 61.94 119.529 62.02 119.449 62.1L119.209 62.46H120.589L119.689 63.66H120.289L119.329 64.86H120.769L120.289 65.46H120.709L120.289 66.06H121.489L121.009 66.66H115.849L114.889 67.86H113.809L113.629 68.16H114.349L113.689 69.06H114.409L113.989 69.66H113.869L113.689 69.96H113.869L113.689 70.26H113.569L112.669 71.46H114.049L113.569 72.12H113.989C114.229 72.16 114.489 72.2 114.769 72.24C115.049 72.24 115.329 72.28 115.609 72.36H115.129C115.489 72.4 115.849 72.48 116.209 72.6C116.609 72.72 117.009 72.84 117.409 72.96H114.949C115.189 73.04 115.429 73.14 115.669 73.26C115.949 73.34 116.229 73.44 116.509 73.56H117.709C118.309 73.8 118.909 74.1 119.509 74.46H119.449L120.889 75.36H121.069C121.229 75.44 121.369 75.54 121.489 75.66C121.609 75.78 121.749 75.88 121.909 75.96H122.029C122.109 76 122.169 76.04 122.209 76.08C122.289 76.12 122.369 76.18 122.449 76.26H122.749C122.949 76.42 123.169 76.62 123.409 76.86C123.649 77.06 123.869 77.26 124.069 77.46H124.789L125.569 78.36H124.669C124.789 78.52 124.909 78.68 125.029 78.84C125.149 78.96 125.249 79.1 125.329 79.26H125.569L125.749 79.56H122.209L122.569 80.16H121.789C121.869 80.32 121.949 80.48 122.029 80.64C122.149 80.76 122.229 80.9 122.269 81.06H125.689L126.229 82.26H126.829L127.009 82.86H128.209C128.289 83.02 128.329 83.12 128.329 83.16H128.209L128.389 83.76H128.449C128.569 84.04 128.629 84.34 128.629 84.66H125.869V84.96H127.369C127.409 85.12 127.429 85.28 127.429 85.44C127.429 85.56 127.449 85.7 127.489 85.86H127.429V86.16H127.249V86.46H127.909V87.36H129.109C129.109 87.52 129.089 87.68 129.049 87.84C129.049 87.96 129.049 88.1 129.049 88.26H130.129V88.56ZM109.969 89.16H105.289C105.369 89.08 105.429 89 105.469 88.92C105.509 88.8 105.549 88.68 105.589 88.56H114.649C114.649 88.48 114.649 88.42 114.649 88.38C114.689 88.34 114.709 88.3 114.709 88.26H113.629C113.749 87.94 113.809 87.64 113.809 87.36H112.609V86.46H111.889V86.16H112.069C112.069 86.04 112.049 85.94 112.009 85.86H112.069C112.029 85.7 111.969 85.56 111.889 85.44C111.849 85.28 111.789 85.12 111.709 84.96H110.209L110.029 84.66H112.789C112.549 84.3 112.249 84 111.889 83.76H111.769C111.529 83.6 111.269 83.48 110.989 83.4C110.709 83.28 110.409 83.2 110.089 83.16H110.209C110.089 83.12 109.949 83.1 109.789 83.1C109.669 83.1 109.529 83.1 109.369 83.1C109.249 83.1 109.109 83.1 108.949 83.1C108.829 83.1 108.709 83.12 108.589 83.16H106.969C106.689 83.2 106.389 83.28 106.069 83.4C105.789 83.48 105.529 83.6 105.289 83.76H106.369C106.049 83.96 105.729 84.26 105.409 84.66H105.049L104.869 84.96H104.449C104.289 85.24 104.169 85.54 104.089 85.86H104.029C104.029 85.98 104.009 86.08 103.969 86.16H102.649V86.46H100.129V87.36H104.149C104.149 87.52 104.149 87.68 104.149 87.84C104.189 87.96 104.229 88.1 104.269 88.26H105.049C105.049 88.3 105.089 88.4 105.169 88.56H102.109C102.189 88.68 102.249 88.8 102.289 88.92C102.329 89 102.369 89.08 102.409 89.16H101.329C101.649 89.68 102.069 90.08 102.589 90.36H105.829C106.429 90.72 107.169 90.9 108.049 90.9C108.929 90.9 109.689 90.72 110.329 90.36H108.649C109.129 90.08 109.569 89.68 109.969 89.16Z" fill="black"/>
<path d="M203.43 70.26H197.19C197.19 70.3 197.17 70.34 197.13 70.38C197.13 70.42 197.13 70.48 197.13 70.56H202.59C202.55 70.72 202.51 70.88 202.47 71.04C202.43 71.16 202.39 71.3 202.35 71.46H198.33L197.97 72.36H196.53C196.49 72.4 196.47 72.44 196.47 72.48C196.47 72.52 196.45 72.56 196.41 72.6V72.66H195.15L194.85 73.26H192.99L192.81 73.56H196.23L196.11 73.86H196.65L196.53 74.16H191.31L190.89 75.06H192.27L192.03 75.66H194.61L194.19 76.56H194.31L193.77 77.76H193.95L193.41 78.96H193.47L193.17 79.56H193.29L192.87 80.46H192.27L191.85 81.36H192.33L191.73 82.56H194.31L194.01 83.16H193.41L193.29 83.46H192.75L192.45 84.06H189.15L188.61 85.26H191.85L191.43 86.16H190.65L190.05 87.36H189.51L189.09 88.26H188.85L188.43 89.16H188.73L188.43 89.76H188.37L188.25 90.06H186.21L186.09 90.36H187.05L186.63 91.26H186.99L186.81 91.56H187.47L187.35 91.86H187.59L187.17 92.76H187.41L186.81 93.96H186.45L186.03 94.86H184.83L184.71 95.16H185.85L185.43 96.06H185.55L184.95 97.26L184.71 97.86H184.05L183.63 98.76H184.59L184.35 99.36H185.13L184.95 99.66H182.43L182.13 100.26H183.81L183.63 100.56H183.33V100.62C183.25 100.78 183.11 100.98 182.91 101.22C182.71 101.42 182.43 101.6 182.07 101.76C181.91 101.8 181.73 101.86 181.53 101.94C181.33 101.98 181.11 102 180.87 102H169.29C168.97 102 168.71 101.92 168.51 101.76C168.15 101.48 167.97 101.12 167.97 100.68V100.56H168.27C168.27 100.4 168.29 100.3 168.33 100.26H166.65C166.65 100.22 166.65 100.2 166.65 100.2C166.69 100.2 166.71 100.18 166.71 100.14L166.95 99.66H169.53L169.65 99.36H168.87L169.17 98.76H168.15L168.57 97.86H169.23L169.53 97.26L170.07 96.06H169.95L170.37 95.16H169.23L169.35 94.86H170.55L170.97 93.96H171.33L171.93 92.76H171.69L172.11 91.86H171.87L171.99 91.56H171.39L171.51 91.26H171.15L171.57 90.36H170.61L170.73 90.06H172.77L172.89 89.76H172.95L173.25 89.16H172.95L173.37 88.26H173.61L174.03 87.36H174.57L175.17 86.16H175.95L176.37 85.26H173.07L173.67 84.06H176.97L177.27 83.46H177.81L177.93 83.16H178.53L178.77 82.56H176.25L176.85 81.36H176.37L176.79 80.46H177.39L177.81 79.56H177.69L177.93 78.96H177.87L178.47 77.76H178.29L178.83 76.56H178.71L179.13 75.66H176.49L176.79 75.06H175.41L175.83 74.16H180.99L181.17 73.86H180.57L180.75 73.56H177.33L177.45 73.26H179.37L179.67 72.66H180.87L181.05 72.36H182.49V72.3H165.99C165.39 72.3 164.91 72.02 164.55 71.46H168.57C168.45 71.22 168.39 70.96 168.39 70.68V70.56H162.99V70.26H169.23V69.96H166.41V68.76H164.01V68.46H162.93V68.16H162.09V67.86H162.15V67.56H162.93V66.96H163.77V66.06H163.11V65.46H162.93V64.86H163.17V63.96H162.81V63.66H162.57V62.46H163.29V61.86H162.87V61.62C162.87 61.26 162.97 60.94 163.17 60.66H163.23C163.55 60.22 163.99 60 164.55 60H195.57C196.13 60 196.57 60.22 196.89 60.66H196.83C197.03 60.94 197.13 61.26 197.13 61.62V61.86H197.55V62.46H196.83V63.66H197.07V63.96H197.43V64.86H197.19V65.46H197.37V66.06H198.03V66.96H197.19V67.56H196.41V67.86H196.35V68.16H197.19V68.46H198.27V68.76H200.67V69.96H203.49C203.49 70.08 203.47 70.18 203.43 70.26Z" fill="black"/>
<path d="M270.903 92.46H277.023C276.903 92.9 276.763 93.3 276.603 93.66H270.843C270.763 93.82 270.683 93.98 270.603 94.14C270.563 94.26 270.503 94.4 270.423 94.56H269.883C269.803 94.76 269.703 94.96 269.583 95.16C269.463 95.36 269.323 95.56 269.163 95.76H268.263C268.183 95.92 268.083 96.08 267.963 96.24C267.843 96.36 267.723 96.5 267.603 96.66H268.323C268.163 96.86 267.983 97.06 267.783 97.26C267.583 97.46 267.383 97.66 267.183 97.86H268.443L268.083 98.16H267.603C267.323 98.36 267.063 98.56 266.823 98.76C266.583 98.96 266.303 99.16 265.983 99.36H265.443C265.283 99.44 265.123 99.54 264.963 99.66C264.803 99.78 264.623 99.88 264.423 99.96H265.383C264.983 100.16 264.543 100.36 264.063 100.56C263.623 100.76 263.143 100.96 262.623 101.16H265.503C264.743 101.44 263.903 101.68 262.983 101.88C262.103 102.08 261.143 102.24 260.103 102.36H261.543C260.903 102.44 260.223 102.5 259.503 102.54C258.783 102.58 258.023 102.6 257.223 102.6C256.463 102.6 255.723 102.58 255.003 102.54C254.283 102.5 253.583 102.44 252.903 102.36H251.463C250.463 102.24 249.503 102.08 248.583 101.88C247.703 101.68 246.863 101.44 246.063 101.16H243.183C242.663 100.96 242.183 100.78 241.743 100.62C241.303 100.42 240.863 100.2 240.423 99.96H239.463L238.503 99.36H239.043C238.763 99.16 238.483 98.96 238.203 98.76C237.923 98.56 237.663 98.36 237.423 98.16H237.963C237.923 98.08 237.863 98.02 237.783 97.98C237.743 97.94 237.703 97.9 237.663 97.86H236.403C236.203 97.66 236.003 97.46 235.803 97.26C235.643 97.06 235.463 96.86 235.263 96.66H234.543C234.423 96.5 234.303 96.36 234.183 96.24C234.063 96.08 233.963 95.92 233.883 95.76H234.783C234.663 95.56 234.543 95.36 234.423 95.16C234.303 94.96 234.203 94.76 234.123 94.56H234.603C234.563 94.4 234.503 94.26 234.423 94.14C234.343 93.98 234.263 93.82 234.183 93.66H240.003C239.843 93.3 239.703 92.9 239.583 92.46H233.583L233.283 91.26H233.343C233.343 91.14 233.323 91.04 233.283 90.96H232.983C232.943 90.8 232.903 90.66 232.863 90.54C232.863 90.38 232.863 90.22 232.863 90.06H231.063C231.063 89.9 231.063 89.76 231.063 89.64C231.063 89.48 231.043 89.32 231.003 89.16H231.543V88.86H234.363V88.26H233.643V87.66H231.063L231.243 86.76H227.883C227.883 86.68 227.903 86.62 227.943 86.58C227.943 86.54 227.943 86.5 227.943 86.46H233.103L233.463 85.26H235.863C235.983 84.82 236.163 84.42 236.403 84.06H231.963L232.143 83.76H236.583C236.823 83.36 237.103 82.96 237.423 82.56H233.343C233.463 82.44 233.543 82.34 233.583 82.26H237.903C238.063 82.06 238.243 81.86 238.443 81.66C238.643 81.42 238.823 81.22 238.983 81.06H233.523C233.643 80.94 233.763 80.84 233.883 80.76C234.003 80.64 234.123 80.54 234.243 80.46H239.823C239.983 80.34 240.123 80.24 240.243 80.16C240.403 80.04 240.563 79.94 240.723 79.86H240.843C240.883 79.86 240.903 79.86 240.903 79.86C240.903 79.82 240.923 79.8 240.963 79.8C240.603 79.56 240.263 79.28 239.943 78.96H236.403L235.863 78.36H237.123C236.963 78.16 236.803 77.96 236.643 77.76C236.523 77.56 236.403 77.36 236.283 77.16H237.063C236.943 76.96 236.823 76.76 236.703 76.56C236.623 76.36 236.543 76.16 236.463 75.96H236.223C236.223 75.92 236.183 75.82 236.103 75.66H235.083L234.963 75.36H235.623C235.583 75.2 235.543 75.06 235.503 74.94C235.463 74.78 235.423 74.62 235.383 74.46H235.443C235.403 74.38 235.383 74.28 235.383 74.16H234.723C234.603 73.8 234.543 73.4 234.543 72.96H234.843C234.843 72.8 234.823 72.64 234.783 72.48C234.783 72.32 234.783 72.16 234.783 72L234.843 71.76H233.823V71.16H232.443V70.86H226.083C226.123 70.78 226.143 70.68 226.143 70.56C226.143 70.44 226.143 70.34 226.143 70.26H223.623L223.803 69.36H239.763C239.843 69.2 239.883 69.06 239.883 68.94C239.923 68.78 239.963 68.62 240.003 68.46H234.003C234.083 68.3 234.143 68.16 234.183 68.04C234.223 67.88 234.263 67.72 234.303 67.56H237.903C237.983 67.48 238.043 67.38 238.083 67.26C238.123 67.14 238.163 67.04 238.203 66.96H237.483C237.643 66.56 237.863 66.16 238.143 65.76H235.023L235.203 65.46H226.683C226.843 65.26 227.003 65.06 227.163 64.86C227.323 64.62 227.483 64.42 227.643 64.26H227.103C227.223 64.18 227.343 64.08 227.463 63.96C227.543 63.84 227.623 63.74 227.703 63.66H239.523L240.243 63.06H238.443L238.803 62.76H237.663L238.563 62.16H239.823C240.183 61.96 240.563 61.76 240.963 61.56C241.363 61.32 241.783 61.12 242.223 60.96H247.743C249.143 60.4 250.683 60 252.363 59.76H253.323C254.843 59.52 256.543 59.4 258.423 59.4C260.303 59.4 261.983 59.52 263.463 59.76H262.563C263.443 59.88 264.263 60.04 265.023 60.24C265.783 60.44 266.483 60.68 267.123 60.96H261.603C262.443 61.32 263.263 61.72 264.063 62.16H262.803L263.703 62.76H264.843L265.203 63.06H267.063C267.183 63.14 267.303 63.24 267.423 63.36C267.543 63.48 267.643 63.58 267.723 63.66H255.903C256.023 63.74 256.123 63.84 256.203 63.96C256.323 64.08 256.423 64.18 256.503 64.26H257.043C257.243 64.42 257.403 64.62 257.523 64.86C257.683 65.06 257.843 65.26 258.003 65.46H266.523L266.703 65.76H269.823C270.103 66.16 270.323 66.56 270.483 66.96H271.203C271.243 67.04 271.283 67.14 271.323 67.26C271.363 67.38 271.403 67.48 271.443 67.56H267.843C267.923 67.72 267.983 67.88 268.023 68.04C268.063 68.16 268.103 68.3 268.143 68.46H274.143C274.183 68.62 274.223 68.78 274.263 68.94C274.303 69.06 274.343 69.2 274.383 69.36H258.363L258.543 70.26H262.383C262.423 70.34 262.443 70.44 262.443 70.56C262.443 70.68 262.443 70.78 262.443 70.86H261.843V71.16H264.543V71.76H269.523V71.88C269.523 72.04 269.523 72.22 269.523 72.42C269.523 72.58 269.503 72.76 269.463 72.96H269.343C269.343 73.16 269.323 73.36 269.283 73.56C269.283 73.76 269.263 73.96 269.223 74.16H269.283C269.283 74.28 269.263 74.38 269.223 74.46H271.143C271.103 74.62 271.063 74.78 271.023 74.94C271.023 75.06 270.983 75.2 270.903 75.36H269.463L269.343 75.66H268.563L268.443 75.96H270.123C270.003 76.4 269.823 76.8 269.583 77.16H268.803C268.683 77.36 268.563 77.56 268.443 77.76C268.323 77.96 268.163 78.16 267.963 78.36H266.763L266.223 78.96H269.703C269.583 79.12 269.443 79.28 269.283 79.44C269.123 79.56 268.963 79.68 268.803 79.8C268.803 79.8 268.803 79.82 268.803 79.86C268.843 79.86 268.883 79.86 268.923 79.86H268.803C268.963 79.94 269.123 80.04 269.283 80.16C269.443 80.24 269.603 80.34 269.763 80.46H264.183C264.503 80.62 264.763 80.82 264.963 81.06H270.423C270.903 81.46 271.283 81.86 271.563 82.26H267.303C267.423 82.38 267.503 82.48 267.543 82.56H271.563C271.723 82.72 271.863 82.92 271.983 83.16C272.103 83.36 272.223 83.56 272.343 83.76H267.843L268.023 84.06H272.403C272.643 84.42 272.823 84.82 272.943 85.26H270.543C270.623 85.42 270.683 85.62 270.723 85.86C270.803 86.06 270.863 86.26 270.903 86.46H268.203C268.203 86.58 268.223 86.68 268.263 86.76H268.143C268.183 86.92 268.203 87.08 268.203 87.24C268.203 87.36 268.223 87.5 268.263 87.66H270.063C270.063 87.74 270.063 87.84 270.063 87.96C270.063 88.08 270.083 88.18 270.123 88.26H270.843V88.86H271.503V89.16H271.263C271.263 89.32 271.243 89.48 271.203 89.64C271.203 89.76 271.203 89.9 271.203 90.06H268.863C268.823 90.22 268.803 90.38 268.803 90.54C268.803 90.66 268.783 90.8 268.743 90.96H270.903C270.863 91.04 270.843 91.14 270.843 91.26H271.143C271.103 91.46 271.063 91.66 271.023 91.86C271.023 92.06 270.983 92.26 270.903 92.46ZM240.543 70.86H246.903L246.723 71.16H247.803L247.623 70.86H248.223C248.143 70.74 248.043 70.64 247.923 70.56C247.803 70.44 247.683 70.34 247.563 70.26H243.723C243.083 69.78 242.243 69.54 241.203 69.54C240.123 69.54 239.283 69.78 238.683 70.26H241.203C241.083 70.34 240.963 70.44 240.843 70.56C240.723 70.64 240.623 70.74 240.543 70.86ZM251.283 75.66C251.443 75.7 251.603 75.76 251.763 75.84C251.963 75.88 252.163 75.92 252.363 75.96H252.483C252.683 75.92 252.863 75.88 253.023 75.84C253.223 75.76 253.403 75.7 253.563 75.66H254.343C254.503 75.62 254.703 75.52 254.943 75.36H256.383C256.743 75.12 257.043 74.82 257.283 74.46H255.423C255.503 74.3 255.543 74.2 255.543 74.16H255.483C255.683 73.76 255.783 73.36 255.783 72.96H255.903V72.78C255.903 72.38 255.843 72.04 255.723 71.76H250.743C250.703 71.6 250.603 71.4 250.443 71.16H248.103C248.063 71.24 248.023 71.34 247.983 71.46C247.943 71.54 247.883 71.64 247.803 71.76H248.823C248.703 72.04 248.643 72.38 248.643 72.78C248.643 72.82 248.643 72.86 248.643 72.9C248.683 72.9 248.703 72.92 248.703 72.96H248.343C248.383 73.16 248.423 73.36 248.463 73.56C248.503 73.76 248.563 73.96 248.643 74.16H249.303L249.483 74.46C249.643 74.78 249.923 75.08 250.323 75.36H249.663C249.903 75.52 250.103 75.62 250.263 75.66H251.283ZM253.383 76.02C253.743 76.02 254.003 76 254.163 75.96H252.543C252.663 76 252.783 76.02 252.903 76.02C253.063 76.02 253.223 76.02 253.383 76.02ZM248.883 91.26C249.483 91.94 250.323 92.34 251.403 92.46H252.963C254.043 92.34 254.863 91.94 255.423 91.26H255.123C255.163 91.18 255.203 91.12 255.243 91.08C255.283 91.04 255.323 91 255.363 90.96H253.203C253.403 90.68 253.563 90.38 253.683 90.06H256.023L256.203 89.16H256.443V88.86H255.783C255.783 88.78 255.783 88.68 255.783 88.56C255.783 88.44 255.763 88.34 255.723 88.26H255.003L254.823 87.66H253.023C252.903 87.3 252.723 87 252.483 86.76H252.603C252.563 86.68 252.523 86.62 252.483 86.58C252.443 86.54 252.383 86.5 252.303 86.46H255.063C254.263 85.78 253.223 85.44 251.943 85.44C250.663 85.44 249.623 85.78 248.823 86.46H243.663C243.623 86.5 243.583 86.54 243.543 86.58C243.503 86.62 243.443 86.68 243.363 86.76H246.723C246.483 87 246.303 87.3 246.183 87.66H248.763L248.583 88.26H249.363L249.303 88.86H246.483V89.16H246.003C246.003 89.32 246.003 89.48 246.003 89.64C246.043 89.76 246.083 89.9 246.123 90.06H247.923C247.963 90.34 248.103 90.64 248.343 90.96H248.703C248.743 91.04 248.823 91.14 248.943 91.26H248.883ZM259.083 92.46H257.403C257.523 92.5 257.643 92.52 257.763 92.52C257.923 92.52 258.083 92.52 258.243 92.52C258.403 92.52 258.543 92.52 258.663 92.52C258.823 92.52 258.963 92.5 259.083 92.46Z" fill="black"/>
<path d="M347.621 76.56H348.401C348.361 76.76 348.321 76.96 348.281 77.16C348.281 77.36 348.241 77.56 348.161 77.76H344.081C344.041 77.92 344.001 78.08 343.961 78.24C343.921 78.36 343.861 78.5 343.781 78.66H342.461L342.221 79.26H341.921C341.881 79.34 341.841 79.44 341.801 79.56C341.801 79.68 341.761 79.78 341.681 79.86H342.221C342.221 79.9 342.181 80 342.101 80.16H342.461C342.461 80.2 342.421 80.3 342.341 80.46H341.741C341.701 80.62 341.641 80.78 341.561 80.94C341.481 81.06 341.401 81.2 341.321 81.36H341.141L340.781 81.96H341.381C341.261 82.16 341.161 82.36 341.081 82.56H341.621L341.081 83.46H340.901C340.821 83.62 340.721 83.78 340.601 83.94C340.521 84.06 340.421 84.2 340.301 84.36H339.581L338.921 85.26H339.281C339.201 85.34 339.121 85.44 339.041 85.56C339.001 85.68 338.941 85.78 338.861 85.86H339.401L338.501 87.06H336.641C336.561 87.14 336.481 87.24 336.401 87.36C336.321 87.48 336.241 87.58 336.161 87.66H337.661C337.581 87.74 337.501 87.84 337.421 87.96C337.341 88.08 337.261 88.18 337.181 88.26H336.941L336.041 89.46H337.061C337.021 89.54 336.961 89.64 336.881 89.76C336.801 89.88 336.721 89.98 336.641 90.06H331.901C331.901 90.1 331.861 90.16 331.781 90.24L331.001 91.26H332.681L332.261 91.86H332.201L331.301 93.06H328.061L327.341 93.96H331.121L330.221 95.16H330.581L330.341 95.46H327.941L327.281 96.36H332.081L331.181 97.56H327.341L326.681 98.46H328.001L327.341 99.36H328.121L327.701 99.96L327.041 100.8V100.86H326.801L326.501 101.16H327.101C326.941 101.36 326.661 101.56 326.261 101.76H326.381C326.221 101.8 326.041 101.86 325.841 101.94C325.681 101.98 325.481 102 325.241 102H313.181C312.861 102 312.601 101.92 312.401 101.76H312.221C312.021 101.6 311.881 101.4 311.801 101.16H311.201C311.161 101.08 311.141 100.98 311.141 100.86H311.381C311.381 100.82 311.361 100.8 311.321 100.8C311.321 100.76 311.321 100.72 311.321 100.68C311.321 100.44 311.401 100.2 311.561 99.96V99.9L311.981 99.36H311.201L311.861 98.46H310.541L311.201 97.56H315.041L315.941 96.36H311.081L311.801 95.46H314.141L314.381 95.16H314.021L314.921 93.96H311.201L311.861 93.06H315.161L316.061 91.86L316.541 91.26H314.861L315.761 90.06H320.501L320.921 89.46H319.901L319.961 89.4C319.761 89.4 319.601 89.38 319.481 89.34C318.801 89.26 318.081 89.14 317.321 88.98C316.601 88.78 315.841 88.54 315.041 88.26H315.281C315.081 88.18 314.841 88.1 314.561 88.02C314.321 87.9 314.101 87.78 313.901 87.66H312.401C312.241 87.58 312.061 87.5 311.861 87.42C311.661 87.3 311.461 87.18 311.261 87.06H313.121C312.441 86.66 311.821 86.26 311.261 85.86H310.721C310.561 85.78 310.421 85.68 310.301 85.56C310.181 85.44 310.061 85.34 309.941 85.26H309.581L308.621 84.36H309.401C309.241 84.2 309.081 84.06 308.921 83.94C308.801 83.78 308.681 83.62 308.561 83.46H308.741L308.021 82.56H307.421L307.061 81.96H306.461L306.101 81.36H306.281L305.801 80.46H306.401C306.401 80.42 306.361 80.32 306.281 80.16H305.921L305.801 79.86H305.261L305.021 79.26H305.321L305.141 78.66H304.841C304.801 78.5 304.761 78.36 304.721 78.24C304.681 78.08 304.641 77.92 304.601 77.76H302.741L302.561 76.56H305.441C305.441 76.36 305.421 76.16 305.381 75.96C305.381 75.76 305.381 75.56 305.381 75.36H302.081V74.76H305.141V74.16H305.621V73.86H304.181C304.221 73.7 304.241 73.56 304.241 73.44C304.241 73.28 304.261 73.12 304.301 72.96H303.341C303.381 72.76 303.421 72.56 303.461 72.36C303.501 72.16 303.541 71.96 303.581 71.76H307.421C307.461 71.6 307.501 71.46 307.541 71.34C307.581 71.18 307.621 71.02 307.661 70.86H300.941C300.981 70.78 301.021 70.68 301.061 70.56C301.101 70.44 301.141 70.34 301.181 70.26H308.621C308.701 70.18 308.741 70.08 308.741 69.96C308.781 69.84 308.821 69.74 308.861 69.66H306.941C307.021 69.58 307.061 69.48 307.061 69.36C307.101 69.24 307.141 69.14 307.181 69.06H300.461C300.541 68.9 300.621 68.76 300.701 68.64C300.741 68.48 300.801 68.32 300.881 68.16H311.261L311.621 67.56H313.001C313.121 67.36 313.241 67.16 313.361 66.96C313.481 66.72 313.621 66.52 313.781 66.36H312.221C312.301 66.28 312.381 66.18 312.461 66.06C312.541 65.94 312.621 65.84 312.701 65.76H309.341C309.541 65.56 309.721 65.36 309.881 65.16C310.081 64.92 310.261 64.72 310.421 64.56H307.961C308.401 64.12 308.861 63.72 309.341 63.36H313.481C313.561 63.28 313.641 63.22 313.721 63.18C313.801 63.14 313.861 63.1 313.901 63.06H307.601L308.501 62.46H307.841C308.201 62.26 308.561 62.06 308.921 61.86C309.321 61.62 309.721 61.42 310.121 61.26H316.361C316.481 61.18 316.601 61.12 316.721 61.08C316.841 61.04 316.961 61 317.081 60.96H313.721L314.561 60.66H315.641C316.801 60.26 318.061 59.96 319.421 59.76C320.781 59.52 322.221 59.4 323.741 59.4C327.101 59.4 330.041 59.82 332.561 60.66H331.481C331.641 60.7 331.781 60.74 331.901 60.78C332.061 60.82 332.221 60.88 332.381 60.96H335.681C335.841 61 335.981 61.04 336.101 61.08C336.221 61.12 336.341 61.18 336.461 61.26H330.221C330.661 61.42 331.061 61.62 331.421 61.86C331.821 62.06 332.201 62.26 332.561 62.46H333.221C333.421 62.54 333.581 62.64 333.701 62.76C333.861 62.88 334.021 62.98 334.181 63.06H340.421C340.501 63.1 340.581 63.14 340.661 63.18C340.741 63.22 340.801 63.28 340.841 63.36H336.701C337.181 63.72 337.641 64.12 338.081 64.56H340.541C340.941 64.88 341.301 65.28 341.621 65.76H344.981C345.061 65.84 345.141 65.94 345.221 66.06C345.301 66.18 345.381 66.28 345.461 66.36H346.961C347.121 66.52 347.261 66.72 347.381 66.96C347.501 67.16 347.621 67.36 347.741 67.56H346.361C346.441 67.64 346.501 67.74 346.541 67.86C346.581 67.98 346.621 68.08 346.661 68.16H336.281L336.641 69.06H343.421L343.661 69.66H345.581L345.761 70.26H338.261L338.441 70.86H345.101L345.281 71.76H344.441L344.621 72.96H343.841C343.881 73.12 343.901 73.28 343.901 73.44C343.901 73.56 343.901 73.7 343.901 73.86H343.241V74.16H344.921V75.36H347.801L347.621 76.56ZM328.121 77.76H332.201C332.561 77.36 332.781 76.96 332.861 76.56H332.081C332.161 76.36 332.221 76.16 332.261 75.96C332.301 75.76 332.321 75.56 332.321 75.36H329.441V74.76L329.381 74.16H327.701C327.701 74.08 327.681 74.02 327.641 73.98C327.641 73.94 327.641 73.9 327.641 73.86H328.301C328.261 73.7 328.221 73.56 328.181 73.44C328.141 73.28 328.081 73.12 328.001 72.96H328.781C328.621 72.72 328.461 72.5 328.301 72.3C328.141 72.1 327.941 71.92 327.701 71.76H328.541C327.861 71.32 327.081 71.1 326.201 71.1C325.281 71.1 324.481 71.32 323.801 71.76H320.021C319.781 71.92 319.581 72.1 319.421 72.3C319.261 72.5 319.101 72.72 318.941 72.96H319.901C319.861 73.12 319.801 73.28 319.721 73.44C319.681 73.56 319.641 73.7 319.601 73.86H320.981C320.981 73.98 320.961 74.08 320.921 74.16H320.501C320.461 74.24 320.441 74.34 320.441 74.46C320.441 74.58 320.441 74.68 320.441 74.76H317.381V75.36H320.681C320.721 75.56 320.761 75.76 320.801 75.96C320.841 76.16 320.881 76.36 320.921 76.56H318.041C318.121 76.96 318.341 77.36 318.701 77.76H320.561C320.921 78.16 321.381 78.46 321.941 78.66H322.301C322.661 78.82 323.161 78.9 323.801 78.9C324.401 78.9 324.921 78.82 325.361 78.66H326.741C327.301 78.46 327.761 78.16 328.121 77.76Z" fill="black"/>
<path d="M45.472 122.76H44.572C44.692 123 44.752 123.26 44.752 123.54V124.26H42.232V124.86H42.832V126.06H41.632V126.66H42.892V127.86H42.712V128.16H42.832V128.76H42.892V129.06H41.092V129.66H43.732V130.56H41.812V131.76H40.372V132.96H38.392V133.38C38.392 133.66 38.332 133.92 38.212 134.16H42.892C42.612 134.72 42.132 135 41.452 135H31.012C30.372 135 29.912 134.72 29.632 134.16H24.892C24.772 133.92 24.712 133.66 24.712 133.38V132.96H26.692V131.76H28.132V130.56H30.052V129.66H27.412V129.06H29.212V128.76H29.152V128.16H29.032V127.86H29.212V126.66H27.952V126.06H29.152V124.86H28.552V124.26H31.072V123.54C31.072 123.26 31.132 123 31.252 122.76H32.212C32.492 122.2 32.972 121.92 33.652 121.92H44.092C44.732 121.92 45.192 122.2 45.472 122.76ZM41.992 150.96V151.86H43.312V153.06H42.952V153.96H42.832V154.56H42.952C42.952 154.72 42.912 154.88 42.832 155.04C42.752 155.2 42.672 155.34 42.592 155.46H41.512C41.432 155.62 41.312 155.72 41.152 155.76H41.992C41.792 155.92 41.512 156 41.152 156H30.712C30.392 156 30.092 155.92 29.812 155.76H29.032C28.952 155.72 28.832 155.62 28.672 155.46H29.692C29.612 155.34 29.532 155.2 29.452 155.04C29.372 154.88 29.332 154.72 29.332 154.56H29.152V153.96H29.272V153.06H29.632V151.86H28.312V150.96H28.732V150.66H29.512V149.76H29.152V149.46H29.092V148.26H29.572V147.06H25.732V145.86H26.152V145.56H27.052V144.66H29.572V144.54C29.572 144.1 29.712 143.74 29.992 143.46H28.792C29.112 143.1 29.532 142.92 30.052 142.92H40.492C41.012 142.92 41.412 143.1 41.692 143.46H42.832C43.112 143.82 43.252 144.18 43.252 144.54V144.66H40.732V145.56H39.832V145.86H39.412V147.06H43.252V148.26H42.772V149.46H42.832V149.76H43.192V150.66H42.412V150.96H41.992Z" fill="black"/>
<path d="M110.654 153.66H118.394V154.56H109.994C109.914 155.12 109.654 155.52 109.214 155.76H112.694C112.494 155.92 112.214 156 111.854 156H101.414C101.014 156 100.714 155.92 100.514 155.76H97.0943C96.6543 155.52 96.3943 155.12 96.3143 154.56H104.714V153.66H96.9743V152.46H95.8943V151.56H104.414V150.66H93.3743V150.36H94.2143V149.46H101.114V149.16H95.4743V148.86H100.394V148.26H99.7343V147.36H101.174V147.06H101.834V145.86H102.014V145.56H102.434V144.36H103.934V144.06H101.294V143.94C101.294 143.58 101.434 143.22 101.714 142.86H103.694C104.014 142.5 104.414 142.32 104.894 142.32H115.334C115.854 142.32 116.254 142.5 116.534 142.86H114.614C114.854 143.14 114.974 143.5 114.974 143.94V144.06H117.614V144.36H116.114V145.56H115.694V145.86H115.514V147.06H114.854V147.36H113.414V148.26H114.074V148.86H109.154V149.16H114.794V149.46H107.894V150.36H107.054V150.66H118.094V151.56H109.574V152.46H110.654V153.66Z" fill="black"/>
<path d="M203.374 152.76L203.794 153.96H202.774L202.894 154.26C202.894 154.3 202.894 154.36 202.894 154.44C202.934 154.48 202.954 154.52 202.954 154.56H202.594V154.68C202.594 155.16 202.414 155.52 202.054 155.76H202.114C201.914 155.92 201.654 156 201.334 156H190.234C189.954 156 189.714 155.98 189.514 155.94C189.354 155.86 189.174 155.8 188.974 155.76C188.654 155.6 188.414 155.42 188.254 155.22C188.094 154.98 187.974 154.76 187.894 154.56H188.194V154.5L188.074 154.26L187.954 153.96H188.974L188.554 152.76H187.414L187.234 152.16H189.694L189.274 150.96H188.554L188.374 150.54H175.474L175.354 150.96H174.634L174.214 152.16H173.554L173.314 152.76H172.954L172.534 153.96H172.594L172.474 154.26L172.414 154.5L172.354 154.56H172.054C171.974 154.76 171.854 154.98 171.694 155.22C171.534 155.42 171.294 155.6 170.974 155.76H172.774C172.614 155.8 172.434 155.86 172.234 155.94C172.034 155.98 171.794 156 171.514 156H160.414C160.094 156 159.854 155.92 159.694 155.76H157.894C157.494 155.48 157.294 155.12 157.294 154.68V154.56H157.654C157.654 154.44 157.674 154.34 157.714 154.26L157.774 153.96H157.714L158.134 152.76H158.494L158.734 152.16H159.394L159.814 150.96H160.474L160.894 149.76H158.554L158.794 149.16H158.614L158.914 148.26H159.514L159.634 147.96H158.314L158.734 146.76H160.774L160.954 146.16H159.094L159.214 145.86H159.514L159.934 144.66H159.754L160.054 143.76H160.294L160.714 142.56H161.494L161.794 141.66L161.914 141.36H164.914L165.034 141.06H164.854L165.154 140.16H161.794L162.214 138.96H163.294L163.414 138.66H162.754L162.874 138.36H164.794L165.214 137.16H162.874L163.114 136.56H164.014L164.434 135.36H163.894L164.194 134.46H164.854L165.274 133.26H165.094L165.214 132.96H163.834L164.074 132.36H165.394L165.694 131.46H165.094L165.154 131.16H166.234L166.654 129.96H165.334L165.634 129.06H164.974L165.154 128.46H161.014L161.194 127.86H160.414L160.834 126.66H160.054L160.414 125.76H162.754L163.174 124.56H169.174L169.474 123.66H166.594L166.834 123.06H169.054L169.474 121.86H167.494L167.794 120.96H169.054L169.474 119.76H169.294L169.714 118.56H168.034L168.094 118.26H173.854L174.274 117.06H174.094L174.214 116.76H172.114L172.354 115.98L172.534 115.56H173.134L173.494 114.96H173.314C173.514 114.68 173.794 114.46 174.154 114.3C174.514 114.1 174.954 114 175.474 114H188.494C189.014 114 189.454 114.1 189.814 114.3C190.174 114.46 190.454 114.68 190.654 114.96H190.894L191.254 115.56H190.654C190.734 115.72 190.774 115.86 190.774 115.98L191.074 116.76H193.174L193.234 117.06H193.414L193.834 118.26H188.134L188.254 118.56H189.934L190.354 119.76H190.534L190.954 120.96H189.694L189.994 121.86H191.974L192.394 123.06H190.174L190.414 123.66H193.294L193.594 124.56H187.594L188.014 125.76H185.674L185.974 126.66H186.694L187.114 127.86H184.774L185.014 128.46H194.554L194.734 129.06H194.254L194.554 129.96H193.354L193.774 131.16H192.334L192.394 131.46H194.554L194.854 132.36H194.914L195.154 132.96H193.174L193.294 133.26H195.214L195.634 134.46H196.294L196.594 135.36H196.414L196.834 136.56H197.794L198.034 137.16H196.294L196.714 138.36H197.914L197.974 138.66H197.674L197.794 138.96H196.714L197.074 140.16H200.494L200.794 141.06H200.974L201.094 141.36H198.034L198.154 141.66H198.214L198.514 142.56H197.734L198.154 143.76H197.854L198.214 144.66H198.394L198.814 145.86H198.514L198.634 146.16H200.494L200.734 146.76H198.634L199.054 147.96H200.374L200.494 148.26H199.894L200.254 149.16H200.374L200.614 149.76H202.954L203.374 150.96H204.094L204.514 152.16H202.054L202.234 152.76H203.374ZM178.294 129.06H179.014L178.714 129.96H181.174L180.874 129.06H181.354L181.174 128.46H178.474L178.294 129.06ZM180.274 131.16L179.974 130.14L179.674 131.16H180.274ZM176.674 138.36L176.554 138.66H177.214L177.154 138.84H183.934L183.874 138.66H184.174L184.114 138.36H182.914L182.554 137.16H184.294L184.114 136.56H183.094L182.734 135.36H182.914L182.674 134.46H182.014L181.654 133.26H179.734L179.614 132.96H181.594L181.414 132.36H181.354L181.054 131.46H179.134L178.894 132.36H177.574L177.394 132.96H178.714L178.654 133.26H178.834L178.474 134.46H177.814L177.514 135.36H178.054L177.694 136.56H176.794L176.614 137.16H178.954L178.594 138.36H176.674Z" fill="black"/>
<path d="M272.008 129.06H271.348V129.96H272.728V130.26H272.188L272.008 131.46H272.668C272.628 131.54 272.608 131.64 272.608 131.76H271.768C271.728 131.96 271.688 132.16 271.648 132.36C271.608 132.56 271.548 132.76 271.468 132.96C271.468 133.12 271.428 133.32 271.348 133.56H270.748L270.388 134.46H270.328C270.288 134.66 270.208 134.86 270.088 135.06C269.968 135.26 269.868 135.46 269.788 135.66H269.908L269.728 135.96H270.268C270.148 136.16 270.028 136.36 269.908 136.56C269.788 136.76 269.648 136.96 269.488 137.16H269.908C269.748 137.36 269.568 137.56 269.368 137.76C269.208 137.96 269.028 138.16 268.828 138.36H268.708C268.468 138.56 268.228 138.76 267.988 138.96C267.788 139.16 267.548 139.36 267.268 139.56H266.908C266.588 139.76 266.248 139.96 265.888 140.16C265.568 140.36 265.228 140.56 264.868 140.76H265.048C264.968 140.8 264.868 140.84 264.748 140.88C264.628 140.92 264.528 140.98 264.448 141.06H264.388C263.628 141.42 262.788 141.72 261.868 141.96C261.428 142.08 260.968 142.2 260.488 142.32C260.008 142.4 259.528 142.48 259.048 142.56H258.988C257.388 142.8 255.688 142.92 253.888 142.92H249.688V143.46H250.108V144.66H250.828V144.96H249.388V145.56H249.928V146.46H248.428V146.76H250.288V147.96H249.748V149.46H249.988V150.36H249.268V151.56H248.968V152.16H250.948V153.06H249.268V154.26H250.408V154.38C250.408 154.58 250.388 154.74 250.348 154.86H249.988C249.988 154.9 249.948 155 249.868 155.16H250.048C250.008 155.24 249.928 155.34 249.808 155.46H249.868C249.708 155.62 249.588 155.72 249.508 155.76H249.568C249.368 155.92 249.088 156 248.728 156H236.368C236.008 156 235.728 155.92 235.528 155.76H235.408C235.328 155.72 235.208 155.62 235.048 155.46C235.008 155.38 234.968 155.32 234.928 155.28C234.888 155.24 234.868 155.2 234.868 155.16H234.688C234.608 155 234.568 154.9 234.568 154.86H234.868C234.828 154.74 234.808 154.58 234.808 154.38V154.26H233.668V153.06H235.348V152.16H233.368V151.56H233.668V150.36H234.388V149.46H234.148V147.96H234.688V146.76H232.828V146.46H234.328V145.56H233.788V144.96H235.228V144.66H234.508V143.46H234.088V142.56H234.148V140.76H234.028V139.56H234.388V138.36H234.568V137.16H234.148V135.96H233.608V135.66H233.488V134.46H233.548V133.56H234.148V131.76H233.968V131.46H233.788V130.26H234.448V129.96H234.208V129.06H234.448V128.46H234.388V127.86H232.708V126.66H226.048V125.76H229.108V124.56H234.568V123.96H232.288V122.76H230.908V121.86H231.808V121.56H230.548V120.36H235.168V120.06H234.568V119.16H233.188V118.26H231.268V117.06H235.588V116.16H233.488V115.86H233.068V115.56H234.148C234.148 115.4 234.188 115.2 234.268 114.96H233.608C233.648 114.84 233.708 114.74 233.788 114.66C233.868 114.54 233.948 114.44 234.028 114.36H237.688C238.008 114.12 238.348 114 238.708 114H256.888C258.648 114 260.268 114.12 261.748 114.36H258.148C258.628 114.44 259.088 114.54 259.528 114.66C260.008 114.74 260.448 114.84 260.848 114.96H261.568C261.888 115.04 262.188 115.14 262.468 115.26C262.788 115.34 263.088 115.44 263.368 115.56H262.288C262.408 115.6 262.528 115.64 262.648 115.68C262.768 115.72 262.888 115.78 263.008 115.86H263.368L264.028 116.16H266.188L267.748 117.06H263.368C263.688 117.22 263.968 117.42 264.208 117.66C264.448 117.86 264.688 118.06 264.928 118.26H266.848L267.748 119.16H269.128C269.248 119.32 269.368 119.48 269.488 119.64C269.648 119.76 269.768 119.9 269.848 120.06H270.448C270.568 120.18 270.648 120.28 270.688 120.36H266.068C266.188 120.52 266.308 120.72 266.428 120.96C266.548 121.16 266.668 121.36 266.788 121.56H268.048L268.168 121.86H267.328L267.688 122.76H269.128L269.488 123.96H271.768L271.948 124.56H266.488C266.568 124.72 266.608 124.92 266.608 125.16C266.648 125.36 266.688 125.56 266.728 125.76H274.408C274.448 125.92 274.468 126.08 274.468 126.24C274.468 126.36 274.488 126.5 274.528 126.66H274.228C274.268 126.86 274.288 127.06 274.288 127.26C274.328 127.46 274.348 127.66 274.348 127.86H272.008V129.06ZM256.948 129.96H255.568L255.748 129.06H256.408V128.46C256.408 128.38 256.408 128.28 256.408 128.16C256.408 128.04 256.388 127.94 256.348 127.86H258.688C258.648 127.66 258.608 127.46 258.568 127.26C258.528 127.02 258.468 126.82 258.388 126.66H258.628C258.548 126.34 258.348 126.04 258.028 125.76H250.348C249.868 125.36 249.288 125.16 248.608 125.16H244.408V125.76H241.348V126.66H248.008V127.86H249.688V128.46H249.748V129.06H249.508V129.96H249.748V130.26H249.088V131.46H249.268V131.76H249.448V131.82H253.648C253.888 131.82 254.068 131.8 254.188 131.76H255.028C255.188 131.72 255.328 131.68 255.448 131.64C255.568 131.56 255.688 131.5 255.808 131.46H255.208C255.688 131.18 256.048 130.78 256.288 130.26H256.828C256.908 130.1 256.948 130 256.948 129.96Z" fill="black"/>
<path d="M356.687 141.66H343.547V142.26H354.167V143.46H349.487V143.76H344.807V144.66H341.747V145.56H340.427V146.46H334.127V147.66H343.547V148.86H338.747V149.46H342.947V150.06H345.467V150.96H346.367V151.86H347.207V152.46H347.267V153.66H348.527V153.96H347.867V154.26H346.367V154.56H342.887L342.707 155.16H340.847C340.687 155.44 340.507 155.64 340.307 155.76H342.527C342.327 155.92 342.047 156 341.687 156H330.827C330.467 156 330.187 155.92 329.987 155.76H327.707C327.507 155.64 327.327 155.44 327.167 155.16H328.967C328.847 154.96 328.787 154.76 328.787 154.56H332.267V154.26H333.767V153.96H334.427V153.66H333.167V152.46H333.107V151.86H332.267V150.96H331.367V150.06H328.847V149.46H324.647V148.86H329.447V147.66H308.207V148.86H316.787V149.46H315.527V150.96H315.767V151.86H314.627V152.46H314.207V153.66H314.387V153.96H318.827V154.26H315.107V154.56H317.267C317.267 154.76 317.207 154.96 317.087 155.16H313.787C313.667 155.44 313.467 155.64 313.187 155.76H312.827C312.627 155.92 312.327 156 311.927 156H301.067C300.707 156 300.427 155.92 300.227 155.76H300.647C300.527 155.68 300.407 155.6 300.287 155.52C300.207 155.4 300.127 155.28 300.047 155.16H303.407C303.287 154.96 303.227 154.76 303.227 154.56H301.007V154.26H304.727V153.96H300.287V153.66H300.107V152.46H300.527V151.86H301.667V150.96H301.427V149.46H302.687V148.86H294.107V147.66H307.067V146.46H295.247V145.56H294.947V144.66H299.867V143.76H301.607V143.46H297.767V142.26H306.167V141.66H312.047L311.867 141.36H301.187V141.06H303.167V140.76H301.667V139.56H301.727V138.96H303.107V138.06H302.807V136.86H301.187V136.56H295.787V135.96H300.467V135.66H300.287V135.06H302.927V134.46H304.367V133.56H294.887V132.36H302.447V131.76H295.727V130.86H302.687V130.26H301.847V129.66H299.567V129.36H300.707V128.46H307.607V127.56H306.587V126.96H300.887V126.66H300.587V125.76H303.407V124.56H297.167V123.96H299.327V123.66H299.927V123.06H298.547V122.16H303.947V121.26H301.187V120.06H305.747V119.76H304.307V118.56H309.647V117.66H297.107V116.76H310.427V115.86H304.547V115.26H300.047C300.087 115.06 300.147 114.9 300.227 114.78C300.347 114.62 300.467 114.48 300.587 114.36H300.887C301.127 114.12 301.467 114 301.907 114H311.387C311.947 114 312.407 114.12 312.767 114.36H312.467C312.707 114.48 312.907 114.62 313.067 114.78C313.227 114.94 313.347 115.1 313.427 115.26H317.987L318.227 115.62L318.347 115.86H324.287L324.827 116.76H311.507L312.047 117.66H324.527L325.067 118.56H319.787L320.507 119.76H321.947L322.127 120.06H317.567L318.287 121.26H320.987L321.527 122.16H316.187L316.727 123.06H318.107L318.467 123.66H317.867L318.047 123.96H315.887L316.247 124.56H322.487L323.207 125.76H320.387L320.927 126.66H321.227L321.407 126.96H325.847L326.027 126.66H324.407L324.947 125.76H326.927L327.647 124.56H326.567L326.927 123.96H322.067L322.247 123.66H328.307L328.667 123.06H328.187L328.727 122.16H332.327L332.867 121.26H333.047L333.767 120.06H331.007L331.187 119.76H337.487L338.207 118.56H337.847L338.387 117.66H329.147L329.687 116.76H338.567L339.107 115.86H332.567L332.687 115.62C332.767 115.46 332.847 115.34 332.927 115.26H333.047C333.167 115.1 333.307 114.94 333.467 114.78C333.627 114.62 333.807 114.48 334.007 114.36H333.887C334.247 114.12 334.707 114 335.267 114H344.747C345.147 114 345.487 114.12 345.767 114.36H345.947C346.067 114.48 346.167 114.62 346.247 114.78C346.367 114.9 346.447 115.06 346.487 115.26H346.367V115.86H352.967V116.76H344.087V117.66H353.327V118.56H353.687V119.76H347.387V120.06H350.147V121.26H349.967V122.16H346.367V123.06H346.847V123.66H340.787V123.96H345.647V124.56H346.727V125.76H344.807V126.66H346.367V126.96H349.187V127.56H343.007V128.46H347.447V129.36H346.367V129.66H346.607V130.26H347.447V130.86H340.487V131.76H347.207V132.36H339.647V133.56H349.127V134.46H347.687V135.06H345.047V135.66H345.227V135.96H340.547V136.56H345.947V136.86H347.567V138.06H346.187V138.96H345.167V139.56H346.367V140.76H346.907V141.06H349.487V141.36H356.687V141.66ZM328.607 126.96H327.107L327.467 127.56H328.247L328.607 126.96ZM321.527 129.36L321.707 129.66H324.047L324.227 130.02L324.467 129.66H324.227L324.407 129.36H325.427L325.967 128.46H322.187L322.727 129.36H321.527ZM330.407 138.96H332.087V138.06H330.947L330.407 138.96ZM315.767 140.76H317.267V141.06H315.287V141.36H319.367L319.187 141.06H318.227L317.987 140.76H317.447L316.727 139.56H316.847L316.487 138.96H315.827V139.56H315.767V140.76ZM342.587 141.66V141.36H335.387V141.06H332.807V140.76H332.267V139.56H331.307L330.527 140.76H331.127L330.947 141.06H331.907L331.727 141.36H326.807V141.66H320.267V142.26H311.867V143.46H315.707V143.76H313.967V144.66H309.047V145.56H309.347V146.46H326.327V145.56H327.647V144.66H322.607C322.487 144.82 322.367 144.98 322.247 145.14C322.127 145.3 321.967 145.44 321.767 145.56H321.587C321.227 145.8 320.827 145.92 320.387 145.92H316.187C315.707 145.92 315.287 145.8 314.927 145.56H315.107C314.947 145.44 314.787 145.3 314.627 145.14C314.507 144.98 314.387 144.82 314.267 144.66H320.447L320.267 144.42L319.847 143.76H317.687L317.507 143.46H321.707L320.927 142.26H327.947L327.587 141.66H342.587ZM340.067 143.46V142.26H332.207L331.487 143.46H327.347L327.167 143.76H329.327L328.907 144.42L328.727 144.66H330.707V143.76H335.387V143.46H340.067Z" fill="black"/>
</g>
</svg>
