<svg width="240" height="144" viewBox="0 0 240 144" fill="none" xmlns="http://www.w3.org/2000/svg">
<g clip-path="url(#clip0_100_2)">
<path d="M38.9173 12.42V40.26C38.9173 43.42 37.3373 45 34.1773 45H13.8373C10.6773 45 9.09727 43.42 9.09727 40.26V12.42C9.09727 9.26 10.6773 7.68 13.8373 7.68H34.1773C37.3373 7.68 38.9173 9.26 38.9173 12.42ZM33.6973 39.6V13.08C33.6973 12.28 33.5773 11.78 33.3373 11.58C33.0973 11.34 32.5973 11.22 31.8373 11.22H16.2373C15.4773 11.22 14.9773 11.34 14.7373 11.58C14.4973 11.78 14.3773 12.28 14.3773 13.08V39.6C14.3773 40.4 14.4973 40.92 14.7373 41.16C14.9773 41.36 15.4773 41.46 16.2373 41.46H31.8373C32.5973 41.46 33.0973 41.36 33.3373 41.16C33.5773 40.92 33.6973 40.4 33.6973 39.6Z" fill="black"/>
<path d="M76.6205 7.68V45H71.3405V11.22H63.7805V7.68H76.6205Z" fill="black"/>
<path d="M110.275 13.08V20.4H105.055V12.42C105.055 9.26 106.635 7.68 109.795 7.68H129.955C133.115 7.68 134.695 9.26 134.695 12.42V15.12C134.695 17.36 134.455 19.1 133.975 20.34C133.535 21.58 132.555 22.9 131.035 24.3L112.315 41.46H134.935V45H105.115V41.52L125.575 22.8C126.935 21.52 127.915 20.32 128.515 19.2C129.115 18.04 129.415 16.6 129.415 14.88V13.08C129.415 12.28 129.295 11.78 129.055 11.58C128.815 11.34 128.315 11.22 127.555 11.22H112.135C111.335 11.22 110.815 11.34 110.575 11.58C110.375 11.78 110.275 12.28 110.275 13.08Z" fill="black"/>
<path d="M158.333 13.08V19.26H153.113V12.42C153.113 9.26 154.693 7.68 157.853 7.68H178.133C181.293 7.68 182.873 9.26 182.873 12.42V22.98C182.873 24.9 182.053 25.92 180.413 26.04C182.053 26.28 182.873 27.28 182.873 29.04V40.26C182.873 43.42 181.293 45 178.133 45H157.853C154.693 45 153.113 43.42 153.113 40.26V33.48H158.333V39.6C158.333 40.4 158.433 40.92 158.633 41.16C158.873 41.36 159.393 41.46 160.193 41.46H175.793C176.593 41.46 177.093 41.36 177.293 41.16C177.533 40.92 177.653 40.4 177.653 39.6V29.76C177.653 28.96 177.533 28.46 177.293 28.26C177.093 28.02 176.593 27.9 175.793 27.9H164.633V24.3H175.793C176.593 24.3 177.093 24.2 177.293 24C177.533 23.76 177.653 23.24 177.653 22.44V13.08C177.653 12.28 177.533 11.78 177.293 11.58C177.093 11.34 176.593 11.22 175.793 11.22H160.193C159.393 11.22 158.873 11.34 158.633 11.58C158.433 11.78 158.333 12.28 158.333 13.08Z" fill="black"/>
<path d="M234.319 35.4V38.94H227.299V45H222.319V38.94H198.859V35.46L216.559 7.68H222.139L204.679 35.4H222.319V25.32H227.299V35.4H234.319Z" fill="black"/>
<path d="M15.7863 70.26H34.6863C37.8463 70.26 39.4263 71.84 39.4263 75V88.26C39.4263 91.42 37.8463 93 34.6863 93H15.1263C11.9663 93 10.3863 91.42 10.3863 88.26V81.3H15.6663V87.6C15.6663 88.4 15.7863 88.92 16.0263 89.16C16.2663 89.36 16.7663 89.46 17.5263 89.46H32.3463C33.1463 89.46 33.6463 89.36 33.8463 89.16C34.0863 88.92 34.2063 88.4 34.2063 87.6V75.66C34.2063 74.9 34.0863 74.4 33.8463 74.16C33.6463 73.92 33.1463 73.8 32.3463 73.8H10.4463V55.68H38.8863V59.22H15.7863V70.26Z" fill="black"/>
<path d="M81.5297 87.6V77.16C81.5297 76.36 81.4097 75.86 81.1697 75.66C80.9697 75.42 80.4697 75.3 79.6697 75.3H63.1097V87.6C63.1097 88.4 63.2297 88.92 63.4697 89.16C63.7097 89.36 64.2097 89.46 64.9697 89.46H79.6697C80.4697 89.46 80.9697 89.36 81.1697 89.16C81.4097 88.92 81.5297 88.4 81.5297 87.6ZM63.1097 71.76H82.0097C85.1697 71.76 86.7497 73.34 86.7497 76.5V88.26C86.7497 91.42 85.1697 93 82.0097 93H62.5697C59.4097 93 57.8297 91.42 57.8297 88.26V60.42C57.8297 57.26 59.4097 55.68 62.5697 55.68H81.8297C84.9897 55.68 86.5697 57.26 86.5697 60.42V67.38H81.4097V61.08C81.4097 60.28 81.2897 59.78 81.0497 59.58C80.8497 59.34 80.3497 59.22 79.5497 59.22H64.9697C64.2097 59.22 63.7097 59.34 63.4697 59.58C63.2297 59.78 63.1097 60.28 63.1097 61.08V71.76Z" fill="black"/>
<path d="M134.23 55.68V58.74L117.85 93H112.27L128.35 59.22H106.99V55.68H134.23Z" fill="black"/>
<path d="M158.247 55.68H177.747C180.907 55.68 182.487 57.26 182.487 60.42V71.22C182.487 73.14 181.687 74.16 180.087 74.28C181.687 74.52 182.487 75.52 182.487 77.28V88.26C182.487 91.42 180.907 93 177.747 93H158.247C155.087 93 153.507 91.42 153.507 88.26V77.28C153.507 75.52 154.327 74.52 155.967 74.28C154.327 74.16 153.507 73.14 153.507 71.22V60.42C153.507 57.26 155.087 55.68 158.247 55.68ZM158.727 77.88V87.6C158.727 88.4 158.827 88.92 159.027 89.16C159.267 89.36 159.787 89.46 160.587 89.46H175.467C176.267 89.46 176.767 89.36 176.967 89.16C177.207 88.92 177.327 88.4 177.327 87.6V77.88C177.327 77.08 177.207 76.58 176.967 76.38C176.767 76.14 176.267 76.02 175.467 76.02H160.587C159.787 76.02 159.267 76.14 159.027 76.38C158.827 76.58 158.727 77.08 158.727 77.88ZM177.327 70.56V61.08C177.327 60.28 177.207 59.78 176.967 59.58C176.767 59.34 176.267 59.22 175.467 59.22H160.587C159.787 59.22 159.267 59.34 159.027 59.58C158.827 59.78 158.727 60.28 158.727 61.08V70.56C158.727 71.36 158.827 71.88 159.027 72.12C159.267 72.32 159.787 72.42 160.587 72.42H175.467C176.267 72.42 176.767 72.32 176.967 72.12C177.207 71.88 177.327 71.36 177.327 70.56Z" fill="black"/>
<path d="M208.523 73.92H225.023V61.08C225.023 60.28 224.903 59.78 224.663 59.58C224.463 59.34 223.963 59.22 223.163 59.22H208.523C207.723 59.22 207.203 59.34 206.963 59.58C206.763 59.78 206.663 60.28 206.663 61.08V72.06C206.663 72.82 206.763 73.32 206.963 73.56C207.203 73.8 207.723 73.92 208.523 73.92ZM206.123 55.68H225.563C228.723 55.68 230.303 57.26 230.303 60.42V88.26C230.303 91.42 228.723 93 225.563 93H206.423C203.263 93 201.683 91.42 201.683 88.26V81.9H206.903V87.6C206.903 88.4 207.003 88.92 207.203 89.16C207.443 89.36 207.963 89.46 208.763 89.46H223.163C223.963 89.46 224.463 89.36 224.663 89.16C224.903 88.92 225.023 88.4 225.023 87.6V77.46H206.123C202.963 77.46 201.383 75.88 201.383 72.72V60.42C201.383 57.26 202.963 55.68 206.123 55.68Z" fill="black"/>
<path d="M21.0375 138.96V132.06H26.9775V138.96H21.0375ZM21.0375 120.84V113.94H26.9775V120.84H21.0375Z" fill="black"/>
<path d="M69.0375 141V134.04H74.9775V141H69.0375Z" fill="black"/>
<path d="M111.131 130.08H128.891L119.951 107.28L111.131 130.08ZM133.151 141L130.271 133.62H109.751L106.931 141H101.651L116.171 103.68H123.791L138.371 141H133.151Z" fill="black"/>
<path d="M179.22 123.42V109.08C179.22 108.28 179.1 107.78 178.86 107.58C178.62 107.34 178.12 107.22 177.36 107.22H159.24V125.28H177.36C178.12 125.28 178.62 125.16 178.86 124.92C179.1 124.68 179.22 124.18 179.22 123.42ZM154.02 103.68H179.64C182.8 103.68 184.38 105.26 184.38 108.42V124.08C184.38 127.24 182.8 128.82 179.64 128.82H159.24V141H154.02V103.68Z" fill="black"/>
<path d="M200.691 141H196.131V103.68H201.831L215.691 128.34L230.151 103.68H235.851V141H231.291V110.4L218.151 132.9H213.351L200.691 110.4V141Z" fill="black"/>
</g>
</svg>
