<svg width="180" height="168" viewBox="0 0 180 168" fill="none" xmlns="http://www.w3.org/2000/svg">
<desc>{"colon":0.5,"dot":0.5}</desc>
<g clip-path="url(#clip0_100_2)">
<path d="M7.59961 12.5469C8.0293 11.6094 8.57617 10.7305 9.24023 9.91016C9.9043 9.05078 10.6465 8.30859 11.4668 7.68359C12.3262 7.01953 13.2441 6.51172 14.2207 6.16016C15.1973 5.76953 16.2129 5.57422 17.2676 5.57422C19.377 5.61328 21.3496 6.16016 23.1855 7.21484C25.0215 8.26953 26.5645 9.63672 27.8145 11.3164C28.7129 12.5273 29.2793 13.7969 29.5137 15.125C29.7871 16.4531 29.9238 17.8594 29.9238 19.3438C29.9629 21.7266 29.8262 24.1289 29.5137 26.5508C29.2012 28.9727 28.7324 31.3555 28.1074 33.6992C27.834 34.7148 27.5215 35.75 27.1699 36.8047C26.8184 37.8594 26.3691 38.875 25.8223 39.8516C25.3145 40.8281 24.6895 41.7266 23.9473 42.5469C23.2441 43.3281 22.4043 43.9727 21.4277 44.4805C19.6699 45.3789 18.0684 45.6914 16.623 45.418C15.2168 45.1445 13.9473 44.5 12.8145 43.4844C11.7207 42.4688 10.7637 41.1797 9.94336 39.6172C9.12305 38.0156 8.43945 36.375 7.89258 34.6953C7.3457 32.9766 6.91602 31.2969 6.60352 29.6562C6.29102 27.9766 6.07617 26.5508 5.95898 25.3789C5.76367 23.1914 5.74414 21.0039 5.90039 18.8164C6.0957 16.6289 6.66211 14.5391 7.59961 12.5469ZM25.1191 16.4727C24.9238 15.5742 24.4746 14.6758 23.7715 13.7773C23.1074 12.8789 22.3066 12.1172 21.3691 11.4922C20.4316 10.8672 19.416 10.457 18.3223 10.2617C17.2676 10.0664 16.2715 10.2227 15.334 10.7305C14.0449 11.4336 13.0488 12.3516 12.3457 13.4844C11.6816 14.6172 11.1934 15.8672 10.8809 17.2344C10.6074 18.5625 10.4512 19.9492 10.4121 21.3945C10.4121 22.8008 10.4707 24.1289 10.5879 25.3789C10.7832 27.3711 11.1543 29.4609 11.7012 31.6484C12.2871 33.8359 13.1074 35.8281 14.1621 37.625C14.4746 38.0938 14.7285 38.4844 14.9238 38.7969C15.1191 39.0703 15.4121 39.3828 15.8027 39.7344C16.0762 40.0078 16.252 40.1836 16.3301 40.2617C16.4473 40.3008 16.5059 40.3398 16.5059 40.3789L17.0918 40.6133C17.4043 40.6914 17.5996 40.75 17.6777 40.7891C17.7559 40.7891 17.8145 40.7891 17.8535 40.7891C18.166 40.7109 18.3809 40.6719 18.498 40.6719C18.7324 40.5938 19.0059 40.4766 19.3184 40.3203C19.6309 40.1641 19.9434 39.9492 20.2559 39.6758L20.7832 39.1484C21.0176 38.7969 21.1738 38.543 21.252 38.3867C21.3691 38.2305 21.4668 38.0742 21.5449 37.918C21.6621 37.7227 21.7793 37.5273 21.8965 37.332C22.0137 37.0977 22.1113 36.8828 22.1895 36.6875C22.3066 36.4531 22.3848 36.2969 22.4238 36.2188C22.4629 36.1016 22.541 35.8867 22.6582 35.5742C23.0879 34.4414 23.4395 33.3086 23.7129 32.1758C23.9863 31.043 24.2207 29.8906 24.416 28.7188C24.6113 27.5859 24.7676 26.4531 24.8848 25.3203C25.041 24.1875 25.1582 23.0352 25.2363 21.8633C25.2363 21.3164 25.2363 20.7891 25.2363 20.2812C25.2754 19.7344 25.2754 19.1875 25.2363 18.6406C25.2363 18.4062 25.2363 18.1914 25.2363 17.9961C25.2363 17.7617 25.2168 17.5273 25.1777 17.293C25.1777 17.2148 25.1582 17.0781 25.1191 16.8828C25.1191 16.6875 25.1191 16.5508 25.1191 16.4727Z" fill="black"/>
<path d="M51.7148 46.7656C51.0508 46.5703 50.582 46.1992 50.3086 45.6523C50.0742 45.1055 50.0156 44.5195 50.1328 43.8945C50.7188 40.7305 51.1289 37.5664 51.3633 34.4023C51.5977 31.2383 51.7344 28.0742 51.7734 24.9102C51.8125 21.707 51.793 18.5039 51.7148 15.3008C51.6758 12.0977 51.6562 8.91406 51.6562 5.75C51.6562 5.00781 51.8906 4.46094 52.3594 4.10938C52.8672 3.71875 53.4141 3.52344 54 3.52344C54.5859 3.52344 55.1133 3.71875 55.582 4.10938C56.0898 4.46094 56.3438 5.00781 56.3438 5.75C56.3438 9.03125 56.3633 12.332 56.4023 15.6523C56.4805 18.9336 56.4805 22.2148 56.4023 25.4961C56.3633 28.7773 56.207 32.0586 55.9336 35.3398C55.6602 38.6211 55.2109 41.8828 54.5859 45.125C54.4688 45.75 54.0977 46.2188 53.4727 46.5312C52.8867 46.8438 52.3008 46.9219 51.7148 46.7656Z" fill="black"/>
<path d="M103.828 42.4297C103.984 42.9766 103.906 43.582 103.594 44.2461C103.32 44.8711 102.852 45.2422 102.188 45.3594C98.0859 45.9062 93.9453 46.043 89.7656 45.7695C85.5859 45.4961 81.4844 44.832 77.4609 43.7773C76.9141 43.6602 76.5039 43.4258 76.2305 43.0742C75.9961 42.7227 75.8594 42.332 75.8203 41.9023C75.7812 41.4727 75.8398 41.043 75.9961 40.6133C76.1914 40.1836 76.4844 39.8125 76.875 39.5C78.9453 38.0156 80.957 36.4727 82.9102 34.8711C84.9023 33.2695 86.8164 31.5703 88.6523 29.7734C89.4727 28.9922 90.2734 28.1719 91.0547 27.3125C91.8359 26.4531 92.5586 25.5742 93.2227 24.6758C93.9258 23.7773 94.6289 22.8203 95.332 21.8047C96.0352 20.7891 96.543 19.7148 96.8555 18.582C97.0898 17.7227 97.168 16.8828 97.0898 16.0625C97.0117 15.2031 96.7969 14.4023 96.4453 13.6602C96.0938 12.918 95.5859 12.2734 94.9219 11.7266C94.2969 11.1797 93.5352 10.7695 92.6367 10.4961C91.6211 10.1836 90.6055 10.0273 89.5898 10.0273C88.5742 10.0273 87.5391 10.1445 86.4844 10.3789C85.4688 10.5742 84.4531 10.8477 83.4375 11.1992C82.4609 11.5117 81.5039 11.8438 80.5664 12.1953C79.8633 12.4297 79.2578 12.3906 78.75 12.0781C78.2812 11.7266 77.9688 11.2773 77.8125 10.7305C77.6562 10.1445 77.6953 9.55859 77.9297 8.97266C78.1641 8.34766 78.6328 7.91797 79.3359 7.68359C80.5859 7.25391 81.8555 6.84375 83.1445 6.45312C84.4727 6.0625 85.8008 5.76953 87.1289 5.57422C88.457 5.37891 89.7852 5.33984 91.1133 5.45703C92.4414 5.57422 93.75 5.90625 95.0391 6.45312C97.3828 7.46875 99.1797 9.07031 100.43 11.2578C101.68 13.4062 102.109 15.7695 101.719 18.3477C101.484 19.832 101.016 21.2188 100.312 22.5078C99.6094 23.7578 98.8086 24.9688 97.9102 26.1406C96.3477 28.3672 94.6484 30.3984 92.8125 32.2344C91.3281 33.7188 89.8047 35.125 88.2422 36.4531C86.7188 37.7812 85.1367 39.0703 83.4961 40.3203C86.3867 40.8672 89.2969 41.1992 92.2266 41.3164C95.1953 41.3945 98.1055 41.2383 100.957 40.8477C101.621 40.7695 102.207 40.8477 102.715 41.082C103.262 41.3164 103.633 41.7656 103.828 42.4297Z" fill="black"/>
<path d="M127.729 23.6211C129.721 24.2852 131.674 25.1641 133.588 26.2578C135.502 27.3125 137.045 28.7188 138.217 30.4766C138.881 31.4531 139.33 32.5078 139.564 33.6406C139.799 34.7344 139.838 35.8477 139.682 36.9805C139.525 38.0742 139.174 39.1484 138.627 40.2031C138.119 41.2188 137.436 42.1172 136.576 42.8984C134.936 44.4609 133.002 45.5547 130.775 46.1797C128.588 46.7656 126.381 47.0781 124.154 47.1172C122.279 47.1562 120.385 47.0391 118.471 46.7656C116.596 46.4922 114.779 45.9844 113.021 45.2422C112.436 44.9688 112.064 44.5 111.908 43.8359C111.791 43.1328 111.889 42.5273 112.201 42.0195C112.553 41.4336 113.021 41.082 113.607 40.9648C114.193 40.8477 114.779 40.9258 115.365 41.1992C115.17 41.1211 115.092 41.082 115.131 41.082C115.17 41.082 115.229 41.1016 115.307 41.1406C115.424 41.1797 115.541 41.2383 115.658 41.3164C115.814 41.3555 115.912 41.375 115.951 41.375C116.146 41.4531 116.322 41.5117 116.479 41.5508C116.635 41.5508 116.811 41.5898 117.006 41.668C117.396 41.7461 117.787 41.8242 118.178 41.9023C118.568 41.9805 118.979 42.0586 119.408 42.1367C119.877 42.2148 120.17 42.2539 120.287 42.2539C120.404 42.2539 120.541 42.2734 120.697 42.3125C120.932 42.3125 121.166 42.332 121.4 42.3711C121.635 42.3711 121.889 42.3711 122.162 42.3711C123.139 42.4102 124.154 42.4102 125.209 42.3711C125.834 42.332 126.342 42.293 126.732 42.2539C127.123 42.2148 127.592 42.1367 128.139 42.0195C128.373 41.9414 128.607 41.8828 128.842 41.8438C129.076 41.7656 129.311 41.6875 129.545 41.6094L130.248 41.4336C130.951 41.1211 131.518 40.8477 131.947 40.6133C132.416 40.3398 132.748 40.1055 132.943 39.9102C133.373 39.5586 133.686 39.2656 133.881 39.0312C134.076 38.7969 134.271 38.4844 134.467 38.0938C134.662 37.7812 134.818 37.3906 134.936 36.9219C135.092 36.4141 135.17 36.0039 135.17 35.6914V35.1055C135.053 34.5977 134.955 34.2461 134.877 34.0508C134.408 33.0742 133.861 32.3125 133.236 31.7656C132.611 31.1797 131.869 30.6328 131.01 30.125C130.072 29.5781 129.154 29.1289 128.256 28.7773C127.396 28.4258 126.439 28.0938 125.385 27.7812C124.955 27.6641 124.506 27.5469 124.037 27.4297C123.568 27.3125 123.119 27.2148 122.689 27.1367C122.611 27.1367 122.416 27.1172 122.104 27.0781C121.791 27.0391 121.674 27.0195 121.752 27.0195C121.596 26.9805 121.439 26.9609 121.283 26.9609C121.166 26.9609 121.029 26.9414 120.873 26.9023C120.326 26.8633 119.857 26.6875 119.467 26.375C119.076 26.0234 118.803 25.6133 118.646 25.1445C118.49 24.6758 118.49 24.207 118.646 23.7383C118.803 23.2695 119.154 22.8789 119.701 22.5664C121.186 21.7852 122.65 21.0234 124.096 20.2812C125.541 19.5391 126.947 18.7188 128.314 17.8203C128.9 17.4297 129.467 17.0195 130.014 16.5898C130.561 16.1602 131.068 15.6719 131.537 15.125C131.615 15.0469 131.713 14.9102 131.83 14.7148C131.986 14.5195 132.104 14.3047 132.182 14.0703C132.143 14.1484 132.162 14.0898 132.24 13.8945C132.318 13.6992 132.357 13.5625 132.357 13.4844C132.396 13.25 132.396 13.0352 132.357 12.8398C132.318 12.6445 132.221 12.4297 132.064 12.1953C131.869 11.9219 131.674 11.6875 131.479 11.4922C131.283 11.2578 131.068 11.0234 130.834 10.7891C130.287 10.2813 129.662 9.83203 128.959 9.44141C128.295 9.01172 127.572 8.75781 126.791 8.67969C125.854 8.60156 124.916 8.62109 123.979 8.73828C123.041 8.85547 122.104 9.03125 121.166 9.26562C120.268 9.5 119.369 9.75391 118.471 10.0273C117.572 10.3008 116.674 10.5547 115.775 10.7891C115.033 10.9844 114.408 10.8867 113.9 10.4961C113.432 10.1055 113.119 9.63672 112.963 9.08984C112.807 8.50391 112.846 7.9375 113.08 7.39062C113.314 6.84375 113.803 6.47266 114.545 6.27734C115.639 6.00391 116.752 5.69141 117.885 5.33984C119.057 4.98828 120.229 4.69531 121.4 4.46094C122.572 4.1875 123.744 4.03125 124.916 3.99219C126.127 3.91406 127.318 4.01172 128.49 4.28516C129.35 4.51953 130.248 4.89063 131.186 5.39844C132.162 5.86719 133.041 6.45312 133.822 7.15625C134.643 7.82031 135.326 8.58203 135.873 9.44141C136.459 10.3008 136.811 11.2188 136.928 12.1953C137.084 13.1328 137.045 14.0313 136.811 14.8906C136.576 15.7109 136.225 16.4922 135.756 17.2344C135.287 17.9375 134.721 18.6016 134.057 19.2266C133.393 19.8516 132.709 20.418 132.006 20.9258C131.342 21.4336 130.639 21.9023 129.896 22.332C129.193 22.7617 128.471 23.1914 127.729 23.6211Z" fill="black"/>
<path d="M174.773 25.9062C175.477 26.1016 175.945 26.4727 176.18 27.0195C176.414 27.5664 176.453 28.1328 176.297 28.7188C176.141 29.2656 175.809 29.7344 175.301 30.125C174.832 30.4766 174.227 30.5547 173.484 30.3594C173.289 30.3203 173.074 30.2812 172.84 30.2422C172.645 30.2031 172.449 30.1641 172.254 30.125C172.215 31.0234 172.176 31.9219 172.137 32.8203C172.137 33.6797 172.098 34.5586 172.02 35.457C171.941 36.9023 171.883 38.3477 171.844 39.793C171.844 41.2383 171.961 42.6641 172.195 44.0703C172.312 44.7344 172.234 45.3398 171.961 45.8867C171.688 46.3945 171.219 46.7461 170.555 46.9414C170.008 47.1367 169.422 47.0781 168.797 46.7656C168.172 46.4531 167.801 45.9648 167.684 45.3008C167.41 43.7383 167.254 42.1758 167.215 40.6133C167.215 39.0508 167.254 37.4883 167.332 35.9258C167.41 34.832 167.469 33.7578 167.508 32.7031C167.547 31.6094 167.586 30.5156 167.625 29.4219C164.93 29.1875 162.215 29.1094 159.48 29.1875C156.785 29.2656 154.09 29.2656 151.395 29.1875C150.809 29.1875 150.262 28.9727 149.754 28.543C149.246 28.0742 149.012 27.5078 149.051 26.8438C149.285 23.5625 149.441 20.3008 149.52 17.0586C149.598 13.8164 149.754 10.5352 149.988 7.21484C150.027 6.58984 150.262 6.04297 150.691 5.57422C151.121 5.10547 151.668 4.87109 152.332 4.87109C152.918 4.87109 153.465 5.10547 153.973 5.57422C154.48 6.04297 154.715 6.58984 154.676 7.21484C154.441 10.1445 154.285 13.0547 154.207 15.9453C154.168 18.7969 154.051 21.668 153.855 24.5586C156.199 24.5586 158.504 24.5586 160.77 24.5586C163.074 24.5195 165.398 24.5977 167.742 24.793C167.703 21.668 167.508 18.582 167.156 15.5352C166.844 12.4883 166.668 9.40234 166.629 6.27734C166.629 5.53516 166.863 4.98828 167.332 4.63672C167.84 4.24609 168.387 4.05078 168.973 4.05078C169.559 4.05078 170.086 4.24609 170.555 4.63672C171.062 4.98828 171.316 5.53516 171.316 6.27734C171.316 7.87891 171.375 9.48047 171.492 11.082C171.609 12.6445 171.727 14.2266 171.844 15.8281C172 17.4297 172.117 19.0312 172.195 20.6328C172.312 22.1953 172.371 23.7773 172.371 25.3789C173.113 25.4961 173.914 25.6719 174.773 25.9062Z" fill="black"/>
<path d="M24.3867 81.0273C25.3242 81.4961 26.3008 82.0625 27.3164 82.7266C28.3711 83.3516 29.3281 84.0742 30.1875 84.8945C31.0859 85.7148 31.8281 86.6133 32.4141 87.5898C33.0391 88.5664 33.3906 89.6406 33.4688 90.8125C33.5469 92.0234 33.2539 93.1367 32.5898 94.1523C31.9648 95.1289 31.1836 95.9492 30.2461 96.6133C29.9336 96.8477 29.6016 97.0625 29.25 97.2578C28.9375 97.4141 28.6055 97.5898 28.2539 97.7852C28.0586 97.8633 27.8438 97.9609 27.6094 98.0781C27.4141 98.1562 27.1992 98.2344 26.9648 98.3125C26.3398 98.5859 25.7734 98.8398 25.2656 99.0742C24.7578 99.3086 24.25 99.5234 23.7422 99.7188C22.6484 100.148 21.4766 100.578 20.2266 101.008C18.9766 101.438 17.707 101.75 16.418 101.945C15.168 102.141 13.918 102.16 12.668 102.004C11.457 101.809 10.3242 101.301 9.26953 100.48C8.76172 100.09 8.52734 99.5625 8.56641 98.8984C8.60547 98.1953 8.83984 97.6289 9.26953 97.1992C9.77734 96.6914 10.3242 96.457 10.9102 96.4961C11.5352 96.5352 12.1016 96.7695 12.6094 97.1992L13.4883 97.4336C13.4492 97.3945 13.5469 97.3945 13.7812 97.4336C14.0156 97.4336 14.1523 97.4336 14.1914 97.4336C14.582 97.4336 14.8555 97.4141 15.0117 97.375C15.5586 97.3359 16.1641 97.2383 16.8281 97.082C17.5312 96.9258 18.1758 96.75 18.7617 96.5547C20.0898 96.125 21.3203 95.6953 22.4531 95.2656C23.625 94.7969 24.7773 94.2891 25.9102 93.7422C26.2227 93.5859 26.5547 93.4102 26.9062 93.2148C27.2969 92.9805 27.6094 92.7656 27.8438 92.5703C28 92.4531 28.2148 92.2578 28.4883 91.9844L28.7812 91.457C28.8203 91.1055 28.8203 90.9102 28.7812 90.8711L28.5469 90.2266C28.4297 89.9922 28.3125 89.7969 28.1953 89.6406C28.0781 89.4844 28.0195 89.4258 28.0195 89.4648C27.8242 89.2695 27.6289 89.0742 27.4336 88.8789C27.2773 88.6836 27.1016 88.4883 26.9062 88.293C26.0469 87.5117 25.0898 86.8086 24.0352 86.1836C22.0039 84.9727 20.0117 83.9961 18.0586 83.2539C16.9648 82.8633 15.8516 82.5898 14.7188 82.4336C13.5859 82.2773 12.4531 82.082 11.3203 81.8477C10.1094 81.6523 8.89844 81.3398 7.6875 80.9102C6.51562 80.4805 5.51953 79.7969 4.69922 78.8594C4.30859 78.4297 3.97656 77.9414 3.70312 77.3945C3.42969 76.8086 3.33203 76.2031 3.41016 75.5781C3.48828 75.0703 3.54688 74.582 3.58594 74.1133C3.66406 73.6055 3.74219 73.0781 3.82031 72.5312C4.01562 71.5938 4.19141 70.6172 4.34766 69.6016C4.50391 68.5859 4.85547 67.668 5.40234 66.8477C6.06641 65.793 6.88672 64.9336 7.86328 64.2695C8.87891 63.5664 9.95312 63 11.0859 62.5703C13.3125 61.8281 15.5977 61.4375 17.9414 61.3984C20.3242 61.3594 22.668 61.3984 24.9727 61.5156C25.7148 61.5547 26.2812 61.8281 26.6719 62.3359C27.0625 62.8438 27.2578 63.3906 27.2578 63.9766C27.2578 64.5625 27.0625 65.0898 26.6719 65.5586C26.2812 66.0273 25.7148 66.2422 24.9727 66.2031C23.6055 66.125 22.2188 66.0664 20.8125 66.0273C19.4453 65.9883 18.0781 66.0469 16.7109 66.2031C15.5781 66.2812 14.3672 66.4961 13.0781 66.8477C11.8281 67.1602 10.8516 67.668 10.1484 68.3711C9.75781 68.7227 9.48438 69.0547 9.32812 69.3672C9.17188 69.6406 9.03516 70.0703 8.91797 70.6562C8.76172 71.2422 8.625 71.8477 8.50781 72.4727C8.42969 73.0586 8.35156 73.6641 8.27344 74.2891C8.23438 74.4844 8.19531 74.6602 8.15625 74.8164C8.15625 74.9336 8.13672 75.0898 8.09766 75.2852C8.17578 75.5586 8.27344 75.7734 8.39062 75.9297C8.50781 76.0469 8.52734 76.0859 8.44922 76.0469C8.60547 76.125 8.74219 76.2031 8.85938 76.2812C8.97656 76.3594 9.11328 76.4375 9.26953 76.5156C9.46484 76.5938 9.69922 76.6719 9.97266 76.75C10.2461 76.8281 10.5195 76.9062 10.793 76.9844C11.9648 77.2969 13.1562 77.5312 14.3672 77.6875C15.5781 77.8047 16.7695 78.0195 17.9414 78.332C19.0742 78.6445 20.168 79.0352 21.2227 79.5039C22.3164 79.9727 23.3711 80.4805 24.3867 81.0273Z" fill="black"/>
<path d="M46.8516 104.113C45.5625 103.723 44.5469 103.098 43.8047 102.238C43.1016 101.379 42.5938 100.402 42.2812 99.3086C41.9688 98.2148 41.793 97.0625 41.7539 95.8516C41.7539 94.6406 41.832 93.4883 41.9883 92.3945C42.0664 91.7305 42.1641 91.0664 42.2812 90.4023C42.4375 89.6992 42.5547 89.0156 42.6328 88.3516C42.2422 88.1953 41.9102 87.9414 41.6367 87.5898C41.4023 87.1992 41.2461 86.8086 41.168 86.418C41.1289 85.9883 41.1875 85.5781 41.3438 85.1875C41.5391 84.7969 41.8711 84.4648 42.3398 84.1914C42.457 84.1133 42.5742 84.0352 42.6914 83.957C42.8477 83.8789 43.0039 83.8008 43.1602 83.7227C43.3164 82.5898 43.4727 81.457 43.6289 80.3242C43.7852 79.1523 44 78 44.2734 76.8672C44.9375 73.6641 45.9531 70.6562 47.3203 67.8438C48.7266 65.0312 50.4844 62.3555 52.5938 59.8164C52.9844 59.3477 53.5117 59.1328 54.1758 59.1719C54.8789 59.1719 55.4453 59.3867 55.875 59.8164C56.3438 60.3242 56.5586 60.8906 56.5195 61.5156C56.5195 62.1016 56.3047 62.6484 55.875 63.1562C54.1562 65.1875 52.7305 67.375 51.5977 69.7188C50.4648 72.0234 49.5859 74.4648 48.9609 77.043C48.7656 77.8633 48.6094 78.6836 48.4922 79.5039C48.375 80.2852 48.2578 81.0859 48.1406 81.9062C50.3672 81.2812 52.6914 80.9688 55.1133 80.9688C57.1445 80.9688 59.0586 81.3008 60.8555 81.9648C62.6914 82.5898 64.2734 83.7227 65.6016 85.3633C66.1875 86.1055 66.6562 86.9062 67.0078 87.7656C67.3984 88.625 67.6328 89.5039 67.7109 90.4023C67.7891 91.2617 67.6914 92.1406 67.418 93.0391C67.1836 93.8984 66.7539 94.7188 66.1289 95.5C65.2695 96.5156 64.2539 97.3945 63.082 98.1367C61.9102 98.8398 60.7578 99.5039 59.625 100.129C58.4922 100.715 57.3594 101.281 56.2266 101.828C55.0938 102.336 53.9219 102.805 52.7109 103.234C51.8125 103.547 50.8359 103.84 49.7812 104.113C48.7266 104.387 47.75 104.387 46.8516 104.113ZM46.9102 90.6953C46.7148 91.7109 46.5586 92.7266 46.4414 93.7422C46.3633 94.7188 46.3828 95.7734 46.5 96.9062C46.5391 97.1797 46.5977 97.5117 46.6758 97.9023C46.793 98.293 46.9297 98.625 47.0859 98.8984C47.3594 99.2109 47.5156 99.3672 47.5547 99.3672C48.1016 99.5234 48.4336 99.582 48.5508 99.543C48.8633 99.5039 49.1172 99.4648 49.3125 99.4258C49.5469 99.3867 49.7812 99.3281 50.0156 99.25C50.5234 99.0938 51.0117 98.918 51.4805 98.7227C51.9883 98.5273 52.4961 98.332 53.0039 98.1367C54.0195 97.707 55.0547 97.2188 56.1094 96.6719C57.2031 96.125 58.2383 95.5586 59.2148 94.9727C59.6445 94.6992 60.0547 94.4453 60.4453 94.2109C60.875 93.9375 61.2852 93.6445 61.6758 93.332C61.6367 93.332 61.6953 93.2734 61.8516 93.1562C62.0469 93 62.1836 92.8828 62.2617 92.8047C62.418 92.6484 62.5352 92.5117 62.6133 92.3945C62.7305 92.2773 62.8281 92.1211 62.9062 91.9258C63.2188 91.3398 63.1992 90.5781 62.8477 89.6406C62.6523 89.25 62.3789 88.8594 62.0273 88.4688C61.7148 88.0391 61.3828 87.668 61.0312 87.3555C59.9766 86.457 58.7852 85.9297 57.457 85.7734C56.168 85.6172 54.8594 85.5977 53.5312 85.7148C51.4219 85.832 49.4102 86.2422 47.4961 86.9453C47.418 87.6094 47.3203 88.2539 47.2031 88.8789C47.125 89.4648 47.0273 90.0703 46.9102 90.6953Z" fill="black"/>
<path d="M91.5234 66.6133C89.4531 66.6133 87.3828 66.6328 85.3125 66.6719C83.2812 66.6719 81.2305 66.8086 79.1602 67.082C78.5352 67.1602 77.9883 66.9453 77.5195 66.4375C77.0508 65.8906 76.8164 65.3242 76.8164 64.7383C76.8164 64.0352 77.0508 63.4883 77.5195 63.0977C77.9883 62.707 78.5352 62.4727 79.1602 62.3945C81.2305 62.1211 83.2812 61.9844 85.3125 61.9844C87.3828 61.9844 89.4531 61.9844 91.5234 61.9844C92.8906 61.9844 94.2383 61.9844 95.5664 61.9844C96.8945 61.9844 98.2422 62.0234 99.6094 62.1016C100.391 62.1016 101.016 62.4141 101.484 63.0391C101.953 63.625 102.09 64.2891 101.895 65.0312C100.371 70.4219 98.7891 75.8125 97.1484 81.2031C96.5234 83.2734 95.8789 85.3438 95.2148 87.4141C94.5898 89.4453 93.9258 91.4766 93.2227 93.5078C92.7148 94.875 92.207 96.2812 91.6992 97.7266C91.2305 99.1719 90.6055 100.52 89.8242 101.77C89.4727 102.434 88.9844 102.805 88.3594 102.883C87.7734 102.961 87.2266 102.863 86.7188 102.59C86.2109 102.277 85.8398 101.848 85.6055 101.301C85.3711 100.715 85.4492 100.09 85.8398 99.4258L86.543 98.0195C86.582 97.9414 86.6211 97.8242 86.6602 97.668C86.7383 97.5117 86.7969 97.4141 86.8359 97.375C86.875 97.1406 86.9727 96.8867 87.1289 96.6133C87.4414 95.832 87.7344 95.0508 88.0078 94.2695C88.2812 93.4492 88.5742 92.6289 88.8867 91.8086C90.2148 87.8242 91.5039 83.7812 92.7539 79.6797C93.418 77.4922 94.0625 75.3242 94.6875 73.1758C95.3125 71.0273 95.9375 68.8594 96.5625 66.6719C95.7031 66.6719 94.8438 66.6719 93.9844 66.6719C93.1641 66.6328 92.3438 66.6133 91.5234 66.6133Z" fill="black"/>
<path d="M129.633 104.758C128.539 105.031 127.387 105.168 126.176 105.168C125.004 105.207 123.832 105.109 122.66 104.875C121.527 104.641 120.434 104.25 119.379 103.703C118.324 103.156 117.426 102.434 116.684 101.535C115.785 100.48 115.121 99.3672 114.691 98.1953C114.301 96.9844 114.105 95.7734 114.105 94.5625C114.105 93.3125 114.262 92.0625 114.574 90.8125C114.926 89.5234 115.375 88.293 115.922 87.1211C116.703 85.4414 117.602 83.8398 118.617 82.3164C119.633 80.793 120.707 79.2891 121.84 77.8047C121.059 77.2578 120.297 76.7109 119.555 76.1641C118.812 75.6172 118.09 75.0117 117.387 74.3477C116.566 73.5664 115.785 72.6875 115.043 71.7109C114.301 70.6953 113.891 69.5625 113.812 68.3125C113.773 67.2188 114.027 66.3008 114.574 65.5586C115.121 64.8164 115.805 64.1914 116.625 63.6836C117.484 63.1758 118.402 62.7852 119.379 62.5117C120.395 62.1992 121.332 61.9648 122.191 61.8086C123.871 61.4961 125.531 61.2812 127.172 61.1641C128.852 61.0469 130.531 60.9492 132.211 60.8711C132.328 60.4414 132.426 60.0117 132.504 59.582C132.621 59.1523 132.738 58.7227 132.855 58.293C133.051 57.5898 133.422 57.1211 133.969 56.8867C134.555 56.6523 135.121 56.6133 135.668 56.7695C136.254 56.9258 136.723 57.2578 137.074 57.7656C137.465 58.2344 137.562 58.8203 137.367 59.5234L137.016 60.9297C137.484 61.1641 137.797 61.5352 137.953 62.043C138.148 62.5117 138.188 63 138.07 63.5078C137.992 63.9766 137.758 64.4062 137.367 64.7969C137.016 65.1875 136.527 65.3828 135.902 65.3828C135.551 66.3203 135.18 67.1602 134.789 67.9023C134.047 69.6211 133.109 71.2227 131.977 72.707C130.883 74.1523 129.73 75.5977 128.52 77.043C128.754 77.1602 128.969 77.3164 129.164 77.5117C130.336 78.5273 131.352 79.6797 132.211 80.9688C133.109 82.2188 133.93 83.5273 134.672 84.8945C135.453 86.3008 136.117 87.7852 136.664 89.3477C137.25 90.9102 137.582 92.5117 137.66 94.1523C137.777 96.7305 137.094 98.9961 135.609 100.949C134.164 102.863 132.172 104.133 129.633 104.758ZM119.203 69.4844C119.633 69.9922 120.062 70.4609 120.492 70.8906C120.961 71.2812 121.469 71.6914 122.016 72.1211C122.953 72.8633 123.871 73.5469 124.77 74.1719C124.887 74.0547 125.004 73.9375 125.121 73.8203C125.238 73.7031 125.336 73.5664 125.414 73.4102C126.273 72.3945 127.113 71.3594 127.934 70.3047C128.793 69.25 129.535 68.1172 130.16 66.9062C130.238 66.7109 130.336 66.4961 130.453 66.2617C130.57 66.0273 130.668 65.8125 130.746 65.6172C129.184 65.6562 127.641 65.7734 126.117 65.9688C125.18 66.0469 124.203 66.1836 123.188 66.3789C122.172 66.5742 121.176 66.8477 120.199 67.1992C119.848 67.3555 119.613 67.4531 119.496 67.4922C119.418 67.4922 119.34 67.5312 119.262 67.6094C118.949 67.8047 118.773 67.9023 118.734 67.9023L118.559 68.4883C118.637 68.6836 118.734 68.8789 118.852 69.0742C118.969 69.2305 119.086 69.3672 119.203 69.4844ZM120.727 99.0156C122.328 100.07 124.086 100.578 126 100.539C126.898 100.539 127.777 100.441 128.637 100.246C129.496 100.012 130.316 99.6211 131.098 99.0742C131.293 98.8789 131.508 98.6641 131.742 98.4297C132.016 98.1562 132.23 97.8438 132.387 97.4922C132.66 96.8672 132.816 96.418 132.855 96.1445C132.973 95.6367 133.031 95.0898 133.031 94.5039C132.953 93.0195 132.621 91.5742 132.035 90.168C131.449 88.7617 130.785 87.4336 130.043 86.1836C129.691 85.5586 129.32 84.9141 128.93 84.25C128.539 83.5859 128.07 82.9805 127.523 82.4336C127.211 82.1211 126.898 81.8086 126.586 81.4961C126.273 81.1836 125.941 80.8906 125.59 80.6172C125.512 80.7344 125.414 80.8516 125.297 80.9688C125.18 81.0859 125.082 81.2031 125.004 81.3203C124.301 82.2578 123.559 83.2734 122.777 84.3672C122.035 85.4219 121.352 86.5156 120.727 87.6484C120.102 88.7812 119.594 89.9531 119.203 91.1641C118.812 92.3359 118.637 93.5078 118.676 94.6797C118.715 95.5 118.91 96.3203 119.262 97.1406C119.652 97.9609 120.141 98.5859 120.727 99.0156Z" fill="black"/>
<path d="M172.664 68.957C172.547 70.6758 172.332 72.3945 172.02 74.1133C171.746 75.793 171.648 77.4922 171.727 79.2109C171.805 81.0859 171.883 82.9609 171.961 84.8359C172.039 86.7109 172.059 88.6055 172.02 90.5195C171.941 92.5117 171.883 94.5039 171.844 96.4961C171.805 98.4883 171.805 100.48 171.844 102.473C171.844 103.215 171.59 103.762 171.082 104.113C170.613 104.504 170.086 104.699 169.5 104.699C168.914 104.699 168.367 104.504 167.859 104.113C167.391 103.762 167.156 103.215 167.156 102.473C167.117 99.6602 167.156 96.8672 167.273 94.0938C167.391 91.3203 167.43 88.5273 167.391 85.7148C164.656 86.4961 161.766 86.6328 158.719 86.125C158.016 86.0078 157.273 85.8906 156.492 85.7734C155.711 85.6172 154.949 85.4219 154.207 85.1875C153.465 84.9531 152.762 84.6406 152.098 84.25C151.434 83.8594 150.867 83.3516 150.398 82.7266C149.969 82.1016 149.676 81.3984 149.52 80.6172C149.402 79.8359 149.383 79.0547 149.461 78.2734C149.578 77.4531 149.734 76.6523 149.93 75.8711C150.164 75.0898 150.418 74.3672 150.691 73.7031C151.434 71.8672 152.332 70.1289 153.387 68.4883C154.441 66.8477 155.652 65.3438 157.02 63.9766C158.035 62.9609 159.148 62.0625 160.359 61.2812C161.57 60.5 162.859 59.8945 164.227 59.4648C165.125 59.1523 166.062 58.9766 167.039 58.9375C168.016 58.8984 168.914 59.1328 169.734 59.6406C170.516 60.1094 171.121 60.7148 171.551 61.457C171.98 62.1602 172.273 62.9414 172.43 63.8008C172.625 64.6602 172.723 65.5391 172.723 66.4375C172.723 67.2969 172.703 68.1367 172.664 68.957ZM168.094 67.668C168.094 67.2773 168.094 66.8867 168.094 66.4961C168.094 66.1055 168.074 65.7148 168.035 65.3242C167.996 65.3242 167.957 65.2266 167.918 65.0312C167.918 64.7969 167.898 64.6406 167.859 64.5625C167.703 64.0938 167.586 63.8398 167.508 63.8008L166.688 63.625C165.438 63.8984 164.324 64.3281 163.348 64.9141C162.371 65.5 161.453 66.2031 160.594 67.0234C158.367 69.2109 156.629 71.6914 155.379 74.4648C155.105 75.0508 154.852 75.6562 154.617 76.2812C154.422 76.9062 154.285 77.5312 154.207 78.1562C154.207 78.4297 154.188 78.7031 154.148 78.9766C154.148 79.2109 154.168 79.4453 154.207 79.6797L154.676 80.3242C155.066 80.4805 155.32 80.5781 155.438 80.6172C155.555 80.6562 155.672 80.6953 155.789 80.7344C157.195 81.0859 158.602 81.3789 160.008 81.6133C162.586 82.043 164.969 81.8086 167.156 80.9102C167.117 80.3242 167.078 79.7383 167.039 79.1523C167.039 78.5273 167.059 77.9219 167.098 77.3359C167.176 76.6328 167.254 75.9297 167.332 75.2266C167.41 74.5234 167.488 73.8398 167.566 73.1758C167.684 72.2773 167.781 71.3789 167.859 70.4805C167.977 69.543 168.055 68.6055 168.094 67.668Z" fill="black"/>
<path d="M19.1426 154.898C19.6504 155.211 20.041 155.68 20.3145 156.305C20.5879 156.93 20.627 157.516 20.4316 158.062C20.1973 158.727 19.8066 159.215 19.2598 159.527C18.8301 159.996 18.2832 160.211 17.6191 160.172C16.9551 160.172 16.4082 159.957 15.9785 159.527C15.3926 159.059 15.0215 158.668 14.8652 158.355C14.5527 157.809 14.4551 157.262 14.5723 156.715C14.7285 156.168 15.041 155.699 15.5098 155.309C15.5879 155.23 15.6855 155.152 15.8027 155.074C15.9199 154.957 16.0371 154.859 16.1543 154.781C16.5059 154.625 16.7012 154.547 16.7402 154.547C16.8184 154.547 17.0527 154.508 17.4434 154.43C17.7559 154.43 17.9902 154.469 18.1465 154.547C18.5371 154.625 18.8691 154.742 19.1426 154.898ZM20.0801 137.789C20.5879 138.102 20.9785 138.57 21.252 139.195C21.5254 139.781 21.5645 140.348 21.3691 140.895C21.2129 141.441 20.8418 141.949 20.2559 142.418C19.8262 142.887 19.2793 143.102 18.6152 143.062C17.9512 143.023 17.4043 142.789 16.9746 142.359C16.4277 142.008 16.0371 141.637 15.8027 141.246C15.4902 140.699 15.4121 140.152 15.5684 139.605C15.7246 139.02 16.0176 138.551 16.4473 138.199C16.7207 137.926 16.9551 137.75 17.1504 137.672C17.4629 137.516 17.6582 137.438 17.7363 137.438C17.8145 137.398 18.0293 137.359 18.3809 137.32C18.498 137.281 18.6348 137.281 18.791 137.32C18.9473 137.359 19.0645 137.379 19.1426 137.379C19.3379 137.418 19.4941 137.477 19.6113 137.555C19.7676 137.633 19.9238 137.711 20.0801 137.789Z" fill="black"/>
<path d="M55.6113 154.898C56.1191 155.211 56.5098 155.68 56.7832 156.305C57.0566 156.93 57.0957 157.516 56.9004 158.062C56.666 158.727 56.2754 159.215 55.7285 159.527C55.2988 159.996 54.752 160.211 54.0879 160.172C53.4238 160.172 52.877 159.957 52.4473 159.527C51.8613 159.059 51.4902 158.668 51.334 158.355C51.0215 157.809 50.9238 157.262 51.041 156.715C51.1973 156.168 51.5098 155.699 51.9785 155.309C52.0566 155.23 52.1543 155.152 52.2715 155.074C52.3887 154.957 52.5059 154.859 52.623 154.781C52.9746 154.625 53.1699 154.547 53.209 154.547C53.2871 154.547 53.5215 154.508 53.9121 154.43C54.2246 154.43 54.459 154.469 54.6152 154.547C55.0059 154.625 55.3379 154.742 55.6113 154.898Z" fill="black"/>
<path d="M80.2734 158.238C80.2734 158.98 80.0195 159.527 79.5117 159.879C79.043 160.27 78.5156 160.465 77.9297 160.465C77.3438 160.465 76.8164 160.27 76.3477 159.879C75.8789 159.527 75.6445 158.98 75.6445 158.238C75.6445 155.191 75.9961 152.262 76.6992 149.449C77.4023 146.637 78.2812 143.844 79.3359 141.07C79.0625 140.562 78.9844 139.996 79.1016 139.371C79.3359 138.551 79.8438 138.043 80.625 137.848C81.4062 135.973 82.207 134.117 83.0273 132.281C83.8867 130.406 84.707 128.531 85.4883 126.656C86.2695 124.781 86.9922 122.887 87.6562 120.973C88.3203 119.059 88.8672 117.105 89.2969 115.113C89.4141 114.527 89.6484 114.02 90 113.59C90.3906 113.16 90.918 112.945 91.582 112.945C92.207 112.945 92.7734 113.18 93.2812 113.648C93.7891 114.078 94.0039 114.625 93.9258 115.289C93.8086 117.555 93.8477 119.645 94.043 121.559C94.2383 123.434 94.5312 125.309 94.9219 127.184C95.3125 129.02 95.7422 130.875 96.2109 132.75C96.7188 134.586 97.1875 136.422 97.6172 138.258C98.0469 140.016 98.4375 141.773 98.7891 143.531C99.1406 145.289 99.707 146.988 100.488 148.629C100.879 149.449 101.289 150.25 101.719 151.031C102.148 151.773 102.617 152.535 103.125 153.316C103.594 154.02 104.023 154.762 104.414 155.543C104.805 156.285 105.078 157.105 105.234 158.004C105.312 158.629 105.215 159.215 104.941 159.762C104.707 160.309 104.258 160.68 103.594 160.875C103.047 161.031 102.461 160.953 101.836 160.641C101.211 160.328 100.84 159.859 100.723 159.234C100.566 158.336 100.254 157.535 99.7852 156.832C99.3555 156.129 98.9062 155.406 98.4375 154.664C97.8906 153.805 97.3828 152.945 96.9141 152.086C96.4844 151.188 96.0938 150.27 95.7422 149.332C95.3516 148.355 95.0195 147.379 94.7461 146.402C94.4727 145.387 94.2188 144.371 93.9844 143.355C92.2266 143.238 90.4883 143.16 88.7695 143.121C87.0898 143.043 85.3906 142.906 83.6719 142.711C82.7344 145.211 81.9336 147.75 81.2695 150.328C80.6445 152.906 80.3125 155.543 80.2734 158.238ZM85.7812 137.496C85.7031 137.613 85.6445 137.75 85.6055 137.906C85.6055 138.023 85.5664 138.141 85.4883 138.258C86.7383 138.375 87.9688 138.453 89.1797 138.492C90.3906 138.492 91.6211 138.531 92.8711 138.609C92.4414 136.734 91.9727 134.879 91.4648 133.043C90.9961 131.168 90.5664 129.273 90.1758 127.359C89.4727 129.078 88.75 130.777 88.0078 132.457C87.2656 134.098 86.5234 135.777 85.7812 137.496Z" fill="black"/>
<path d="M116.977 125.074C116.898 124.449 116.801 123.844 116.684 123.258C116.605 122.672 116.547 122.086 116.508 121.5C116.43 120.797 116.41 120.055 116.449 119.273C116.527 118.492 116.684 117.75 116.918 117.047C117.191 116.344 117.562 115.719 118.031 115.172C118.5 114.625 119.145 114.234 119.965 114C121.215 113.648 122.484 113.707 123.773 114.176C125.062 114.605 126.273 115.094 127.406 115.641C128.5 116.188 129.574 116.773 130.629 117.398C131.684 118.023 132.777 118.609 133.91 119.156C134.496 119.43 135.082 119.723 135.668 120.035C136.254 120.348 136.762 120.719 137.191 121.148C137.66 121.539 138.031 122.027 138.305 122.613C138.617 123.16 138.793 123.805 138.832 124.547C138.871 125.328 138.734 126.09 138.422 126.832C138.148 127.574 137.855 128.297 137.543 129C135.785 132.906 133.539 136.559 130.805 139.957C129.789 141.207 128.637 142.379 127.348 143.473C126.098 144.527 124.672 145.211 123.07 145.523C123.422 147.75 123.812 149.938 124.242 152.086C124.711 154.234 125.238 156.402 125.824 158.59C126.02 159.332 125.922 159.938 125.531 160.406C125.18 160.914 124.73 161.246 124.184 161.402C123.637 161.559 123.07 161.52 122.484 161.285C121.898 161.051 121.508 160.562 121.312 159.82C120.062 155.055 119.105 150.289 118.441 145.523C117.777 140.719 117.348 135.836 117.152 130.875C117.113 130.211 117.094 129.566 117.094 128.941C117.094 128.316 117.074 127.672 117.035 127.008C117.035 126.734 117.035 126.48 117.035 126.246C117.035 125.973 117.016 125.719 116.977 125.484V125.074ZM121.137 119.391C121.098 120.25 121.137 121.168 121.254 122.145C121.293 122.574 121.312 122.848 121.312 122.965C121.352 123.082 121.371 123.18 121.371 123.258L121.547 124.312C121.664 125.484 121.723 126.676 121.723 127.887C121.801 129.605 121.859 131.324 121.898 133.043C121.977 134.723 122.094 136.422 122.25 138.141C122.289 138.609 122.309 139.078 122.309 139.547C122.348 140.016 122.406 140.465 122.484 140.895C122.875 140.777 123.148 140.68 123.305 140.602C123.461 140.484 123.617 140.387 123.773 140.309C124.008 140.152 124.184 140.016 124.301 139.898C125.277 139.117 126.098 138.336 126.762 137.555C127.426 136.773 128.051 135.973 128.637 135.152C129.926 133.355 131.078 131.5 132.094 129.586C132.289 129.156 132.484 128.766 132.68 128.414C132.875 128.023 133.07 127.613 133.266 127.184C133.344 126.988 133.422 126.812 133.5 126.656C133.578 126.5 133.656 126.324 133.734 126.129C133.93 125.66 134.066 125.27 134.145 124.957C134.145 124.684 134.086 124.488 133.969 124.371C133.422 124.059 133.012 123.844 132.738 123.727C131.605 123.18 130.512 122.633 129.457 122.086C128.402 121.5 127.309 120.895 126.176 120.27C125.629 119.957 125.062 119.664 124.477 119.391C123.93 119.117 123.344 118.883 122.719 118.688C122.602 118.648 122.465 118.609 122.309 118.57C122.191 118.531 122.074 118.512 121.957 118.512C121.684 118.473 121.527 118.473 121.488 118.512C121.449 118.512 121.41 118.512 121.371 118.512C121.293 118.629 121.234 118.746 121.195 118.863C121.195 118.98 121.176 119.078 121.137 119.156V119.391Z" fill="black"/>
<path d="M151.248 157.828C151.248 158.57 150.994 159.117 150.486 159.469C150.018 159.859 149.49 160.055 148.904 160.055C148.318 160.055 147.771 159.859 147.264 159.469C146.795 159.117 146.561 158.57 146.561 157.828C146.561 151.578 146.639 145.367 146.795 139.195C146.951 132.984 147.322 126.773 147.908 120.562C147.986 119.898 148.221 119.371 148.611 118.98C149.041 118.59 149.49 118.375 149.959 118.336C150.467 118.258 150.955 118.355 151.424 118.629C151.932 118.863 152.303 119.293 152.537 119.918C153.318 122.145 154.041 124.391 154.705 126.656C155.369 128.883 156.014 131.129 156.639 133.395C157.303 135.66 157.967 137.926 158.631 140.191C159.334 142.418 160.096 144.625 160.916 146.812C162.947 141.695 164.783 136.559 166.424 131.402C168.104 126.246 169.451 120.953 170.467 115.523C170.584 114.938 170.857 114.508 171.287 114.234C171.717 113.961 172.186 113.824 172.693 113.824C173.24 113.824 173.729 113.961 174.158 114.234C174.588 114.508 174.861 114.938 174.979 115.523C175.291 117.281 175.389 119.02 175.271 120.738C175.193 122.418 175.154 124.137 175.154 125.895C175.154 127.77 175.252 129.605 175.447 131.402C175.682 133.199 175.877 135.016 176.033 136.852C176.346 140.523 176.58 144.195 176.736 147.867C176.893 151.539 177.029 155.211 177.146 158.883C177.146 159.664 176.912 160.23 176.443 160.582C175.975 160.973 175.447 161.168 174.861 161.168C174.275 161.168 173.729 160.973 173.221 160.582C172.713 160.23 172.459 159.664 172.459 158.883C172.381 155.211 172.244 151.539 172.049 147.867C171.893 144.195 171.658 140.523 171.346 136.852C171.268 136.188 171.189 135.504 171.111 134.801C171.072 134.098 171.014 133.414 170.936 132.75C169.803 136.305 168.572 139.801 167.244 143.238C165.955 146.676 164.607 150.113 163.201 153.551C163.006 154.02 162.713 154.43 162.322 154.781C161.971 155.094 161.521 155.25 160.975 155.25C160.584 155.25 160.193 155.152 159.803 154.957C159.412 154.723 159.119 154.43 158.924 154.078C157.361 150.641 156.033 147.145 154.939 143.59C153.846 140.035 152.771 136.441 151.717 132.809C151.521 136.988 151.385 141.168 151.307 145.348C151.268 149.488 151.248 153.648 151.248 157.828Z" fill="black"/>
</g>
</svg>
