<svg width="100" height="168" viewBox="0 0 100 168" fill="none" xmlns="http://www.w3.org/2000/svg">
<g clip-path="url(#clip0_100_2)">
<path d="M14.9844 49.4688C14.9844 50.375 14.8428 51.168 14.5596 51.8477C14.2764 52.5273 13.8988 53.0938 13.4268 53.5469C12.9548 54 12.4167 54.3398 11.8125 54.5664C11.2272 54.793 10.623 54.9062 10 54.9062C9.37695 54.9062 8.76335 54.793 8.15918 54.5664C7.57389 54.3398 7.04525 54 6.57324 53.5469C6.10124 53.0938 5.72363 52.5273 5.44043 51.8477C5.15723 51.168 5.01562 50.375 5.01562 49.4688V9.59375C5.01562 8.6875 5.15723 7.89453 5.44043 7.21484C5.72363 6.53516 6.10124 5.96875 6.57324 5.51562C7.04525 5.0625 7.57389 4.72266 8.15918 4.49609C8.76335 4.26953 9.37695 4.15625 10 4.15625C10.623 4.15625 11.2272 4.26953 11.8125 4.49609C12.4167 4.72266 12.9548 5.0625 13.4268 5.51562C13.8988 5.96875 14.2764 6.53516 14.5596 7.21484C14.8428 7.89453 14.9844 8.6875 14.9844 9.59375V49.4688ZM11.3594 9.59375C11.3594 8.91406 11.2178 8.4043 10.9346 8.06445C10.6514 7.72461 10.3398 7.55469 10 7.55469C9.66016 7.55469 9.34863 7.72461 9.06543 8.06445C8.78223 8.4043 8.64062 8.91406 8.64062 9.59375V49.4688C8.64062 50.1484 8.78223 50.6582 9.06543 50.998C9.34863 51.3379 9.66016 51.5078 10 51.5078C10.3398 51.5078 10.6514 51.3379 10.9346 50.998C11.2178 50.6582 11.3594 50.1484 11.3594 49.4688V9.59375Z" fill="black"/>
<path d="M25.4688 51.2812H28.1875V7.78125H25.4688V5.0625H31.8125V51.2812H34.5312V54H25.4688V51.2812Z" fill="black"/>
<path d="M45.0156 9.59375C45.0156 8.38542 45.2611 7.38477 45.752 6.5918C46.2428 5.77995 46.8564 5.17578 47.5928 4.7793C48.3291 4.36393 49.1315 4.15625 50 4.15625C50.8685 4.15625 51.6709 4.36393 52.4072 4.7793C53.1436 5.17578 53.7572 5.77995 54.248 6.5918C54.7389 7.38477 54.9844 8.38542 54.9844 9.59375C54.9844 10.1602 54.9749 10.6038 54.9561 10.9248C54.9561 11.2458 54.9277 11.5951 54.8711 11.9727C54.8145 12.3503 54.7295 12.8411 54.6162 13.4453C54.5029 14.0495 54.3424 14.918 54.1348 16.0508C53.9271 17.1647 53.6628 18.6185 53.3418 20.4121C53.0397 22.2057 52.6715 24.4997 52.2373 27.2939C51.8031 30.0693 51.2839 33.4206 50.6797 37.3477C50.0944 41.2747 49.4147 45.9193 48.6406 51.2812H54.9844V54H45.0156C45.8275 48.3171 46.5449 43.3704 47.168 39.1602C47.791 34.9499 48.3291 31.3249 48.7822 28.2852C49.2354 25.2454 49.613 22.7249 49.915 20.7236C50.2171 18.7035 50.4626 17.0609 50.6514 15.7959C50.8402 14.5309 50.9818 13.5586 51.0762 12.8789C51.1706 12.1992 51.2367 11.6706 51.2744 11.293C51.3311 10.9154 51.3594 10.6227 51.3594 10.415V9.59375C51.3594 8.6875 51.2178 8.00781 50.9346 7.55469C50.6514 7.10156 50.3398 6.875 50 6.875C49.6602 6.875 49.3486 7.10156 49.0654 7.55469C48.7822 8.00781 48.6406 8.6875 48.6406 9.59375V17.75H45.0156V9.59375Z" fill="black"/>
<path d="M64.5625 9.59375C64.5625 8.6875 64.7041 7.89453 64.9873 7.21484C65.2705 6.53516 65.6481 5.96875 66.1201 5.51562C66.5921 5.0625 67.1208 4.72266 67.7061 4.49609C68.3102 4.26953 68.9238 4.15625 69.5469 4.15625C70.1699 4.15625 70.7741 4.26953 71.3594 4.49609C71.9635 4.72266 72.5016 5.0625 72.9736 5.51562C73.4456 5.96875 73.8232 6.53516 74.1064 7.21484C74.3896 7.89453 74.5312 8.6875 74.5312 9.59375V25C74.5312 25.2266 74.5124 25.5003 74.4746 25.8213C74.4557 26.1423 74.3613 26.4727 74.1914 26.8125C74.0215 27.1523 73.7477 27.4827 73.3701 27.8037C73.0114 28.1247 72.4922 28.3984 71.8125 28.625C72.4922 28.8516 73.0114 29.1253 73.3701 29.4463C73.7477 29.7673 74.0215 30.0977 74.1914 30.4375C74.3613 30.7773 74.4557 31.1077 74.4746 31.4287C74.5124 31.7497 74.5312 32.0234 74.5312 32.25V49.4688C74.5312 50.375 74.3896 51.168 74.1064 51.8477C73.8232 52.5273 73.4456 53.0938 72.9736 53.5469C72.5016 54 71.9635 54.3398 71.3594 54.5664C70.7741 54.793 70.1699 54.9062 69.5469 54.9062C68.9238 54.9062 68.3102 54.793 67.7061 54.5664C67.1208 54.3398 66.5921 54 66.1201 53.5469C65.6481 53.0938 65.2705 52.5273 64.9873 51.8477C64.7041 51.168 64.5625 50.375 64.5625 49.4688V36.7812H68.1875V49.4688C68.1875 50.375 68.3291 51.0547 68.6123 51.5078C68.8955 51.9609 69.207 52.1875 69.5469 52.1875C69.8867 52.1875 70.1982 51.9609 70.4814 51.5078C70.7646 51.0547 70.9062 50.375 70.9062 49.4688V32.25C70.9062 31.7969 70.8496 31.4476 70.7363 31.2021C70.6419 30.9567 70.5098 30.7773 70.3398 30.6641C70.1699 30.5508 69.9717 30.4847 69.7451 30.4658C69.5374 30.4469 69.3203 30.4375 69.0938 30.4375H67.2812V26.8125H69.0938C69.3203 26.8125 69.5374 26.8031 69.7451 26.7842C69.9717 26.7653 70.1699 26.6992 70.3398 26.5859C70.5098 26.4727 70.6419 26.2933 70.7363 26.0479C70.8496 25.7835 70.9062 25.4248 70.9062 24.9717V9.59375C70.9062 8.6875 70.7646 8.00781 70.4814 7.55469C70.1982 7.10156 69.8867 6.875 69.5469 6.875C69.207 6.875 68.8955 7.10156 68.6123 7.55469C68.3291 8.00781 68.1875 8.6875 68.1875 9.59375V21.375H64.5625V9.59375Z" fill="black"/>
<path d="M94.5312 22.2812V54H90.9062V44.0312H84.5625L86.375 5.0625H90L88.1875 40.6895H90.9062V22.2812H94.5312Z" fill="black"/>
<path d="M11.7559 85.5312C11.7559 84.8516 11.6143 84.3418 11.3311 84.002C11.0479 83.6621 10.7363 83.4922 10.3965 83.4922C10.0566 83.4922 9.74512 83.6621 9.46191 84.002C9.17871 84.3418 9.03711 84.8516 9.03711 85.5312H5.41211V61.0625H15.3809V63.7812H9.03711V81.9062C9.39583 81.3587 9.83952 80.9339 10.3682 80.6318C10.9157 80.3298 11.4632 80.1787 12.0107 80.1787C12.4261 80.1787 12.832 80.2826 13.2285 80.4902C13.6439 80.679 14.012 80.9906 14.333 81.4248C14.654 81.859 14.9089 82.416 15.0977 83.0957C15.2865 83.7565 15.3809 84.5684 15.3809 85.5312V105.469C15.3809 106.375 15.2393 107.168 14.9561 107.848C14.6729 108.527 14.2952 109.094 13.8232 109.547C13.3512 110 12.8132 110.34 12.209 110.566C11.6237 110.793 11.0195 110.906 10.3965 110.906C9.77344 110.906 9.15983 110.793 8.55566 110.566C7.97038 110.34 7.44173 110 6.96973 109.547C6.49772 109.094 6.12012 108.527 5.83691 107.848C5.55371 107.168 5.41211 106.375 5.41211 105.469V89.1562H9.03711V105.469C9.03711 106.375 9.17871 107.055 9.46191 107.508C9.74512 107.961 10.0566 108.188 10.3965 108.188C10.7363 108.188 11.0479 107.961 11.3311 107.508C11.6143 107.055 11.7559 106.375 11.7559 105.469V85.5312Z" fill="black"/>
<path d="M28.6406 81.9062C29.1882 81.6419 29.7168 81.4342 30.2266 81.2832C30.7363 81.1322 31.2083 81.0566 31.6426 81.0566C32.6621 81.0566 33.474 81.4814 34.0781 82.3311C34.6823 83.1618 34.9844 84.5306 34.9844 86.4375V105.469C34.9844 106.375 34.8428 107.168 34.5596 107.848C34.2764 108.527 33.8988 109.094 33.4268 109.547C32.9548 110 32.4167 110.34 31.8125 110.566C31.2272 110.793 30.623 110.906 30 110.906C29.377 110.906 28.7633 110.793 28.1592 110.566C27.5739 110.34 27.0452 110 26.5732 109.547C26.1012 109.094 25.7236 108.527 25.4404 107.848C25.1572 107.168 25.0156 106.375 25.0156 105.469V65.5938C25.0156 64.6875 25.1572 63.8945 25.4404 63.2148C25.7236 62.5352 26.1012 61.9688 26.5732 61.5156C27.0452 61.0625 27.5739 60.7227 28.1592 60.4961C28.7633 60.2695 29.377 60.1562 30 60.1562C30.623 60.1562 31.2272 60.2695 31.8125 60.4961C32.4167 60.7227 32.9548 61.0625 33.4268 61.5156C33.8988 61.9688 34.2764 62.5352 34.5596 63.2148C34.8428 63.8945 34.9844 64.6875 34.9844 65.5938V75.5625H31.3594V65.5938C31.3594 64.6875 31.2178 64.0078 30.9346 63.5547C30.6514 63.1016 30.3398 62.875 30 62.875C29.6602 62.875 29.3486 63.1016 29.0654 63.5547C28.7822 64.0078 28.6406 64.6875 28.6406 65.5938V81.9062ZM31.3594 86.4375C31.3594 85.7578 31.2555 85.2858 31.0479 85.0215C30.859 84.7572 30.623 84.625 30.3398 84.625C30.0566 84.625 29.7546 84.7194 29.4336 84.9082C29.1315 85.097 28.8672 85.3047 28.6406 85.5312V105.469C28.6406 106.148 28.7822 106.658 29.0654 106.998C29.3486 107.338 29.6602 107.508 30 107.508C30.3398 107.508 30.6514 107.338 30.9346 106.998C31.2178 106.658 31.3594 106.148 31.3594 105.469V86.4375Z" fill="black"/>
<path d="M46.8281 110L50.4531 63.7812H45.9219V61.0625H54.0781L50.4531 110H46.8281Z" fill="black"/>
<path d="M69.6885 110.906C69.0654 110.906 68.4518 110.793 67.8477 110.566C67.2624 110.34 66.7337 110 66.2617 109.547C65.7897 109.094 65.4121 108.527 65.1289 107.848C64.8457 107.168 64.7041 106.375 64.7041 105.469V98.2188C64.7041 95.7077 64.8457 93.5459 65.1289 91.7334C65.4121 89.9209 65.7236 88.4199 66.0635 87.2305C66.46 85.8333 66.9131 84.6628 67.4229 83.7188C66.9131 82.7936 66.46 81.7363 66.0635 80.5469C65.7236 79.5273 65.4121 78.3001 65.1289 76.8652C64.8457 75.4115 64.7041 73.7689 64.7041 71.9375V65.5938C64.7041 64.6875 64.8457 63.8945 65.1289 63.2148C65.4121 62.5352 65.7897 61.9688 66.2617 61.5156C66.7337 61.0625 67.2624 60.7227 67.8477 60.4961C68.4518 60.2695 69.0654 60.1562 69.6885 60.1562C70.3115 60.1562 70.9157 60.2695 71.501 60.4961C72.1051 60.7227 72.6432 61.0625 73.1152 61.5156C73.5872 61.9688 73.9648 62.5352 74.248 63.2148C74.5312 63.8945 74.6729 64.6875 74.6729 65.5938V71.9375C74.6729 73.7689 74.5312 75.4115 74.248 76.8652C73.9648 78.3001 73.6533 79.5273 73.3135 80.5469C72.917 81.7363 72.4639 82.7936 71.9541 83.7188C72.4639 84.6628 72.917 85.8333 73.3135 87.2305C73.6533 88.4199 73.9648 89.9209 74.248 91.7334C74.5312 93.5459 74.6729 95.7077 74.6729 98.2188V105.469C74.6729 106.375 74.5312 107.168 74.248 107.848C73.9648 108.527 73.5872 109.094 73.1152 109.547C72.6432 110 72.1051 110.34 71.501 110.566C70.9157 110.793 70.3115 110.906 69.6885 110.906ZM69.6885 63.5547C69.3486 63.5547 69.0371 63.7246 68.7539 64.0645C68.4707 64.4043 68.3291 64.9141 68.3291 65.5938V72.8438C68.3291 73.75 68.3952 74.694 68.5273 75.6758C68.6784 76.6387 68.8389 77.5166 69.0088 78.3096C69.2165 79.2347 69.4525 80.141 69.7168 81.0283C69.9434 80.141 70.1605 79.2347 70.3682 78.3096C70.5381 77.5166 70.6891 76.6387 70.8213 75.6758C70.9723 74.694 71.0479 73.75 71.0479 72.8438V65.5938C71.0479 64.9141 70.9062 64.4043 70.623 64.0645C70.3398 63.7246 70.0283 63.5547 69.6885 63.5547ZM69.7168 86.4375C69.4525 87.6458 69.2165 88.873 69.0088 90.1191C68.8389 91.1953 68.6784 92.3753 68.5273 93.6592C68.3952 94.9242 68.3291 96.1419 68.3291 97.3125V105.469C68.3291 106.148 68.4707 106.658 68.7539 106.998C69.0371 107.338 69.3486 107.508 69.6885 107.508C70.0283 107.508 70.3398 107.338 70.623 106.998C70.9062 106.658 71.0479 106.148 71.0479 105.469V97.3125C71.0479 96.1419 70.9723 94.9242 70.8213 93.6592C70.6891 92.3753 70.5381 91.1953 70.3682 90.1191C70.1605 88.873 69.9434 87.6458 69.7168 86.4375Z" fill="black"/>
<path d="M91.3594 89.1562C90.8118 89.4206 90.2832 89.6283 89.7734 89.7793C89.2637 89.9303 88.7917 90.0059 88.3574 90.0059C87.3379 90.0059 86.526 89.5905 85.9219 88.7598C85.3177 87.9102 85.0156 86.5319 85.0156 84.625V65.5938C85.0156 64.6875 85.1572 63.8945 85.4404 63.2148C85.7236 62.5352 86.1012 61.9688 86.5732 61.5156C87.0452 61.0625 87.5739 60.7227 88.1592 60.4961C88.7633 60.2695 89.377 60.1562 90 60.1562C90.623 60.1562 91.2272 60.2695 91.8125 60.4961C92.4167 60.7227 92.9548 61.0625 93.4268 61.5156C93.8988 61.9688 94.2764 62.5352 94.5596 63.2148C94.8428 63.8945 94.9844 64.6875 94.9844 65.5938V105.469C94.9844 106.375 94.8428 107.168 94.5596 107.848C94.2764 108.527 93.8988 109.094 93.4268 109.547C92.9548 110 92.4167 110.34 91.8125 110.566C91.2272 110.793 90.623 110.906 90 110.906C89.377 110.906 88.7633 110.793 88.1592 110.566C87.5739 110.34 87.0452 110 86.5732 109.547C86.1012 109.094 85.7236 108.527 85.4404 107.848C85.1572 107.168 85.0156 106.375 85.0156 105.469V95.5H88.6406V105.469C88.6406 106.375 88.7822 107.055 89.0654 107.508C89.3486 107.961 89.6602 108.188 90 108.188C90.3398 108.188 90.6514 107.961 90.9346 107.508C91.2178 107.055 91.3594 106.375 91.3594 105.469V89.1562ZM88.6406 84.625C88.6406 85.3047 88.735 85.7767 88.9238 86.041C89.1315 86.3053 89.377 86.4375 89.6602 86.4375C89.9434 86.4375 90.236 86.3431 90.5381 86.1543C90.859 85.9655 91.1328 85.7578 91.3594 85.5312V65.5938C91.3594 64.9141 91.2178 64.4043 90.9346 64.0645C90.6514 63.7246 90.3398 63.5547 90 63.5547C89.6602 63.5547 89.3486 63.7246 89.0654 64.0645C88.7822 64.4043 88.6406 64.9141 88.6406 65.5938V84.625Z" fill="black"/>
<path d="M12.2656 134.281V138.812H7.73438V134.281H12.2656ZM12.2656 153.312V157.844H7.73438V153.312H12.2656Z" fill="black"/>
<path d="M32.2656 161.469V166H27.7344V161.469H32.2656Z" fill="black"/>
<path d="M55.4375 166H51.8125L51.3594 154.219H48.6689L48.1875 166H44.5625L47.2812 117.062H52.7188L55.4375 166ZM50.9062 140.625L50 118.875L49.0938 140.625L48.6689 151.5H51.3594L50.9062 140.625Z" fill="black"/>
<path d="M75.8906 137.906C75.8906 139.039 75.6829 139.917 75.2676 140.54C74.8522 141.144 74.3047 141.588 73.625 141.871C72.9453 142.154 72.1712 142.324 71.3027 142.381C70.4342 142.419 69.5469 142.438 68.6406 142.438V166H65.0156V117.062H68.6406C70.4531 117.062 71.8503 117.214 72.832 117.516C73.8138 117.818 74.5312 118.195 74.9844 118.648C75.4375 119.102 75.7018 119.592 75.7773 120.121C75.8529 120.65 75.8906 121.141 75.8906 121.594V137.906ZM72.2656 121.594C72.2656 121.141 72.1995 120.791 72.0674 120.546C71.9541 120.3 71.7559 120.121 71.4727 120.008C71.1895 119.895 70.8118 119.828 70.3398 119.81C69.8867 119.791 69.3203 119.781 68.6406 119.781V139.719C69.0938 139.719 69.5374 139.709 69.9717 139.69C70.4059 139.672 70.793 139.605 71.1328 139.492C71.4727 139.379 71.7464 139.2 71.9541 138.954C72.1618 138.709 72.2656 138.359 72.2656 137.906V121.594Z" fill="black"/>
<path d="M92.7188 117.062H96.3438L97.25 166H93.625V132.469L90.9062 163.281H89.0938L86.375 132.469V166H82.75L83.6562 117.062H87.2812L90 150.594L92.7188 117.062Z" fill="black"/>
</g>
</svg>
