<svg width="160" height="144" viewBox="0 0 160 144" fill="none" xmlns="http://www.w3.org/2000/svg">
<g clip-path="url(#clip0_100_2)">
<path d="M15.7879 44.6C13.2279 44.6 10.9679 44.06 9.00789 42.98C7.04789 41.86 5.50789 40.4 4.38789 38.6C3.30789 36.76 2.76789 34.74 2.76789 32.54L2.82789 13.52C2.82789 11.32 3.36789 9.32 4.44789 7.52C5.56789 5.72 7.10789 4.28 9.06789 3.2C11.0279 2.12 13.2679 1.58 15.7879 1.58C18.3479 1.58 20.5879 2.12 22.5079 3.2C24.4279 4.28 25.9279 5.72 27.0079 7.52C28.1279 9.32 28.6879 11.32 28.6879 13.52L28.7479 32.54C28.7479 34.74 28.1879 36.76 27.0679 38.6C25.9879 40.4 24.4679 41.86 22.5079 42.98C20.5879 44.06 18.3479 44.6 15.7879 44.6ZM21.4879 32.54L21.4279 13.52C21.4279 12.12 20.9079 10.98 19.8679 10.1C18.8279 9.22 17.4679 8.78 15.7879 8.78C14.0679 8.78 12.6879 9.22 11.6479 10.1C10.6079 10.98 10.0879 12.12 10.0879 13.52V32.54C10.0879 34.02 10.6079 35.2 11.6479 36.08C12.6879 36.92 14.0679 37.34 15.7879 37.34C17.4679 37.34 18.8279 36.92 19.8679 36.08C20.9479 35.2 21.4879 34.02 21.4879 32.54Z" fill="black"/>
<path d="M44.4012 44C44.2012 44 44.1012 43.9 44.1012 43.7L44.1612 2.48C44.1612 2.32 44.2412 2.24 44.4012 2.24H51.1212C51.2812 2.24 51.3612 2.32 51.3612 2.48L51.4212 43.7C51.4212 43.9 51.3412 44 51.1812 44H44.4012Z" fill="black"/>
<path d="M68.3764 44C68.1764 44 68.0764 43.9 68.0764 43.7V36.92C68.0764 36.84 68.1164 36.76 68.1964 36.68L83.0164 16.34C83.2964 15.98 83.5164 15.52 83.6764 14.96C83.8764 14.36 83.9764 13.84 83.9764 13.4C83.9764 12.24 83.5564 11.18 82.7164 10.22C81.8764 9.22 80.8164 8.72 79.5364 8.72C78.2964 8.72 77.2364 9.2 76.3564 10.16C75.5164 11.08 75.0964 12.26 75.0964 13.7V16.64C75.0964 16.84 74.9964 16.94 74.7964 16.94H68.0764C67.9164 16.94 67.8364 16.84 67.8364 16.64V13.7C67.8364 11.46 68.3764 9.42 69.4564 7.58C70.5764 5.74 72.0164 4.28 73.7764 3.2C75.5764 2.12 77.4964 1.58 79.5364 1.58C81.6964 1.58 83.6564 2.14 85.4164 3.26C87.1764 4.34 88.5764 5.78 89.6164 7.58C90.6964 9.38 91.2364 11.32 91.2364 13.4C91.2364 14.72 90.9964 16.06 90.5164 17.42C90.0764 18.78 89.4564 19.98 88.6564 21.02L77.2564 36.68H90.7564C90.9164 36.68 90.9964 36.76 90.9964 36.92V43.7C90.9964 43.9 90.9164 44 90.7564 44H68.3764Z" fill="black"/>
<path d="M111.507 44.66C109.387 44.66 107.427 44.12 105.627 43.04C103.867 41.92 102.447 40.44 101.367 38.6C100.327 36.76 99.8071 34.74 99.8071 32.54V29.84C99.8071 29.64 99.8871 29.54 100.047 29.54H106.767C106.967 29.54 107.067 29.64 107.067 29.84V32.54C107.067 33.86 107.487 35 108.327 35.96C109.167 36.88 110.227 37.34 111.507 37.34C112.907 37.34 114.007 36.86 114.807 35.9C115.607 34.9 116.007 33.78 116.007 32.54V30.92C116.007 29.68 115.607 28.56 114.807 27.56C114.047 26.56 113.067 26.06 111.867 26.06H109.527C109.327 26.06 109.227 25.96 109.227 25.76L109.287 19.04C109.287 18.88 109.367 18.8 109.527 18.8H111.867C112.947 18.8 113.907 18.38 114.747 17.54C115.587 16.7 116.007 15.6 116.007 14.24V13.4C116.007 12.12 115.567 11.04 114.687 10.16C113.847 9.24 112.787 8.78 111.507 8.78C110.267 8.78 109.207 9.24 108.327 10.16C107.487 11.04 107.067 12.12 107.067 13.4V16.28C107.067 16.48 106.987 16.58 106.827 16.58H100.107C99.9471 16.58 99.8671 16.48 99.8671 16.28V13.1C99.8671 10.9 100.407 8.94 101.487 7.22C102.607 5.5 104.047 4.14 105.807 3.14C107.607 2.1 109.507 1.58 111.507 1.58C113.667 1.58 115.627 2.12 117.387 3.2C119.187 4.24 120.607 5.64 121.647 7.4C122.687 9.16 123.207 11.1 123.207 13.22V14.18C123.207 15.94 122.907 17.46 122.307 18.74C121.747 20.02 120.947 21.24 119.907 22.4C120.947 23.6 121.767 24.92 122.367 26.36C122.967 27.76 123.267 29.22 123.267 30.74V32.54C123.267 34.78 122.727 36.82 121.647 38.66C120.607 40.5 119.187 41.96 117.387 43.04C115.627 44.12 113.667 44.66 111.507 44.66Z" fill="black"/>
<path d="M144.745 44C144.585 44 144.505 43.9 144.505 43.7V36.68H131.545C131.385 36.68 131.305 36.58 131.305 36.38V29.78L144.385 2.48C144.465 2.32 144.585 2.24 144.745 2.24H151.525C151.645 2.24 151.705 2.32 151.705 2.48L151.765 29.54H155.965C156.165 29.54 156.265 29.64 156.265 29.84V36.38C156.265 36.58 156.185 36.68 156.025 36.68H151.765V43.7C151.765 43.9 151.685 44 151.525 44H144.745ZM138.385 29.54H144.505V16.46L138.385 29.54Z" fill="black"/>
<path d="M16.1615 92.6C14.0415 92.6 12.0815 92.06 10.2815 90.98C8.48148 89.9 7.04148 88.48 5.96148 86.72C4.88148 84.92 4.34148 82.98 4.34148 80.9V79.1C4.34148 78.94 4.44148 78.86 4.64148 78.86H11.4215C11.5815 78.86 11.6615 78.94 11.6615 79.1V80.48C11.6615 81.84 12.1015 82.98 12.9815 83.9C13.8615 84.82 14.9215 85.28 16.1615 85.28C17.4015 85.28 18.4415 84.82 19.2815 83.9C20.1615 82.94 20.6015 81.8 20.6015 80.48V76.4C20.6015 75.16 20.1415 74.12 19.2215 73.28C18.3415 72.44 17.2415 72.02 15.9215 72.02C14.2015 72.02 12.7815 72.7 11.6615 74.06L11.5415 74.24L5.12148 73.76C4.92148 73.76 4.82148 73.66 4.82148 73.46L5.54148 57.02L5.90148 50.48C5.90148 50.32 5.98148 50.24 6.14148 50.24H26.3015C26.4615 50.24 26.5415 50.32 26.5415 50.48V57.02C26.5415 57.22 26.4615 57.32 26.3015 57.32H12.2615L11.9615 65.6C12.4415 65.36 13.0615 65.16 13.8215 65C14.6215 64.84 15.3415 64.76 15.9815 64.76C18.1415 64.76 20.1215 65.3 21.9215 66.38C23.7615 67.42 25.2215 68.82 26.3015 70.58C27.3815 72.34 27.9215 74.28 27.9215 76.4V80.48C27.9215 82.68 27.3815 84.7 26.3015 86.54C25.2615 88.38 23.8415 89.86 22.0415 90.98C20.2815 92.06 18.3215 92.6 16.1615 92.6Z" fill="black"/>
<path d="M47.8477 92.6C45.7277 92.6 43.7677 92.06 41.9677 90.98C40.2077 89.86 38.7877 88.4 37.7077 86.6C36.6277 84.8 36.0877 82.82 36.0877 80.66L36.0277 61.7C36.0277 59.5 36.5677 57.48 37.6477 55.64C38.7277 53.8 40.1677 52.34 41.9677 51.26C43.7677 50.14 45.7277 49.58 47.8477 49.58C50.0077 49.58 51.9677 50.14 53.7277 51.26C55.5277 52.34 56.9477 53.8 57.9877 55.64C59.0677 57.44 59.6077 59.46 59.6077 61.7V62.9C59.6077 63.06 59.5077 63.14 59.3077 63.14H52.5877C52.4277 63.14 52.3477 63.06 52.3477 62.9V61.7C52.3477 60.38 51.9077 59.26 51.0277 58.34C50.1877 57.38 49.1277 56.9 47.8477 56.9C46.6077 56.9 45.5477 57.38 44.6677 58.34C43.7877 59.26 43.3477 60.38 43.3477 61.7V65.84C44.7877 65.24 46.2877 64.94 47.8477 64.94C50.0077 64.94 51.9677 65.48 53.7277 66.56C55.5277 67.64 56.9477 69.1 57.9877 70.94C59.0277 72.74 59.5477 74.74 59.5477 76.94V80.66C59.5477 82.82 59.0077 84.82 57.9277 86.66C56.8877 88.46 55.4877 89.9 53.7277 90.98C51.9677 92.06 50.0077 92.6 47.8477 92.6ZM47.8477 85.4C49.0877 85.4 50.1277 84.94 50.9677 84.02C51.8477 83.1 52.2877 81.98 52.2877 80.66V76.94C52.2877 75.66 51.8477 74.56 50.9677 73.64C50.1277 72.68 49.0877 72.2 47.8477 72.2C46.6077 72.2 45.5477 72.66 44.6677 73.58C43.7877 74.5 43.3477 75.62 43.3477 76.94V80.66C43.3477 81.94 43.7877 83.06 44.6677 84.02C45.5477 84.94 46.6077 85.4 47.8477 85.4Z" fill="black"/>
<path d="M72.2485 92C72.0885 92 72.0485 91.9 72.1285 91.7L84.4885 57.32H68.1085C67.9485 57.32 67.8685 57.24 67.8685 57.08V50.54C67.8685 50.34 67.9485 50.24 68.1085 50.24H91.3285C91.4885 50.24 91.5685 50.34 91.5685 50.54V57.26L80.0485 91.7C79.9685 91.9 79.8485 92 79.6885 92H72.2485Z" fill="black"/>
<path d="M111.603 92.6C109.483 92.6 107.523 92.06 105.723 90.98C103.963 89.86 102.543 88.4 101.463 86.6C100.383 84.8 99.8434 82.82 99.8434 80.66V76.94C99.8434 75.26 100.163 73.7 100.803 72.26C101.443 70.78 102.303 69.48 103.383 68.36C102.503 67.4 101.803 66.28 101.283 65C100.803 63.68 100.563 62.28 100.563 60.8C100.563 58.72 101.043 56.84 102.003 55.16C103.003 53.44 104.343 52.08 106.023 51.08C107.703 50.08 109.563 49.58 111.603 49.58C113.643 49.58 115.483 50.1 117.123 51.14C118.803 52.14 120.143 53.48 121.143 55.16C122.143 56.84 122.643 58.72 122.643 60.8C122.643 62.28 122.383 63.66 121.863 64.94C121.383 66.22 120.703 67.36 119.823 68.36C120.903 69.44 121.743 70.72 122.343 72.2C122.983 73.68 123.303 75.26 123.303 76.94V80.66C123.303 82.82 122.763 84.82 121.683 86.66C120.643 88.46 119.243 89.9 117.483 90.98C115.723 92.06 113.763 92.6 111.603 92.6ZM111.603 64.82C112.643 64.82 113.523 64.44 114.243 63.68C115.003 62.88 115.383 61.92 115.383 60.8C115.383 59.68 115.003 58.72 114.243 57.92C113.523 57.12 112.643 56.72 111.603 56.72C110.563 56.72 109.663 57.12 108.903 57.92C108.143 58.72 107.763 59.68 107.763 60.8C107.763 61.88 108.143 62.82 108.903 63.62C109.663 64.42 110.563 64.82 111.603 64.82ZM111.603 85.4C112.843 85.4 113.883 84.94 114.723 84.02C115.603 83.1 116.043 81.98 116.043 80.66V76.94C116.043 75.66 115.603 74.56 114.723 73.64C113.883 72.68 112.843 72.2 111.603 72.2C110.363 72.2 109.303 72.66 108.423 73.58C107.543 74.5 107.103 75.62 107.103 76.94V80.66C107.103 81.94 107.543 83.06 108.423 84.02C109.303 84.94 110.363 85.4 111.603 85.4Z" fill="black"/>
<path d="M143.483 92.6C141.363 92.6 139.403 92.06 137.603 90.98C135.803 89.86 134.363 88.38 133.283 86.54C132.243 84.7 131.723 82.68 131.723 80.48V79.28C131.723 79.12 131.823 79.04 132.023 79.04H138.743C138.903 79.04 138.983 79.12 138.983 79.28V80.48C138.983 81.8 139.423 82.94 140.303 83.9C141.183 84.82 142.243 85.28 143.483 85.28C144.723 85.28 145.783 84.82 146.663 83.9C147.543 82.94 147.983 81.8 147.983 80.48V76.34C146.543 76.94 145.043 77.24 143.483 77.24C141.323 77.24 139.363 76.7 137.603 75.62C135.843 74.54 134.423 73.1 133.343 71.3C132.303 69.46 131.783 67.44 131.783 65.24V61.52C131.783 59.32 132.303 57.32 133.343 55.52C134.423 53.72 135.843 52.28 137.603 51.2C139.403 50.12 141.363 49.58 143.483 49.58C145.603 49.58 147.543 50.12 149.303 51.2C151.103 52.28 152.543 53.74 153.623 55.58C154.703 57.38 155.243 59.36 155.243 61.52V65.24L155.303 80.48C155.303 82.68 154.763 84.7 153.683 86.54C152.603 88.38 151.163 89.86 149.363 90.98C147.603 92.06 145.643 92.6 143.483 92.6ZM143.483 69.98C144.763 69.98 145.823 69.52 146.663 68.6C147.543 67.68 147.983 66.56 147.983 65.24V61.52C147.983 60.24 147.543 59.14 146.663 58.22C145.783 57.26 144.723 56.78 143.483 56.78C142.243 56.78 141.183 57.24 140.303 58.16C139.463 59.08 139.043 60.2 139.043 61.52V65.24C139.043 66.52 139.463 67.64 140.303 68.6C141.183 69.52 142.243 69.98 143.483 69.98Z" fill="black"/>
<path d="M12.5463 122.18C12.3863 122.18 12.3063 122.1 12.3063 121.94V115.16C12.3063 115 12.3863 114.92 12.5463 114.92H19.3263C19.4863 114.92 19.5663 115 19.5663 115.16V121.94C19.5663 122.1 19.4863 122.18 19.3263 122.18H12.5463ZM12.5463 140C12.3863 140 12.3063 139.92 12.3063 139.76V132.98C12.3063 132.82 12.3863 132.74 12.5463 132.74H19.3263C19.4863 132.74 19.5663 132.82 19.5663 132.98V139.76C19.5663 139.92 19.4863 140 19.3263 140H12.5463Z" fill="black"/>
<path d="M44.5463 140C44.3863 140 44.3063 139.92 44.3063 139.76V132.98C44.3063 132.82 44.3863 132.74 44.5463 132.74H51.3263C51.4863 132.74 51.5663 132.82 51.5663 132.98V139.76C51.5663 139.92 51.4863 140 51.3263 140H44.5463Z" fill="black"/>
<path d="M67.5573 139.7L74.9973 98.48C75.0373 98.32 75.1373 98.24 75.2973 98.24H83.9973C84.1573 98.24 84.2573 98.32 84.2973 98.48L91.4373 139.7C91.4773 139.9 91.3973 140 91.1973 140H84.5373C84.3773 140 84.2773 139.9 84.2373 139.7L83.5773 135.32H75.4173L74.7573 139.7C74.7173 139.9 74.6173 140 74.4573 140H67.7973C67.6373 140 67.5573 139.9 67.5573 139.7ZM76.6173 128.9H82.3773L79.9173 112.04L79.5573 109.82L79.3173 112.04L76.6173 128.9Z" fill="black"/>
<path d="M100.989 140C100.789 140 100.689 139.9 100.689 139.7L100.809 98.48C100.809 98.32 100.889 98.24 101.049 98.24H112.569C116.249 98.24 119.149 99.36 121.269 101.6C123.429 103.84 124.509 106.88 124.509 110.72C124.509 113.56 123.949 116.02 122.829 118.1C121.709 120.18 120.249 121.78 118.449 122.9C116.649 124.02 114.689 124.58 112.569 124.58H108.009V139.7C108.009 139.9 107.909 140 107.709 140H100.989ZM108.009 117.32H112.569C113.849 117.32 114.949 116.72 115.869 115.52C116.829 114.28 117.309 112.68 117.309 110.72C117.309 109.16 116.889 107.88 116.049 106.88C115.209 105.88 114.049 105.38 112.569 105.38L108.009 105.44V117.32Z" fill="black"/>
<path d="M130.527 140C130.367 140 130.287 139.9 130.287 139.7L130.407 98.48C130.407 98.32 130.487 98.24 130.647 98.24H137.967C138.127 98.24 138.267 98.32 138.387 98.48L143.847 106.4L149.307 98.48C149.427 98.32 149.567 98.24 149.727 98.24H157.107C157.267 98.24 157.347 98.32 157.347 98.48L157.467 139.7C157.467 139.9 157.387 140 157.227 140H150.447C150.287 140 150.207 139.9 150.207 139.7L150.147 109.1L143.847 118.22L137.607 109.1L137.547 139.7C137.547 139.9 137.467 140 137.307 140H130.527Z" fill="black"/>
</g>
</svg>
