<svg width="160" height="144" viewBox="0 0 160 144" fill="none" xmlns="http://www.w3.org/2000/svg">
<g clip-path="url(#clip0_100_2)">
<path d="M23.3023 2.76L30.7262 14.6V33.8L23.3023 45.64H8.71025L1.28625 33.8V14.6L8.71025 2.76H23.3023ZM20.8063 40.52L25.6063 31.816V16.584L20.8063 7.88H11.2063L6.40625 16.584V31.816L11.2063 40.52H20.8063Z" fill="black"/>
<path d="M55.8783 40.2C58.9503 40.2 60.4863 40.9893 60.4863 42.568C60.4863 44.1893 56.3263 45 48.0063 45C39.6863 45 35.5263 44.1893 35.5263 42.568C35.5263 40.9893 37.2969 40.2 40.8383 40.2C44.3369 40.2 46.0863 34.8667 46.0863 24.2C46.0863 13.5333 44.4436 8.2 41.1583 8.2C37.8303 8.2 36.1663 7.38933 36.1663 5.768C36.1663 4.18933 38.6836 3.4 43.7183 3.4C48.7103 3.4 51.2063 9.52267 51.2063 21.768C51.2063 34.056 52.7636 40.2 55.8783 40.2Z" fill="black"/>
<path d="M82.9503 40.2C89.0943 40.2 92.1663 40.9893 92.1663 42.568C92.1663 44.1893 88.1129 45 80.0063 45C71.8996 45 67.8463 44.1893 67.8463 42.568V40.2C67.8463 40.2 67.9316 40.0933 68.1023 39.88C68.3156 39.624 68.6143 39.2827 68.9983 38.856C68.9556 38.8987 69.6596 38.0453 71.1103 36.296C72.6036 34.504 74.8009 31.8587 77.7023 28.36L83.7183 20.68L85.9583 16.328V11.144L82.3103 7.56H76.5503L72.4543 11.208C72.4543 13.0853 71.7076 14.024 70.2143 14.024C69.2329 14.024 68.5716 13.9813 68.2303 13.896C67.9316 13.768 67.8036 13.448 67.8463 12.936C67.8889 12.3813 67.9103 11.464 67.9103 10.184L71.0463 5.448L76.3583 2.76H82.9503L88.1983 5.704L91.0783 10.824V16.712L88.1343 22.728L84.0383 28.04C82.8863 29.4053 81.8836 30.5787 81.0303 31.56C80.2196 32.4987 79.5583 33.2667 79.0463 33.864C79.0889 33.8213 78.8756 34.0773 78.4062 34.632C77.9796 35.144 77.3183 35.9333 76.4223 37C74.6303 39.1333 76.8063 40.2 82.9503 40.2Z" fill="black"/>
<path d="M124.166 24.392V36.872L121.03 42.44L115.462 45.64H108.55L103.046 42.696L99.7823 37.64C99.7823 36.2747 99.7609 35.3147 99.7183 34.76C99.6756 34.2053 99.8036 33.8853 100.102 33.8C100.444 33.672 101.105 33.608 102.086 33.608C103.58 33.608 104.326 34.632 104.326 36.68L108.678 40.84H115.142L119.046 36.808V29.96L114.694 25.736H109.254C108.017 25.736 107.398 24.9467 107.398 23.368C107.398 21.832 108.017 21.064 109.254 21.064H114.63L118.47 17.288V11.144L114.63 7.56H108.806L104.902 11.208C104.902 13.0853 104.156 14.024 102.662 14.024C101.638 14.024 100.977 13.96 100.678 13.832C100.38 13.704 100.252 13.384 100.294 12.872C100.337 12.3173 100.358 11.4 100.358 10.12L103.43 5.448L108.614 2.76H115.206L120.582 5.704L123.59 10.888V18.504L118.982 22.664C116.124 22.9627 117.852 23.5387 124.166 24.392Z" fill="black"/>
<path d="M158.342 33.288C158.342 34.9093 157.361 35.72 155.398 35.72C153.436 35.72 152.454 37.256 152.454 40.328C152.454 43.4427 151.601 45 149.894 45C148.188 45 147.334 43.4427 147.334 40.328C147.334 37.256 144.412 35.72 138.566 35.72C132.678 35.72 129.734 34.9093 129.734 33.288C129.734 32.8187 130.033 31.944 130.63 30.664C131.27 29.3413 132.102 27.784 133.126 25.992C134.15 24.1573 135.302 22.216 136.582 20.168C137.862 18.12 139.164 16.1147 140.486 14.152C141.852 12.1893 143.153 10.3973 144.39 8.776C145.67 7.15466 146.78 5.85333 147.718 4.872C148.7 3.89066 149.425 3.4 149.894 3.4C151.601 3.4 152.454 7.98666 152.454 17.16C152.454 26.3333 153.436 30.92 155.398 30.92C157.361 30.92 158.342 31.7093 158.342 33.288ZM141.382 30.92C145.35 30.92 147.334 27.7627 147.334 21.448C147.334 19.656 147.078 18.504 146.566 17.992C146.097 17.48 145.5 17.4373 144.774 17.864C144.049 18.248 143.281 18.9307 142.47 19.912C141.702 20.8933 140.998 22.0027 140.358 23.24C139.718 24.4773 139.27 25.6933 139.014 26.888C138.801 28.04 138.844 29 139.142 29.768C139.484 30.536 140.23 30.92 141.382 30.92Z" fill="black"/>
<path d="M20.4863 66.12L26.1183 69.576L29.4463 75.848V84.04L25.7983 90.312L19.7823 93.64H12.8063L6.66225 90.568L2.82225 84.872C2.65158 82.312 3.41958 81.032 5.12625 81.032C6.83292 81.032 7.81425 82.2267 8.07025 84.616L12.8063 88.648H18.3103L22.0223 86.6L24.3263 82.632V77.256L22.1503 73.224L18.6303 71.112H13.9583L9.86225 73.48C9.05158 75.4427 7.83558 76.2533 6.21425 75.912C5.70225 75.784 5.25425 75.1227 4.87025 73.928C4.48625 72.6907 4.25158 71.1547 4.16625 69.32C4.08092 67.4427 4.18758 65.48 4.48625 63.432C4.82758 61.3413 5.40358 59.4 6.21425 57.608C7.06758 55.7733 8.24092 54.28 9.73425 53.128C11.2276 51.976 13.1049 51.4 15.3663 51.4C22.1503 51.4 25.5423 52.1893 25.5423 53.768C25.5423 55.3893 22.9396 56.2 17.7343 56.2C12.5716 56.2 9.81958 58.8027 9.47825 64.008C9.30758 66.6107 9.28625 68.3173 9.41425 69.128C9.54225 69.9387 9.77692 69.8747 10.1183 68.936L14.4062 66.12H20.4863Z" fill="black"/>
<path d="M52.5503 66.12L58.2463 69.448L61.6383 75.592V83.848L57.9263 90.248L51.5903 93.64H44.1023L37.9583 90.376L34.3743 84.36V77.064C34.8863 75.7413 35.2916 74.6533 35.5903 73.8C35.9316 72.9467 36.1876 72.328 36.3583 71.944L44.6143 54.536C45.5529 52.4453 46.9609 51.4 48.8383 51.4C50.7156 51.4 50.1396 54.3867 47.1103 60.36C44.0809 66.376 43.5476 68.296 45.5103 66.12H52.5503ZM56.5183 75.72L51.7823 71.048H44.2943L39.4943 76.296V84.168L44.2943 88.712H51.4623L56.5183 83.848V75.72Z" fill="black"/>
<path d="M80.0703 51.4C87.9636 51.4 91.9103 52.1893 91.9103 53.768C91.9103 54.2373 91.6543 55.2827 91.1423 56.904C90.6729 58.5253 90.0116 60.5307 89.1583 62.92C88.3049 65.3093 87.3449 67.8693 86.2783 70.6C85.2543 73.288 84.1663 75.9547 83.0143 78.6C81.9049 81.2453 80.8169 83.656 79.7503 85.832C78.7263 88.008 77.7876 89.7573 76.9343 91.08C76.1236 92.36 75.4836 93 75.0143 93C73.3076 93 74.8436 86.856 79.6223 74.568C84.3583 62.3227 83.6329 56.2 77.4463 56.2C71.2596 56.2 68.1663 55.3893 68.1663 53.768C68.1663 52.1893 72.1343 51.4 80.0703 51.4Z" fill="black"/>
<path d="M121.35 72.328L125.446 77.64V84.936L122.246 90.44L116.166 93.64H107.846L101.766 90.44L98.5663 84.936V77.64L102.662 72.328C104.966 71.5173 105.094 70.7707 103.046 70.088L99.4623 65.608V58.824L102.534 53.704L108.166 50.76H115.846L121.478 53.704L124.55 58.824V65.608L120.966 70.088C118.918 70.7707 119.046 71.5173 121.35 72.328ZM108.678 55.56L104.582 59.144V64.904L108.742 68.744H115.27L119.43 64.904V59.144L115.334 55.56H108.678ZM115.782 88.84L120.326 84.744V78.28L115.782 74.056H108.23L103.686 78.28V84.744L108.23 88.84H115.782Z" fill="black"/>
<path d="M147.91 50.76L154.054 54.024L157.638 60.04V67.336C157.126 68.6587 156.7 69.7467 156.358 70.6C156.06 71.4533 155.825 72.072 155.654 72.456L147.398 89.864C146.46 91.9547 145.052 93 143.174 93C141.297 93 141.873 90.0133 144.902 84.04C147.932 78.024 148.465 76.104 146.502 78.28H139.59L133.83 74.888L130.374 68.744V60.488L134.086 54.152L140.422 50.76H147.91ZM147.718 73.352L152.518 68.104V60.232L147.718 55.688H140.55L135.494 60.552V68.68L140.23 73.352H147.718Z" fill="black"/>
<path d="M19.3343 112.968C19.3343 115.059 18.2249 116.104 16.0063 116.104C13.7876 116.104 12.6783 115.059 12.6783 112.968C12.6783 110.877 13.7876 109.832 16.0063 109.832C18.2249 109.832 19.3343 110.877 19.3343 112.968ZM19.3343 137.864C19.3343 139.955 18.2249 141 16.0063 141C13.7876 141 12.6783 139.955 12.6783 137.864C12.6783 135.773 13.7876 134.728 16.0063 134.728C18.2249 134.728 19.3343 135.773 19.3343 137.864Z" fill="black"/>
<path d="M51.3343 137.864C51.3343 139.955 50.2249 141 48.0063 141C45.7876 141 44.6783 139.955 44.6783 137.864C44.6783 135.773 45.7876 134.728 48.0063 134.728C50.2249 134.728 51.3343 135.773 51.3343 137.864Z" fill="black"/>
<path d="M92.9343 141C92.2089 141 91.5263 140.637 90.8863 139.912C90.2889 139.187 89.7343 138.291 89.2223 137.224C88.7529 136.115 88.3476 135.027 88.0063 133.96C87.6649 132.851 87.4089 131.933 87.2383 131.208C87.0676 130.483 86.9823 130.12 86.9823 130.12H79.9423C75.2489 130.12 72.3689 131.933 71.3023 135.56C70.2356 139.187 68.8063 141 67.0143 141C66.5876 141 66.3743 140.403 66.3743 139.208C66.4169 138.013 66.6303 136.413 67.0143 134.408C67.3983 132.403 67.9103 130.163 68.5503 127.688C69.2329 125.171 69.9796 122.568 70.7903 119.88C71.6009 117.192 72.4329 114.611 73.2863 112.136C74.1823 109.619 75.0569 107.357 75.9103 105.352C76.7636 103.347 77.5316 101.747 78.2143 100.552C78.9396 99.3573 79.5156 98.76 79.9423 98.76C80.4116 98.76 80.9876 99.3573 81.6703 100.552C82.3529 101.747 83.1209 103.347 83.9743 105.352C84.8276 107.357 85.7023 109.619 86.5983 112.136C87.4943 114.611 88.3476 117.192 89.1583 119.88C89.9689 122.568 90.6943 125.171 91.3343 127.688C92.0169 130.163 92.5503 132.403 92.9343 134.408C93.3609 136.413 93.5743 138.013 93.5743 139.208C93.6169 140.403 93.4036 141 92.9343 141ZM79.9423 125.256C83.6969 125.256 84.6356 122.056 82.7583 115.656C80.8809 109.256 79.0036 109.256 77.1263 115.656C75.2916 122.056 76.2303 125.256 79.9423 125.256Z" fill="black"/>
<path d="M117.19 99.4L123.398 102.6L127.046 108.68V117L123.398 123.08L117.19 126.28H107.846C104.22 126.28 102.406 128.733 102.406 133.64C102.406 138.547 101.553 141 99.8463 141C98.1396 141 97.2863 134.067 97.2863 120.2C97.2863 106.333 99.9529 99.4 105.286 99.4H117.19ZM117.126 121.352L121.926 116.68V108.872L117.19 104.328H107.846C104.22 104.328 102.406 107.165 102.406 112.84C102.406 118.515 104.22 121.352 107.846 121.352H117.126Z" fill="black"/>
<path d="M156.166 99.4C157.873 99.4 158.726 106.333 158.726 120.2C158.726 134.067 157.873 141 156.166 141C154.46 141 153.606 136.413 153.606 127.24C153.606 118.152 152.433 118.152 150.086 127.24C147.697 136.413 145.67 141 144.006 141C142.342 141 140.316 136.456 137.926 127.368C135.58 118.365 134.406 118.365 134.406 127.368C134.406 136.456 133.553 141 131.846 141C130.14 141 129.286 134.067 129.286 120.2C129.286 106.333 130.14 99.4 131.846 99.4C133.553 99.4 136.006 105.181 139.206 116.744C142.406 128.307 145.606 128.307 148.806 116.744C152.006 105.181 154.46 99.4 156.166 99.4Z" fill="black"/>
</g>
</svg>
