<svg width="160" height="132" viewBox="0 0 160 132" fill="none" xmlns="http://www.w3.org/2000/svg">
<g clip-path="url(#clip0_111_2)">
<path d="M19.48 22.74C19.48 23.78 19.16 24.68 18.52 25.44C17.92 26.2 17.12 26.58 16.12 26.58C15.08 26.58 14.24 26.2 13.6 25.44C12.96 24.68 12.64 23.78 12.64 22.74C12.64 21.7 12.96 20.78 13.6 19.98C14.24 19.18 15.08 18.78 16.12 18.78C17.12 18.78 17.92 19.18 18.52 19.98C19.16 20.78 19.48 21.7 19.48 22.74ZM3.76 23.4C3.76 17.16 4.82 12.38 6.94 9.06C9.1 5.7 12.12 4.02 16 4.02C19.92 4.02 22.94 5.7 25.06 9.06C27.18 12.38 28.24 17.16 28.24 23.4C28.24 29.64 27.18 34.44 25.06 37.8C22.94 41.12 19.92 42.78 16 42.78C12.12 42.78 9.1 41.12 6.94 37.8C4.82 34.44 3.76 29.64 3.76 23.4ZM23.2 23.4C23.2 21.36 23.08 19.44 22.84 17.64C22.6 15.8 22.2 14.2 21.64 12.84C21.08 11.48 20.34 10.4 19.42 9.6C18.5 8.8 17.36 8.4 16 8.4C14.64 8.4 13.5 8.8 12.58 9.6C11.66 10.4 10.92 11.48 10.36 12.84C9.8 14.2 9.4 15.8 9.16 17.64C8.92 19.44 8.8 21.36 8.8 23.4C8.8 25.44 8.92 27.38 9.16 29.22C9.4 31.02 9.8 32.6 10.36 33.96C10.92 35.32 11.66 36.4 12.58 37.2C13.5 38 14.64 38.4 16 38.4C17.36 38.4 18.5 38 19.42 37.2C20.34 36.4 21.08 35.32 21.64 33.96C22.2 32.6 22.6 31.02 22.84 29.22C23.08 27.38 23.2 25.44 23.2 23.4Z" fill="black"/>
<path d="M109.72 38.4C112.88 38.4 115.12 37.78 116.44 36.54C117.8 35.26 118.48 33.56 118.48 31.44C118.48 30.08 118.2 28.94 117.64 28.02C117.08 27.1 116.34 26.36 115.42 25.8C114.5 25.24 113.44 24.84 112.24 24.6C111.04 24.36 109.78 24.24 108.46 24.24H107.2V20.22H108.94C109.82 20.22 110.72 20.14 111.64 19.98C112.6 19.78 113.46 19.46 114.22 19.02C115.02 18.54 115.66 17.9 116.14 17.1C116.62 16.3 116.86 15.28 116.86 14.04C116.86 12 116.22 10.56 114.94 9.72C113.7 8.84 112.24 8.4 110.56 8.4C108.84 8.4 107.38 8.66 106.18 9.18C104.98 9.66 103.98 10.16 103.18 10.68L101.26 6.9C102.1 6.3 103.36 5.68 105.04 5.04C106.76 4.36 108.66 4.02 110.74 4.02C112.7 4.02 114.38 4.26 115.78 4.74C117.18 5.22 118.32 5.9 119.2 6.78C120.12 7.66 120.8 8.7 121.24 9.9C121.68 11.06 121.9 12.34 121.9 13.74C121.9 15.7 121.38 17.36 120.34 18.72C119.34 20.08 118.04 21.12 116.44 21.84C118.36 22.4 120.02 23.5 121.42 25.14C122.82 26.74 123.52 28.88 123.52 31.56C123.52 33.16 123.24 34.66 122.68 36.06C122.16 37.42 121.34 38.6 120.22 39.6C119.14 40.6 117.72 41.38 115.96 41.94C114.24 42.5 112.18 42.78 109.78 42.78C108.86 42.78 107.9 42.7 106.9 42.54C105.94 42.42 105.04 42.24 104.2 42C103.36 41.8 102.6 41.6 101.92 41.4C101.28 41.16 100.82 40.98 100.54 40.86L101.5 36.6C102.14 36.92 103.16 37.3 104.56 37.74C105.96 38.18 107.68 38.4 109.72 38.4Z" fill="black"/>
<path d="M131.16 29.16C131.84 27.56 132.76 25.72 133.92 23.64C135.12 21.56 136.46 19.42 137.94 17.22C139.42 14.98 141 12.8 142.68 10.68C144.36 8.52 146.06 6.58 147.78 4.86H152.58V28.44H156.96V32.52H152.58V42H147.78V32.52H131.16V29.16ZM147.78 10.74C146.7 11.9 145.6 13.18 144.48 14.58C143.4 15.98 142.34 17.46 141.3 19.02C140.26 20.54 139.28 22.1 138.36 23.7C137.48 25.3 136.68 26.88 135.96 28.44H147.78V10.74Z" fill="black"/>
<path d="M37.5 12.54C39.54 11.74 41.52 10.74 43.44 9.54C45.36 8.3 47.14 6.74 48.78 4.86H52.26V37.8H59.28V42H39.3V37.8H47.34V11.76C46.9 12.16 46.36 12.58 45.72 13.02C45.12 13.42 44.44 13.82 43.68 14.22C42.96 14.62 42.2 15 41.4 15.36C40.6 15.72 39.82 16.02 39.06 16.26L37.5 12.54Z" fill="black"/>
<path d="M90.2 14.34C90.2 15.62 89.94 16.86 89.42 18.06C88.94 19.26 88.28 20.44 87.44 21.6C86.64 22.76 85.72 23.9 84.68 25.02C83.64 26.14 82.58 27.24 81.5 28.32C80.9 28.92 80.2 29.64 79.4 30.48C78.6 31.32 77.84 32.18 77.12 33.06C76.4 33.94 75.8 34.8 75.32 35.64C74.84 36.48 74.6 37.2 74.6 37.8H91.7V42H69.2C69.16 41.8 69.14 41.6 69.14 41.4C69.14 41.16 69.14 40.94 69.14 40.74C69.14 39.06 69.42 37.5 69.98 36.06C70.54 34.62 71.26 33.26 72.14 31.98C73.02 30.7 74 29.5 75.08 28.38C76.2 27.22 77.3 26.1 78.38 25.02C79.26 24.14 80.1 23.28 80.9 22.44C81.74 21.6 82.46 20.76 83.06 19.92C83.7 19.08 84.2 18.22 84.56 17.34C84.96 16.42 85.16 15.48 85.16 14.52C85.16 13.44 84.98 12.52 84.62 11.76C84.3 11 83.84 10.38 83.24 9.9C82.68 9.38 82.02 9 81.26 8.76C80.5 8.52 79.68 8.4 78.8 8.4C77.76 8.4 76.8 8.54 75.92 8.82C75.08 9.1 74.32 9.44 73.64 9.84C73 10.24 72.44 10.64 71.96 11.04C71.48 11.4 71.12 11.7 70.88 11.94L68.42 8.46C68.74 8.1 69.22 7.66 69.86 7.14C70.5 6.62 71.26 6.14 72.14 5.7C73.06 5.22 74.08 4.82 75.2 4.5C76.32 4.18 77.52 4.02 78.8 4.02C82.68 4.02 85.54 4.92 87.38 6.72C89.26 8.48 90.2 11.02 90.2 14.34Z" fill="black"/>
<path d="M12.16 63.2C17.52 63.4 21.42 64.58 23.86 66.74C26.3 68.9 27.52 71.8 27.52 75.44C27.52 77.08 27.26 78.6 26.74 80C26.22 81.4 25.4 82.6 24.28 83.6C23.2 84.6 21.8 85.38 20.08 85.94C18.4 86.5 16.4 86.78 14.08 86.78C13.12 86.78 12.16 86.7 11.2 86.54C10.28 86.42 9.4 86.26 8.56 86.06C7.72 85.86 6.98 85.66 6.34 85.46C5.7 85.22 5.24 85.02 4.96 84.86L5.92 80.6C6.56 80.92 7.54 81.3 8.86 81.74C10.22 82.18 11.92 82.4 13.96 82.4C15.56 82.4 16.9 82.22 17.98 81.86C19.06 81.5 19.92 81.02 20.56 80.42C21.24 79.78 21.72 79.06 22 78.26C22.32 77.46 22.48 76.62 22.48 75.74C22.48 74.38 22.24 73.18 21.76 72.14C21.32 71.06 20.52 70.16 19.36 69.44C18.24 68.72 16.68 68.18 14.68 67.82C12.72 67.42 10.24 67.22 7.24 67.22C7.48 65.46 7.66 63.82 7.78 62.3C7.94 60.74 8.06 59.24 8.14 57.8C8.26 56.32 8.34 54.86 8.38 53.42C8.46 51.98 8.54 50.46 8.62 48.86H26.5V53.06H12.94C12.9 53.62 12.84 54.36 12.76 55.28C12.72 56.16 12.66 57.1 12.58 58.1C12.5 59.1 12.42 60.06 12.34 60.98C12.26 61.9 12.2 62.64 12.16 63.2Z" fill="black"/>
<path d="M123.94 76.34C123.94 79.46 122.94 81.98 120.94 83.9C118.98 85.82 115.98 86.78 111.94 86.78C109.62 86.78 107.7 86.48 106.18 85.88C104.66 85.24 103.44 84.44 102.52 83.48C101.64 82.48 101 81.38 100.6 80.18C100.24 78.98 100.06 77.8 100.06 76.64C100.06 74.52 100.64 72.64 101.8 71C102.96 69.36 104.34 68.04 105.94 67.04C102.54 65.12 100.84 62.18 100.84 58.22C100.84 56.86 101.1 55.56 101.62 54.32C102.14 53.08 102.88 52 103.84 51.08C104.8 50.16 105.96 49.42 107.32 48.86C108.72 48.3 110.28 48.02 112 48.02C114 48.02 115.7 48.32 117.1 48.92C118.54 49.52 119.7 50.3 120.58 51.26C121.46 52.18 122.1 53.22 122.5 54.38C122.9 55.5 123.1 56.6 123.1 57.68C123.1 59.8 122.56 61.64 121.48 63.2C120.4 64.72 119.16 65.94 117.76 66.86C121.88 68.82 123.94 71.98 123.94 76.34ZM104.86 76.7C104.86 77.34 104.98 78.02 105.22 78.74C105.46 79.42 105.86 80.06 106.42 80.66C106.98 81.26 107.72 81.76 108.64 82.16C109.56 82.52 110.68 82.7 112 82.7C113.24 82.7 114.3 82.54 115.18 82.22C116.1 81.86 116.84 81.4 117.4 80.84C118 80.24 118.44 79.58 118.72 78.86C119 78.14 119.14 77.42 119.14 76.7C119.14 74.42 118.32 72.68 116.68 71.48C115.04 70.24 112.78 69.3 109.9 68.66C108.3 69.54 107.06 70.64 106.18 71.96C105.3 73.28 104.86 74.86 104.86 76.7ZM118.3 57.68C118.3 57.16 118.18 56.58 117.94 55.94C117.7 55.26 117.32 54.66 116.8 54.14C116.32 53.58 115.68 53.12 114.88 52.76C114.08 52.36 113.12 52.16 112 52.16C110.84 52.16 109.86 52.34 109.06 52.7C108.3 53.06 107.66 53.52 107.14 54.08C106.62 54.6 106.24 55.2 106 55.88C105.8 56.52 105.7 57.16 105.7 57.8C105.7 59.44 106.28 60.98 107.44 62.42C108.64 63.82 110.6 64.84 113.32 65.48C114.84 64.6 116.04 63.56 116.92 62.36C117.84 61.16 118.3 59.6 118.3 57.68Z" fill="black"/>
<path d="M155.82 63.74C155.82 71.14 154.02 76.72 150.42 80.48C146.82 84.2 141.4 86.08 134.16 86.12L133.98 81.92C138.46 81.92 142.06 81.04 144.78 79.28C147.54 77.48 149.36 74.4 150.24 70.04C149.28 70.48 148.22 70.84 147.06 71.12C145.9 71.36 144.68 71.48 143.4 71.48C141.28 71.48 139.5 71.18 138.06 70.58C136.62 69.94 135.46 69.1 134.58 68.06C133.7 66.98 133.06 65.76 132.66 64.4C132.26 63.04 132.06 61.6 132.06 60.08C132.06 58.72 132.28 57.34 132.72 55.94C133.16 54.5 133.84 53.2 134.76 52.04C135.68 50.88 136.86 49.92 138.3 49.16C139.74 48.4 141.46 48.02 143.46 48.02C147.54 48.02 150.62 49.42 152.7 52.22C154.78 55.02 155.82 58.86 155.82 63.74ZM143.94 67.4C145.22 67.4 146.4 67.28 147.48 67.04C148.6 66.8 149.68 66.46 150.72 66.02C150.76 65.62 150.78 65.24 150.78 64.88C150.78 64.52 150.78 64.14 150.78 63.74C150.78 62.18 150.66 60.7 150.42 59.3C150.22 57.9 149.84 56.68 149.28 55.64C148.76 54.6 148.02 53.78 147.06 53.18C146.14 52.54 144.96 52.22 143.52 52.22C142.32 52.22 141.32 52.48 140.52 53C139.72 53.48 139.06 54.1 138.54 54.86C138.02 55.58 137.64 56.4 137.4 57.32C137.2 58.24 137.1 59.12 137.1 59.96C137.1 62.4 137.64 64.26 138.72 65.54C139.84 66.78 141.58 67.4 143.94 67.4Z" fill="black"/>
<path d="M36.24 71.12C36.24 67.52 36.72 64.34 37.68 61.58C38.68 58.78 40.08 56.44 41.88 54.56C43.72 52.68 45.94 51.24 48.54 50.24C51.14 49.24 54.08 48.72 57.36 48.68L57.78 52.88C55.66 52.92 53.72 53.16 51.96 53.6C50.24 54 48.7 54.68 47.34 55.64C45.98 56.56 44.84 57.76 43.92 59.24C43 60.72 42.3 62.54 41.82 64.7C42.78 64.26 43.82 63.9 44.94 63.62C46.1 63.34 47.32 63.2 48.6 63.2C50.68 63.2 52.44 63.52 53.88 64.16C55.36 64.8 56.54 65.66 57.42 66.74C58.3 67.78 58.94 69 59.34 70.4C59.74 71.8 59.94 73.24 59.94 74.72C59.94 76.08 59.72 77.48 59.28 78.92C58.84 80.32 58.16 81.62 57.24 82.82C56.32 83.98 55.14 84.94 53.7 85.7C52.26 86.42 50.54 86.78 48.54 86.78C44.42 86.78 41.34 85.4 39.3 82.64C37.26 79.88 36.24 76.04 36.24 71.12ZM48.06 67.28C46.78 67.28 45.6 67.4 44.52 67.64C43.48 67.88 42.42 68.24 41.34 68.72C41.3 69.12 41.28 69.52 41.28 69.92C41.28 70.28 41.28 70.68 41.28 71.12C41.28 72.68 41.38 74.16 41.58 75.56C41.82 76.92 42.2 78.14 42.72 79.22C43.28 80.26 44.02 81.1 44.94 81.74C45.86 82.34 47.04 82.64 48.48 82.64C49.68 82.64 50.68 82.4 51.48 81.92C52.28 81.4 52.94 80.76 53.46 80C53.98 79.24 54.34 78.4 54.54 77.48C54.78 76.52 54.9 75.62 54.9 74.78C54.9 72.34 54.34 70.48 53.22 69.2C52.14 67.92 50.42 67.28 48.06 67.28Z" fill="black"/>
<path d="M74.3 86C74.5 83.16 75 80.16 75.8 77C76.64 73.8 77.64 70.72 78.8 67.76C79.96 64.76 81.24 62 82.64 59.48C84.04 56.92 85.42 54.82 86.78 53.18H68.78V48.86H92.3V53C91.1 54.4 89.8 56.28 88.4 58.64C87 61 85.66 63.66 84.38 66.62C83.14 69.54 82.06 72.68 81.14 76.04C80.22 79.36 79.64 82.68 79.4 86H74.3Z" fill="black"/>
<path d="M20.44 126.16C20.44 127.36 20.04 128.42 19.24 129.34C18.44 130.26 17.38 130.72 16.06 130.72C14.7 130.72 13.62 130.26 12.82 129.34C12.02 128.42 11.62 127.36 11.62 126.16C11.62 124.92 12.02 123.84 12.82 122.92C13.62 122 14.7 121.54 16.06 121.54C17.38 121.54 18.44 122 19.24 122.92C20.04 123.84 20.44 124.92 20.44 126.16ZM20.44 106.78C20.44 107.98 20.04 109.04 19.24 109.96C18.44 110.88 17.38 111.34 16.06 111.34C14.7 111.34 13.62 110.88 12.82 109.96C12.02 109.04 11.62 107.98 11.62 106.78C11.62 105.54 12.02 104.46 12.82 103.54C13.62 102.62 14.7 102.16 16.06 102.16C17.38 102.16 18.44 102.62 19.24 103.54C20.04 104.46 20.44 105.54 20.44 106.78Z" fill="black"/>
<path d="M111.1 92.5C113.3 92.5 115.22 92.78 116.86 93.34C118.54 93.9 119.92 94.7 121 95.74C122.12 96.74 122.94 97.94 123.46 99.34C124.02 100.74 124.3 102.3 124.3 104.02C124.3 107.9 123.16 110.9 120.88 113.02C118.6 115.1 115.18 116.14 110.62 116.14H106.3V130H101.38V93.4C102.1 93.24 102.88 93.1 103.72 92.98C104.6 92.86 105.46 92.76 106.3 92.68C107.18 92.6 108.02 92.56 108.82 92.56C109.66 92.52 110.42 92.5 111.1 92.5ZM111.46 96.76C110.42 96.76 109.42 96.78 108.46 96.82C107.5 96.82 106.78 96.86 106.3 96.94V111.94H110.38C113.38 111.94 115.6 111.34 117.04 110.14C118.52 108.94 119.26 106.96 119.26 104.2C119.26 99.24 116.66 96.76 111.46 96.76Z" fill="black"/>
<path d="M144.06 111.34L149.82 92.86H154.44C155.24 98.7 155.8 104.68 156.12 110.8C156.48 116.92 156.8 123.32 157.08 130H152.28C152.24 127.84 152.2 125.5 152.16 122.98C152.12 120.46 152.06 117.86 151.98 115.18C151.94 112.5 151.88 109.78 151.8 107.02C151.76 104.26 151.7 101.58 151.62 98.98L146.22 115.9H141.9L136.38 98.98C136.34 101.58 136.28 104.26 136.2 107.02C136.16 109.74 136.1 112.46 136.02 115.18C135.98 117.86 135.92 120.46 135.84 122.98C135.8 125.5 135.76 127.84 135.72 130H130.92C131.04 126.96 131.18 123.84 131.34 120.64C131.5 117.44 131.68 114.26 131.88 111.1C132.12 107.94 132.38 104.82 132.66 101.74C132.98 98.66 133.32 95.7 133.68 92.86H138.24L144.06 111.34Z" fill="black"/>
<path d="M52.44 126.16C52.44 127.36 52.04 128.42 51.24 129.34C50.44 130.26 49.38 130.72 48.06 130.72C46.7 130.72 45.62 130.26 44.82 129.34C44.02 128.42 43.62 127.36 43.62 126.16C43.62 124.92 44.02 123.84 44.82 122.92C45.62 122 46.7 121.54 48.06 121.54C49.38 121.54 50.44 122 51.24 122.92C52.04 123.84 52.44 124.92 52.44 126.16Z" fill="black"/>
<path d="M89.24 130L87.02 120.28H72.74L70.58 130H65.54C66.22 127.36 66.98 124.5 67.82 121.42C68.66 118.34 69.56 115.18 70.52 111.94C71.52 108.7 72.56 105.46 73.64 102.22C74.72 98.94 75.86 95.82 77.06 92.86H83.18C84.34 95.82 85.44 98.94 86.48 102.22C87.56 105.46 88.56 108.7 89.48 111.94C90.44 115.18 91.34 118.34 92.18 121.42C93.02 124.5 93.78 127.36 94.46 130H89.24ZM79.94 97.18C79.02 99.7 78.02 102.62 76.94 105.94C75.86 109.26 74.84 112.68 73.88 116.2H85.88C84.96 112.6 83.96 109.14 82.88 105.82C81.84 102.46 80.86 99.58 79.94 97.18Z" fill="black"/>
</g>
</svg>
