<svg width="160" height="144" viewBox="0 0 160 144" fill="none" xmlns="http://www.w3.org/2000/svg">
<g clip-path="url(#clip0_100_2)">
<path d="M20.06 24.53C20.06 25.7433 19.6867 26.7933 18.94 27.68C18.24 28.5667 17.3067 29.01 16.14 29.01C14.9267 29.01 13.9467 28.5667 13.2 27.68C12.4533 26.7933 12.08 25.7433 12.08 24.53C12.08 23.3167 12.4533 22.2433 13.2 21.31C13.9467 20.3767 14.9267 19.91 16.14 19.91C17.3067 19.91 18.24 20.3767 18.94 21.31C19.6867 22.2433 20.06 23.3167 20.06 24.53ZM1.72 25.3C1.72 18.02 2.95667 12.4433 5.43 8.57C7.95 4.65 11.4733 2.69 16 2.69C20.5733 2.69 24.0967 4.65 26.57 8.57C29.0433 12.4433 30.28 18.02 30.28 25.3C30.28 32.58 29.0433 38.18 26.57 42.1C24.0967 45.9733 20.5733 47.91 16 47.91C11.4733 47.91 7.95 45.9733 5.43 42.1C2.95667 38.18 1.72 32.58 1.72 25.3ZM24.4 25.3C24.4 22.92 24.26 20.68 23.98 18.58C23.7 16.4333 23.2333 14.5667 22.58 12.98C21.9267 11.3933 21.0633 10.1333 19.99 9.2C18.9167 8.26667 17.5867 7.8 16 7.8C14.4133 7.8 13.0833 8.26667 12.01 9.2C10.9367 10.1333 10.0733 11.3933 9.42 12.98C8.76667 14.5667 8.3 16.4333 8.02 18.58C7.74 20.68 7.6 22.92 7.6 25.3C7.6 27.68 7.74 29.9433 8.02 32.09C8.3 34.19 8.76667 36.0333 9.42 37.62C10.0733 39.2067 10.9367 40.4667 12.01 41.4C13.0833 42.3333 14.4133 42.8 16 42.8C17.5867 42.8 18.9167 42.3333 19.99 41.4C21.0633 40.4667 21.9267 39.2067 22.58 37.62C23.2333 36.0333 23.7 34.19 23.98 32.09C24.26 29.9433 24.4 27.68 24.4 25.3Z" fill="black"/>
<path d="M35.75 12.63C38.13 11.6967 40.44 10.53 42.68 9.13C44.92 7.68333 46.9967 5.86333 48.91 3.67H52.97V42.1H61.16V47H37.85V42.1H47.23V11.72C46.7167 12.1867 46.0867 12.6767 45.34 13.19C44.64 13.6567 43.8467 14.1233 42.96 14.59C42.12 15.0567 41.2333 15.5 40.3 15.92C39.3667 16.34 38.4567 16.69 37.57 16.97L35.75 12.63Z" fill="black"/>
<path d="M91.9 14.73C91.9 16.2233 91.5967 17.67 90.99 19.07C90.43 20.47 89.66 21.8467 88.68 23.2C87.7467 24.5533 86.6733 25.8833 85.46 27.19C84.2467 28.4967 83.01 29.78 81.75 31.04C81.05 31.74 80.2333 32.58 79.3 33.56C78.3667 34.54 77.48 35.5433 76.64 36.57C75.8 37.5967 75.1 38.6 74.54 39.58C73.98 40.56 73.7 41.4 73.7 42.1H93.65V47H67.4C67.3533 46.7667 67.33 46.5333 67.33 46.3C67.33 46.02 67.33 45.7633 67.33 45.53C67.33 43.57 67.6567 41.75 68.31 40.07C68.9633 38.39 69.8033 36.8033 70.83 35.31C71.8567 33.8167 73 32.4167 74.26 31.11C75.5667 29.7567 76.85 28.45 78.11 27.19C79.1367 26.1633 80.1167 25.16 81.05 24.18C82.03 23.2 82.87 22.22 83.57 21.24C84.3167 20.26 84.9 19.2567 85.32 18.23C85.7867 17.1567 86.02 16.06 86.02 14.94C86.02 13.68 85.81 12.6067 85.39 11.72C85.0167 10.8333 84.48 10.11 83.78 9.55C83.1267 8.94333 82.3567 8.5 81.47 8.22C80.5833 7.94 79.6267 7.8 78.6 7.8C77.3867 7.8 76.2667 7.96333 75.24 8.29C74.26 8.61667 73.3733 9.01333 72.58 9.48C71.8333 9.94667 71.18 10.4133 70.62 10.88C70.06 11.3 69.64 11.65 69.36 11.93L66.49 7.87C66.8633 7.45 67.4233 6.93667 68.17 6.33C68.9167 5.72333 69.8033 5.16333 70.83 4.65C71.9033 4.09 73.0933 3.62333 74.4 3.25C75.7067 2.87667 77.1067 2.69 78.6 2.69C83.1267 2.69 86.4633 3.74 88.61 5.84C90.8033 7.89333 91.9 10.8567 91.9 14.73Z" fill="black"/>
<path d="M109.34 42.8C113.027 42.8 115.64 42.0767 117.18 40.63C118.767 39.1367 119.56 37.1533 119.56 34.68C119.56 33.0933 119.233 31.7633 118.58 30.69C117.927 29.6167 117.063 28.7533 115.99 28.1C114.917 27.4467 113.68 26.98 112.28 26.7C110.88 26.42 109.41 26.28 107.87 26.28H106.4V21.59H108.43C109.457 21.59 110.507 21.4967 111.58 21.31C112.7 21.0767 113.703 20.7033 114.59 20.19C115.523 19.63 116.27 18.8833 116.83 17.95C117.39 17.0167 117.67 15.8267 117.67 14.38C117.67 12 116.923 10.32 115.43 9.34C113.983 8.31333 112.28 7.8 110.32 7.8C108.313 7.8 106.61 8.10333 105.21 8.71C103.81 9.27 102.643 9.85333 101.71 10.46L99.47 6.05C100.45 5.35 101.92 4.62666 103.88 3.88C105.887 3.08666 108.103 2.69 110.53 2.69C112.817 2.69 114.777 2.97 116.41 3.53C118.043 4.09 119.373 4.88333 120.4 5.91C121.473 6.93667 122.267 8.15 122.78 9.55C123.293 10.9033 123.55 12.3967 123.55 14.03C123.55 16.3167 122.943 18.2533 121.73 19.84C120.563 21.4267 119.047 22.64 117.18 23.48C119.42 24.1333 121.357 25.4167 122.99 27.33C124.623 29.1967 125.44 31.6933 125.44 34.82C125.44 36.6867 125.113 38.4367 124.46 40.07C123.853 41.6567 122.897 43.0333 121.59 44.2C120.33 45.3667 118.673 46.2767 116.62 46.93C114.613 47.5833 112.21 47.91 109.41 47.91C108.337 47.91 107.217 47.8167 106.05 47.63C104.93 47.49 103.88 47.28 102.9 47C101.92 46.7667 101.033 46.5333 100.24 46.3C99.4933 46.02 98.9567 45.81 98.63 45.67L99.75 40.7C100.497 41.0733 101.687 41.5167 103.32 42.03C104.953 42.5433 106.96 42.8 109.34 42.8Z" fill="black"/>
<path d="M129.02 32.02C129.813 30.1533 130.887 28.0067 132.24 25.58C133.64 23.1533 135.203 20.6567 136.93 18.09C138.657 15.4767 140.5 12.9333 142.46 10.46C144.42 7.94 146.403 5.67666 148.41 3.67H154.01V31.18H159.12V35.94H154.01V47H148.41V35.94H129.02V32.02ZM148.41 10.53C147.15 11.8833 145.867 13.3767 144.56 15.01C143.3 16.6433 142.063 18.37 140.85 20.19C139.637 21.9633 138.493 23.7833 137.42 25.65C136.393 27.5167 135.46 29.36 134.62 31.18H148.41V10.53Z" fill="black"/>
<path d="M11.52 68.4C17.7733 68.6333 22.3233 70.01 25.17 72.53C28.0167 75.05 29.44 78.4333 29.44 82.68C29.44 84.5933 29.1367 86.3667 28.53 88C27.9233 89.6333 26.9667 91.0333 25.66 92.2C24.4 93.3667 22.7667 94.2767 20.76 94.93C18.8 95.5833 16.4667 95.91 13.76 95.91C12.64 95.91 11.52 95.8167 10.4 95.63C9.32667 95.49 8.3 95.3033 7.32 95.07C6.34 94.8367 5.47667 94.6033 4.73 94.37C3.98333 94.09 3.44667 93.8567 3.12 93.67L4.24 88.7C4.98667 89.0733 6.13 89.5167 7.67 90.03C9.25667 90.5433 11.24 90.8 13.62 90.8C15.4867 90.8 17.05 90.59 18.31 90.17C19.57 89.75 20.5733 89.19 21.32 88.49C22.1133 87.7433 22.6733 86.9033 23 85.97C23.3733 85.0367 23.56 84.0567 23.56 83.03C23.56 81.4433 23.28 80.0433 22.72 78.83C22.2067 77.57 21.2733 76.52 19.92 75.68C18.6133 74.84 16.7933 74.21 14.46 73.79C12.1733 73.3233 9.28 73.09 5.78 73.09C6.06 71.0367 6.27 69.1233 6.41 67.35C6.59667 65.53 6.73667 63.78 6.83 62.1C6.97 60.3733 7.06333 58.67 7.11 56.99C7.20333 55.31 7.29667 53.5367 7.39 51.67H28.25V56.57H12.43C12.3833 57.2233 12.3133 58.0867 12.22 59.16C12.1733 60.1867 12.1033 61.2833 12.01 62.45C11.9167 63.6167 11.8233 64.7367 11.73 65.81C11.6367 66.8833 11.5667 67.7467 11.52 68.4Z" fill="black"/>
<path d="M34.28 77.64C34.28 73.44 34.84 69.73 35.96 66.51C37.1267 63.2433 38.76 60.5133 40.86 58.32C43.0067 56.1267 45.5967 54.4467 48.63 53.28C51.6633 52.1133 55.0933 51.5067 58.92 51.46L59.41 56.36C56.9367 56.4067 54.6733 56.6867 52.62 57.2C50.6133 57.6667 48.8167 58.46 47.23 59.58C45.6433 60.6533 44.3133 62.0533 43.24 63.78C42.1667 65.5067 41.35 67.63 40.79 70.15C41.91 69.6367 43.1233 69.2167 44.43 68.89C45.7833 68.5633 47.2067 68.4 48.7 68.4C51.1267 68.4 53.18 68.7733 54.86 69.52C56.5867 70.2667 57.9633 71.27 58.99 72.53C60.0167 73.7433 60.7633 75.1667 61.23 76.8C61.6967 78.4333 61.93 80.1133 61.93 81.84C61.93 83.4267 61.6733 85.06 61.16 86.74C60.6467 88.3733 59.8533 89.89 58.78 91.29C57.7067 92.6433 56.33 93.7633 54.65 94.65C52.97 95.49 50.9633 95.91 48.63 95.91C43.8233 95.91 40.23 94.3 37.85 91.08C35.47 87.86 34.28 83.38 34.28 77.64ZM48.07 73.16C46.5767 73.16 45.2 73.3 43.94 73.58C42.7267 73.86 41.49 74.28 40.23 74.84C40.1833 75.3067 40.16 75.7733 40.16 76.24C40.16 76.66 40.16 77.1267 40.16 77.64C40.16 79.46 40.2767 81.1867 40.51 82.82C40.79 84.4067 41.2333 85.83 41.84 87.09C42.4933 88.3033 43.3567 89.2833 44.43 90.03C45.5033 90.73 46.88 91.08 48.56 91.08C49.96 91.08 51.1267 90.8 52.06 90.24C52.9933 89.6333 53.7633 88.8867 54.37 88C54.9767 87.1133 55.3967 86.1333 55.63 85.06C55.91 83.94 56.05 82.89 56.05 81.91C56.05 79.0633 55.3967 76.8933 54.09 75.4C52.83 73.9067 50.8233 73.16 48.07 73.16Z" fill="black"/>
<path d="M73.35 95C73.5833 91.6867 74.1667 88.1867 75.1 84.5C76.08 80.7667 77.2467 77.1733 78.6 73.72C79.9533 70.22 81.4467 67 83.08 64.06C84.7133 61.0733 86.3233 58.6233 87.91 56.71H66.91V51.67H94.35V56.5C92.95 58.1333 91.4333 60.3267 89.8 63.08C88.1667 65.8333 86.6033 68.9367 85.11 72.39C83.6633 75.7967 82.4033 79.46 81.33 83.38C80.2567 87.2533 79.58 91.1267 79.3 95H73.35Z" fill="black"/>
<path d="M125.93 83.73C125.93 87.37 124.763 90.31 122.43 92.55C120.143 94.79 116.643 95.91 111.93 95.91C109.223 95.91 106.983 95.56 105.21 94.86C103.437 94.1133 102.013 93.18 100.94 92.06C99.9133 90.8933 99.1667 89.61 98.7 88.21C98.28 86.81 98.07 85.4333 98.07 84.08C98.07 81.6067 98.7467 79.4133 100.1 77.5C101.453 75.5867 103.063 74.0467 104.93 72.88C100.963 70.64 98.98 67.21 98.98 62.59C98.98 61.0033 99.2833 59.4867 99.89 58.04C100.497 56.5933 101.36 55.3333 102.48 54.26C103.6 53.1867 104.953 52.3233 106.54 51.67C108.173 51.0167 109.993 50.69 112 50.69C114.333 50.69 116.317 51.04 117.95 51.74C119.63 52.44 120.983 53.35 122.01 54.47C123.037 55.5433 123.783 56.7567 124.25 58.11C124.717 59.4167 124.95 60.7 124.95 61.96C124.95 64.4333 124.32 66.58 123.06 68.4C121.8 70.1733 120.353 71.5967 118.72 72.67C123.527 74.9567 125.93 78.6433 125.93 83.73ZM103.67 84.15C103.67 84.8967 103.81 85.69 104.09 86.53C104.37 87.3233 104.837 88.07 105.49 88.77C106.143 89.47 107.007 90.0533 108.08 90.52C109.153 90.94 110.46 91.15 112 91.15C113.447 91.15 114.683 90.9633 115.71 90.59C116.783 90.17 117.647 89.6333 118.3 88.98C119 88.28 119.513 87.51 119.84 86.67C120.167 85.83 120.33 84.99 120.33 84.15C120.33 81.49 119.373 79.46 117.46 78.06C115.547 76.6133 112.91 75.5167 109.55 74.77C107.683 75.7967 106.237 77.08 105.21 78.62C104.183 80.16 103.67 82.0033 103.67 84.15ZM119.35 61.96C119.35 61.3533 119.21 60.6767 118.93 59.93C118.65 59.1367 118.207 58.4367 117.6 57.83C117.04 57.1767 116.293 56.64 115.36 56.22C114.427 55.7533 113.307 55.52 112 55.52C110.647 55.52 109.503 55.73 108.57 56.15C107.683 56.57 106.937 57.1067 106.33 57.76C105.723 58.3667 105.28 59.0667 105 59.86C104.767 60.6067 104.65 61.3533 104.65 62.1C104.65 64.0133 105.327 65.81 106.68 67.49C108.08 69.1233 110.367 70.3133 113.54 71.06C115.313 70.0333 116.713 68.82 117.74 67.42C118.813 66.02 119.35 64.2 119.35 61.96Z" fill="black"/>
<path d="M157.79 69.03C157.79 77.6633 155.69 84.1733 151.49 88.56C147.29 92.9 140.967 95.0933 132.52 95.14L132.31 90.24C137.537 90.24 141.737 89.2133 144.91 87.16C148.13 85.06 150.253 81.4667 151.28 76.38C150.16 76.8933 148.923 77.3133 147.57 77.64C146.217 77.92 144.793 78.06 143.3 78.06C140.827 78.06 138.75 77.71 137.07 77.01C135.39 76.2633 134.037 75.2833 133.01 74.07C131.983 72.81 131.237 71.3867 130.77 69.8C130.303 68.2133 130.07 66.5333 130.07 64.76C130.07 63.1733 130.327 61.5633 130.84 59.93C131.353 58.25 132.147 56.7333 133.22 55.38C134.293 54.0267 135.67 52.9067 137.35 52.02C139.03 51.1333 141.037 50.69 143.37 50.69C148.13 50.69 151.723 52.3233 154.15 55.59C156.577 58.8567 157.79 63.3367 157.79 69.03ZM143.93 73.3C145.423 73.3 146.8 73.16 148.06 72.88C149.367 72.6 150.627 72.2033 151.84 71.69C151.887 71.2233 151.91 70.78 151.91 70.36C151.91 69.94 151.91 69.4967 151.91 69.03C151.91 67.21 151.77 65.4833 151.49 63.85C151.257 62.2167 150.813 60.7933 150.16 59.58C149.553 58.3667 148.69 57.41 147.57 56.71C146.497 55.9633 145.12 55.59 143.44 55.59C142.04 55.59 140.873 55.8933 139.94 56.5C139.007 57.06 138.237 57.7833 137.63 58.67C137.023 59.51 136.58 60.4667 136.3 61.54C136.067 62.6133 135.95 63.64 135.95 64.62C135.95 67.4667 136.58 69.6367 137.84 71.13C139.147 72.5767 141.177 73.3 143.93 73.3Z" fill="black"/>
<path d="M21.18 138.52C21.18 139.92 20.7133 141.157 19.78 142.23C18.8467 143.303 17.61 143.84 16.07 143.84C14.4833 143.84 13.2233 143.303 12.29 142.23C11.3567 141.157 10.89 139.92 10.89 138.52C10.89 137.073 11.3567 135.813 12.29 134.74C13.2233 133.667 14.4833 133.13 16.07 133.13C17.61 133.13 18.8467 133.667 19.78 134.74C20.7133 135.813 21.18 137.073 21.18 138.52ZM21.18 115.91C21.18 117.31 20.7133 118.547 19.78 119.62C18.8467 120.693 17.61 121.23 16.07 121.23C14.4833 121.23 13.2233 120.693 12.29 119.62C11.3567 118.547 10.89 117.31 10.89 115.91C10.89 114.463 11.3567 113.203 12.29 112.13C13.2233 111.057 14.4833 110.52 16.07 110.52C17.61 110.52 18.8467 111.057 19.78 112.13C20.7133 113.203 21.18 114.463 21.18 115.91Z" fill="black"/>
<path d="M53.18 138.52C53.18 139.92 52.7133 141.157 51.78 142.23C50.8467 143.303 49.61 143.84 48.07 143.84C46.4833 143.84 45.2233 143.303 44.29 142.23C43.3567 141.157 42.89 139.92 42.89 138.52C42.89 137.073 43.3567 135.813 44.29 134.74C45.2233 133.667 46.4833 133.13 48.07 133.13C49.61 133.13 50.8467 133.667 51.78 134.74C52.7133 135.813 53.18 137.073 53.18 138.52Z" fill="black"/>
<path d="M90.78 143L88.19 131.66H71.53L69.01 143H63.13C63.9233 139.92 64.81 136.583 65.79 132.99C66.77 129.397 67.82 125.71 68.94 121.93C70.1067 118.15 71.32 114.37 72.58 110.59C73.84 106.763 75.17 103.123 76.57 99.67H83.71C85.0633 103.123 86.3467 106.763 87.56 110.59C88.82 114.37 89.9867 118.15 91.06 121.93C92.18 125.71 93.23 129.397 94.21 132.99C95.19 136.583 96.0767 139.92 96.87 143H90.78ZM79.93 104.71C78.8567 107.65 77.69 111.057 76.43 114.93C75.17 118.803 73.98 122.793 72.86 126.9H86.86C85.7867 122.7 84.62 118.663 83.36 114.79C82.1467 110.87 81.0033 107.51 79.93 104.71Z" fill="black"/>
<path d="M110.95 99.25C113.517 99.25 115.757 99.5767 117.67 100.23C119.63 100.883 121.24 101.817 122.5 103.03C123.807 104.197 124.763 105.597 125.37 107.23C126.023 108.863 126.35 110.683 126.35 112.69C126.35 117.217 125.02 120.717 122.36 123.19C119.7 125.617 115.71 126.83 110.39 126.83H105.35V143H99.61V100.3C100.45 100.113 101.36 99.95 102.34 99.81C103.367 99.67 104.37 99.5533 105.35 99.46C106.377 99.3667 107.357 99.32 108.29 99.32C109.27 99.2733 110.157 99.25 110.95 99.25ZM111.37 104.22C110.157 104.22 108.99 104.243 107.87 104.29C106.75 104.29 105.91 104.337 105.35 104.43V121.93H110.11C113.61 121.93 116.2 121.23 117.88 119.83C119.607 118.43 120.47 116.12 120.47 112.9C120.47 107.113 117.437 104.22 111.37 104.22Z" fill="black"/>
<path d="M144.07 121.23L150.79 99.67H156.18C157.113 106.483 157.767 113.46 158.14 120.6C158.56 127.74 158.933 135.207 159.26 143H153.66C153.613 140.48 153.567 137.75 153.52 134.81C153.473 131.87 153.403 128.837 153.31 125.71C153.263 122.583 153.193 119.41 153.1 116.19C153.053 112.97 152.983 109.843 152.89 106.81L146.59 126.55H141.55L135.11 106.81C135.063 109.843 134.993 112.97 134.9 116.19C134.853 119.363 134.783 122.537 134.69 125.71C134.643 128.837 134.573 131.87 134.48 134.81C134.433 137.75 134.387 140.48 134.34 143H128.74C128.88 139.453 129.043 135.813 129.23 132.08C129.417 128.347 129.627 124.637 129.86 120.95C130.14 117.263 130.443 113.623 130.77 110.03C131.143 106.437 131.54 102.983 131.96 99.67H137.28L144.07 121.23Z" fill="black"/>
</g>
</svg>
