<svg width="140" height="144" viewBox="0 0 140 144" fill="none" xmlns="http://www.w3.org/2000/svg">
<g clip-path="url(#clip0_100_2)">
<path d="M18.3044 6.4C18.3044 7.62667 18.1977 8.69333 17.9844 9.6H9.98438C9.77104 8.69333 9.66438 7.62667 9.66438 6.4C9.66438 5.12 9.77104 4.05333 9.98438 3.2H17.9844C18.1977 4.05333 18.3044 5.12 18.3044 6.4ZM9.98438 35.2C10.1977 36.0533 10.3044 37.12 10.3044 38.4C10.3044 39.6267 10.1977 40.6933 9.98438 41.6H5.98438C5.77104 40.6933 5.66438 39.6267 5.66438 38.4C5.66438 37.12 5.77104 36.0533 5.98438 35.2H3.58438C3.37104 34.2933 3.26437 33.2267 3.26437 32C3.26437 30.72 3.37104 29.6533 3.58438 28.8C3.37104 27.8933 3.26437 26.8267 3.26437 25.6C3.26437 24.32 3.37104 23.2533 3.58438 22.4C3.37104 21.4933 3.26437 20.4267 3.26437 19.2C3.26437 17.92 3.37104 16.8533 3.58438 16H5.98438C5.77104 15.0933 5.66438 14.0267 5.66438 12.8C5.66438 11.52 5.77104 10.4533 5.98438 9.6H9.98438C10.1977 10.4533 10.3044 11.52 10.3044 12.8C10.3044 14.0267 10.1977 15.0933 9.98438 16C10.1977 16.8533 10.3044 17.92 10.3044 19.2C10.3044 20.4267 10.1977 21.4933 9.98438 22.4C10.1977 23.2533 10.3044 24.32 10.3044 25.6C10.3044 26.8267 10.1977 27.8933 9.98438 28.8C10.1977 29.6533 10.3044 30.72 10.3044 32C10.3044 33.2267 10.1977 34.2933 9.98438 35.2ZM24.3844 22.4C24.5977 23.2533 24.7044 24.32 24.7044 25.6C24.7044 26.8267 24.5977 27.8933 24.3844 28.8C24.5977 29.6533 24.7044 30.72 24.7044 32C24.7044 33.2267 24.5977 34.2933 24.3844 35.2H21.9844C22.1977 36.0533 22.3044 37.12 22.3044 38.4C22.3044 39.6267 22.1977 40.6933 21.9844 41.6H17.9844C17.771 40.6933 17.6644 39.6267 17.6644 38.4C17.6644 37.12 17.771 36.0533 17.9844 35.2C17.771 34.2933 17.6644 33.2267 17.6644 32C17.6644 30.72 17.771 29.6533 17.9844 28.8C17.771 27.8933 17.6644 26.8267 17.6644 25.6C17.6644 24.32 17.771 23.2533 17.9844 22.4C17.771 21.4933 17.6644 20.4267 17.6644 19.2C17.6644 17.92 17.771 16.8533 17.9844 16C17.771 15.0933 17.6644 14.0267 17.6644 12.8C17.6644 11.52 17.771 10.4533 17.9844 9.6H21.9844C22.1977 10.4533 22.3044 11.52 22.3044 12.8C22.3044 14.0267 22.1977 15.0933 21.9844 16H24.3844C24.5977 16.8533 24.7044 17.92 24.7044 19.2C24.7044 20.4267 24.5977 21.4933 24.3844 22.4ZM9.66438 44.8C9.66438 43.52 9.77104 42.4533 9.98438 41.6H17.9844C18.1977 42.4533 18.3044 43.52 18.3044 44.8C18.3044 46.0267 18.1977 47.0933 17.9844 48H9.98438C9.77104 47.0933 9.66438 46.0267 9.66438 44.8Z" fill="black"/>
<path d="M51.5844 41.6C51.7977 42.4533 51.9044 43.52 51.9044 44.8C51.9044 46.0267 51.7977 47.0933 51.5844 48H32.3844C32.171 47.0933 32.0644 46.0267 32.0644 44.8C32.0644 43.52 32.171 42.4533 32.3844 41.6H38.7844C38.571 40.6933 38.4644 39.6267 38.4644 38.4C38.4644 37.12 38.571 36.0533 38.7844 35.2C38.571 34.2933 38.4644 33.2267 38.4644 32C38.4644 30.72 38.571 29.6533 38.7844 28.8C38.571 27.8933 38.4644 26.8267 38.4644 25.6C38.4644 24.32 38.571 23.2533 38.7844 22.4C38.571 21.4933 38.4644 20.4267 38.4644 19.2C38.4644 17.92 38.571 16.8533 38.7844 16H33.9844C33.771 15.0933 33.6644 14.0267 33.6644 12.8C33.6644 11.52 33.771 10.4533 33.9844 9.6H38.7844C38.571 8.69333 38.4644 7.62667 38.4644 6.4C38.4644 5.12 38.571 4.05333 38.7844 3.2H45.1844C45.3977 4.05333 45.5044 5.12 45.5044 6.4C45.5044 7.62667 45.3977 8.69333 45.1844 9.6C45.3977 10.4533 45.5044 11.52 45.5044 12.8C45.5044 14.0267 45.3977 15.0933 45.1844 16C45.3977 16.8533 45.5044 17.92 45.5044 19.2C45.5044 20.4267 45.3977 21.4933 45.1844 22.4C45.3977 23.2533 45.5044 24.32 45.5044 25.6C45.5044 26.8267 45.3977 27.8933 45.1844 28.8C45.3977 29.6533 45.5044 30.72 45.5044 32C45.5044 33.2267 45.3977 34.2933 45.1844 35.2C45.3977 36.0533 45.5044 37.12 45.5044 38.4C45.5044 39.6267 45.3977 40.6933 45.1844 41.6H51.5844Z" fill="black"/>
<path d="M81.5044 19.2C81.5044 20.4267 81.3977 21.4933 81.1844 22.4H77.1844C77.3977 23.2533 77.5044 24.32 77.5044 25.6C77.5044 26.8267 77.3977 27.8933 77.1844 28.8H73.1844C73.3977 29.6533 73.5044 30.72 73.5044 32C73.5044 33.2267 73.3977 34.2933 73.1844 35.2H69.1844C69.3977 36.0533 69.5044 37.12 69.5044 38.4C69.5044 39.6267 69.3977 40.6933 69.1844 41.6H81.1844C81.3977 42.4533 81.5044 43.52 81.5044 44.8C81.5044 46.0267 81.3977 47.0933 81.1844 48H58.7844C58.571 47.0933 58.4644 46.0267 58.4644 44.8C58.4644 43.52 58.571 42.4533 58.7844 41.6H62.7844C62.571 40.6933 62.4644 39.6267 62.4644 38.4C62.4644 37.12 62.571 36.0533 62.7844 35.2H66.7844C66.571 34.2933 66.4644 33.2267 66.4644 32C66.4644 30.72 66.571 29.6533 66.7844 28.8H70.7844C70.571 27.8933 70.4644 26.8267 70.4644 25.6C70.4644 24.32 70.571 23.2533 70.7844 22.4H74.7844C74.571 21.4933 74.4644 20.4267 74.4644 19.2C74.4644 17.92 74.571 16.8533 74.7844 16C74.571 15.0933 74.4644 14.0267 74.4644 12.8C74.4644 11.52 74.571 10.4533 74.7844 9.6H63.5844C63.7977 10.4533 63.9044 11.52 63.9044 12.8C63.9044 14.0267 63.7977 15.0933 63.5844 16H58.7844C58.571 15.0933 58.4644 14.0267 58.4644 12.8C58.4644 11.52 58.571 10.4533 58.7844 9.6H61.9844C61.771 8.69333 61.6644 7.62667 61.6644 6.4C61.6644 5.12 61.771 4.05333 61.9844 3.2H77.9844C78.1977 4.05333 78.3044 5.12 78.3044 6.4C78.3044 7.62667 78.1977 8.69333 77.9844 9.6H81.1844C81.3977 10.4533 81.5044 11.52 81.5044 12.8C81.5044 14.0267 81.3977 15.0933 81.1844 16C81.3977 16.8533 81.5044 17.92 81.5044 19.2Z" fill="black"/>
<path d="M109.504 19.2C109.504 20.4267 109.398 21.4933 109.184 22.4H105.984C106.198 23.2533 106.304 24.32 106.304 25.6C106.304 26.8267 106.198 27.8933 105.984 28.8H109.184C109.398 29.6533 109.504 30.72 109.504 32C109.504 33.2267 109.398 34.2933 109.184 35.2C109.398 36.0533 109.504 37.12 109.504 38.4C109.504 39.6267 109.398 40.6933 109.184 41.6H105.984C106.198 42.4533 106.304 43.52 106.304 44.8C106.304 46.0267 106.198 47.0933 105.984 48H89.9844C89.771 47.0933 89.6644 46.0267 89.6644 44.8C89.6644 43.52 89.771 42.4533 89.9844 41.6H86.7844C86.571 40.6933 86.4644 39.6267 86.4644 38.4C86.4644 37.12 86.571 36.0533 86.7844 35.2H93.1844C93.3977 36.0533 93.5044 37.12 93.5044 38.4C93.5044 39.6267 93.3977 40.6933 93.1844 41.6H102.784C102.571 40.6933 102.464 39.6267 102.464 38.4C102.464 37.12 102.571 36.0533 102.784 35.2C102.571 34.2933 102.464 33.2267 102.464 32C102.464 30.72 102.571 29.6533 102.784 28.8H94.7844C94.571 27.8933 94.4644 26.8267 94.4644 25.6C94.4644 24.32 94.571 23.2533 94.7844 22.4H102.784C102.571 21.4933 102.464 20.4267 102.464 19.2C102.464 17.92 102.571 16.8533 102.784 16C102.571 15.0933 102.464 14.0267 102.464 12.8C102.464 11.52 102.571 10.4533 102.784 9.6H93.1844C93.3977 10.4533 93.5044 11.52 93.5044 12.8C93.5044 14.0267 93.3977 15.0933 93.1844 16H86.7844C86.571 15.0933 86.4644 14.0267 86.4644 12.8C86.4644 11.52 86.571 10.4533 86.7844 9.6H89.9844C89.771 8.69333 89.6644 7.62667 89.6644 6.4C89.6644 5.12 89.771 4.05333 89.9844 3.2H105.984C106.198 4.05333 106.304 5.12 106.304 6.4C106.304 7.62667 106.198 8.69333 105.984 9.6H109.184C109.398 10.4533 109.504 11.52 109.504 12.8C109.504 14.0267 109.398 15.0933 109.184 16C109.398 16.8533 109.504 17.92 109.504 19.2Z" fill="black"/>
<path d="M139.104 32C139.104 33.2267 138.998 34.2933 138.784 35.2H135.584C135.798 36.0533 135.904 37.12 135.904 38.4C135.904 39.6267 135.798 40.6933 135.584 41.6C135.798 42.4533 135.904 43.52 135.904 44.8C135.904 46.0267 135.798 47.0933 135.584 48H129.184C128.971 47.0933 128.864 46.0267 128.864 44.8C128.864 43.52 128.971 42.4533 129.184 41.6C128.971 40.6933 128.864 39.6267 128.864 38.4C128.864 37.12 128.971 36.0533 129.184 35.2H113.184C112.971 34.2933 112.864 33.2267 112.864 32C112.864 30.72 112.971 29.6533 113.184 28.8H115.584C115.371 27.8933 115.264 26.8267 115.264 25.6C115.264 24.32 115.371 23.2533 115.584 22.4H117.984C117.771 21.4933 117.664 20.4267 117.664 19.2C117.664 17.92 117.771 16.8533 117.984 16H120.384C120.171 15.0933 120.064 14.0267 120.064 12.8C120.064 11.52 120.171 10.4533 120.384 9.6H124.384C124.598 10.4533 124.704 11.52 124.704 12.8C124.704 14.0267 124.598 15.0933 124.384 16H121.984C122.198 16.8533 122.304 17.92 122.304 19.2C122.304 20.4267 122.198 21.4933 121.984 22.4H119.584C119.798 23.2533 119.904 24.32 119.904 25.6C119.904 26.8267 119.798 27.8933 119.584 28.8H129.184C128.971 27.8933 128.864 26.8267 128.864 25.6C128.864 24.32 128.971 23.2533 129.184 22.4C128.971 21.4933 128.864 20.4267 128.864 19.2C128.864 17.92 128.971 16.8533 129.184 16C128.971 15.0933 128.864 14.0267 128.864 12.8C128.864 11.52 128.971 10.4533 129.184 9.6H124.384C124.171 8.69333 124.064 7.62667 124.064 6.4C124.064 5.12 124.171 4.05333 124.384 3.2H135.584C135.798 4.05333 135.904 5.12 135.904 6.4C135.904 7.62667 135.798 8.69333 135.584 9.6C135.798 10.4533 135.904 11.52 135.904 12.8C135.904 14.0267 135.798 15.0933 135.584 16C135.798 16.8533 135.904 17.92 135.904 19.2C135.904 20.4267 135.798 21.4933 135.584 22.4C135.798 23.2533 135.904 24.32 135.904 25.6C135.904 26.8267 135.798 27.8933 135.584 28.8H138.784C138.998 29.6533 139.104 30.72 139.104 32Z" fill="black"/>
<path d="M9.50438 67.2C9.50438 68.4267 9.39771 69.4933 9.18438 70.4H11.5844C11.7977 71.2533 11.9044 72.32 11.9044 73.6C11.9044 74.8267 11.7977 75.8933 11.5844 76.8H2.78438C2.57104 75.8933 2.46438 74.8267 2.46438 73.6C2.46438 72.32 2.57104 71.2533 2.78438 70.4C2.57104 69.4933 2.46438 68.4267 2.46438 67.2C2.46438 65.92 2.57104 64.8533 2.78438 64C2.57104 63.0933 2.46438 62.0267 2.46438 60.8C2.46438 59.52 2.57104 58.4533 2.78438 57.6C2.57104 56.6933 2.46438 55.6267 2.46438 54.4C2.46438 53.12 2.57104 52.0533 2.78438 51.2H24.3844C24.5977 52.0533 24.7044 53.12 24.7044 54.4C24.7044 55.6267 24.5977 56.6933 24.3844 57.6H9.18438C9.39771 58.4533 9.50438 59.52 9.50438 60.8C9.50438 62.0267 9.39771 63.0933 9.18438 64C9.39771 64.8533 9.50438 65.92 9.50438 67.2ZM27.1044 80C27.1044 81.2267 26.9977 82.2933 26.7844 83.2H24.3844C24.5977 84.0533 24.7044 85.12 24.7044 86.4C24.7044 87.6267 24.5977 88.6933 24.3844 89.6H20.3844C20.5977 90.4533 20.7044 91.52 20.7044 92.8C20.7044 94.0267 20.5977 95.0933 20.3844 96H5.98438C5.77104 95.0933 5.66438 94.0267 5.66438 92.8C5.66438 91.52 5.77104 90.4533 5.98438 89.6H2.78438C2.57104 88.6933 2.46438 87.6267 2.46438 86.4C2.46438 85.12 2.57104 84.0533 2.78438 83.2H7.58438C7.79771 84.0533 7.90438 85.12 7.90438 86.4C7.90438 87.6267 7.79771 88.6933 7.58438 89.6H17.9844C17.771 88.6933 17.6644 87.6267 17.6644 86.4C17.6644 85.12 17.771 84.0533 17.9844 83.2H20.3844C20.171 82.2933 20.0644 81.2267 20.0644 80C20.0644 78.72 20.171 77.6533 20.3844 76.8H17.9844C17.771 75.8933 17.6644 74.8267 17.6644 73.6C17.6644 72.32 17.771 71.2533 17.9844 70.4H11.5844C11.371 69.4933 11.2644 68.4267 11.2644 67.2C11.2644 65.92 11.371 64.8533 11.5844 64H20.3844C20.5977 64.8533 20.7044 65.92 20.7044 67.2C20.7044 68.4267 20.5977 69.4933 20.3844 70.4H24.3844C24.5977 71.2533 24.7044 72.32 24.7044 73.6C24.7044 74.8267 24.5977 75.8933 24.3844 76.8H26.7844C26.9977 77.6533 27.1044 78.72 27.1044 80Z" fill="black"/>
<path d="M50.7044 54.4C50.7044 55.6267 50.5977 56.6933 50.3844 57.6H39.1844C38.971 56.6933 38.8644 55.6267 38.8644 54.4C38.8644 53.12 38.971 52.0533 39.1844 51.2H50.3844C50.5977 52.0533 50.7044 53.12 50.7044 54.4ZM39.1844 83.2C39.3977 84.0533 39.5044 85.12 39.5044 86.4C39.5044 87.6267 39.3977 88.6933 39.1844 89.6H32.7844C32.571 88.6933 32.4644 87.6267 32.4644 86.4C32.4644 85.12 32.571 84.0533 32.7844 83.2H30.3844C30.171 82.2933 30.0644 81.2267 30.0644 80C30.0644 78.72 30.171 77.6533 30.3844 76.8C30.171 75.8933 30.0644 74.8267 30.0644 73.6C30.0644 72.32 30.171 71.2533 30.3844 70.4C30.171 69.4933 30.0644 68.4267 30.0644 67.2C30.0644 65.92 30.171 64.8533 30.3844 64H32.7844C32.571 63.0933 32.4644 62.0267 32.4644 60.8C32.4644 59.52 32.571 58.4533 32.7844 57.6H39.1844C39.3977 58.4533 39.5044 59.52 39.5044 60.8C39.5044 62.0267 39.3977 63.0933 39.1844 64H36.7844C36.9977 64.8533 37.1044 65.92 37.1044 67.2C37.1044 68.4267 36.9977 69.4933 36.7844 70.4C36.9977 71.2533 37.1044 72.32 37.1044 73.6C37.1044 74.8267 36.9977 75.8933 36.7844 76.8H39.1844C39.3977 77.6533 39.5044 78.72 39.5044 80C39.5044 81.2267 39.3977 82.2933 39.1844 83.2ZM53.9044 80C53.9044 81.2267 53.7977 82.2933 53.5844 83.2C53.7977 84.0533 53.9044 85.12 53.9044 86.4C53.9044 87.6267 53.7977 88.6933 53.5844 89.6H48.7844C48.9977 90.4533 49.1044 91.52 49.1044 92.8C49.1044 94.0267 48.9977 95.0933 48.7844 96H39.1844C38.971 95.0933 38.8644 94.0267 38.8644 92.8C38.8644 91.52 38.971 90.4533 39.1844 89.6H47.1844C46.971 88.6933 46.8644 87.6267 46.8644 86.4C46.8644 85.12 46.971 84.0533 47.1844 83.2C46.971 82.2933 46.8644 81.2267 46.8644 80C46.8644 78.72 46.971 77.6533 47.1844 76.8H39.1844C38.971 75.8933 38.8644 74.8267 38.8644 73.6C38.8644 72.32 38.971 71.2533 39.1844 70.4H50.3844C50.5977 71.2533 50.7044 72.32 50.7044 73.6C50.7044 74.8267 50.5977 75.8933 50.3844 76.8H53.5844C53.7977 77.6533 53.9044 78.72 53.9044 80Z" fill="black"/>
<path d="M81.5044 54.4C81.5044 55.6267 81.3977 56.6933 81.1844 57.6C81.3977 58.4533 81.5044 59.52 81.5044 60.8C81.5044 62.0267 81.3977 63.0933 81.1844 64H78.7844C78.9977 64.8533 79.1044 65.92 79.1044 67.2C79.1044 68.4267 78.9977 69.4933 78.7844 70.4H76.3844C76.5977 71.2533 76.7044 72.32 76.7044 73.6C76.7044 74.8267 76.5977 75.8933 76.3844 76.8H73.9844C74.1977 77.6533 74.3044 78.72 74.3044 80C74.3044 81.2267 74.1977 82.2933 73.9844 83.2H71.5844C71.7977 84.0533 71.9044 85.12 71.9044 86.4C71.9044 87.6267 71.7977 88.6933 71.5844 89.6H69.1844C69.3977 90.4533 69.5044 91.52 69.5044 92.8C69.5044 94.0267 69.3977 95.0933 69.1844 96H62.7844C62.571 95.0933 62.4644 94.0267 62.4644 92.8C62.4644 91.52 62.571 90.4533 62.7844 89.6H65.1844C64.971 88.6933 64.8644 87.6267 64.8644 86.4C64.8644 85.12 64.971 84.0533 65.1844 83.2H67.5844C67.371 82.2933 67.2644 81.2267 67.2644 80C67.2644 78.72 67.371 77.6533 67.5844 76.8H69.9844C69.771 75.8933 69.6644 74.8267 69.6644 73.6C69.6644 72.32 69.771 71.2533 69.9844 70.4H72.3844C72.171 69.4933 72.0644 68.4267 72.0644 67.2C72.0644 65.92 72.171 64.8533 72.3844 64H74.7844C74.571 63.0933 74.4644 62.0267 74.4644 60.8C74.4644 59.52 74.571 58.4533 74.7844 57.6H58.7844C58.571 56.6933 58.4644 55.6267 58.4644 54.4C58.4644 53.12 58.571 52.0533 58.7844 51.2H81.1844C81.3977 52.0533 81.5044 53.12 81.5044 54.4Z" fill="black"/>
<path d="M108.704 67.2C108.704 68.4267 108.598 69.4933 108.384 70.4H104.384C104.598 71.2533 104.704 72.32 104.704 73.6C104.704 74.8267 104.598 75.8933 104.384 76.8H108.384C108.598 77.6533 108.704 78.72 108.704 80C108.704 81.2267 108.598 82.2933 108.384 83.2C108.598 84.0533 108.704 85.12 108.704 86.4C108.704 87.6267 108.598 88.6933 108.384 89.6H104.384C104.598 90.4533 104.704 91.52 104.704 92.8C104.704 94.0267 104.598 95.0933 104.384 96H91.5844C91.371 95.0933 91.2644 94.0267 91.2644 92.8C91.2644 91.52 91.371 90.4533 91.5844 89.6H87.5844C87.371 88.6933 87.2644 87.6267 87.2644 86.4C87.2644 85.12 87.371 84.0533 87.5844 83.2C87.371 82.2933 87.2644 81.2267 87.2644 80C87.2644 78.72 87.371 77.6533 87.5844 76.8H91.5844C91.371 75.8933 91.2644 74.8267 91.2644 73.6C91.2644 72.32 91.371 71.2533 91.5844 70.4H87.5844C87.371 69.4933 87.2644 68.4267 87.2644 67.2C87.2644 65.92 87.371 64.8533 87.5844 64C87.371 63.0933 87.2644 62.0267 87.2644 60.8C87.2644 59.52 87.371 58.4533 87.5844 57.6H91.5844C91.371 56.6933 91.2644 55.6267 91.2644 54.4C91.2644 53.12 91.371 52.0533 91.5844 51.2H104.384C104.598 52.0533 104.704 53.12 104.704 54.4C104.704 55.6267 104.598 56.6933 104.384 57.6H108.384C108.598 58.4533 108.704 59.52 108.704 60.8C108.704 62.0267 108.598 63.0933 108.384 64C108.598 64.8533 108.704 65.92 108.704 67.2ZM101.984 70.4C101.771 69.4933 101.664 68.4267 101.664 67.2C101.664 65.92 101.771 64.8533 101.984 64C101.771 63.0933 101.664 62.0267 101.664 60.8C101.664 59.52 101.771 58.4533 101.984 57.6H93.9844C94.1977 58.4533 94.3044 59.52 94.3044 60.8C94.3044 62.0267 94.1977 63.0933 93.9844 64C94.1977 64.8533 94.3044 65.92 94.3044 67.2C94.3044 68.4267 94.1977 69.4933 93.9844 70.4H101.984ZM101.984 83.2C101.771 82.2933 101.664 81.2267 101.664 80C101.664 78.72 101.771 77.6533 101.984 76.8H93.9844C94.1977 77.6533 94.3044 78.72 94.3044 80C94.3044 81.2267 94.1977 82.2933 93.9844 83.2C94.1977 84.0533 94.3044 85.12 94.3044 86.4C94.3044 87.6267 94.1977 88.6933 93.9844 89.6H101.984C101.771 88.6933 101.664 87.6267 101.664 86.4C101.664 85.12 101.771 84.0533 101.984 83.2Z" fill="black"/>
<path d="M121.104 67.2C121.104 68.4267 120.998 69.4933 120.784 70.4H128.784C128.998 71.2533 129.104 72.32 129.104 73.6C129.104 74.8267 128.998 75.8933 128.784 76.8H117.584C117.371 75.8933 117.264 74.8267 117.264 73.6C117.264 72.32 117.371 71.2533 117.584 70.4H114.384C114.171 69.4933 114.064 68.4267 114.064 67.2C114.064 65.92 114.171 64.8533 114.384 64C114.171 63.0933 114.064 62.0267 114.064 60.8C114.064 59.52 114.171 58.4533 114.384 57.6H119.184C118.971 56.6933 118.864 55.6267 118.864 54.4C118.864 53.12 118.971 52.0533 119.184 51.2H128.784C128.998 52.0533 129.104 53.12 129.104 54.4C129.104 55.6267 128.998 56.6933 128.784 57.6H120.784C120.998 58.4533 121.104 59.52 121.104 60.8C121.104 62.0267 120.998 63.0933 120.784 64C120.998 64.8533 121.104 65.92 121.104 67.2ZM137.584 70.4C137.798 71.2533 137.904 72.32 137.904 73.6C137.904 74.8267 137.798 75.8933 137.584 76.8C137.798 77.6533 137.904 78.72 137.904 80C137.904 81.2267 137.798 82.2933 137.584 83.2H135.184C135.398 84.0533 135.504 85.12 135.504 86.4C135.504 87.6267 135.398 88.6933 135.184 89.6H128.784C128.571 88.6933 128.464 87.6267 128.464 86.4C128.464 85.12 128.571 84.0533 128.784 83.2H131.184C130.971 82.2933 130.864 81.2267 130.864 80C130.864 78.72 130.971 77.6533 131.184 76.8C130.971 75.8933 130.864 74.8267 130.864 73.6C130.864 72.32 130.971 71.2533 131.184 70.4H128.784C128.571 69.4933 128.464 68.4267 128.464 67.2C128.464 65.92 128.571 64.8533 128.784 64C128.571 63.0933 128.464 62.0267 128.464 60.8C128.464 59.52 128.571 58.4533 128.784 57.6H135.184C135.398 58.4533 135.504 59.52 135.504 60.8C135.504 62.0267 135.398 63.0933 135.184 64H137.584C137.798 64.8533 137.904 65.92 137.904 67.2C137.904 68.4267 137.798 69.4933 137.584 70.4ZM117.264 92.8C117.264 91.52 117.371 90.4533 117.584 89.6H128.784C128.998 90.4533 129.104 91.52 129.104 92.8C129.104 94.0267 128.998 95.0933 128.784 96H117.584C117.371 95.0933 117.264 94.0267 117.264 92.8Z" fill="black"/>
<path d="M18.3044 108.8C18.3044 110.027 18.1977 111.093 17.9844 112C18.1977 112.853 18.3044 113.92 18.3044 115.2C18.3044 116.427 18.1977 117.493 17.9844 118.4H9.98438C9.77104 117.493 9.66438 116.427 9.66438 115.2C9.66438 113.92 9.77104 112.853 9.98438 112C9.77104 111.093 9.66438 110.027 9.66438 108.8C9.66438 107.52 9.77104 106.453 9.98438 105.6H17.9844C18.1977 106.453 18.3044 107.52 18.3044 108.8ZM17.9844 131.2C18.1977 132.053 18.3044 133.12 18.3044 134.4C18.3044 135.627 18.1977 136.693 17.9844 137.6C18.1977 138.453 18.3044 139.52 18.3044 140.8C18.3044 142.027 18.1977 143.093 17.9844 144H9.98438C9.77104 143.093 9.66438 142.027 9.66438 140.8C9.66438 139.52 9.77104 138.453 9.98438 137.6C9.77104 136.693 9.66438 135.627 9.66438 134.4C9.66438 133.12 9.77104 132.053 9.98438 131.2H17.9844Z" fill="black"/>
<path d="M46.3044 134.4C46.3044 135.627 46.1977 136.693 45.9844 137.6C46.1977 138.453 46.3044 139.52 46.3044 140.8C46.3044 142.027 46.1977 143.093 45.9844 144H37.9844C37.771 143.093 37.6644 142.027 37.6644 140.8C37.6644 139.52 37.771 138.453 37.9844 137.6C37.771 136.693 37.6644 135.627 37.6644 134.4C37.6644 133.12 37.771 132.053 37.9844 131.2H45.9844C46.1977 132.053 46.3044 133.12 46.3044 134.4Z" fill="black"/>
<path d="M83.1044 134.4C83.1044 135.627 82.9977 136.693 82.7844 137.6C82.9977 138.453 83.1044 139.52 83.1044 140.8C83.1044 142.027 82.9977 143.093 82.7844 144H76.3844C76.171 143.093 76.0644 142.027 76.0644 140.8C76.0644 139.52 76.171 138.453 76.3844 137.6C76.171 136.693 76.0644 135.627 76.0644 134.4C76.0644 133.12 76.171 132.053 76.3844 131.2H63.5844C63.7977 132.053 63.9044 133.12 63.9044 134.4C63.9044 135.627 63.7977 136.693 63.5844 137.6C63.7977 138.453 63.9044 139.52 63.9044 140.8C63.9044 142.027 63.7977 143.093 63.5844 144H57.1844C56.971 143.093 56.8644 142.027 56.8644 140.8C56.8644 139.52 56.971 138.453 57.1844 137.6C56.971 136.693 56.8644 135.627 56.8644 134.4C56.8644 133.12 56.971 132.053 57.1844 131.2H59.5844C59.371 130.293 59.2644 129.227 59.2644 128C59.2644 126.72 59.371 125.653 59.5844 124.8C59.371 123.893 59.2644 122.827 59.2644 121.6C59.2644 120.32 59.371 119.253 59.5844 118.4H61.1844C60.971 117.493 60.8644 116.427 60.8644 115.2C60.8644 113.92 60.971 112.853 61.1844 112H63.5844C63.371 111.093 63.2644 110.027 63.2644 108.8C63.2644 107.52 63.371 106.453 63.5844 105.6H65.1844C64.971 104.693 64.8644 103.627 64.8644 102.4C64.8644 101.12 64.971 100.053 65.1844 99.2H74.7844C74.9977 100.053 75.1044 101.12 75.1044 102.4C75.1044 103.627 74.9977 104.693 74.7844 105.6H76.3844C76.5977 106.453 76.7044 107.52 76.7044 108.8C76.7044 110.027 76.5977 111.093 76.3844 112H78.7844C78.9977 112.853 79.1044 113.92 79.1044 115.2C79.1044 116.427 78.9977 117.493 78.7844 118.4H80.3844C80.5977 119.253 80.7044 120.32 80.7044 121.6C80.7044 122.827 80.5977 123.893 80.3844 124.8C80.5977 125.653 80.7044 126.72 80.7044 128C80.7044 129.227 80.5977 130.293 80.3844 131.2H82.7844C82.9977 132.053 83.1044 133.12 83.1044 134.4ZM73.9844 124.8C73.771 123.893 73.6644 122.827 73.6644 121.6C73.6644 120.32 73.771 119.253 73.9844 118.4H72.3844C72.171 117.493 72.0644 116.427 72.0644 115.2C72.0644 113.92 72.171 112.853 72.3844 112H67.5844C67.7977 112.853 67.9044 113.92 67.9044 115.2C67.9044 116.427 67.7977 117.493 67.5844 118.4H65.9844C66.1977 119.253 66.3044 120.32 66.3044 121.6C66.3044 122.827 66.1977 123.893 65.9844 124.8H73.9844Z" fill="black"/>
<path d="M111.104 108.8C111.104 110.027 110.998 111.093 110.784 112C110.998 112.853 111.104 113.92 111.104 115.2C111.104 116.427 110.998 117.493 110.784 118.4H107.584C107.798 119.253 107.904 120.32 107.904 121.6C107.904 122.827 107.798 123.893 107.584 124.8H91.5844C91.7977 125.653 91.9044 126.72 91.9044 128C91.9044 129.227 91.7977 130.293 91.5844 131.2C91.7977 132.053 91.9044 133.12 91.9044 134.4C91.9044 135.627 91.7977 136.693 91.5844 137.6C91.7977 138.453 91.9044 139.52 91.9044 140.8C91.9044 142.027 91.7977 143.093 91.5844 144H85.1844C84.971 143.093 84.8644 142.027 84.8644 140.8C84.8644 139.52 84.971 138.453 85.1844 137.6C84.971 136.693 84.8644 135.627 84.8644 134.4C84.8644 133.12 84.971 132.053 85.1844 131.2C84.971 130.293 84.8644 129.227 84.8644 128C84.8644 126.72 84.971 125.653 85.1844 124.8C84.971 123.893 84.8644 122.827 84.8644 121.6C84.8644 120.32 84.971 119.253 85.1844 118.4C84.971 117.493 84.8644 116.427 84.8644 115.2C84.8644 113.92 84.971 112.853 85.1844 112C84.971 111.093 84.8644 110.027 84.8644 108.8C84.8644 107.52 84.971 106.453 85.1844 105.6C84.971 104.693 84.8644 103.627 84.8644 102.4C84.8644 101.12 84.971 100.053 85.1844 99.2H107.584C107.798 100.053 107.904 101.12 107.904 102.4C107.904 103.627 107.798 104.693 107.584 105.6H110.784C110.998 106.453 111.104 107.52 111.104 108.8ZM104.384 118.4C104.171 117.493 104.064 116.427 104.064 115.2C104.064 113.92 104.171 112.853 104.384 112C104.171 111.093 104.064 110.027 104.064 108.8C104.064 107.52 104.171 106.453 104.384 105.6H91.5844C91.7977 106.453 91.9044 107.52 91.9044 108.8C91.9044 110.027 91.7977 111.093 91.5844 112C91.7977 112.853 91.9044 113.92 91.9044 115.2C91.9044 116.427 91.7977 117.493 91.5844 118.4H104.384Z" fill="black"/>
<path d="M138.784 105.6C138.998 106.453 139.104 107.52 139.104 108.8C139.104 110.027 138.998 111.093 138.784 112C138.998 112.853 139.104 113.92 139.104 115.2C139.104 116.427 138.998 117.493 138.784 118.4C138.998 119.253 139.104 120.32 139.104 121.6C139.104 122.827 138.998 123.893 138.784 124.8C138.998 125.653 139.104 126.72 139.104 128C139.104 129.227 138.998 130.293 138.784 131.2C138.998 132.053 139.104 133.12 139.104 134.4C139.104 135.627 138.998 136.693 138.784 137.6C138.998 138.453 139.104 139.52 139.104 140.8C139.104 142.027 138.998 143.093 138.784 144H132.384C132.171 143.093 132.064 142.027 132.064 140.8C132.064 139.52 132.171 138.453 132.384 137.6C132.171 136.693 132.064 135.627 132.064 134.4C132.064 133.12 132.171 132.053 132.384 131.2C132.171 130.293 132.064 129.227 132.064 128C132.064 126.72 132.171 125.653 132.384 124.8C132.171 123.893 132.064 122.827 132.064 121.6C132.064 120.32 132.171 119.253 132.384 118.4C132.171 117.493 132.064 116.427 132.064 115.2C132.064 113.92 132.171 112.853 132.384 112H129.984C130.198 112.853 130.304 113.92 130.304 115.2C130.304 116.427 130.198 117.493 129.984 118.4C130.198 119.253 130.304 120.32 130.304 121.6C130.304 122.827 130.198 123.893 129.984 124.8H128.384C128.598 125.653 128.704 126.72 128.704 128C128.704 129.227 128.598 130.293 128.384 131.2C128.598 132.053 128.704 133.12 128.704 134.4C128.704 135.627 128.598 136.693 128.384 137.6H123.584C123.371 136.693 123.264 135.627 123.264 134.4C123.264 133.12 123.371 132.053 123.584 131.2C123.371 130.293 123.264 129.227 123.264 128C123.264 126.72 123.371 125.653 123.584 124.8H121.984C121.771 123.893 121.664 122.827 121.664 121.6C121.664 120.32 121.771 119.253 121.984 118.4C121.771 117.493 121.664 116.427 121.664 115.2C121.664 113.92 121.771 112.853 121.984 112H119.584C119.798 112.853 119.904 113.92 119.904 115.2C119.904 116.427 119.798 117.493 119.584 118.4C119.798 119.253 119.904 120.32 119.904 121.6C119.904 122.827 119.798 123.893 119.584 124.8C119.798 125.653 119.904 126.72 119.904 128C119.904 129.227 119.798 130.293 119.584 131.2C119.798 132.053 119.904 133.12 119.904 134.4C119.904 135.627 119.798 136.693 119.584 137.6C119.798 138.453 119.904 139.52 119.904 140.8C119.904 142.027 119.798 143.093 119.584 144H113.184C112.971 143.093 112.864 142.027 112.864 140.8C112.864 139.52 112.971 138.453 113.184 137.6C112.971 136.693 112.864 135.627 112.864 134.4C112.864 133.12 112.971 132.053 113.184 131.2C112.971 130.293 112.864 129.227 112.864 128C112.864 126.72 112.971 125.653 113.184 124.8C112.971 123.893 112.864 122.827 112.864 121.6C112.864 120.32 112.971 119.253 113.184 118.4C112.971 117.493 112.864 116.427 112.864 115.2C112.864 113.92 112.971 112.853 113.184 112C112.971 111.093 112.864 110.027 112.864 108.8C112.864 107.52 112.971 106.453 113.184 105.6C112.971 104.693 112.864 103.627 112.864 102.4C112.864 101.12 112.971 100.053 113.184 99.2H121.184C121.398 100.053 121.504 101.12 121.504 102.4C121.504 103.627 121.398 104.693 121.184 105.6H123.584C123.798 106.453 123.904 107.52 123.904 108.8C123.904 110.027 123.798 111.093 123.584 112H124.784C124.998 112.853 125.104 113.92 125.104 115.2C125.104 116.427 124.998 117.493 124.784 118.4H127.184C126.971 117.493 126.864 116.427 126.864 115.2C126.864 113.92 126.971 112.853 127.184 112H128.384C128.171 111.093 128.064 110.027 128.064 108.8C128.064 107.52 128.171 106.453 128.384 105.6H130.784C130.571 104.693 130.464 103.627 130.464 102.4C130.464 101.12 130.571 100.053 130.784 99.2H138.784C138.998 100.053 139.104 101.12 139.104 102.4C139.104 103.627 138.998 104.693 138.784 105.6Z" fill="black"/>
</g>
</svg>
