<svg width="90" height="144" viewBox="0 0 90 144" fill="none" xmlns="http://www.w3.org/2000/svg">
<g clip-path="url(#clip0_100_2)">
<path d="M15.6608 39.536C15.6608 40.7307 15.4474 41.8827 15.0208 42.992C14.5941 44.0587 13.8901 44.9333 12.9088 45.616C11.9701 46.2987 10.6688 46.64 9.00475 46.64C7.29808 46.64 5.95408 46.2987 4.97275 45.616C4.03408 44.9333 3.35142 44.0587 2.92475 42.992C2.54075 41.8827 2.34875 40.7307 2.34875 39.536V7.856C2.34875 6.61867 2.54075 5.44533 2.92475 4.336C3.35142 3.22666 4.03408 2.33066 4.97275 1.648C5.95408 0.922665 7.29808 0.559998 9.00475 0.559998C10.6688 0.559998 11.9701 0.922665 12.9088 1.648C13.8901 2.33066 14.5941 3.22666 15.0208 4.336C15.4474 5.44533 15.6608 6.61867 15.6608 7.856V39.536ZM3.62875 39.536C3.62875 41.0293 4.01275 42.3733 4.78075 43.568C5.54875 44.7627 6.95675 45.36 9.00475 45.36C11.0528 45.36 12.4608 44.7627 13.2288 43.568C13.9968 42.3733 14.3808 41.0293 14.3808 39.536V7.856C14.3808 6.87467 14.2101 5.936 13.8688 5.04C13.5701 4.10133 13.0154 3.33333 12.2048 2.736C11.4368 2.13866 10.3701 1.84 9.00475 1.84C7.63942 1.84 6.55142 2.13866 5.74075 2.736C4.97275 3.33333 4.41808 4.10133 4.07675 5.04C3.77808 5.936 3.62875 6.87467 3.62875 7.856V39.536Z" fill="black"/>
<path d="M32.0918 45.296C32.2198 45.424 32.2838 45.5947 32.2838 45.808C32.2838 46.3627 32.0064 46.64 31.4518 46.64C30.8971 46.64 30.6198 46.3627 30.6198 45.808C30.6198 45.5947 30.6838 45.424 30.8118 45.296V2.864L20.4438 13.168C20.4438 13.7227 20.1664 14 19.6118 14C19.0571 14 18.7797 13.7227 18.7797 13.168C18.7797 12.7413 19.0358 12.464 19.5478 12.336L30.6198 1.328C30.6198 0.815998 30.8971 0.559998 31.4518 0.559998C32.0064 0.559998 32.2838 0.837331 32.2838 1.392C32.2838 1.56267 32.2198 1.75467 32.0918 1.968V45.296Z" fill="black"/>
<path d="M50.781 44.72C50.9943 44.592 51.1863 44.528 51.357 44.528C51.9117 44.528 52.189 44.8053 52.189 45.36C52.189 45.9147 51.9117 46.192 51.357 46.192C51.1863 46.192 50.9943 46.128 50.781 46H38.237V33.648C38.237 32.624 38.365 31.6427 38.621 30.704C38.9197 29.7227 39.5597 28.7627 40.541 27.824L48.029 21.168C49.6503 19.6747 50.461 17.776 50.461 15.472V7.664C50.461 6.17067 50.077 4.82667 49.309 3.632C48.541 2.43733 47.133 1.84 45.085 1.84C43.2077 1.84 41.8637 2.37333 41.053 3.44C40.2423 4.464 39.7943 5.68 39.709 7.088C39.837 7.216 39.901 7.408 39.901 7.664C39.901 8.21866 39.6237 8.496 39.069 8.496C38.5143 8.496 38.237 8.21866 38.237 7.664C38.237 7.408 38.301 7.216 38.429 7.088C38.5143 5.33866 39.0477 3.824 40.029 2.544C41.053 1.22133 42.7383 0.559998 45.085 0.559998C46.7917 0.559998 48.1143 0.901332 49.053 1.584C50.0343 2.26667 50.717 3.14133 51.101 4.208C51.5277 5.27466 51.741 6.42666 51.741 7.664V15.472C51.741 16.5387 51.549 17.6267 51.165 18.736C50.8237 19.8453 50.0983 20.912 48.989 21.936L41.437 28.592C40.7117 29.232 40.221 29.9787 39.965 30.832C39.7517 31.6427 39.6023 32.5813 39.517 33.648V44.72H50.781Z" fill="black"/>
<path d="M69.0668 39.536C69.0668 40.7307 68.8534 41.8827 68.4268 42.992C68.0428 44.0587 67.3601 44.9333 66.3788 45.616C65.4401 46.2987 64.1174 46.64 62.4108 46.64C60.0641 46.64 58.3788 45.9787 57.3548 44.656C56.3734 43.3333 55.8401 41.8187 55.7548 40.112C55.6268 39.984 55.5628 39.792 55.5628 39.536C55.5628 38.9813 55.8401 38.704 56.3948 38.704C56.9494 38.704 57.2268 38.9813 57.2268 39.536C57.2268 39.792 57.1628 39.984 57.0348 40.112C57.0774 41.5627 57.5041 42.8 58.3148 43.824C59.1254 44.848 60.4908 45.36 62.4108 45.36C64.4588 45.36 65.8668 44.7627 66.6348 43.568C67.4028 42.3733 67.7868 41.0293 67.7868 39.536V21.296C67.7868 20.272 67.6161 19.312 67.2748 18.416C66.9334 17.4773 66.3574 16.7307 65.5468 16.176C64.7788 15.5787 63.6694 15.28 62.2188 15.28H61.0668V14H62.7948C64.1601 14 65.2054 13.7013 65.9308 13.104C66.6561 12.5067 67.1468 11.7387 67.4028 10.8C67.6588 9.81867 67.7868 8.83733 67.7868 7.856C67.7868 6.87467 67.6161 5.936 67.2748 5.04C66.9761 4.10133 66.4214 3.33333 65.6108 2.736C64.8428 2.13866 63.7761 1.84 62.4108 1.84C60.4908 1.84 59.1254 2.37333 58.3148 3.44C57.5041 4.464 57.0774 5.68 57.0348 7.088C57.1628 7.216 57.2268 7.408 57.2268 7.664C57.2268 7.87733 57.1414 8.06933 56.9708 8.24C56.8001 8.41066 56.6081 8.496 56.3948 8.496C55.8401 8.496 55.5628 8.21866 55.5628 7.664C55.5628 7.408 55.6268 7.216 55.7548 7.088C55.8401 5.33866 56.3734 3.824 57.3548 2.544C58.3788 1.22133 60.0641 0.559998 62.4108 0.559998C64.0748 0.559998 65.3761 0.922665 66.3148 1.648C67.2961 2.33066 68.0001 3.22666 68.4268 4.336C68.8534 5.44533 69.0668 6.61867 69.0668 7.856C69.0668 9.22133 68.8108 10.5653 68.2988 11.888C67.7868 13.168 66.8054 14.0853 65.3548 14.64C66.7201 15.2373 67.6801 16.1333 68.2348 17.328C68.7894 18.48 69.0668 19.8027 69.0668 21.296V39.536Z" fill="black"/>
<path d="M85.1958 45.296C85.3238 45.424 85.3878 45.5947 85.3878 45.808C85.3878 46.3627 85.1104 46.64 84.5558 46.64C84.0011 46.64 83.7238 46.3627 83.7238 45.808C83.7238 45.5947 83.7878 45.424 83.9158 45.296V15.28H72.9078V14L83.7238 1.392C83.7238 0.837331 84.0011 0.559998 84.5558 0.559998C85.1104 0.559998 85.3878 0.837331 85.3878 1.392C85.3878 1.56267 85.3238 1.75467 85.1958 1.968V14H86.9878C87.2011 13.872 87.3931 13.808 87.5638 13.808C88.1184 13.808 88.3958 14.0853 88.3958 14.64C88.3958 15.1947 88.1184 15.472 87.5638 15.472C87.3931 15.472 87.2011 15.408 86.9878 15.28H85.1958V45.296ZM83.9158 14V3.056L74.4438 14H83.9158Z" fill="black"/>
<path d="M15.0325 87.536C15.0325 88.7307 14.8192 89.8827 14.3925 90.992C13.9658 92.0587 13.2618 92.9333 12.2805 93.616C11.3418 94.2987 10.0405 94.64 8.3765 94.64C6.02983 94.64 4.36583 94.0213 3.3845 92.784C2.40317 91.504 1.8485 90.0107 1.7205 88.304C1.5925 88.176 1.5285 87.984 1.5285 87.728C1.5285 87.1733 1.80583 86.896 2.3605 86.896C2.91517 86.896 3.1925 87.1733 3.1925 87.728C3.1925 87.9413 3.1285 88.112 3.0005 88.24C3.08583 89.648 3.53383 90.864 4.3445 91.888C5.15517 92.8693 6.49917 93.36 8.3765 93.36C10.4245 93.36 11.8325 92.7627 12.6005 91.568C13.3685 90.3733 13.7525 89.0293 13.7525 87.536V69.104C13.7525 67.6107 13.3685 66.2667 12.6005 65.072C11.8325 63.8773 10.4245 63.28 8.3765 63.28H3.0005V49.2H13.9445C14.1578 49.072 14.3498 49.008 14.5205 49.008C15.0752 49.008 15.3525 49.2853 15.3525 49.84C15.3525 50.3947 15.0752 50.672 14.5205 50.672C14.3498 50.672 14.1578 50.608 13.9445 50.48H4.2805V62H8.3765C10.0405 62 11.3418 62.3413 12.2805 63.024C13.2618 63.7067 13.9658 64.5813 14.3925 65.648C14.8192 66.7147 15.0325 67.8667 15.0325 69.104V87.536Z" fill="black"/>
<path d="M33.7858 87.536C33.7858 88.7307 33.5724 89.8827 33.1458 90.992C32.7191 92.0587 32.0151 92.9333 31.0338 93.616C30.0951 94.2987 28.7938 94.64 27.1298 94.64C25.4231 94.64 24.0791 94.2987 23.0978 93.616C22.1591 92.9333 21.4764 92.0587 21.0498 90.992C20.6658 89.8827 20.4738 88.7307 20.4738 87.536V55.856C20.4738 54.6187 20.6658 53.4453 21.0498 52.336C21.4764 51.2267 22.1591 50.3307 23.0978 49.648C24.0791 48.9227 25.4231 48.56 27.1298 48.56C29.5191 48.56 31.2044 49.2427 32.1858 50.608C33.1671 51.9733 33.7004 53.5307 33.7858 55.28C33.9138 55.408 33.9778 55.6 33.9778 55.856C33.9778 56.4107 33.7004 56.688 33.1458 56.688C32.5911 56.688 32.3138 56.4107 32.3138 55.856C32.3138 55.6427 32.3778 55.472 32.5058 55.344C32.4204 53.9787 31.9724 52.72 31.1618 51.568C30.3938 50.416 29.0498 49.84 27.1298 49.84C25.7644 49.84 24.6764 50.1387 23.8658 50.736C23.0978 51.3333 22.5431 52.1013 22.2018 53.04C21.9031 53.936 21.7538 54.8747 21.7538 55.856V64.944C22.2658 64.048 22.9484 63.344 23.8018 62.832C24.6978 62.2773 25.8071 62 27.1298 62C28.7938 62 30.0951 62.3627 31.0338 63.088C32.0151 63.7707 32.7191 64.6667 33.1458 65.776C33.5724 66.8853 33.7858 68.0587 33.7858 69.296V87.536ZM21.7538 87.472C21.7538 88.9653 22.1378 90.3307 22.9058 91.568C23.6738 92.7627 25.0818 93.36 27.1298 93.36C29.1778 93.36 30.5858 92.7627 31.3538 91.568C32.1218 90.3307 32.5058 88.9653 32.5058 87.472V69.36C32.5058 68.3787 32.3351 67.4187 31.9938 66.48C31.6951 65.5413 31.1404 64.7733 30.3298 64.176C29.5618 63.5787 28.4951 63.28 27.1298 63.28C25.7644 63.28 24.6764 63.5787 23.8658 64.176C23.0978 64.7733 22.5431 65.5413 22.2018 66.48C21.9031 67.4187 21.7538 68.3787 21.7538 69.36V87.472Z" fill="black"/>
<path d="M42.0843 93.296C42.2123 93.424 42.2763 93.5947 42.2763 93.808C42.2763 94.3627 41.9989 94.64 41.4443 94.64C40.8896 94.64 40.6123 94.3627 40.6123 93.808C40.6123 93.5947 40.6763 93.424 40.8043 93.296V71.792C40.8043 70.7253 40.9749 69.6373 41.3163 68.528C41.7003 67.4187 42.4469 66.352 43.5563 65.328L48.8683 60.656C49.5936 60.016 50.0843 59.2907 50.3403 58.48C50.5963 57.6267 50.7456 56.6667 50.7883 55.6V50.48H39.4603C39.3323 50.608 39.1616 50.672 38.9483 50.672C38.3936 50.672 38.1163 50.3947 38.1163 49.84C38.1163 49.2853 38.3936 49.008 38.9483 49.008C39.1616 49.008 39.3323 49.072 39.4603 49.2H52.0683V55.6C52.0683 56.5813 51.9403 57.584 51.6843 58.608C51.4283 59.5893 50.7883 60.528 49.7643 61.424L44.5163 66.096C42.8949 67.5893 42.0843 69.488 42.0843 71.792V93.296Z" fill="black"/>
<path d="M69.625 87.536C69.625 88.7307 69.4117 89.8827 68.985 90.992C68.5583 92.0587 67.8543 92.9333 66.873 93.616C65.9343 94.2987 64.633 94.64 62.969 94.64C61.2623 94.64 59.9183 94.2987 58.937 93.616C57.9983 92.9333 57.3157 92.0587 56.889 90.992C56.505 89.8827 56.313 88.7307 56.313 87.536V68.656C56.313 67.2907 56.569 66.0107 57.081 64.816C57.593 63.5787 58.489 62.64 59.769 62C58.489 61.4453 57.593 60.5707 57.081 59.376C56.569 58.1813 56.313 56.9227 56.313 55.6C56.313 54.4053 56.505 53.2747 56.889 52.208C57.3157 51.1413 57.9983 50.2667 58.937 49.584C59.9183 48.9013 61.2623 48.56 62.969 48.56C64.6757 48.56 65.9983 48.9013 66.937 49.584C67.9183 50.224 68.601 51.0773 68.985 52.144C69.4117 53.2107 69.625 54.3627 69.625 55.6C69.625 56.9227 69.369 58.1813 68.857 59.376C68.345 60.5707 67.4277 61.4453 66.105 62C67.3423 62.64 68.2383 63.5787 68.793 64.816C69.3477 66.0107 69.625 67.2907 69.625 68.656V87.536ZM63.225 61.36C65.145 61.2747 66.4677 60.656 67.193 59.504C67.961 58.352 68.345 57.0507 68.345 55.6C68.345 54.1493 67.9397 52.8267 67.129 51.632C66.361 50.4373 64.9743 49.84 62.969 49.84C60.9637 49.84 59.5557 50.4373 58.745 51.632C57.977 52.8267 57.593 54.1493 57.593 55.6C57.593 56.9653 57.977 58.2453 58.745 59.44C59.513 60.6347 60.8143 61.2747 62.649 61.36H63.225ZM57.593 87.536C57.593 89.0293 57.977 90.3733 58.745 91.568C59.513 92.7627 60.921 93.36 62.969 93.36C65.017 93.36 66.425 92.7627 67.193 91.568C67.961 90.3733 68.345 89.0293 68.345 87.536V68.656C68.345 67.6747 68.1743 66.736 67.833 65.84C67.5343 64.9013 66.9797 64.1333 66.169 63.536C65.401 62.9387 64.3343 62.64 62.969 62.64C61.6037 62.64 60.5157 62.9387 59.705 63.536C58.937 64.1333 58.3823 64.9013 58.041 65.84C57.7423 66.736 57.593 67.6747 57.593 68.656V87.536Z" fill="black"/>
<path d="M87.5298 87.344C87.5298 88.5387 87.3164 89.712 86.8898 90.864C86.5058 91.9733 85.8231 92.8907 84.8418 93.616C83.9031 94.2987 82.5804 94.64 80.8738 94.64C78.5271 94.64 76.8418 93.9573 75.8177 92.592C74.8364 91.184 74.3031 89.6267 74.2178 87.92C74.0898 87.792 74.0258 87.6 74.0258 87.344C74.0258 86.7893 74.3031 86.512 74.8578 86.512C75.4124 86.512 75.6898 86.7893 75.6898 87.344C75.6898 87.5573 75.6258 87.728 75.4978 87.856C75.5831 89.2213 76.0098 90.48 76.7778 91.632C77.5884 92.784 78.9538 93.36 80.8738 93.36C82.2391 93.36 83.3058 93.0613 84.0738 92.464C84.8844 91.8667 85.4391 91.0987 85.7378 90.16C86.0791 89.2213 86.2498 88.2827 86.2498 87.344V78.32C85.1404 80.24 83.3484 81.2 80.8738 81.2C79.2524 81.2 77.9511 80.8587 76.9698 80.176C75.9884 79.4507 75.2844 78.5333 74.8578 77.424C74.4311 76.272 74.2178 75.0987 74.2178 73.904V55.664C74.2178 54.4267 74.4311 53.2747 74.8578 52.208C75.2844 51.1413 75.9884 50.2667 76.9698 49.584C77.9511 48.9013 79.2524 48.56 80.8738 48.56C82.5804 48.56 83.9031 48.9013 84.8418 49.584C85.8231 50.2667 86.5058 51.1413 86.8898 52.208C87.3164 53.2747 87.5298 54.4267 87.5298 55.664V87.344ZM75.4978 73.84C75.4978 74.8213 75.6471 75.7813 75.9458 76.72C76.2871 77.6587 76.8418 78.4267 77.6098 79.024C78.4204 79.6213 79.5084 79.92 80.8738 79.92C82.8791 79.92 84.2658 79.344 85.0338 78.192C85.8018 76.9973 86.2071 75.696 86.2498 74.288V55.728C86.2498 54.2347 85.8658 52.8907 85.0978 51.696C84.3298 50.4587 82.9218 49.84 80.8738 49.84C78.8258 49.84 77.4178 50.4587 76.6498 51.696C75.8818 52.8907 75.4978 54.2347 75.4978 55.728V73.84Z" fill="black"/>
<path d="M10.0648 117.616C9.80875 117.872 9.44608 118 8.97675 118C8.55008 118 8.20875 117.872 7.95275 117.616C7.69675 117.317 7.56875 116.976 7.56875 116.592C7.56875 116.165 7.69675 115.824 7.95275 115.568C8.20875 115.269 8.55008 115.12 8.97675 115.12C9.44608 115.12 9.80875 115.269 10.0648 115.568C10.3208 115.824 10.4488 116.165 10.4488 116.592C10.4488 116.933 10.3208 117.275 10.0648 117.616ZM10.0648 142.192C9.80875 142.491 9.44608 142.64 8.97675 142.64C8.55008 142.64 8.20875 142.491 7.95275 142.192C7.69675 141.936 7.56875 141.616 7.56875 141.232C7.56875 140.805 7.69675 140.464 7.95275 140.208C8.20875 139.909 8.55008 139.76 8.97675 139.76C9.44608 139.76 9.80875 139.909 10.0648 140.208C10.3208 140.464 10.4488 140.805 10.4488 141.232C10.4488 141.616 10.3208 141.936 10.0648 142.192Z" fill="black"/>
<path d="M28.0648 142.192C27.8088 142.491 27.4461 142.64 26.9768 142.64C26.5501 142.64 26.2088 142.491 25.9528 142.192C25.6968 141.936 25.5688 141.616 25.5688 141.232C25.5688 140.805 25.6968 140.464 25.9528 140.208C26.2088 139.909 26.5501 139.76 26.9768 139.76C27.4461 139.76 27.8088 139.909 28.0648 140.208C28.3208 140.464 28.4488 140.805 28.4488 141.232C28.4488 141.616 28.3208 141.936 28.0648 142.192Z" fill="black"/>
<path d="M51.6562 141.296C51.7843 141.424 51.8483 141.595 51.8483 141.808C51.8483 142.363 51.5709 142.64 51.0163 142.64C50.4616 142.64 50.1843 142.363 50.1843 141.808C50.1843 141.595 50.2483 141.424 50.3763 141.296V111.28H39.6243V141.296C39.7523 141.424 39.8163 141.595 39.8163 141.808C39.8163 142.363 39.5389 142.64 38.9843 142.64C38.4296 142.64 38.1523 142.363 38.1523 141.808C38.1523 141.595 38.2163 141.424 38.3443 141.296V104.496C38.3443 103.259 38.5363 102.085 38.9203 100.976C39.3469 99.8667 40.0509 98.9707 41.0323 98.288C42.0136 97.5627 43.3576 97.2 45.0642 97.2H51.6562V141.296ZM50.3763 110V98.48H45.0642C43.6563 98.48 42.5469 98.7787 41.7363 99.376C40.9683 99.9733 40.4136 100.741 40.0723 101.68C39.7736 102.576 39.6243 103.515 39.6243 104.496V110H50.3763Z" fill="black"/>
<path d="M58.0633 141.296C58.1913 141.424 58.2552 141.595 58.2552 141.808C58.2552 142.363 57.9779 142.64 57.4233 142.64C56.8686 142.64 56.5913 142.363 56.5913 141.808C56.5913 141.595 56.6553 141.424 56.7833 141.296V97.2H63.6313C65.3379 97.2 66.6606 97.5627 67.5993 98.288C68.5806 98.9707 69.2633 99.8667 69.6473 100.976C70.0739 102.085 70.2873 103.259 70.2873 104.496V122.096C70.2873 123.291 70.0739 124.443 69.6473 125.552C69.2633 126.619 68.5806 127.493 67.5993 128.176C66.6606 128.859 65.3379 129.2 63.6313 129.2H58.0633V141.296ZM63.6313 127.92C65.6793 127.92 67.0873 127.323 67.8553 126.128C68.6233 124.933 69.0073 123.589 69.0073 122.096V104.496C69.0073 103.515 68.8366 102.576 68.4953 101.68C68.1966 100.741 67.6419 99.9733 66.8313 99.376C66.0633 98.7787 64.9966 98.48 63.6313 98.48H58.0633V127.92H63.6313Z" fill="black"/>
<path d="M89.6913 141.296C89.8193 141.424 89.8833 141.595 89.8833 141.808C89.8833 142.363 89.6059 142.64 89.0513 142.64C88.4966 142.64 88.2193 142.363 88.2193 141.808C88.2193 141.595 88.2833 141.424 88.4113 141.296V99.824L81.6273 111.28H80.2833L73.5633 99.888V141.296C73.6913 141.424 73.7552 141.595 73.7552 141.808C73.7552 142.363 73.4779 142.64 72.9233 142.64C72.3686 142.64 72.0913 142.363 72.0913 141.808C72.0913 141.595 72.1553 141.424 72.2833 141.296V97.968C72.1553 97.7547 72.0913 97.5627 72.0913 97.392C72.0913 96.8373 72.3686 96.56 72.9233 96.56C73.4779 96.56 73.7552 96.8373 73.7552 97.392C73.7552 97.4347 73.7339 97.4987 73.6913 97.584C73.6913 97.6267 73.6913 97.648 73.6913 97.648L80.9873 110L88.2193 97.648V97.392C88.2193 96.8373 88.4966 96.56 89.0513 96.56C89.6059 96.56 89.8833 96.8373 89.8833 97.392C89.8833 97.5627 89.8193 97.7547 89.6913 97.968V141.296Z" fill="black"/>
</g>
</svg>
