<svg width="180" height="162" viewBox="0 0 180 162" fill="none" xmlns="http://www.w3.org/2000/svg">
<g clip-path="url(#clip0_100_2)">
<path d="M8.88563 8.54C9.68563 7.74 10.6856 7.34 11.8856 7.34H24.1856C25.3456 7.34 26.3256 7.76 27.1256 8.6L29.0456 10.52C29.8456 11.32 30.2456 12.3 30.2456 13.46V44.54C30.2456 45.14 30.1456 45.68 29.9456 46.16C29.7456 46.6 29.4256 47.04 28.9856 47.48L27.0656 49.4C26.2656 50.2 25.2856 50.6 24.1256 50.6H11.8256C10.6656 50.6 9.68563 50.2 8.88563 49.4L6.96563 47.48C6.16563 46.68 5.76563 45.7 5.76563 44.54V13.4C5.76563 12.24 6.16563 11.26 6.96563 10.46L8.88563 8.54ZM22.3856 45.2C23.9856 45.2 24.7856 44.4 24.7856 42.8V15.2C24.7856 13.6 23.9856 12.8 22.3856 12.8H13.6256C12.0256 12.8 11.2256 13.6 11.2256 15.2V42.8C11.2256 44.4 12.0256 45.2 13.6256 45.2H22.3856Z" fill="black"/>
<path d="M57.1898 42.68C57.1898 43.44 57.3498 44.04 57.6698 44.48C57.9898 44.88 58.4298 45.08 58.9898 45.08C59.5498 45.08 59.9698 45.3 60.2498 45.74C60.5698 46.14 60.7298 46.72 60.7298 47.48V48.14C60.7298 49.74 59.9298 50.54 58.3298 50.54H49.6898C48.0898 50.54 47.2898 49.74 47.2898 48.14V47.48C47.2898 45.88 48.0298 45.08 49.5098 45.08C50.9898 45.08 51.7298 44.28 51.7298 42.68V15.14C51.7298 13.54 50.9898 12.74 49.5098 12.74C48.0298 12.74 47.2898 11.94 47.2898 10.34V9.68C47.2898 8.08 48.0898 7.28 49.6898 7.28H51.1298C52.2898 7.28 53.2698 7.68 54.0698 8.48L55.9898 10.4C56.7898 11.2 57.1898 12.18 57.1898 13.34V42.68Z" fill="black"/>
<path d="M77.7949 9.74C77.7949 8.14 78.5949 7.34 80.1949 7.34H96.1549C97.3149 7.34 98.2949 7.76 99.0949 8.6L101.015 10.52C101.815 11.32 102.215 12.3 102.215 13.46V25.76C102.215 26.92 101.815 27.92 101.015 28.76L99.0949 30.68C98.2949 31.48 97.3149 31.88 96.1549 31.88H85.6549C84.0549 31.88 83.2549 32.68 83.2549 34.28V42.68C83.2549 44.28 84.0549 45.08 85.6549 45.08H99.8149C101.415 45.08 102.215 45.88 102.215 47.48V48.14C102.215 49.74 101.415 50.54 99.8149 50.54H83.7949C83.1949 50.54 82.6549 50.44 82.1749 50.24C81.7349 50.08 81.2949 49.8 80.8549 49.4L79.1149 47.9C78.2349 47.06 77.7949 46.06 77.7949 44.9V32.42C77.7949 31.82 77.8949 31.3 78.0949 30.86C78.2949 30.38 78.6149 29.92 79.0549 29.48L80.9149 27.62C81.7149 26.82 82.6949 26.42 83.8549 26.42H94.4149C96.0149 26.42 96.8149 25.62 96.8149 24.02V15.2C96.8149 13.6 96.0149 12.8 94.4149 12.8H80.1949C78.5949 12.8 77.7949 12 77.7949 10.4V9.74Z" fill="black"/>
<path d="M136.739 10.46C137.539 11.26 137.939 12.24 137.939 13.4V24.62C137.939 25.78 137.539 26.78 136.739 27.62C136.259 28.1 136.019 28.6 136.019 29.12C136.019 29.6 136.219 30.04 136.619 30.44L136.739 30.56C137.539 31.36 137.939 32.36 137.939 33.56V44.48C137.939 45.64 137.539 46.62 136.739 47.42L134.819 49.34C134.019 50.14 133.039 50.54 131.879 50.54H115.859C114.259 50.54 113.459 49.74 113.459 48.14V47.54C113.459 45.94 114.259 45.14 115.859 45.14H130.139C131.739 45.14 132.539 44.34 132.539 42.74V34.22C132.539 32.62 131.739 31.82 130.139 31.82H116.399C114.799 31.82 113.999 31.02 113.999 29.42V28.76C113.999 27.16 114.799 26.36 116.399 26.36H130.139C131.739 26.36 132.539 25.56 132.539 23.96V15.2C132.539 13.6 131.739 12.8 130.139 12.8H115.859C114.259 12.8 113.459 12 113.459 10.4V9.74C113.459 8.14 114.259 7.34 115.859 7.34H131.879C133.039 7.34 134.019 7.74 134.819 8.54L136.739 10.46Z" fill="black"/>
<path d="M168.509 9.74C168.509 8.14 169.309 7.34 170.909 7.34H171.569C173.169 7.34 173.969 8.14 173.969 9.74V48.14C173.969 49.74 173.169 50.54 171.569 50.54H170.909C169.309 50.54 168.509 49.74 168.509 48.14V38.66C168.509 37.06 167.709 36.26 166.109 36.26H155.549C154.389 36.26 153.409 35.86 152.609 35.06L150.629 33.08C149.829 32.28 149.429 31.3 149.429 30.14V9.74C149.429 8.14 150.229 7.34 151.829 7.34H152.489C154.089 7.34 154.889 8.14 154.889 9.74V28.4C154.889 30 155.689 30.8 157.289 30.8H166.109C167.709 30.8 168.509 30 168.509 28.4V9.74Z" fill="black"/>
<path d="M30.2456 64.28C30.2456 65.88 29.4456 66.68 27.8456 66.68H13.6256C12.0256 66.68 11.2256 67.48 11.2256 69.08V77.48C11.2256 79.08 12.0256 79.88 13.6256 79.88H24.1256C25.3256 79.88 26.3256 80.28 27.1256 81.08L29.0456 83C29.8456 83.8 30.2456 84.78 30.2456 85.94V98.48C30.2456 99.08 30.1456 99.62 29.9456 100.1C29.7456 100.54 29.4256 100.98 28.9856 101.42L27.0656 103.34C26.2656 104.14 25.2856 104.54 24.1256 104.54H8.16563C6.56563 104.54 5.76563 103.74 5.76563 102.14V101.48C5.76563 99.88 6.56563 99.08 8.16563 99.08H22.3856C23.9856 99.08 24.7856 98.28 24.7856 96.68V87.74C24.7856 86.14 23.9856 85.34 22.3856 85.34H11.8856C10.6856 85.34 9.68563 84.94 8.88563 84.14L7.02563 82.34C6.58563 81.9 6.26563 81.46 6.06563 81.02C5.86563 80.54 5.76563 80 5.76563 79.4V67.28C5.76563 66.68 5.86563 66.16 6.06563 65.72C6.26563 65.24 6.58563 64.78 7.02563 64.34L8.94563 62.42C9.74563 61.62 10.7256 61.22 11.8856 61.22H27.8456C29.4456 61.22 30.2456 62.02 30.2456 63.62V64.28Z" fill="black"/>
<path d="M66.2456 64.28C66.2456 65.88 65.4456 66.68 63.8456 66.68H49.5656C47.9656 66.68 47.1656 67.48 47.1656 69.08V75.32C47.1656 76.92 47.9656 77.72 49.5656 77.72H60.1256C61.3256 77.72 62.3256 78.12 63.1256 78.92L65.0456 80.84C65.8456 81.64 66.2456 82.62 66.2456 83.78V98.48C66.2456 99.08 66.1456 99.62 65.9456 100.1C65.7456 100.54 65.4256 100.98 64.9856 101.42L63.0656 103.34C62.2656 104.14 61.2856 104.54 60.1256 104.54H47.8256C46.6656 104.54 45.6856 104.14 44.8856 103.34L42.9656 101.42C42.1656 100.62 41.7656 99.64 41.7656 98.48V67.28C41.7656 66.12 42.1656 65.14 42.9656 64.34L44.8856 62.42C45.6856 61.62 46.6656 61.22 47.8256 61.22H63.8456C65.4456 61.22 66.2456 62.02 66.2456 63.62V64.28ZM60.7856 85.58C60.7856 83.98 59.9856 83.18 58.3856 83.18H49.5656C47.9656 83.18 47.1656 83.98 47.1656 85.58V96.68C47.1656 98.28 47.9656 99.08 49.5656 99.08H58.3856C59.9856 99.08 60.7856 98.28 60.7856 96.68V85.58Z" fill="black"/>
<path d="M79.0863 66.68C77.4863 66.68 76.6863 65.88 76.6863 64.28V63.62C76.6863 62.02 77.4863 61.22 79.0863 61.22H92.4063C93.6063 61.22 94.6063 61.62 95.4063 62.42L97.3263 64.34C98.1263 65.14 98.5263 66.12 98.5263 67.28V102.08C98.5263 103.68 97.7263 104.48 96.1263 104.48H95.4663C93.8663 104.48 93.0663 103.68 93.0663 102.08V69.08C93.0663 67.48 92.2663 66.68 90.6663 66.68H79.0863Z" fill="black"/>
<path d="M116.856 62.48C117.656 61.68 118.656 61.28 119.856 61.28H132.216C133.376 61.28 134.356 61.7 135.156 62.54L137.076 64.46C137.876 65.26 138.276 66.24 138.276 67.4V77.54C138.276 78.7 137.876 79.7 137.076 80.54C136.596 81.02 136.356 81.52 136.356 82.04C136.356 82.52 136.556 82.96 136.956 83.36L137.076 83.48C137.876 84.28 138.276 85.28 138.276 86.48V98.48C138.276 99.08 138.176 99.62 137.976 100.1C137.776 100.54 137.456 100.98 137.016 101.42L135.096 103.34C134.296 104.14 133.316 104.54 132.156 104.54H119.796C118.636 104.54 117.656 104.14 116.856 103.34L114.936 101.42C114.136 100.62 113.736 99.64 113.736 98.48V86.48C113.736 85.88 113.836 85.36 114.036 84.92C114.236 84.44 114.556 83.98 114.996 83.54C115.516 83.02 115.776 82.5 115.776 81.98C115.776 81.54 115.556 81.1 115.116 80.66L114.936 80.48C114.136 79.68 113.736 78.7 113.736 77.54V67.34C113.736 66.18 114.136 65.2 114.936 64.4L116.856 62.48ZM130.416 79.28C132.016 79.28 132.816 78.48 132.816 76.88V69.14C132.816 67.54 132.016 66.74 130.416 66.74H121.596C119.996 66.74 119.196 67.54 119.196 69.14V76.88C119.196 78.48 119.996 79.28 121.596 79.28H130.416ZM130.416 99.14C132.016 99.14 132.816 98.34 132.816 96.74V87.14C132.816 85.54 132.016 84.74 130.416 84.74H121.596C119.996 84.74 119.196 85.54 119.196 87.14V96.74C119.196 98.34 119.996 99.14 121.596 99.14H130.416Z" fill="black"/>
<path d="M168.606 61.4C169.806 61.4 170.786 61.84 171.546 62.72L173.106 64.46C173.866 65.34 174.246 66.32 174.246 67.4V80.3C174.246 81.46 173.846 82.44 173.046 83.24C172.566 83.72 172.326 84.22 172.326 84.74C172.326 85.26 172.526 85.72 172.926 86.12L173.046 86.24C173.846 87.04 174.246 88.04 174.246 89.24V98.48C174.246 99.08 174.146 99.62 173.946 100.1C173.746 100.54 173.426 100.98 172.986 101.42L171.066 103.34C170.266 104.14 169.286 104.54 168.126 104.54H152.166C150.566 104.54 149.766 103.74 149.766 102.14V101.54C149.766 99.94 150.566 99.14 152.166 99.14H166.386C167.986 99.14 168.786 98.34 168.786 96.74V89.9C168.786 88.3 167.986 87.5 166.386 87.5H155.886C154.726 87.5 153.746 87.1 152.946 86.3L150.966 84.32C150.166 83.52 149.766 82.54 149.766 81.38V67.4C149.766 66.8 149.866 66.28 150.066 65.84C150.266 65.36 150.586 64.9 151.026 64.46L152.886 62.6C153.686 61.8 154.686 61.4 155.886 61.4H168.606ZM166.386 82.04C167.986 82.04 168.786 81.24 168.786 79.64V69.2C168.786 67.6 167.986 66.8 166.386 66.8H157.626C156.026 66.8 155.226 67.6 155.226 69.2V79.64C155.226 81.24 156.026 82.04 157.626 82.04H166.386Z" fill="black"/>
<path d="M21.0401 147.08C21.0401 148.68 20.2401 149.48 18.6401 149.48H17.3801C15.7801 149.48 14.9801 148.68 14.9801 147.08V144.38C14.9801 142.78 15.7801 141.98 17.3801 141.98H18.6401C20.2401 141.98 21.0401 142.78 21.0401 144.38V147.08ZM21.0401 125.06C21.0401 126.66 20.2401 127.46 18.6401 127.46H17.3801C15.7801 127.46 14.9801 126.66 14.9801 125.06V122.36C14.9801 120.76 15.7801 119.96 17.3801 119.96H18.6401C20.2401 119.96 21.0401 120.76 21.0401 122.36V125.06Z" fill="black"/>
<path d="M57.0401 152.6C57.0401 154.2 56.2401 155 54.6401 155H53.3801C51.7801 155 50.9801 154.2 50.9801 152.6V149.9C50.9801 148.3 51.7801 147.5 53.3801 147.5H54.6401C56.2401 147.5 57.0401 148.3 57.0401 149.9V152.6Z" fill="black"/>
<path d="M101.183 158.54C99.7825 158.54 98.9225 157.82 98.6025 156.38L97.1025 149.18C96.7825 147.74 95.9225 147.02 94.5225 147.02H85.4625C84.0625 147.02 83.2025 147.74 82.8825 149.18L81.3825 156.38C81.0625 157.82 80.2025 158.54 78.8025 158.54H78.0825C77.3625 158.54 76.8025 158.36 76.4025 158C76.0425 157.64 75.8625 157.16 75.8625 156.56C75.8625 156.28 75.8825 156.06 75.9225 155.9L83.5425 117.62C83.8625 116.18 84.7225 115.46 86.1225 115.46H93.6825C95.0825 115.46 95.9425 116.18 96.2625 117.62L104.062 155.9C104.103 156.06 104.123 156.3 104.123 156.62C104.123 157.9 103.383 158.54 101.903 158.54H101.183ZM89.9025 120.92C89.0225 120.92 88.4225 121.64 88.1025 123.08L84.9225 138.98C84.8825 139.14 84.8625 139.36 84.8625 139.64C84.8625 140.24 85.0425 140.72 85.4025 141.08C85.8025 141.44 86.3625 141.62 87.0825 141.62H92.8425C94.3225 141.62 95.0625 140.98 95.0625 139.7C95.0625 139.38 95.0425 139.14 95.0025 138.98L91.7025 123.08C91.3825 121.64 90.7825 120.92 89.9025 120.92Z" fill="black"/>
<path d="M136.97 118.64C137.77 119.48 138.17 120.48 138.17 121.64V137.72C138.17 138.88 137.77 139.88 136.97 140.72L135.05 142.64C134.25 143.44 133.27 143.84 132.11 143.84H122.27C120.67 143.84 119.87 144.64 119.87 146.24V156.2C119.87 157.8 119.07 158.6 117.47 158.6H116.81C115.21 158.6 114.41 157.8 114.41 156.2V117.92C114.41 116.32 115.21 115.52 116.81 115.52H132.11C133.27 115.52 134.25 115.92 135.05 116.72L136.97 118.64ZM132.77 123.38C132.77 121.78 131.97 120.98 130.37 120.98H122.33C120.73 120.98 119.93 121.78 119.93 123.38V135.98C119.93 137.58 120.73 138.38 122.33 138.38H130.31C131.91 138.38 132.71 137.58 132.71 135.98L132.77 123.38Z" fill="black"/>
<path d="M166.164 152.72C165.724 154.08 164.824 154.76 163.464 154.76H161.124C159.684 154.76 158.764 154.1 158.364 152.78L154.584 140.78C154.424 140.34 154.204 140 153.924 139.76C153.684 139.52 153.424 139.4 153.144 139.4C152.784 139.4 152.484 139.56 152.244 139.88C152.004 140.2 151.884 140.64 151.884 141.2V156.08C151.884 157.68 151.084 158.48 149.484 158.48H148.884C147.284 158.48 146.484 157.68 146.484 156.08V117.86C146.484 116.26 147.284 115.46 148.884 115.46H149.784C151.184 115.46 152.084 116.12 152.484 117.44L160.644 143.54C160.804 144.1 161.024 144.52 161.304 144.8C161.584 145.08 161.864 145.22 162.144 145.22C162.464 145.22 162.764 145.08 163.044 144.8C163.324 144.48 163.544 144.04 163.704 143.48L171.384 117.5C171.824 116.14 172.724 115.46 174.084 115.46H175.104C176.704 115.46 177.504 116.26 177.504 117.86V156.08C177.504 157.68 176.704 158.48 175.104 158.48H174.504C172.904 158.48 172.104 157.68 172.104 156.08V141.86C172.104 141.3 171.984 140.88 171.744 140.6C171.504 140.28 171.204 140.12 170.844 140.12C170.204 140.12 169.744 140.56 169.464 141.44L166.164 152.72Z" fill="black"/>
</g>
</svg>
